<svg id="Objects" xmlns="http://www.w3.org/2000/svg" xmlns:xlink="http://www.w3.org/1999/xlink" width="500" height="500" viewBox="0 0 500 500"><defs><style>.cls-1{fill:url(#linear-gradient);}.cls-2{fill:url(#linear-gradient-2);}.cls-3{fill:#171717;}.cls-4{fill:#a4a4a4;}.cls-5{fill:url(#linear-gradient-3);}.cls-6{opacity:0.15;}.cls-7{fill:#fff;}.cls-8{fill:#0062ff;}.cls-9{fill:#8bc0ff;}</style><linearGradient id="linear-gradient" x1="100.63" y1="250.97" x2="396.03" y2="250.97" gradientUnits="userSpaceOnUse"><stop offset="0" stop-color="#dcdcdc"/><stop offset="1" stop-color="#bebebe"/></linearGradient><linearGradient id="linear-gradient-2" x1="445.5" y1="362" x2="55.54" y2="136.86" gradientUnits="userSpaceOnUse"><stop offset="0.19" stop-color="#8c8c8c"/><stop offset="0.35" stop-color="#dcdcdc"/><stop offset="1" stop-color="#f3f3f3"/></linearGradient><linearGradient id="linear-gradient-3" x1="367.48" y1="258.7" x2="149.57" y2="258.7" gradientTransform="matrix(-1, 0, 0, 1, 500, 0)" gradientUnits="userSpaceOnUse"><stop offset="0" stop-color="#171717"/><stop offset="1" stop-color="#3d3d3d"/></linearGradient></defs><path class="cls-1" d="M101.24,58.4c0-3.24,2.3-4.54,5.12-2.92L391,219.79a11.21,11.21,0,0,1,5.08,8.8l-.61,215c0,3.24-2.3,4.54-5.12,2.92L105.71,282.15a11.21,11.21,0,0,1-5.08-8.8Z"/><path class="cls-2" d="M105.24,55a3.84,3.84,0,0,0-.84-.18h-.07a3.14,3.14,0,0,0-.82,0h-.05a2.57,2.57,0,0,0-.73.28l3.34-1.94,0,0a1.42,1.42,0,0,1,.25-.12l.27-.1.19,0h0l.06,0a3,3,0,0,1,.31,0h.52l.2,0,.44.1.2.07.18.06a2,2,0,0,1,.22.08,4.76,4.76,0,0,1,.72.35L394.29,217.85a8.12,8.12,0,0,1,.95.66,3.85,3.85,0,0,1,.3.27l.45.39.19.2.17.18.2.21c.14.16.28.33.41.5l.14.19.07.1c0,.06.09.11.13.18s.2.29.29.44.18.28.27.43l0,0,0,0,.2.36.22.43.18.4v0c.07.15.13.3.19.45s.12.32.17.48.05.17.07.25a.3.3,0,0,1,0,.1.84.84,0,0,0,.05.17c0,.2.1.39.14.59s0,.23.06.35a1.08,1.08,0,0,1,0,.19.86.86,0,0,1,0,.17,6.69,6.69,0,0,1,.07,1l-.61,215a3.55,3.55,0,0,1-1.49,3.27l-3.34,1.94a3.57,3.57,0,0,0,1.49-3.27L396,228.59a7.68,7.68,0,0,0-.1-1.16l0-.19a7.43,7.43,0,0,0-.26-1.11l0-.1a11,11,0,0,0-.44-1.21v0c-.18-.4-.38-.8-.6-1.19l0,0c-.22-.38-.46-.74-.71-1.09l-.07-.1q-.36-.46-.75-.9l-.17-.17c-.21-.22-.42-.42-.64-.61l-.3-.26a9.54,9.54,0,0,0-.95-.66L106.36,55.48a7,7,0,0,0-.94-.43Z"/><path class="cls-3" d="M107.89,79.6,389.24,242l0-15.46L107.93,64.15ZM377.28,227.38c0-2.43,1.73-3.4,3.85-2.17a8.41,8.41,0,0,1,3.82,6.6c0,2.44-1.74,3.42-3.84,2.21A8.44,8.44,0,0,1,377.28,227.38ZM364,219.74c0-2.43,1.73-3.4,3.85-2.18a8.42,8.42,0,0,1,3.82,6.61c0,2.43-1.72,3.43-3.84,2.21A8.47,8.47,0,0,1,364,219.74Zm-13.23-7.64c0-2.43,1.72-3.41,3.84-2.18a8.4,8.4,0,0,1,3.83,6.61c0,2.44-1.74,3.42-3.85,2.2A8.41,8.41,0,0,1,350.81,212.1Z"/><path class="cls-4" d="M354.65,209.92a8.4,8.4,0,0,1,3.83,6.61c0,2.44-1.74,3.42-3.85,2.2a8.41,8.41,0,0,1-3.82-6.63C350.82,209.67,352.53,208.69,354.65,209.92Z"/><path class="cls-4" d="M367.89,217.56a8.42,8.42,0,0,1,3.82,6.61c0,2.43-1.72,3.43-3.84,2.21a8.47,8.47,0,0,1-3.83-6.64C364,217.31,365.77,216.34,367.89,217.56Z"/><polygon class="cls-5" points="107.89 79.6 389.24 242.04 388.68 437.8 107.33 275.36 107.89 79.6"/><path class="cls-4" d="M381.13,225.21a8.41,8.41,0,0,1,3.82,6.6c0,2.44-1.74,3.42-3.84,2.21a8.44,8.44,0,0,1-3.83-6.63C377.28,225,379,224,381.13,225.21Z"/><g class="cls-6"><polygon class="cls-7" points="119.08 130.49 119.08 128.57 377.42 277.98 377.42 279.9 119.08 130.49"/><polygon class="cls-7" points="119.08 169.93 119.08 168.01 377.42 317.42 377.42 319.35 119.08 169.93"/><polygon class="cls-7" points="119.08 156.79 119.08 154.87 377.42 304.28 377.42 306.2 119.08 156.79"/><polygon class="cls-7" points="119.08 143.63 119.08 141.71 377.42 291.14 377.42 293.06 119.08 143.63"/><polygon class="cls-7" points="119.08 102.28 377.42 251.69 377.42 253.62 119.08 104.21 119.08 102.28"/><polygon class="cls-7" points="119.08 261.96 119.08 260.04 377.42 409.45 377.42 411.37 119.08 261.96"/><polygon class="cls-7" points="119.08 117.35 119.08 115.42 377.42 264.83 377.42 266.76 119.08 117.35"/><polygon class="cls-7" points="119.08 183.08 119.08 181.15 377.42 330.56 377.42 332.49 119.08 183.08"/><polygon class="cls-7" points="119.08 222.52 119.08 220.59 377.42 370 377.42 371.93 119.08 222.52"/><polygon class="cls-7" points="119.08 248.82 119.08 246.9 377.42 396.31 377.42 398.23 119.08 248.82"/><polygon class="cls-7" points="119.08 235.66 119.08 233.74 377.42 383.15 377.42 385.07 119.08 235.66"/><polygon class="cls-7" points="119.08 196.24 119.08 194.31 377.42 343.72 377.42 345.65 119.08 196.24"/><polygon class="cls-7" points="119.08 209.38 119.08 207.45 377.42 356.86 377.42 358.79 119.08 209.38"/></g><path class="cls-8" d="M170,253.9a8.61,8.61,0,0,1,3.91,6.78,3.42,3.42,0,0,1-.49,1.9l21,34.56a3.27,3.27,0,0,1,2.28.53l24-95a8.07,8.07,0,0,1-1.19-3.93c0-2.49,1.78-3.5,3.94-2.24a8.63,8.63,0,0,1,3.92,6.78,2.62,2.62,0,0,1-1.37,2.62l23.62,91.31a6.11,6.11,0,0,1,1.11.82l21-37.14a7.6,7.6,0,0,1-.84-3.28c0-2.5,1.77-3.5,3.94-2.25a8.61,8.61,0,0,1,3.91,6.78,2.68,2.68,0,0,1-1.26,2.58l23.66,93a4,4,0,0,1,.51.25,7.67,7.67,0,0,1,.77.54l21.32-39.62a8.19,8.19,0,0,1-1.28-4.08c0-2.49,1.78-3.49,3.94-2.24a8.58,8.58,0,0,1,3.92,6.78c0,2.49-1.77,3.5-4.29,2l-21.44,39.84a7.9,7.9,0,0,1,1,3.54c0,2.49-1.77,3.5-3.94,2.25a8.65,8.65,0,0,1-3.92-6.78,2.75,2.75,0,0,1,1.17-2.53l-24.07-93.26a6.9,6.9,0,0,1-1-.7l-21.08,37.23a7.56,7.56,0,0,1,.73,3.06c0,2.49-1.77,3.5-3.94,2.25a8.61,8.61,0,0,1-3.91-6.78,2.59,2.59,0,0,1,1.4-2.64L223,205.21,199,300a8.14,8.14,0,0,1,1.48,4.4c0,2.5-1.76,3.5-3.94,2.25a8.68,8.68,0,0,1-3.91-6.78,4.18,4.18,0,0,1,.2-1.3l-21.36-35.13a3.64,3.64,0,0,1-1.59-.53,8.62,8.62,0,0,1-3.91-6.77C166,253.66,167.78,252.65,170,253.9Z"/><path class="cls-9" d="M171.28,190.89a5.91,5.91,0,0,1,.61.41l24.35-41.58c.21-.37.63-.43,1.26-.06a2.85,2.85,0,0,1,1.07,1.7L223.3,279.82a7.35,7.35,0,0,1,2,1.82l19.94-11.35a6.4,6.4,0,0,1-.24-1.7c0-2.49,1.77-3.5,3.94-2.25a8.61,8.61,0,0,1,3.91,6.78,3.76,3.76,0,0,1-.25,1.42l20.43,35.37a3.57,3.57,0,0,1,1.75.53,6.42,6.42,0,0,1,.57.39L298.1,273a8,8,0,0,1-1-3.64c0-2.5,1.77-3.5,3.94-2.25a8.63,8.63,0,0,1,3.91,6.78c0,1.54-.67,2.51-1.7,2.74l23,94.74a8.6,8.6,0,0,1,3.91,6.78c0,2.49-1.77,3.5-3.94,2.24a8.61,8.61,0,0,1-3.91-6.78,2.54,2.54,0,0,1,1.5-2.67l-23-94.91a6.3,6.3,0,0,1-.53-.37L277.6,313.42a7.89,7.89,0,0,1,1.11,3.8c0,2.5-1.77,3.5-3.94,2.25a8.63,8.63,0,0,1-3.91-6.78,3.54,3.54,0,0,1,.41-1.77l-20.24-35a3.32,3.32,0,0,1-2.1-.51,7.37,7.37,0,0,1-2.09-1.91l-19.9,11.32a6.56,6.56,0,0,1,.28,1.83c0,2.49-1.77,3.49-3.94,2.24a8.62,8.62,0,0,1-3.92-6.78,2.61,2.61,0,0,1,1.37-2.62L197,154.9l-22.84,39a8,8,0,0,1,1.09,3.75c0,2.49-1.77,3.5-3.94,2.25a8.62,8.62,0,0,1-3.92-6.78C167.35,190.64,169.11,189.64,171.28,190.89Z"/></svg>