<svg id="Objects" xmlns="http://www.w3.org/2000/svg" width="500" height="500" viewBox="0 0 500 500"><defs><style>.cls-1{fill:#6f6f6f;}.cls-2{fill:#dcdcdc;}.cls-3{fill:#3d3d3d;}.cls-4{fill:#565656;}</style></defs><path class="cls-1" d="M135.34,225.75l141.81,82.41c-1.67-1-3.81-.89-6.14.46L129.2,226.21c2.34-1.36,4.48-1.43,6.14-.46"/><path class="cls-1" d="M135.34,225.75l139.13,80.86,105.81-61.08-141.81-82.4L129.18,226.22c2.35-1.36,4.48-1.44,6.16-.47"/><path class="cls-2" d="M377.85,260.51c0-5,.8-10.49,2.44-11.44L277.52,308.4l-6.47,3.73,0,0c-3.22,1.86-5.81,7.85-5.8,13.41s2.64,8.47,5.85,6.62l6.54-3.78,102.74-59.31C378.7,270,377.86,265.52,377.85,260.51Z"/><path class="cls-3" d="M271.08,335.78l109.28-63.09v-3.6L277.61,328.4h0l-6.53,3.77c-3.21,1.85-5.84-1.11-5.85-6.62S267.8,314,271,312.15l6.5-3.75h0l102.77-59.33v-3.55L271,308.6l0,0c-5.31,3.06-9.57,11.58-9.55,19.11s4.31,11.11,9.62,8"/><path class="cls-4" d="M271,308.62,129.2,226.21c-5.31,3.07-9.58,11.59-9.56,19.12,0,4.22,1.4,7.22,3.56,8.47L265,336.22c-2.16-1.26-3.53-4.26-3.54-8.49,0-7.53,4.23-16.05,9.55-19.11"/></svg>