<svg id="Objects" xmlns="http://www.w3.org/2000/svg" xmlns:xlink="http://www.w3.org/1999/xlink" width="500" height="500" viewBox="0 0 500 500"><defs><style>.cls-1{fill:#dcdcdc;}.cls-2{fill:url(#New_Gradient_Swatch_5);}.cls-3{fill:url(#New_Gradient_Swatch_5-2);}.cls-4{fill:url(#linear-gradient);}.cls-5{fill:#bebebe;}.cls-6{fill:#d5d9e0;}.cls-7{fill:#f3f3f3;}.cls-8{fill:url(#linear-gradient-2);}.cls-9{fill:url(#linear-gradient-3);}.cls-10{fill:url(#linear-gradient-4);}</style><linearGradient id="New_Gradient_Swatch_5" x1="218.55" y1="331.82" x2="245.67" y2="331.82" gradientUnits="userSpaceOnUse"><stop offset="0" stop-color="#bebebe"/><stop offset="1" stop-color="#fff"/></linearGradient><linearGradient id="New_Gradient_Swatch_5-2" x1="218.55" y1="315.63" x2="245.67" y2="315.63" xlink:href="#New_Gradient_Swatch_5"/><linearGradient id="linear-gradient" x1="218.55" y1="350.92" x2="245.67" y2="350.92" gradientUnits="userSpaceOnUse"><stop offset="0" stop-color="#bebebe"/><stop offset="1" stop-color="#f3f3f3"/></linearGradient><linearGradient id="linear-gradient-2" x1="135.13" y1="149.72" x2="181.61" y2="173.88" xlink:href="#linear-gradient"/><linearGradient id="linear-gradient-3" x1="133.21" y1="153.42" x2="179.69" y2="177.57" xlink:href="#linear-gradient"/><linearGradient id="linear-gradient-4" x1="141.27" y1="137.9" x2="187.76" y2="162.05" xlink:href="#linear-gradient"/></defs><polygon class="cls-1" points="244.89 291.05 244.82 317.4 221.03 303.67 219.84 302.98 196.05 289.24 196.13 262.9 219.91 276.63 221.11 277.32 244.89 291.05"/><path class="cls-2" d="M221.07,327.52l1.18-.69a11.84,11.84,0,0,0,5.36,9.28l-1.18.69A11.82,11.82,0,0,1,221.07,327.52Z"/><polygon class="cls-3" points="221.13 303.74 222.32 304.41 222.25 326.83 221.07 327.52 221.13 303.74"/><path class="cls-1" d="M221.13,303.73l-.06,23.79a11.82,11.82,0,0,0,5.36,9.28l50.08,28.92v1.37l-50.08-28.91a14.5,14.5,0,0,1-6.55-11.35l.07-23.78Z"/><polygon class="cls-4" points="226.43 336.8 227.62 336.11 277.69 365.03 276.51 365.72 226.43 336.8"/><polygon class="cls-5" points="244.85 303.55 246.04 302.86 277.82 321.2 276.63 321.89 244.85 303.55"/><polygon class="cls-6" points="276.63 323.26 277.82 322.57 302.2 336.65 301.01 337.34 276.63 323.26"/><polygon class="cls-6" points="301.01 335.97 302.2 335.28 302.2 336.65 301.01 337.34 301.01 335.97"/><polygon class="cls-6" points="276.63 321.89 277.82 321.2 302.2 335.28 301.01 335.97 276.63 321.89"/><polygon class="cls-1" points="325.31 381.1 325.23 407.44 276.47 379.29 276.5 367.09 276.51 365.72 276.54 352.94 325.31 381.1"/><polygon class="cls-1" points="325.43 337.56 325.36 363.91 276.59 335.75 276.63 323.55 276.63 322.18 276.67 309.41 325.43 337.56"/><polygon class="cls-7" points="276.54 352.94 277.73 352.25 326.49 380.4 325.31 381.1 276.54 352.94"/><polygon class="cls-5" points="244.85 304.92 246.04 304.23 246 316.72 244.82 317.41 244.85 304.92"/><polygon class="cls-5" points="244.89 291.05 246.08 290.36 246.04 304.26 244.85 304.95 244.89 291.05"/><polygon class="cls-7" points="276.67 309.4 277.86 308.71 326.62 336.86 325.43 337.55 276.67 309.4"/><polygon class="cls-7" points="221.11 277.32 222.29 276.63 246.08 290.36 244.89 291.05 221.11 277.32"/><polygon class="cls-1" points="245.01 247.52 244.94 273.87 221.16 260.13 219.96 259.44 196.18 245.71 196.25 219.37 220.03 233.1 221.23 233.79 245.01 247.52"/><polygon class="cls-1" points="219.91 276.63 219.96 259.44 221.16 260.13 221.11 277.32 219.91 276.63"/><polygon class="cls-5" points="221.16 260.13 222.34 260.82 222.29 276.63 221.11 277.32 221.16 260.13"/><polygon class="cls-6" points="220.08 215.9 221.27 215.21 222.47 215.9 221.28 216.59 220.08 215.9"/><path class="cls-8" d="M141,150.17l1.19-.69a11.82,11.82,0,0,0,5.36,9.29l-1.19.69A11.82,11.82,0,0,1,141,150.17Z"/><polygon class="cls-9" points="146.36 159.46 147.55 158.77 197.63 187.68 196.44 188.37 146.36 159.46"/><polygon class="cls-6" points="219.06 202.81 220.25 202.12 222.01 203.13 220.82 203.82 219.06 202.81"/><polygon class="cls-6" points="219.06 201.44 220.25 200.75 220.25 202.12 219.06 202.81 219.06 201.44"/><polygon class="cls-6" points="276.88 236.19 278.06 235.5 302.44 249.57 301.26 250.26 276.88 236.19"/><path class="cls-6" d="M220.25,202.12h0l-1.19.69,1.76,1,1.19-.69Zm-1.19-.69h0l-21.44-12.37-1.18.69,22.62,13.06Z"/><polygon class="cls-6" points="196.44 188.37 197.63 187.68 220.25 200.75 219.06 201.44 196.44 188.37"/><path class="cls-1" d="M141.07,126.68,141,150.17a11.82,11.82,0,0,0,5.36,9.29l50.08,28.91v1.38l-50.08-28.92a14.45,14.45,0,0,1-6.56-11.35l.07-23.5Z"/><polygon class="cls-6" points="301.26 248.89 302.45 248.2 302.44 249.57 301.26 250.26 301.26 248.89"/><polygon class="cls-6" points="276.88 234.81 278.07 234.12 302.45 248.2 301.26 248.89 276.88 234.81"/><polygon class="cls-10" points="141.07 126.68 142.25 125.98 142.19 149.48 141 150.17 141.07 126.68"/><polygon class="cls-1" points="164.92 114.05 164.85 140.4 141.06 126.66 139.87 125.97 116.08 112.24 116.16 85.89 139.94 99.63 141.14 100.32 164.92 114.05"/><polygon class="cls-7" points="196.25 219.37 197.44 218.68 221.22 232.41 220.03 233.1 196.25 219.37"/><polygon class="cls-6" points="220.03 233.1 221.22 232.41 222.42 233.1 221.23 233.79 220.03 233.1"/><polygon class="cls-5" points="325.31 381.1 326.49 380.4 326.42 406.75 325.23 407.44 325.31 381.1"/><polygon class="cls-7" points="196.13 262.9 197.31 262.21 219.92 275.26 219.91 276.63 196.13 262.9"/><polygon class="cls-5" points="325.43 337.55 326.62 336.86 326.54 363.22 325.36 363.91 325.43 337.55"/><polygon class="cls-7" points="221.23 233.79 222.42 233.1 246.2 246.83 245.01 247.52 221.23 233.79"/><polygon class="cls-5" points="245.01 247.52 246.2 246.83 246.13 273.18 244.94 273.87 245.01 247.52"/><polygon class="cls-5" points="164.92 114.06 166.11 113.37 166.03 139.71 164.84 140.4 164.92 114.06"/><polygon class="cls-7" points="116.16 85.9 117.34 85.21 166.11 113.37 164.92 114.06 116.16 85.9"/><polygon class="cls-7" points="196.48 175.88 197.66 175.19 246.43 203.35 245.24 204.04 196.48 175.88"/><polygon class="cls-5" points="325.68 250.48 326.87 249.79 326.79 276.13 325.6 276.82 325.68 250.48"/><polygon class="cls-1" points="220.08 215.9 221.28 216.59 221.23 233.79 220.03 233.1 220.08 215.9"/><polygon class="cls-5" points="221.28 216.59 222.47 215.9 222.42 233.1 221.23 233.79 221.28 216.59"/><polygon class="cls-1" points="245.24 204.04 245.17 230.38 221.38 216.65 220.19 215.96 196.41 202.23 196.48 175.88 220.26 189.62 221.46 190.31 245.24 204.04"/><polygon class="cls-1" points="325.7 250.48 325.62 276.82 276.86 248.67 276.89 236.47 276.9 235.1 276.93 222.32 325.7 250.48"/><polygon class="cls-5" points="245.2 217.9 246.39 217.21 246.35 229.69 245.16 230.38 245.2 217.9"/><polygon class="cls-5" points="245.24 204.04 246.43 203.35 246.39 217.21 245.2 217.9 245.24 204.04"/><polygon class="cls-7" points="276.91 222.32 278.1 221.63 326.87 249.79 325.68 250.48 276.91 222.32"/><polygon class="cls-1" points="301.26 248.89 301.26 250.26 276.88 236.19 245.2 217.9 245.2 216.53 276.88 234.81 301.26 248.89"/><polygon class="cls-5" points="245.2 216.53 246.39 215.84 276.91 233.46 276.9 234.82 245.2 216.53"/><polygon class="cls-1" points="276.63 323.26 244.85 304.92 244.85 303.55 276.63 321.89 276.63 323.26"/></svg>