<svg id="Objects" xmlns="http://www.w3.org/2000/svg" xmlns:xlink="http://www.w3.org/1999/xlink" width="500" height="500" viewBox="0 0 500 500"><defs><style>.cls-1{isolation:isolate;}.cls-2{fill:#8b8b8b;}.cls-3{fill:#bdbdbd;}.cls-4{fill:#a3a3a3;}.cls-5{fill:url(#linear-gradient);}.cls-6{fill:#c3ddff;}.cls-10,.cls-7,.cls-8,.cls-9{fill:none;stroke:#408bfc;stroke-linecap:round;stroke-linejoin:round;}.cls-7,.cls-8,.cls-9{stroke-width:3.71px;}.cls-7{opacity:0.11;}.cls-10,.cls-8{opacity:0.15;}.cls-21,.cls-9{opacity:0.25;}.cls-11,.cls-13{opacity:0.35;}.cls-12,.cls-13{fill:#408bfc;}.cls-14{fill:#c7dcfd;}.cls-15{fill:url(#linear-gradient-2);}.cls-16{fill:url(#linear-gradient-3);}.cls-17{fill:url(#linear-gradient-4);}.cls-18{fill:url(#linear-gradient-5);}.cls-19{fill:url(#linear-gradient-6);}.cls-20{fill:url(#linear-gradient-7);}.cls-22{fill:url(#linear-gradient-8);}</style><linearGradient id="linear-gradient" x1="-6076.23" y1="-7148.98" x2="-6070.44" y2="-7138.96" gradientTransform="translate(-8995.66 2022.84) rotate(120)" gradientUnits="userSpaceOnUse"><stop offset="0" stop-color="#bdbdbd"/><stop offset="1" stop-color="#8b8b8b"/></linearGradient><linearGradient id="linear-gradient-2" x1="4723.52" y1="214.7" x2="4742.94" y2="207.63" gradientTransform="matrix(0.5, -0.87, -0.87, -0.5, -1997.59, 4395.88)" gradientUnits="userSpaceOnUse"><stop offset="0" stop-color="#97c1ff"/><stop offset="0.02" stop-color="#8cbaff"/><stop offset="0.07" stop-color="#7bafff"/><stop offset="0.11" stop-color="#71a8ff"/><stop offset="0.18" stop-color="#6ea6ff"/><stop offset="1" stop-color="#c9deff"/></linearGradient><linearGradient id="linear-gradient-3" x1="4711.91" y1="171.21" x2="4725.45" y2="171.21" gradientTransform="matrix(0.94, -0.34, -0.34, -0.94, -4162.78, 1996.8)" gradientUnits="userSpaceOnUse"><stop offset="0" stop-color="#a2a2a2"/><stop offset="0" stop-color="#a2a2a2"/><stop offset="0.22" stop-color="#949494"/><stop offset="0.49" stop-color="#8c8c8c"/><stop offset="1" stop-color="#8a8a8a"/></linearGradient><linearGradient id="linear-gradient-4" x1="4712.14" y1="178.59" x2="4729.71" y2="178.59" gradientTransform="matrix(0.5, -0.87, -0.87, -0.5, -1997.59, 4395.88)" gradientUnits="userSpaceOnUse"><stop offset="0" stop-color="#bebebe"/><stop offset="0.09" stop-color="#b1b1b1"/><stop offset="0.2" stop-color="#a7a7a7"/><stop offset="0.35" stop-color="#a4a4a4"/><stop offset="1" stop-color="#dcdcdc"/></linearGradient><linearGradient id="linear-gradient-5" x1="4880.14" y1="180.73" x2="4908.7" y2="119.46" gradientTransform="matrix(0.5, -0.87, -0.87, -0.5, -2084.57, 4546.53)" gradientUnits="userSpaceOnUse"><stop offset="0" stop-color="#bebebe"/><stop offset="0.43" stop-color="#a4a4a4"/><stop offset="0.79" stop-color="#6f6f6f"/><stop offset="0.91" stop-color="#717171"/><stop offset="0.96" stop-color="#787878"/><stop offset="0.99" stop-color="#838383"/><stop offset="1" stop-color="#8c8c8c"/></linearGradient><linearGradient id="linear-gradient-6" x1="4858.26" y1="174.27" x2="4896.58" y2="107.9" gradientTransform="matrix(0.5, -0.87, -0.87, -0.5, -2084.57, 4546.53)" gradientUnits="userSpaceOnUse"><stop offset="0" stop-color="#dcdcdc"/><stop offset="0.65" stop-color="#a4a4a4"/><stop offset="0.8" stop-color="#a7a7a7"/><stop offset="0.91" stop-color="#b1b1b1"/><stop offset="1" stop-color="#bebebe"/></linearGradient><linearGradient id="linear-gradient-7" x1="364.33" y1="150.53" x2="309.99" y2="150.53" gradientTransform="translate(530.88 16.43) rotate(120)" gradientUnits="userSpaceOnUse"><stop offset="0" stop-color="#f3f3f3"/><stop offset="1" stop-color="#dcdcdc"/></linearGradient><linearGradient id="linear-gradient-8" x1="313.59" y1="150.53" x2="360.73" y2="150.53" gradientTransform="translate(530.88 16.43) rotate(120)" gradientUnits="userSpaceOnUse"><stop offset="0" stop-color="#0062ff"/><stop offset="1" stop-color="#054ada"/></linearGradient></defs><g id="Laptop_Light" data-name="Laptop Light"><g class="cls-1"><path class="cls-2" d="M222.08,332.81l-118-68.58a4.13,4.13,0,0,1-2.36-3.31c.1,1.45-.33,3.92.6,5.09h0a5.33,5.33,0,0,0,1.74,1.53l118,68.59Z"/><path class="cls-3" d="M395.86,242.47a4.76,4.76,0,0,0,2.27-2.45h0c.28-.61.1-3.56.14-4.24a2.83,2.83,0,0,1-.15.9h0a4.85,4.85,0,0,1-2.26,2.45L233.64,332.79v3.33Z"/><path class="cls-4" d="M233.64,332.79a12.7,12.7,0,0,1-11.56,0l-118-68.58c-3.16-1.83-3.15-4.84.06-6.7l162.21-93.65a12.72,12.72,0,0,1,11.54,0l118,68.58c3.19,1.85,3.17,4.83,0,6.68Z"/><path class="cls-5" d="M231,333.82a13.72,13.72,0,0,1-7.62-.4h0a8.83,8.83,0,0,1-1.28-.6v3.33a9.23,9.23,0,0,0,1.27.6h0a12.91,12.91,0,0,0,10.28-.63v-3.33A9.54,9.54,0,0,1,231,333.82Z"/></g><path d="M233.79,332.2a12.73,12.73,0,0,1-11.56,0L105.1,264.15c-3.16-1.84-3.14-4.85.07-6.7l161-93a12.73,12.73,0,0,1,11.53,0l117.13,68.06c3.18,1.85,3.14,4.85,0,6.69Z"/><path class="cls-6" d="M232,329.91a8.86,8.86,0,0,1-8,0L108,262.48c-1.58-.92-1.57-2.42,0-3.36l160-92.34a8.89,8.89,0,0,1,8,0L392,234.2c1.61.93,1.57,2.45,0,3.37Z"/></g><path class="cls-7" d="M288.94,242.38c18.91,18.9,10.06,40.71-19.77,48.7"/><path class="cls-7" d="M180.93,271.32c-18.91-18.91-10.06-40.72,19.76-48.71"/><path class="cls-8" d="M257.94,279.85c-20,5.38-46.59-.57-59.3-13.28s-6.76-27.36,13.28-32.73"/><path class="cls-9" d="M249.35,271.26c-12.56,3.37-29.2-.36-37.16-8.32s-4.23-17.15,8.32-20.51,29.2.36,37.16,8.32"/><polygon class="cls-10" points="222.99 244.98 234.34 250.28 244.84 247.65 243.65 255.78 253.12 262.8 241.03 262.53 236.38 269.49 230.11 261.2 217.76 258.48 225.97 253.62 222.99 244.98"/><g class="cls-11"><path class="cls-12" d="M239.67,207.09l35.47,20.4c11.28-8.62,9.37-15.39,1.73-20.64C264.82,198.58,251,200.54,239.67,207.09Z"/></g><g class="cls-11"><path class="cls-12" d="M314.14,250.43a1.06,1.06,0,0,1-.54-.14L278.78,230a1.09,1.09,0,1,1,1.09-1.88l34.82,20.3a1.09,1.09,0,0,1-.55,2Z"/><path class="cls-12" d="M318.13,248.15a1.08,1.08,0,0,1-.54-.15l-34.83-20.3a1.09,1.09,0,0,1,1.09-1.89l34.83,20.31a1.09,1.09,0,0,1-.55,2Z"/><path class="cls-12" d="M322.12,245.86a1.1,1.1,0,0,1-.55-.14l-34.82-20.31a1.09,1.09,0,1,1,1.09-1.88l34.82,20.3a1.09,1.09,0,0,1,.4,1.49A1.08,1.08,0,0,1,322.12,245.86Z"/><path class="cls-12" d="M326.11,243.58a1.08,1.08,0,0,1-.55-.15l-34.82-20.3a1.09,1.09,0,0,1,1.09-1.89l34.82,20.31a1.09,1.09,0,0,1-.54,2Z"/><path class="cls-12" d="M330.09,241.29a1.06,1.06,0,0,1-.54-.14l-34.83-20.31a1.09,1.09,0,0,1,1.09-1.88l34.83,20.3a1.08,1.08,0,0,1,.39,1.49A1.07,1.07,0,0,1,330.09,241.29Z"/></g><path class="cls-13" d="M290.15,192.33c-4.44-2.15-10.73-1.15-14,2.23s-2.41,7.87,2,10,10.74,1.14,14.05-2.24S294.59,194.47,290.15,192.33Z"/><g class="cls-1"><ellipse class="cls-14" cx="204.96" cy="213.6" rx="10.32" ry="7.62" transform="translate(-89.36 181.83) rotate(-40.02)"/><path class="cls-15" d="M177.72,166.3a6,6,0,0,1,2.44,1.71l32.71,39c-7.05-7.35-21.82,5.13-15.82,13.27l-32.72-39A6.55,6.55,0,0,1,163,176.2C163.93,169.8,171.34,164.13,177.72,166.3Z"/></g><g class="cls-1"><ellipse class="cls-16" cx="213.48" cy="223.78" rx="6.96" ry="5.13" transform="translate(-93.91 189.7) rotate(-40.02)"/><path class="cls-17" d="M209.12,208.58l.21.09a.25.25,0,0,1,.09,0h0l.11.06.17.1.11.06.1.07,0,0a3.44,3.44,0,0,1,.36.28l0,0,0,0a3.31,3.31,0,0,1,.27.26s0,0,0,0l0,.06,8.05,9.58-.09-.1a3.31,3.31,0,0,0-.26-.27l-.07-.06a3.38,3.38,0,0,0-.36-.27l-.13-.09-.11-.07-.17-.09-.11-.06-.12-.05-.22-.1-.14-.05-.21-.07-.15,0-.2-.05-.16,0-.2,0-.17,0-.21,0h-.8l-.18,0-.25,0-.16,0-.29,0-.14,0-.43.11a5.8,5.8,0,0,0-.59.19l-.15,0-.36.15-.39.19-.27.13-.3.18-.29.17-.26.18-.28.2-.24.19-.27.22-.24.22-.24.23-.25.26-.21.22-.28.35-.18.23-.09.13c-.09.12-.17.25-.26.38l-.07.12c-.1.16-.19.33-.28.49l0,.1c-.07.14-.13.28-.19.42l-.06.15c-.06.14-.11.29-.16.43l0,.1a5,5,0,0,0-.14.52l0,.14c0,.13,0,.27-.06.41a.77.77,0,0,0,0,.15,4.71,4.71,0,0,0,0,.53,4.15,4.15,0,0,0,.94,2.74l-8.06-9.58a4.18,4.18,0,0,1-.93-2.74,4.84,4.84,0,0,1,0-.53c0-.05,0-.1,0-.15s0-.27.07-.41l0-.13a5.11,5.11,0,0,1,.13-.53l0-.09c0-.15.1-.29.15-.43a1.11,1.11,0,0,1,.07-.16c.06-.14.12-.28.19-.42l.05-.09a3.75,3.75,0,0,1,.24-.44.21.21,0,0,1,0-.06l.07-.12c.08-.13.17-.25.26-.38l.09-.13.06-.08a1.49,1.49,0,0,1,.12-.14c.09-.12.18-.24.28-.35l.08-.09.13-.14.25-.26.1-.1.14-.13.24-.21.1-.1.17-.13.24-.18.1-.09.18-.12.26-.17.1-.07.19-.11.3-.17.11-.06.16-.08.39-.18.13-.06.23-.09.14-.06.54-.17.06,0,.43-.1.14,0,.28-.05.17,0,.25,0h1l.21,0,.17,0,.21,0,.16,0,.19,0h.08l.08,0,.21.07Z"/></g><path class="cls-18" d="M250.06,217c6.41,2.16,13.67,7.71,14.74,13.32.66,1.62.27,16.35.39,18.35-.73-14.74-23.17-20-35.9-19.07-11.33.49-29.78,5.66-30.51,19.26l-.05-15.61a11.8,11.8,0,0,1,.66-3.82c3.12-8.2,12.17-12.12,20.15-14.1A54.6,54.6,0,0,1,250.06,217Z"/><path class="cls-19" d="M206.5,249.78c14.38,7,31.87,7.28,46.77,1.76,7.9-3.09,16.82-9.14,17-18.49l0,15.61a13.63,13.63,0,0,1-1.11,5.37c-5.7,12-21.85,16.16-34.08,16.84-14.67,1.05-40.57-5-41.4-22l0-15.61C193.39,239.25,198.86,246.1,206.5,249.78Z"/><path class="cls-20" d="M204.77,248.84c-14.9-8.66-14.82-22.71.18-31.37s39.25-8.66,54.16,0,14.83,22.71-.17,31.37S219.68,257.51,204.77,248.84Zm3.76-29.29c-13,7.5-13.07,19.71-.16,27.22s34,7.5,47,0,13.06-19.72.15-27.22-34-7.5-47,0"/><g class="cls-21"><path class="cls-22" d="M255.36,246.77c13-7.51,13.06-19.72.15-27.22s-34-7.5-47,0-13.07,19.71-.16,27.22S242.36,254.27,255.36,246.77Z"/></g></svg>