<svg id="Objects" xmlns="http://www.w3.org/2000/svg" xmlns:xlink="http://www.w3.org/1999/xlink" width="500" height="500" viewBox="0 0 500 500"><defs><style>.cls-1{isolation:isolate;}.cls-2{fill:url(#linear-gradient);}.cls-3{fill:url(#linear-gradient-2);}.cls-4{fill:url(#linear-gradient-3);}.cls-5{fill:url(#linear-gradient-4);}.cls-6{fill:url(#linear-gradient-5);}.cls-7{fill:url(#linear-gradient-6);}.cls-8{fill:url(#linear-gradient-7);}.cls-9{fill:url(#linear-gradient-8);}.cls-10{fill:url(#linear-gradient-9);}.cls-11{fill:url(#linear-gradient-10);}.cls-12{fill:url(#linear-gradient-11);}.cls-13{fill:url(#linear-gradient-12);}.cls-14{fill:url(#linear-gradient-13);}.cls-15{fill:#bebebe;}.cls-16{fill:url(#linear-gradient-14);}.cls-17{fill:url(#linear-gradient-15);}.cls-18{fill:url(#linear-gradient-16);}</style><linearGradient id="linear-gradient" x1="323.77" y1="222.61" x2="343.74" y2="222.61" gradientUnits="userSpaceOnUse"><stop offset="0" stop-color="#6f6f6f"/><stop offset="1" stop-color="#6f6f6f"/></linearGradient><linearGradient id="linear-gradient-2" x1="155.87" y1="222.63" x2="176.01" y2="222.63" gradientUnits="userSpaceOnUse"><stop offset="0" stop-color="#dcdcdc"/><stop offset="1" stop-color="#bebebe"/></linearGradient><linearGradient id="linear-gradient-3" x1="328.72" y1="265" x2="356.98" y2="265" gradientUnits="userSpaceOnUse"><stop offset="0" stop-color="#6f6f6f"/><stop offset="1" stop-color="#bebebe"/></linearGradient><linearGradient id="linear-gradient-4" x1="143.19" y1="265.01" x2="171.49" y2="265.01" xlink:href="#linear-gradient-2"/><linearGradient id="linear-gradient-5" x1="143.02" y1="250.01" x2="143.41" y2="250.01" gradientUnits="userSpaceOnUse"><stop offset="0" stop-color="#f3f3f3"/><stop offset="1" stop-color="#dcdcdc"/></linearGradient><linearGradient id="linear-gradient-6" x1="323.99" y1="268.31" x2="328.95" y2="268.31" xlink:href="#linear-gradient"/><linearGradient id="linear-gradient-7" x1="171.26" y1="268.33" x2="176.23" y2="268.33" xlink:href="#linear-gradient-2"/><linearGradient id="linear-gradient-8" x1="276.04" y1="294.23" x2="287.71" y2="294.23" gradientUnits="userSpaceOnUse"><stop offset="0" stop-color="#a4a4a4"/><stop offset="1" stop-color="#8c8c8c"/></linearGradient><linearGradient id="linear-gradient-9" x1="212.78" y1="294.23" x2="224.45" y2="294.23" gradientUnits="userSpaceOnUse"><stop offset="0" stop-color="#8c8c8c"/><stop offset="1" stop-color="#a4a4a4"/></linearGradient><linearGradient id="linear-gradient-10" x1="307.38" y1="293.74" x2="344.13" y2="293.74" gradientUnits="userSpaceOnUse"><stop offset="0" stop-color="#a4a4a4"/><stop offset="1" stop-color="#bebebe"/></linearGradient><linearGradient id="linear-gradient-11" x1="287.48" y1="298.61" x2="307.6" y2="298.61" xlink:href="#linear-gradient-10"/><linearGradient id="linear-gradient-12" x1="156.24" y1="293.74" x2="193.21" y2="293.74" xlink:href="#linear-gradient-2"/><linearGradient id="linear-gradient-13" x1="192.99" y1="298.6" x2="213" y2="298.6" xlink:href="#linear-gradient-10"/><linearGradient id="linear-gradient-14" x1="224.32" y1="311.85" x2="276.36" y2="311.85" gradientUnits="userSpaceOnUse"><stop offset="0" stop-color="#bebebe"/><stop offset="1" stop-color="#dcdcdc"/></linearGradient><linearGradient id="linear-gradient-15" x1="238.09" y1="231.45" x2="261.13" y2="191.54" gradientUnits="userSpaceOnUse"><stop offset="0" stop-color="#565656"/><stop offset="0.13" stop-color="#626262"/><stop offset="0.71" stop-color="#929292"/><stop offset="1" stop-color="#a4a4a4"/></linearGradient><linearGradient id="linear-gradient-16" x1="-31945.28" y1="55974.73" x2="18834.64" y2="-31978.67" xlink:href="#linear-gradient-5"/></defs><g class="cls-1"><polygon class="cls-2" points="343.74 177.56 343.51 256.19 323.77 267.67 323.99 189.03 343.74 177.56"/><polygon class="cls-3" points="176.01 189.06 175.78 267.69 155.87 256.19 156.09 177.56 176.01 189.06"/><polygon class="cls-4" points="356.98 225.68 356.76 304.32 328.72 304.32 328.95 225.68 356.98 225.68"/><polygon class="cls-5" points="171.49 225.69 171.26 304.33 143.19 304.33 143.41 225.69 171.49 225.69"/><polygon class="cls-6" points="143.41 225.69 143.19 304.33 143.02 274.32 143.24 195.68 143.41 225.69"/><polygon class="cls-7" points="328.95 225.68 328.72 304.32 323.99 310.94 324.22 232.31 328.95 225.68"/><polygon class="cls-8" points="176.23 232.33 176.01 310.97 171.26 304.33 171.49 225.69 176.23 232.33"/><polygon class="cls-9" points="287.71 253.55 287.48 332.18 276.04 334.91 276.26 256.27 287.71 253.55"/><polygon class="cls-10" points="224.45 256.3 224.23 334.93 212.78 332.17 213 253.54 224.45 256.3"/><polygon class="cls-11" points="344.13 243.81 343.91 322.44 307.38 343.67 307.6 265.03 344.13 243.81"/><polygon class="cls-12" points="307.6 265.03 307.38 343.67 287.48 332.18 287.71 253.55 307.6 265.03"/><polygon class="cls-13" points="193.21 265.04 192.99 343.67 156.24 322.45 156.47 243.82 193.21 265.04"/><polygon class="cls-14" points="213 253.54 212.78 332.17 192.99 343.67 193.21 265.04 213 253.54"/><polygon class="cls-15" points="224.54 272.54 224.32 351.17 224.23 334.93 224.45 256.3 224.54 272.54"/><polygon class="cls-16" points="276.36 272.54 276.13 351.17 224.32 351.17 224.54 272.54 276.36 272.54"/><path class="cls-17" d="M228.05,223.46c12.24,7.06,32.05,7.06,44.18,0,6.06-3.52,9.08-8.14,9.08-12.76,0-5.72-4.54-10.17-9.22-12.85h0c-12.66-6.91-30.54-7.07-43.21-.49a25,25,0,0,0-7.44,6,12.36,12.36,0,0,0-2.57,6.72C218.66,215,221.72,219.8,228.05,223.46Z"/><path class="cls-18" d="M329,225.68h28l-.19-30H328.74L324,189l19.75-11.47L307,156.34l-19.79,11.5-11.45-2.78-.09-16.22H223.87l.09,16.26-11.46,2.72-19.88-11.48-36.53,21.23L176,189.06l-4.75,6.61h-28l.17,30h28.08l4.74,6.63-19.76,11.49L193.21,265,213,253.54l11.45,2.76.09,16.24h51.82l-.1-16.27,11.45-2.72L307.6,265l36.53-21.22-19.91-11.5Zm-56.72-2.21c-12.13,7.05-31.94,7.05-44.18,0-6.33-3.66-9.39-8.51-9.18-13.32.19-4.45,3.2-8.87,9-12.26,12.87-7.1,31.11-7.13,44.18,0h0C283.39,204.14,285.17,216,272.23,223.47Z"/></g></svg>