<svg id="Objects" xmlns="http://www.w3.org/2000/svg" xmlns:xlink="http://www.w3.org/1999/xlink" width="500" height="500" viewBox="0 0 500 500"><defs><style>.cls-1{fill:url(#linear-gradient);}.cls-2{fill:url(#linear-gradient-2);}.cls-3{fill:url(#linear-gradient-3);}.cls-4{fill:url(#linear-gradient-4);}.cls-5{fill:url(#linear-gradient-5);}.cls-6{fill:url(#linear-gradient-6);}.cls-7{fill:url(#linear-gradient-7);}.cls-8{fill:url(#linear-gradient-8);}.cls-9{fill:#bdbdbd;}.cls-10{fill:url(#linear-gradient-9);}.cls-11{fill:#a4a4a4;}.cls-12{fill:#f3f3f3;}.cls-13{fill:#dcdcdc;}.cls-14{fill:#dbdbdb;}.cls-15{fill:url(#linear-gradient-10);}.cls-16{fill:#bebebe;}.cls-17{fill:url(#linear-gradient-11);}.cls-18{isolation:isolate;}.cls-19{fill:#8bc0ff;}.cls-20{fill:#1a89ff;}</style><linearGradient id="linear-gradient" x1="185.99" y1="264.4" x2="266.46" y2="264.4" gradientUnits="userSpaceOnUse"><stop offset="0" stop-color="#dcdcdc"/><stop offset="1" stop-color="#bebebe"/></linearGradient><linearGradient id="linear-gradient-2" x1="188.45" y1="264.4" x2="263.99" y2="264.4" gradientUnits="userSpaceOnUse"><stop offset="0" stop-color="#666"/><stop offset="1" stop-color="#333"/></linearGradient><linearGradient id="linear-gradient-3" x1="246.35" y1="214.07" x2="286.6" y2="144.35" gradientUnits="userSpaceOnUse"><stop offset="0" stop-color="#f3f3f3"/><stop offset="1" stop-color="#dcdcdc"/></linearGradient><linearGradient id="linear-gradient-4" x1="233.12" y1="318.88" x2="305.15" y2="318.88" gradientUnits="userSpaceOnUse"><stop offset="0" stop-color="#8c8c8c"/><stop offset="1" stop-color="#565656"/></linearGradient><linearGradient id="linear-gradient-5" x1="213.36" y1="305.76" x2="249.37" y2="243.37" gradientUnits="userSpaceOnUse"><stop offset="0" stop-color="#f3f3f3"/><stop offset="0.1" stop-color="#e0e0e0"/><stop offset="0.29" stop-color="#b0b0b0"/><stop offset="0.56" stop-color="#636363"/><stop offset="0.76" stop-color="#282828"/></linearGradient><linearGradient id="linear-gradient-6" x1="164.6" y1="265.99" x2="229.77" y2="265.99" gradientUnits="userSpaceOnUse"><stop offset="0" stop-color="#8c8c8c"/><stop offset="1" stop-color="#282828"/></linearGradient><linearGradient id="linear-gradient-7" x1="229.77" y1="266.91" x2="298.49" y2="266.91" gradientUnits="userSpaceOnUse"><stop offset="0" stop-color="#3d3d3d"/><stop offset="1" stop-color="#171717"/></linearGradient><linearGradient id="linear-gradient-8" x1="224.73" y1="308.57" x2="238" y2="285.59" gradientUnits="userSpaceOnUse"><stop offset="0" stop-color="#f3f3f3"/><stop offset="0.17" stop-color="#c4c4c4"/><stop offset="0.37" stop-color="#949494"/><stop offset="0.56" stop-color="#6e6e6e"/><stop offset="0.73" stop-color="#535353"/><stop offset="0.88" stop-color="#434343"/><stop offset="1" stop-color="#3d3d3d"/></linearGradient><linearGradient id="linear-gradient-9" x1="153.04" y1="314.39" x2="233.54" y2="314.39" xlink:href="#linear-gradient"/><linearGradient id="linear-gradient-10" x1="266.46" y1="264.39" x2="346.96" y2="264.39" gradientUnits="userSpaceOnUse"><stop offset="0" stop-color="#a4a4a4"/><stop offset="1" stop-color="#bebebe"/></linearGradient><linearGradient id="linear-gradient-11" x1="183.91" y1="234.59" x2="264.41" y2="234.59" xlink:href="#linear-gradient"/></defs><polygon class="cls-1" points="185.99 179.22 266.46 225.68 266.46 349.58 185.99 303.11 185.99 179.22"/><polygon class="cls-2" points="188.45 184.44 263.99 228.05 263.99 344.36 188.45 300.74 188.45 184.44"/><polygon class="cls-3" points="266.46 132.75 185.99 179.22 266.46 225.68 346.96 179.2 266.46 132.75"/><polygon class="cls-4" points="233.12 362.19 305.15 320.6 305.15 275.58 233.12 317.18 233.12 362.19"/><polygon class="cls-5" points="305.15 275.58 229.61 231.97 157.58 273.56 233.12 317.16 305.15 275.58"/><polygon class="cls-6" points="229.77 280.84 229.77 235.82 164.6 273.44 203.23 296.16 229.77 280.84"/><polygon class="cls-7" points="298.49 275.49 259.5 298 229.77 280.84 229.77 235.82 298.49 275.49"/><polygon class="cls-8" points="259.5 298 232.96 313.32 203.23 296.16 229.77 280.84 259.5 298"/><polygon class="cls-9" points="155.1 260.35 175.73 272.26 183.08 283.92 207.62 298.09 214.97 294.92 235.6 306.82 235.6 366.07 155.1 319.6 155.1 260.35"/><polygon class="cls-10" points="153.04 261.53 173.67 273.44 181.02 285.1 205.56 299.26 212.91 296.09 233.54 308 233.54 367.25 153.04 320.78 153.04 261.53"/><polygon class="cls-11" points="235.6 306.81 233.54 308 233.54 367.25 235.6 366.06 235.6 306.81"/><polygon class="cls-12" points="183.08 283.92 181.02 285.1 205.56 299.26 207.62 298.09 183.08 283.92"/><polygon class="cls-12" points="155.1 260.35 153.04 261.53 173.67 273.44 175.73 272.26 155.1 260.35"/><polygon class="cls-12" points="235.6 306.82 214.97 294.92 212.91 296.09 233.54 308 235.6 306.82"/><polygon class="cls-13" points="175.73 272.26 173.67 273.44 181.02 285.1 183.08 283.92 175.73 272.26"/><polygon class="cls-14" points="207.62 298.09 214.97 294.92 212.91 296.09 205.56 299.26 207.62 298.09"/><polygon class="cls-15" points="346.96 303.1 266.46 349.58 266.46 225.68 346.96 179.2 346.96 303.1"/><polygon class="cls-16" points="263.99 287.21 263.99 344.36 266.46 349.58 266.47 286.28 264.41 287.45 263.99 287.21"/><polygon class="cls-9" points="185.97 180.55 206.6 192.46 213.95 204.12 238.49 218.29 245.84 215.12 266.47 227.02 266.47 286.28 185.97 239.8 185.97 180.55"/><polygon class="cls-17" points="183.91 181.73 204.54 193.64 211.89 205.3 236.43 219.47 243.78 216.29 264.41 228.2 264.41 287.45 183.91 240.98 183.91 181.73"/><polygon class="cls-11" points="266.47 227.01 264.41 228.2 264.41 287.45 266.47 286.26 266.47 227.01"/><polygon class="cls-12" points="213.95 204.12 211.89 205.3 236.43 219.47 238.49 218.29 213.95 204.12"/><polygon class="cls-12" points="185.97 180.55 183.91 181.73 204.54 193.64 206.6 192.46 185.97 180.55"/><polygon class="cls-12" points="266.47 227.02 245.84 215.12 243.78 216.29 264.41 228.2 266.47 227.02"/><polygon class="cls-13" points="206.6 192.46 204.54 193.64 211.89 205.3 213.95 204.12 206.6 192.46"/><polygon class="cls-14" points="238.49 218.29 245.84 215.12 243.78 216.29 236.43 219.47 238.49 218.29"/><g class="cls-18"><polygon class="cls-16" points="216.26 264.62 218.63 263.24 218.82 195.56 216.46 196.94 216.26 264.62"/><polygon class="cls-12" points="216.46 196.94 218.82 195.56 174.44 169.94 172.07 171.32 216.46 196.94"/><polygon class="cls-13" points="172.07 171.32 171.88 239 216.26 264.62 216.46 196.94 172.07 171.32"/></g><polygon class="cls-19" points="174.78 207.88 174.77 211.95 213.53 234.32 213.54 230.26 174.78 207.88"/><polygon class="cls-19" points="174.83 190.55 174.82 194.62 213.58 216.99 213.59 212.93 174.83 190.55"/><polygon class="cls-20" points="187.41 189.13 187.4 193.19 213.6 208.32 213.61 204.25 187.41 189.13"/><polygon class="cls-19" points="174.81 199.22 174.8 203.29 213.55 225.66 213.56 221.6 174.81 199.22"/><polygon class="cls-19" points="174.74 225.23 174.72 229.29 213.48 251.67 213.49 247.6 174.74 225.23"/><polygon class="cls-19" points="174.76 216.56 174.75 220.62 213.5 243 213.51 238.93 174.76 216.56"/></svg>