<svg id="Objects" xmlns="http://www.w3.org/2000/svg" xmlns:xlink="http://www.w3.org/1999/xlink" width="500" height="500" viewBox="0 0 500 500"><defs><style>.cls-1{isolation:isolate;}.cls-2{fill:url(#linear-gradient);}.cls-3{fill:url(#linear-gradient-2);}.cls-4{fill:#8b8b8b;}</style><linearGradient id="linear-gradient" x1="172.17" y1="220.45" x2="264.41" y2="220.45" gradientUnits="userSpaceOnUse"><stop offset="0" stop-color="#6f6f6f"/><stop offset="1" stop-color="#8c8c8c"/></linearGradient><linearGradient id="linear-gradient-2" x1="138.59" y1="285.3" x2="247.31" y2="285.3" gradientUnits="userSpaceOnUse"><stop offset="0" stop-color="#a4a4a4"/><stop offset="1" stop-color="#8c8c8c"/></linearGradient></defs><g class="cls-1"><path class="cls-2" d="M264.15,157.16l-.06.21a7,7,0,0,1-.7,1.43,3.37,3.37,0,0,1-.21.31,7.84,7.84,0,0,1-1,1.14,3.71,3.71,0,0,1-.27.29c-.15.14-.34.27-.5.4a13.42,13.42,0,0,1-1.49,1.11c-.42.26-.87.51-1.34.74l-.57.3a20,20,0,0,1-2.26.87,25.61,25.61,0,0,1-3,.75,28.63,28.63,0,0,1-2.9.38c-1.14.09-2.28.19-3.4.3-.4,0-.77.12-1.16.16-3.44.37-6.83.82-10.14,1.41l-.21,0c-.43.08-.83.19-1.26.27q-3.18.6-6.27,1.33c-.85.21-1.69.44-2.53.66q-2.55.66-5,1.42c-.47.15-1,.26-1.42.41s-1.06.37-1.59.55c-.77.26-1.54.52-2.3.8-1.2.43-2.39.89-3.56,1.36-.72.29-1.43.57-2.13.87-1.25.53-2.46,1.09-3.66,1.66-.58.28-1.17.54-1.74.82-1.74.87-3.45,1.78-5.09,2.73l-1.09.65c-.83.5-1.53,1-2.32,1.55-1.09.7-2.2,1.4-3.21,2.14s-1.69,1.32-2.52,2-1.88,1.49-2.74,2.26c-.16.15-.37.29-.54.44-1.15,1.07-2.22,2.17-3.23,3.27-.22.24-.41.48-.62.72-.58.66-1.18,1.32-1.71,2s-.82,1.12-1.22,1.68c-.14.19-.3.39-.43.58-.71,1-1.37,2.06-2,3.1-.13.23-.2.47-.33.7-.5.92-.9,1.86-1.31,2.8-.23.54-.55,1.07-.76,1.62-.07.18-.09.38-.16.57-.32.89-.54,1.79-.77,2.69-.16.6-.4,1.2-.52,1.8,0,.17,0,.33-.06.49-.17,1-.24,1.9-.32,2.85-.06.61-.19,1.22-.21,1.83,0,.26,0,.53,0,.79l-.2,69c0-.87.14-1.75.22-2.62s.15-1.9.33-2.84c.14-.77.37-1.53.57-2.29.23-.91.46-1.81.77-2.7.26-.74.61-1.46.93-2.19.4-.94.81-1.88,1.31-2.8a38.45,38.45,0,0,1,2.28-3.79l.43-.6q1.34-1.86,2.93-3.67c.21-.23.41-.48.62-.72,1.16-1.26,2.43-2.49,3.78-3.71.85-.77,1.81-1.51,2.74-2.26s1.63-1.34,2.52-2,2.12-1.43,3.2-2.14,2.2-1.49,3.42-2.2c1.64-1,3.34-1.85,5.08-2.72.57-.29,1.17-.55,1.74-.82,1.21-.58,2.42-1.14,3.66-1.67.7-.3,1.42-.58,2.13-.86,1.17-.48,2.36-.93,3.57-1.37l2.3-.8c1-.34,2-.65,3-1,1.64-.5,3.32-1,5-1.42.85-.22,1.68-.45,2.53-.65,2.07-.5,4.17-.94,6.3-1.35l1.44-.29c3.31-.59,6.7-1,10.14-1.41,1.52-.16,3-.34,4.57-.46l.64-.05c.73-.08,1.45-.18,2.14-.3l.11,0a25.62,25.62,0,0,0,3-.74l.07,0a21,21,0,0,0,2.2-.86c.2-.09.37-.2.56-.29.38-.19.77-.37,1.11-.58.09-.05.15-.12.23-.17a11.37,11.37,0,0,0,1.48-1.1,4.8,4.8,0,0,0,.43-.32l.09-.09c.1-.09.17-.19.26-.28a8.29,8.29,0,0,0,.7-.76c.1-.12.18-.26.27-.39l.2-.3a2.61,2.61,0,0,0,.2-.3,6.31,6.31,0,0,0,.45-.95c0-.06,0-.12.05-.19a1.66,1.66,0,0,0,.06-.21,3.51,3.51,0,0,0,.15-.53,4.93,4.93,0,0,0,.11-.94v-.15l.2-69A5.6,5.6,0,0,1,264.15,157.16Z"/><path class="cls-3" d="M247.14,277a2.45,2.45,0,0,1-.08.29,7.34,7.34,0,0,1-.5,1.26,8.45,8.45,0,0,1-1.18,1.6l-.34.36a10.8,10.8,0,0,1-1,.81,13.53,13.53,0,0,1-1.12.83,16.25,16.25,0,0,1-1.6.9l-.43.22a20.41,20.41,0,0,1-2.39.9c-.68.22-1.4.38-2.13.54-.33.07-.64.17-1,.23l-.37.05c-.85.13-1.72.23-2.61.29l-.48,0a27.67,27.67,0,0,1-2.88,0l-.4,0a28.36,28.36,0,0,1-3.16-.38c-1.8-.32-3.57-.7-5.34-1.07q-5.74-1.21-11.24-2.75l-2.23-.63c-1.53-.45-3-.93-4.55-1.42-.87-.28-1.75-.55-2.6-.85-1.67-.57-3.31-1.18-4.93-1.79-.62-.24-1.26-.46-1.87-.71-2.8-1.1-5.5-2.29-8.14-3.53-.61-.28-1.21-.58-1.82-.87-2.63-1.29-5.21-2.62-7.66-4-24.3-14-36.42-32.48-36.37-50.9l-.2,69c-.05,18.42,12.08,36.88,36.37,50.9,2.45,1.42,5,2.74,7.67,4l1.82.88c2.63,1.23,5.33,2.42,8.13,3.52l.26.12c.54.21,1.1.39,1.64.6,1.61.61,3.24,1.21,4.89,1.78.87.3,1.75.58,2.62.86,1.5.49,3,1,4.55,1.41l1.28.4c.31.09.64.14.94.23,3.67,1,7.42,1.95,11.24,2.75l.7.17q2.31.48,4.65.9c.34.07.69.12,1,.17.54.08,1.09.14,1.64.18l.48,0,.39,0c.26,0,.51,0,.76,0,.57,0,1.14,0,1.71,0l.42,0,.47,0c.31,0,.63,0,.93-.06.58-.05,1.13-.14,1.69-.23l.36-.05.12,0c.3,0,.56-.15.85-.21.73-.16,1.45-.32,2.13-.53l.21-.05a20.17,20.17,0,0,0,2.18-.86l.44-.22c.44-.22.88-.43,1.28-.67.12-.07.2-.16.31-.23a12,12,0,0,0,1.12-.83c.22-.17.48-.32.68-.5s.19-.21.29-.31.22-.24.33-.36.3-.3.43-.46a7.83,7.83,0,0,0,.67-1,1.09,1.09,0,0,0,.08-.15,6.73,6.73,0,0,0,.38-.82c0-.14.08-.29.12-.44l.09-.29a1.66,1.66,0,0,1,.06-.21,5.11,5.11,0,0,0,.1-.95.76.76,0,0,0,0-.15l.19-69A5.35,5.35,0,0,1,247.14,277Z"/><path class="cls-4" d="M259.48,148.57c2.52,1.46,4.26,3.39,4.76,5.59,1.3,5.32-5.13,10.21-14.34,10.93-19.66,1.51-37.46,6.63-51.49,14.78-34.91,20.29-34.69,53.3.44,73.58,10.4,6,22.7,10.34,36.63,12.85a21.56,21.56,0,0,1,6.84,2.4c4.3,2.49,6.16,6.23,4.24,9.81-2.77,5.12-12.15,8-21,6.36-18.89-3.41-36.28-9.51-50.38-17.65-48.29-27.88-48.52-73.24-.57-101.1,19.29-11.21,43.75-18.23,70.76-20.32A25.36,25.36,0,0,1,259.48,148.57Z"/></g></svg>