<svg id="Objects" xmlns="http://www.w3.org/2000/svg" xmlns:xlink="http://www.w3.org/1999/xlink" width="500" height="500" viewBox="0 0 500 500"><defs><style>.cls-1{fill:url(#linear-gradient);}.cls-2{fill:url(#linear-gradient-2);}.cls-3{fill:#f3f3f3;}</style><linearGradient id="linear-gradient" x1="187.33" y1="223.03" x2="327.7" y2="223.03" gradientUnits="userSpaceOnUse"><stop offset="0" stop-color="#dcdcdc"/><stop offset="1" stop-color="#bebebe"/></linearGradient><linearGradient id="linear-gradient-2" x1="261.33" y1="285.94" x2="361.25" y2="285.94" xlink:href="#linear-gradient"/></defs><path class="cls-1" d="M327.7,218.06c0-13.42-8.8-26.85-26.48-37.06-1.83-1.06-3.75-2-5.7-3-.57-.28-1.16-.54-1.74-.81-1.49-.69-3-1.36-4.56-2-.38-.15-.73-.33-1.11-.48-.15-.06-.31-.1-.46-.15-3.16-1.23-6.44-2.33-9.8-3.31-.23-.06-.43-.16-.65-.22s-.34-.08-.5-.12c-2.67-.75-5.39-1.41-8.16-2-.25,0-.49-.13-.74-.18l-1.08-.19q-3.48-.69-7-1.22c-.24,0-.46-.09-.7-.12l-.21,0c-2.52-.35-5.06-.62-7.62-.85-.27,0-.53-.06-.79-.09-.41,0-.82,0-1.22-.06q-3.15-.24-6.31-.34c-.4,0-.8-.05-1.2-.06h-.51c-2.65-.06-5.31,0-8,0h-.62c-.35,0-.7.05-1,.07-2.7.11-5.39.28-8.08.54-.27,0-.53,0-.79,0l-.25,0c-3.56.35-7.1.86-10.62,1.47-.26,0-.53.07-.8.12l-1.35.25a28.45,28.45,0,0,1-4.59.46h-.26a29,29,0,0,1-4.4-.27l-.07,0a25.33,25.33,0,0,1-3.93-.9l-.52-.18a18.72,18.72,0,0,1-3.36-1.47,10.88,10.88,0,0,1-4.09-3.84,6.14,6.14,0,0,1-.85-3.09l-.2,69a6.25,6.25,0,0,0,.85,3.09,10.88,10.88,0,0,0,4.09,3.84,20.07,20.07,0,0,0,2.42,1.16l.95.32.52.17c.2.06.38.14.59.2.58.16,1.17.31,1.78.44s1,.19,1.56.27h.11c.54.07,1.09.13,1.64.18s1.09.07,1.64.09c.36,0,.72,0,1.08,0h.63q.93,0,1.86-.12c.71-.07,1.42-.17,2.12-.3l.23,0c.72-.14,1.44-.24,2.16-.36q5.26-.93,10.61-1.48l1.05-.09q4-.37,8.08-.54c.55,0,1.1-.06,1.66-.07,2.66-.08,5.33-.1,8,0,.57,0,1.14,0,1.71.06,2.11.07,4.21.19,6.3.34l2,.16c2.57.22,5.11.49,7.63.85l.88.14q3.57.53,7.06,1.22l1.81.37c2.77.59,5.49,1.25,8.16,2l1.15.34q5.06,1.47,9.8,3.31c.53.2,1.05.42,1.57.63,1.55.64,3.08,1.3,4.57,2l1.73.81c2,1,3.87,1.95,5.71,3,11.05,6.38,18.64,14,22.77,22.13A32.57,32.57,0,0,1,327.5,287h0Z"/><path class="cls-2" d="M361.16,220.33c0,.62-.08,1.25-.14,1.87s-.13,1.08-.2,1.62-.18,1.24-.29,1.86-.22,1.09-.34,1.63-.28,1.21-.44,1.81-.31,1.09-.48,1.63-.38,1.19-.59,1.79-.39,1.06-.6,1.59-.52,1.26-.8,1.88-.47,1-.72,1.56-.63,1.24-1,1.86-.54,1-.83,1.49c-.43.74-.89,1.48-1.36,2.21-.28.43-.55.87-.85,1.3-.56.83-1.17,1.64-1.79,2.46-.25.32-.47.65-.73,1-1,1.26-2.07,2.5-3.2,3.74l-.92,1c-.89.93-1.82,1.85-2.78,2.76l-1.33,1.24c-.58.52-1.18,1-1.78,1.55s-1.12.95-1.7,1.42-1.27,1-1.91,1.5l-1.84,1.38c-.68.49-1.38,1-2.08,1.46s-1.29.89-2,1.33-1.48.94-2.24,1.41c-.94.58-1.86,1.17-2.84,1.74-2.62,1.52-5.37,2.94-8.18,4.3-.77.38-1.55.74-2.33,1.1q-3.57,1.65-7.32,3.14l-1.66.68c-2.91,1.1-5.91,2.12-9,3.08-4,1.25-8.06,2.41-12.29,3.4a26.35,26.35,0,0,1-4.76.66l-.25,0a28.44,28.44,0,0,1-4.63-.17,1.9,1.9,0,0,1-.25,0,24.84,24.84,0,0,1-4.27-.9l-.4-.13a20.19,20.19,0,0,1-3.68-1.58,11.75,11.75,0,0,1-3.68-3.22,6.35,6.35,0,0,1-1.26-3.71l-.2,69a6.42,6.42,0,0,0,1.27,3.72,11.74,11.74,0,0,0,3.68,3.21,18.36,18.36,0,0,0,2.4,1.15c.41.16.85.29,1.27.43l.4.13.38.13c.58.16,1.18.31,1.78.44s1.12.21,1.68.29l.43.05.25,0c.32,0,.64.09,1,.11.54.05,1.09.08,1.64.09s1.14,0,1.71,0l.32,0h.24l1.29-.09c.71-.07,1.43-.17,2.14-.3.45-.08.89-.17,1.33-.28,4.23-1,8.31-2.15,12.29-3.39.31-.1.65-.17,1-.27,2.74-.88,5.4-1.83,8-2.82.57-.22,1.1-.46,1.66-.68q3.76-1.49,7.33-3.14c.78-.36,1.56-.72,2.32-1.09,2.81-1.37,5.56-2.79,8.18-4.31l1.5-.88c.46-.28.9-.58,1.35-.86.76-.47,1.51-.94,2.23-1.41s1.32-.89,2-1.33,1.4-1,2.07-1.46,1.23-.92,1.84-1.38l1.92-1.5c.58-.47,1.14-.95,1.7-1.42s1.19-1,1.76-1.54c.24-.21.49-.41.72-.62l.63-.63c1-.91,1.88-1.83,2.77-2.76.3-.32.63-.64.93-1,1.13-1.23,2.2-2.48,3.19-3.74a.81.81,0,0,0,.12-.14c.23-.28.41-.57.63-.86.61-.8,1.21-1.61,1.77-2.42.3-.44.57-.88.86-1.32.47-.73.93-1.46,1.35-2.19.12-.2.25-.39.36-.58s.31-.62.48-.93c.33-.61.65-1.23.95-1.84s.5-1.05.73-1.57.54-1.25.79-1.87c.11-.27.24-.55.35-.82s.16-.52.25-.78c.21-.6.41-1.19.6-1.79s.33-1.09.47-1.63.31-1.2.44-1.81c.07-.32.17-.64.24-1s.06-.45.1-.67c.11-.62.21-1.24.29-1.86s.15-1.08.21-1.62.1-1.25.13-1.87c0-.36.07-.73.08-1.09s0-.72,0-1.08l.2-69C361.25,218.88,361.19,219.6,361.16,220.33Z"/><path class="cls-3" d="M324.89,167.25c48.26,27.86,48.51,73.24.57,101.1a148.9,148.9,0,0,1-40.75,15.7c-6.43,1.52-13.59.55-18.24-2.13a11.75,11.75,0,0,1-3.68-3.22c-3.52-5,.59-10.66,9.17-12.67a108.63,108.63,0,0,0,29.68-11.43c34.9-20.29,34.72-53.31-.42-73.6-24.17-13.95-59.27-18.8-91.62-12.64-6.23,1.16-12.79.12-17.13-2.38a10.88,10.88,0,0,1-4.09-3.84c-2.91-5.13,1.85-10.62,10.67-12.28C243.5,141.43,291.7,148.09,324.89,167.25Z"/></svg>