<svg id="Objects" xmlns="http://www.w3.org/2000/svg" xmlns:xlink="http://www.w3.org/1999/xlink" width="500" height="500" viewBox="0 0 500 500"><defs><style>.cls-1{isolation:isolate;}.cls-2{fill:#8b8b8b;}.cls-3{fill:#bdbdbd;}.cls-4{fill:#a3a3a3;}.cls-5{fill:url(#linear-gradient);}.cls-6{fill:#c3ddff;}</style><linearGradient id="linear-gradient" x1="-2223.69" y1="-4875.89" x2="-2217.91" y2="-4865.87" gradientTransform="translate(-5120.76 -183.52) rotate(120)" gradientUnits="userSpaceOnUse"><stop offset="0" stop-color="#bdbdbd"/><stop offset="1" stop-color="#8b8b8b"/></linearGradient></defs><g class="cls-1"><path class="cls-2" d="M202.16,323.8l-86.83-50.58a4.14,4.14,0,0,1-2.35-3.31c.09,1.45-.33,8.92.6,10.09h0a5.47,5.47,0,0,0,1.75,1.53l86.84,50.59Z"/><path class="cls-3" d="M384.61,233.46a4.76,4.76,0,0,0,2.27-2.45h0c.28-.61.1-8.56.14-9.24a2.83,2.83,0,0,1-.15.9h0a4.85,4.85,0,0,1-2.26,2.45L213.73,323.79v8.33Z"/><path class="cls-4" d="M213.73,323.79a12.75,12.75,0,0,1-11.57,0l-86.83-50.58c-3.16-1.83-3.14-4.84.07-6.7l170.87-98.65a12.72,12.72,0,0,1,11.54,0l86.83,50.58c3.19,1.85,3.17,4.83,0,6.68Z"/><path class="cls-5" d="M211.06,324.82a13.69,13.69,0,0,1-7.61-.41h0a10.07,10.07,0,0,1-1.28-.61v8.33a8.66,8.66,0,0,0,1.27.6h0a13,13,0,0,0,10.28-.62v-8.33A10.27,10.27,0,0,1,211.06,324.82Z"/></g><path d="M213.88,323.19a12.72,12.72,0,0,1-11.57,0l-85.95-50.07c-3.16-1.84-3.14-4.85.07-6.7l169.7-98a12.81,12.81,0,0,1,11.54,0l85.95,50.07c3.18,1.85,3.14,4.85,0,6.69Z"/><path class="cls-6" d="M212.12,320.91a8.89,8.89,0,0,1-8,0l-84.84-49.43c-1.58-.92-1.58-2.42,0-3.36l168.61-97.34a8.86,8.86,0,0,1,8,0l84.82,49.41c1.61.93,1.57,2.45,0,3.37Z"/><path d="M341.89,202.94a1.08,1.08,0,0,1,0,2.05,3.89,3.89,0,0,1-3.53,0l-20.72-12a1.08,1.08,0,0,1,0-2,3.9,3.9,0,0,1,3.52,0Z"/></svg>