<svg id="Objects" xmlns="http://www.w3.org/2000/svg" xmlns:xlink="http://www.w3.org/1999/xlink" width="500" height="500" viewBox="0 0 500 500"><defs><style>.cls-1{isolation:isolate;}.cls-2{fill:#c7dcfd;}.cls-3{fill:url(#linear-gradient);}.cls-4{fill:url(#linear-gradient-2);}.cls-5{fill:url(#linear-gradient-3);}.cls-6{fill:url(#linear-gradient-4);}.cls-7{fill:url(#linear-gradient-5);}.cls-8{fill:url(#linear-gradient-6);}.cls-9{opacity:0.25;}.cls-10{fill:url(#linear-gradient-7);}</style><linearGradient id="linear-gradient" x1="6862.13" y1="322.13" x2="6896.23" y2="309.71" gradientTransform="matrix(-1, 0, 0, 1, 7096.95, 0)" gradientUnits="userSpaceOnUse"><stop offset="0" stop-color="#97c1ff"/><stop offset="0.04" stop-color="#8cbaff"/><stop offset="0.13" stop-color="#7bafff"/><stop offset="0.23" stop-color="#71a8ff"/><stop offset="0.35" stop-color="#6ea6ff"/><stop offset="1" stop-color="#c9deff"/></linearGradient><linearGradient id="linear-gradient-2" x1="6841.74" y1="245.76" x2="6865.51" y2="245.76" gradientTransform="matrix(-0.34, -0.94, -0.94, 0.34, 2815.8, 6603.03)" gradientUnits="userSpaceOnUse"><stop offset="0" stop-color="#a2a2a2"/><stop offset="0" stop-color="#a2a2a2"/><stop offset="0.22" stop-color="#949494"/><stop offset="0.49" stop-color="#8c8c8c"/><stop offset="1" stop-color="#8a8a8a"/></linearGradient><linearGradient id="linear-gradient-3" x1="6842.15" y1="258.72" x2="6873" y2="258.72" gradientTransform="matrix(-1, 0, 0, 1, 7096.95, 0)" gradientUnits="userSpaceOnUse"><stop offset="0" stop-color="#bebebe"/><stop offset="0.09" stop-color="#b1b1b1"/><stop offset="0.2" stop-color="#a7a7a7"/><stop offset="0.35" stop-color="#a4a4a4"/><stop offset="1" stop-color="#dcdcdc"/></linearGradient><linearGradient id="linear-gradient-4" x1="7005.64" y1="262.47" x2="7055.8" y2="154.91" gradientTransform="matrix(-1, 0, 0, 1, 7270.9, 0)" gradientUnits="userSpaceOnUse"><stop offset="0" stop-color="#bebebe"/><stop offset="0.43" stop-color="#a4a4a4"/><stop offset="0.79" stop-color="#6f6f6f"/><stop offset="0.91" stop-color="#717171"/><stop offset="0.96" stop-color="#787878"/><stop offset="0.99" stop-color="#838383"/><stop offset="1" stop-color="#8c8c8c"/></linearGradient><linearGradient id="linear-gradient-5" x1="6973.8" y1="257.36" x2="7031.48" y2="133.65" gradientTransform="matrix(-1, 0, 0, 1, 7270.9, 0)" gradientUnits="userSpaceOnUse"><stop offset="0" stop-color="#bebebe"/><stop offset="0.01" stop-color="#b8b8b8"/><stop offset="0.04" stop-color="#adadad"/><stop offset="0.09" stop-color="#a6a6a6"/><stop offset="0.21" stop-color="#a4a4a4"/><stop offset="0.57" stop-color="#dcdcdc"/><stop offset="1" stop-color="#f3f3f3"/></linearGradient><linearGradient id="linear-gradient-6" x1="193.67" y1="209.45" x2="289.07" y2="209.45" gradientUnits="userSpaceOnUse"><stop offset="0" stop-color="#dcdcdc"/><stop offset="1" stop-color="#bebebe"/></linearGradient><linearGradient id="linear-gradient-7" x1="199.99" y1="209.45" x2="282.75" y2="209.45" gradientUnits="userSpaceOnUse"><stop offset="0" stop-color="#0062ff"/><stop offset="1" stop-color="#054ada"/></linearGradient></defs><g class="cls-1"><ellipse class="cls-2" cx="235.32" cy="267.65" rx="13.38" ry="18.12" transform="translate(-96.63 397.37) rotate(-70.02)"/><path class="cls-3" d="M187.3,350.59a10.68,10.68,0,0,1,.47-5.2l30.51-83.94c-5,17.17,26.95,28.67,34.07,12.41L221.83,357.8a11.43,11.43,0,0,1-6.56,6.46C204.75,368.49,189.62,362.2,187.3,350.59Z"/></g><g class="cls-1"><ellipse class="cls-4" cx="243.32" cy="245.76" rx="9.02" ry="12.22" transform="translate(-70.78 390.48) rotate(-70.02)"/><path class="cls-5" d="M224,265.73c0-.13,0-.27-.05-.4a1.1,1.1,0,0,0,0-.18v-.06c0-.07,0-.15,0-.22s0-.23,0-.34,0-.15,0-.23a1.27,1.27,0,0,1,0-.2.15.15,0,0,1,0-.07,7.28,7.28,0,0,1,.1-.8.06.06,0,0,0,0,0l0-.1a4.16,4.16,0,0,1,.17-.63s0-.07,0-.1,0-.09,0-.13l7.49-20.65a1.55,1.55,0,0,0-.07.23,4.16,4.16,0,0,0-.17.63c0,.05,0,.09,0,.14a7,7,0,0,0-.1.8c0,.09,0,.18,0,.27a1.69,1.69,0,0,1,0,.23c0,.11,0,.22,0,.34a1.62,1.62,0,0,1,0,.22l0,.23a2.7,2.7,0,0,0,.05.41,1.87,1.87,0,0,0,0,.25c0,.14.05.27.08.4s0,.18.07.26.07.23.1.34l.09.28.13.33.12.28.15.34.14.27c.06.11.12.23.19.34l.15.27c.07.11.15.22.22.34l.17.25.26.36.18.23.33.39.16.19c.17.19.35.38.54.56s.53.5.81.74l.21.17c.18.14.36.28.55.41l.62.44.44.28.53.31.52.28.49.25.56.25.5.2a5.71,5.71,0,0,0,.58.21c.17.07.35.12.53.18l.56.16c.21.06.41.11.62.15l.52.12.78.13.51.07.27,0,.8.05h.25c.34,0,.67,0,1,0h.18c.28,0,.55,0,.82-.08l.28,0a7.45,7.45,0,0,0,.8-.14l.17,0c.31-.07.62-.16.92-.25l.23-.08.68-.26.24-.11a8.22,8.22,0,0,0,.84-.42,7.28,7.28,0,0,0,3.34-3.83l-7.49,20.65a7.26,7.26,0,0,1-3.35,3.83,7.16,7.16,0,0,1-.83.42l-.24.11c-.23.09-.45.18-.69.26l-.22.08c-.3.09-.61.18-.92.25l-.18,0c-.26.06-.52.11-.79.15l-.28,0c-.27,0-.54.06-.82.08h-.18l-.88,0h-.37l-.8,0-.27,0-.18,0-.33-.05-.78-.13-.2,0-.32-.09c-.21,0-.41-.09-.62-.15l-.24-.06-.32-.1L233,275l-.24-.07-.33-.14-.5-.2-.21-.09-.35-.16-.49-.25a1.11,1.11,0,0,1-.19-.09l-.33-.19-.53-.3-.18-.11-.26-.18-.62-.44-.22-.14-.33-.27-.21-.17c-.25-.21-.49-.43-.73-.66l-.08-.08c-.19-.18-.37-.37-.54-.56s-.11-.13-.16-.19-.23-.26-.33-.39L226,270l-.26-.36-.17-.25c-.07-.12-.15-.23-.22-.34l-.15-.27c-.07-.11-.13-.23-.19-.34l-.14-.27-.15-.34-.12-.28-.13-.33-.09-.28c0-.11-.07-.22-.1-.33s0-.1,0-.15l0-.12c0-.13-.06-.26-.08-.39S224.05,265.82,224,265.73Z"/></g><path class="cls-6" d="M200.89,196.09c-2.34-11.65-.26-27.56,7.32-34.12,1.88-2.42,24.63-14.76,27.56-16.7-21.78,14.06-10,52.77,2.53,71.34C249,233.39,273,256.92,294.36,246.09l-23.69,13.77a20.37,20.37,0,0,1-6.39,2.37c-15.21,2.45-29.11-7.87-39.13-18.26C212.9,230.68,204,214,200.89,196.09Z"/><path class="cls-7" d="M289,233.54c-2-28-16.91-54.84-38.38-72.66-11.64-9.3-28.66-17.55-43-9.57l23.7-13.77a24,24,0,0,1,9.14-3c23.2-1.85,43.75,19,55.51,37,14.49,21.38,28,66.1,2.91,82.26l-23.69,13.77C284.48,262.73,290.1,248.39,289,233.54Z"/><path class="cls-8" d="M289.07,237c-.08,30.27-21.51,42.48-47.85,27.27s-47.63-52.08-47.55-82.35,21.51-42.48,47.86-27.27S289.16,206.72,289.07,237Zm-47.83,20c22.81,13.18,41.44,2.56,41.51-23.66s-18.43-58.27-41.24-71.44-41.44-2.56-41.52,23.66,18.43,58.27,41.25,71.44"/><g class="cls-9"><path class="cls-10" d="M241.51,161.9c-22.82-13.18-41.44-2.56-41.52,23.66s18.43,58.27,41.25,71.44,41.44,2.56,41.51-23.66S264.32,175.07,241.51,161.9Z"/></g></svg>