<svg xmlns="http://www.w3.org/2000/svg" xmlns:xlink="http://www.w3.org/1999/xlink" viewBox="0 0 80 80">
  <defs>
    <linearGradient id="a" x1="36.151" y1="35.258" x2="43.522" y2="22.492" gradientUnits="userSpaceOnUse">
      <stop offset="0" stop-color="#6f6f6f"/>
      <stop offset="1" stop-color="#525252"/>
    </linearGradient>
    <linearGradient id="b" x1="47.966" y1="50.691" x2="60.944" y2="50.691" gradientUnits="userSpaceOnUse">
      <stop offset="0" stop-color="#262626"/>
      <stop offset="1" stop-color="#393939"/>
    </linearGradient>
    <linearGradient id="c" x1="39.966" y1="32.375" x2="39.966" y2="1.642" gradientUnits="userSpaceOnUse">
      <stop offset="0.348" stop-color="#393939"/>
      <stop offset="1" stop-color="#525252"/>
    </linearGradient>
    <linearGradient id="d" x1="20.25" y1="44.681" x2="51.283" y2="44.681" gradientUnits="userSpaceOnUse">
      <stop offset="0" stop-color="#525252"/>
      <stop offset="1" stop-color="#393939"/>
    </linearGradient>
    <linearGradient id="e" x1="32.717" y1="45.457" x2="38.816" y2="41.936" gradientUnits="userSpaceOnUse">
      <stop offset="0" stop-color="#262626"/>
      <stop offset="1" stop-color="#262626"/>
    </linearGradient>
  </defs>
  <polygon points="20.284 60.394 30.547 54.454 61.352 72.242 51.089 78.168 20.284 60.394" opacity="0.25"/>
  <path d="M61.156,32.9a1.457,1.457,0,0,0-.492-.506l-1.1-.636L31.075,15.306a.52.52,0,0,0-.491-.06L20.472,21.083c-.032.019.346,5.323.346,5.323L49.136,40,61.26,33.1A1.779,1.779,0,0,0,61.156,32.9Z" fill="url(#a)"/>
  <path d="M61.156,62.45a.5.5,0,0,0,.23-.478V33.64a1.365,1.365,0,0,0-.126-.54L26.929,52.638,51.052,68.283Z" fill="url(#b)"/>
  <path d="M46.883,31.4a.848.848,0,0,0,.5.691,2.654,2.654,0,0,0,2.405,0,.843.843,0,0,0,.5-.694h0V18.266c0-5.383-4.159-12-9.468-15.066-3.043-1.757-6.039-2.043-8.219-.784-1.9,1.1-2.951,3.193-2.951,5.9V21.5a.844.844,0,0,0,.5.694,2.657,2.657,0,0,0,2.406,0,.844.844,0,0,0,.5-.694V8.315A3.282,3.282,0,0,1,34.3,5.362c1.084-.626,2.883-.333,4.817.783,4.21,2.432,7.767,7.982,7.767,12.121Z" fill="url(#c)"/>
  <g>
    <path d="M50.561,38.223l-1.1-.636L20.972,21.14a.518.518,0,0,0-.491-.061.494.494,0,0,0-.231.477V49.889a1.49,1.49,0,0,0,.231.743,1.458,1.458,0,0,0,.491.507L49.46,67.587l1.1.635a.518.518,0,0,0,.491.061.5.5,0,0,0,.231-.478V39.473a1.493,1.493,0,0,0-.231-.744A1.455,1.455,0,0,0,50.561,38.223Z" fill="url(#d)"/>
    <path d="M38.019,41.634a4.978,4.978,0,0,0-2.252-3.9c-1.245-.718-2.253-.136-2.253,1.3a4.756,4.756,0,0,0,.835,2.5l-.835,5.3,4.5,2.6-.834-6.265A1.482,1.482,0,0,0,38.019,41.634Z" fill="url(#e)"/>
  </g>
  <path d="M51.409,38.513a1.883,1.883,0,0,0-.64-.651l-1.1-.635L21.18,20.779a1.037,1.037,0,0,0-.1-.045l-.605.349v0h0l.009-.006a.375.375,0,0,1,.169-.038.654.654,0,0,1,.322.1L49.46,37.587l1.1.636a1.455,1.455,0,0,1,.491.506c.027.045.051.092.074.139l.361-.206C51.462,38.612,51.438,38.562,51.409,38.513Z" fill="#8d8d8d"/>
</svg>
