<svg xmlns="http://www.w3.org/2000/svg" xmlns:xlink="http://www.w3.org/1999/xlink" viewBox="0 0 80 80">
  <defs>
    <linearGradient id="a" x1="2.597" y1="-12.814" x2="43.483" y2="58.002" gradientUnits="userSpaceOnUse">
      <stop offset="0" stop-color="#6f6f6f"/>
      <stop offset="0.688" stop-color="#525252"/>
      <stop offset="0.94" stop-color="#393939"/>
      <stop offset="1" stop-color="#262626"/>
    </linearGradient>
    <linearGradient id="b" x1="43.744" y1="57.075" x2="69.509" y2="57.075" gradientUnits="userSpaceOnUse">
      <stop offset="0" stop-color="#393939"/>
      <stop offset="1" stop-color="#393939"/>
    </linearGradient>
    <linearGradient id="c" x1="15.1" y1="10.359" x2="41.505" y2="56.093" gradientUnits="userSpaceOnUse">
      <stop offset="0" stop-color="#6f6f6f"/>
      <stop offset="1" stop-color="#525252"/>
    </linearGradient>
    <linearGradient id="d" x1="34.925" y1="-46.558" x2="34.925" y2="97.819" gradientTransform="translate(18.464 -13.769) rotate(30.001)" gradientUnits="userSpaceOnUse">
      <stop offset="0" stop-color="#525252"/>
      <stop offset="0.484" stop-color="#525252" stop-opacity="0.69"/>
      <stop offset="0.659" stop-color="#424242" stop-opacity="0.442"/>
      <stop offset="1" stop-color="#262626" stop-opacity="0"/>
    </linearGradient>
    <linearGradient id="e" x1="24.556" y1="9.609" x2="50.358" y2="54.3" gradientUnits="userSpaceOnUse">
      <stop offset="0" stop-color="#8d8d8d" stop-opacity="0"/>
      <stop offset="0.155" stop-color="#8d8d8d" stop-opacity="0.023"/>
      <stop offset="0.282" stop-color="#8d8d8d" stop-opacity="0.095"/>
      <stop offset="0.398" stop-color="#8d8d8d" stop-opacity="0.216"/>
      <stop offset="0.509" stop-color="#8d8d8d" stop-opacity="0.387"/>
      <stop offset="0.615" stop-color="#8d8d8d" stop-opacity="0.607"/>
      <stop offset="0.717" stop-color="#8d8d8d" stop-opacity="0.874"/>
      <stop offset="0.733" stop-color="#8d8d8d" stop-opacity="0.92"/>
      <stop offset="1" stop-color="#8d8d8d"/>
    </linearGradient>
    <linearGradient id="f" x1="15.864" y1="-20.498" x2="56.749" y2="50.318" xlink:href="#a"/>
  </defs>
  <path d="M12.686,17.955c0,12.034,8.758,26.845,19.56,33.082,5.646,3.26,10.731,3.526,14.3,1.324l0,.005,4.824-2.784-1.189-1.937c-3.242,1.735-7.719,1.38-12.664-1.475C27.622,40.455,19.6,26.88,19.6,15.852c0-5.094,1.712-8.752,4.531-10.653l-1.2-1.954L18.1,6.031l0,.006c-3.357,1.974-5.422,6.08-5.422,11.918" fill="url(#a)"/>
  <path d="M67.313,64.92s.108.861-1.892,2.238-2.731,1.178-2.731,1.178L48.566,49.219,53.189,45.8Z" fill="url(#b)"/>
  <path d="M37.68,46.051c-9.9-5.716-17.926-19.29-17.926-30.318,0-3.79.947-6.786,2.593-8.854-4.87.759-8.084,5.045-8.084,12.024,0,11.028,8.025,24.6,17.925,30.318,6.5,3.752,12.189,3.186,15.333-.766-2.826.441-6.207-.3-9.841-2.4" fill="url(#c)"/>
  <ellipse cx="34.925" cy="27.569" rx="14.549" ry="25.2" transform="translate(-9.105 21.157) rotate(-30.001)" opacity="0.5" fill="url(#d)"/>
  <g opacity="0.25">
    <path d="M67.1,75.009,54.263,67.587c1.1-1.15,1.093-2.358-.77-3.434-.017-.009-.036-.015-.053-.024L26.17,48.4c-.031-.019-.057-.038-.088-.057-2.6-1.5-5.822-1.051-8.417.447s-3.577,3.481-.981,4.979l27.41,15.809a7.173,7.173,0,0,0,5.491.533l12.988,7.51h0C63.823,78.342,68.347,75.73,67.1,75.009Z"/>
  </g>
  <g opacity="0.6">
    <path d="M42.884,50.793a16.4,16.4,0,0,1-8.063-2.468C24.938,42.618,16.9,28.692,16.9,17.281c0-5.574,1.891-9.734,5.323-11.716S30.2,4.026,35.029,6.813c9.883,5.706,17.924,19.632,17.924,31.044,0,5.573-1.891,9.734-5.324,11.716A9.368,9.368,0,0,1,42.884,50.793ZM26.968,4.761a8.958,8.958,0,0,0-4.539,1.165c-3.3,1.9-5.115,5.937-5.115,11.355,0,11.279,7.947,25.043,17.715,30.683,4.693,2.709,9.094,3.152,12.392,1.248s5.115-5.937,5.115-11.355c0-11.279-7.947-25.044-17.715-30.683A15.992,15.992,0,0,0,26.968,4.761Z" fill="url(#e)"/>
  </g>
  <path d="M57.024,37.5c0-12.034-8.758-26.845-19.56-33.082-5.646-3.26-10.731-3.526-14.3-1.324l0-.006L18.335,5.872l1.189,1.937c3.242-1.735,7.719-1.38,12.664,1.475C42.088,15,50.113,28.574,50.113,39.6c0,4.854-1.555,8.405-4.14,10.373-.128.1-1.176.729-1.308.818l2.117,1.416,4.824-2.786,0-.006c3.357-1.974,5.422-6.08,5.422-11.918" fill="url(#f)"/>
</svg>
