<svg xmlns="http://www.w3.org/2000/svg" xmlns:xlink="http://www.w3.org/1999/xlink" viewBox="0 0 80 80">
  <defs>
    <linearGradient id="a" x1="21.577" y1="2.187" x2="59.467" y2="67.814" gradientUnits="userSpaceOnUse">
      <stop offset="0.054" stop-color="#525252"/>
      <stop offset="0.874" stop-color="#393939"/>
    </linearGradient>
    <linearGradient id="b" x1="12.427" y1="10.802" x2="76.329" y2="47.696" gradientUnits="userSpaceOnUse">
      <stop offset="0.063" stop-color="#6f6f6f"/>
      <stop offset="0.913" stop-color="#262626"/>
    </linearGradient>
    <linearGradient id="c" x1="39.385" y1="31.367" x2="52.039" y2="9.448" gradientUnits="userSpaceOnUse">
      <stop offset="0.318" stop-color="#6f6f6f" stop-opacity="0"/>
      <stop offset="1" stop-color="#8d8d8d"/>
    </linearGradient>
  </defs>
  <polygon points="59.911 78.337 16.91 53.511 21.773 50.702 64.774 75.529 59.911 78.337" opacity="0.25"/>
  <path d="M38.976,6.922C51.125,13.936,60.939,30.942,60.9,44.9s-9.918,19.6-22.067,12.582S16.87,33.457,16.91,19.5,26.827-.092,38.976,6.922Z" fill="url(#a)"/>
  <path d="M42.851,4.679C36.738,1.15,31.2.823,27.2,3.147L23.536,5.278c3.982-2.195,9.432-1.825,15.44,1.644C51.125,13.936,60.939,30.942,60.9,44.9c-.02,6.763-2.349,11.571-6.127,13.934l-.073.045c-.321.2,3.656-2.108,3.656-2.108,3.95-2.3,6.4-7.177,6.418-14.114C64.814,28.7,55,11.693,42.851,4.679Z" fill="url(#b)"/>
  <path d="M29.111,3.905v.369a19.583,19.583,0,0,1,9.681,2.967c12.026,6.943,21.779,23.834,21.739,37.653-.026,9.4-4.56,15.231-11.831,15.231a19.587,19.587,0,0,1-9.683-2.967C26.991,50.215,17.239,33.32,17.278,19.5c.026-9.39,4.56-15.223,11.831-15.224l0-.369m0,0c-7.208,0-12.171,5.712-12.2,15.592-.04,13.96,9.774,30.966,21.923,37.98A20.028,20.028,0,0,0,48.7,60.493c7.208,0,12.172-5.712,12.2-15.6.039-13.953-9.775-30.959-21.924-37.973a20.033,20.033,0,0,0-9.867-3.017Z" fill="url(#c)"/>
  <path d="M38.927,49.794a6.836,6.836,0,0,1-2.653-2.517,6.068,6.068,0,0,1-.815-2.991V43.3a2.246,2.246,0,0,1,.815-2.047q.81-.522,2.653.543a6.722,6.722,0,0,1,2.608,2.495,6.043,6.043,0,0,1,.815,2.987v.989a2.252,2.252,0,0,1-.815,2.051C40.992,50.657,40.125,50.486,38.927,49.794ZM37.771,38.162,36.016,22.771V13.037L41.835,16.4V26.13L40.167,39.545Z" fill="#6f6f6f"/>
</svg>
