<svg xmlns="http://www.w3.org/2000/svg" xmlns:xlink="http://www.w3.org/1999/xlink" viewBox="0 0 80 80">
  <defs>
    <linearGradient id="a" x1="11.123" y1="43.338" x2="40" y2="43.338" gradientUnits="userSpaceOnUse">
      <stop offset="0" stop-color="#525252"/>
      <stop offset="1" stop-color="#393939"/>
    </linearGradient>
    <linearGradient id="b" x1="40" y1="43.338" x2="68.877" y2="43.338" gradientUnits="userSpaceOnUse">
      <stop offset="0" stop-color="#262626"/>
      <stop offset="1" stop-color="#393939"/>
    </linearGradient>
    <linearGradient id="c" x1="32.783" y1="30.829" x2="47.217" y2="5.83" gradientUnits="userSpaceOnUse">
      <stop offset="0" stop-color="#6f6f6f"/>
      <stop offset="1" stop-color="#525252"/>
    </linearGradient>
  </defs>
  <polygon points="40 78.337 11.135 61.672 40 45.007 68.865 61.672 40 78.337" opacity="0.25"/>
  <g>
    <polygon points="40 68.346 11.123 51.677 11.133 18.329 40 34.995 40 68.346" fill="url(#a)"/>
    <polygon points="68.877 51.677 40 68.346 40 34.995 68.867 18.33 68.877 51.677" fill="url(#b)"/>
    <polygon points="40 34.995 11.133 18.329 39.999 1.663 68.867 18.33 40 34.995" fill="url(#c)"/>
    <polygon points="25.966 26.672 54.641 10.116 54.224 9.876 25.539 26.438 25.966 26.672" fill="#393939"/>
    <polygon points="40 35.236 11.133 18.569 11.133 18.329 11.342 18.209 40.208 34.875 40 34.995 40 35.236" fill="#8d8d8d"/>
    <polygon points="21.494 33.334 13.294 28.6 13.297 22.915 21.494 27.648 21.494 33.334" fill="#6f6f6f"/>
  </g>
</svg>
