<svg xmlns="http://www.w3.org/2000/svg" xmlns:xlink="http://www.w3.org/1999/xlink" width="500" height="500" viewBox="0 0 500 500"><defs><style>.cls-1{fill:url(#linear-gradient);}.cls-2{fill:url(#linear-gradient-2);}.cls-3{fill:url(#linear-gradient-3);}.cls-4{fill:url(#linear-gradient-4);}.cls-5{fill:url(#linear-gradient-5);}.cls-6{fill:url(#linear-gradient-6);}.cls-7{fill:#171717;}.cls-8{fill:url(#linear-gradient-7);}.cls-9{fill:url(#linear-gradient-8);}.cls-10{fill:url(#linear-gradient-9);}.cls-11{fill:url(#linear-gradient-10);}.cls-12{fill:url(#linear-gradient-11);}.cls-13{fill:url(#linear-gradient-12);}.cls-14{fill:url(#linear-gradient-13);}.cls-15{fill:url(#linear-gradient-14);}.cls-16{fill:url(#linear-gradient-15);}.cls-17{fill:url(#linear-gradient-16);}.cls-18{fill:url(#linear-gradient-17);}.cls-19{fill:url(#linear-gradient-18);}.cls-20{fill:url(#linear-gradient-19);}.cls-21{fill:url(#linear-gradient-20);}.cls-22{fill:url(#linear-gradient-21);}.cls-23{fill:url(#linear-gradient-22);}.cls-24{fill:url(#linear-gradient-23);}.cls-25{fill:url(#linear-gradient-24);}.cls-26{fill:url(#linear-gradient-25);}.cls-27{fill:url(#linear-gradient-26);}.cls-28{fill:url(#linear-gradient-27);}.cls-29{fill:url(#linear-gradient-28);}.cls-30{fill:url(#linear-gradient-29);}.cls-31{fill:url(#linear-gradient-30);}.cls-32{fill:url(#linear-gradient-31);}.cls-33{fill:url(#linear-gradient-32);}.cls-34{fill:url(#linear-gradient-33);}.cls-35{fill:url(#linear-gradient-34);}.cls-36{fill:#408bfc;}</style><linearGradient id="linear-gradient" x1="219.54" y1="354.41" x2="280.5" y2="248.83" gradientUnits="userSpaceOnUse"><stop offset="0" stop-color="#565656"/><stop offset="1" stop-color="#3d3d3d"/></linearGradient><linearGradient id="linear-gradient-2" x1="250" y1="348.56" x2="371.92" y2="348.56" gradientUnits="userSpaceOnUse"><stop offset="0" stop-color="#282828"/><stop offset="1" stop-color="#3d3d3d"/></linearGradient><linearGradient id="linear-gradient-3" x1="128.08" y1="348.55" x2="250.03" y2="348.55" xlink:href="#linear-gradient"/><linearGradient id="linear-gradient-4" x1="250" y1="281.29" x2="351.6" y2="281.29" xlink:href="#linear-gradient-2"/><linearGradient id="linear-gradient-5" x1="168.75" y1="287.15" x2="250" y2="287.15" xlink:href="#linear-gradient"/><linearGradient id="linear-gradient-6" x1="192.94" y1="315.6" x2="225.8" y2="258.69" gradientUnits="userSpaceOnUse"><stop offset="0" stop-color="#171717" stop-opacity="0"/><stop offset="1" stop-opacity="0.3"/></linearGradient><linearGradient id="linear-gradient-7" x1="317.22" y1="309.74" x2="284.37" y2="252.84" xlink:href="#linear-gradient-6"/><linearGradient id="linear-gradient-8" x1="345.21" y1="263.7" x2="357.98" y2="263.7" gradientUnits="userSpaceOnUse"><stop offset="0" stop-color="#565656"/><stop offset="0.65" stop-color="#282828"/><stop offset="0.81" stop-color="#2b2b2b"/><stop offset="0.94" stop-color="#353535"/><stop offset="1" stop-color="#3d3d3d"/></linearGradient><linearGradient id="linear-gradient-9" x1="324.94" y1="275.41" x2="337.71" y2="275.41" xlink:href="#linear-gradient-8"/><linearGradient id="linear-gradient-10" x1="304.57" y1="287.17" x2="317.34" y2="287.17" xlink:href="#linear-gradient-8"/><linearGradient id="linear-gradient-11" x1="284.29" y1="298.87" x2="297.06" y2="298.87" xlink:href="#linear-gradient-8"/><linearGradient id="linear-gradient-12" x1="263.97" y1="310.63" x2="276.73" y2="310.63" xlink:href="#linear-gradient-8"/><linearGradient id="linear-gradient-13" x1="243.62" y1="322.25" x2="256.38" y2="322.25" xlink:href="#linear-gradient-8"/><linearGradient id="linear-gradient-14" x1="223.27" y1="310.54" x2="236.04" y2="310.54" xlink:href="#linear-gradient-8"/><linearGradient id="linear-gradient-15" x1="162.39" y1="275.41" x2="175.15" y2="275.41" xlink:href="#linear-gradient-8"/><linearGradient id="linear-gradient-16" x1="142.07" y1="263.7" x2="154.84" y2="263.7" xlink:href="#linear-gradient-8"/><linearGradient id="linear-gradient-17" x1="351.59" y1="305.32" x2="351.59" y2="222.08" xlink:href="#linear-gradient-6"/><linearGradient id="linear-gradient-18" x1="331.33" y1="317.03" x2="331.33" y2="233.79" xlink:href="#linear-gradient-6"/><linearGradient id="linear-gradient-19" x1="310.95" y1="328.79" x2="310.95" y2="245.54" xlink:href="#linear-gradient-6"/><linearGradient id="linear-gradient-20" x1="290.68" y1="340.5" x2="290.68" y2="257.25" xlink:href="#linear-gradient-6"/><linearGradient id="linear-gradient-21" x1="270.35" y1="352.25" x2="270.35" y2="269" xlink:href="#linear-gradient-6"/><linearGradient id="linear-gradient-22" x1="250" y1="363.87" x2="250" y2="280.63" xlink:href="#linear-gradient-6"/><linearGradient id="linear-gradient-23" x1="229.65" y1="352.16" x2="229.65" y2="268.92" xlink:href="#linear-gradient-6"/><linearGradient id="linear-gradient-24" x1="168.77" y1="317.03" x2="168.77" y2="233.79" xlink:href="#linear-gradient-6"/><linearGradient id="linear-gradient-25" x1="148.45" y1="305.32" x2="148.45" y2="222.08" xlink:href="#linear-gradient-6"/><linearGradient id="linear-gradient-26" x1="250.03" y1="249.23" x2="371.92" y2="249.23" xlink:href="#linear-gradient-2"/><linearGradient id="linear-gradient-27" x1="128.12" y1="243.38" x2="250.03" y2="243.38" xlink:href="#linear-gradient"/><linearGradient id="linear-gradient-28" x1="255.08" y1="158.32" x2="305.88" y2="246.32" gradientUnits="userSpaceOnUse"><stop offset="0" stop-color="#6f6f6f"/><stop offset="1" stop-color="#565656"/></linearGradient><linearGradient id="linear-gradient-29" x1="214.44" y1="158.31" x2="224.61" y2="175.93" gradientUnits="userSpaceOnUse"><stop offset="0" stop-color="#6f6f6f"/><stop offset="1" stop-color="#8c8c8c"/></linearGradient><linearGradient id="linear-gradient-30" x1="208.25" y1="181.85" x2="291.83" y2="181.85" gradientUnits="userSpaceOnUse"><stop offset="0" stop-color="#3d3d3d"/><stop offset="1" stop-color="#171717"/></linearGradient><linearGradient id="linear-gradient-31" x1="260.26" y1="191.49" x2="294.61" y2="131.99" gradientUnits="userSpaceOnUse"><stop offset="0" stop-color="#002bb3"/><stop offset="1" stop-color="#5da5ff"/></linearGradient><linearGradient id="linear-gradient-32" x1="279.72" y1="180.98" x2="235.7" y2="104.73" gradientUnits="userSpaceOnUse"><stop offset="0" stop-color="#408bfc"/><stop offset="0" stop-color="#3b88fc"/><stop offset="0.02" stop-color="#257afd"/><stop offset="0.04" stop-color="#146ffe"/><stop offset="0.07" stop-color="#0968ff"/><stop offset="0.11" stop-color="#0263ff"/><stop offset="0.21" stop-color="#0062ff"/><stop offset="0.57" stop-color="#6ea6ff"/><stop offset="1" stop-color="#97c1ff"/></linearGradient><linearGradient id="linear-gradient-33" x1="210.04" y1="153.2" x2="267.46" y2="153.2" gradientUnits="userSpaceOnUse"><stop offset="0" stop-color="#054ada"/><stop offset="1" stop-color="#0530ad"/></linearGradient><linearGradient id="linear-gradient-34" x1="207.86" y1="153.1" x2="269.64" y2="153.1" gradientUnits="userSpaceOnUse"><stop offset="0" stop-color="#408bfc"/><stop offset="1" stop-color="#0062ff"/></linearGradient></defs><g id="Dark_Theme_Objects" data-name="Dark Theme Objects"><polygon class="cls-1" points="371.92 301.63 250.03 372.01 128.12 301.62 250.03 231.24 371.92 301.63"/><polygon class="cls-2" points="371.92 325.09 371.92 301.64 250 372.03 250.03 395.48 371.92 325.09"/><polygon class="cls-3" points="250.03 395.48 128.08 325.1 128.12 301.62 250 372.03 250.03 395.48"/><polygon class="cls-4" points="250 348.55 250 272.69 351.6 214.03 351.6 289.89 250 348.55"/><polygon class="cls-5" points="168.75 301.61 168.75 225.75 250 272.69 250 348.55 168.75 301.61"/><polygon class="cls-6" points="168.75 301.61 168.75 225.75 250 272.69 250 348.55 168.75 301.61"/><polygon class="cls-7" points="198.29 318.56 198.29 271.09 220.46 283.9 220.46 331.37 198.29 318.56"/><polygon class="cls-8" points="250 348.55 250 272.69 351.6 214.03 351.6 289.89 250 348.55"/><path class="cls-9" d="M345.21,222.08v79.56a3.17,3.17,0,0,0,1.87,2.61,10,10,0,0,0,9,0,3.2,3.2,0,0,0,1.87-2.61V222.08Z"/><path class="cls-10" d="M324.94,233.79v79.56a3.17,3.17,0,0,0,1.87,2.6,10,10,0,0,0,9,0,3.15,3.15,0,0,0,1.87-2.6V233.79Z"/><path class="cls-11" d="M304.57,245.54V325.1a3.16,3.16,0,0,0,1.87,2.61,10,10,0,0,0,9,0,3.16,3.16,0,0,0,1.87-2.61V245.54Z"/><path class="cls-12" d="M284.29,257.25v79.56a3.2,3.2,0,0,0,1.87,2.61,10,10,0,0,0,9,0,3.17,3.17,0,0,0,1.87-2.61V257.25Z"/><path class="cls-13" d="M264,269v79.56a3.16,3.16,0,0,0,1.87,2.61,10,10,0,0,0,9,0,3.16,3.16,0,0,0,1.87-2.61V269Z"/><path class="cls-14" d="M243.62,280.63v79.56a3.16,3.16,0,0,0,1.87,2.6,10,10,0,0,0,9,0,3.16,3.16,0,0,0,1.87-2.6V280.63Z"/><path class="cls-15" d="M223.27,268.92v79.56a3.16,3.16,0,0,0,1.87,2.6,10,10,0,0,0,9,0,3.16,3.16,0,0,0,1.87-2.6V268.92Z"/><path class="cls-16" d="M162.39,233.79v79.56a3.15,3.15,0,0,0,1.87,2.6,10,10,0,0,0,9,0,3.15,3.15,0,0,0,1.87-2.6V233.79Z"/><path class="cls-17" d="M142.07,222.08v79.56a3.17,3.17,0,0,0,1.87,2.61,10,10,0,0,0,9,0,3.2,3.2,0,0,0,1.87-2.61V222.08Z"/><path class="cls-18" d="M345.21,222.08v79.56a3.17,3.17,0,0,0,1.87,2.61,10,10,0,0,0,9,0,3.2,3.2,0,0,0,1.87-2.61V222.08Z"/><path class="cls-19" d="M324.94,233.79v79.56a3.17,3.17,0,0,0,1.87,2.6,10,10,0,0,0,9,0,3.15,3.15,0,0,0,1.87-2.6V233.79Z"/><path class="cls-20" d="M304.57,245.54V325.1a3.16,3.16,0,0,0,1.87,2.61,10,10,0,0,0,9,0,3.16,3.16,0,0,0,1.87-2.61V245.54Z"/><path class="cls-21" d="M284.29,257.25v79.56a3.2,3.2,0,0,0,1.87,2.61,10,10,0,0,0,9,0,3.17,3.17,0,0,0,1.87-2.61V257.25Z"/><path class="cls-22" d="M264,269v79.56a3.16,3.16,0,0,0,1.87,2.61,10,10,0,0,0,9,0,3.16,3.16,0,0,0,1.87-2.61V269Z"/><path class="cls-23" d="M243.62,280.63v79.56a3.16,3.16,0,0,0,1.87,2.6,10,10,0,0,0,9,0,3.16,3.16,0,0,0,1.87-2.6V280.63Z"/><path class="cls-24" d="M223.27,268.92v79.56a3.16,3.16,0,0,0,1.87,2.6,10,10,0,0,0,9,0,3.16,3.16,0,0,0,1.87-2.6V268.92Z"/><path class="cls-25" d="M162.39,233.79v79.56a3.15,3.15,0,0,0,1.87,2.6,10,10,0,0,0,9,0,3.15,3.15,0,0,0,1.87-2.6V233.79Z"/><path class="cls-26" d="M142.07,222.08v79.56a3.17,3.17,0,0,0,1.87,2.61,10,10,0,0,0,9,0,3.2,3.2,0,0,0,1.87-2.61V222.08Z"/><polygon class="cls-27" points="250.03 290.3 250.03 278.55 371.92 208.16 371.92 219.91 250.03 290.3"/><polygon class="cls-28" points="250.01 278.55 189.05 196.46 128.14 208.17 128.12 208.16 128.12 219.91 250.03 290.3 250.03 278.55 250.01 278.55"/><polygon class="cls-29" points="189.05 196.46 310.94 126.07 371.91 208.18 250.03 278.56 189.05 196.46"/><polygon class="cls-30" points="250.01 137.78 310.94 126.07 189.05 196.46 128.12 208.17 250.01 137.78"/><polyline class="cls-31" points="291.83 195.76 269.2 208.85 238.75 167.8 208.25 173.65 230.33 160.88 261.1 154.85"/><path class="cls-32" d="M260.21,191.46l.23-.14c-.07.05-.16.08-.24.13Z"/><path class="cls-33" d="M285.23,162.24c0-19.7-13.83-43.65-30.89-53.5-8.62-5-16.41-5.4-22-2.06h0l-14.8,8.57h0c5.53-2.85,13-2.25,21.21,2.49,17.06,9.85,30.89,33.8,30.89,53.5,0,9.77-3.4,16.65-8.91,19.91l15.33-8.84h0C281.72,179.11,285.23,172.17,285.23,162.24Z"/><path class="cls-34" d="M238.75,120.26c-7.63-4.41-14.56-5-19.71-2.32-5.54,2.84-9,9.4-9,18.89,0,11.21,4.82,23.88,12.19,34.14l11-2.12,5.49-1,5.28,7.13,11.22,15.12a13.86,13.86,0,0,0,3.45-1.29c5.4-2.92,8.76-9.42,8.76-18.78C267.46,151.68,254.61,129.41,238.75,120.26Z"/><path class="cls-35" d="M238.75,117.74c-8.22-4.74-15.68-5.34-21.21-2.49-6,3.06-9.68,10.11-9.68,20.32,0,11.71,4.88,24.91,12.42,35.77l1.95-.37C214.86,160.71,210,148,210,136.83c0-9.49,3.46-16.05,9-18.89,5.15-2.64,12.08-2.09,19.71,2.32,15.86,9.15,28.71,31.42,28.71,49.72,0,9.36-3.36,15.86-8.76,18.78a13.86,13.86,0,0,1-3.45,1.29l1.95,2.62a14.63,14.63,0,0,0,3-1.22c.08,0,.17-.08.24-.13l.29-.17c5.51-3.26,8.91-10.14,8.91-19.91C269.64,151.54,255.81,127.59,238.75,117.74Z"/><path class="cls-36" d="M249.09,160a24.27,24.27,0,0,0-6.7-7.65l-1.18-.9V141.09a20,20,0,0,1,5.57,6.87l3.72-2.26a27.77,27.77,0,0,0-9-10.52v-5.62l-4.63-2.67v5.67c-3-1.36-5.41-1.58-7.06-.64s-2.47,3-2.47,6a17,17,0,0,0,.49,4,17.66,17.66,0,0,0,1.56,4.06,20.68,20.68,0,0,0,2.74,4,28.39,28.39,0,0,0,4,3.78l1.09.84V166a24.67,24.67,0,0,1-7.17-8.73l-3.73,2.27a30.29,30.29,0,0,0,4.27,6.63,26.19,26.19,0,0,0,2.65,2.73l5.49-1,5.28,7.13a7.31,7.31,0,0,0,3.21.07,4.48,4.48,0,0,0,1.45-.62q2.48-1.65,2.47-6.28A17.51,17.51,0,0,0,249.09,160Zm-11.85-11.77a14,14,0,0,1-3.12-3.49,7.14,7.14,0,0,1-.94-3.65q0-4.14,4.06-2.45Zm7.13,20c-.69.51-1.75.5-3.16,0V157.83a14,14,0,0,1,3.21,3.51,7.53,7.53,0,0,1,1,3.87C245.41,166.7,245.06,167.7,244.37,168.21Z"/></g></svg>