<svg xmlns="http://www.w3.org/2000/svg" xmlns:xlink="http://www.w3.org/1999/xlink" width="500" height="500" viewBox="0 0 500 500"><defs><style>.cls-1{opacity:0.9;fill:url(#linear-gradient);}.cls-2{fill:url(#linear-gradient-2);}.cls-3{fill:url(#linear-gradient-3);}.cls-4{fill:url(#linear-gradient-4);}.cls-5{fill:#8c8c8c;}</style><linearGradient id="linear-gradient" x1="287.89" y1="208.06" x2="226.41" y2="356.49" gradientUnits="userSpaceOnUse"><stop offset="0"/><stop offset="1" stop-color="#171717" stop-opacity="0"/></linearGradient><linearGradient id="linear-gradient-2" x1="160.12" y1="225.57" x2="339.88" y2="225.57" gradientUnits="userSpaceOnUse"><stop offset="0" stop-color="#3d3d3d"/><stop offset="1" stop-color="#565656"/></linearGradient><linearGradient id="linear-gradient-3" x1="126.57" y1="268.79" x2="169.59" y2="268.79" gradientUnits="userSpaceOnUse"><stop offset="0" stop-color="#6f6f6f"/><stop offset="1" stop-color="#565656"/></linearGradient><linearGradient id="linear-gradient-4" x1="265.71" y1="285.91" x2="373.43" y2="285.91" gradientUnits="userSpaceOnUse"><stop offset="0" stop-color="#565656"/><stop offset="1" stop-color="#3d3d3d"/></linearGradient></defs><g id="Dark_Theme_Objects" data-name="Dark Theme Objects"><path class="cls-1" d="M331.73,244.09c42.94,24.79,43.14,65.13.48,89.92S219.94,358.8,177,334s-43.2-65.13-.54-89.92S288.79,219.3,331.73,244.09Z"/><path class="cls-2" d="M313.39,180.16C284.27,164,247.26,161.54,215.14,169c-19.32,4.87-39.74,13.84-50.31,31.58-2.18,4.25-4,8.75-4.28,13.56a18.09,18.09,0,0,0-.23,2.74l-.2,69c.25-14.72,10.61-26.94,22.61-34.49,17.7-11.54,39.18-16.18,60.08-17.23,19.27-.78,38.93,1.76,57,8.67,19.93,7.5,40.19,23.31,39.9,43.42l.2-69C339.91,203.8,331.08,190.37,313.39,180.16Z"/><path class="cls-3" d="M169.43,243.42c-2.14,6.75-11,8.43-17.28,8.4h0c-5.19-.2-11.28-1.59-14.64-5.76-7.26-9.36-10.76-19.35-10.74-29.26l-.19,69c0,9.91,3.48,19.9,10.73,29.26,3.37,4.17,9.45,5.57,14.65,5.76h0c5.2.08,10.84-1,14.85-4.49,0,0,0,0,0,0a10.17,10.17,0,0,0,1.06-1.14h0a7.49,7.49,0,0,0,1.4-2.91,5.86,5.86,0,0,0,.11-1.1l.19-69A5.52,5.52,0,0,1,169.43,243.42Z"/><path class="cls-4" d="M373.34,219.48c-1.19,21.43-18.13,37.82-35.71,48a150.39,150.39,0,0,1-37.69,14.91c-5.45,1.23-11,2.91-16.65,3.12-6.45.08-16.74-2.18-17.39-9.77l-.19,69a6,6,0,0,0,.8,3c1.92,3.47,6.51,5.44,10.39,6.24,7.68,1.69,15.43-.9,22.85-2.57,23.59-6.2,47.67-16.75,63-36.39a49.1,49.1,0,0,0,10-23.05,44.8,44.8,0,0,0,.44-5.66l.19-69C373.43,218,373.38,218.76,373.34,219.48Z"/><path class="cls-5" d="M337.06,166.41c48.26,27.86,48.54,73.22.57,101.1-13.9,8.08-31.15,14.16-49.81,17.59-7.85,1.28-17.15-.15-21.12-6.35-2.82-5.11,2.05-10.57,10.87-12.19,13.76-2.53,26-6.85,36.24-12.8,34.93-20.3,34.72-53.31-.42-73.6s-92.12-20.3-127,0c-26,15.13-33.36,38.44-18.23,58,3.8,4.9,0,10.65-8.43,12.85-8.08,1.84-17.21.78-22.18-4.94-20.83-26.85-10.75-58.87,25-79.65C210.49,138.53,288.77,138.53,337.06,166.41Z"/></g></svg>