<svg xmlns="http://www.w3.org/2000/svg" xmlns:xlink="http://www.w3.org/1999/xlink" width="500" height="500" viewBox="0 0 500 500"><defs><style>.cls-1{fill:#0062ff;}.cls-2{fill:url(#linear-gradient);}.cls-3{fill:url(#linear-gradient-2);}.cls-4{fill:url(#linear-gradient-3);}.cls-5{fill:#3d3d3d;}.cls-6{fill:none;stroke:#6f6f6f;}</style><linearGradient id="linear-gradient" x1="210.69" y1="222.36" x2="289.31" y2="86.17" gradientUnits="userSpaceOnUse"><stop offset="0" stop-color="#565656"/><stop offset="1" stop-color="#3d3d3d"/></linearGradient><linearGradient id="linear-gradient-2" x1="171.37" y1="286.08" x2="278.35" y2="286.08" gradientUnits="userSpaceOnUse"><stop offset="0" stop-color="#282828"/><stop offset="1" stop-color="#3d3d3d"/></linearGradient><linearGradient id="linear-gradient-3" x1="278.35" y1="271.57" x2="356.98" y2="271.57" gradientUnits="userSpaceOnUse"><stop offset="0" stop-color="#171717"/><stop offset="1" stop-color="#282828"/></linearGradient></defs><g id="Dark_Theme_Objects" data-name="Dark Theme Objects"><polygon class="cls-1" points="278.35 372.5 356.98 327.11 328.63 265.34 221.65 248.97 143.02 294.37 171.37 356.13 278.35 372.5"/><polygon class="cls-2" points="278.35 216.03 356.98 170.63 328.63 108.87 221.65 92.5 143.02 137.9 171.37 199.66 278.35 216.03"/><polygon class="cls-3" points="171.37 199.66 171.37 356.13 278.35 372.5 278.35 216.03 171.37 199.66"/><polygon class="cls-4" points="356.98 170.63 356.98 327.11 278.35 372.5 278.35 216.03 356.98 170.63"/><polygon class="cls-5" points="171.37 199.66 143.02 137.9 143.02 294.37 171.37 356.13 171.37 199.66"/><polyline class="cls-6" points="278.35 216.03 171.37 199.66 143.02 137.9"/></g></svg>