<svg xmlns="http://www.w3.org/2000/svg" xmlns:xlink="http://www.w3.org/1999/xlink" width="500" height="500" viewBox="0 0 500 500"><defs><style>.cls-1{fill:url(#linear-gradient);}.cls-2{fill:url(#linear-gradient-2);}.cls-3{fill:#282828;}.cls-4{fill:#a3a3a3;}.cls-5{fill:url(#linear-gradient-3);}.cls-6{fill:url(#linear-gradient-4);}.cls-7{fill:#408bfc;}.cls-8{fill:#565656;}.cls-9{fill:url(#linear-gradient-5);}.cls-10{fill:url(#linear-gradient-6);}.cls-11{fill:url(#linear-gradient-7);}.cls-12{fill:url(#linear-gradient-8);}.cls-13{fill:url(#linear-gradient-9);}.cls-14{fill:url(#linear-gradient-10);}.cls-15{fill:url(#linear-gradient-11);}.cls-16{fill:url(#linear-gradient-12);}.cls-17{fill:url(#linear-gradient-13);}.cls-18{fill:url(#linear-gradient-14);}.cls-19{fill:url(#linear-gradient-15);}.cls-20{fill:url(#linear-gradient-16);}.cls-21{fill:url(#linear-gradient-17);}.cls-22{fill:url(#linear-gradient-18);}.cls-23{fill:url(#linear-gradient-19);}.cls-24{fill:url(#linear-gradient-20);}.cls-25{fill:url(#linear-gradient-21);}.cls-26{fill:url(#linear-gradient-22);}</style><linearGradient id="linear-gradient" x1="279.9" y1="347.61" x2="183.98" y2="181.47" gradientUnits="userSpaceOnUse"><stop offset="0" stop-color="#3d3d3d"/><stop offset="0" stop-color="#3c3c3c"/><stop offset="0.03" stop-color="#313131"/><stop offset="0.08" stop-color="#2a2a2a"/><stop offset="0.21" stop-color="#282828"/><stop offset="0.57" stop-color="#565656"/><stop offset="1" stop-color="#6f6f6f"/></linearGradient><linearGradient id="linear-gradient-2" x1="129.87" y1="284.31" x2="265.53" y2="284.31" gradientTransform="translate(168.64 -60.76) rotate(30)" gradientUnits="userSpaceOnUse"><stop offset="0" stop-color="#565656"/><stop offset="1" stop-color="#3d3d3d"/></linearGradient><linearGradient id="linear-gradient-3" x1="134.66" y1="285.76" x2="244.62" y2="285.76" gradientUnits="userSpaceOnUse"><stop offset="0" stop-color="#3d3d3d"/><stop offset="1" stop-color="#a3a3a3"/></linearGradient><linearGradient id="linear-gradient-4" x1="134.66" y1="285.76" x2="244.62" y2="285.76" gradientUnits="userSpaceOnUse"><stop offset="0" stop-color="#3d3d3d"/><stop offset="1" stop-color="#565656"/></linearGradient><linearGradient id="linear-gradient-5" x1="332.54" y1="414.64" x2="353.63" y2="378.1" xlink:href="#linear-gradient"/><linearGradient id="linear-gradient-6" x1="317.35" y1="401.07" x2="355.3" y2="401.07" gradientTransform="translate(245.59 -114.43) rotate(30)" xlink:href="#linear-gradient-2"/><linearGradient id="linear-gradient-7" x1="349.54" y1="424.45" x2="370.63" y2="387.91" xlink:href="#linear-gradient-3"/><linearGradient id="linear-gradient-8" x1="318.69" y1="401.47" x2="349.45" y2="401.47" xlink:href="#linear-gradient-3"/><linearGradient id="linear-gradient-9" x1="349.5" y1="424.39" x2="349.65" y2="424.39" xlink:href="#linear-gradient-3"/><linearGradient id="linear-gradient-10" x1="318.69" y1="401.47" x2="349.45" y2="401.47" xlink:href="#linear-gradient-4"/><linearGradient id="linear-gradient-11" x1="137.89" y1="118.03" x2="158.98" y2="81.49" xlink:href="#linear-gradient"/><linearGradient id="linear-gradient-12" x1="122.7" y1="104.46" x2="160.64" y2="104.46" gradientTransform="translate(71.21 -56.84) rotate(30)" xlink:href="#linear-gradient-2"/><linearGradient id="linear-gradient-13" x1="154.88" y1="127.84" x2="175.98" y2="91.31" xlink:href="#linear-gradient-3"/><linearGradient id="linear-gradient-14" x1="124.04" y1="104.87" x2="154.79" y2="104.87" xlink:href="#linear-gradient-3"/><linearGradient id="linear-gradient-15" x1="154.85" y1="127.78" x2="154.99" y2="127.78" xlink:href="#linear-gradient-3"/><linearGradient id="linear-gradient-16" x1="124.04" y1="104.87" x2="154.79" y2="104.87" xlink:href="#linear-gradient-4"/><linearGradient id="linear-gradient-17" x1="331.11" y1="192.24" x2="361.25" y2="140.04" xlink:href="#linear-gradient"/><linearGradient id="linear-gradient-18" x1="309.41" y1="172.85" x2="363.62" y2="172.85" gradientTransform="translate(131.51 -145.1) rotate(30)" xlink:href="#linear-gradient-2"/><linearGradient id="linear-gradient-19" x1="355.39" y1="206.26" x2="385.53" y2="154.06" xlink:href="#linear-gradient-3"/><linearGradient id="linear-gradient-20" x1="311.33" y1="173.43" x2="355.26" y2="173.43" xlink:href="#linear-gradient-3"/><linearGradient id="linear-gradient-21" x1="355.34" y1="206.17" x2="355.55" y2="206.17" xlink:href="#linear-gradient-3"/><linearGradient id="linear-gradient-22" x1="311.33" y1="173.43" x2="355.26" y2="173.43" xlink:href="#linear-gradient-4"/></defs><g id="Dark_Theme_Objects" data-name="Dark Theme Objects"><path class="cls-1" d="M299.76,303.71c0-43.26-30.37-95.86-67.83-117.49-18.92-10.92-36-11.84-48.33-4.52h0l-32.49,18.8,13,23.26c0,.54,0,1.08,0,1.63,0,42.6,29.46,94.18,66.13,116.41l14.59,26.06,34.8-20.08h0C292.05,340.74,299.76,325.49,299.76,303.71Z"/><ellipse class="cls-2" cx="197.7" cy="284.31" rx="55.38" ry="95.93" transform="translate(-115.67 136.94) rotate(-30)"/><ellipse class="cls-3" cx="197.7" cy="284.31" rx="51.47" ry="89.15" transform="translate(-115.67 136.94) rotate(-30)"/><path class="cls-4" d="M246,367.18l-.64.37Z"/><path class="cls-5" d="M241.16,361.32c-10.67,3.41-24.07,1.4-38.63-7-34.82-20.1-63-69-63-109.19,0-18,5.68-31.2,15.06-38.49.35-.27.7-.54,1.06-.8-.4.18-.79.39-1.18.59-12.16,6.24-19.77,20.64-19.77,41.49,0,40.2,28.22,89.08,63,109.18,17,9.83,32.46,10.94,43.8,4.83a30.47,30.47,0,0,0,3.12-1.93A29.43,29.43,0,0,1,241.16,361.32Z"/><path class="cls-6" d="M202.53,354.31c-34.82-20.1-63-69-63-109.19,0-18,5.68-31.2,15.06-38.49.35-.27.7-.54,1.06-.8-.4.18-.79.39-1.18.59-12.16,6.24-19.77,20.64-19.77,41.49,0,40.2,28.22,89.08,63,109.18,17,9.83,32.46,10.94,43.8,4.83a30.47,30.47,0,0,0,3.12-1.93,29.43,29.43,0,0,1-3.46,1.33C230.49,364.73,217.09,362.72,202.53,354.31Z"/><path class="cls-7" d="M216,277.25c0,11.68-8.21,16.42-18.33,10.57s-18.32-20.05-18.32-31.73,8.21-16.42,18.33-10.58S216,265.56,216,277.25Z"/><path class="cls-7" d="M213.41,302.94,182,284.8c-4.23-2.44-7.85-.35-7.85,4.54v9.07l47.12,27.2v-9.07C221.26,311.65,217.64,305.38,213.41,302.94Z"/><path class="cls-8" d="M185.91,187.73a2.53,2.53,0,0,1-2.29-1.46l-40.7-86.13A2.53,2.53,0,1,1,147.5,98l40.7,86.14a2.52,2.52,0,0,1-1.21,3.37A2.44,2.44,0,0,1,185.91,187.73Z"/><path class="cls-8" d="M263.78,247.42a2.54,2.54,0,0,1-1.7-4.42l80.52-72.83a2.53,2.53,0,1,1,3.4,3.76l-80.52,72.83A2.51,2.51,0,0,1,263.78,247.42Z"/><path class="cls-8" d="M339.93,400.84A2.53,2.53,0,0,1,338,400l-58.43-67.42a2.54,2.54,0,0,1,3.83-3.33l58.43,67.43a2.53,2.53,0,0,1-.25,3.58A2.5,2.5,0,0,1,339.93,400.84Z"/><path class="cls-9" d="M364.87,406.49c0-12.1-8.5-26.81-19-32.86-5.29-3.05-10.08-3.31-13.52-1.26h0l-9.09,5.25,3.65,6.51c0,.15,0,.3,0,.46,0,11.91,8.24,26.34,18.49,32.55l4.08,7.29,9.74-5.62h0C362.71,416.85,364.87,412.58,364.87,406.49Z"/><ellipse class="cls-10" cx="336.32" cy="401.07" rx="15.49" ry="26.83" transform="translate(-155.47 221.9) rotate(-30)"/><ellipse class="cls-3" cx="336.32" cy="401.07" rx="14.4" ry="24.93" transform="translate(-155.47 221.9) rotate(-30)"/><path class="cls-11" d="M349.5,424.43l.15-.08-.15.07Z"/><path class="cls-4" d="M349.82,424.24l-.17.11Z"/><path class="cls-12" d="M348.48,422.6c-3,1-6.73.4-10.81-2C327.94,415,320,401.35,320,390.11c0-5,1.59-8.73,4.22-10.77a3.15,3.15,0,0,1,.29-.22l-.33.16c-3.4,1.75-5.53,5.78-5.53,11.61,0,11.24,7.9,24.91,17.63,30.53,4.77,2.75,9.08,3.06,12.25,1.35a8,8,0,0,0,.88-.54A7.15,7.15,0,0,1,348.48,422.6Z"/><path class="cls-13" d="M349.5,424.42h0l.15-.08Z"/><path class="cls-14" d="M337.67,420.64C327.94,415,320,401.35,320,390.11c0-5,1.59-8.73,4.22-10.77a3.15,3.15,0,0,1,.29-.22l-.33.16c-3.4,1.75-5.53,5.78-5.53,11.61,0,11.24,7.9,24.91,17.63,30.53,4.77,2.75,9.08,3.06,12.25,1.35a8,8,0,0,0,.88-.54,7.15,7.15,0,0,1-1,.37C345.5,423.56,341.75,423,337.67,420.64Z"/><path class="cls-15" d="M170.22,109.89c0-12.1-8.5-26.81-19-32.86-5.3-3.06-10.08-3.32-13.52-1.27h0L128.64,81l3.64,6.5c0,.16,0,.3,0,.46,0,11.91,8.24,26.34,18.5,32.56l4.08,7.28,9.73-5.61h0C168.06,120.24,170.22,116,170.22,109.89Z"/><ellipse class="cls-16" cx="141.67" cy="104.46" rx="15.49" ry="26.83" transform="translate(-33.25 84.83) rotate(-30)"/><ellipse class="cls-3" cx="141.67" cy="104.46" rx="14.4" ry="24.93" transform="translate(-33.25 84.83) rotate(-30)"/><path class="cls-17" d="M154.85,127.82l.14-.08-.14.08Z"/><path class="cls-4" d="M155.17,127.64l-.18.1Z"/><path class="cls-18" d="M153.83,126c-3,1-6.73.39-10.81-2-9.73-5.62-17.63-19.3-17.63-30.54,0-5,1.59-8.73,4.21-10.76l.3-.23-.33.17c-3.4,1.74-5.53,5.77-5.53,11.6,0,11.24,7.9,24.92,17.63,30.54,4.76,2.75,9.08,3.06,12.25,1.35a9.71,9.71,0,0,0,.87-.54A10,10,0,0,1,153.83,126Z"/><path class="cls-19" d="M154.85,127.82h0l.14-.08Z"/><path class="cls-20" d="M143,124c-9.73-5.62-17.63-19.3-17.63-30.54,0-5,1.59-8.73,4.21-10.76l.3-.23-.33.17c-3.4,1.74-5.53,5.77-5.53,11.6,0,11.24,7.9,24.92,17.63,30.54,4.76,2.75,9.08,3.06,12.25,1.35a9.71,9.71,0,0,0,.87-.54,10,10,0,0,1-1,.37C150.84,127,147.1,126.39,143,124Z"/><path class="cls-21" d="M377.3,180.6c0-17.28-12.14-38.3-27.11-46.94-7.56-4.37-14.39-4.74-19.31-1.81h0l-13,7.51,5.21,9.29c0,.22,0,.43,0,.65,0,17,11.77,37.64,26.43,46.52l5.83,10.41,13.9-8h0C374.22,195.4,377.3,189.31,377.3,180.6Z"/><ellipse class="cls-22" cx="336.52" cy="172.85" rx="22.13" ry="38.33" transform="translate(-41.34 191.42) rotate(-30)"/><ellipse class="cls-3" cx="336.52" cy="172.85" rx="20.57" ry="35.62" transform="translate(-41.34 191.42) rotate(-30)"/><path class="cls-23" d="M355.35,206.23l.2-.12-.21.11Z"/><path class="cls-4" d="M355.81,206l-.26.14Z"/><path class="cls-24" d="M353.89,203.62c-4.27,1.37-9.62.56-15.44-2.8-13.92-8-25.19-27.56-25.19-43.63,0-7.19,2.27-12.47,6-15.38.14-.11.27-.22.42-.32l-.47.24c-4.86,2.49-7.9,8.25-7.9,16.58,0,16.06,11.28,35.59,25.19,43.62,6.8,3.93,13,4.37,17.5,1.93a9.87,9.87,0,0,0,1.24-.77A10.78,10.78,0,0,1,353.89,203.62Z"/><path class="cls-25" d="M355.34,206.22h0l.2-.12Z"/><path class="cls-26" d="M338.45,200.82c-13.92-8-25.19-27.56-25.19-43.63,0-7.19,2.27-12.47,6-15.38.14-.11.27-.22.42-.32l-.47.24c-4.86,2.49-7.9,8.25-7.9,16.58,0,16.06,11.28,35.59,25.19,43.62,6.8,3.93,13,4.37,17.5,1.93a9.87,9.87,0,0,0,1.24-.77,10.78,10.78,0,0,1-1.37.53C349.62,205,344.27,204.18,338.45,200.82Z"/></g></svg>