<svg xmlns="http://www.w3.org/2000/svg" xmlns:xlink="http://www.w3.org/1999/xlink" width="500" height="500" viewBox="0 0 500 500"><defs><style>.cls-1{fill:#565656;}.cls-2{fill:#6f6f6f;}.cls-3{fill:url(#linear-gradient);}.cls-4{fill:url(#linear-gradient-2);}.cls-5{fill:#8c8c8c;}.cls-6{fill:url(#linear-gradient-3);}.cls-7{fill:url(#linear-gradient-4);}.cls-8{fill:none;stroke:#6f6f6f;stroke-width:0.5px;}.cls-9{fill:url(#linear-gradient-5);}.cls-10{fill:url(#linear-gradient-6);}.cls-11{fill:url(#linear-gradient-7);}.cls-12{fill:#0062ff;}.cls-13{fill:#3d3d3d;}</style><linearGradient id="linear-gradient" x1="223.19" y1="194.3" x2="276.95" y2="163.26" gradientUnits="userSpaceOnUse"><stop offset="0" stop-color="#565656"/><stop offset="1" stop-color="#3d3d3d"/></linearGradient><linearGradient id="linear-gradient-2" x1="288.6" y1="222.84" x2="298.53" y2="222.84" gradientUnits="userSpaceOnUse"><stop offset="0" stop-color="#171717"/><stop offset="1" stop-color="#282828"/></linearGradient><linearGradient id="linear-gradient-3" x1="201.47" y1="200.87" x2="288.68" y2="200.87" gradientUnits="userSpaceOnUse"><stop offset="0" stop-color="#3d3d3d"/><stop offset="1" stop-color="#282828"/></linearGradient><linearGradient id="linear-gradient-4" x1="-285.32" y1="910.46" x2="-277.95" y2="910.46" gradientTransform="matrix(0.97, 0.24, -0.23, 0.91, 745.1, -545.13)" gradientUnits="userSpaceOnUse"><stop offset="0" stop-color="#282a55"/><stop offset="1" stop-color="#171717"/></linearGradient><linearGradient id="linear-gradient-5" x1="-33.71" y1="192.81" x2="2.39" y2="192.81" gradientTransform="translate(287.76)" gradientUnits="userSpaceOnUse"><stop offset="0" stop-color="#6f6f6f"/><stop offset="0.24" stop-color="#666"/><stop offset="0.5" stop-color="#565656"/></linearGradient><linearGradient id="linear-gradient-6" x1="-334.39" y1="895.75" x2="-327.02" y2="895.75" xlink:href="#linear-gradient-4"/><linearGradient id="linear-gradient-7" x1="-77.97" y1="167.55" x2="-41.87" y2="167.55" xlink:href="#linear-gradient-5"/></defs><g id="Dark_Theme_Objects" data-name="Dark Theme Objects"><path class="cls-1" d="M298.06,205.41v141a2.81,2.81,0,0,1-1.3,2.7l0,0-.89.52-1.77,1-.93.54-1.76,1-.93.54-1.76,1-1.94,1.13-3.48-12.31-67.11-38.8a9.09,9.09,0,0,1-4.12-7.15V156.05c0-2.64,1.85-3.71,4.13-2.4l77.77,44.63A9.07,9.07,0,0,1,298.06,205.41Z"/><path class="cls-2" d="M296.76,225.51V349.06l0,0-.89.52V225.51Z"/><polygon class="cls-2" points="294.06 227.66 294.06 350.64 293.13 351.18 293.13 227.66 294.06 227.66"/><polygon class="cls-2" points="291.37 229.81 291.37 352.2 290.44 352.74 290.44 229.81 291.37 229.81"/><polygon class="cls-3" points="288.6 206.69 201.47 156.69 211.68 150.79 298.53 200.64 288.6 206.69"/><polygon class="cls-4" points="288.68 245.05 288.6 206.69 298.53 200.64 298.53 239.33 288.68 245.05"/><path class="cls-2" d="M288.9,352.2a5.39,5.39,0,0,1-.22,1.56l-1.94,1.13-3.48-12.31-67.11-38.8a9.09,9.09,0,0,1-4.12-7.15L201.47,156.69l87.13,50Z"/><path class="cls-5" d="M288,211.25v141c0,2.63-1.84,3.7-4.13,2.38l-77.78-45a9.12,9.12,0,0,1-4.12-7.14V161.89c0-2.63,1.85-3.7,4.13-2.4l77.77,44.64A9.07,9.07,0,0,1,288,211.25Z"/><polygon class="cls-6" points="288.68 245.05 201.47 195.03 201.47 156.69 288.6 206.69 288.68 245.05"/><path class="cls-7" d="M268.72,212.85c-.65,2.6-2.78,4.31-4.75,3.81s-3.05-3-2.4-5.61,2.78-4.3,4.76-3.81S269.38,210.24,268.72,212.85Z"/><line class="cls-8" x1="201.47" y1="156.69" x2="288.6" y2="206.69"/><path class="cls-9" d="M289.18,193.78a3.75,3.75,0,0,1-.52,1.19l-7-4c1.32-6,.15-11.16-2.91-12.55A4.13,4.13,0,0,0,277,178c-3.66,0-9.14,4-12.62,11.67a23.63,23.63,0,0,0-2.31,12.41c.22,1.72.95,4.78,3.32,5.85a4,4,0,0,1-3.26,7.21c-4.36-2-7.16-6.26-7.9-12.07a31.6,31.6,0,0,1,2.95-16.66c4.5-9.91,12.26-16.32,19.82-16.32a12.05,12.05,0,0,1,5,1.09C289,174.32,291.82,183.41,289.18,193.78Z"/><path class="cls-10" d="M224.46,187.59c-.65,2.6-2.78,4.31-4.75,3.81s-3.05-3-2.4-5.61,2.78-4.3,4.76-3.81S225.12,185,224.46,187.59Z"/><path class="cls-11" d="M244.92,168.52a3.75,3.75,0,0,1-.52,1.19l-7-4c1.31-6,.14-11.16-2.91-12.55a4.29,4.29,0,0,0-1.79-.38c-3.65,0-9.13,4-12.61,11.67a23.63,23.63,0,0,0-2.31,12.41c.22,1.72,1,4.78,3.32,5.85a4,4,0,0,1-3.26,7.21c-4.36-2-7.16-6.26-7.9-12.07a31.6,31.6,0,0,1,3-16.66c4.5-9.91,12.26-16.32,19.81-16.32a12.07,12.07,0,0,1,5,1.09C244.7,149.06,247.56,158.15,244.92,168.52Z"/><path class="cls-12" d="M221.33,281l13.46,7.78v-37l-10.89-.41-8.82-20.77,23.14.63,16.53,9.54v59.51l12.49,7.21v17.63l-45.91-26.51Z"/><path class="cls-13" d="M251.62,322.89c-15.23,0-31.72-13.83-41.05-34.4-7.23-16-5.38-28.25-2.56-35.73a34,34,0,0,1,17.79-19.2,2.33,2.33,0,0,1,1.91,4.24,29.35,29.35,0,0,0-15.35,16.6c-2.51,6.66-4.13,17.65,2.45,32.17,8.58,18.94,23.38,31.66,36.81,31.66a18.92,18.92,0,0,0,7.85-1.63c13.36-6.06,15.24-34.26,3.95-59.16-9-19.82-26.3-30.19-38.79-30.19a2.33,2.33,0,1,1,0-4.65c16.57,0,34.27,13.54,43,32.92,11.11,24.51,11.27,57.36-6.26,65.31A23.36,23.36,0,0,1,251.62,322.89Z"/></g></svg>