<svg xmlns="http://www.w3.org/2000/svg" xmlns:xlink="http://www.w3.org/1999/xlink" width="500" height="500" viewBox="0 0 500 500"><defs><style>.cls-1{fill:url(#linear-gradient);}.cls-2{fill:url(#linear-gradient-2);}.cls-3{fill:#a4a4a4;}.cls-4{fill:url(#linear-gradient-3);}</style><linearGradient id="linear-gradient" x1="100.63" y1="250.97" x2="396.03" y2="250.97" gradientUnits="userSpaceOnUse"><stop offset="0" stop-color="#565656"/><stop offset="1" stop-color="#3d3d3d"/></linearGradient><linearGradient id="linear-gradient-2" x1="419.77" y1="431.9" x2="177.35" y2="12.03" gradientUnits="userSpaceOnUse"><stop offset="0.19" stop-color="#282828"/><stop offset="0.35" stop-color="#565656"/><stop offset="1" stop-color="#6f6f6f"/></linearGradient><linearGradient id="linear-gradient-3" x1="-2090.52" y1="258.7" x2="-2308.43" y2="258.7" gradientTransform="matrix(-1, 0, 0, 1, -1958, 0)" gradientUnits="userSpaceOnUse"><stop offset="0" stop-color="#171717"/><stop offset="1"/></linearGradient></defs><g id="Dark_Theme_Objects" data-name="Dark Theme Objects"><path class="cls-1" d="M101.24,58.4c0-3.24,2.3-4.54,5.12-2.92L391,219.79a11.21,11.21,0,0,1,5.08,8.8l-.61,215c0,3.24-2.3,4.54-5.12,2.92L105.71,282.15a11.21,11.21,0,0,1-5.08-8.8Z"/><path class="cls-2" d="M105.24,55a3.84,3.84,0,0,0-.84-.18h-.07a3.14,3.14,0,0,0-.82,0h-.05a2.57,2.57,0,0,0-.73.28l3.34-1.94,0,0a1.42,1.42,0,0,1,.25-.12l.27-.1.19,0h0l.06,0a3,3,0,0,1,.31,0h.52l.2,0,.44.1.2.07.18.06a2,2,0,0,1,.22.08,4.76,4.76,0,0,1,.72.35L394.29,217.85a8.12,8.12,0,0,1,.95.66,3.85,3.85,0,0,1,.3.27l.45.39.19.2.17.18.2.21c.14.16.28.33.41.5l.14.19.07.1c0,.06.09.11.13.18s.2.29.29.44.18.28.27.43l0,0,0,0,.2.36.22.43.18.4v0c.07.15.13.3.19.45s.12.32.17.48.05.17.07.25a.3.3,0,0,1,0,.1.84.84,0,0,0,.05.17c0,.2.1.39.14.59s0,.23.06.35a1.08,1.08,0,0,1,0,.19.86.86,0,0,1,0,.17,6.69,6.69,0,0,1,.07,1l-.61,215a3.55,3.55,0,0,1-1.49,3.27l-3.34,1.94a3.57,3.57,0,0,0,1.49-3.27L396,228.59a7.68,7.68,0,0,0-.1-1.16l0-.19a7.43,7.43,0,0,0-.26-1.11l0-.1a11,11,0,0,0-.44-1.21v0c-.18-.4-.38-.8-.6-1.19l0,0c-.22-.38-.46-.74-.71-1.09l-.07-.1q-.36-.46-.75-.9l-.17-.17c-.21-.22-.42-.42-.64-.61l-.3-.26a9.54,9.54,0,0,0-.95-.66L106.36,55.48a7,7,0,0,0-.94-.43Z"/><path d="M107.89,79.6,389.24,242l0-15.46L107.93,64.15ZM377.28,227.38c0-2.43,1.73-3.4,3.85-2.17a8.41,8.41,0,0,1,3.82,6.6c0,2.44-1.74,3.42-3.84,2.21A8.44,8.44,0,0,1,377.28,227.38ZM364,219.74c0-2.43,1.73-3.4,3.85-2.18a8.42,8.42,0,0,1,3.82,6.61c0,2.43-1.72,3.43-3.84,2.21A8.47,8.47,0,0,1,364,219.74Zm-13.23-7.64c0-2.43,1.72-3.41,3.84-2.18a8.4,8.4,0,0,1,3.83,6.61c0,2.44-1.74,3.42-3.85,2.2A8.41,8.41,0,0,1,350.81,212.1Z"/><path class="cls-3" d="M354.65,209.92a8.4,8.4,0,0,1,3.83,6.61c0,2.44-1.74,3.42-3.85,2.2a8.41,8.41,0,0,1-3.82-6.63C350.82,209.67,352.53,208.69,354.65,209.92Z"/><path class="cls-3" d="M367.89,217.56a8.42,8.42,0,0,1,3.82,6.61c0,2.43-1.72,3.43-3.84,2.21a8.47,8.47,0,0,1-3.83-6.64C364,217.31,365.77,216.34,367.89,217.56Z"/><polygon class="cls-4" points="107.89 79.6 389.24 242.04 388.68 437.8 107.33 275.36 107.89 79.6"/><path class="cls-3" d="M381.13,225.21a8.41,8.41,0,0,1,3.82,6.6c0,2.44-1.74,3.42-3.84,2.21a8.44,8.44,0,0,1-3.83-6.63C377.28,225,379,224,381.13,225.21Z"/></g></svg>