<svg xmlns="http://www.w3.org/2000/svg" xmlns:xlink="http://www.w3.org/1999/xlink" width="500" height="500" viewBox="0 0 500 500"><defs><style>.cls-1{fill:url(#linear-gradient);}.cls-2{fill:url(#linear-gradient-2);}.cls-3{fill:url(#linear-gradient-3);}.cls-4{fill:#282828;}.cls-5{fill:#565656;}.cls-6{fill:#a3a3a3;}.cls-7{fill:#8b8b8b;}.cls-8{fill:url(#linear-gradient-4);}.cls-9{fill:url(#linear-gradient-5);}.cls-10{fill:#bdbdbd;}.cls-11{fill:url(#linear-gradient-6);}.cls-12,.cls-13,.cls-14{opacity:0.9;}.cls-12{fill:url(#linear-gradient-7);}.cls-13{fill:url(#linear-gradient-8);}.cls-14{fill:url(#linear-gradient-9);}.cls-15{fill:url(#linear-gradient-10);}.cls-16{fill:url(#linear-gradient-11);}.cls-17{fill:url(#linear-gradient-12);}.cls-18{fill:url(#linear-gradient-13);}.cls-19{fill:#005eff;}.cls-20{fill:#c1dbff;}.cls-21{fill:#2087ff;}.cls-22{fill:url(#linear-gradient-14);}.cls-23{fill:none;stroke:#565656;stroke-linecap:round;stroke-linejoin:round;stroke-width:0.45px;}.cls-24{fill:url(#linear-gradient-15);}.cls-25{fill:#3d3d3d;}.cls-26{fill:url(#linear-gradient-16);}.cls-27{fill:url(#linear-gradient-17);}.cls-28{fill:url(#linear-gradient-18);}</style><linearGradient id="linear-gradient" x1="263.5" y1="325.07" x2="324.56" y2="219.32" gradientUnits="userSpaceOnUse"><stop offset="0" stop-color="#3d3d3d"/><stop offset="1" stop-color="#6f6f6f"/></linearGradient><linearGradient id="linear-gradient-2" x1="331.32" y1="312.37" x2="412.48" y2="312.37" gradientUnits="userSpaceOnUse"><stop offset="0" stop-color="#282828"/><stop offset="1" stop-color="#3d3d3d"/></linearGradient><linearGradient id="linear-gradient-3" x1="347.74" y1="309.59" x2="396.25" y2="337.59" gradientUnits="userSpaceOnUse"><stop offset="0"/><stop offset="1" stop-color="#282828"/></linearGradient><linearGradient id="linear-gradient-4" x1="214.91" y1="251.9" x2="228.57" y2="251.9" xlink:href="#linear-gradient-2"/><linearGradient id="linear-gradient-5" x1="196.51" y1="254.27" x2="214.91" y2="254.27" gradientUnits="userSpaceOnUse"><stop offset="0" stop-color="#3d3d3d"/><stop offset="1" stop-color="#565656"/></linearGradient><linearGradient id="linear-gradient-6" x1="197.57" y1="126.11" x2="221.1" y2="85.36" gradientUnits="userSpaceOnUse"><stop offset="0" stop-color="#6f6f6f"/><stop offset="1" stop-color="#565656"/></linearGradient><linearGradient id="linear-gradient-7" x1="215.77" y1="150.47" x2="241.37" y2="150.47" gradientUnits="userSpaceOnUse"><stop offset="0" stop-color="#b067ff"/><stop offset="0.44" stop-color="#655fff"/><stop offset="1" stop-color="#05f"/></linearGradient><linearGradient id="linear-gradient-8" x1="185.54" y1="154.59" x2="217.58" y2="154.59" xlink:href="#linear-gradient-7"/><linearGradient id="linear-gradient-9" x1="177.29" y1="143.53" x2="194.01" y2="143.53" xlink:href="#linear-gradient-7"/><linearGradient id="linear-gradient-10" x1="185.54" y1="129.82" x2="217.58" y2="129.82" xlink:href="#linear-gradient-5"/><linearGradient id="linear-gradient-11" x1="217.58" y1="125.7" x2="241.37" y2="125.7" xlink:href="#linear-gradient-2"/><linearGradient id="linear-gradient-12" x1="215.77" y1="177.41" x2="231.94" y2="177.41" xlink:href="#linear-gradient-2"/><linearGradient id="linear-gradient-13" x1="194.01" y1="180.21" x2="215.77" y2="180.21" xlink:href="#linear-gradient-5"/><linearGradient id="linear-gradient-14" x1="12.55" y1="502.15" x2="15.42" y2="507.11" gradientTransform="matrix(0.5, 0.87, -0.58, 1, 502.76, -440)" gradientUnits="userSpaceOnUse"><stop offset="0" stop-color="#002bb1"/><stop offset="0.2" stop-color="#0031ba"/><stop offset="0.53" stop-color="#0041d2"/><stop offset="0.95" stop-color="#005bfa"/><stop offset="1" stop-color="#005eff"/></linearGradient><linearGradient id="linear-gradient-15" x1="208.4" y1="95.53" x2="211.88" y2="95.53" gradientUnits="userSpaceOnUse"><stop offset="0" stop-color="#565656"/><stop offset="0.65" stop-color="#282828"/><stop offset="0.81" stop-color="#2b2b2b"/><stop offset="0.94" stop-color="#353535"/><stop offset="1" stop-color="#3d3d3d"/></linearGradient><linearGradient id="linear-gradient-16" x1="141.64" y1="395.43" x2="202.7" y2="289.67" xlink:href="#linear-gradient"/><linearGradient id="linear-gradient-17" x1="209.46" y1="382.72" x2="290.62" y2="382.72" xlink:href="#linear-gradient-2"/><linearGradient id="linear-gradient-18" x1="225.88" y1="379.94" x2="274.39" y2="407.95" xlink:href="#linear-gradient-3"/></defs><g id="Dark_Theme_Objects" data-name="Dark Theme Objects"><path class="cls-1" d="M209.38,266c0-25.88,18.17-57.35,40.58-70.29,11.93-6.89,22.67-7.14,30.09-1.95l119.07,68.74c-7.19-3.37-16.74-2.44-27.22,3.61-22.41,12.94-40.58,44.41-40.58,70.29v27.86L209.38,293.82Z"/><path class="cls-2" d="M412.48,289.49c0-25.88-18.17-36.37-40.58-23.43s-40.58,44.41-40.58,70.29v27.87l81.16-46.86Z"/><polygon class="cls-3" points="405.64 321.32 405.64 287 338.33 325.89 338.33 360.18 405.64 321.32"/><path class="cls-4" d="M214.29,268.78c.24-26,18.54-57.57,41-70.55,8.59-5,16.94-6.65,23.93-5,.27.16.55.32.81.51l119.07,68.74-3.39-1.21-.17.25c-.25-.17-.52-.32-.78-.49-7.34-4.59-17.61-3.72-28.35,2.48-22.13,12.78-40.13,44-40.13,69.51v28.33l-1.8-1V333c0-.19,0-.38,0-.58.27-26,18.56-57.52,41-70.48,7.48-4.33,14.79-6.17,21.17-5.5-7.11-3.16-16.4-1.88-26.07,3.7-22.13,12.78-40.13,44-40.13,69.51V358l-1.8-1V329.64c0-.19,0-.38,0-.57.26-26,18.56-57.53,41-70.5,7.48-4.32,14.78-6.16,21.17-5.5-7.12-3.15-16.4-1.87-26.07,3.71-22.13,12.78-40.14,44-40.14,69.51v28.33l-1.8-1V326.29c0-.19,0-.38,0-.57.26-26,18.56-57.53,41-70.5,7.48-4.32,14.78-6.16,21.17-5.5-7.12-3.15-16.4-1.87-26.07,3.71-22.13,12.77-40.14,44-40.14,69.51v28.33l-1.8-1V322.94c0-.19,0-.38,0-.57.26-26,18.55-57.53,41-70.5,7.48-4.32,14.78-6.16,21.17-5.5-7.12-3.15-16.4-1.88-26.08,3.7-22.12,12.78-40.13,44-40.13,69.51v28.34l-1.8-1v-27.3c0-.18,0-.37,0-.56.26-26,18.55-57.54,41-70.5,7.49-4.33,14.79-6.17,21.17-5.5-7.11-3.15-16.39-1.88-26.07,3.7-22.13,12.78-40.13,44-40.13,69.51v28.35l-1.8-1V316.23c0-.18,0-.37,0-.56.26-26,18.56-57.54,41-70.51,7.49-4.32,14.8-6.16,21.18-5.49-7.12-3.16-16.4-1.89-26.08,3.7-22.13,12.78-40.13,44-40.13,69.51v28.35l-1.8-1V312.88c0-.19,0-.37,0-.56.26-26,18.56-57.54,41-70.51,7.49-4.32,14.79-6.16,21.18-5.5-7.12-3.15-16.41-1.88-26.08,3.71-22.13,12.77-40.13,44-40.13,69.51v28.35l-1.8-1V309.53c0-.19,0-.37,0-.56.26-26,18.56-57.54,41-70.51,7.49-4.32,14.79-6.16,21.17-5.5-7.11-3.15-16.4-1.88-26.07,3.7-22.13,12.78-40.13,44-40.13,69.51v28.36l-1.8-1V306.17c0-.18,0-.36,0-.55.26-26,18.55-57.54,41-70.51,7.49-4.33,14.79-6.17,21.18-5.5-7.12-3.15-16.41-1.88-26.08,3.7-22.13,12.78-40.13,44-40.13,69.51v28.36l-1.8-1V302.82c0-.18,0-.36,0-.55.25-26,18.55-57.54,41-70.51,7.48-4.33,14.79-6.17,21.17-5.51-7.11-3.14-16.4-1.87-26.07,3.71-22.13,12.78-40.13,44-40.13,69.51v28.36l-1.8-1V299.47c0-.18,0-.36,0-.55.25-26,18.55-57.54,41-70.52,7.48-4.32,14.79-6.16,21.17-5.5-7.11-3.15-16.4-1.88-26.07,3.71-22.13,12.77-40.13,44-40.13,69.51v28.36l-1.8-1V296.12c0-.18,0-.36,0-.55.25-26,18.55-57.55,41-70.52,7.48-4.32,14.79-6.16,21.17-5.5-7.11-3.15-16.4-1.88-26.07,3.7-22.13,12.78-40.14,44-40.14,69.52v28.36l-1.8-1V292.77c0-.18,0-.36,0-.54.25-26,18.55-57.56,41-70.53,7.48-4.32,14.79-6.17,21.17-5.5-7.11-3.15-16.4-1.88-26.08,3.7-22.12,12.78-40.13,44-40.13,69.51v28.37l-1.8-1V289.41c0-.17,0-.35,0-.53.24-26,18.54-57.56,41-70.53,7.49-4.33,14.8-6.17,21.18-5.5-7.11-3.16-16.4-1.89-26.08,3.7-22.13,12.78-40.13,44-40.13,69.51v28.38l-1.8-1V286.06c0-.18,0-.36,0-.53.25-26,18.55-57.56,41-70.54,7.49-4.32,14.79-6.16,21.17-5.5-7.11-3.15-16.4-1.88-26.07,3.71-22.13,12.77-40.13,44-40.13,69.51v28.38l-1.8-1V282.71c0-.18,0-.36,0-.53.25-26,18.55-57.57,41-70.54,7.49-4.32,14.79-6.16,21.18-5.5-7.12-3.15-16.4-1.88-26.08,3.71-22.13,12.77-40.13,44-40.13,69.51v28.38l-1.8-1V279.36c0-.18,0-.36,0-.53.25-26,18.55-57.57,41-70.54,7.49-4.32,14.79-6.16,21.18-5.5-7.12-3.15-16.4-1.88-26.08,3.7-22.13,12.78-40.13,44-40.13,69.51v28.39l-1.8-1V276c0-.17,0-.35,0-.52h0c.24-26,18.55-57.57,41-70.54,7.49-4.33,14.79-6.17,21.17-5.5-7.11-3.15-16.4-1.88-26.07,3.7-22.13,12.78-40.13,44-40.13,69.51V301l-1.8-1V272.65c0-.17,0-.35,0-.52.24-26,18.54-57.57,41-70.55,7.49-4.32,14.79-6.16,21.18-5.49-7.12-3.16-16.41-1.89-26.08,3.7-22.13,12.78-40.13,44-40.13,69.51v28.39l-1.8-1V269.3C214.28,269.13,214.29,269,214.29,268.78Z"/><polygon points="331.32 364.22 290.62 387.72 168.68 317.32 209.38 293.82 331.32 364.22"/><polygon class="cls-5" points="228.57 320.17 228.57 175.92 214.91 183.63 214.91 327.88 228.57 320.17"/><polygon class="cls-6" points="191.77 314.21 191.77 169.97 196.51 180.65 196.51 324.9 191.77 314.21"/><polygon class="cls-7" points="196.51 324.9 196.51 180.65 214.91 183.63 214.91 327.88 196.51 324.9"/><polygon class="cls-8" points="228.57 320.17 228.57 175.92 214.91 183.63 214.91 327.88 228.57 320.17"/><polygon class="cls-5" points="191.77 314.21 191.77 169.97 196.51 180.65 196.51 324.9 191.77 314.21"/><polygon class="cls-9" points="196.51 324.9 196.51 180.65 214.91 183.63 214.91 327.88 196.51 324.9"/><polygon class="cls-10" points="226.34 152.13 231.94 164.77 215.77 173.89 194.01 170.37 188.41 157.73 204.57 148.61 226.34 152.13"/><polygon class="cls-10" points="233.13 108.44 241.37 127.05 217.58 140.48 185.54 135.29 177.29 116.68 201.09 103.25 233.13 108.44"/><polygon class="cls-11" points="233.13 92.31 241.37 110.92 217.58 124.35 185.54 119.17 177.29 100.56 201.09 87.13 233.13 92.31"/><polygon class="cls-12" points="231.94 164.77 241.37 127.05 217.58 140.48 215.77 173.89 231.94 164.77"/><polygon class="cls-13" points="185.54 135.29 194.01 170.37 215.77 173.89 217.58 140.48 185.54 135.29"/><polygon class="cls-14" points="177.29 116.68 188.41 157.73 194.01 170.37 185.54 135.29 177.29 116.68"/><polygon class="cls-5" points="177.29 100.56 177.29 116.68 185.54 135.29 185.54 119.17 177.29 100.56"/><polygon class="cls-15" points="217.58 124.35 217.58 140.48 185.54 135.29 185.54 119.17 217.58 124.35"/><polygon class="cls-16" points="241.37 110.92 241.37 127.05 217.58 140.48 217.58 124.35 241.37 110.92"/><polygon class="cls-17" points="231.94 180.92 231.94 164.77 215.77 173.89 215.77 190.05 231.94 180.92"/><polygon class="cls-5" points="188.41 173.88 188.41 157.73 194.01 170.37 194.01 186.52 188.41 173.88"/><polygon class="cls-18" points="194.01 186.52 194.01 170.37 215.77 173.89 215.77 190.05 194.01 186.52"/><path class="cls-19" d="M236.27,70.25A1.37,1.37,0,0,0,236.8,69a4.31,4.31,0,0,0-1.94-3.37,1.43,1.43,0,0,0-1.25-.17h0l-4.49,1.9a2.33,2.33,0,0,1,.83.28,5.46,5.46,0,0,1,2.45,4.26,2.44,2.44,0,0,1-.16.86l4-2.53Z"/><path class="cls-19" d="M224.18,70.35A2.51,2.51,0,0,0,223.1,70h0l-6.67,2.85,4.39,7.58,6-4.05h0a2.83,2.83,0,0,0,.21-1.12A6.2,6.2,0,0,0,224.18,70.35Z"/><path class="cls-20" d="M230,67.68a2.33,2.33,0,0,0-.83-.28h0l-6,2.57a2.51,2.51,0,0,1,1.08.38A6.2,6.2,0,0,1,227,75.23a2.83,2.83,0,0,1-.21,1.12l5.45-3.55h0a2.44,2.44,0,0,0,.16-.86A5.46,5.46,0,0,0,230,67.68Z"/><ellipse class="cls-21" cx="218.4" cy="76.74" rx="2.54" ry="4.4" transform="translate(-9.11 119.48) rotate(-30)"/><ellipse class="cls-22" cx="218.4" cy="76.74" rx="2.25" ry="3.89" transform="translate(-9.11 119.48) rotate(-30)"/><line class="cls-23" x1="208.4" y1="78.76" x2="216.28" y2="73.15"/><line class="cls-23" x1="220.18" y1="80.4" x2="211.5" y2="84.49"/><path class="cls-24" d="M208.4,82.52v25a.87.87,0,0,0,.51.71,2.73,2.73,0,0,0,2.46,0,.87.87,0,0,0,.51-.71v-25Z"/><circle class="cls-25" cx="210.14" cy="81.52" r="3.46"/><path class="cls-26" d="M87.52,336.3c0-25.88,18.17-57.35,40.58-70.29,11.93-6.89,22.67-7.13,30.09-1.95L277.26,332.8c-7.2-3.36-16.74-2.44-27.22,3.61-22.41,12.94-40.58,44.41-40.58,70.29v27.87L87.52,364.18Z"/><path class="cls-27" d="M290.62,359.84c0-25.88-18.17-36.37-40.58-23.43s-40.58,44.41-40.58,70.29v27.88l81.16-46.86Z"/><polygon class="cls-28" points="283.78 391.67 283.78 357.35 216.47 396.25 216.47 430.53 283.78 391.67"/><path class="cls-4" d="M92.43,339.14c.24-26,18.54-57.58,41-70.56,8.59-5,16.94-6.65,23.93-5,.27.17.55.33.81.51L277.26,332.8l-3.39-1.2-.17.25c-.26-.18-.52-.33-.78-.49-7.34-4.6-17.61-3.73-28.35,2.48-22.13,12.77-40.13,44-40.13,69.51v28.32l-1.8-1V403.35c0-.19,0-.39,0-.58.27-26,18.56-57.52,41-70.49,7.48-4.32,14.79-6.16,21.17-5.5-7.11-3.15-16.4-1.88-26.07,3.71-22.13,12.77-40.13,43.95-40.13,69.51v28.32l-1.8-1V400c0-.2,0-.39,0-.58.26-26,18.56-57.53,41-70.49,7.48-4.32,14.78-6.17,21.17-5.5-7.12-3.15-16.4-1.88-26.07,3.7-22.13,12.78-40.14,44-40.14,69.51V425l-1.8-1v-27.3c0-.19,0-.38,0-.57.26-26,18.56-57.53,41-70.49,7.48-4.33,14.78-6.17,21.17-5.5-7.12-3.15-16.4-1.88-26.07,3.7C205,336.56,187,367.74,187,393.29v28.34l-1.8-1v-27.3c0-.19,0-.38,0-.57.26-26,18.55-57.53,41-70.5,7.48-4.32,14.78-6.16,21.17-5.5-7.12-3.15-16.4-1.87-26.08,3.71-22.12,12.78-40.13,44-40.13,69.51v28.34l-1.8-1v-27.3c0-.19,0-.38,0-.57.27-26,18.56-57.53,41-70.5,7.49-4.32,14.79-6.16,21.17-5.5-7.11-3.15-16.39-1.88-26.07,3.71-22.13,12.77-40.13,43.95-40.13,69.51v28.34l-1.8-1v-27.3c0-.19,0-.38,0-.57.26-26,18.56-57.53,41-70.5,7.49-4.33,14.8-6.16,21.18-5.5-7.12-3.15-16.4-1.88-26.08,3.7-22.13,12.78-40.13,44-40.13,69.51v28.35l-1.8-1V383.23c0-.18,0-.37,0-.56.26-26,18.56-57.53,41-70.5,7.49-4.33,14.79-6.17,21.17-5.5-7.11-3.16-16.4-1.88-26.07,3.7-22.13,12.78-40.13,44-40.13,69.51v28.35l-1.8-1V379.88c0-.18,0-.37,0-.55.26-26,18.56-57.55,41-70.52,7.49-4.32,14.79-6.16,21.17-5.5-7.11-3.15-16.4-1.88-26.07,3.71C176,319.79,158,351,158,376.53v28.35l-1.8-1V376.53c0-.18,0-.37,0-.55.26-26,18.55-57.55,41-70.52,7.49-4.32,14.79-6.16,21.18-5.5-7.12-3.15-16.41-1.88-26.08,3.71-22.13,12.77-40.13,43.95-40.13,69.51v28.35l-1.8-1V373.18c0-.19,0-.37,0-.55.25-26,18.55-57.55,41-70.52,7.48-4.32,14.79-6.16,21.17-5.5-7.11-3.15-16.4-1.88-26.07,3.7-22.13,12.78-40.13,44-40.13,69.51v28.36l-1.8-1V369.82c0-.18,0-.36,0-.54.25-26,18.55-57.55,41-70.52,7.48-4.33,14.79-6.17,21.17-5.5-7.12-3.15-16.4-1.88-26.07,3.7-22.13,12.78-40.13,44-40.13,69.51v28.37l-1.8-1V366.47c0-.18,0-.36,0-.54.25-26,18.55-57.55,41-70.53,7.48-4.32,14.79-6.16,21.17-5.49-7.11-3.16-16.4-1.88-26.07,3.7-22.13,12.78-40.14,44-40.14,69.51v28.37l-1.8-1V363.12c0-.18,0-.36,0-.54.25-26,18.55-57.56,41-70.53,7.48-4.32,14.79-6.16,21.17-5.5-7.12-3.15-16.4-1.88-26.08,3.71C147,303,129,334.21,129,359.77v28.37l-1.8-1V359.77c0-.18,0-.36,0-.54.24-26,18.54-57.56,41-70.53,7.49-4.32,14.8-6.16,21.18-5.5-7.11-3.15-16.4-1.88-26.08,3.7-22.13,12.78-40.13,44-40.13,69.52v28.37l-1.8-1V356.42c0-.18,0-.36,0-.54.25-26,18.55-57.56,41-70.53,7.49-4.32,14.79-6.17,21.17-5.5-7.11-3.15-16.4-1.88-26.07,3.7-22.13,12.78-40.13,44-40.13,69.51v28.38l-1.8-1V353.06c0-.17,0-.35,0-.53.25-26,18.55-57.56,41-70.54,7.49-4.32,14.79-6.16,21.18-5.49-7.12-3.16-16.4-1.88-26.08,3.7-22.13,12.78-40.13,44-40.13,69.51v28.38l-1.8-1V349.71c0-.17,0-.35,0-.53.25-26,18.55-57.56,41-70.54,7.49-4.32,14.79-6.16,21.18-5.5-7.12-3.15-16.41-1.88-26.08,3.71-22.13,12.77-40.13,44-40.13,69.51v28.38l-1.8-1V346.36c0-.18,0-.35,0-.53h0c.24-26,18.55-57.57,41-70.54,7.49-4.32,14.79-6.16,21.17-5.5-7.11-3.15-16.4-1.88-26.07,3.7C118,286.27,100,317.45,100,343v28.38l-1.8-1V343c0-.18,0-.35,0-.52.24-26,18.54-57.58,41-70.55,7.49-4.33,14.79-6.17,21.18-5.5-7.12-3.15-16.41-1.88-26.08,3.7-22.13,12.78-40.13,44-40.13,69.51v28.4l-1.8-1V339.65C92.42,339.48,92.43,339.31,92.43,339.14Z"/></g></svg>