<svg xmlns="http://www.w3.org/2000/svg" xmlns:xlink="http://www.w3.org/1999/xlink" width="500" height="500" viewBox="0 0 500 500"><defs><style>.cls-1{isolation:isolate;}.cls-2{fill:url(#linear-gradient);}.cls-3{fill:url(#linear-gradient-2);}.cls-4{fill:url(#linear-gradient-3);}.cls-5{fill:url(#linear-gradient-4);}.cls-6{fill:url(#linear-gradient-5);}.cls-7{fill:#171717;}.cls-8{fill:url(#linear-gradient-6);}.cls-9{fill:url(#linear-gradient-7);}.cls-10{fill:url(#linear-gradient-8);}.cls-11{fill:url(#linear-gradient-9);}.cls-12{fill:url(#linear-gradient-10);}.cls-13{fill:url(#linear-gradient-11);}.cls-14{fill:url(#linear-gradient-12);}.cls-15{fill:#3d3d3d;}.cls-16{fill:url(#linear-gradient-13);}.cls-17{fill:url(#linear-gradient-14);}.cls-18{fill:url(#linear-gradient-15);}</style><linearGradient id="linear-gradient" x1="323.94" y1="222.61" x2="343.91" y2="222.61" gradientUnits="userSpaceOnUse"><stop offset="0" stop-color="#171717"/><stop offset="1" stop-color="#231f20"/></linearGradient><linearGradient id="linear-gradient-2" x1="156.04" y1="222.63" x2="176.18" y2="222.63" gradientUnits="userSpaceOnUse"><stop offset="0" stop-color="#565656"/><stop offset="1" stop-color="#3d3d3d"/></linearGradient><linearGradient id="linear-gradient-3" x1="328.89" y1="265" x2="357.15" y2="265" gradientUnits="userSpaceOnUse"><stop offset="0" stop-color="#171717"/><stop offset="1" stop-color="#3d3d3d"/></linearGradient><linearGradient id="linear-gradient-4" x1="143.36" y1="265.01" x2="171.66" y2="265.01" xlink:href="#linear-gradient-2"/><linearGradient id="linear-gradient-5" x1="143.19" y1="250.01" x2="143.58" y2="250.01" xlink:href="#linear-gradient-2"/><linearGradient id="linear-gradient-6" x1="171.43" y1="268.33" x2="176.4" y2="268.33" xlink:href="#linear-gradient-2"/><linearGradient id="linear-gradient-7" x1="276.21" y1="294.23" x2="287.88" y2="294.23" gradientUnits="userSpaceOnUse"><stop offset="0" stop-color="#282828"/><stop offset="1" stop-color="#171717"/></linearGradient><linearGradient id="linear-gradient-8" x1="212.94" y1="294.23" x2="224.62" y2="294.23" gradientUnits="userSpaceOnUse"><stop offset="0" stop-color="#171717"/><stop offset="1" stop-color="#282828"/></linearGradient><linearGradient id="linear-gradient-9" x1="307.55" y1="293.74" x2="344.3" y2="293.74" gradientUnits="userSpaceOnUse"><stop offset="0" stop-color="#282828"/><stop offset="1" stop-color="#3d3d3d"/></linearGradient><linearGradient id="linear-gradient-10" x1="287.65" y1="298.61" x2="307.77" y2="298.61" xlink:href="#linear-gradient-9"/><linearGradient id="linear-gradient-11" x1="156.41" y1="293.74" x2="193.38" y2="293.74" xlink:href="#linear-gradient-2"/><linearGradient id="linear-gradient-12" x1="193.16" y1="298.6" x2="213.17" y2="298.6" xlink:href="#linear-gradient-9"/><linearGradient id="linear-gradient-13" x1="224.49" y1="311.85" x2="276.52" y2="311.85" gradientUnits="userSpaceOnUse"><stop offset="0" stop-color="#3d3d3d"/><stop offset="1" stop-color="#565656"/></linearGradient><linearGradient id="linear-gradient-14" x1="238.26" y1="231.45" x2="261.3" y2="191.54" gradientUnits="userSpaceOnUse"><stop offset="0" stop-color="#171717"/><stop offset="1" stop-color="#565656"/></linearGradient><linearGradient id="linear-gradient-15" x1="212.52" y1="276.08" x2="288.03" y2="145.3" gradientUnits="userSpaceOnUse"><stop offset="0" stop-color="#6f6f6f"/><stop offset="1" stop-color="#565656"/></linearGradient></defs><g id="Dark_Theme_Objects" data-name="Dark Theme Objects"><g class="cls-1"><polygon class="cls-2" points="343.9 177.56 343.68 256.19 323.94 267.67 324.16 189.03 343.9 177.56"/><polygon class="cls-3" points="176.18 189.06 175.95 267.69 156.04 256.19 156.26 177.56 176.18 189.06"/><polygon class="cls-4" points="357.15 225.68 356.93 304.32 328.89 304.32 329.12 225.68 357.15 225.68"/><polygon class="cls-5" points="171.66 225.7 171.43 304.33 143.36 304.33 143.58 225.7 171.66 225.7"/><polygon class="cls-6" points="143.58 225.7 143.36 304.33 143.19 274.32 143.41 195.68 143.58 225.7"/><polygon class="cls-7" points="329.12 225.68 328.89 304.32 324.16 310.94 324.38 232.31 329.12 225.68"/><polygon class="cls-8" points="176.4 232.33 176.18 310.97 171.43 304.33 171.66 225.7 176.4 232.33"/><polygon class="cls-9" points="287.88 253.55 287.65 332.18 276.21 334.91 276.43 256.27 287.88 253.55"/><polygon class="cls-10" points="224.62 256.3 224.4 334.93 212.94 332.17 213.17 253.54 224.62 256.3"/><polygon class="cls-11" points="344.3 243.81 344.08 322.44 307.55 343.67 307.77 265.03 344.3 243.81"/><polygon class="cls-12" points="307.77 265.03 307.55 343.67 287.65 332.18 287.88 253.55 307.77 265.03"/><polygon class="cls-13" points="193.38 265.04 193.16 343.67 156.41 322.45 156.63 243.82 193.38 265.04"/><polygon class="cls-14" points="213.17 253.54 212.94 332.17 193.16 343.67 193.38 265.04 213.17 253.54"/><polygon class="cls-15" points="224.71 272.54 224.49 351.17 224.4 334.93 224.62 256.3 224.71 272.54"/><polygon class="cls-16" points="276.52 272.54 276.3 351.17 224.49 351.17 224.71 272.54 276.52 272.54"/><path class="cls-17" d="M228.22,223.46c12.24,7.06,32,7.06,44.18,0,6.06-3.52,9.08-8.14,9.07-12.76,0-5.72-4.54-10.17-9.21-12.85h0c-12.65-6.91-30.53-7.07-43.2-.49a25,25,0,0,0-7.44,6,12.36,12.36,0,0,0-2.57,6.72C218.83,215,221.88,219.8,228.22,223.46Z"/><path class="cls-18" d="M329.12,225.68h28l-.19-30h-28L324.16,189l19.75-11.47-36.75-21.22-19.79,11.5-11.45-2.78-.09-16.22H224l.09,16.26-11.47,2.72-19.87-11.48-36.53,21.23,19.92,11.5-4.76,6.61h-28l.17,30h28.08l4.74,6.63-19.76,11.49L193.38,265l19.79-11.49,11.45,2.76.09,16.24h51.81l-.09-16.26,11.45-2.73L307.77,265l36.53-21.22-19.92-11.5Zm-56.72-2.21c-12.13,7.05-31.94,7.05-44.18,0-6.34-3.66-9.39-8.51-9.18-13.32.19-4.45,3.2-8.87,9-12.26,12.87-7.1,31.11-7.13,44.17,0h0C283.56,204.14,285.34,216,272.4,223.47Z"/></g></g></svg>