<svg xmlns="http://www.w3.org/2000/svg" xmlns:xlink="http://www.w3.org/1999/xlink" width="500" height="500" viewBox="0 0 500 500"><defs><style>.cls-1{fill:url(#linear-gradient);}.cls-2{fill:url(#linear-gradient-2);}.cls-3{fill:url(#linear-gradient-3);}.cls-4{fill:#8b8b8b;}.cls-5{fill:#cdcdcd;}.cls-6{fill:url(#linear-gradient-4);}.cls-7{fill:url(#linear-gradient-5);}.cls-8{fill:url(#linear-gradient-6);}.cls-9{fill:url(#linear-gradient-7);}.cls-10{fill:url(#linear-gradient-8);}.cls-11{fill:#f3f3f3;}.cls-12{fill:url(#linear-gradient-9);}.cls-13{fill:url(#linear-gradient-10);}.cls-14{fill:url(#linear-gradient-11);}.cls-15,.cls-16{fill:none;stroke-width:0.5px;}.cls-15{stroke:#8c8c8c;}.cls-16{stroke:#97c1ff;}</style><linearGradient id="linear-gradient" x1="213.76" y1="320.43" x2="301.99" y2="269.49" gradientUnits="userSpaceOnUse"><stop offset="0" stop-color="#565656"/><stop offset="1" stop-color="#3d3d3d"/></linearGradient><linearGradient id="linear-gradient-2" x1="337.88" y1="367.63" x2="343.36" y2="367.63" gradientUnits="userSpaceOnUse"><stop offset="0" stop-color="#171717"/><stop offset="1" stop-color="#282828"/></linearGradient><linearGradient id="linear-gradient-3" x1="172.38" y1="321.45" x2="337.88" y2="321.45" gradientUnits="userSpaceOnUse"><stop offset="0" stop-color="#3d3d3d"/><stop offset="1" stop-color="#282828"/></linearGradient><linearGradient id="linear-gradient-4" x1="337.89" y1="277.27" x2="343.38" y2="277.27" xlink:href="#linear-gradient-2"/><linearGradient id="linear-gradient-5" x1="172.39" y1="231.08" x2="337.9" y2="231.08" xlink:href="#linear-gradient-3"/><linearGradient id="linear-gradient-6" x1="213.77" y1="180.69" x2="302.01" y2="129.75" gradientUnits="userSpaceOnUse"><stop offset="0" stop-color="#6ea6ff"/><stop offset="1" stop-color="#408bfc"/></linearGradient><linearGradient id="linear-gradient-7" x1="337.89" y1="227.89" x2="343.38" y2="227.89" gradientUnits="userSpaceOnUse"><stop offset="0" stop-color="#054ada"/><stop offset="1" stop-color="#0062ff"/></linearGradient><linearGradient id="linear-gradient-8" x1="172.39" y1="181.71" x2="337.9" y2="181.71" gradientUnits="userSpaceOnUse"><stop offset="0" stop-color="#408bfc"/><stop offset="1" stop-color="#0062ff"/></linearGradient><linearGradient id="linear-gradient-9" x1="198" y1="269.09" x2="286.24" y2="218.15" gradientUnits="userSpaceOnUse"><stop offset="0" stop-color="#6f6f6f"/><stop offset="1" stop-color="#565656"/></linearGradient><linearGradient id="linear-gradient-10" x1="322.12" y1="316.29" x2="327.61" y2="316.29" gradientUnits="userSpaceOnUse"><stop offset="0" stop-color="#282828"/><stop offset="1" stop-color="#3d3d3d"/></linearGradient><linearGradient id="linear-gradient-11" x1="156.62" y1="270" x2="322.13" y2="270" xlink:href="#linear-gradient"/></defs><g id="Dark_Theme_Objects" data-name="Dark Theme Objects"><polygon class="cls-1" points="337.88 344.3 343.36 341.14 177.86 245.62 172.38 248.77 337.88 344.3"/><polygon class="cls-2" points="343.36 390.96 343.36 341.14 337.88 344.3 337.88 394.12 343.36 390.96"/><polygon class="cls-3" points="337.88 394.12 172.38 298.59 172.38 248.77 337.88 344.3 337.88 394.12"/><path class="cls-4" d="M296.11,343.39l-97.9-56.52c-1.23-.71-2.23-.13-2.23,1.29a5,5,0,0,0,2.23,3.87l97.9,56.51c1.23.71,2.23.13,2.23-1.29A4.93,4.93,0,0,0,296.11,343.39Z"/><polygon class="cls-5" points="337.9 253.94 343.38 250.78 177.88 155.26 172.4 158.41 337.9 253.94"/><polygon class="cls-6" points="343.37 300.6 343.38 250.78 337.9 253.94 337.89 303.75 343.37 300.6"/><polygon class="cls-7" points="337.89 303.75 172.39 208.23 172.4 158.41 337.9 253.94 337.89 303.75"/><path class="cls-4" d="M287.34,247.94l-89.13-51.47c-1.23-.71-2.23-.14-2.23,1.29a4.93,4.93,0,0,0,2.23,3.86l89.13,51.47c1.23.71,2.23.14,2.23-1.29A4.93,4.93,0,0,0,287.34,247.94Z"/><polygon class="cls-8" points="337.9 204.56 343.38 201.41 177.88 105.88 172.4 109.04 337.9 204.56"/><polygon class="cls-9" points="343.37 251.23 343.38 201.41 337.9 204.56 337.89 254.38 343.37 251.23"/><polygon class="cls-10" points="337.89 254.38 172.39 158.85 172.4 109.04 337.9 204.56 337.89 254.38"/><path class="cls-11" d="M305.24,208.9l-107-61.8c-1.23-.72-2.23-.14-2.23,1.28a4.93,4.93,0,0,0,2.23,3.87l107,61.81c1.24.71,2.24.13,2.24-1.29A5,5,0,0,0,305.24,208.9Z"/><polygon class="cls-12" points="322.13 292.96 327.61 289.81 162.11 194.28 156.63 197.44 322.13 292.96"/><polygon class="cls-13" points="327.6 339.63 327.61 289.81 322.13 292.96 322.12 342.78 327.6 339.63"/><polygon class="cls-14" points="322.12 342.53 156.62 247 156.63 197.46 322.13 292.96 322.12 342.53"/><path class="cls-4" d="M265.88,283.49l-82.81-47.86c-1.23-.71-2.23-.14-2.23,1.29a4.93,4.93,0,0,0,2.23,3.86l82.8,47.87c1.24.71,2.24.13,2.24-1.29A5,5,0,0,0,265.88,283.49Z"/><line class="cls-15" x1="156.63" y1="197.44" x2="322.13" y2="292.96"/><polygon class="cls-11" points="321.85 216.36 326.2 225.59 317.65 220.66 321.85 216.36"/><line class="cls-16" x1="172.4" y1="109.04" x2="337.9" y2="204.56"/></g></svg>