<svg xmlns="http://www.w3.org/2000/svg" xmlns:xlink="http://www.w3.org/1999/xlink" width="500" height="500" viewBox="0 0 500 500"><defs><style>.cls-1{isolation:isolate;}.cls-2{fill:#3d3d3d;}.cls-3{fill:#565656;}.cls-4{fill:url(#linear-gradient);}.cls-5{fill:url(#linear-gradient-2);}.cls-6{fill:#212121;}.cls-7{fill:#c3ddff;}.cls-8{fill:url(#linear-gradient-3);}.cls-9{fill:url(#linear-gradient-4);}.cls-10{fill:url(#linear-gradient-5);}.cls-11{fill:url(#linear-gradient-6);}.cls-12{fill:#171717;}.cls-13{fill:#eaf3ff;}.cls-14{fill:#005eff;}</style><linearGradient id="linear-gradient" x1="230.02" y1="219.8" x2="366.67" y2="219.8" gradientUnits="userSpaceOnUse"><stop offset="0" stop-color="#3d3d3d"/><stop offset="1" stop-color="#282828"/></linearGradient><linearGradient id="linear-gradient-2" x1="363.73" y1="196.85" x2="368.27" y2="204.71" gradientUnits="userSpaceOnUse"><stop offset="0" stop-color="#565656"/><stop offset="1" stop-color="#3d3d3d"/></linearGradient><linearGradient id="linear-gradient-3" x1="269.29" y1="347.02" x2="363.7" y2="347.02" gradientUnits="userSpaceOnUse"><stop offset="0" stop-color="#171717"/><stop offset="1" stop-color="#282828"/></linearGradient><linearGradient id="linear-gradient-4" x1="131.07" y1="337.16" x2="260.21" y2="337.16" xlink:href="#linear-gradient"/><linearGradient id="linear-gradient-5" x1="221.91" y1="351.8" x2="272.87" y2="263.53" gradientUnits="userSpaceOnUse"><stop offset="0" stop-color="#565656"/><stop offset="1" stop-color="#3d3d3d"/></linearGradient><linearGradient id="linear-gradient-6" x1="260.2" y1="375.76" x2="269.3" y2="375.76" gradientUnits="userSpaceOnUse"><stop offset="0" stop-color="#282828"/><stop offset="1" stop-color="#171717"/></linearGradient></defs><g id="Dark_Theme_Objects" data-name="Dark Theme Objects"><g id="Laptop_Light" data-name="Laptop Light"><g class="cls-1"><path class="cls-2" d="M366.67,205.63l-.3,107.07a3.28,3.28,0,0,1-1.33,2.9c.83-.56,2.87-1.38,3.23-2.41h0a4.41,4.41,0,0,0,.36-1.79l.3-107.08Z"/><path class="cls-3" d="M237.14,123a3.78,3.78,0,0,0-2.55-.58h0a19.8,19.8,0,0,0-2.93,1.57,1.93,1.93,0,0,1,.67-.25h0a3.82,3.82,0,0,1,2.55.58l127.25,73.46,2.25-1.31Z"/><path class="cls-4" d="M362.13,197.78a10,10,0,0,1,4.54,7.85l-.3,107.07c0,2.86-2.06,4-4.58,2.58L234.55,241.82A10,10,0,0,1,230,234l.31-107.06c0-2.89,2-4,4.55-2.6Z"/><path class="cls-5" d="M363.87,199.19a10.75,10.75,0,0,1,2.71,5.33h0a6.89,6.89,0,0,1,.09,1.1l2.26-1.31a6.68,6.68,0,0,0-.09-1.09h0a10.12,10.12,0,0,0-4.46-6.74l-2.25,1.31A8.4,8.4,0,0,1,363.87,199.19Z"/></g><path class="cls-6" d="M361.66,197.92a10,10,0,0,1,4.55,7.85L365.91,312c0,2.87-2.06,4-4.58,2.58L235,241.68a10,10,0,0,1-4.52-7.84l.3-106.26c0-2.89,2.06-4,4.55-2.6Zm2,112.8"/><path class="cls-7" d="M360.94,200.09a6.67,6.67,0,0,1,3,5.21l-.3,105.42c0,1.43-1,2-2.3,1.29L235,239.05a5,5,0,0,1-2.26-3.91L233,128.88c0-1.46,1.05-2,2.29-1.31Z"/><g class="cls-1"><path class="cls-8" d="M363.59,318.18a3.78,3.78,0,0,1-1.74,1.94L269.3,373.91v2.61l92.55-53.78c.29-.19.58-.41.84-.62a2.87,2.87,0,0,0,1-1.56c.08-.25,0-2.72.05-3A2.06,2.06,0,0,1,363.59,318.18Z"/><path class="cls-9" d="M133,300.44a3.22,3.22,0,0,1-1.88-2.63v2.61a3.2,3.2,0,0,0,1.89,2.63L260.2,376.52v-2.61Z"/><path class="cls-10" d="M361.8,314.87c2.51,1.45,2.54,3.8.05,5.25L269.3,373.91a10,10,0,0,1-9.09,0L133,300.44c-2.51-1.45-2.51-3.8,0-5.25l92.55-53.78a9.9,9.9,0,0,1,9.05,0Z"/><path class="cls-11" d="M269.3,373.91a10,10,0,0,1-9.09,0v2.61a10,10,0,0,0,9.09,0Z"/></g><path class="cls-12" d="M262.65,316.42a.35.35,0,0,1,0,.66l-6.2,3.61a1.34,1.34,0,0,1-1.14,0L216.8,298.45c-.32-.19-.31-.48,0-.66l6.2-3.6a1.24,1.24,0,0,1,1.14,0Z"/><path class="cls-12" d="M272.69,322.22c.3.18.29.47,0,.65l-6.2,3.6a1.23,1.23,0,0,1-1.12,0l-8.2-4.73a.35.35,0,0,1,0-.66l6.19-3.6a1.29,1.29,0,0,1,1.15,0Z"/><path class="cls-12" d="M280.74,326.87c.33.19.31.49,0,.66l-6.2,3.61a1.3,1.3,0,0,1-1.14,0l-6.22-3.59a.36.36,0,0,1,0-.67l6.2-3.6a1.27,1.27,0,0,1,1.14,0Z"/><path class="cls-12" d="M228.18,259.38c.31.18.33.47,0,.65l-6.2,3.6a1.27,1.27,0,0,1-1.14,0l-6.24-3.6a.35.35,0,0,1,0-.66l6.19-3.6a1.23,1.23,0,0,1,1.12,0Z"/><path class="cls-12" d="M260.47,278a.33.33,0,0,1,0,.63l-6.2,3.6a1.26,1.26,0,0,1-1.12,0l-6.24-3.6a.36.36,0,0,1,0-.67l6.19-3.6a1.32,1.32,0,0,1,1.13,0Z"/><path class="cls-12" d="M252.39,273.36c.31.18.33.47,0,.65l-6.2,3.6a1.27,1.27,0,0,1-1.14,0l-6.24-3.6a.35.35,0,0,1,0-.66l6.2-3.6a1.23,1.23,0,0,1,1.12,0Z"/><path class="cls-12" d="M329,326.87a.36.36,0,0,1,0,.68l-6.73,3.9-7.43,4.33a1.37,1.37,0,0,1-1.17,0l-4.07-2.35a.37.37,0,0,1,0-.69l7.44-4.32-1.74-1-.39-.23,7.31-4.25.39.23Z"/><path class="cls-12" d="M315.06,328.11c.3.18.31.46,0,.65l-6.18,3.59a1.2,1.2,0,0,1-1.12,0l-6.23-3.6c-.31-.18-.33-.47,0-.66l6.18-3.59a1.24,1.24,0,0,1,1.14,0Z"/><path class="cls-12" d="M305,340.85c.33.19.31.49,0,.66l-6.2,3.6a1.24,1.24,0,0,1-1.14,0l-6.21-3.58a.36.36,0,0,1,0-.67l6.2-3.6a1.27,1.27,0,0,1,1.14,0Z"/><path class="cls-12" d="M296.9,336.2c.31.18.29.47,0,.65l-6.19,3.6a1.23,1.23,0,0,1-1.12,0l-6.24-3.6a.35.35,0,0,1,0-.66l6.2-3.6a1.27,1.27,0,0,1,1.14,0Z"/><path class="cls-12" d="M204.18,282.67c.32.19.31.48,0,.66l-6.2,3.6a1.24,1.24,0,0,1-1.14,0l-6.21-3.59a.35.35,0,0,1,0-.66l6.2-3.6a1.27,1.27,0,0,1,1.14,0Z"/><path class="cls-12" d="M236.24,264c.33.19.33.48,0,.65l-6.19,3.61a1.32,1.32,0,0,1-1.15,0l-6.21-3.59a.36.36,0,0,1,0-.67l6.2-3.6a1.26,1.26,0,0,1,1.12,0Z"/><path class="cls-12" d="M224.08,266.29c.33.19.31.48,0,.66l-6.2,3.6a1.2,1.2,0,0,1-1.12,0l-10.15-5.86a.35.35,0,0,1,0-.65l6.2-3.6a1.34,1.34,0,0,1,1.14,0Z"/><path class="cls-12" d="M244.32,268.7c.3.18.33.47,0,.65l-6.2,3.6a1.27,1.27,0,0,1-1.14,0l-6.21-3.59c-.33-.19-.31-.48,0-.66l6.2-3.6a1.2,1.2,0,0,1,1.12,0Z"/><path class="cls-12" d="M232.16,271a.35.35,0,0,1,0,.66L226,275.22a1.26,1.26,0,0,1-1.12,0l-6.24-3.6a.33.33,0,0,1,0-.63l6.2-3.61a1.29,1.29,0,0,1,1.12,0Z"/><path class="cls-12" d="M240.24,275.62a.35.35,0,0,1,0,.66l-6.2,3.6a1.23,1.23,0,0,1-1.12,0l-6.23-3.6c-.31-.18-.33-.48,0-.65l6.2-3.6a1.27,1.27,0,0,1,1.14,0Z"/><path class="cls-12" d="M226.26,276.85a.35.35,0,0,1,0,.66l-6.18,3.59a1.27,1.27,0,0,1-1.14,0l-6.24-3.61c-.31-.17-.31-.46,0-.64l6.17-3.59a1.23,1.23,0,0,1,1.12,0Z"/><path class="cls-12" d="M248.32,280.28c.3.18.28.47,0,.65l-6.2,3.6a1.19,1.19,0,0,1-1.1,0l-6.24-3.6c-.3-.18-.32-.47,0-.65l6.2-3.6a1.27,1.27,0,0,1,1.14,0Z"/><path class="cls-12" d="M234.34,281.51c.31.18.31.46,0,.65l-6.17,3.59a1.22,1.22,0,0,1-1.13,0l-6.23-3.6c-.31-.18-.33-.47,0-.66l6.18-3.59a1.24,1.24,0,0,1,1.14,0Z"/><path class="cls-12" d="M268.53,282.68c.33.19.33.47,0,.65l-6.19,3.6a1.24,1.24,0,0,1-1.14,0L255,283.34c-.33-.19-.31-.48,0-.66l6.19-3.6a1.2,1.2,0,0,1,1.12,0Z"/><path class="cls-12" d="M222.22,283.81c.31.18.33.47,0,.65l-6.2,3.6a1.27,1.27,0,0,1-1.14,0l-6.24-3.6c-.3-.18-.29-.47,0-.65l6.2-3.6a1.19,1.19,0,0,1,1.1,0Z"/><path class="cls-12" d="M256.37,284.93a.35.35,0,0,1,0,.66l-6.2,3.61a1.26,1.26,0,0,1-1.12,0l-6.22-3.59c-.33-.18-.33-.47,0-.64l6.2-3.61a1.3,1.3,0,0,1,1.14,0Z"/><path class="cls-12" d="M242.4,286.16c.32.19.33.47,0,.66l-6.18,3.59a1.21,1.21,0,0,1-1.14,0l-6.21-3.59c-.33-.19-.33-.47,0-.66l6.18-3.59a1.21,1.21,0,0,1,1.14,0Z"/><path class="cls-12" d="M276.61,287.34c.3.18.33.47,0,.65l-6.19,3.6a1.29,1.29,0,0,1-1.15,0l-6.23-3.6a.35.35,0,0,1,0-.66l6.2-3.6a1.23,1.23,0,0,1,1.12,0Z"/><path class="cls-12" d="M212.26,287.33a.35.35,0,0,1,0,.66l-6.2,3.6a1.27,1.27,0,0,1-1.14,0L198.7,288a.35.35,0,0,1,0-.66l6.2-3.6a1.24,1.24,0,0,1,1.14,0Z"/><path class="cls-12" d="M230.3,288.48a.33.33,0,0,1,0,.63l-6.2,3.6a1.26,1.26,0,0,1-1.12,0l-6.24-3.6a.36.36,0,0,1,0-.67l6.19-3.6a1.29,1.29,0,0,1,1.12,0Z"/><path class="cls-12" d="M264.45,289.6a.35.35,0,0,1,0,.66l-6.2,3.6a1.26,1.26,0,0,1-1.12,0l-6.24-3.6c-.31-.18-.33-.48,0-.65l6.19-3.6a1.27,1.27,0,0,1,1.14,0Z"/><path class="cls-12" d="M250.47,290.83a.35.35,0,0,1,0,.66l-6.18,3.59a1.3,1.3,0,0,1-1.14,0l-6.24-3.61c-.3-.17-.31-.46,0-.64l6.18-3.59a1.23,1.23,0,0,1,1.12,0Z"/><path class="cls-12" d="M284.69,292a.33.33,0,0,1,0,.63l-6.2,3.6a1.26,1.26,0,0,1-1.12,0l-6.24-3.6a.36.36,0,0,1,0-.67l6.2-3.6a1.29,1.29,0,0,1,1.12,0Z"/><path class="cls-12" d="M238.36,293.13c.33.19.33.47,0,.65l-6.19,3.6a1.26,1.26,0,0,1-1.15,0l-6.21-3.59c-.33-.19-.31-.49,0-.66l6.2-3.6a1.2,1.2,0,0,1,1.12,0Z"/><path class="cls-12" d="M222.3,293.13c.3.17.28.47,0,.65l-6.2,3.6a1.23,1.23,0,0,1-1.12,0l-8.2-4.73a.36.36,0,0,1,0-.67l6.19-3.6a1.36,1.36,0,0,1,1.15,0Z"/><path class="cls-12" d="M272.53,294.26c.31.18.29.47,0,.65l-6.19,3.6a1.19,1.19,0,0,1-1.1,0l-6.24-3.6c-.31-.18-.33-.47,0-.65l6.2-3.6a1.27,1.27,0,0,1,1.14,0Z"/><path class="cls-12" d="M258.55,295.49c.31.18.33.47,0,.66l-6.18,3.59a1.24,1.24,0,0,1-1.14,0l-6.24-3.6c-.31-.18-.33-.47,0-.66l6.17-3.59a1.26,1.26,0,0,1,1.15,0Z"/><path class="cls-12" d="M292.74,296.66c.33.19.33.47,0,.65l-6.2,3.6a1.24,1.24,0,0,1-1.14,0l-6.22-3.59c-.32-.19-.31-.49,0-.66l6.2-3.6a1.2,1.2,0,0,1,1.12,0Z"/><path class="cls-12" d="M246.44,297.79c.3.18.33.47,0,.65l-6.2,3.6a1.27,1.27,0,0,1-1.14,0l-6.23-3.6c-.31-.18-.29-.47,0-.65l6.2-3.6a1.19,1.19,0,0,1,1.1,0Z"/><path class="cls-12" d="M280.59,298.91c.32.19.31.49,0,.66l-6.2,3.61a1.23,1.23,0,0,1-1.12,0l-6.21-3.59c-.33-.18-.33-.47,0-.65l6.2-3.6a1.27,1.27,0,0,1,1.14,0Z"/><path class="cls-12" d="M300.82,301.32c.31.18.33.47,0,.65l-6.2,3.6a1.27,1.27,0,0,1-1.14,0l-6.24-3.6c-.31-.18-.29-.47,0-.65l6.19-3.6a1.19,1.19,0,0,1,1.1,0Z"/><path class="cls-12" d="M254.52,302.46c.3.17.32.47,0,.64l-6.2,3.61a1.34,1.34,0,0,1-1.14,0L241,303.1a.35.35,0,0,1,0-.66l6.2-3.6a1.29,1.29,0,0,1,1.12,0Z"/><path class="cls-12" d="M288.67,303.58a.35.35,0,0,1,0,.66l-6.2,3.6a1.26,1.26,0,0,1-1.12,0l-6.24-3.6c-.3-.18-.31-.46,0-.64l6.2-3.6a1.23,1.23,0,0,1,1.12,0Z"/><path class="cls-12" d="M274.69,304.8a.35.35,0,0,1,0,.67l-6.17,3.59a1.32,1.32,0,0,1-1.15,0l-6.21-3.59c-.33-.19-.33-.48,0-.67l6.18-3.58a1.21,1.21,0,0,1,1.14,0Z"/><path class="cls-12" d="M308.9,306a.33.33,0,0,1,0,.63l-6.19,3.6a1.26,1.26,0,0,1-1.12,0l-6.24-3.61a.35.35,0,0,1,0-.66l6.2-3.6a1.29,1.29,0,0,1,1.12,0Z"/><path class="cls-12" d="M262.57,307.11c.33.19.33.47,0,.65l-6.2,3.6a1.24,1.24,0,0,1-1.14,0L249,307.77c-.33-.19-.31-.49,0-.66l6.19-3.6a1.22,1.22,0,0,1,1.13,0Z"/><path class="cls-12" d="M296.74,308.24c.31.18.29.47,0,.65l-6.2,3.6a1.19,1.19,0,0,1-1.1,0l-6.24-3.6c-.31-.18-.33-.47,0-.65l6.19-3.6a1.29,1.29,0,0,1,1.15,0Z"/><path class="cls-12" d="M282.77,309.47c.3.18.33.47,0,.66l-6.18,3.59a1.24,1.24,0,0,1-1.14,0l-6.24-3.6a.35.35,0,0,1,0-.66l6.18-3.59a1.24,1.24,0,0,1,1.14,0Z"/><path class="cls-12" d="M317,310.64c.32.19.33.47,0,.65l-6.2,3.6a1.24,1.24,0,0,1-1.14,0l-6.21-3.59c-.33-.19-.31-.49,0-.66l6.2-3.6a1.2,1.2,0,0,1,1.12,0Z"/><path class="cls-12" d="M270.65,311.77c.31.18.33.47,0,.65l-6.19,3.6a1.27,1.27,0,0,1-1.14,0l-6.24-3.6c-.31-.18-.29-.47,0-.65l6.19-3.6a1.19,1.19,0,0,1,1.1,0Z"/><path class="cls-12" d="M304.8,312.89c.33.19.31.49,0,.66l-6.19,3.61a1.23,1.23,0,0,1-1.12,0l-6.22-3.59c-.33-.18-.33-.47,0-.65l6.19-3.6a1.27,1.27,0,0,1,1.14,0Z"/><path class="cls-12" d="M290.84,314.13c.31.18.31.46,0,.65l-6.18,3.59a1.2,1.2,0,0,1-1.12,0l-6.24-3.6c-.3-.18-.33-.47,0-.66l6.18-3.59a1.24,1.24,0,0,1,1.14,0Z"/><path class="cls-12" d="M325,315.3c.3.18.32.47,0,.65l-6.2,3.6a1.27,1.27,0,0,1-1.14,0l-6.24-3.6c-.3-.18-.28-.47,0-.65l6.2-3.6a1.19,1.19,0,0,1,1.1,0Z"/><path class="cls-12" d="M278.73,316.44c.31.17.33.47,0,.64l-6.19,3.61a1.36,1.36,0,0,1-1.15,0l-6.23-3.61a.35.35,0,0,1,0-.66l6.2-3.6a1.26,1.26,0,0,1,1.12,0Z"/><path class="cls-12" d="M342.79,318.87c.33.19.33.47,0,.66l-3.92,2.28a1.21,1.21,0,0,1-1.14,0L222.65,255.37a.35.35,0,0,1,0-.66l3.92-2.28a1.24,1.24,0,0,1,1.14,0Z"/><path class="cls-12" d="M312.88,317.56a.35.35,0,0,1,0,.66l-6.19,3.6a1.28,1.28,0,0,1-1.13,0l-6.23-3.6c-.31-.18-.31-.46,0-.64l6.2-3.6a1.23,1.23,0,0,1,1.12,0Z"/><path class="cls-12" d="M298.9,318.78c.33.19.33.48,0,.67L292.73,323a1.27,1.27,0,0,1-1.14,0l-6.22-3.59c-.33-.19-.33-.48,0-.67l6.17-3.58a1.21,1.21,0,0,1,1.14,0Z"/><path class="cls-12" d="M286.79,321.09c.32.19.33.47,0,.65l-6.2,3.6a1.27,1.27,0,0,1-1.14,0l-6.22-3.59a.35.35,0,0,1,0-.66l6.2-3.6a1.23,1.23,0,0,1,1.12,0Z"/><path class="cls-12" d="M337,322.22c.33.19.33.47,0,.65l-6.19,3.6a1.24,1.24,0,0,1-1.14,0l-10.15-5.86a.35.35,0,0,1,0-.66l6.19-3.6a1.32,1.32,0,0,1,1.13,0Z"/><path class="cls-12" d="M321,322.22c.3.18.28.47,0,.65l-6.2,3.6a1.19,1.19,0,0,1-1.1,0l-6.24-3.6c-.3-.18-.32-.47,0-.65l6.2-3.6a1.27,1.27,0,0,1,1.14,0Z"/><path class="cls-12" d="M307,323.45c.31.18.33.47,0,.66l-6.17,3.59a1.24,1.24,0,0,1-1.14,0l-6.24-3.6c-.31-.18-.31-.46,0-.65l6.18-3.59a1.2,1.2,0,0,1,1.12,0Z"/><path class="cls-12" d="M294.86,325.75c.33.19.33.47,0,.65l-6.2,3.6a1.24,1.24,0,0,1-1.14,0l-6.22-3.59c-.32-.19-.31-.48,0-.66l6.2-3.6a1.2,1.2,0,0,1,1.12,0Z"/><path class="cls-12" d="M313,336.2c.33.19.33.47,0,.65l-6.2,3.6a1.24,1.24,0,0,1-1.14,0l-16.26-9.39a.35.35,0,0,1,0-.66l6.19-3.6a1.26,1.26,0,0,1,1.12,0Z"/><path class="cls-12" d="M266.61,300.14c.33.19.33.47,0,.66l-6.17,3.59a1.21,1.21,0,0,1-1.14,0l-6.22-3.59c-.33-.19-.33-.47,0-.66l6.17-3.59a1.21,1.21,0,0,1,1.14,0Z"/><path class="cls-2" d="M269.64,331.19a.67.67,0,0,1,0,1.26l-37.44,21.76a2.4,2.4,0,0,1-2.17,0l-63-36.34a.67.67,0,0,1,0-1.27l37.44-21.76a2.42,2.42,0,0,1,2.19,0Z"/><path class="cls-12" d="M218.18,272.18c.33.19.33.47,0,.66L212,276.43a1.21,1.21,0,0,1-1.14,0l-12.27-7.08c-.31-.18-.33-.47,0-.66l6.18-3.59a1.24,1.24,0,0,1,1.14,0Z"/><path class="cls-12" d="M206.09,274.5c.3.17.31.46,0,.63l-6.2,3.6a1.26,1.26,0,0,1-1.12,0l-8.2-4.74a.35.35,0,0,1,0-.66l6.2-3.6a1.23,1.23,0,0,1,1.12,0Z"/><path class="cls-12" d="M214.15,279.15c.32.19.32.47,0,.65l-6.2,3.6a1.24,1.24,0,0,1-1.14,0l-6.22-3.59a.35.35,0,0,1,0-.66l6.2-3.6a1.2,1.2,0,0,1,1.12,0Z"/><path class="cls-12" d="M288.82,331.54a.35.35,0,0,1,0,.66l-6.2,3.6a1.27,1.27,0,0,1-1.14,0l-6.24-3.6c-.31-.18-.29-.47,0-.65l6.19-3.6a1.25,1.25,0,0,1,1.13,0Z"/><path class="cls-12" d="M196.12,278a.36.36,0,0,1,0,.67l-6.19,3.6a1.34,1.34,0,0,1-1.14,0l-6.24-3.6a.36.36,0,0,1,0-.67l6.2-3.6a1.34,1.34,0,0,1,1.14,0Z"/><path class="cls-13" d="M330.59,213.13l-49.51-28.6-14.94-8.63c-1.28-.74-2.32-.15-2.32,1.32l0,45.23a5.06,5.06,0,0,0,2.3,4l15,8.65,49.43,28.59c1.27.74,2.31.15,2.32-1.32l0-45.23A5.1,5.1,0,0,0,330.59,213.13Z"/><path class="cls-14" d="M332.88,252.71l-34.44-19.9-.09,12.24,32.21,18.63c1.27.74,2.31.15,2.32-1.32l0-7Z"/><path class="cls-2" d="M263.82,215.47l0,7a5.06,5.06,0,0,0,2.3,4l32.25,18.61.09-12.24-34.64-20Z"/></g></g></svg>