<svg xmlns="http://www.w3.org/2000/svg" xmlns:xlink="http://www.w3.org/1999/xlink" width="500" height="500" viewBox="0 0 500 500"><defs><style>.cls-1{isolation:isolate;}.cls-2{fill:url(#linear-gradient);}.cls-3{fill:url(#linear-gradient-2);}.cls-4{fill:url(#linear-gradient-3);}.cls-5{fill:url(#linear-gradient-4);}.cls-6{fill:#c3ddff;}.cls-10,.cls-7,.cls-8,.cls-9{fill:none;stroke:#408bfc;stroke-linecap:round;stroke-linejoin:round;}.cls-7,.cls-8,.cls-9{stroke-width:3.71px;}.cls-7{opacity:0.11;}.cls-10,.cls-8{opacity:0.15;}.cls-20,.cls-9{opacity:0.25;}.cls-11,.cls-13{opacity:0.35;}.cls-12,.cls-13{fill:#408bfc;}.cls-14{fill:url(#linear-gradient-5);}.cls-15{fill:url(#linear-gradient-6);}.cls-16{fill:url(#linear-gradient-7);}.cls-17{fill:url(#linear-gradient-8);}.cls-18{fill:url(#linear-gradient-9);}.cls-19{fill:url(#linear-gradient-10);}.cls-21{fill:url(#linear-gradient-11);}</style><linearGradient id="linear-gradient" x1="101.71" y1="298.52" x2="222.09" y2="298.52" gradientUnits="userSpaceOnUse"><stop offset="0" stop-color="#3d3d3d"/><stop offset="1" stop-color="#282828"/></linearGradient><linearGradient id="linear-gradient-2" x1="233.65" y1="285.94" x2="398.29" y2="285.94" gradientUnits="userSpaceOnUse"><stop offset="0" stop-color="#171717"/><stop offset="1" stop-color="#282828"/></linearGradient><linearGradient id="linear-gradient-3" x1="101.72" y1="248.33" x2="398.27" y2="248.33" gradientUnits="userSpaceOnUse"><stop offset="0" stop-color="#565656"/><stop offset="1" stop-color="#3d3d3d"/></linearGradient><linearGradient id="linear-gradient-4" x1="-831.08" y1="-7792.58" x2="-836.87" y2="-7802.6" gradientTransform="translate(-6942.03 -2841.41) rotate(120)" gradientUnits="userSpaceOnUse"><stop offset="0" stop-color="#282828"/><stop offset="1" stop-color="#171717"/></linearGradient><linearGradient id="linear-gradient-5" x1="3893.06" y1="146.97" x2="3912.48" y2="139.9" gradientTransform="matrix(0.5, -0.87, -0.87, -0.5, -1641.02, 3642.64)" gradientUnits="userSpaceOnUse"><stop offset="0" stop-color="#0062ff"/><stop offset="0.03" stop-color="#015df8"/><stop offset="0.12" stop-color="#0353e7"/><stop offset="0.22" stop-color="#054cdd"/><stop offset="0.35" stop-color="#054ada"/><stop offset="1" stop-color="#0062ff"/></linearGradient><linearGradient id="linear-gradient-6" x1="3881.45" y1="103.47" x2="3894.99" y2="103.47" gradientTransform="matrix(0.94, -0.34, -0.34, -0.94, -3405.42, 1649.25)" gradientUnits="userSpaceOnUse"><stop offset="0" stop-color="#a2a2a2"/><stop offset="0" stop-color="#a2a2a2"/><stop offset="0.22" stop-color="#949494"/><stop offset="0.49" stop-color="#8c8c8c"/><stop offset="1" stop-color="#8a8a8a"/></linearGradient><linearGradient id="linear-gradient-7" x1="3881.68" y1="110.85" x2="3899.25" y2="110.85" gradientTransform="matrix(0.5, -0.87, -0.87, -0.5, -1641.02, 3642.64)" gradientUnits="userSpaceOnUse"><stop offset="0" stop-color="#6f6f6f"/><stop offset="0.07" stop-color="#5b5b5b"/><stop offset="0.15" stop-color="#4a4a4a"/><stop offset="0.24" stop-color="#404040"/><stop offset="0.35" stop-color="#3d3d3d"/><stop offset="1" stop-color="#6f6f6f"/></linearGradient><linearGradient id="linear-gradient-8" x1="4049.67" y1="112.99" x2="4078.24" y2="51.73" gradientTransform="matrix(0.5, -0.87, -0.87, -0.5, -1727.99, 3793.29)" gradientUnits="userSpaceOnUse"><stop offset="0" stop-color="#3d3d3d"/><stop offset="1" stop-color="#565656"/></linearGradient><linearGradient id="linear-gradient-9" x1="4031.54" y1="110.08" x2="4064.39" y2="39.62" gradientTransform="matrix(0.5, -0.87, -0.87, -0.5, -1727.99, 3793.29)" gradientUnits="userSpaceOnUse"><stop offset="0" stop-color="#8c8c8c"/><stop offset="0.43" stop-color="#6f6f6f"/><stop offset="0.79" stop-color="#3d3d3d"/><stop offset="0.92" stop-color="#3f3f3f"/><stop offset="0.96" stop-color="#464646"/><stop offset="0.99" stop-color="#515151"/><stop offset="1" stop-color="#565656"/></linearGradient><linearGradient id="linear-gradient-10" x1="6002.45" y1="82.79" x2="6056.79" y2="82.79" gradientTransform="translate(3318.46 -4947.42) rotate(120)" gradientUnits="userSpaceOnUse"><stop offset="0" stop-color="#565656"/><stop offset="1" stop-color="#6f6f6f"/></linearGradient><linearGradient id="linear-gradient-11" x1="6006.05" y1="82.79" x2="6053.19" y2="82.79" gradientTransform="translate(3318.46 -4947.42) rotate(120)" gradientUnits="userSpaceOnUse"><stop offset="0" stop-color="#97c1ff"/><stop offset="1" stop-color="#408bfc"/></linearGradient></defs><g id="Dark_Theme_Objects" data-name="Dark Theme Objects"><g id="Laptop_Light" data-name="Laptop Light"><g class="cls-1"><path class="cls-2" d="M222.08,332.8l-118-68.58a4.15,4.15,0,0,1-2.36-3.31c.1,1.45-.33,3.92.6,5.09h0a5.44,5.44,0,0,0,1.74,1.53l118,68.59Z"/><path class="cls-3" d="M395.87,242.46a4.78,4.78,0,0,0,2.26-2.45h0c.28-.61.1-3.56.14-4.24a2.56,2.56,0,0,1-.14.9h0a4.76,4.76,0,0,1-2.26,2.45L233.65,332.78v3.33Z"/><path class="cls-4" d="M233.65,332.78a12.72,12.72,0,0,1-11.57,0l-118-68.58c-3.16-1.83-3.14-4.84.06-6.7l162.21-93.65a12.75,12.75,0,0,1,11.54,0l118,68.58c3.18,1.85,3.17,4.83,0,6.68Z"/><path class="cls-5" d="M231,333.81a13.69,13.69,0,0,1-7.61-.4h0a10.07,10.07,0,0,1-1.28-.61v3.33a9.82,9.82,0,0,0,1.27.6h0a12.91,12.91,0,0,0,10.28-.63v-3.33A9.61,9.61,0,0,1,231,333.81Z"/></g><path d="M233.8,332.19a12.75,12.75,0,0,1-11.57,0L105.11,264.14c-3.16-1.84-3.14-4.85.06-6.7l161-93a12.75,12.75,0,0,1,11.54,0l117.12,68.06c3.19,1.85,3.15,4.85,0,6.69Z"/><path class="cls-6" d="M232,329.9a8.86,8.86,0,0,1-8,0L108,262.47c-1.58-.92-1.57-2.42,0-3.36L268,166.77a8.89,8.89,0,0,1,8,0l116,67.41c1.61.93,1.58,2.45,0,3.37Z"/></g><path class="cls-7" d="M288.94,242.37c18.91,18.9,10.06,40.71-19.77,48.7"/><path class="cls-7" d="M180.93,271.31C162,252.4,170.87,230.59,200.7,222.6"/><path class="cls-8" d="M258,279.84c-20,5.38-46.6-.57-59.31-13.28s-6.76-27.36,13.29-32.73"/><path class="cls-9" d="M249.35,271.25c-12.56,3.37-29.19-.36-37.16-8.32s-4.23-17.15,8.33-20.51,29.19.36,37.16,8.32"/><polygon class="cls-10" points="222.99 244.97 234.34 250.27 244.84 247.64 243.65 255.77 253.12 262.79 241.04 262.52 236.39 269.48 230.11 261.19 217.77 258.47 225.97 253.61 222.99 244.97"/><g class="cls-11"><path class="cls-12" d="M239.68,207.08l35.46,20.4c11.28-8.62,9.38-15.39,1.73-20.64C264.82,198.57,251,200.53,239.68,207.08Z"/></g><g class="cls-11"><path class="cls-12" d="M314.15,250.42a1.1,1.1,0,0,1-.55-.14L278.78,230a1.09,1.09,0,1,1,1.09-1.88l34.82,20.3a1.09,1.09,0,0,1,.4,1.49A1.08,1.08,0,0,1,314.15,250.42Z"/><path class="cls-12" d="M318.13,248.14a1.08,1.08,0,0,1-.54-.15l-34.82-20.3a1.09,1.09,0,1,1,1.09-1.89l34.82,20.31a1.08,1.08,0,0,1,.4,1.48A1.1,1.1,0,0,1,318.13,248.14Z"/><path class="cls-12" d="M322.12,245.85a1.06,1.06,0,0,1-.54-.14L286.75,225.4a1.09,1.09,0,0,1,1.09-1.88l34.83,20.3a1.08,1.08,0,0,1,.39,1.49A1.07,1.07,0,0,1,322.12,245.85Z"/><path class="cls-12" d="M326.11,243.57a1.11,1.11,0,0,1-.55-.15l-34.82-20.3a1.09,1.09,0,0,1,1.09-1.89l34.82,20.31a1.09,1.09,0,0,1,.4,1.49A1.1,1.1,0,0,1,326.11,243.57Z"/><path class="cls-12" d="M330.1,241.28a1.07,1.07,0,0,1-.55-.14l-34.82-20.31a1.08,1.08,0,0,1-.4-1.48,1.09,1.09,0,0,1,1.49-.4l34.82,20.3a1.09,1.09,0,0,1,.4,1.49A1.08,1.08,0,0,1,330.1,241.28Z"/></g><path class="cls-13" d="M290.15,192.32c-4.44-2.15-10.73-1.15-14,2.23s-2.4,7.87,2,10,10.73,1.14,14.05-2.24S294.59,194.46,290.15,192.32Z"/><g class="cls-1"><ellipse class="cls-12" cx="204.96" cy="213.43" rx="10.32" ry="7.62" transform="translate(-89.25 181.8) rotate(-40.02)"/><path class="cls-14" d="M177.73,166.13a6.12,6.12,0,0,1,2.43,1.71l32.71,39c-7.05-7.36-21.81,5.12-15.82,13.26l-32.71-38.95A6.5,6.5,0,0,1,163,176C163.93,169.64,171.34,164,177.73,166.13Z"/></g><g class="cls-1"><ellipse class="cls-15" cx="213.48" cy="223.61" rx="6.96" ry="5.13" transform="translate(-93.8 189.66) rotate(-40.02)"/><path class="cls-16" d="M209.12,208.41l.22.09.09,0,0,0,.11.06.17.09.11.07.1.06,0,0a3.44,3.44,0,0,1,.36.28l0,0s0,0,0,0a3.19,3.19,0,0,1,.26.26l0,0,0,.05,8.05,9.58-.09-.1-.26-.26-.06-.06-.36-.28-.13-.09-.12-.07-.16-.09-.12-.06-.12,0-.22-.09-.13-.05-.22-.07-.15,0-.19-.05-.17,0-.2,0-.17,0-.21,0h-1l-.24,0-.17,0-.28.05-.15,0-.43.1-.59.19-.14.06c-.12,0-.24.1-.36.15l-.39.18-.27.14a3.07,3.07,0,0,0-.31.17l-.28.18-.26.17-.29.21-.24.18-.27.23-.23.21-.25.23-.25.26-.2.23-.29.34-.18.23-.09.13-.25.38-.08.12c-.1.16-.19.33-.28.5l0,.09c-.07.14-.14.28-.2.42l-.06.16c-.06.14-.11.28-.16.43l0,.09c-.05.18-.1.35-.14.53a.59.59,0,0,0,0,.13c0,.14-.05.27-.07.41s0,.1,0,.15,0,.36,0,.53a4.19,4.19,0,0,0,.94,2.74l-8.05-9.57a4.15,4.15,0,0,1-.94-2.74,4.58,4.58,0,0,1,0-.53.77.77,0,0,1,0-.15c0-.14,0-.28.06-.41l0-.14a5,5,0,0,1,.14-.52l0-.1c.05-.14.1-.29.16-.43l.06-.15c.06-.14.12-.28.19-.42a.93.93,0,0,1,.05-.1l.24-.44,0,0a.83.83,0,0,1,.08-.12c.08-.13.16-.26.25-.38l.09-.13.06-.08.12-.15c.09-.12.19-.23.29-.35l.07-.09.13-.13.25-.26.1-.11.14-.12.24-.22.11-.1.16-.12.24-.19.1-.08.19-.12.26-.18.09-.07.19-.1.3-.18.11-.06.16-.07.39-.19.14-.06.23-.09.14-.05a4.72,4.72,0,0,1,.53-.18h.06l.43-.11.14,0,.29,0,.16,0,.25,0h.8l.18,0h.21l.17,0,.2,0,.16,0,.2.05.08,0,.07,0,.21.07Z"/></g><path class="cls-17" d="M250.06,216.83c6.42,2.16,13.67,7.72,14.75,13.32.66,1.62.27,16.36.39,18.36-.73-14.75-23.17-20-35.91-19.07-11.32.49-29.78,5.65-30.51,19.26l0-15.61a11.63,11.63,0,0,1,.65-3.83c3.12-8.2,12.17-12.12,20.15-14.1A54.6,54.6,0,0,1,250.06,216.83Z"/><path class="cls-18" d="M206.51,249.62c14.37,7,31.86,7.27,46.77,1.75,7.9-3.09,16.82-9.13,17-18.49l.05,15.61a13.74,13.74,0,0,1-1.12,5.37c-5.69,12-21.85,16.16-34.07,16.84-14.67,1.06-40.57-5-41.41-22l0-15.61C193.39,239.08,198.87,245.94,206.51,249.62Z"/><path class="cls-19" d="M204.78,248.68C189.87,240,190,226,205,217.3s39.26-8.66,54.16,0,14.83,22.7-.17,31.37S219.68,257.34,204.78,248.68Zm3.75-29.3c-13,7.51-13.06,19.72-.15,27.22s34,7.5,47,0,13.06-19.71.15-27.21-34-7.51-47,0"/><g class="cls-20"><path class="cls-21" d="M255.36,246.6c13-7.5,13.06-19.71.15-27.22s-34-7.5-47,0-13.06,19.72-.15,27.22S242.37,254.1,255.36,246.6Z"/></g></g></svg>