<svg xmlns="http://www.w3.org/2000/svg" xmlns:xlink="http://www.w3.org/1999/xlink" width="500" height="500" viewBox="0 0 500 500"><defs><style>.cls-1{fill:url(#linear-gradient);}.cls-2{fill:url(#linear-gradient-2);}.cls-3{fill:url(#linear-gradient-3);}.cls-4{fill:#a4a4a4;}.cls-5{fill:url(#linear-gradient-4);}.cls-6{fill:url(#linear-gradient-5);}.cls-7{fill:url(#linear-gradient-6);}.cls-8{fill:url(#linear-gradient-7);}.cls-9{fill:url(#linear-gradient-8);}.cls-10{fill:url(#linear-gradient-9);}.cls-11{fill:#f8f9fc;}.cls-12{fill:url(#linear-gradient-10);}.cls-13{fill:url(#linear-gradient-11);}.cls-14{fill:#c9deff;}.cls-15{fill:#408bfc;}</style><linearGradient id="linear-gradient" x1="384.2" y1="297.67" x2="390.03" y2="297.67" gradientUnits="userSpaceOnUse"><stop offset="0" stop-color="#3d3d3d"/><stop offset="1" stop-color="#565656"/></linearGradient><linearGradient id="linear-gradient-2" x1="285.52" y1="170.11" x2="288.68" y2="164.65" gradientUnits="userSpaceOnUse"><stop offset="0" stop-color="#8c8c8c"/><stop offset="1" stop-color="#6f6f6f"/></linearGradient><linearGradient id="linear-gradient-3" x1="194.27" y1="241.89" x2="419.84" y2="241.89" gradientUnits="userSpaceOnUse"><stop offset="0"/><stop offset="1" stop-color="#282828"/></linearGradient><linearGradient id="linear-gradient-4" x1="370.57" y1="307.74" x2="376.4" y2="307.74" xlink:href="#linear-gradient"/><linearGradient id="linear-gradient-5" x1="271.89" y1="180.18" x2="275.04" y2="174.71" xlink:href="#linear-gradient-2"/><linearGradient id="linear-gradient-6" x1="180.64" y1="251.95" x2="406.21" y2="251.95" xlink:href="#linear-gradient-3"/><linearGradient id="linear-gradient-7" x1="356.94" y1="317.8" x2="362.77" y2="317.8" xlink:href="#linear-gradient"/><linearGradient id="linear-gradient-8" x1="258.26" y1="190.24" x2="261.41" y2="184.78" xlink:href="#linear-gradient-2"/><linearGradient id="linear-gradient-9" x1="167.01" y1="262.01" x2="392.58" y2="262.01" xlink:href="#linear-gradient-3"/><linearGradient id="linear-gradient-10" x1="187.79" y1="320.91" x2="137.24" y2="233.35" gradientUnits="userSpaceOnUse"><stop offset="0" stop-color="#054ada"/><stop offset="0.01" stop-color="#0546d2"/><stop offset="0.03" stop-color="#053cc1"/><stop offset="0.06" stop-color="#0535b6"/><stop offset="0.1" stop-color="#0531af"/><stop offset="0.21" stop-color="#0530ad"/><stop offset="0.57" stop-color="#0062ff"/><stop offset="1" stop-color="#408bfc"/></linearGradient><linearGradient id="linear-gradient-11" x1="109.97" y1="286.87" x2="181.44" y2="286.87" gradientTransform="translate(162.95 -34.42) rotate(30)" gradientUnits="userSpaceOnUse"><stop offset="0" stop-color="#0062ff"/><stop offset="1" stop-color="#054ada"/></linearGradient></defs><g id="Dark_Theme_Objects" data-name="Dark Theme Objects"><polygon class="cls-1" points="390.02 368.28 384.2 372.17 384.2 372.17 384.21 227.06 390.03 223.18 390.02 368.28"/><polygon class="cls-2" points="384.21 227.06 390 223.15 189.99 107.71 184.2 111.61 384.21 227.06"/><polygon class="cls-3" points="384.19 372.16 184.18 256.72 184.2 111.61 384.21 227.06 384.19 372.16"/><polygon points="384.21 242.85 184.19 127.4 184.2 111.61 384.21 227.06 384.21 242.85"/><ellipse class="cls-4" cx="192.55" cy="124.52" rx="2.21" ry="3.83" transform="matrix(0.87, -0.5, 0.5, 0.87, -36.46, 112.96)"/><ellipse class="cls-4" cx="202.34" cy="130.17" rx="2.21" ry="3.83" transform="translate(-37.97 118.61) rotate(-30)"/><ellipse class="cls-4" cx="212.13" cy="135.82" rx="2.21" ry="3.83" transform="translate(-39.49 124.26) rotate(-30)"/><polygon class="cls-5" points="376.39 378.34 370.57 382.23 370.57 382.23 370.58 237.12 376.4 233.24 376.39 378.34"/><polygon class="cls-6" points="370.58 237.12 376.37 233.22 176.36 117.77 170.57 121.67 370.58 237.12"/><polygon class="cls-7" points="370.56 382.23 170.55 266.78 170.57 121.68 370.58 237.12 370.56 382.23"/><polygon points="370.58 252.91 170.56 137.46 170.57 121.68 370.58 237.12 370.58 252.91"/><ellipse class="cls-4" cx="178.92" cy="134.58" rx="2.21" ry="3.83" transform="matrix(0.87, -0.5, 0.5, 0.87, -43.32, 107.49)"/><ellipse class="cls-4" cx="188.71" cy="140.23" rx="2.21" ry="3.83" transform="translate(-44.83 113.14) rotate(-30)"/><ellipse class="cls-4" cx="198.5" cy="145.88" rx="2.21" ry="3.83" transform="translate(-46.35 118.8) rotate(-30)"/><polygon class="cls-8" points="362.76 388.41 356.94 392.29 356.94 392.29 356.95 247.19 362.77 243.3 362.76 388.41"/><polygon class="cls-9" points="356.95 247.19 362.74 243.28 162.73 127.83 156.94 131.74 356.95 247.19"/><polygon class="cls-10" points="356.93 392.29 156.92 276.84 156.94 131.74 356.95 247.19 356.93 392.29"/><polygon points="356.95 262.97 156.93 147.53 156.94 131.74 356.95 247.19 356.95 262.97"/><ellipse class="cls-4" cx="165.29" cy="144.64" rx="2.21" ry="3.83" transform="translate(-50.18 102.02) rotate(-30)"/><ellipse class="cls-4" cx="175.08" cy="150.29" rx="2.21" ry="3.83" transform="translate(-51.69 107.68) rotate(-30)"/><ellipse class="cls-4" cx="184.87" cy="155.94" rx="2.21" ry="3.83" transform="translate(-53.2 113.33) rotate(-30)"/><polygon class="cls-11" points="326.7 311.27 187.17 230.74 187.17 203.89 326.7 284.42 326.7 311.27"/><path class="cls-12" d="M133,261.8,171,330.59l9.12-5.33c6.27-3.81,10.13-11.74,10.13-22.93,0-22.79-16-50.5-35.73-61.89-9.88-5.7-18.82-6.23-25.28-2.49l-9.34,5.45Z"/><ellipse class="cls-13" cx="145.7" cy="286.87" rx="29.18" ry="50.53" transform="translate(-123.91 111.28) rotate(-30)"/><path class="cls-14" d="M138.67,301.4l-8.1-14.16c-.91-1.57-.59-3.6.71-4.26a3,3,0,0,1,3.95,1.49l4.8,8.45,20-11.57c.91-.52,2.39.33,3.3,1.91s.91,3.28,0,3.81Z"/><ellipse class="cls-15" cx="193.96" cy="215.16" rx="1.3" ry="2.25" transform="translate(-81.59 125.81) rotate(-30)"/><ellipse class="cls-15" cx="193.96" cy="224.37" rx="1.3" ry="2.25" transform="translate(-86.2 127.04) rotate(-30)"/><polygon class="cls-15" points="201.05 232.25 198.95 230.02 204.56 217.8 206.66 220.03 201.05 232.25"/><polygon class="cls-15" points="209.55 237.15 207.45 234.92 213.06 222.71 215.16 224.93 209.55 237.15"/></g></svg>