<svg xmlns="http://www.w3.org/2000/svg" xmlns:xlink="http://www.w3.org/1999/xlink" width="500" height="500" viewBox="0 0 500 500"><defs><style>.cls-1{fill:url(#linear-gradient);}.cls-2{fill:url(#linear-gradient-2);}.cls-3{fill:url(#linear-gradient-3);}.cls-4{fill:#a4a4a4;}.cls-5{fill:url(#linear-gradient-4);}.cls-6{fill:url(#linear-gradient-5);}.cls-7{fill:url(#linear-gradient-6);}.cls-8{fill:url(#linear-gradient-7);}.cls-9{fill:url(#linear-gradient-8);}.cls-10{fill:url(#linear-gradient-9);}.cls-11{fill:url(#linear-gradient-10);}.cls-12{fill:url(#linear-gradient-11);}.cls-13{fill:url(#linear-gradient-12);}.cls-14{fill:url(#linear-gradient-13);}</style><linearGradient id="linear-gradient" x1="347.09" y1="307.74" x2="352.93" y2="307.74" gradientUnits="userSpaceOnUse"><stop offset="0" stop-color="#3d3d3d"/><stop offset="1" stop-color="#565656"/></linearGradient><linearGradient id="linear-gradient-2" x1="248.41" y1="180.18" x2="251.57" y2="174.71" gradientUnits="userSpaceOnUse"><stop offset="0" stop-color="#8c8c8c"/><stop offset="1" stop-color="#6f6f6f"/></linearGradient><linearGradient id="linear-gradient-3" x1="157.17" y1="251.95" x2="382.74" y2="251.95" gradientUnits="userSpaceOnUse"><stop offset="0"/><stop offset="1" stop-color="#282828"/></linearGradient><linearGradient id="linear-gradient-4" x1="-745.5" y1="54.75" x2="-693.88" y2="54.75" gradientTransform="translate(946.43 386.09) rotate(15)" gradientUnits="userSpaceOnUse"><stop offset="0.1" stop-color="#d0b0ff"/><stop offset="0.9" stop-color="#408bfc"/></linearGradient><linearGradient id="linear-gradient-5" x1="-745.92" y1="59.54" x2="-692.81" y2="59.54" xlink:href="#linear-gradient-4"/><linearGradient id="linear-gradient-6" x1="-751.9" y1="30.85" x2="-700.28" y2="30.85" xlink:href="#linear-gradient-4"/><linearGradient id="linear-gradient-7" x1="-752.32" y1="35.65" x2="-699.21" y2="35.65" xlink:href="#linear-gradient-4"/><linearGradient id="linear-gradient-8" x1="-748.84" y1="40.94" x2="-697.22" y2="40.94" xlink:href="#linear-gradient-4"/><linearGradient id="linear-gradient-9" x1="-749.06" y1="45.74" x2="-695.96" y2="45.74" xlink:href="#linear-gradient-4"/><linearGradient id="linear-gradient-10" x1="-742.15" y1="68.67" x2="-690.53" y2="68.67" xlink:href="#linear-gradient-4"/><linearGradient id="linear-gradient-11" x1="-742.73" y1="74.43" x2="-689.73" y2="74.43" xlink:href="#linear-gradient-4"/><linearGradient id="linear-gradient-12" x1="-754.95" y1="20.88" x2="-703.33" y2="20.88" xlink:href="#linear-gradient-4"/><linearGradient id="linear-gradient-13" x1="-755.53" y1="26.64" x2="-702.53" y2="26.64" xlink:href="#linear-gradient-4"/></defs><g id="Dark_Theme_Objects" data-name="Dark Theme Objects"><polygon class="cls-1" points="352.91 378.34 347.09 382.23 347.09 382.23 347.1 237.12 352.93 233.24 352.91 378.34"/><polygon class="cls-2" points="347.1 237.12 352.89 233.22 152.88 117.77 147.09 121.67 347.1 237.12"/><polygon class="cls-3" points="347.09 382.23 147.07 266.78 147.09 121.68 347.1 237.12 347.09 382.23"/><polygon points="347.1 252.91 147.09 137.46 147.09 121.68 347.1 237.12 347.1 252.91"/><ellipse class="cls-4" cx="155.45" cy="134.58" rx="2.21" ry="3.83" transform="matrix(0.87, -0.5, 0.5, 0.87, -46.46, 95.75)"/><ellipse class="cls-4" cx="165.24" cy="140.23" rx="2.21" ry="3.83" transform="translate(-47.98 101.41) rotate(-30)"/><ellipse class="cls-4" cx="175.03" cy="145.88" rx="2.21" ry="3.83" transform="translate(-49.49 107.06) rotate(-30)"/><g id="CA_logomark_Grouped" data-name="CA logomark Grouped"><path class="cls-5" d="M220.73,250.63h0c1.45.84,2.65.15,2.65-1.53h0a3.64,3.64,0,0,0-1.63-2.83h0c-1.46-.84-2.66-.15-2.66,1.53h0A3.63,3.63,0,0,0,220.73,250.63Z"/><path class="cls-6" d="M244.8,259.58h0l-15-8.66h0c-.93-.53-1.77-.35-2,.51-.46,1.44.63,3.63,2,4.44h0l15,8.65h0c1.41.82,2.49-.12,2-2.09A4.75,4.75,0,0,0,244.8,259.58Z"/><path class="cls-7" d="M220.73,225.89h0c1.46.85,2.65.16,2.65-1.53h0a3.63,3.63,0,0,0-1.63-2.83h0c-1.46-.84-2.65-.15-2.65,1.54h0A3.6,3.6,0,0,0,220.73,225.89Z"/><path class="cls-8" d="M244.8,234.84h0l-15-8.65h0c-.92-.53-1.76-.35-2,.5-.46,1.44.63,3.63,2,4.44h0l15,8.66h0c1.41.81,2.5-.12,2-2.09A4.73,4.73,0,0,0,244.8,234.84Z"/><path class="cls-9" d="M214.5,234.66h0c1.45.85,2.65.16,2.65-1.53h0a3.61,3.61,0,0,0-1.64-2.82h0c-1.45-.85-2.65-.16-2.65,1.53h0A3.61,3.61,0,0,0,214.5,234.66Z"/><path class="cls-10" d="M238.57,243.61h0l-15-8.65h0c-.92-.53-1.76-.35-2,.5-.46,1.44.63,3.63,2,4.44h0l15,8.66h0c1.4.81,2.49-.12,2-2.09A4.77,4.77,0,0,0,238.57,243.61Z"/><path class="cls-11" d="M227.35,266.82h0c1.45.84,2.65.15,2.65-1.53h0a3.64,3.64,0,0,0-1.63-2.83h0c-1.46-.84-2.66-.15-2.66,1.53h0A3.63,3.63,0,0,0,227.35,266.82Z"/><path class="cls-12" d="M257.85,279.48h0l-21.42-12.37h0c-.93-.53-1.77-.35-2,.51-.46,1.44.63,3.63,2,4.44h0l21.43,12.36h0c1.4.81,2.49-.12,2-2.09A4.7,4.7,0,0,0,257.85,279.48Z"/><path class="cls-13" d="M227.35,217.35h0c1.46.84,2.65.15,2.65-1.53h0a3.62,3.62,0,0,0-1.63-2.83h0c-1.46-.84-2.65-.15-2.65,1.53h0A3.62,3.62,0,0,0,227.35,217.35Z"/><path class="cls-14" d="M257.85,230h0l-21.42-12.37h0c-.92-.53-1.76-.35-2,.51-.45,1.44.63,3.63,2,4.44h0L257.85,235h0c1.41.81,2.5-.12,2-2.09A4.71,4.71,0,0,0,257.85,230Z"/></g></g></svg>