<svg xmlns="http://www.w3.org/2000/svg" xmlns:xlink="http://www.w3.org/1999/xlink" width="500" height="500" viewBox="0 0 500 500"><defs><style>.cls-1{opacity:0.9;}.cls-2{fill:#565656;}.cls-3{fill:url(#linear-gradient);}.cls-4{fill:#3d3d3d;}.cls-5{fill:#6f6f6f;}.cls-6{fill:#d5d9e0;}.cls-7{fill:url(#linear-gradient-2);}</style><linearGradient id="linear-gradient" x1="226.47" y1="336.78" x2="221.1" y2="327.49" gradientUnits="userSpaceOnUse"><stop offset="0" stop-color="#6f6f6f"/><stop offset="1" stop-color="#3d3d3d"/></linearGradient><linearGradient id="linear-gradient-2" x1="146.4" y1="159.44" x2="141.04" y2="150.15" xlink:href="#linear-gradient"/></defs><g id="Dark_Theme_Objects" data-name="Dark Theme Objects"><g class="cls-1"><polygon points="296.89 312.99 296.89 314.31 274.06 301.13 274.06 299.81 296.89 312.99"/><polygon points="298.04 313.65 298.03 314.97 296.89 314.31 296.89 312.99 298.04 313.65"/><polygon points="298.04 313.65 298.03 314.97 283.77 323.26 283.77 321.94 298.04 313.65"/><polygon points="283.77 321.94 283.77 323.26 282.62 322.6 282.63 321.28 283.77 321.94"/><polygon points="282.63 321.28 296.89 312.99 298.04 313.65 283.77 321.94 282.63 321.28"/><polygon points="342.74 314.12 342.73 315.44 320.86 328.15 320.87 326.83 342.74 314.12"/><polygon points="320.87 326.83 320.86 328.15 298.03 314.97 298.04 313.65 320.87 326.83"/><polygon points="342.74 314.12 320.87 326.83 298.04 313.65 296.89 312.99 274.06 299.81 295.93 287.1 318.76 300.28 319.9 300.94 342.74 314.12"/><polygon points="332.96 291.8 332.95 293.12 310.12 279.94 310.13 278.62 332.96 291.8"/><polygon points="378.8 292.94 378.8 294.26 356.93 306.96 356.94 305.65 378.8 292.94"/><polygon points="356.94 305.65 356.93 306.96 334.1 293.78 334.1 292.46 356.94 305.65"/><polygon points="378.8 292.94 356.94 305.65 334.1 292.46 332.96 291.8 310.13 278.62 331.99 265.91 354.83 279.1 355.97 279.76 378.8 292.94"/><polygon points="271.24 326.72 271.24 328.03 270.1 328.7 270.1 327.38 271.24 326.72"/><polygon points="260.86 334.04 260.85 335.36 237.92 322.12 237.93 320.8 260.86 334.04"/><polygon points="262 334.7 262 336.02 260.85 335.36 260.86 334.04 262 334.7"/><polygon points="306.6 335.12 306.6 336.44 296.23 342.46 296.24 341.15 306.6 335.12"/><polygon points="296.24 341.15 296.23 342.46 271.24 328.03 271.24 326.72 296.24 341.15"/><polygon points="295.1 341.81 295.09 343.13 270.1 328.7 270.1 327.38 295.1 341.81"/><polygon points="262 334.7 262 336.02 242.26 347.49 242.26 346.18 262 334.7"/><polygon points="284.74 347.83 284.73 349.15 262 336.02 262 334.7 284.74 347.83"/><polygon points="306.6 335.12 296.24 341.15 271.24 326.72 270.1 327.38 295.1 341.81 284.74 347.83 262 334.7 260.86 334.04 237.93 320.8 259.79 308.1 282.63 321.28 283.77 321.94 306.6 335.12"/><polygon points="295.1 341.81 295.09 343.13 284.73 349.15 284.74 347.83 295.1 341.81"/><path d="M240.15,350.45v-1.31a3.6,3.6,0,0,1,2.11-3v1.31A3.6,3.6,0,0,0,240.15,350.45Z"/><path d="M238.53,350.45v-1.31c0,1.32.87,2.65,2.62,3.66v1.32C239.4,353.11,238.53,351.78,238.53,350.45Z"/><polygon points="325.6 359.42 325.6 360.74 295.09 343.13 295.1 341.81 325.6 359.42"/><polygon points="350.14 372.27 350.14 373.59 326.74 360.08 326.74 358.76 350.14 372.27"/><polygon points="350.14 372.27 349 372.93 325.6 359.42 295.1 341.81 270.1 327.38 271.24 326.72 296.24 341.15 326.74 358.76 350.14 372.27"/><polygon points="349 372.93 349 374.25 325.6 360.74 325.6 359.42 349 372.93"/><polygon points="350.14 372.27 350.14 373.59 349 374.25 349 372.93 350.14 372.27"/><polygon points="290.37 379.89 290.37 381.21 289.22 381.88 289.23 380.56 290.37 379.89"/><polygon points="289.23 380.56 289.22 381.88 241.15 354.12 241.15 352.8 289.23 380.56"/><path d="M262,334.7l-19.74,11.48c-2.83,1.64-2.81,4.32,0,6l48.07,27.75-1.14.67L241.15,352.8c-3.48-2-3.49-5.28,0-7.29L260.85,334Z"/><polygon points="362.05 392.47 362.04 393.79 315.24 366.76 315.24 365.44 362.05 392.47"/><polygon points="383.92 379.76 383.91 381.08 362.04 393.79 362.05 392.47 383.92 379.76"/><polygon points="383.92 379.76 362.05 392.47 315.24 365.44 325.6 359.42 349 372.93 350.14 372.27 326.74 358.76 337.11 352.73 383.92 379.76"/><polygon points="325.91 413.47 325.91 414.79 279.1 387.76 279.1 386.44 325.91 413.47"/><polygon points="347.78 400.76 325.91 413.47 279.1 386.44 289.23 380.56 290.37 379.89 300.97 373.74 347.78 400.76"/><polygon points="347.78 400.76 347.77 402.08 325.91 414.79 325.91 413.47 347.78 400.76"/><polygon points="333.03 291.99 334.17 292.65 319.9 300.94 318.76 300.28 333.03 291.99"/><polygon points="334.17 292.65 334.17 293.97 321.04 301.6 319.9 300.94 334.17 292.65"/></g><polygon class="cls-2" points="244.89 291.05 244.82 317.4 221.03 303.67 219.84 302.98 196.05 289.24 196.13 262.9 219.91 276.63 221.11 277.32 244.89 291.05"/><path class="cls-3" d="M221.07,327.52l1.18-.69a11.84,11.84,0,0,0,5.36,9.28l-1.18.69A11.82,11.82,0,0,1,221.07,327.52Z"/><polygon class="cls-4" points="221.13 303.74 222.32 304.41 222.25 326.83 221.07 327.52 221.13 303.74"/><path class="cls-2" d="M221.13,303.73l-.06,23.79a11.82,11.82,0,0,0,5.36,9.28l50.08,28.92v1.37l-50.08-28.91a14.5,14.5,0,0,1-6.55-11.35l.07-23.78Z"/><polygon class="cls-5" points="226.43 336.8 227.62 336.11 277.69 365.03 276.51 365.72 226.43 336.8"/><polygon class="cls-4" points="244.89 291.05 246.08 290.36 246.04 304.26 244.85 304.95 244.89 291.05"/><polygon class="cls-5" points="244.85 303.55 246.04 302.86 277.82 321.2 276.63 321.89 244.85 303.55"/><polygon class="cls-6" points="276.63 323.26 277.82 322.57 302.2 336.65 301.01 337.34 276.63 323.26"/><polygon class="cls-6" points="301.01 335.97 302.2 335.28 302.2 336.65 301.01 337.34 301.01 335.97"/><polygon class="cls-6" points="276.63 321.89 277.82 321.2 302.2 335.28 301.01 335.97 276.63 321.89"/><polygon class="cls-2" points="325.31 381.1 325.23 407.44 276.47 379.29 276.5 367.09 276.51 365.72 276.54 352.94 325.31 381.1"/><polygon class="cls-2" points="325.43 337.56 325.36 363.91 276.59 335.75 276.63 323.55 276.63 322.18 276.67 309.41 325.43 337.56"/><polygon class="cls-5" points="276.54 352.94 277.73 352.25 326.49 380.4 325.31 381.1 276.54 352.94"/><polygon class="cls-4" points="244.85 304.92 246.04 304.23 246 316.72 244.82 317.41 244.85 304.92"/><polygon class="cls-5" points="276.67 309.4 277.86 308.71 326.62 336.86 325.43 337.55 276.67 309.4"/><polygon class="cls-5" points="221.11 277.32 222.29 276.63 246.08 290.36 244.89 291.05 221.11 277.32"/><polygon class="cls-2" points="245.01 247.52 244.94 273.87 221.16 260.13 219.96 259.44 196.18 245.71 196.25 219.37 220.03 233.1 221.23 233.79 245.01 247.52"/><polygon class="cls-2" points="219.91 276.63 219.96 259.44 221.16 260.13 221.11 277.32 219.91 276.63"/><polygon class="cls-4" points="221.16 260.13 222.34 260.82 222.29 276.63 221.11 277.32 221.16 260.13"/><polygon class="cls-6" points="220.08 215.9 221.27 215.21 222.47 215.9 221.28 216.59 220.08 215.9"/><path class="cls-7" d="M141,150.17l1.19-.69a11.82,11.82,0,0,0,5.36,9.29l-1.19.69A11.82,11.82,0,0,1,141,150.17Z"/><polygon class="cls-5" points="146.36 159.46 147.55 158.77 197.63 187.68 196.44 188.37 146.36 159.46"/><polygon class="cls-6" points="219.06 202.81 220.25 202.12 222.01 203.13 220.82 203.82 219.06 202.81"/><polygon class="cls-6" points="219.06 201.44 220.25 200.75 220.25 202.12 219.06 202.81 219.06 201.44"/><polygon class="cls-6" points="276.88 236.19 278.06 235.5 302.44 249.57 301.26 250.26 276.88 236.19"/><path class="cls-6" d="M220.25,202.12h0l-1.19.69,1.76,1,1.19-.69Zm-1.19-.69h0l-21.44-12.37-1.18.69,22.62,13.06Z"/><polygon class="cls-6" points="196.44 188.37 197.63 187.68 220.25 200.75 219.06 201.44 196.44 188.37"/><path class="cls-2" d="M141.07,126.68,141,150.17a11.82,11.82,0,0,0,5.36,9.29l50.08,28.91v1.38l-50.08-28.92a14.45,14.45,0,0,1-6.56-11.35l.07-23.5Z"/><polygon class="cls-6" points="301.26 248.89 302.45 248.2 302.44 249.57 301.26 250.26 301.26 248.89"/><polygon class="cls-6" points="276.88 234.81 278.07 234.12 302.45 248.2 301.26 248.89 276.88 234.81"/><polygon class="cls-4" points="141.07 126.68 142.25 125.98 142.19 149.48 141 150.17 141.07 126.68"/><polygon class="cls-2" points="164.92 114.05 164.85 140.4 141.06 126.66 139.87 125.97 116.08 112.24 116.16 85.89 139.94 99.63 141.14 100.32 164.92 114.05"/><polygon class="cls-5" points="196.25 219.37 197.44 218.68 221.22 232.41 220.03 233.1 196.25 219.37"/><polygon class="cls-6" points="220.03 233.1 221.22 232.41 222.42 233.1 221.23 233.79 220.03 233.1"/><polygon class="cls-4" points="325.31 381.1 326.49 380.4 326.42 406.75 325.23 407.44 325.31 381.1"/><polygon class="cls-5" points="196.13 262.9 197.31 262.21 219.92 275.26 219.91 276.63 196.13 262.9"/><polygon class="cls-4" points="325.43 337.55 326.62 336.86 326.54 363.22 325.36 363.91 325.43 337.55"/><polygon class="cls-5" points="221.23 233.79 222.42 233.1 246.2 246.83 245.01 247.52 221.23 233.79"/><polygon class="cls-4" points="245.01 247.52 246.2 246.83 246.13 273.18 244.94 273.87 245.01 247.52"/><polygon class="cls-4" points="164.92 114.06 166.11 113.37 166.03 139.71 164.84 140.4 164.92 114.06"/><polygon class="cls-5" points="116.16 85.9 117.34 85.21 166.11 113.37 164.92 114.06 116.16 85.9"/><polygon class="cls-5" points="196.48 175.88 197.66 175.19 246.43 203.35 245.24 204.04 196.48 175.88"/><polygon class="cls-4" points="325.68 250.48 326.87 249.79 326.79 276.13 325.6 276.82 325.68 250.48"/><polygon class="cls-2" points="220.08 215.9 221.28 216.59 221.23 233.79 220.03 233.1 220.08 215.9"/><polygon class="cls-4" points="221.28 216.59 222.47 215.9 222.42 233.1 221.23 233.79 221.28 216.59"/><polygon class="cls-2" points="245.24 204.04 245.17 230.38 221.38 216.65 220.19 215.96 196.41 202.23 196.48 175.88 220.26 189.62 221.46 190.31 245.24 204.04"/><polygon class="cls-2" points="325.7 250.48 325.62 276.82 276.86 248.67 276.89 236.47 276.9 235.1 276.93 222.32 325.7 250.48"/><polygon class="cls-4" points="245.2 217.9 246.39 217.21 246.35 229.69 245.16 230.38 245.2 217.9"/><polygon class="cls-4" points="245.24 204.04 246.43 203.35 246.39 217.21 245.2 217.9 245.24 204.04"/><polygon class="cls-5" points="276.91 222.32 278.1 221.63 326.87 249.79 325.68 250.48 276.91 222.32"/><polygon class="cls-2" points="301.26 248.89 301.26 250.26 276.88 236.19 245.2 217.9 245.2 216.53 276.88 234.81 301.26 248.89"/><polygon class="cls-5" points="245.2 216.53 246.39 215.84 276.91 233.46 276.9 234.82 245.2 216.53"/><polygon class="cls-2" points="276.63 323.26 244.85 304.92 244.85 303.55 276.63 321.89 276.63 323.26"/></g></svg>