<svg xmlns="http://www.w3.org/2000/svg" xmlns:xlink="http://www.w3.org/1999/xlink" width="500" height="500" viewBox="0 0 500 500"><defs><style>.cls-1{fill:url(#linear-gradient);}.cls-2{fill:#8b8b8b;}.cls-3{fill:url(#linear-gradient-2);}.cls-4{fill:url(#linear-gradient-3);}.cls-5{fill:url(#linear-gradient-4);}.cls-6{fill:url(#linear-gradient-5);}.cls-7{fill:#171717;}.cls-8{fill:url(#linear-gradient-6);}.cls-9{fill:url(#linear-gradient-7);}.cls-10{fill:url(#linear-gradient-8);}.cls-11{fill:url(#linear-gradient-9);}.cls-12{fill:url(#linear-gradient-10);}.cls-13{fill:url(#linear-gradient-11);}.cls-14{fill:url(#linear-gradient-12);}.cls-15{fill:#3d3d3d;}.cls-16{fill:url(#linear-gradient-13);}.cls-17{fill:url(#linear-gradient-14);}.cls-18{fill:url(#linear-gradient-15);}.cls-19{fill:#054ada;}.cls-20{fill:url(#linear-gradient-16);}.cls-21{fill:url(#linear-gradient-17);}.cls-22{fill:url(#linear-gradient-18);}.cls-23{fill:url(#linear-gradient-19);}.cls-24{fill:url(#linear-gradient-20);}.cls-25{fill:url(#linear-gradient-21);}.cls-26{fill:url(#linear-gradient-22);}.cls-27{fill:url(#linear-gradient-23);}.cls-28{fill:url(#linear-gradient-24);}.cls-29{fill:url(#linear-gradient-25);}</style><linearGradient id="linear-gradient" x1="171.73" y1="406.77" x2="321.04" y2="148.15" gradientUnits="userSpaceOnUse"><stop offset="0" stop-color="#6f6f6f"/><stop offset="1" stop-color="#565656"/></linearGradient><linearGradient id="linear-gradient-2" x1="364.74" y1="202.22" x2="414.48" y2="202.22" gradientUnits="userSpaceOnUse"><stop offset="0" stop-color="#282828"/><stop offset="1" stop-color="#3d3d3d"/></linearGradient><linearGradient id="linear-gradient-3" x1="333.59" y1="155.46" x2="346.07" y2="133.84" xlink:href="#linear-gradient"/><linearGradient id="linear-gradient-4" x1="277.62" y1="176.99" x2="377.16" y2="176.99" gradientUnits="userSpaceOnUse"><stop offset="0" stop-color="#565656"/><stop offset="1" stop-color="#3d3d3d"/></linearGradient><linearGradient id="linear-gradient-5" x1="402.02" y1="180.68" x2="408.29" y2="169.81" xlink:href="#linear-gradient"/><linearGradient id="linear-gradient-6" x1="377.13" y1="187.78" x2="402.04" y2="187.78" xlink:href="#linear-gradient-2"/><linearGradient id="linear-gradient-7" x1="284.23" y1="212.89" x2="296.71" y2="191.27" xlink:href="#linear-gradient-4"/><linearGradient id="linear-gradient-8" x1="240.69" y1="223.65" x2="315.38" y2="223.65" gradientUnits="userSpaceOnUse"><stop offset="0" stop-color="#3d3d3d"/><stop offset="1" stop-color="#282828"/></linearGradient><linearGradient id="linear-gradient-9" x1="315.35" y1="238.04" x2="340.26" y2="238.04" gradientUnits="userSpaceOnUse"><stop offset="0" stop-color="#171717"/><stop offset="1" stop-color="#282828"/></linearGradient><linearGradient id="linear-gradient-10" x1="259.31" y1="227.27" x2="271.79" y2="205.66" gradientUnits="userSpaceOnUse"><stop offset="0" stop-color="#8c8c8c"/><stop offset="1" stop-color="#6f6f6f"/></linearGradient><linearGradient id="linear-gradient-11" x1="215.77" y1="238.03" x2="290.47" y2="238.03" xlink:href="#linear-gradient"/><linearGradient id="linear-gradient-12" x1="290.43" y1="252.42" x2="315.35" y2="252.42" gradientUnits="userSpaceOnUse"><stop offset="0" stop-color="#3d3d3d"/><stop offset="1" stop-color="#565656"/></linearGradient><linearGradient id="linear-gradient-13" x1="209.53" y1="248.82" x2="271.75" y2="212.89" gradientUnits="userSpaceOnUse"><stop offset="0" stop-color="#6ea6ff"/><stop offset="1" stop-color="#408bfc"/></linearGradient><linearGradient id="linear-gradient-14" x1="190.85" y1="252.43" x2="265.55" y2="252.43" gradientUnits="userSpaceOnUse"><stop offset="0" stop-color="#408bfc"/><stop offset="1" stop-color="#0062ff"/></linearGradient><linearGradient id="linear-gradient-15" x1="265.51" y1="266.82" x2="290.43" y2="266.82" gradientUnits="userSpaceOnUse"><stop offset="0" stop-color="#054ada"/><stop offset="1" stop-color="#0062ff"/></linearGradient><linearGradient id="linear-gradient-16" x1="209.48" y1="256.05" x2="221.96" y2="234.44" xlink:href="#linear-gradient-4"/><linearGradient id="linear-gradient-17" x1="165.93" y1="266.81" x2="240.63" y2="266.81" xlink:href="#linear-gradient-8"/><linearGradient id="linear-gradient-18" x1="240.59" y1="281.2" x2="265.51" y2="281.2" xlink:href="#linear-gradient-9"/><linearGradient id="linear-gradient-19" x1="184.56" y1="270.44" x2="197.04" y2="248.83" xlink:href="#linear-gradient-10"/><linearGradient id="linear-gradient-20" x1="141.02" y1="281.2" x2="215.71" y2="281.2" xlink:href="#linear-gradient"/><linearGradient id="linear-gradient-21" x1="215.68" y1="295.59" x2="240.59" y2="295.59" xlink:href="#linear-gradient-12"/><linearGradient id="linear-gradient-22" x1="234.41" y1="205.67" x2="296.63" y2="169.75" xlink:href="#linear-gradient-13"/><linearGradient id="linear-gradient-23" x1="215.73" y1="209.28" x2="290.43" y2="209.28" xlink:href="#linear-gradient-14"/><linearGradient id="linear-gradient-24" x1="290.39" y1="223.67" x2="315.31" y2="223.67" xlink:href="#linear-gradient-15"/><linearGradient id="linear-gradient-25" x1="73.03" y1="300.31" x2="426.97" y2="300.31" gradientUnits="userSpaceOnUse"><stop offset="0" stop-color="#171717"/><stop offset="0.4"/><stop offset="1" stop-color="#171717"/></linearGradient></defs><g id="Dark_Theme_Objects" data-name="Dark Theme Objects"><path class="cls-1" d="M427,209.31l-99.55-57.48-99.54,57.48h0l-99.53,57.47c-22.12,12.77-71.9,73.43-49.79,86.2h0C109.38,370.77,197.1,342,227.9,324.25l99.55-57.47h0Z"/><polygon class="cls-2" points="364.74 230.9 414.48 202.26 414.48 173.53 364.74 202.18 364.74 230.9"/><polygon class="cls-3" points="364.74 230.9 414.48 202.26 414.48 173.53 364.74 202.18 364.74 230.9"/><polygon class="cls-2" points="402.04 166.21 402.03 195 377.16 209.35 377.13 180.59 402.04 166.21"/><polygon class="cls-4" points="402.04 166.21 302.53 108.69 277.62 123.08 377.13 180.59 402.04 166.21"/><polygon class="cls-5" points="364.74 202.18 364.74 230.9 290.14 187.81 290.14 159.07 277.66 151.83 277.62 123.08 377.13 180.59 377.16 209.35 364.74 202.18"/><polygon class="cls-6" points="414.48 173.53 402.04 166.21 402.04 180.69 414.48 173.53"/><polygon class="cls-7" points="284.4 134.72 284.41 147.97 295.85 154.57 295.87 141.34 284.4 134.72"/><polygon class="cls-8" points="402.04 166.21 402.03 195 377.16 209.35 377.13 180.59 402.04 166.21"/><polygon class="cls-7" points="321.71 156.29 321.71 169.53 333.15 176.14 333.17 162.91 321.71 156.29"/><polygon class="cls-7" points="359.01 177.85 359.02 191.1 370.46 197.7 370.48 184.47 359.01 177.85"/><polygon class="cls-7" points="340.36 167.07 340.37 180.32 351.81 186.92 351.82 173.69 340.36 167.07"/><polygon class="cls-7" points="303.06 145.5 303.06 158.75 314.5 165.35 314.52 152.12 303.06 145.5"/><polygon class="cls-9" points="340.26 216.47 265.59 173.31 240.69 187.69 315.35 230.85 340.26 216.47"/><polygon class="cls-10" points="315.35 230.85 240.69 187.69 240.72 216.45 315.38 259.61 315.35 230.85"/><polygon class="cls-11" points="340.26 216.47 340.25 245.26 315.38 259.61 315.35 230.85 340.26 216.47"/><polygon class="cls-7" points="306.55 251.11 301.89 248.42 301.89 226.47 306.55 229.16 306.55 251.11"/><polygon class="cls-7" points="293.11 243.34 288.45 240.65 288.45 218.69 293.11 221.39 293.11 243.34"/><polygon class="cls-7" points="279.67 235.57 275.01 232.88 275.01 210.92 279.67 213.62 279.67 235.57"/><polygon class="cls-7" points="266.23 227.8 261.56 225.11 261.56 203.15 266.23 205.85 266.23 227.8"/><polygon class="cls-7" points="252.79 220.03 248.12 217.34 248.12 195.38 252.79 198.08 252.79 220.03"/><polygon class="cls-12" points="315.35 230.85 240.67 187.69 215.77 202.07 290.43 245.24 315.35 230.85"/><polygon class="cls-13" points="290.43 245.24 215.77 202.07 215.81 230.84 290.47 274 290.43 245.24"/><polygon class="cls-14" points="315.35 230.85 315.33 259.64 290.47 274 290.43 245.24 315.35 230.85"/><polygon class="cls-15" points="281.64 265.5 276.97 262.8 276.97 240.85 281.64 243.55 281.64 265.5"/><polygon class="cls-15" points="268.19 257.73 263.53 255.03 263.53 233.08 268.19 235.78 268.19 257.73"/><polygon class="cls-15" points="254.75 249.96 250.09 247.26 250.09 225.31 254.75 228.01 254.75 249.96"/><polygon class="cls-15" points="241.31 242.19 236.65 239.49 236.65 217.54 241.31 220.24 241.31 242.19"/><polygon class="cls-15" points="227.87 234.42 223.21 231.72 223.21 209.77 227.87 212.46 227.87 234.42"/><polygon class="cls-16" points="290.43 245.24 215.76 202.09 190.85 216.47 265.51 259.63 290.43 245.24"/><polygon class="cls-17" points="265.51 259.63 190.85 216.47 190.89 245.23 265.55 288.39 265.51 259.63"/><polygon class="cls-18" points="290.43 245.24 290.42 274.04 265.55 288.39 265.51 259.63 290.43 245.24"/><polygon class="cls-19" points="256.72 279.89 252.05 277.19 252.05 255.25 256.72 257.94 256.72 279.89"/><polygon class="cls-19" points="243.28 272.12 238.61 269.43 238.61 247.47 243.28 250.17 243.28 272.12"/><polygon class="cls-19" points="229.84 264.35 225.17 261.65 225.17 239.7 229.84 242.4 229.84 264.35"/><polygon class="cls-19" points="216.4 256.58 211.73 253.88 211.73 231.93 216.4 234.63 216.4 256.58"/><polygon class="cls-19" points="202.95 248.81 198.29 246.12 198.29 224.16 202.95 226.86 202.95 248.81"/><polygon class="cls-20" points="265.51 259.63 190.84 216.47 165.93 230.85 240.59 274.02 265.51 259.63"/><polygon class="cls-21" points="240.59 274.02 165.93 230.85 165.97 259.62 240.63 302.78 240.59 274.02"/><polygon class="cls-22" points="265.51 259.63 265.5 288.42 240.63 302.78 240.59 274.02 265.51 259.63"/><polygon class="cls-7" points="231.8 294.28 227.14 291.58 227.14 269.63 231.8 272.33 231.8 294.28"/><polygon class="cls-7" points="218.36 286.51 213.69 283.81 213.69 261.86 218.36 264.56 218.36 286.51"/><polygon class="cls-7" points="204.92 278.74 200.25 276.04 200.25 254.09 204.92 256.79 204.92 278.74"/><polygon class="cls-7" points="191.48 270.97 186.81 268.27 186.81 246.32 191.48 249.01 191.48 270.97"/><polygon class="cls-7" points="178.04 263.2 173.37 260.5 173.37 238.55 178.04 241.24 178.04 263.2"/><polygon class="cls-23" points="240.59 274.02 165.92 230.86 141.02 245.24 215.68 288.4 240.59 274.02"/><polygon class="cls-24" points="215.68 288.4 141.02 245.24 141.05 274 215.72 317.16 215.68 288.4"/><polygon class="cls-25" points="240.59 274.02 240.58 302.81 215.72 317.16 215.68 288.4 240.59 274.02"/><polygon class="cls-15" points="206.88 308.67 202.22 305.97 202.22 284.02 206.88 286.71 206.88 308.67"/><polygon class="cls-15" points="193.44 300.89 188.78 298.2 188.78 276.25 193.44 278.94 193.44 300.89"/><polygon class="cls-15" points="180 293.13 175.34 290.43 175.34 268.48 180 271.17 180 293.13"/><polygon class="cls-15" points="166.56 285.35 161.9 282.66 161.9 260.7 166.56 263.4 166.56 285.35"/><polygon class="cls-15" points="153.12 277.58 148.45 274.89 148.45 252.93 153.12 255.63 153.12 277.58"/><polygon class="cls-26" points="315.31 202.1 240.63 158.94 215.73 173.32 290.39 216.48 315.31 202.1"/><polygon class="cls-27" points="290.39 216.48 215.73 173.32 215.77 202.09 290.43 245.24 290.39 216.48"/><polygon class="cls-28" points="315.31 202.1 315.3 230.89 290.43 245.24 290.39 216.48 315.31 202.1"/><polygon class="cls-19" points="281.6 236.75 276.93 234.05 276.93 212.1 281.6 214.8 281.6 236.75"/><polygon class="cls-19" points="268.15 228.97 263.49 226.28 263.49 204.33 268.15 207.02 268.15 228.97"/><polygon class="cls-19" points="254.71 221.21 250.05 218.51 250.05 196.56 254.71 199.25 254.71 221.21"/><polygon class="cls-19" points="241.27 213.44 236.61 210.74 236.61 188.78 241.27 191.48 241.27 213.44"/><polygon class="cls-19" points="227.83 205.66 223.17 202.97 223.17 181.01 227.83 183.71 227.83 205.66"/><path class="cls-29" d="M227.9,324.25C215.25,331.56,193,340.71,169,347.72c-26.51,7.77-55.1,12.89-75.13,10A42.63,42.63,0,0,1,78.57,353c-3.76-2.17-5.4-5.75-5.49-10.22h0l2.21,31.77h0c.09,4.47,1.73,8.05,5.49,10.23h0c30.81,17.78,116.33-4.33,147.13-22.12h0L427,247.71v-38.4L227.9,324.25"/></g></svg>