<svg xmlns="http://www.w3.org/2000/svg" xmlns:xlink="http://www.w3.org/1999/xlink" width="500" height="500" viewBox="0 0 500 500"><defs><style>.cls-1,.cls-7,.cls-9{opacity:0.3;}.cls-1{fill:url(#linear-gradient);}.cls-10,.cls-2{opacity:0.5;}.cls-2{fill:url(#linear-gradient-2);}.cls-14,.cls-3{opacity:0.7;}.cls-3{fill:url(#linear-gradient-3);}.cls-4{fill:url(#radial-gradient);}.cls-12,.cls-5,.cls-8{opacity:0.8;}.cls-5{fill:url(#radial-gradient-2);}.cls-6{opacity:0.9;fill:url(#linear-gradient-4);}.cls-7{fill:url(#radial-gradient-3);}.cls-8{fill:url(#linear-gradient-5);}.cls-9{fill:url(#linear-gradient-6);}.cls-10,.cls-14,.cls-15{fill:none;stroke-miterlimit:10;stroke-width:0.6px;}.cls-10,.cls-14{stroke:#edf4ff;}.cls-11,.cls-12{fill:#6e32c9;}.cls-13{fill:#082fab;}.cls-15{stroke:#c9deff;}</style><linearGradient id="linear-gradient" x1="125.79" y1="342.2" x2="374.2" y2="342.2" gradientUnits="userSpaceOnUse"><stop offset="0" stop-color="#6ea6ff"/><stop offset="1" stop-color="#bb8eff"/></linearGradient><linearGradient id="linear-gradient-2" x1="125.79" y1="294.2" x2="374.2" y2="294.2" xlink:href="#linear-gradient"/><linearGradient id="linear-gradient-3" x1="125.79" y1="246.2" x2="374.2" y2="246.2" xlink:href="#linear-gradient"/><radialGradient id="radial-gradient" cx="250.99" cy="226.39" r="99.13" gradientUnits="userSpaceOnUse"><stop offset="0" stop-color="#d0b0ff"/><stop offset="1" stop-color="#74a9ff"/></radialGradient><radialGradient id="radial-gradient-2" cx="249.66" cy="266.99" r="119.22" gradientUnits="userSpaceOnUse"><stop offset="0" stop-color="#bb8eff"/><stop offset="0.25" stop-color="#9e99ff"/><stop offset="0.53" stop-color="#87a2ff"/><stop offset="0.78" stop-color="#79a7ff"/><stop offset="1" stop-color="#74a9ff"/></radialGradient><linearGradient id="linear-gradient-4" x1="125.79" y1="213.85" x2="250" y2="213.85" gradientUnits="userSpaceOnUse"><stop offset="0" stop-color="#bb8eff"/><stop offset="0.26" stop-color="#7c7fff"/><stop offset="0.51" stop-color="#4673ff"/><stop offset="0.72" stop-color="#206aff"/><stop offset="0.89" stop-color="#0964ff"/><stop offset="1" stop-color="#0062ff"/></linearGradient><radialGradient id="radial-gradient-3" cx="312.1" cy="142.15" r="59.16" gradientUnits="userSpaceOnUse"><stop offset="0" stop-color="#408bfc"/><stop offset="1" stop-color="#97c1ff"/></radialGradient><linearGradient id="linear-gradient-5" x1="250" y1="213.85" x2="374.21" y2="213.85" gradientUnits="userSpaceOnUse"><stop offset="0" stop-color="#054ada"/><stop offset="0.12" stop-color="#134fdd"/><stop offset="0.35" stop-color="#385de4"/><stop offset="0.66" stop-color="#7473f0"/><stop offset="1" stop-color="#bb8eff"/></linearGradient><linearGradient id="linear-gradient-6" x1="124.78" y1="177.21" x2="247.73" y2="108.91" gradientUnits="userSpaceOnUse"><stop offset="0" stop-color="#106efb"/><stop offset="1" stop-color="#005bcc"/></linearGradient></defs><g id="Dark_Theme_Objects" data-name="Dark Theme Objects"><polygon class="cls-1" points="250 413.91 125.79 342.2 250 270.49 374.2 342.2 250 413.91"/><polygon class="cls-2" points="250 365.91 125.79 294.2 250 222.49 374.2 294.2 250 365.91"/><polygon class="cls-3" points="250 317.91 125.79 246.2 250 174.49 374.2 246.2 250 317.91"/><polygon class="cls-4" points="250 269.91 125.79 198.2 250 126.49 374.2 198.2 250 269.91"/><polygon class="cls-5" points="250 229.51 125.79 157.8 250 86.09 374.2 157.8 250 229.51"/><polygon class="cls-6" points="250 269.91 125.79 198.2 125.79 157.8 250 229.51 250 269.91"/><polygon class="cls-7" points="374.2 198.2 250 126.49 250 86.09 374.2 157.8 374.2 198.2"/><polygon class="cls-8" points="374.21 198.2 250 269.91 250 229.51 374.21 157.8 374.21 198.2"/><polygon class="cls-9" points="250 126.49 125.79 198.2 125.79 157.8 250 86.09 250 126.49"/><polygon class="cls-10" points="366.84 195.25 350.8 204.52 350.8 177.93 366.65 168.78 366.84 195.25"/><polygon class="cls-11" points="132.76 176.32 137.83 179.24 137.83 170.75 132.76 167.82 132.76 176.32"/><polygon class="cls-12" points="148.89 185.64 153.96 188.56 153.96 180.07 148.89 177.14 148.89 185.64"/><polygon class="cls-12" points="140.83 180.97 145.89 183.9 145.89 175.4 140.83 172.48 140.83 180.97"/><ellipse class="cls-13" cx="250" cy="220.58" rx="3.56" ry="2.08"/><ellipse class="cls-13" cx="250" cy="95.05" rx="3.56" ry="2.08"/><ellipse class="cls-13" cx="137.12" cy="157.8" rx="3.56" ry="2.08"/><ellipse class="cls-13" cx="362.82" cy="157.8" rx="3.56" ry="2.08"/><line class="cls-14" x1="232" y1="225.37" x2="232" y2="251.96"/><line class="cls-14" x1="238" y1="228.91" x2="238" y2="255.51"/><line class="cls-14" x1="244" y1="232.42" x2="244" y2="259.01"/><line class="cls-15" x1="125.79" y1="157.8" x2="250" y2="229.51"/><polygon class="cls-10" points="273.14 249.86 257.29 259.01 257.29 232.42 273.14 223.26 273.14 249.86"/></g></svg>