<svg xmlns="http://www.w3.org/2000/svg" xmlns:xlink="http://www.w3.org/1999/xlink" width="500" height="500" viewBox="0 0 500 500"><defs><style>.cls-1{opacity:0.9;fill:url(#linear-gradient);}.cls-2{fill:url(#linear-gradient-2);}.cls-3{fill:url(#linear-gradient-3);}.cls-4{fill:#a4a4a4;}</style><linearGradient id="linear-gradient" x1="154.55" y1="288.78" x2="361.42" y2="288.78" gradientUnits="userSpaceOnUse"><stop offset="0"/><stop offset="1" stop-color="#171717" stop-opacity="0"/></linearGradient><linearGradient id="linear-gradient-2" x1="172.18" y1="220.47" x2="264.42" y2="220.47" gradientUnits="userSpaceOnUse"><stop offset="0" stop-color="#565656"/><stop offset="1" stop-color="#6f6f6f"/></linearGradient><linearGradient id="linear-gradient-3" x1="138.58" y1="285.3" x2="247.32" y2="285.3" gradientUnits="userSpaceOnUse"><stop offset="0" stop-color="#8c8c8c"/><stop offset="1" stop-color="#6f6f6f"/></linearGradient></defs><g id="Dark_Theme_Objects" data-name="Dark Theme Objects"><path class="cls-1" d="M185.05,331.17c40.48,23.37,106.13,23.36,146.33,0s40-61.4-.45-84.77-106.14-23.36-146.36,0-40,61.39.48,84.76"/><path class="cls-2" d="M264.16,157.18c-.81,2.62-3.15,4.42-5.53,5.63-4,2.21-8.82,2.2-13.29,2.76a136.35,136.35,0,0,0-17.87,3c-20.7,5.15-44.51,15.87-53,36.78a38.87,38.87,0,0,0-2,10.23c0,.26,0,.53,0,.79l-.19,69c1.29-30,37.31-44.83,62.83-49.43,4.78-.84,9.79-1.42,14.71-1.87,4.45-.38,9.08-1.66,12.31-4.83a6.74,6.74,0,0,0,2.19-4.72l.2-69A6,6,0,0,1,264.16,157.18Z"/><path class="cls-3" d="M247.15,277c-1.32,4.57-6.41,6.78-10.73,7.71-5.35,1.34-10.93.34-16.22-.87-4.6-1-9-2.1-13.46-3.38-32.56-8.9-68.51-32.86-68-64.1l-.19,69c-.73,25.43,25.14,48.53,54,59.33A173,173,0,0,0,220,352.78c6.77,1.72,14.21,2.42,20.73-.56,2.74-1.33,5.6-3.35,6.27-6.49a5.1,5.1,0,0,0,.11-1.09l.2-69A5.88,5.88,0,0,1,247.15,277Z"/><path class="cls-4" d="M259.49,148.59c10.26,6.12,3.19,15.73-9.58,16.52-19.67,1.51-37.46,6.63-51.49,14.78-34.91,20.29-34.7,53.3.44,73.58,10.4,6,22.7,10.34,36.63,12.85,6.17.87,14.44,5.95,11.08,12.21-2.77,5.12-12.15,8-21,6.36-18.89-3.41-36.28-9.51-50.38-17.65-48.29-27.88-48.52-73.23-.57-101.1,19.29-11.21,43.75-18.23,70.76-20.32A25.36,25.36,0,0,1,259.49,148.59Z"/></g></svg>