<svg xmlns="http://www.w3.org/2000/svg" xmlns:xlink="http://www.w3.org/1999/xlink" width="500" height="500" viewBox="0 0 500 500"><defs><style>.cls-1{isolation:isolate;}.cls-2{fill:#767676;}.cls-3{fill:url(#linear-gradient);}.cls-4{fill:url(#linear-gradient-2);}.cls-5{fill:url(#linear-gradient-3);}.cls-6{fill:url(#linear-gradient-4);}.cls-7{fill:url(#linear-gradient-5);}.cls-8{fill:url(#linear-gradient-6);}</style><linearGradient id="linear-gradient" x1="227.2" y1="267.38" x2="190.92" y2="204.54" gradientUnits="userSpaceOnUse"><stop offset="0" stop-color="#282828"/><stop offset="1" stop-color="#171717"/></linearGradient><linearGradient id="linear-gradient-2" x1="-5325.5" y1="203.39" x2="-5333.78" y2="189.05" gradientTransform="matrix(-1, 0, 0, 1, -5118.06, 0)" gradientUnits="userSpaceOnUse"><stop offset="0" stop-color="#565656"/><stop offset="1" stop-color="#3d3d3d"/></linearGradient><linearGradient id="linear-gradient-3" x1="191.91" y1="237.22" x2="214.64" y2="237.22" gradientUnits="userSpaceOnUse"><stop offset="0" stop-color="#3d3d3d"/><stop offset="1" stop-color="#282828"/></linearGradient><linearGradient id="linear-gradient-4" x1="-5328.56" y1="264.05" x2="-5426.15" y2="264.05" gradientTransform="matrix(-1, 0, 0, 1, -5118.06, 0)" gradientUnits="userSpaceOnUse"><stop offset="0" stop-color="#3d3d3d"/><stop offset="0.65" stop-color="#171717"/><stop offset="0.82" stop-color="#1a1a1a"/><stop offset="0.96" stop-color="#242424"/><stop offset="1" stop-color="#282828"/></linearGradient><linearGradient id="linear-gradient-5" x1="242.04" y1="234.63" x2="276.55" y2="174.87" gradientTransform="matrix(1, 0, 0, 1, 0, 0)" xlink:href="#linear-gradient-2"/><linearGradient id="linear-gradient-6" x1="-5362.49" y1="230.5" x2="-5392.22" y2="179" gradientTransform="matrix(-1, 0, 0, 1, -5118.06, 0)" gradientUnits="userSpaceOnUse"><stop offset="0" stop-color="#171717"/><stop offset="1" stop-color="#565656"/></linearGradient></defs><g id="Dark_Theme_Objects" data-name="Dark Theme Objects"><g class="cls-1"><polygon class="cls-2" points="214.45 278.85 227.79 271.1 227.81 266.99 214.46 274.74 214.45 278.85"/><path class="cls-3" d="M216,260.16a15.6,15.6,0,0,1-7.14-12.37l.12-50.27c0-2.26.81-3.85,2.09-4.6l-13.34,7.76a2.91,2.91,0,0,0-.46.32,5.32,5.32,0,0,0-1.63,4.27l-.12,50.28a12,12,0,0,0,.29,2.52,16.27,16.27,0,0,0,.9,2.74v0a.36.36,0,0,1,0,.09c.11.23.21.47.33.7a15.84,15.84,0,0,0,4.46,5.55c0,.22,12.43,7.25,12.93,7.57L227.81,267Z"/><path class="cls-4" d="M201,196.22a6.75,6.75,0,0,0-5.87.09l13.34-7.75a4.18,4.18,0,0,1,.89-.4c2.28-.81,4.72,0,6.75,1.14L228,196.13l-13.34,7.75C213.5,203.29,202,196.39,201,196.22Z"/><polygon class="cls-2" points="214.63 208 227.97 200.25 227.98 196.13 214.64 203.88 214.63 208"/><path class="cls-5" d="M202.81,197.05c-5.92-3.42-10.76-.66-10.78,6.15l-.12,50.28c0,6.8,4.79,15.12,10.71,18.54l11.83,6.83v-4.11l-11.83-6.83a15.76,15.76,0,0,1-7.13-12.36l.12-50.28c0-4.54,3.23-6.38,7.18-4.1L214.63,208v-4.12Z"/></g><path class="cls-6" d="M210.5,204.68h97.59v90.57h0c0,7.21-4.77,14.42-14.29,19.92-19.06,11-50,11-69,0-9.52-5.5-14.29-12.71-14.29-19.92h0Z"/><ellipse class="cls-7" cx="259.29" cy="204.75" rx="48.79" ry="28.17"/><ellipse class="cls-8" cx="259.29" cy="204.75" rx="42.05" ry="24.28"/></g></svg>