<svg xmlns="http://www.w3.org/2000/svg" xmlns:xlink="http://www.w3.org/1999/xlink" width="500" height="500" viewBox="0 0 500 500"><defs><style>.cls-1{fill:#3d3d3d;}.cls-2,.cls-3{fill:none;stroke-linecap:round;stroke-linejoin:round;}.cls-2{stroke:#6f6f6f;stroke-width:2.72px;}.cls-3{stroke:#565656;stroke-width:4.08px;}.cls-4{fill:url(#linear-gradient);}.cls-5{fill:#171717;}.cls-6{fill:url(#linear-gradient-2);}.cls-7{fill:url(#linear-gradient-3);}.cls-8{fill:url(#linear-gradient-4);}.cls-9{fill:url(#linear-gradient-5);}.cls-10{fill:url(#linear-gradient-6);}.cls-11{fill:url(#linear-gradient-7);}.cls-12{fill:url(#linear-gradient-8);}.cls-13{fill:url(#linear-gradient-9);}.cls-14{fill:url(#linear-gradient-10);}.cls-15{fill:url(#linear-gradient-11);}.cls-16{fill:url(#linear-gradient-12);}.cls-17{fill:url(#linear-gradient-13);}.cls-18{fill:url(#linear-gradient-14);}.cls-19{fill:url(#linear-gradient-15);}.cls-20{fill:url(#linear-gradient-16);}.cls-21{fill:url(#linear-gradient-17);}.cls-22{fill:url(#linear-gradient-18);}.cls-23{fill:url(#linear-gradient-19);}.cls-24{fill:url(#linear-gradient-20);}.cls-25{fill:url(#linear-gradient-21);}.cls-26{fill:url(#linear-gradient-22);}.cls-27{fill:url(#linear-gradient-23);}.cls-28{fill:url(#linear-gradient-24);}.cls-29{fill:url(#linear-gradient-25);}.cls-30{fill:url(#linear-gradient-26);}.cls-31{fill:url(#linear-gradient-27);}.cls-32{fill:url(#linear-gradient-28);}.cls-33{fill:url(#linear-gradient-29);}.cls-34{fill:url(#linear-gradient-30);}.cls-35{fill:url(#linear-gradient-31);}.cls-36{fill:url(#linear-gradient-32);}.cls-37{fill:url(#linear-gradient-33);}.cls-38{fill:url(#linear-gradient-34);}.cls-39{fill:url(#linear-gradient-35);}.cls-40{fill:url(#linear-gradient-36);}.cls-41{fill:url(#linear-gradient-37);}.cls-42{fill:url(#linear-gradient-38);}.cls-43{fill:url(#linear-gradient-39);}.cls-44{fill:url(#linear-gradient-40);}.cls-45{fill:url(#linear-gradient-41);}.cls-46{fill:url(#linear-gradient-42);}.cls-47{fill:url(#linear-gradient-43);}.cls-48{fill:url(#linear-gradient-44);}.cls-49{fill:url(#linear-gradient-45);}.cls-50{fill:url(#linear-gradient-46);}.cls-51{fill:url(#linear-gradient-47);}.cls-52{fill:url(#linear-gradient-48);}.cls-53{fill:url(#linear-gradient-49);}.cls-54{fill:url(#linear-gradient-50);}.cls-55{fill:url(#linear-gradient-51);}.cls-56{fill:url(#linear-gradient-52);}.cls-57{fill:url(#linear-gradient-53);}.cls-58{fill:url(#linear-gradient-54);}.cls-59{fill:url(#linear-gradient-55);}.cls-60{fill:url(#linear-gradient-56);}.cls-61{fill:url(#linear-gradient-57);}.cls-62{fill:url(#linear-gradient-58);}.cls-63{fill:url(#linear-gradient-59);}.cls-64{fill:url(#linear-gradient-60);}.cls-65{fill:url(#linear-gradient-61);}.cls-66{fill:url(#linear-gradient-62);}.cls-67{fill:url(#linear-gradient-63);}.cls-68{fill:url(#linear-gradient-64);}.cls-69{fill:url(#linear-gradient-65);}.cls-70{fill:url(#linear-gradient-66);}.cls-71{fill:url(#linear-gradient-67);}.cls-72{fill:url(#linear-gradient-68);}.cls-73{fill:url(#linear-gradient-69);}.cls-74{fill:#565656;}.cls-75{fill:url(#linear-gradient-70);}.cls-76{fill:url(#linear-gradient-71);}.cls-77{fill:#6f6f6f;}.cls-78{fill:url(#linear-gradient-72);}.cls-79{fill:url(#linear-gradient-73);}.cls-80{fill:url(#linear-gradient-74);}.cls-81{fill:url(#linear-gradient-75);}.cls-82{fill:url(#linear-gradient-76);}.cls-83{fill:url(#linear-gradient-77);}.cls-84{fill:url(#linear-gradient-78);}.cls-85{fill:url(#linear-gradient-79);}.cls-86{fill:#282828;}.cls-87{fill:url(#linear-gradient-80);}.cls-88{fill:url(#linear-gradient-81);}.cls-89{fill:url(#linear-gradient-82);}.cls-90{fill:url(#linear-gradient-83);}.cls-91{fill:url(#linear-gradient-84);}.cls-92{fill:url(#linear-gradient-85);}.cls-93{fill:url(#linear-gradient-86);}.cls-94{fill:url(#linear-gradient-87);}.cls-95{fill:url(#linear-gradient-88);}.cls-96{fill:url(#linear-gradient-89);}.cls-97{fill:#005eff;}.cls-98{fill:#0062ff;}</style><linearGradient id="linear-gradient" x1="251.91" y1="277.15" x2="278.83" y2="277.15" gradientUnits="userSpaceOnUse"><stop offset="0"/><stop offset="1" stop-color="#171717"/></linearGradient><linearGradient id="linear-gradient-2" x1="236.61" y1="268.31" x2="263.53" y2="268.31" xlink:href="#linear-gradient"/><linearGradient id="linear-gradient-3" x1="228.88" y1="267.84" x2="282.72" y2="267.84" gradientUnits="userSpaceOnUse"><stop offset="0" stop-color="#3d3d3d"/><stop offset="1" stop-color="#282828"/></linearGradient><linearGradient id="linear-gradient-4" x1="255.8" y1="276.85" x2="282.72" y2="276.85" xlink:href="#linear-gradient"/><linearGradient id="linear-gradient-5" x1="249.58" y1="249.77" x2="262.02" y2="228.21" gradientUnits="userSpaceOnUse"><stop offset="0" stop-color="#6f6f6f"/><stop offset="1" stop-color="#565656"/></linearGradient><linearGradient id="linear-gradient-6" x1="230.9" y1="260.51" x2="255.8" y2="260.51" gradientUnits="userSpaceOnUse"><stop offset="0" stop-color="#565656"/><stop offset="1" stop-color="#3d3d3d"/></linearGradient><linearGradient id="linear-gradient-7" x1="255.8" y1="260.51" x2="280.7" y2="260.51" gradientUnits="userSpaceOnUse"><stop offset="0" stop-color="#282828"/><stop offset="1" stop-color="#3d3d3d"/></linearGradient><linearGradient id="linear-gradient-8" x1="292.05" y1="300.29" x2="318.97" y2="300.29" xlink:href="#linear-gradient"/><linearGradient id="linear-gradient-9" x1="276.75" y1="291.44" x2="303.67" y2="291.44" xlink:href="#linear-gradient"/><linearGradient id="linear-gradient-10" x1="269.02" y1="290.98" x2="322.86" y2="290.98" xlink:href="#linear-gradient-3"/><linearGradient id="linear-gradient-11" x1="295.94" y1="299.98" x2="322.86" y2="299.98" xlink:href="#linear-gradient"/><linearGradient id="linear-gradient-12" x1="289.71" y1="272.9" x2="302.16" y2="251.34" xlink:href="#linear-gradient-5"/><linearGradient id="linear-gradient-13" x1="271.04" y1="283.64" x2="295.94" y2="283.64" xlink:href="#linear-gradient-6"/><linearGradient id="linear-gradient-14" x1="295.94" y1="283.64" x2="320.83" y2="283.64" xlink:href="#linear-gradient-7"/><linearGradient id="linear-gradient-15" x1="332.43" y1="323.68" x2="359.35" y2="323.68" xlink:href="#linear-gradient"/><linearGradient id="linear-gradient-16" x1="317.13" y1="314.84" x2="344.05" y2="314.84" xlink:href="#linear-gradient"/><linearGradient id="linear-gradient-17" x1="309.4" y1="314.37" x2="363.24" y2="314.37" xlink:href="#linear-gradient-3"/><linearGradient id="linear-gradient-18" x1="336.32" y1="323.37" x2="363.24" y2="323.37" xlink:href="#linear-gradient"/><linearGradient id="linear-gradient-19" x1="330.1" y1="296.29" x2="342.54" y2="274.73" xlink:href="#linear-gradient-5"/><linearGradient id="linear-gradient-20" x1="311.42" y1="307.03" x2="336.32" y2="307.03" xlink:href="#linear-gradient-6"/><linearGradient id="linear-gradient-21" x1="336.32" y1="307.03" x2="361.22" y2="307.03" xlink:href="#linear-gradient-7"/><linearGradient id="linear-gradient-22" x1="219.21" y1="247.36" x2="372.7" y2="247.36" xlink:href="#linear-gradient-3"/><linearGradient id="linear-gradient-23" x1="251.91" y1="225.79" x2="278.83" y2="225.79" xlink:href="#linear-gradient"/><linearGradient id="linear-gradient-24" x1="236.61" y1="216.95" x2="263.53" y2="216.95" xlink:href="#linear-gradient"/><linearGradient id="linear-gradient-25" x1="228.88" y1="216.48" x2="282.72" y2="216.48" xlink:href="#linear-gradient-3"/><linearGradient id="linear-gradient-26" x1="255.8" y1="225.49" x2="282.72" y2="225.49" xlink:href="#linear-gradient"/><linearGradient id="linear-gradient-27" x1="249.58" y1="198.41" x2="262.02" y2="176.85" xlink:href="#linear-gradient-5"/><linearGradient id="linear-gradient-28" x1="230.9" y1="209.15" x2="255.8" y2="209.15" xlink:href="#linear-gradient-6"/><linearGradient id="linear-gradient-29" x1="255.8" y1="209.15" x2="280.7" y2="209.15" xlink:href="#linear-gradient-7"/><linearGradient id="linear-gradient-30" x1="292.05" y1="248.93" x2="318.97" y2="248.93" xlink:href="#linear-gradient"/><linearGradient id="linear-gradient-31" x1="276.75" y1="240.09" x2="303.67" y2="240.09" xlink:href="#linear-gradient"/><linearGradient id="linear-gradient-32" x1="269.02" y1="239.62" x2="322.86" y2="239.62" xlink:href="#linear-gradient-3"/><linearGradient id="linear-gradient-33" x1="295.94" y1="248.62" x2="322.86" y2="248.62" xlink:href="#linear-gradient"/><linearGradient id="linear-gradient-34" x1="277.27" y1="221.55" x2="314.61" y2="199.99" gradientUnits="userSpaceOnUse"><stop offset="0" stop-color="#6ea6ff"/><stop offset="1" stop-color="#408bfc"/></linearGradient><linearGradient id="linear-gradient-35" x1="271.04" y1="232.29" x2="295.94" y2="232.29" gradientUnits="userSpaceOnUse"><stop offset="0" stop-color="#408bfc"/><stop offset="1" stop-color="#0062ff"/></linearGradient><linearGradient id="linear-gradient-36" x1="295.94" y1="232.29" x2="320.83" y2="232.29" gradientUnits="userSpaceOnUse"><stop offset="0" stop-color="#054ada"/><stop offset="1" stop-color="#0062ff"/></linearGradient><linearGradient id="linear-gradient-37" x1="332.43" y1="272.32" x2="359.35" y2="272.32" xlink:href="#linear-gradient"/><linearGradient id="linear-gradient-38" x1="317.13" y1="263.48" x2="344.05" y2="263.48" xlink:href="#linear-gradient"/><linearGradient id="linear-gradient-39" x1="309.4" y1="263.01" x2="363.24" y2="263.01" xlink:href="#linear-gradient-3"/><linearGradient id="linear-gradient-40" x1="336.32" y1="272.01" x2="363.24" y2="272.01" xlink:href="#linear-gradient"/><linearGradient id="linear-gradient-41" x1="330.1" y1="244.94" x2="342.54" y2="223.38" xlink:href="#linear-gradient-5"/><linearGradient id="linear-gradient-42" x1="311.42" y1="255.68" x2="336.32" y2="255.68" xlink:href="#linear-gradient-6"/><linearGradient id="linear-gradient-43" x1="336.32" y1="255.68" x2="361.22" y2="255.68" xlink:href="#linear-gradient-7"/><linearGradient id="linear-gradient-44" x1="342.05" y1="284.79" x2="372.7" y2="284.79" xlink:href="#linear-gradient"/><linearGradient id="linear-gradient-45" x1="219.21" y1="258.24" x2="342.05" y2="258.24" gradientUnits="userSpaceOnUse"><stop offset="0" stop-color="#282828"/><stop offset="1" stop-color="#171717"/></linearGradient><linearGradient id="linear-gradient-46" x1="219.21" y1="196" x2="372.7" y2="196" xlink:href="#linear-gradient-3"/><linearGradient id="linear-gradient-47" x1="251.91" y1="174.44" x2="278.83" y2="174.44" xlink:href="#linear-gradient"/><linearGradient id="linear-gradient-48" x1="236.61" y1="165.6" x2="263.53" y2="165.6" xlink:href="#linear-gradient"/><linearGradient id="linear-gradient-49" x1="228.88" y1="165.13" x2="282.72" y2="165.13" xlink:href="#linear-gradient-3"/><linearGradient id="linear-gradient-50" x1="255.8" y1="174.13" x2="282.72" y2="174.13" xlink:href="#linear-gradient"/><linearGradient id="linear-gradient-51" x1="249.58" y1="147.05" x2="262.02" y2="125.49" xlink:href="#linear-gradient-5"/><linearGradient id="linear-gradient-52" x1="230.9" y1="157.79" x2="255.8" y2="157.79" xlink:href="#linear-gradient-6"/><linearGradient id="linear-gradient-53" x1="255.8" y1="157.79" x2="280.7" y2="157.79" xlink:href="#linear-gradient-7"/><linearGradient id="linear-gradient-54" x1="292.05" y1="197.57" x2="318.97" y2="197.57" xlink:href="#linear-gradient"/><linearGradient id="linear-gradient-55" x1="276.75" y1="188.73" x2="303.67" y2="188.73" xlink:href="#linear-gradient"/><linearGradient id="linear-gradient-56" x1="269.02" y1="188.26" x2="322.86" y2="188.26" xlink:href="#linear-gradient-3"/><linearGradient id="linear-gradient-57" x1="295.94" y1="197.27" x2="322.86" y2="197.27" xlink:href="#linear-gradient"/><linearGradient id="linear-gradient-58" x1="289.71" y1="170.19" x2="302.16" y2="148.63" xlink:href="#linear-gradient-5"/><linearGradient id="linear-gradient-59" x1="271.04" y1="180.93" x2="295.94" y2="180.93" xlink:href="#linear-gradient-6"/><linearGradient id="linear-gradient-60" x1="295.94" y1="180.93" x2="320.83" y2="180.93" xlink:href="#linear-gradient-7"/><linearGradient id="linear-gradient-61" x1="332.43" y1="220.96" x2="359.35" y2="220.96" xlink:href="#linear-gradient"/><linearGradient id="linear-gradient-62" x1="317.13" y1="212.12" x2="344.05" y2="212.12" xlink:href="#linear-gradient"/><linearGradient id="linear-gradient-63" x1="309.4" y1="211.65" x2="363.24" y2="211.65" xlink:href="#linear-gradient-3"/><linearGradient id="linear-gradient-64" x1="336.32" y1="220.66" x2="363.24" y2="220.66" xlink:href="#linear-gradient"/><linearGradient id="linear-gradient-65" x1="330.1" y1="193.58" x2="342.54" y2="172.02" xlink:href="#linear-gradient-5"/><linearGradient id="linear-gradient-66" x1="311.42" y1="204.32" x2="336.32" y2="204.32" xlink:href="#linear-gradient-6"/><linearGradient id="linear-gradient-67" x1="336.32" y1="204.32" x2="361.22" y2="204.32" xlink:href="#linear-gradient-7"/><linearGradient id="linear-gradient-68" x1="342.05" y1="233.43" x2="372.7" y2="233.43" xlink:href="#linear-gradient"/><linearGradient id="linear-gradient-69" x1="219.21" y1="206.89" x2="342.05" y2="206.89" xlink:href="#linear-gradient-45"/><linearGradient id="linear-gradient-70" x1="254.71" y1="321.82" x2="267.32" y2="299.98" gradientUnits="userSpaceOnUse"><stop offset="0" stop-color="#8c8c8c"/><stop offset="1" stop-color="#6f6f6f"/></linearGradient><linearGradient id="linear-gradient-71" x1="250.6" y1="313.32" x2="275.79" y2="313.32" gradientUnits="userSpaceOnUse"><stop offset="0" stop-color="#3d3d3d"/><stop offset="1" stop-color="#565656"/></linearGradient><linearGradient id="linear-gradient-72" x1="243.69" y1="315.46" x2="256.3" y2="293.62" xlink:href="#linear-gradient-70"/><linearGradient id="linear-gradient-73" x1="239.58" y1="306.96" x2="264.77" y2="306.96" xlink:href="#linear-gradient-71"/><linearGradient id="linear-gradient-74" x1="251.07" y1="259.92" x2="253.25" y2="256.14" xlink:href="#linear-gradient-70"/><linearGradient id="linear-gradient-75" x1="248.88" y1="271.28" x2="251.06" y2="271.28" xlink:href="#linear-gradient-5"/><linearGradient id="linear-gradient-76" x1="251.06" y1="270.66" x2="255.42" y2="270.66" xlink:href="#linear-gradient-71"/><linearGradient id="linear-gradient-77" x1="236.74" y1="251.66" x2="238.93" y2="247.87" xlink:href="#linear-gradient-70"/><linearGradient id="linear-gradient-78" x1="234.56" y1="263.01" x2="236.74" y2="263.01" xlink:href="#linear-gradient-5"/><linearGradient id="linear-gradient-79" x1="236.74" y1="262.39" x2="241.1" y2="262.39" xlink:href="#linear-gradient-71"/><linearGradient id="linear-gradient-80" x1="211.28" y1="332.5" x2="232.87" y2="295.11" gradientUnits="userSpaceOnUse"><stop offset="0" stop-color="#8c8c8c"/><stop offset="0.07" stop-color="#858585"/><stop offset="0.24" stop-color="#787878"/><stop offset="0.47" stop-color="#717171"/><stop offset="1" stop-color="#6f6f6f"/></linearGradient><linearGradient id="linear-gradient-81" x1="-6422.73" y1="299.48" x2="-6367.79" y2="299.48" gradientTransform="translate(6624.73)" gradientUnits="userSpaceOnUse"><stop offset="0" stop-color="#282828"/><stop offset="0.34" stop-color="#171717"/><stop offset="0.47"/><stop offset="1" stop-color="#171717"/></linearGradient><linearGradient id="linear-gradient-82" x1="-6421.54" y1="275.12" x2="-6421.53" y2="275.12" gradientTransform="translate(6624.73)" gradientUnits="userSpaceOnUse"><stop offset="0" stop-color="#565656"/><stop offset="0.3" stop-color="#4d4d4d"/><stop offset="0.79" stop-color="#353535"/><stop offset="1" stop-color="#282828"/></linearGradient><linearGradient id="linear-gradient-83" x1="222.11" y1="287.57" x2="235.88" y2="263.71" xlink:href="#linear-gradient-3"/><linearGradient id="linear-gradient-84" x1="198.6" y1="291.06" x2="231.42" y2="310.01" xlink:href="#linear-gradient-3"/><linearGradient id="linear-gradient-85" x1="230.16" y1="292.84" x2="255.03" y2="307.2" xlink:href="#linear-gradient-3"/><linearGradient id="linear-gradient-86" x1="-6436.21" y1="332.95" x2="-6367.79" y2="332.95" gradientTransform="translate(6624.73)" gradientUnits="userSpaceOnUse"><stop offset="0" stop-color="#6f6f6f"/><stop offset="0.26" stop-color="#565656"/><stop offset="0.43" stop-color="#3d3d3d"/><stop offset="1" stop-color="#565656"/></linearGradient><linearGradient id="linear-gradient-87" x1="-6403.42" y1="356.37" x2="-6403.36" y2="356.37" gradientTransform="translate(6624.73)" gradientUnits="userSpaceOnUse"><stop offset="0" stop-color="#bdbdbd"/><stop offset="0.01" stop-color="#bcbcbc"/><stop offset="0.4" stop-color="#a1a1a1"/><stop offset="0.74" stop-color="#919191"/><stop offset="1" stop-color="#8b8b8b"/></linearGradient><linearGradient id="linear-gradient-88" x1="241.98" y1="257.5" x2="242.53" y2="256.56" xlink:href="#linear-gradient-70"/><linearGradient id="linear-gradient-89" x1="233.45" y1="258.1" x2="249.96" y2="258.1" xlink:href="#linear-gradient-5"/></defs><g id="Dark_Theme_Objects" data-name="Dark Theme Objects"><polygon class="cls-1" points="127.25 320.79 250.07 391.54 372.75 320.71 250.05 249.96 127.25 320.79"/><polyline class="cls-2" points="250.05 108.46 219.56 161.19 250.05 179.09 219.37 232.06 250.05 249.96"/><polyline class="cls-2" points="219.37 125.94 250.05 143.65 219.21 196.44 250.05 214.53 219.37 267.59"/><polygon class="cls-3" points="250.05 108.46 250.05 249.96 219.37 267.59 219.37 125.94 250.05 108.46"/><polygon class="cls-4" points="251.91 283.6 251.91 286.15 278.83 270.61 278.83 268.15 251.91 283.6"/><polygon class="cls-5" points="251.91 283.6 251.91 286.15 248.05 283.92 248.05 281.38 251.91 283.6"/><polygon class="cls-6" points="236.61 274.76 236.61 277.31 263.53 261.77 263.53 259.31 236.61 274.76"/><polygon class="cls-5" points="236.61 274.76 236.61 277.31 232.75 275.08 232.75 272.54 236.61 274.76"/><polygon class="cls-7" points="255.8 283.38 282.72 267.84 255.8 252.3 228.88 267.84 255.8 283.38"/><polygon class="cls-5" points="255.8 283.3 255.8 285.85 228.88 270.31 228.88 267.84 255.8 283.3"/><polygon class="cls-8" points="255.8 283.3 255.8 285.85 282.72 270.31 282.72 267.84 255.8 283.3"/><polygon class="cls-9" points="255.8 253.36 280.7 238.99 255.8 224.62 230.91 238.99 255.8 253.36"/><polygon class="cls-10" points="255.8 253.28 255.8 282.03 230.91 267.65 230.91 238.99 255.8 253.28"/><polygon class="cls-11" points="255.8 253.28 255.8 282.03 280.7 267.65 280.7 238.99 255.8 253.28"/><polygon class="cls-12" points="292.05 306.74 292.05 309.29 318.97 293.75 318.97 291.28 292.05 306.74"/><polygon class="cls-5" points="292.05 306.74 292.05 309.29 288.18 307.06 288.18 304.52 292.05 306.74"/><polygon class="cls-13" points="276.75 297.9 276.75 300.45 303.67 284.91 303.67 282.44 276.75 297.9"/><polygon class="cls-5" points="276.75 297.89 276.75 300.45 272.88 298.22 272.88 295.68 276.75 297.89"/><polygon class="cls-14" points="295.94 306.52 322.86 290.98 295.94 275.43 269.02 290.98 295.94 306.52"/><polygon class="cls-5" points="295.94 306.43 295.94 308.98 269.02 293.44 269.02 290.98 295.94 306.43"/><polygon class="cls-15" points="295.94 306.43 295.94 308.98 322.86 293.44 322.86 290.98 295.94 306.43"/><polygon class="cls-16" points="295.94 276.5 320.83 262.12 295.94 247.75 271.04 262.12 295.94 276.5"/><polygon class="cls-17" points="295.94 276.42 295.94 305.16 271.04 290.79 271.04 262.12 295.94 276.42"/><polygon class="cls-18" points="295.94 276.42 295.94 305.16 320.83 290.79 320.83 262.12 295.94 276.42"/><polygon class="cls-19" points="332.43 330.13 332.43 332.68 359.35 317.14 359.35 314.67 332.43 330.13"/><polygon class="cls-5" points="332.43 330.13 332.43 332.68 328.57 330.45 328.57 327.91 332.43 330.13"/><polygon class="cls-20" points="317.13 321.29 317.13 323.84 344.05 308.3 344.05 305.83 317.13 321.29"/><polygon class="cls-5" points="317.13 321.29 317.13 323.84 313.26 321.61 313.27 319.07 317.13 321.29"/><polygon class="cls-21" points="336.32 329.91 363.24 314.37 336.32 298.82 309.4 314.37 336.32 329.91"/><polygon class="cls-5" points="336.32 329.82 336.32 332.38 309.4 316.83 309.4 314.37 336.32 329.82"/><polygon class="cls-22" points="336.32 329.82 336.32 332.38 363.24 316.83 363.24 314.37 336.32 329.82"/><polygon class="cls-23" points="336.32 299.89 361.22 285.51 336.32 271.14 311.43 285.51 336.32 299.89"/><polygon class="cls-24" points="336.32 299.81 336.32 328.55 311.43 314.18 311.43 285.51 336.32 299.81"/><polygon class="cls-25" points="336.32 299.81 336.32 328.55 361.22 314.18 361.22 285.51 336.32 299.81"/><polygon class="cls-26" points="342.05 291.6 372.7 273.9 249.86 203.12 219.21 220.81 342.05 291.6"/><polygon class="cls-27" points="251.91 232.24 251.91 234.8 278.83 219.25 278.83 216.79 251.91 232.24"/><polygon class="cls-5" points="251.91 232.24 251.91 234.8 248.05 232.57 248.05 230.03 251.91 232.24"/><polygon class="cls-28" points="236.61 223.4 236.61 225.96 263.53 210.41 263.53 207.95 236.61 223.4"/><polygon class="cls-5" points="236.61 223.4 236.61 225.96 232.75 223.73 232.75 221.18 236.61 223.4"/><polygon class="cls-29" points="255.8 232.03 282.72 216.48 255.8 200.94 228.88 216.48 255.8 232.03"/><polygon class="cls-5" points="255.8 231.94 255.8 234.49 228.88 218.95 228.88 216.48 255.8 231.94"/><polygon class="cls-30" points="255.8 231.94 255.8 234.49 282.72 218.95 282.72 216.48 255.8 231.94"/><polygon class="cls-31" points="255.8 202 280.7 187.63 255.8 173.26 230.91 187.63 255.8 202"/><polygon class="cls-32" points="255.8 201.92 255.8 230.67 230.91 216.3 230.91 187.63 255.8 201.92"/><polygon class="cls-33" points="255.8 201.92 255.8 230.67 280.7 216.3 280.7 187.63 255.8 201.92"/><polygon class="cls-34" points="292.05 255.38 292.05 257.93 318.97 242.39 318.97 239.92 292.05 255.38"/><polygon class="cls-5" points="292.05 255.38 292.05 257.93 288.18 255.7 288.18 253.16 292.05 255.38"/><polygon class="cls-35" points="276.75 246.54 276.75 249.09 303.67 233.55 303.67 231.08 276.75 246.54"/><polygon class="cls-5" points="276.75 246.54 276.75 249.09 272.88 246.86 272.88 244.32 276.75 246.54"/><polygon class="cls-36" points="295.94 255.16 322.86 239.62 295.94 224.07 269.02 239.62 295.94 255.16"/><polygon class="cls-5" points="295.94 255.07 295.94 257.63 269.02 242.09 269.02 239.62 295.94 255.07"/><polygon class="cls-37" points="295.94 255.07 295.94 257.63 322.86 242.09 322.86 239.62 295.94 255.07"/><polygon class="cls-38" points="295.94 225.14 320.83 210.77 295.94 196.39 271.04 210.77 295.94 225.14"/><polygon class="cls-39" points="295.94 225.06 295.94 253.81 271.04 239.43 271.04 210.77 295.94 225.06"/><polygon class="cls-40" points="295.94 225.06 295.94 253.81 320.83 239.43 320.83 210.77 295.94 225.06"/><polygon class="cls-41" points="332.43 278.77 332.43 281.32 359.35 265.78 359.35 263.31 332.43 278.77"/><polygon class="cls-5" points="332.43 278.77 332.43 281.32 328.57 279.09 328.57 276.55 332.43 278.77"/><polygon class="cls-42" points="317.13 269.93 317.13 272.48 344.05 256.94 344.05 254.47 317.13 269.93"/><polygon class="cls-5" points="317.13 269.93 317.13 272.48 313.26 270.25 313.27 267.71 317.13 269.93"/><polygon class="cls-43" points="336.32 278.55 363.24 263.01 336.32 247.47 309.4 263.01 336.32 278.55"/><polygon class="cls-5" points="336.32 278.46 336.32 281.02 309.4 265.48 309.4 263.01 336.32 278.46"/><polygon class="cls-44" points="336.32 278.46 336.32 281.02 363.24 265.48 363.24 263.01 336.32 278.46"/><polygon class="cls-45" points="336.32 248.53 361.22 234.16 336.32 219.78 311.43 234.16 336.32 248.53"/><polygon class="cls-46" points="336.32 248.45 336.32 277.2 311.43 262.82 311.43 234.16 336.32 248.45"/><polygon class="cls-47" points="336.32 248.45 336.32 277.2 361.22 262.82 361.22 234.16 336.32 248.45"/><polygon class="cls-48" points="372.7 273.9 372.7 277.98 342.05 295.68 342.05 291.6 372.7 273.9"/><polygon class="cls-49" points="219.21 220.81 219.21 224.89 342.05 295.68 342.05 291.6 219.21 220.81"/><polygon class="cls-50" points="342.05 240.24 372.7 222.54 249.86 151.76 219.21 169.45 342.05 240.24"/><polygon class="cls-51" points="251.91 180.89 251.91 183.44 278.83 167.9 278.83 165.43 251.91 180.89"/><polygon class="cls-5" points="251.91 180.89 251.91 183.44 248.05 181.21 248.05 178.67 251.91 180.89"/><polygon class="cls-52" points="236.61 172.05 236.61 174.6 263.53 159.06 263.53 156.59 236.61 172.05"/><polygon class="cls-5" points="236.61 172.05 236.61 174.6 232.75 172.37 232.75 169.83 236.61 172.05"/><polygon class="cls-53" points="255.8 180.67 282.72 165.13 255.8 149.58 228.88 165.13 255.8 180.67"/><polygon class="cls-5" points="255.8 180.58 255.8 183.13 228.88 167.59 228.88 165.13 255.8 180.58"/><polygon class="cls-54" points="255.8 180.58 255.8 183.13 282.72 167.59 282.72 165.13 255.8 180.58"/><polygon class="cls-55" points="255.8 150.65 280.7 136.27 255.8 121.9 230.91 136.27 255.8 150.65"/><polygon class="cls-56" points="255.8 150.57 255.8 179.31 230.91 164.94 230.91 136.27 255.8 150.57"/><polygon class="cls-57" points="255.8 150.57 255.8 179.31 280.7 164.94 280.7 136.27 255.8 150.57"/><polygon class="cls-58" points="292.05 204.02 292.05 206.57 318.97 191.03 318.97 188.57 292.05 204.02"/><polygon class="cls-5" points="292.05 204.02 292.05 206.57 288.18 204.34 288.18 201.8 292.05 204.02"/><polygon class="cls-59" points="276.75 195.18 276.75 197.74 303.67 182.19 303.67 179.73 276.75 195.18"/><polygon class="cls-5" points="276.75 195.18 276.75 197.74 272.88 195.5 272.88 192.96 276.75 195.18"/><polygon class="cls-60" points="295.94 203.8 322.86 188.26 295.94 172.72 269.02 188.26 295.94 203.8"/><polygon class="cls-5" points="295.94 203.72 295.94 206.27 269.02 190.73 269.02 188.26 295.94 203.72"/><polygon class="cls-61" points="295.94 203.72 295.94 206.27 322.86 190.73 322.86 188.26 295.94 203.72"/><polygon class="cls-62" points="295.94 173.78 320.83 159.41 295.94 145.03 271.04 159.41 295.94 173.78"/><polygon class="cls-63" points="295.94 173.7 295.94 202.45 271.04 188.07 271.04 159.41 295.94 173.7"/><polygon class="cls-64" points="295.94 173.7 295.94 202.45 320.83 188.07 320.83 159.41 295.94 173.7"/><polygon class="cls-65" points="332.43 227.41 332.43 229.97 359.35 214.42 359.35 211.96 332.43 227.41"/><polygon class="cls-5" points="332.43 227.41 332.43 229.97 328.57 227.74 328.57 225.19 332.43 227.41"/><polygon class="cls-66" points="317.13 218.57 317.13 221.13 344.05 205.58 344.05 203.12 317.13 218.57"/><polygon class="cls-5" points="317.13 218.57 317.13 221.13 313.26 218.9 313.27 216.35 317.13 218.57"/><polygon class="cls-67" points="336.32 227.19 363.24 211.65 336.32 196.11 309.4 211.65 336.32 227.19"/><polygon class="cls-5" points="336.32 227.11 336.32 229.66 309.4 214.12 309.4 211.65 336.32 227.11"/><polygon class="cls-68" points="336.32 227.11 336.32 229.66 363.24 214.12 363.24 211.65 336.32 227.11"/><polygon class="cls-69" points="336.32 197.17 361.22 182.8 336.32 168.43 311.43 182.8 336.32 197.17"/><polygon class="cls-70" points="336.32 197.09 336.32 225.84 311.43 211.47 311.43 182.8 336.32 197.09"/><polygon class="cls-71" points="336.32 197.09 336.32 225.84 361.22 211.47 361.22 182.8 336.32 197.09"/><polygon class="cls-72" points="372.7 222.54 372.7 226.62 342.05 244.32 342.05 240.24 372.7 222.54"/><polygon class="cls-73" points="219.21 169.45 219.21 173.53 342.05 244.32 342.05 240.24 219.21 169.45"/><polyline class="cls-2" points="372.7 179.29 342.21 232.03 372.7 249.92 342.02 302.89 372.7 320.79"/><polyline class="cls-2" points="342.02 196.77 372.7 214.48 341.87 267.27 372.7 285.36 342.02 338.42"/><polygon class="cls-3" points="372.7 179.29 372.7 320.79 342.02 338.42 342.02 196.77 372.7 179.29"/><polygon class="cls-1" points="251.83 284.04 251.83 286.59 247.96 284.36 247.96 281.82 251.83 284.04"/><polygon class="cls-1" points="236.53 275.2 236.53 277.75 232.66 275.52 232.66 272.98 236.53 275.2"/><polygon class="cls-74" points="255.71 283.73 255.71 286.29 228.79 270.74 228.79 268.28 255.71 283.73"/><polygon class="cls-75" points="250.6 319.44 246.24 316.91 271.43 302.36 275.79 304.89 250.6 319.44"/><polygon class="cls-76" points="250.6 319.36 250.6 321.75 275.79 307.2 275.79 304.89 250.6 319.36"/><polygon class="cls-77" points="250.6 319.36 250.6 321.75 246.24 319.21 246.24 316.91 250.6 319.36"/><polygon class="cls-78" points="239.58 313.08 235.22 310.55 260.41 296 264.77 298.53 239.58 313.08"/><polygon class="cls-79" points="239.58 313 239.58 315.39 264.77 300.84 264.77 298.53 239.58 313"/><polygon class="cls-77" points="239.58 313 239.58 315.39 235.22 312.85 235.22 310.55 239.58 313"/><polygon class="cls-80" points="251.06 259.88 255.42 257.43 253.24 256.13 248.88 258.66 251.06 259.88"/><polygon class="cls-81" points="251.06 259.88 251.06 283.9 248.88 282.6 248.88 258.66 251.06 259.88"/><polygon class="cls-82" points="251.06 259.88 251.06 283.9 255.42 281.36 255.42 257.43 251.06 259.88"/><polygon class="cls-83" points="236.74 251.61 241.1 249.16 238.92 247.86 234.56 250.39 236.74 251.61"/><polygon class="cls-84" points="236.74 251.61 236.74 275.63 234.56 274.33 234.56 250.39 236.74 251.61"/><polygon class="cls-85" points="236.74 251.61 236.74 275.63 241.1 273.09 241.1 249.16 236.74 251.61"/><path class="cls-86" d="M231.49,345.35c0-2-.73-3.41-1.88-4a4,4,0,0,0-3.76.31,2.25,2.25,0,0,1,.64.25h0l2.31,1.34h0a3.3,3.3,0,0,1,1.52,3.17,7.92,7.92,0,0,1-.35,2.26l.82.35A11.14,11.14,0,0,0,231.49,345.35Z"/><path d="M218.22,350.58a10.68,10.68,0,0,1,4.83-8.37,3.37,3.37,0,0,1,3.44-.32h0l2.31,1.34-.93,1.65a.49.49,0,0,1,0,.12,10.73,10.73,0,0,1-4.71,8.29l-1,1.85-2.48-1.43h0A3.38,3.38,0,0,1,218.22,350.58Z"/><ellipse class="cls-5" cx="225.49" cy="349.19" rx="6.83" ry="3.94" transform="translate(-189.67 369.87) rotate(-60)"/><ellipse class="cls-86" cx="225.49" cy="349.19" rx="4.68" ry="2.7" transform="translate(-189.67 369.87) rotate(-60)"/><polygon class="cls-86" points="241.33 324.89 241.33 339.11 253.64 332 253.64 317.82 241.33 324.89"/><path d="M243.43,334.09a13.09,13.09,0,0,1,5.92-10.26c1.66-.95,3.15-1,4.22-.4h0l2.84,1.65-1.14,2a.61.61,0,0,1,0,.14,13.16,13.16,0,0,1-5.78,10.17l-1.27,2.27-3-1.75h0C244.1,337.32,243.43,336,243.43,334.09Z"/><ellipse class="cls-5" cx="252.34" cy="332.4" rx="8.38" ry="4.84" transform="translate(-161.69 384.73) rotate(-60)"/><ellipse class="cls-86" cx="252.34" cy="332.4" rx="5.74" ry="3.32" transform="translate(-161.69 384.73) rotate(-60)"/><path class="cls-87" d="M208.65,331l-18.34-10.59a3.58,3.58,0,0,1,0-6.19l37.83-21.83L256.94,309l-38.08,22A10.18,10.18,0,0,1,208.65,331Z"/><path class="cls-88" d="M255.74,275.18l-21.82,12.6a11.48,11.48,0,0,1-11.45,0l-18-10.4a2.54,2.54,0,0,1-1.27-2.19L202,308.93v.23h0a2.62,2.62,0,0,0,1.31,2.14l18.83,10.87a12,12,0,0,0,12,0L256.94,309Z"/><path class="cls-89" d="M203.2,275.08v.07s0,0,0-.07Z"/><path class="cls-90" d="M222.47,287.78l-18-10.4a2.55,2.55,0,0,1,0-4.41l23.73-13.7,27.55,15.91-21.82,12.6A11.48,11.48,0,0,1,222.47,287.78Z"/><path class="cls-91" d="M222.47,290.32l-17.67-10-1,28.69,18.4,10.63a12,12,0,0,0,3,1.22V291.44A10.94,10.94,0,0,1,222.47,290.32Z"/><path class="cls-92" d="M254.73,307.73l-1-28.87-19.83,11.46a11.25,11.25,0,0,1-3,1.19v29.38a12.47,12.47,0,0,0,3.2-1.26Z"/><path class="cls-93" d="M235.36,321.46l-15.85,9.15a11.54,11.54,0,0,1-11.51,0l-1.47-.85-16.22-9.37a3.5,3.5,0,0,1-1.76-2.94h0v24.87h0a3.55,3.55,0,0,0,1.77,3l17.15,9.9a12.58,12.58,0,0,0,12.23.18l.12-.06.36-.19a5.62,5.62,0,0,1-.62-2.75,13.55,13.55,0,0,1,6-10.57,4.17,4.17,0,0,1,4.09-.49c1.15.61,1.88,2,1.88,4a11.14,11.14,0,0,1-.71,3.67l12.28-7.09a3.17,3.17,0,0,0,1.57-2.73v-4.07a15.88,15.88,0,0,1,3.72-10.21,7.82,7.82,0,0,1,6.37-2.76l.75,0a1.4,1.4,0,0,0,1.47-1.4V309Z"/><path class="cls-94" d="M221.37,356.39h0l-.06,0Z"/><polygon class="cls-95" points="249.96 262.06 233.45 252.58 234.54 251.95 251.06 261.49 249.96 262.06"/><polygon class="cls-1" points="249.96 262.06 249.96 263.63 251.06 263 251.06 261.49 249.96 262.06"/><polygon class="cls-96" points="249.96 262.06 249.96 263.63 233.45 254.09 233.45 252.58 249.96 262.06"/><path class="cls-97" d="M231.49,345.35a10.49,10.49,0,0,1-.38,2.61l4.25-2.45,9.08-5.24a3.21,3.21,0,0,0,.19-1.07v-1.85l-9.27,5.35-3.89,2.24C231.48,345.08,231.49,345.21,231.49,345.35Zm-43-6.8v2.95a3.53,3.53,0,0,0,1.77,2.94l16.22,9.36,1.47.85a11.49,11.49,0,0,0,11.51,0l.36-.2a6.36,6.36,0,0,1-.32-2.06c0-.19,0-.39,0-.58l-.06,0a11.49,11.49,0,0,1-11.51,0l-1.47-.85-16.22-9.36a3.53,3.53,0,0,1-1.77-2.94Z"/><polygon class="cls-86" points="190.72 324.22 190.72 328.01 195.59 330.85 195.59 327.06 190.72 324.22"/><polygon class="cls-98" points="191.19 325.05 191.19 327.74 195.04 330 195.04 327.32 191.19 325.05"/><polygon class="cls-86" points="203.77 331.75 203.77 335.54 208.64 338.38 208.64 334.59 203.77 331.75"/><polygon class="cls-98" points="204.24 332.58 204.24 335.26 208.09 337.53 208.09 334.84 204.24 332.58"/></g></svg>