<svg xmlns="http://www.w3.org/2000/svg" xmlns:xlink="http://www.w3.org/1999/xlink" width="500" height="500" viewBox="0 0 500 500"><defs><style>.cls-1{fill:url(#linear-gradient);}.cls-2{fill:url(#linear-gradient-2);}.cls-3{fill:url(#linear-gradient-3);}.cls-4{fill:url(#linear-gradient-4);}.cls-5{fill:url(#linear-gradient-5);}.cls-6{fill:none;stroke:#a4a4a4;stroke-width:0.9px;}</style><linearGradient id="linear-gradient" x1="250" y1="280.64" x2="356.15" y2="280.64" gradientUnits="userSpaceOnUse"><stop offset="0" stop-color="#3d3d3d"/><stop offset="1" stop-color="#565656"/></linearGradient><linearGradient id="linear-gradient-2" x1="143.85" y1="280.64" x2="250" y2="280.64" gradientUnits="userSpaceOnUse"><stop offset="0" stop-color="#6f6f6f"/><stop offset="1" stop-color="#565656"/></linearGradient><linearGradient id="linear-gradient-3" x1="170.39" y1="234.68" x2="329.61" y2="142.75" gradientUnits="userSpaceOnUse"><stop offset="0" stop-color="#8c8c8c"/><stop offset="1" stop-color="#6f6f6f"/></linearGradient><linearGradient id="linear-gradient-4" x1="214.35" y1="189.23" x2="286.84" y2="189.23" gradientUnits="userSpaceOnUse"><stop offset="0" stop-color="#6f6f6f"/><stop offset="0.65" stop-color="#3d3d3d"/><stop offset="0.8" stop-color="#404040"/><stop offset="0.92" stop-color="#4a4a4a"/><stop offset="1" stop-color="#565656"/></linearGradient><linearGradient id="linear-gradient-5" x1="222.06" y1="183.5" x2="279.13" y2="150.55" xlink:href="#linear-gradient-3"/></defs><g id="Dark_Theme_Objects" data-name="Dark Theme Objects"><polygon class="cls-1" points="356.15 311.29 250 372.57 250 250 356.15 188.71 356.15 311.29"/><polygon class="cls-2" points="250 372.57 143.85 311.29 143.85 188.71 250 250 250 372.57"/><polygon class="cls-3" points="250 250 143.85 188.71 250 127.43 356.15 188.71 250 250"/><path class="cls-4" d="M214.35,166.13v26.21c0,11,16.23,20,36.25,20s36.24-9,36.24-20V166.13Z"/><ellipse class="cls-5" cx="250.6" cy="167.03" rx="36.25" ry="19.99"/><line class="cls-6" x1="143.85" y1="188.71" x2="250" y2="250"/></g></svg>