<svg xmlns="http://www.w3.org/2000/svg" xmlns:xlink="http://www.w3.org/1999/xlink" width="500" height="500" viewBox="0 0 500 500"><defs><style>.cls-1{fill:none;stroke:#3d3d3d;stroke-miterlimit:10;stroke-width:2px;stroke-dasharray:5;}.cls-2{fill:url(#linear-gradient);}.cls-3{fill:url(#linear-gradient-2);}.cls-4{fill:url(#linear-gradient-3);}.cls-5{fill:url(#linear-gradient-4);}.cls-6,.cls-8{opacity:0.8;}.cls-6{fill:url(#linear-gradient-5);}.cls-7,.cls-8{fill:#0062ff;}.cls-7{opacity:0.4;}</style><linearGradient id="linear-gradient" x1="-6195.8" y1="-2161.07" x2="-6196.78" y2="-2162.77" gradientTransform="translate(-4824.19 4619.44) rotate(120)" gradientUnits="userSpaceOnUse"><stop offset="0" stop-color="#282828"/><stop offset="0.45" stop-color="#171717"/><stop offset="0.55" stop-color="#282828"/><stop offset="1" stop-color="#3d3d3d"/></linearGradient><linearGradient id="linear-gradient-2" x1="163.34" y1="314.07" x2="336.66" y2="314.07" gradientTransform="matrix(1, 0, 0, 1, 0, 0)" xlink:href="#linear-gradient"/><linearGradient id="linear-gradient-3" x1="220.58" y1="385.22" x2="301.34" y2="245.34" gradientUnits="userSpaceOnUse"><stop offset="0" stop-color="#565656"/><stop offset="1" stop-color="#3d3d3d"/></linearGradient><linearGradient id="linear-gradient-4" x1="145.26" y1="374.15" x2="354.74" y2="374.15" gradientUnits="userSpaceOnUse"><stop offset="0" stop-color="#3d3d3d"/><stop offset="0.45" stop-color="#282828"/><stop offset="0.55" stop-color="#171717"/><stop offset="1" stop-color="#282828"/></linearGradient><linearGradient id="linear-gradient-5" x1="250" y1="384.31" x2="250" y2="45.25" gradientUnits="userSpaceOnUse"><stop offset="0" stop-color="#2f81fe"/><stop offset="1" stop-color="#bb8eff" stop-opacity="0"/></linearGradient></defs><g id="Dark_Theme_Objects" data-name="Dark Theme Objects"><path class="cls-1" d="M272.08,449.47c-12.19,7-31.95,7-44.14,0L154.4,407c-12.19-7-12.19-18.45,0-25.49L228,339.06c12.19-7,31.95-7,44.14,0L345.6,381.5c12.19,7,12.19,18.45,0,25.49Z"/><polygon class="cls-2" points="145.26 334.26 145.26 334.26 145.26 334.26 145.26 334.26"/><path class="cls-3" d="M231.76,307.89c10.08-5.82,26.43-5.82,36.52,0L329.1,343c.5.29,1,.58,1.41.89,4.1-2.78,6.15-6.21,6.15-9.65,0-3.81-2.52-7.63-7.56-10.55l-60.82-35.11c-10.09-5.82-26.44-5.82-36.52,0L170.9,323.72c-5,2.91-7.55,6.72-7.56,10.54,0,3.44,2,6.88,6.15,9.66.45-.31.92-.61,1.41-.89Z"/><path class="cls-4" d="M345.6,321.5l-73.51-42.44c-12.19-7-31.95-7-44.14,0L154.4,321.52c-6.09,3.52-9.14,8.13-9.14,12.74h0c0,4.61,3,9.22,9.14,12.74l9,5.22,64.49,37.24c12.19,7,31.95,7,44.14,0l64.48-37.26,9-5.22c6.09-3.52,9.14-8.13,9.14-12.74h0C354.75,329.64,351.7,325,345.6,321.5Zm-15.09,22.4c-.45.3-.91.6-1.41.89l-60.83,35.15c-10.08,5.82-26.43,5.82-36.52,0L170.9,344.81c-.49-.29-1-.59-1.41-.89-4.1-2.78-6.15-6.22-6.15-9.66,0-3.82,2.53-7.63,7.56-10.54l60.86-35.13c10.08-5.82,26.43-5.82,36.52,0L329.1,323.7c5,2.92,7.56,6.74,7.56,10.55C336.66,337.69,334.61,341.12,330.51,343.9Z"/><path class="cls-5" d="M345.6,347l-73.52,42.48c-12.19,7-31.95,7-44.14,0L154.4,347c-6.1-3.52-9.14-8.13-9.14-12.74v19.29c0,4.62,3.05,9.23,9.15,12.75L228,408.77c12.19,7,31.95,7,44.14,0l73.52-42.48c6-3.45,9-8,9.13-12.49V334.25C354.74,338.86,351.69,343.47,345.6,347Z"/><path class="cls-6" d="M163.36,45.25V333.81c0,.15,0,.3,0,.45,0,3.44,2,6.88,6.15,9.66.45.3.92.6,1.41.89l60.85,35.13c10.09,5.82,26.44,5.82,36.52,0l60.83-35.15c.5-.29,1-.59,1.41-.89,4.1-2.78,6.15-6.21,6.15-9.65h0v-289Z"/><path class="cls-7" d="M208.6,135.72a3.26,3.26,0,1,1,3.26,3.26A3.25,3.25,0,0,1,208.6,135.72Z"/><path class="cls-7" d="M265.56,284.82a3.26,3.26,0,1,1,3.26,3.26A3.25,3.25,0,0,1,265.56,284.82Z"/><circle class="cls-7" cx="264.01" cy="173.4" r="4.81"/><circle class="cls-8" cx="271.34" cy="91.31" r="3.4"/><path class="cls-8" d="M219.54,228.72a5.21,5.21,0,1,1,5.21,5.2A5.21,5.21,0,0,1,219.54,228.72Z"/><circle class="cls-8" cx="227.13" cy="211.86" r="3.52"/></g></svg>