<svg xmlns="http://www.w3.org/2000/svg" xmlns:xlink="http://www.w3.org/1999/xlink" width="500" height="500" viewBox="0 0 500 500"><defs><style>.cls-1{isolation:isolate;}.cls-2{fill:#6f6f6f;}.cls-3{fill:#565656;}.cls-4{fill:url(#linear-gradient);}.cls-5{fill:url(#linear-gradient-2);}.cls-6{fill:#282828;}.cls-7{fill:#f3f3f3;mix-blend-mode:multiply;}.cls-8{fill:#0d1858;}.cls-9{fill:url(#linear-gradient-3);}.cls-10{fill:url(#linear-gradient-4);}.cls-11{fill:url(#linear-gradient-5);}.cls-12{fill:#3d3d3d;}.cls-13{fill:#1a89ff;}.cls-14{fill:#ef4c4f;}.cls-15{fill:url(#linear-gradient-6);}.cls-16{fill:url(#linear-gradient-7);}.cls-17{fill:url(#linear-gradient-8);}</style><linearGradient id="linear-gradient" x1="291.47" y1="348.21" x2="245" y2="267.71" gradientUnits="userSpaceOnUse"><stop offset="0" stop-color="#3d3d3d"/><stop offset="0" stop-color="#3c3c3c"/><stop offset="0.03" stop-color="#313131"/><stop offset="0.08" stop-color="#2a2a2a"/><stop offset="0.21" stop-color="#282828"/><stop offset="0.57" stop-color="#565656"/><stop offset="1" stop-color="#6f6f6f"/></linearGradient><linearGradient id="linear-gradient-2" x1="212.24" y1="321.41" x2="277.97" y2="321.41" gradientTransform="translate(193.55 -79.49) rotate(30)" gradientUnits="userSpaceOnUse"><stop offset="0" stop-color="#565656"/><stop offset="1" stop-color="#3d3d3d"/></linearGradient><linearGradient id="linear-gradient-3" x1="191.95" y1="401.64" x2="155.67" y2="338.8" xlink:href="#linear-gradient"/><linearGradient id="linear-gradient-4" x1="114.43" y1="377.81" x2="180.16" y2="377.81" gradientTransform="translate(208.64 -23.03) rotate(30)" xlink:href="#linear-gradient-2"/><linearGradient id="linear-gradient-5" x1="149.91" y1="315.45" x2="260.49" y2="204.87" gradientUnits="userSpaceOnUse"><stop offset="0" stop-color="#565656"/><stop offset="0.49" stop-color="#6f6f6f"/><stop offset="0.69" stop-color="#777"/><stop offset="1" stop-color="#8c8c8c"/></linearGradient><linearGradient id="linear-gradient-6" x1="372.38" y1="337.52" x2="308.57" y2="227.01" xlink:href="#linear-gradient"/><linearGradient id="linear-gradient-7" x1="246.27" y1="285.72" x2="358.68" y2="285.72" gradientTransform="translate(183.39 -112.96) rotate(30)" xlink:href="#linear-gradient-2"/><linearGradient id="linear-gradient-8" x1="2366.74" y1="157.81" x2="2437.14" y2="157.81" gradientTransform="matrix(-1, 0, 0, 1, 2635.16, 0)" gradientUnits="userSpaceOnUse"><stop offset="0" stop-color="#1e1e1e"/><stop offset="1" stop-color="#3c3c3c"/></linearGradient></defs><g class="cls-1"><g id="Dark_Theme_Objects" data-name="Dark Theme Objects"><path class="cls-2" d="M314,187.74c-19.78-7.67-41.71-4.8-54.51-1.9a10.13,10.13,0,0,0-7.24,13.3v0A10.1,10.1,0,0,0,264,205.68c14.5-3.25,43.78-6.71,59.18,13.24,13.86,18,7.77,34,2.27,42.54a10.19,10.19,0,0,0,1.27,12.71h0a10.12,10.12,0,0,0,15.69-1.53c9.82-15.34,16.56-40.55-3.15-66.11A57.55,57.55,0,0,0,314,187.74Z"/><path class="cls-3" d="M262.05,182.56h0l.46-.32a5.72,5.72,0,0,1,.58-.37c3.94-2.5,18.41-10.31,28.53,2.37s.08,25-3.09,28.43a6.6,6.6,0,0,1-.58.6l-.32.31c-2.29,1.89-5.83,2.27-10.08.68-8.49-3.17-16.59-13-18.09-21.93-.74-4.47.3-7.88,2.59-9.77Z"/><path class="cls-4" d="M224,280l19.7-11.27a15.8,15.8,0,0,1,4.42-2.53h0c5.67-2.1,12.93-1.14,20.84,3.43,18.15,10.48,32.86,36,32.86,56.92,0,9.8-3.24,16.84-8.53,20.52l-23.17,13.51a3,3,0,0,1-4.31-1.5l-9.26-23.54a78.3,78.3,0,0,1-18.37-32.56l-7.73-11.58-4.4-1.18-3.24-6.2A3,3,0,0,1,224,280Z"/><ellipse class="cls-5" cx="245.1" cy="321.41" rx="26.83" ry="46.48" transform="translate(-127.87 165.62) rotate(-30)"/><path class="cls-6" d="M223.15,308.31c0,14,9.83,31,21.95,38s22,1.33,22-12.67-9.82-31-22-38S223.15,294.31,223.15,308.31Z"/><ellipse class="cls-7" cx="244.75" cy="330.24" rx="17.92" ry="31.04" transform="translate(-132.33 166.62) rotate(-30)"/><path class="cls-6" d="M244.41,347.52c-12.48-7.2-22.64-24.79-22.64-39.21,0-7.28,2.53-12.75,7.12-15.4s10.59-2.11,16.9,1.54c12.48,7.2,22.64,24.79,22.64,39.21,0,7.28-2.53,12.75-7.12,15.4a12.6,12.6,0,0,1-6.4,1.66A21.26,21.26,0,0,1,244.41,347.52Z"/><path class="cls-3" d="M161.45,338.3l60.32-34.78a9.37,9.37,0,0,1,2.66-1.52h0c3.41-1.27,7.78-.69,12.54,2.06,10.92,6.31,19.77,21.64,19.77,34.25,0,5.91-1.95,10.14-5.13,12.35l-62.41,36.12a1.81,1.81,0,0,1-2.59-.9l-5.57-14.17A47.1,47.1,0,0,1,170,352.12l-4.64-7-2.65-.71-2-3.73A1.81,1.81,0,0,1,161.45,338.3Z"/><path class="cls-6" d="M154.38,351.82c0,12.61,8.86,27.95,19.78,34.25s19.78,1.2,19.78-11.42-8.86-27.95-19.78-34.25S154.38,339.2,154.38,351.82Z"/><path class="cls-8" d="M173.47,387.26C162.19,380.75,153,364.85,153,351.82c0-6.62,2.3-11.59,6.48-14s9.63-1.92,15.36,1.39c11.28,6.51,20.47,22.41,20.47,35.44,0,6.62-2.31,11.59-6.49,14a11.47,11.47,0,0,1-5.83,1.51A19.29,19.29,0,0,1,173.47,387.26Zm-12.61-47.05c-3.29,1.9-5.1,6-5.1,11.61,0,12.15,8.56,27,19.09,33.06,4.84,2.79,9.32,3.28,12.61,1.38s5.1-6,5.1-11.61c0-12.15-8.56-27-19.09-33.06a16.66,16.66,0,0,0-8.14-2.52A8.85,8.85,0,0,0,160.86,340.21Z"/><path class="cls-9" d="M126.17,336.37l19.71-11.27a15.66,15.66,0,0,1,4.42-2.53h0c5.68-2.11,12.93-1.15,20.85,3.42C189.31,336.47,204,362,204,382.91c0,9.81-3.25,16.84-8.54,20.52l-23.17,13.51a3,3,0,0,1-4.31-1.5l-9.25-23.54a78.32,78.32,0,0,1-18.38-32.56l-7.72-11.58-4.4-1.18-3.25-6.2A3,3,0,0,1,126.17,336.37Z"/><ellipse class="cls-10" cx="147.3" cy="377.81" rx="26.83" ry="46.48" transform="translate(-169.17 124.27) rotate(-30)"/><ellipse class="cls-6" cx="147.3" cy="377.39" rx="17.92" ry="31.04" transform="matrix(0.87, -0.5, 0.5, 0.87, -168.96, 124.21)"/><path class="cls-11" d="M158.48,209.09l74.48-43c3.89-2.25,7.34-2.46,9.88-1.09h0l.37.22,40.29,23.92a1.18,1.18,0,0,1,.31,1.75l-49.5,60.8-.29,1.66a35.5,35.5,0,0,1-4.19,11.4l-11.49,20.17a1.29,1.29,0,0,0-.15.72l6.2,53.56a1.17,1.17,0,0,1-1.76,1.14l-38.32-22.56-22.7-13.64a9.68,9.68,0,0,1-4.2-6.56l-12.84-60.53C142.64,227.92,149.4,214.33,158.48,209.09Z"/><path class="cls-12" d="M287.22,201.75l-12.84,75.36a35.29,35.29,0,0,1-4.2,11.4l-22.69,39.85c-6.27,11-16.56,16.95-22.83,13.18L202,327.89a9.63,9.63,0,0,1-4.2-6.55L184.93,260.8c-1.93-9.12,4.82-22.71,13.9-28l74.49-43C282.4,184.6,289.15,190.39,287.22,201.75Z"/><path class="cls-6" d="M208.71,259.31a1.58,1.58,0,0,1-.82-.22,2,2,0,0,1-.92-1.85v-6a3.86,3.86,0,0,1,1.7-3.15l5.53-3.2a1.79,1.79,0,0,1,1.8-.06,2,2,0,0,1,.93,1.86v6a3.87,3.87,0,0,1-1.7,3.16L209.7,259A1.93,1.93,0,0,1,208.71,259.31Zm6.16-12.38-5.17,3a1.84,1.84,0,0,0-.67,1.36V257l5.17-3a1.84,1.84,0,0,0,.67-1.36Z"/><path class="cls-13" d="M228.12,247.2l-5.53,3.19c-.65.38-1.18,0-1.18-.89v-6a2.85,2.85,0,0,1,1.18-2.26l5.53-3.19c.66-.38,1.19,0,1.19.89v6A2.83,2.83,0,0,1,228.12,247.2Z"/><path class="cls-6" d="M222.12,251.57a1.58,1.58,0,0,1-.82-.22,2,2,0,0,1-.93-1.85v-6a3.86,3.86,0,0,1,1.71-3.15l5.53-3.2a1.78,1.78,0,0,1,1.81-.06,2.06,2.06,0,0,1,.92,1.85v6a3.85,3.85,0,0,1-1.7,3.16l-5.53,3.2A2,2,0,0,1,222.12,251.57Zm6.15-12.38-5.16,3a1.84,1.84,0,0,0-.67,1.36v5.76l5.17-3a1.84,1.84,0,0,0,.66-1.37Z"/><path class="cls-6" d="M235.53,243.83a1.68,1.68,0,0,1-.82-.22,2.05,2.05,0,0,1-.93-1.86v-6a3.87,3.87,0,0,1,1.71-3.16l5.53-3.19a1.76,1.76,0,0,1,1.81-.06,2,2,0,0,1,.92,1.85v6a3.87,3.87,0,0,1-1.7,3.16h0l-5.53,3.2A2.07,2.07,0,0,1,235.53,243.83Zm6.15-12.39-5.16,3a1.84,1.84,0,0,0-.67,1.36v5.75l5.16-3a1.81,1.81,0,0,0,.67-1.37Z"/><path class="cls-6" d="M248.94,236.24a1.58,1.58,0,0,1-.82-.22,2,2,0,0,1-.93-1.85v-6a3.86,3.86,0,0,1,1.7-3.15l5.54-3.2a1.77,1.77,0,0,1,1.8-.06,2,2,0,0,1,.93,1.85v6a3.83,3.83,0,0,1-1.7,3.15l-5.53,3.2A1.93,1.93,0,0,1,248.94,236.24Zm6.15-12.38-5.16,3a1.84,1.84,0,0,0-.67,1.36V234l5.17-3a1.83,1.83,0,0,0,.66-1.36Z"/><path class="cls-14" d="M268.35,224.13l-5.53,3.19c-.65.38-1.18,0-1.18-.89v-6a2.85,2.85,0,0,1,1.18-2.26l5.53-3.19c.66-.38,1.19,0,1.19.89v6A2.83,2.83,0,0,1,268.35,224.13Z"/><path class="cls-6" d="M262.35,228.5a1.68,1.68,0,0,1-.82-.22,2.05,2.05,0,0,1-.93-1.86v-6a3.87,3.87,0,0,1,1.71-3.16l5.53-3.19a1.74,1.74,0,0,1,1.8-.06,2,2,0,0,1,.93,1.85v6a3.86,3.86,0,0,1-1.7,3.15h0l-5.53,3.19A2.07,2.07,0,0,1,262.35,228.5Zm6.15-12.39-5.16,3a1.84,1.84,0,0,0-.67,1.36v5.75l5.17-3a1.83,1.83,0,0,0,.66-1.36Z"/><path class="cls-6" d="M208.71,274.06a1.59,1.59,0,0,1-.82-.23A2,2,0,0,1,207,272v-6a3.88,3.88,0,0,1,1.7-3.16l5.53-3.19a1.74,1.74,0,0,1,1.8-.06,2,2,0,0,1,.93,1.85v6a3.87,3.87,0,0,1-1.7,3.16l-5.53,3.2A2,2,0,0,1,208.71,274.06Zm6.16-12.39-5.17,3A1.88,1.88,0,0,0,209,266v5.75l5.17-3a1.84,1.84,0,0,0,.67-1.37Z"/><path class="cls-6" d="M222.12,266.31a1.58,1.58,0,0,1-.82-.22,2,2,0,0,1-.93-1.85v-6a3.87,3.87,0,0,1,1.71-3.16l5.53-3.19a1.76,1.76,0,0,1,1.81-.06,2,2,0,0,1,.92,1.85v6a3.87,3.87,0,0,1-1.7,3.16L223.11,266A1.93,1.93,0,0,1,222.12,266.31Zm6.15-12.38-5.16,3a1.86,1.86,0,0,0-.67,1.37V264l5.17-3a1.87,1.87,0,0,0,.66-1.37Z"/><path class="cls-13" d="M241.53,254.2,236,257.39c-.65.38-1.18,0-1.18-.89v-6a2.85,2.85,0,0,1,1.18-2.27l5.53-3.19c.66-.38,1.19,0,1.19.9v6A2.83,2.83,0,0,1,241.53,254.2Z"/><path class="cls-6" d="M235.53,258.57a1.7,1.7,0,0,1-.82-.21,2.06,2.06,0,0,1-.93-1.86v-6a3.87,3.87,0,0,1,1.71-3.16l5.53-3.2a1.78,1.78,0,0,1,1.81-.06,2.07,2.07,0,0,1,.92,1.86v6a3.88,3.88,0,0,1-1.7,3.16h0l-5.53,3.19A2,2,0,0,1,235.53,258.57Zm6.15-12.38-5.16,3a1.84,1.84,0,0,0-.67,1.37v5.75l5.16-3a1.84,1.84,0,0,0,.67-1.37Z"/><path class="cls-14" d="M254.94,246.62l-5.53,3.19c-.65.38-1.18,0-1.18-.9v-6a2.83,2.83,0,0,1,1.18-2.26l5.53-3.2c.66-.37,1.19,0,1.19.9v6A2.85,2.85,0,0,1,254.94,246.62Z"/><path class="cls-6" d="M248.94,251a1.58,1.58,0,0,1-.82-.22,2,2,0,0,1-.93-1.85v-6a3.87,3.87,0,0,1,1.7-3.16l5.54-3.19a1.72,1.72,0,0,1,1.8-.06,2,2,0,0,1,.93,1.85v6a3.87,3.87,0,0,1-1.7,3.16h0l-5.53,3.19A1.93,1.93,0,0,1,248.94,251Zm6.15-12.38-5.16,3a1.88,1.88,0,0,0-.67,1.37v5.75l5.16-3a1.83,1.83,0,0,0,.67-1.37Z"/><path class="cls-6" d="M262.35,243.24a1.67,1.67,0,0,1-.82-.21,2.06,2.06,0,0,1-.93-1.86v-6a3.87,3.87,0,0,1,1.71-3.16l5.53-3.2a1.74,1.74,0,0,1,1.8,0,2,2,0,0,1,.93,1.85v6a3.87,3.87,0,0,1-1.7,3.16h0L263.34,243A2,2,0,0,1,262.35,243.24Zm6.15-12.38-5.16,3a1.84,1.84,0,0,0-.67,1.37V241l5.17-3a1.87,1.87,0,0,0,.66-1.37Z"/><path class="cls-3" d="M170.29,275.05h0l-.53.2c-.21.08-.42.17-.64.23-4.42,1.51-20.32,5.71-27.19-9s5.79-24.37,9.67-26.92a6.41,6.41,0,0,1,.7-.45l.38-.23c2.67-1.3,6.2-.84,10,1.7,7.51,5.07,13.09,16.52,12.45,25.56-.32,4.52-2.13,7.59-4.8,8.89Z"/><path class="cls-8" d="M292.58,200.8l-28.39,16.72L277.31,241l2,3.31.21.59c3.88,31.18,24.18,65.07,49.36,82.42l14.75,24.35L369,336.57c.66-.35,1.29-.73,1.87-1.11l1-.68c8.84-6.31,13.72-18.27,13.72-33.69,0-35.3-24.88-78.38-55.45-96-8.55-4.93-16.81-7.44-24.25-7.44A27.91,27.91,0,0,0,292.58,200.8Z"/><path class="cls-2" d="M195.48,338.2c21.22,0,40.62-10.6,51.51-17.94a10.12,10.12,0,0,0,1.94-15l0,0a10.11,10.11,0,0,0-13.28-1.84c-12.33,8.28-38.38,22.09-59.95,9.05-19.43-11.75-19.53-28.86-17.5-38.83a10.2,10.2,0,0,0-5.79-11.4h0a10.12,10.12,0,0,0-14.07,7.1c-3.6,17.85-.77,43.8,26.85,60.5A57.54,57.54,0,0,0,195.48,338.2Z"/><path class="cls-15" d="M292.58,200.8,260.92,218,277.31,241l2,3.31.21.59c3.88,31.18,24.18,65.07,49.36,82.42l12.2,27.89L369,336.57c.66-.35,1.29-.73,1.87-1.11l1-.68c8.84-6.31,13.72-18.27,13.72-33.69,0-35.3-24.88-78.38-55.45-96-8.55-4.93-16.81-7.44-24.25-7.44A27.91,27.91,0,0,0,292.58,200.8Z"/><ellipse class="cls-16" cx="302.47" cy="285.72" rx="45.89" ry="79.48" transform="translate(-102.34 189.52) rotate(-30)"/><path class="cls-3" d="M269.11,317.33h0l-.53.2a4.88,4.88,0,0,1-.64.23c-4.42,1.51-20.32,5.71-27.19-9s5.79-24.36,9.67-26.92a6.41,6.41,0,0,1,.7-.45l.38-.23c2.67-1.3,6.2-.83,10,1.7,7.51,5.08,13.09,16.52,12.45,25.56-.32,4.52-2.13,7.59-4.8,8.89Z"/><path class="cls-13" d="M270.21,261.31l.1-.74c.77-6.15,3.26-10.87,7.19-13.66,3.53-2.51,8-3.27,13-2.21l.79.17,9.1,38.61Z"/><path class="cls-13" d="M304.49,323.34c-15.25-8.81-27.67-30.31-27.67-47.93a32.49,32.49,0,0,1,.29-4.24l.27-2.14L303.1,288l-7.79-33.07,2,.42a29.69,29.69,0,0,1,8.49,3.4c15.26,8.81,27.67,30.31,27.67,47.93,0,8.81-3,15.42-8.55,18.6a15.17,15.17,0,0,1-7.67,2A25.88,25.88,0,0,1,304.49,323.34Z"/><path class="cls-2" d="M145.3,124.8v58a1.89,1.89,0,0,0,1,1.67l46.6,26.82,78.3-105.85L220.89,81s-1.27-.69-1.73-1a1.54,1.54,0,0,0-1.58,0l-70.22,41.27A4.14,4.14,0,0,0,145.3,124.8Z"/><path class="cls-3" d="M192.89,152.17v59.11L272,165.62V106.77a1.53,1.53,0,0,0-2.29-1.32L195,148.6A4.13,4.13,0,0,0,192.89,152.17Z"/><path class="cls-17" d="M199.23,202.92l68-38.78a2.84,2.84,0,0,0,1.21-2.28V113.61c0-.88-.54-1.29-1.21-.9l-68,38.77a2.84,2.84,0,0,0-1.21,2.28V202C198,202.89,198.56,203.3,199.23,202.92Z"/><path class="cls-13" d="M216.38,164.86a3.26,3.26,0,0,1-1.4-3,9.74,9.74,0,0,1,4.39-7.61,2.9,2.9,0,0,1,4.72,2.72,9.76,9.76,0,0,1-4.4,7.62,4.19,4.19,0,0,1-2.05.62A2.47,2.47,0,0,1,216.38,164.86Z"/><path class="cls-13" d="M250.3,145.28a3.29,3.29,0,0,1-1.4-3,9.73,9.73,0,0,1,4.39-7.61,2.89,2.89,0,0,1,4.72,2.72,9.71,9.71,0,0,1-4.4,7.61,4.16,4.16,0,0,1-2.05.62A2.46,2.46,0,0,1,250.3,145.28Z"/><path class="cls-13" d="M223.22,170.53c-.66-.85-.27-2.62.84-3.79a2.39,2.39,0,0,1,1.73-.87,1.16,1.16,0,0,1,.88.45c1.3,1.66,4.28,4,9.68.93l.16.27-.06-.33c5.49-3.17,8.52-9.14,9.84-12.42a3.41,3.41,0,0,1,2.39-2.22,1.16,1.16,0,0,1,1.11.46,2.46,2.46,0,0,1,0,2.38c-1.73,4.29-5.72,12.12-13.05,16.35l-.14.08a13.81,13.81,0,0,1-6.76,2.08A8.26,8.26,0,0,1,223.22,170.53Z"/><path class="cls-12" d="M142.88,366.39a3.75,3.75,0,0,0-1.9.48c-1.43.82-2.21,2.68-2.21,5.22,0,5.87,4.13,13,9.22,16,2.2,1.26,4.2,1.51,5.62.69s2.22-2.68,2.22-5.22c0-5.87-4.14-13-9.22-16A7.75,7.75,0,0,0,142.88,366.39Z"/></g></g></svg>