<svg xmlns="http://www.w3.org/2000/svg" width="500" height="500" viewBox="0 0 500 500"><defs><style>.cls-1{fill:#dc4a38;}.cls-2{fill:#6c6c6c;}.cls-3{fill:#2e2823;}.cls-4{fill:#3d3d3d;}.cls-5{fill:#a83c36;}.cls-6{fill:#8c8c8c;}.cls-7{fill:#d4ae85;}.cls-8{fill:#252525;}.cls-9{fill:#565656;}.cls-10{fill:#f3f3f3;}.cls-11{fill:#2d88b6;}.cls-12{fill:#bebebe;}.cls-13{fill:#dcdcdc;}.cls-14{fill:#c4c4c4;}.cls-15{fill:#633e1d;}</style></defs><g id="Dark_Theme_Objects" data-name="Dark Theme Objects"><path class="cls-1" d="M313,245.34c.11-.12.21-.23.3-.35.33-.36.62-.72.92-1.07-.6.73-1.27,1.47-2,2.22C312.52,245.88,312.78,245.6,313,245.34Z"/><path class="cls-1" d="M309.5,133.11a11.86,11.86,0,0,1,1.38.58A11.86,11.86,0,0,0,309.5,133.11Z"/><path class="cls-1" d="M305.92,132.48a12.82,12.82,0,0,1,1.39.13A12.82,12.82,0,0,0,305.92,132.48Z"/><path class="cls-1" d="M345.47,232.93l-.08-.05s0,0,.07.05Z"/><path class="cls-1" d="M311.54,134h0Z"/><path class="cls-1" d="M307.77,132.67a11.17,11.17,0,0,1,1.41.35A11.17,11.17,0,0,0,307.77,132.67Z"/><path class="cls-1" d="M297.46,134.42c.29-.14.57-.23.85-.35C298,134.19,297.75,134.28,297.46,134.42Z"/><path class="cls-1" d="M299.72,133.51c.36-.13.71-.21,1.07-.32C300.43,133.3,300.08,133.38,299.72,133.51Z"/><path class="cls-1" d="M301.88,132.89c.42-.1.83-.15,1.24-.21C302.71,132.74,302.3,132.79,301.88,132.89Z"/><path class="cls-1" d="M304,132.55c.46-.05.9-.05,1.34-.06C304.85,132.5,304.41,132.5,304,132.55Z"/><path class="cls-1" d="M267.88,230.29c-.06-.06-.13-.1-.18-.16a11.68,11.68,0,0,0,1.1.9l0,0A10.13,10.13,0,0,1,267.88,230.29Z"/><path class="cls-1" d="M263,212.48v-.21h0v4.45c0,.28.05.52.05.79,0-.27,0-.52,0-.8Z"/><path class="cls-1" d="M295.57,135.4l-.43.22-.64.37.63-.36C295.28,135.54,295.42,135.48,295.57,135.4Z"/><path class="cls-1" d="M311,247.3l0,0c.41-.37.8-.73,1.15-1.11-.73.73-1.54,1.46-2.4,2.18C310.22,248,310.63,247.66,311,247.3Z"/><path class="cls-1" d="M263.14,219.75c0,.07,0,.15,0,.22s0-.14,0-.21Z"/><path class="cls-1" d="M258.76,209.84h0v0a3.15,3.15,0,0,1-1.25-1.43s0-.12-.05-.17a4.85,4.85,0,0,1-.29-.91A6.71,6.71,0,0,1,257,206a10.35,10.35,0,0,1,.61-3.29A10.44,10.44,0,0,0,257,206c0,1.94.71,3.28,1.84,3.88l-.08,0Z"/><path class="cls-1" d="M266.05,228.23c.22.31.45.59.69.88-.15-.18-.28-.37-.42-.55S266.14,228.35,266.05,228.23Z"/><path class="cls-1" d="M263.76,223.19l.21.7c0-.12-.06-.26-.1-.39S263.79,223.3,263.76,223.19Z"/><path class="cls-1" d="M314.72,243.3a13.26,13.26,0,0,0,1.8-3,5.88,5.88,0,0,0,.38-1.4,6.4,6.4,0,0,1-.38,1.4A14.13,14.13,0,0,1,314.72,243.3Z"/><path class="cls-1" d="M307.31,250.29c.33-.25.66-.47,1-.74s.84-.64,1.25-1c-.82.68-1.69,1.34-2.59,2Z"/><path class="cls-1" d="M263.16,220.08c0,.35.12.66.17,1,0-.14,0-.28-.05-.41S263.19,220.28,263.16,220.08Z"/><path class="cls-1" d="M264.74,225.91a12.9,12.9,0,0,0,.65,1.22c-.23-.39-.45-.78-.65-1.21Z"/><path class="cls-2" d="M317,231v7.49h0l22.62-6.38a8.12,8.12,0,0,1,5.77.79L331,224.5a7.39,7.39,0,0,0-5-1.49h0a11.55,11.55,0,0,0-1.5.18l-1.63.46a50.83,50.83,0,0,1-3.19,4.33C318.77,229,317.88,230,317,231Z"/><path class="cls-3" d="M329.77,144.47l-.32-.18.32.22Z"/><path class="cls-3" d="M268.78,231l0,0c.26.18.51.37.78.54A8.83,8.83,0,0,1,268.78,231Z"/><path class="cls-3" d="M267.18,229.6c.17.18.34.37.52.53s.12.1.18.16C267.64,230.07,267.41,229.84,267.18,229.6Z"/><path class="cls-3" d="M258.73,209.81a3.15,3.15,0,0,1-1.25-1.43A3.15,3.15,0,0,0,258.73,209.81Z"/><path class="cls-3" d="M258.76,209.84Z"/><path class="cls-4" d="M276.34,210.78v0l0,0V194.65c0-15.29,10.73-33.88,24-41.52l12.62-7.28c6.35-3.67,12.1-4,16.29-1.68l-17.54-10.08-.14-.09h0l-.15-.09-.33-.17,0,0-.16-.07a11.86,11.86,0,0,0-1.38-.58l-.32-.09a11.17,11.17,0,0,0-1.41-.35c-.15,0-.31,0-.46-.06a12.82,12.82,0,0,0-1.39-.13c-.21,0-.42,0-.63,0-.44,0-.88,0-1.34.06-.27,0-.55.09-.83.13s-.82.11-1.24.21-.72.2-1.09.3-.71.19-1.07.32-.93.36-1.41.56c-.28.12-.56.21-.85.35-.62.28-1.25.62-1.89,1-.15.08-.29.14-.44.23l-.63.36-12,6.91c-13.23,7.66-24,26.24-24,41.52v16.13Z"/><path class="cls-3" d="M257.14,207.3a4.85,4.85,0,0,0,.29.91A4.85,4.85,0,0,1,257.14,207.3Z"/><path class="cls-3" d="M265.82,227.89a4,4,0,0,0,.23.34c.09.12.19.22.27.33A8.33,8.33,0,0,1,265.82,227.89Z"/><path class="cls-3" d="M263.14,219.76c0,.07,0,.14,0,.21v.11c0,.2.09.38.12.59C263.23,220.36,263.18,220.07,263.14,219.76Z"/><path class="cls-3" d="M264.46,225.19c.09.24.17.49.28.72h0C264.63,225.69,264.55,225.43,264.46,225.19Z"/><path class="cls-3" d="M263.63,222.57c.05.2.08.42.13.62s.08.2.11.31Z"/><path class="cls-5" d="M273.69,289.33a2.39,2.39,0,0,0-.59.48,3.32,3.32,0,0,0-.92,2.14v14l3-1.74v-14c0-.73-.38-1.12-.92-1.07l-.09,0A1.6,1.6,0,0,0,273.69,289.33Z"/><path class="cls-4" d="M333.48,254.82a3.34,3.34,0,0,0-1.51,2.62v14l3-1.74v-14a1.54,1.54,0,0,0-.12-.61C334.65,254.57,334.12,254.45,333.48,254.82Z"/><path class="cls-6" d="M317,231a39.34,39.34,0,0,1-8.5,6.77L304,240.32a20.44,20.44,0,0,1-11.1,3.15,12.84,12.84,0,0,1-2.67-.43V253.9c0,3.59,6,3.06,13.38-1.2,1-.6,2-1.24,3-1.91l.37-.25c.9-.64,1.77-1.3,2.59-2l.14-.11a1.27,1.27,0,0,0,.12-.1c.86-.72,1.67-1.45,2.4-2.18l0,0h0c.75-.75,1.42-1.49,2-2.22l.06-.07c.15-.18.25-.36.4-.55a14.13,14.13,0,0,0,1.8-3,6.4,6.4,0,0,0,.38-1.4,4.36,4.36,0,0,0,.06-.49h0Z"/><path class="cls-7" d="M275.07,245l15.14,8.9V243c-5.73-1.58-9.44-7.27-9.45-16.12v-7.27c-3.28,1.9-5.94.36-5.94-3.43a12,12,0,0,1,1.51-5.42v0l-17.8-10.23a13.85,13.85,0,0,0-.91,2.15A10.35,10.35,0,0,0,257,206a6.71,6.71,0,0,0,.12,1.31,4.85,4.85,0,0,0,.29.91s0,.12.05.17a3.15,3.15,0,0,0,1.25,1.43v0h0l.09,0,4.1,2.36h0v4.42c0,.28,0,.53,0,.8,0,.78.06,1.54.14,2.26h0c0,.31.09.6.14.91,0,.13,0,.27.05.41.09.51.19,1,.3,1.49l.24.93c0,.13.06.27.1.39.14.46.32.87.49,1.3.09.24.17.5.28.73.2.43.42.82.65,1.21s.27.52.43.76a8.33,8.33,0,0,0,.5.67c.14.18.27.37.42.55s.29.33.44.49.46.47.7.69a10.13,10.13,0,0,0,.9.72,8.83,8.83,0,0,0,.8.56,1.77,1.77,0,0,1,.17.12l0,.07,5.29,3h0Z"/><path class="cls-8" d="M312.94,145.85l-12.62,7.28c-13.24,7.64-24,26.23-24,41.52v16.12a12.4,12.4,0,0,1,4.41-4.85V192.53c16-20.76,31.8-6.79,50.91-27.86v11.86l.07,0c1.76-1,3.32-1,4.41-.24v-17c0-7.14-2.43-12.21-6.38-14.74l-.32-.22-.22-.12C325,141.81,319.29,142.18,312.94,145.85Z"/><path class="cls-6" d="M331.74,176.49l-.07,0V164.67c-19.11,21.07-34.94,7.1-50.91,27.86v13.39a12.4,12.4,0,0,0-4.41,4.85l0,0a12,12,0,0,0-1.51,5.42c0,3.79,2.66,5.33,5.94,3.43v7.27c0,8.85,3.72,14.54,9.45,16.12a12.84,12.84,0,0,0,2.67.43,20.44,20.44,0,0,0,11.1-3.15l4.48-2.59A39.34,39.34,0,0,0,317,231c.92-1,1.81-1.94,2.66-3a50.83,50.83,0,0,0,3.19-4.33c5.38-8,8.86-17.59,8.86-26.12v-7.27l.07,0a13.16,13.16,0,0,0,5.94-10.3,4.3,4.3,0,0,0-1.53-3.68C335.06,175.47,333.5,175.48,331.74,176.49Z"/><path class="cls-9" d="M345.46,232.93s0,0-.07-.05l0,0a8.12,8.12,0,0,0-5.77-.79L317,238.45h0a4.36,4.36,0,0,1-.06.49,5.88,5.88,0,0,1-.38,1.4,13.26,13.26,0,0,1-1.8,3c-.15.19-.25.37-.4.55l-.06.07c-.3.35-.59.71-.92,1.07-.09.12-.19.23-.3.35-.26.26-.52.54-.8.8h0l0,0c-.35.38-.74.74-1.15,1.11l0,0c-.38.36-.79.71-1.21,1a1.27,1.27,0,0,1-.12.1l-.14.11c-.41.35-.83.68-1.25,1s-.65.49-1,.74l-.36.25-.37.25c-.1.07-.2.15-.3.21-.88.6-1.77,1.16-2.7,1.7-7.37,4.27-13.35,4.79-13.37,1.21l-22,19.21-.59.52c-6,5.72-10,14.51-10,21.79v18.95l3.76-2.17,10.85-6.28h0V292a3.32,3.32,0,0,1,.92-2.14,2.39,2.39,0,0,1,.59-.48,1.38,1.38,0,0,1,.5-.18l.09,0c.55-.06.93.33.93,1.07v14L332,271.42h0v-14a3.34,3.34,0,0,1,1.51-2.62c.64-.37,1.17-.25,1.4.25a1.43,1.43,0,0,1,.12.62v14l10.82-6.26,3.78-2.19v-19C349.6,237.79,348.05,234.51,345.46,232.93Z"/><path class="cls-2" d="M257.57,295.43c0-7.28,4-16.07,10-21.79l.59-.52,22-19.21c0,3.58,6,3.06,13.37-1.21.93-.54,1.82-1.1,2.7-1.7.1-.06.2-.14.3-.21-1,.67-2,1.31-3,1.91-7.38,4.26-13.37,4.79-13.38,1.2L275.07,245V234.77h0V245l-20.3,17.71-2.32,2c-6,5.73-10,14.51-10,21.78v19l15.14,8.9Z"/><path class="cls-1" d="M221,298.49c.11-.13.21-.23.3-.35.33-.36.63-.72.92-1.07-.59.73-1.27,1.47-2,2.22Z"/><path class="cls-1" d="M217.47,186.25a10.56,10.56,0,0,1,1.38.58A11.17,11.17,0,0,0,217.47,186.25Z"/><path class="cls-1" d="M213.89,185.62a12.76,12.76,0,0,1,1.4.14A12.76,12.76,0,0,0,213.89,185.62Z"/><path class="cls-1" d="M253.45,286.08l-.08-.05.06.05Z"/><path class="cls-1" d="M219.51,187.14h0Z"/><path class="cls-1" d="M215.74,185.81a13.2,13.2,0,0,1,1.41.35A13.2,13.2,0,0,0,215.74,185.81Z"/><path class="cls-1" d="M205.44,187.56c.29-.13.56-.23.85-.35C206,187.33,205.73,187.43,205.44,187.56Z"/><path class="cls-1" d="M207.69,186.65c.37-.12.72-.21,1.07-.31C208.41,186.44,208.06,186.53,207.69,186.65Z"/><path class="cls-1" d="M209.86,186c.42-.09.82-.14,1.23-.21C210.68,185.89,210.28,185.94,209.86,186Z"/><path class="cls-1" d="M211.93,185.69c.45,0,.89-.05,1.33-.05C212.82,185.64,212.38,185.65,211.93,185.69Z"/><path class="cls-1" d="M175.86,283.43l-.19-.15a11.57,11.57,0,0,0,1.1.89h0C176.45,283.93,176.15,283.69,175.86,283.43Z"/><path class="cls-1" d="M170.94,265.62v-.21h0v4.45c0,.28,0,.52,0,.79,0-.27,0-.53,0-.8Z"/><path class="cls-1" d="M203.54,188.54l-.43.23-.64.37.64-.37C203.25,188.69,203.4,188.63,203.54,188.54Z"/><path class="cls-1" d="M219,300.44h0c.41-.38.8-.74,1.16-1.11-.74.73-1.54,1.46-2.4,2.17C218.19,301.16,218.6,300.81,219,300.44Z"/><path class="cls-1" d="M171.12,272.89a1.62,1.62,0,0,0,0,.22c0-.06,0-.14,0-.21Z"/><path class="cls-1" d="M166.74,263h0a3.18,3.18,0,0,1-1.24-1.43,1.27,1.27,0,0,0-.06-.18,4.62,4.62,0,0,1-.28-.91,6.61,6.61,0,0,1-.12-1.3,10.56,10.56,0,0,1,.6-3.29,10.33,10.33,0,0,0-.62,3.3c0,2,.71,3.29,1.84,3.89l-.08-.05Z"/><path class="cls-1" d="M174,281.38a9.66,9.66,0,0,0,.68.87c-.14-.17-.28-.36-.41-.54S174.11,281.5,174,281.38Z"/><path class="cls-1" d="M171.74,276.33a7.36,7.36,0,0,0,.21.71c0-.13-.07-.27-.1-.39A3,3,0,0,1,171.74,276.33Z"/><path class="cls-1" d="M222.69,296.45a13.48,13.48,0,0,0,1.8-3,5.41,5.41,0,0,0,.38-1.41,6,6,0,0,1-.38,1.41A13.72,13.72,0,0,1,222.69,296.45Z"/><path class="cls-1" d="M215.28,303.43c.33-.24.66-.47,1-.73s.84-.65,1.26-1c-.82.67-1.69,1.33-2.6,2C215,303.6,215.17,303.52,215.28,303.43Z"/><path class="cls-1" d="M171.14,273.22c0,.35.11.67.17,1l-.06-.42C171.22,273.61,171.16,273.43,171.14,273.22Z"/><path class="cls-1" d="M172.71,279.06c.2.43.42.82.65,1.22-.22-.4-.45-.79-.65-1.21Z"/><path class="cls-10" d="M224.93,284.11v7.49h0l22.62-6.38a8.15,8.15,0,0,1,5.78.78L239,277.65a7.38,7.38,0,0,0-5-1.49h0a9,9,0,0,0-1.5.18l-1.62.45c-1,1.5-2.06,3-3.19,4.34C226.74,282.17,225.85,283.16,224.93,284.11Z"/><path class="cls-3" d="M237.74,197.62l-.31-.18a3.46,3.46,0,0,1,.31.22Z"/><path class="cls-3" d="M176.76,284.16h0c.26.19.51.38.78.54C177.28,284.55,177,284.35,176.76,284.16Z"/><path class="cls-3" d="M175.15,282.75c.17.18.34.36.52.53l.19.15C175.62,283.21,175.38,283,175.15,282.75Z"/><path class="cls-3" d="M166.7,263a3.18,3.18,0,0,1-1.24-1.43A3.18,3.18,0,0,0,166.7,263Z"/><path class="cls-3" d="M166.73,263h0Z"/><path class="cls-4" d="M184.32,263.93V247.8c0-15.29,10.73-33.88,24-41.52L220.91,199c6.35-3.67,12.11-4,16.3-1.68l-17.55-10.08-.14-.08h0l-.14-.08-.34-.18v0l-.17-.07a10.56,10.56,0,0,0-1.38-.58l-.32-.09a13.2,13.2,0,0,0-1.41-.35l-.45-.05a12.76,12.76,0,0,0-1.4-.14l-.63,0c-.44,0-.88,0-1.33.05-.28,0-.56.09-.84.13s-.81.12-1.23.21-.73.2-1.1.31-.7.19-1.07.31-.93.37-1.4.56c-.29.12-.56.22-.85.35-.63.29-1.26.63-1.9,1-.14.09-.29.15-.43.23l-.64.37-12,6.9c-13.24,7.66-24,26.24-24,41.52V253.7Z"/><path class="cls-3" d="M165.12,260.44a4.62,4.62,0,0,0,.28.91A4.62,4.62,0,0,1,165.12,260.44Z"/><path class="cls-3" d="M173.79,281l.24.35c.08.12.18.21.27.33C174.13,281.48,174,281.27,173.79,281Z"/><path class="cls-3" d="M171.12,272.9c0,.07,0,.15,0,.21a.37.37,0,0,0,0,.11c0,.21.08.39.11.59C171.2,273.51,171.15,273.22,171.12,272.9Z"/><path class="cls-3" d="M172.43,278.33c.1.24.18.5.28.73h0C172.61,278.83,172.53,278.58,172.43,278.33Z"/><path class="cls-3" d="M171.61,275.71c0,.21.07.43.13.62a3,3,0,0,0,.11.32C171.76,276.34,171.68,276,171.61,275.71Z"/><path d="M181.66,342.47a3,3,0,0,0-.59.48,3.35,3.35,0,0,0-.91,2.14v14l3-1.75v-14c0-.73-.38-1.13-.93-1.08l-.08,0A1.61,1.61,0,0,0,181.66,342.47Z"/><path class="cls-11" d="M241.45,308a3.33,3.33,0,0,0-1.5,2.62v14l3-1.75v-14a1.46,1.46,0,0,0-.12-.62C242.63,307.72,242.09,307.59,241.45,308Z"/><path class="cls-12" d="M224.93,284.11a39.1,39.1,0,0,1-8.5,6.77L212,293.47c-4,2.32-7.8,3.32-11.1,3.14a11.46,11.46,0,0,1-2.66-.43V307c0,3.6,6,3.06,13.37-1.2,1-.59,2-1.24,3-1.9l.36-.26c.91-.64,1.78-1.3,2.6-2l.14-.11.12-.11c.86-.71,1.66-1.44,2.4-2.17l0,0h0c.74-.75,1.42-1.49,2-2.22l.06-.07c.15-.19.26-.36.4-.55a13.72,13.72,0,0,0,1.8-3,6,6,0,0,0,.38-1.41,4.19,4.19,0,0,0,.06-.48h0Z"/><path class="cls-13" d="M183.05,298.15,198.19,307V296.18c-5.73-1.57-9.45-7.27-9.45-16.12V272.8c-3.29,1.9-6,.36-6-3.43a12,12,0,0,1,1.52-5.42v0l-17.8-10.23a13.5,13.5,0,0,0-.92,2.15,10.56,10.56,0,0,0-.6,3.29,6.61,6.61,0,0,0,.12,1.3,4.62,4.62,0,0,0,.28.91,1.27,1.27,0,0,1,.06.18A3.18,3.18,0,0,0,166.7,263h0l.08.05,4.11,2.36h0v4.43c0,.27,0,.53,0,.8,0,.77.06,1.53.14,2.25h0c0,.32.08.61.13.91l.06.42c.08.51.18,1,.3,1.48.07.32.15.63.24.94,0,.12.06.26.1.39.14.45.31.87.48,1.29.1.25.18.5.28.74.2.42.43.81.65,1.21s.27.52.43.75.34.45.51.68.27.37.41.54.29.34.44.5.47.46.71.68.59.5.9.73.52.39.79.55a1.88,1.88,0,0,0,.18.12l0,.07,5.29,3h0Z"/><path class="cls-8" d="M220.91,199l-12.62,7.29c-13.24,7.64-24,26.23-24,41.52v16.12a12.45,12.45,0,0,1,4.42-4.86V245.67c16-20.76,31.79-6.79,50.91-27.85v11.86l.06,0c1.76-1,3.33-1,4.41-.25v-17c0-7.15-2.43-12.21-6.38-14.74a3.46,3.46,0,0,0-.31-.22l-.22-.13C233,195,227.26,195.32,220.91,199Z"/><path class="cls-12" d="M239.71,229.64l-.06,0V217.82c-19.12,21.06-34.94,7.09-50.91,27.85v13.39a12.45,12.45,0,0,0-4.42,4.86v0a12,12,0,0,0-1.52,5.42c0,3.79,2.66,5.33,6,3.43v7.26c0,8.85,3.72,14.55,9.45,16.12a11.46,11.46,0,0,0,2.66.43c3.3.18,7.08-.82,11.1-3.14l4.48-2.59a39.1,39.1,0,0,0,8.5-6.77c.92-.95,1.81-1.94,2.67-3,1.13-1.37,2.18-2.84,3.19-4.34,5.38-8,8.86-17.58,8.86-26.12V243.4l.06,0a13.15,13.15,0,0,0,5.95-10.3,4.28,4.28,0,0,0-1.54-3.68C243,228.62,241.47,228.62,239.71,229.64Z"/><path class="cls-13" d="M253.43,286.08l-.06-.05,0,0a8.15,8.15,0,0,0-5.78-.78l-22.62,6.38h0a4.19,4.19,0,0,1-.06.48,5.41,5.41,0,0,1-.38,1.41,13.48,13.48,0,0,1-1.8,3c-.14.19-.25.36-.4.55l-.06.07c-.29.35-.59.71-.92,1.07-.09.12-.19.22-.3.35l-.79.8h0l0,0c-.36.37-.75.73-1.16,1.11h0c-.39.37-.8.72-1.21,1.05l-.12.11-.14.11c-.42.34-.84.68-1.26,1s-.65.49-1,.73c-.11.09-.24.17-.36.25l-.36.26-.31.21c-.88.59-1.77,1.15-2.69,1.7-7.38,4.26-13.36,4.79-13.38,1.2l-22,19.21-.6.53c-6,5.72-10,14.51-10,21.78v18.95l3.76-2.16,10.86-6.28h0v-14a3.35,3.35,0,0,1,.91-2.14,2.65,2.65,0,0,1,.59-.48,1.61,1.61,0,0,1,.51-.17l.08,0c.55,0,.93.34.93,1.07v14L240,324.57h0v-14a3.33,3.33,0,0,1,1.5-2.62c.64-.37,1.18-.24,1.4.25a1.48,1.48,0,0,1,.12.63v14l10.82-6.26,3.78-2.18V295.43C257.57,290.93,256,287.66,253.43,286.08Z"/><path class="cls-10" d="M165.54,348.57c0-7.27,4-16.06,10-21.78l.6-.53,22-19.21c0,3.59,6,3.06,13.38-1.2.92-.55,1.81-1.11,2.69-1.7l.31-.21c-1,.66-2,1.31-3,1.9-7.38,4.26-13.36,4.8-13.37,1.2l-15.14-8.89V287.92h0v10.23l-20.29,17.71-2.33,2c-6,5.74-10,14.51-10,21.78v18.95l15.14,8.9Z"/><path class="cls-14" d="M232.25,248.41v-.25h0v5.16c0,.33.05.61.06.92,0-.32,0-.61,0-.93Z"/><path class="cls-14" d="M227.37,245.35h0a3.67,3.67,0,0,1-1.46-1.68,1.52,1.52,0,0,1-.06-.2,5.17,5.17,0,0,1-.34-1.05,8,8,0,0,1-.13-1.52,12,12,0,0,1,.7-3.83,12.15,12.15,0,0,0-.72,3.85c0,2.26.82,3.81,2.13,4.5l-.09,0Z"/><path class="cls-14" d="M274.86,156.84c.42-.15.83-.24,1.25-.36C275.69,156.6,275.29,156.69,274.86,156.84Z"/><path class="cls-14" d="M272.25,157.89c.34-.15.67-.26,1-.4C272.92,157.63,272.59,157.74,272.25,157.89Z"/><path class="cls-14" d="M277.38,156.12c.48-.11.95-.17,1.42-.24C278.33,156,277.86,156,277.38,156.12Z"/><path class="cls-14" d="M286.2,156.38a11.26,11.26,0,0,1,1.6.67A11.26,11.26,0,0,0,286.2,156.38Z"/><path class="cls-14" d="M279.77,155.73c.53,0,1-.06,1.55-.07C280.81,155.67,280.3,155.68,279.77,155.73Z"/><path class="cls-14" d="M282.05,155.65c.55,0,1.09.08,1.62.15C283.13,155.73,282.6,155.67,282.05,155.65Z"/><path class="cls-14" d="M232.45,256.84c0,.08,0,.18,0,.26,0-.08,0-.17,0-.25Z"/><path class="cls-14" d="M235.83,266.68a11.36,11.36,0,0,0,.79,1c-.17-.2-.32-.42-.48-.63S235.92,266.82,235.83,266.68Z"/><path class="cls-14" d="M238,269.06c-.07-.06-.15-.11-.22-.18a13.86,13.86,0,0,0,1.28,1l0,0A11.93,11.93,0,0,1,238,269.06Z"/><path class="cls-14" d="M234.3,264c.23.5.49.95.75,1.41-.26-.45-.52-.9-.75-1.4Z"/><path class="cls-14" d="M233.17,260.83l.24.82c0-.15-.07-.31-.11-.46S233.21,261,233.17,260.83Z"/><path class="cls-14" d="M232.48,257.22c0,.41.13.78.19,1.17l-.06-.48C232.57,257.67,232.51,257.46,232.48,257.22Z"/><path class="cls-14" d="M284.19,155.87a14.54,14.54,0,0,1,1.64.4A14.54,14.54,0,0,0,284.19,155.87Z"/><path class="cls-14" d="M288,288.79a.07.07,0,0,0,0,0c.47-.44.92-.85,1.33-1.28-.84.84-1.78,1.68-2.77,2.51C287,289.61,287.52,289.21,288,288.79Z"/><path class="cls-14" d="M283.66,292.25c.39-.28.77-.54,1.14-.85s1-.75,1.45-1.14q-1.42,1.17-3,2.28Z"/><path class="cls-14" d="M292.27,284.13a15.09,15.09,0,0,0,2.07-3.41,6.59,6.59,0,0,0,.44-1.64,6.59,6.59,0,0,1-.44,1.64A16.36,16.36,0,0,1,292.27,284.13Z"/><path class="cls-14" d="M270.1,159l-.55.28-.85.49.85-.48C269.73,159.19,269.92,159.11,270.1,159Z"/><path class="cls-14" d="M288.57,157.41h0Z"/><path class="cls-9" d="M294.85,269.84v8.69h0l26.23-7.4a9.43,9.43,0,0,1,6.7.91l-16.64-9.68a8.53,8.53,0,0,0-5.83-1.73l-.05,0v0a11.9,11.9,0,0,0-1.74.2l-1.89.53a62,62,0,0,1-3.7,5Q296.46,268.21,294.85,269.84Z"/><path class="cls-14" d="M290.31,286.52c.12-.15.24-.27.34-.41.38-.42.72-.83,1.07-1.23-.69.84-1.47,1.7-2.33,2.56C289.71,287.14,290,286.82,290.31,286.52Z"/><path class="cls-14" d="M327.92,272.13l-.09-.06.07.06Z"/><path class="cls-15" d="M309.7,169.55l-.36-.2c.13.07.24.17.37.25Z"/><path class="cls-15" d="M239,269.9l0,0c.3.22.59.44.91.63C239.6,270.35,239.29,270.13,239,269.9Z"/><path class="cls-15" d="M233,260.11c.06.24.09.49.15.72s.09.24.13.36C233.2,260.84,233.11,260.48,233,260.11Z"/><path class="cls-15" d="M235.55,266.28c.09.14.18.27.28.4s.21.25.31.38C235.94,266.8,235.73,266.56,235.55,266.28Z"/><path class="cls-9" d="M247.76,246.44v0l0,0V227.74c0-17.73,12.45-39.28,27.8-48.14l14.63-8.45c7.37-4.25,14-4.68,18.9-2l-20.35-11.69-.16-.09h0l-.17-.1-.39-.2,0,0-.19-.08a11.26,11.26,0,0,0-1.6-.67l-.37-.11a14.54,14.54,0,0,0-1.64-.4l-.52-.07c-.53-.07-1.07-.13-1.62-.15-.24,0-.49,0-.73,0-.51,0-1,0-1.55.07-.32,0-.65.1-1,.15-.47.07-.94.13-1.42.24s-.85.24-1.27.36-.83.21-1.25.36-1.07.42-1.61.65c-.33.14-.66.25-1,.4-.71.33-1.43.72-2.15,1.12-.18.1-.37.18-.55.29l-.85.48-13.79,7.95c-15.34,8.88-27.79,30.43-27.79,48.14v18.72Z"/><path class="cls-15" d="M237.13,268.27c.2.21.39.42.6.61s.15.12.22.18C237.67,268.81,237.39,268.55,237.13,268.27Z"/><path class="cls-15" d="M225.49,242.41a5.17,5.17,0,0,0,.34,1.05A5.17,5.17,0,0,1,225.49,242.41Z"/><path class="cls-15" d="M234,263.15c.11.28.21.57.33.84h0C234.18,263.73,234.09,263.43,234,263.15Z"/><path class="cls-15" d="M227.35,245.34h0a3.67,3.67,0,0,1-1.46-1.68A3.67,3.67,0,0,0,227.35,245.34Z"/><path class="cls-15" d="M232.45,256.85c0,.08,0,.17,0,.25a.49.49,0,0,0,0,.12c0,.24.09.45.13.69C232.55,257.56,232.49,257.21,232.45,256.85Z"/><polygon class="cls-15" points="227.38 245.36 227.37 245.35 227.37 245.35 227.38 245.36 227.38 245.36"/><path d="M245.27,337.32a1.65,1.65,0,0,0-.59.2,3,3,0,0,0-.69.56,3.85,3.85,0,0,0-1.06,2.48v16.22h0l3.5-2V338.54c0-.85-.45-1.31-1.08-1.25Z"/><path d="M314,297.5a3.85,3.85,0,0,0-1.75,3v16.21h0l3.51-2V298.51a1.66,1.66,0,0,0-.14-.71C315.37,297.22,314.75,297.07,314,297.5Z"/><path class="cls-12" d="M294.85,269.84A45.55,45.55,0,0,1,285,277.7l-5.2,3c-4.66,2.69-9.05,3.85-12.87,3.65a14.67,14.67,0,0,1-3.09-.5v12.59c0,4.17,7,3.55,15.51-1.39,1.2-.69,2.35-1.44,3.47-2.21l.43-.3q1.58-1.11,3-2.28l.17-.14a1.49,1.49,0,0,0,.14-.12c1-.83,1.93-1.67,2.77-2.51l.05,0h0c.86-.86,1.64-1.72,2.33-2.56l.07-.09c.18-.22.31-.43.48-.66a16.36,16.36,0,0,0,2.07-3.41,6.59,6.59,0,0,0,.44-1.64,3.76,3.76,0,0,0,.07-.55h0Z"/><path class="cls-13" d="M246.28,286.12l17.56,10.32V283.85c-6.64-1.83-10.95-8.43-10.95-18.7v-8.42c-3.81,2.2-6.9.42-6.9-4a13.81,13.81,0,0,1,1.76-6.28v0l-20.64-11.85a16.26,16.26,0,0,0-1.06,2.47,12,12,0,0,0-.7,3.83,8,8,0,0,0,.13,1.52,5.17,5.17,0,0,0,.34,1.05,1.52,1.52,0,0,0,.06.2,3.67,3.67,0,0,0,1.46,1.68h0l.09,0,4.76,2.74h0v5.14c0,.32,0,.61,0,.93,0,.9.07,1.77.16,2.61h0c0,.36.1.71.16,1.06l.06.48c.1.59.22,1.16.35,1.72.09.37.18.73.28,1.08,0,.15.07.31.11.46.17.52.37,1,.56,1.5.12.28.21.58.33.85.23.5.49.95.75,1.4s.32.61.5.88.39.52.59.78.31.43.48.63.34.39.51.58.54.54.82.79a11.93,11.93,0,0,0,1,.84c.3.23.61.45.93.65.07,0,.13.1.19.14l0,.07,6.14,3.5h0Z"/><path class="cls-4" d="M290.19,171.15l-14.63,8.45c-15.35,8.86-27.8,30.41-27.8,48.14v18.69a14.22,14.22,0,0,1,5.12-5.62V225.28c18.51-24.07,36.86-7.88,59-32.3v13.75l.07,0c2-1.18,3.85-1.18,5.12-.28V186.69c0-8.28-2.83-14.16-7.4-17.09-.13-.08-.24-.18-.37-.25l-.25-.15C304.23,166.47,297.56,166.9,290.19,171.15Z"/><path class="cls-12" d="M312,206.68l-.07,0V193c-22.17,24.42-40.52,8.23-59,32.3v15.53a14.22,14.22,0,0,0-5.12,5.62l0,0a13.81,13.81,0,0,0-1.76,6.28c0,4.4,3.09,6.18,6.9,4v8.42c0,10.27,4.31,16.87,10.95,18.7a14.67,14.67,0,0,0,3.09.5c3.82.2,8.21-1,12.87-3.65l5.2-3a45.55,45.55,0,0,0,9.85-7.86q1.61-1.63,3.09-3.45a62,62,0,0,0,3.7-5c6.24-9.29,10.28-20.39,10.28-30.29v-8.43l.07,0a15.24,15.24,0,0,0,6.89-11.94,5,5,0,0,0-1.77-4.27C315.84,205.5,314,205.5,312,206.68Z"/><path class="cls-4" d="M327.9,272.13l-.07-.06-.05,0a9.43,9.43,0,0,0-6.7-.91l-26.23,7.4h0a3.76,3.76,0,0,1-.07.55,6.59,6.59,0,0,1-.44,1.64,15.09,15.09,0,0,1-2.07,3.41c-.17.23-.3.44-.48.66l-.07.09c-.35.4-.69.81-1.07,1.23-.1.14-.22.26-.34.41-.3.3-.6.62-.92.92h0l-.05,0c-.41.43-.86.84-1.33,1.28a.07.07,0,0,1,0,0c-.44.42-.92.82-1.4,1.21a1.49,1.49,0,0,1-.14.12l-.17.14c-.48.39-1,.78-1.45,1.14s-.75.57-1.14.85l-.41.29-.43.3c-.12.08-.23.17-.35.24-1,.69-2.05,1.34-3.13,2-8.55,4.95-15.48,5.56-15.5,1.4l-25.55,22.28-.69.61C230.67,326,226,336.16,226,344.59v22l4.36-2.52,12.59-7.27h0V340.56a3.85,3.85,0,0,1,1.06-2.48,3,3,0,0,1,.69-.56,1.65,1.65,0,0,1,.59-.2l.09,0c.64-.06,1.08.39,1.08,1.24v16.22l65.82-38h0V300.54a3.85,3.85,0,0,1,1.75-3c.74-.43,1.36-.28,1.62.3a1.68,1.68,0,0,1,.14.72v16.21l12.55-7.25,4.38-2.54V283C332.7,277.76,330.9,274,327.9,272.13Z"/><path class="cls-9" d="M226,344.59c0-8.43,4.68-18.63,11.61-25.25l.69-.61,25.55-22.28c0,4.16,7,3.55,15.5-1.4,1.08-.63,2.11-1.28,3.13-2,.12-.07.23-.16.35-.24-1.12.77-2.27,1.52-3.47,2.21-8.56,4.94-15.5,5.56-15.51,1.39l-17.56-10.32V274.26h0v11.87l-23.53,20.54-2.7,2.35c-6.93,6.65-11.62,16.82-11.62,25.26v22L226,366.57Z"/></g></svg>