<svg xmlns="http://www.w3.org/2000/svg" xmlns:xlink="http://www.w3.org/1999/xlink" width="500" height="500" viewBox="0 0 500 500"><defs><style>.cls-1{fill:url(#linear-gradient);}.cls-2{fill:url(#linear-gradient-2);}.cls-3{fill:url(#linear-gradient-3);}.cls-4{fill:url(#linear-gradient-4);}.cls-5{fill:url(#linear-gradient-5);}.cls-6{fill:url(#linear-gradient-6);}.cls-7{fill:url(#linear-gradient-7);}.cls-8{fill:url(#linear-gradient-8);}.cls-9{fill:url(#linear-gradient-9);}.cls-10{fill:url(#linear-gradient-10);}.cls-11{fill:url(#linear-gradient-11);}.cls-12{fill:url(#linear-gradient-12);}.cls-13,.cls-14{fill:none;}.cls-13{stroke:#6f6f6f;}.cls-14{stroke:#97c1ff;stroke-width:0.9px;}</style><linearGradient id="linear-gradient" x1="332.88" y1="217.95" x2="346.59" y2="194.21" gradientUnits="userSpaceOnUse"><stop offset="0" stop-color="#565656"/><stop offset="1" stop-color="#3d3d3d"/></linearGradient><linearGradient id="linear-gradient-2" x1="339.74" y1="277.3" x2="367.13" y2="277.3" gradientUnits="userSpaceOnUse"><stop offset="0" stop-color="#171717"/><stop offset="1" stop-color="#282828"/></linearGradient><linearGradient id="linear-gradient-3" x1="312.33" y1="277.3" x2="339.74" y2="277.3" gradientUnits="userSpaceOnUse"><stop offset="0" stop-color="#3d3d3d"/><stop offset="1" stop-color="#282828"/></linearGradient><linearGradient id="linear-gradient-4" x1="319.17" y1="170.29" x2="360.27" y2="146.56" gradientUnits="userSpaceOnUse"><stop offset="0" stop-color="#6ea6ff"/><stop offset="1" stop-color="#408bfc"/></linearGradient><linearGradient id="linear-gradient-5" x1="339.73" y1="182.17" x2="367.12" y2="182.17" gradientUnits="userSpaceOnUse"><stop offset="0" stop-color="#054ada"/><stop offset="1" stop-color="#0062ff"/></linearGradient><linearGradient id="linear-gradient-6" x1="312.32" y1="182.17" x2="339.73" y2="182.17" gradientUnits="userSpaceOnUse"><stop offset="0" stop-color="#408bfc"/><stop offset="1" stop-color="#0062ff"/></linearGradient><linearGradient id="linear-gradient-7" x1="132.87" y1="260.27" x2="295.22" y2="260.27" xlink:href="#linear-gradient-3"/><linearGradient id="linear-gradient-8" x1="222.95" y1="166.41" x2="241.05" y2="135.05" xlink:href="#linear-gradient"/><linearGradient id="linear-gradient-9" x1="305.89" y1="260.19" x2="266.44" y2="270.76" gradientUnits="userSpaceOnUse"><stop offset="0" stop-color="#282828"/><stop offset="1" stop-color="#171717"/></linearGradient><linearGradient id="linear-gradient-10" x1="186.85" y1="303.92" x2="204.91" y2="303.92" xlink:href="#linear-gradient-2"/><linearGradient id="linear-gradient-11" x1="197.17" y1="230.43" x2="220.95" y2="230.43" xlink:href="#linear-gradient-2"/><linearGradient id="linear-gradient-12" x1="212.55" y1="264.65" x2="224.53" y2="243.9" gradientUnits="userSpaceOnUse"><stop offset="0" stop-color="#565656"/><stop offset="1" stop-color="#282828"/></linearGradient></defs><g id="Dark_Theme_Objects" data-name="Dark Theme Objects"><polygon class="cls-1" points="312.33 206.08 339.74 190.26 367.13 206.09 339.74 221.91 312.33 206.08"/><polygon class="cls-2" points="339.74 221.91 339.74 348.51 367.13 332.51 367.13 206.09 339.74 221.91"/><polygon class="cls-3" points="339.74 221.91 312.33 206.08 312.33 332.68 339.74 348.51 339.74 221.91"/><polygon class="cls-4" points="312.32 158.42 339.73 142.6 367.12 158.43 339.73 174.25 312.32 158.42"/><polygon class="cls-5" points="339.73 174.25 339.73 205.91 367.12 190.09 367.12 158.43 339.73 174.25"/><polygon class="cls-6" points="339.73 174.25 312.32 158.42 312.32 190.08 339.73 205.91 339.73 174.25"/><polygon class="cls-7" points="241.03 343.7 295.22 374.98 241.21 176.73 186.85 145.56 132.87 280.91 186.85 312.41 193.61 295.44 234.24 318.76 241.03 343.7"/><polygon class="cls-8" points="186.85 145.57 223.6 125.02 277.16 155.89 241.21 176.73 186.85 145.57"/><polygon class="cls-9" points="277.39 155.89 331.04 354.05 295.22 374.98 241.24 176.73 277.39 155.89"/><polygon class="cls-10" points="186.85 312.41 204.91 301.92 193.61 295.44 186.85 312.41"/><polygon class="cls-11" points="197.17 255.57 220.95 241.83 212.81 205.3 197.17 255.57"/><polygon class="cls-12" points="220.95 241.83 228.02 273.58 197.17 255.57 220.95 241.83"/><line class="cls-13" x1="186.85" y1="145.57" x2="241.24" y2="176.73"/><line class="cls-13" x1="312.33" y1="206.08" x2="339.74" y2="221.91"/><line class="cls-14" x1="312.32" y1="158.42" x2="339.73" y2="174.25"/><line class="cls-13" x1="228.02" y1="273.58" x2="197.17" y2="255.57"/></g></svg>