<svg xmlns="http://www.w3.org/2000/svg" xmlns:xlink="http://www.w3.org/1999/xlink" width="500" height="500" viewBox="0 0 500 500"><defs><style>.cls-1{fill:url(#linear-gradient);}.cls-2{fill:url(#linear-gradient-2);}.cls-3{fill:url(#linear-gradient-3);}.cls-4{fill:url(#linear-gradient-4);}.cls-5{fill:url(#linear-gradient-5);}.cls-6{fill:url(#linear-gradient-6);}.cls-7{fill:url(#linear-gradient-7);}.cls-8{fill:url(#linear-gradient-8);}.cls-9{fill:url(#linear-gradient-9);}.cls-10{fill:url(#linear-gradient-10);}.cls-11{fill:url(#linear-gradient-11);}.cls-12{fill:url(#linear-gradient-12);}.cls-13{fill:url(#linear-gradient-13);}.cls-14{fill:url(#linear-gradient-14);}.cls-15{fill:url(#linear-gradient-15);}.cls-16{fill:url(#linear-gradient-16);}.cls-17{fill:#171717;}.cls-18{fill:#282828;}.cls-19{fill:url(#linear-gradient-17);}.cls-20{fill:url(#linear-gradient-18);}.cls-21{fill:url(#linear-gradient-19);}</style><linearGradient id="linear-gradient" x1="248.1" y1="194.43" x2="305.17" y2="194.43" gradientUnits="userSpaceOnUse"><stop offset="0" stop-color="#565656"/><stop offset="0.65" stop-color="#282828"/><stop offset="0.81" stop-color="#2b2b2b"/><stop offset="0.94" stop-color="#353535"/><stop offset="1" stop-color="#3d3d3d"/></linearGradient><linearGradient id="linear-gradient-2" x1="268.56" y1="106.31" x2="284.71" y2="78.35" gradientUnits="userSpaceOnUse"><stop offset="0" stop-color="#6f6f6f"/><stop offset="1" stop-color="#565656"/></linearGradient><linearGradient id="linear-gradient-3" x1="270.27" y1="103.35" x2="283" y2="81.31" gradientUnits="userSpaceOnUse"><stop offset="0" stop-color="#171717"/><stop offset="1" stop-color="#6f6f6f"/></linearGradient><linearGradient id="linear-gradient-4" x1="288.53" y1="217.87" x2="345.6" y2="217.87" xlink:href="#linear-gradient"/><linearGradient id="linear-gradient-5" x1="308.99" y1="129.76" x2="325.13" y2="101.8" xlink:href="#linear-gradient-2"/><linearGradient id="linear-gradient-6" x1="310.7" y1="126.8" x2="323.42" y2="104.76" xlink:href="#linear-gradient-3"/><linearGradient id="linear-gradient-7" x1="329.16" y1="242.08" x2="386.23" y2="242.08" xlink:href="#linear-gradient"/><linearGradient id="linear-gradient-8" x1="349.63" y1="153.97" x2="365.77" y2="126.01" xlink:href="#linear-gradient-2"/><linearGradient id="linear-gradient-9" x1="351.34" y1="151.01" x2="364.06" y2="128.97" xlink:href="#linear-gradient-3"/><linearGradient id="linear-gradient-10" x1="235.75" y1="338.69" x2="357.7" y2="338.69" gradientUnits="userSpaceOnUse"><stop offset="0" stop-color="#282828"/><stop offset="1" stop-color="#3d3d3d"/></linearGradient><linearGradient id="linear-gradient-11" x1="154.43" y1="280.02" x2="235.7" y2="139.26" gradientTransform="translate(131 -69.46) rotate(30.01)" xlink:href="#linear-gradient-2"/><linearGradient id="linear-gradient-12" x1="174.74" y1="174.44" x2="215.39" y2="244.84" gradientTransform="translate(131 -69.46) rotate(30.01)" gradientUnits="userSpaceOnUse"><stop offset="0" stop-color="#fff" stop-opacity="0"/><stop offset="0.9" stop-opacity="0.3"/></linearGradient><linearGradient id="linear-gradient-13" x1="195.05" y1="303.5" x2="276.33" y2="162.72" gradientTransform="translate(148.04 -86.59) rotate(29.98)" xlink:href="#linear-gradient-2"/><linearGradient id="linear-gradient-14" x1="215.37" y1="197.92" x2="256.01" y2="268.3" gradientTransform="translate(148.04 -86.59) rotate(29.98)" xlink:href="#linear-gradient-12"/><linearGradient id="linear-gradient-15" x1="235.75" y1="326.94" x2="317.03" y2="186.17" xlink:href="#linear-gradient-2"/><linearGradient id="linear-gradient-16" x1="113.77" y1="315.25" x2="235.75" y2="315.25" gradientUnits="userSpaceOnUse"><stop offset="0" stop-color="#565656"/><stop offset="1" stop-color="#3d3d3d"/></linearGradient><linearGradient id="linear-gradient-17" x1="134.05" y1="321.1" x2="154.4" y2="321.1" gradientUnits="userSpaceOnUse"><stop offset="0" stop-color="#b067ff"/><stop offset="0.44" stop-color="#655fff"/><stop offset="1" stop-color="#05f"/></linearGradient><linearGradient id="linear-gradient-18" x1="195.09" y1="356.27" x2="215.44" y2="356.27" xlink:href="#linear-gradient-17"/><linearGradient id="linear-gradient-19" x1="164.59" y1="338.71" x2="184.94" y2="338.71" xlink:href="#linear-gradient-17"/></defs><g id="Dark_Theme_Objects" data-name="Dark Theme Objects"><path class="cls-1" d="M299.46,92.33c0,3.38-2.23,6.75-6.68,9.32-8.92,5.15-23.37,5.15-32.29,0-4.46-2.57-6.68-6-6.68-9.32h0L248.1,280.05h0c0,4.21,2.79,8.43,8.36,11.65,11.14,6.43,29.21,6.43,40.35,0,5.58-3.22,8.36-7.44,8.36-11.65Z"/><ellipse class="cls-2" cx="276.64" cy="92.33" rx="22.83" ry="13.18"/><ellipse class="cls-3" cx="276.64" cy="92.33" rx="18" ry="10.39"/><path class="cls-4" d="M339.89,115.78c0,3.38-2.23,6.75-6.69,9.32-8.91,5.15-23.37,5.15-32.28,0-4.46-2.57-6.69-5.95-6.69-9.32h0l-5.7,187.72h0c0,4.21,2.78,8.43,8.35,11.65,11.15,6.43,29.21,6.43,40.36,0,5.57-3.22,8.36-7.44,8.36-11.66Z"/><ellipse class="cls-5" cx="317.06" cy="115.78" rx="22.83" ry="13.18"/><ellipse class="cls-6" cx="317.06" cy="115.78" rx="18" ry="10.39"/><path class="cls-7" d="M380.53,140c0,3.37-2.23,6.75-6.69,9.32-8.91,5.15-23.37,5.15-32.28,0-4.46-2.58-6.69-5.95-6.69-9.33h0L329.16,327.7h0c0,4.22,2.79,8.44,8.36,11.65,11.15,6.44,29.21,6.44,40.36,0,5.57-3.21,8.36-7.43,8.35-11.65Z"/><ellipse class="cls-8" cx="357.7" cy="139.99" rx="22.83" ry="13.18"/><ellipse class="cls-9" cx="357.7" cy="139.99" rx="18" ry="10.39"/><polygon class="cls-10" points="235.75 420.85 357.7 350.38 357.7 256.53 235.75 326.94 235.75 420.85"/><rect class="cls-11" x="124.68" y="169.01" width="140.77" height="81.26" transform="translate(-78.7 125.67) rotate(-30.01)"/><rect class="cls-12" x="124.68" y="169.01" width="140.77" height="81.26" transform="translate(-78.7 125.67) rotate(-30.01)"/><rect class="cls-13" x="165.31" y="192.49" width="140.77" height="81.24" transform="matrix(0.87, -0.5, 0.5, 0.87, -84.96, 148.99)"/><rect class="cls-14" x="165.31" y="192.49" width="140.77" height="81.24" transform="matrix(0.87, -0.5, 0.5, 0.87, -84.96, 148.99)"/><polygon class="cls-15" points="316.99 186.15 195.09 256.56 235.75 326.94 357.7 256.53 316.99 186.15"/><polygon class="cls-16" points="113.79 209.66 113.77 350.42 235.75 420.85 235.75 326.94 195.09 256.56 195.04 303.5 154.44 233.13 154.44 280.03 113.79 209.66"/><polygon class="cls-17" points="337.29 362.17 337.29 291.77 256.07 338.73 256.07 409.05 337.29 362.17"/><polygon class="cls-18" points="337.29 308.75 256.07 355.71 256.07 358.17 337.29 311.21 337.29 308.75"/><polygon class="cls-18" points="337.29 320.05 256.07 367.01 256.07 369.48 337.29 322.52 337.29 320.05"/><polygon class="cls-18" points="337.29 331.35 256.07 378.31 256.07 380.78 337.29 333.82 337.29 331.35"/><polygon class="cls-18" points="337.29 342.65 256.07 389.61 256.07 392.08 337.29 345.12 337.29 342.65"/><polygon class="cls-18" points="337.29 353.95 256.07 400.91 256.07 403.38 337.29 356.42 337.29 353.95"/><polygon class="cls-18" points="337.29 297.44 256.07 344.4 256.07 346.87 337.29 299.91 337.29 297.44"/><polygon class="cls-19" points="134.05 326.97 134.09 303.52 154.4 315.25 154.4 338.69 134.05 326.97"/><polygon class="cls-20" points="195.09 362.14 195.13 338.69 215.44 350.42 215.44 373.85 195.09 362.14"/><polygon class="cls-21" points="164.59 344.58 164.63 321.13 184.94 332.86 184.94 356.29 164.59 344.58"/></g></svg>