<svg xmlns="http://www.w3.org/2000/svg" xmlns:xlink="http://www.w3.org/1999/xlink" width="500" height="500" viewBox="0 0 500 500"><defs><style>.cls-1{isolation:isolate;}.cls-2{fill:#f2a92e;}.cls-3{fill:#8c8c8c;}.cls-4{fill:url(#linear-gradient);}.cls-5{fill:#565656;}.cls-6{fill:#bebebe;}.cls-7{fill:#f3f3f3;}.cls-8{fill:#dcdcdc;}.cls-9{fill:url(#linear-gradient-2);}.cls-10{fill:#8bc0ff;}.cls-11{fill:#6ea6ff;}.cls-12{fill:#408bfc;}</style><linearGradient id="linear-gradient" x1="340.39" y1="293.06" x2="289.25" y2="204.48" gradientUnits="userSpaceOnUse"><stop offset="0.49" stop-color="#3d3d3d"/><stop offset="0.73" stop-color="#3f3f3f"/><stop offset="0.82" stop-color="#464646"/><stop offset="0.88" stop-color="#515151"/><stop offset="0.93" stop-color="#626262"/><stop offset="0.97" stop-color="#787878"/><stop offset="1" stop-color="#8c8c8c"/></linearGradient><linearGradient id="linear-gradient-2" x1="337.21" y1="350.33" x2="295.89" y2="278.76" xlink:href="#linear-gradient"/></defs><g id="Dark_Theme_Objects" data-name="Dark Theme Objects"><g class="cls-1"><g class="cls-1"><path class="cls-2" d="M308.81,314.66,319,308.73c1.28-.74,2.07-2.32,2.08-4.57l-10.21,5.94c0,2.24-.8,3.82-2.08,4.56Z"/></g><path class="cls-3" d="M195.17,135.71a7.64,7.64,0,0,0-2.27-.91,4.2,4.2,0,0,0-3,.39l-10.21,5.93a4.2,4.2,0,0,1,3-.39,7.64,7.64,0,0,1,2.27.91l57.25,32.84,10.21-5.93Z"/><path class="cls-3" d="M265.28,158.94a9.43,9.43,0,0,0-2.74-1.07,6.73,6.73,0,0,0-4.76.63l-10.21,5.94a6.68,6.68,0,0,1,4.76-.63,9.4,9.4,0,0,1,2.74,1.06L307,194.27l10.21-5.93Z"/><path class="cls-4" d="M320.82,191.49a13.47,13.47,0,0,0-3.61-3.15L307,194.27a13.69,13.69,0,0,1,3.61,3.16,16.18,16.18,0,0,1,3.81,9.69l-3.53,103,10.21-5.94,3.53-103A16.21,16.21,0,0,0,320.82,191.49Z"/><path class="cls-5" d="M307,194.27l-51.93-29.4c-3.93-2.27-8.29-1.32-9.69,2.07l-3.17,7.54L185,141.64c-4.11-2.38-7.45-.47-7.47,4.26l3,88.9a15.67,15.67,0,0,0,7.1,12.3l116.16,67.07c3.94,2.27,7.14.44,7.15-4.07l3.53-103A16.31,16.31,0,0,0,307,194.27Z"/></g><g class="cls-1"><polygon class="cls-6" points="309.75 264.55 314.42 264.55 318.86 220.2 313.75 223.16 309.75 264.55"/><polygon class="cls-7" points="313.75 223.16 318.86 220.2 195.05 138.12 189.94 141.09 313.75 223.16"/><polygon class="cls-8" points="189.94 141.09 185.98 182.5 309.75 264.55 313.75 223.16 189.94 141.09"/></g><path class="cls-5" d="M180.13,181.65c-4.35-2.51-7.92-1.06-7.93,3.19l3.15,96.29c0,4,3.41,9.36,7.57,11.77L306.3,364.13c4.16,2.4,7.59,1,7.6-3l3.69-76.32c0-4.25-3.58-9.79-7.93-12.3l-60.81-35.32-3.31-10.32a26.33,26.33,0,0,0-10.24-12.78Z"/><path class="cls-3" d="M259.06,231.25l-3.31-10.32a23.92,23.92,0,0,0-4.33-7.49,23,23,0,0,0-5.91-5.29l-55.17-32.44a9.47,9.47,0,0,0-2.74-1.09,4.55,4.55,0,0,0-3.3.38l-10.21,5.93a4.6,4.6,0,0,1,3.3-.38,9.24,9.24,0,0,1,2.74,1.1l55.17,32.43a23.37,23.37,0,0,1,5.91,5.29,23.92,23.92,0,0,1,4.33,7.49l3.31,10.32,35.93,20.87,10-6.05Z"/><path class="cls-9" d="M309.66,272.5a16.49,16.49,0,0,1,4.34,3.78c2.16,2.63,3.6,5.83,3.59,8.52l-3.69,76.32a4,4,0,0,1-1.79,3.7l10.21-5.93a4,4,0,0,0,1.79-3.7l3.69-76.32c0-2.69-1.43-5.9-3.59-8.52a16.28,16.28,0,0,0-4.34-3.78l-1.43-.83-9.95,6.07Z"/><polygon class="cls-10" points="284.77 258.06 292.88 262.76 284.78 258.05 284.77 258.06"/><polygon class="cls-11" points="318.44 265.74 294.78 252 284.78 258.05 292.88 262.76 308.49 271.81 318.44 265.74"/><polygon class="cls-12" points="308.49 332.83 295.58 317.56 284.77 319.14 284.77 258.06 308.49 271.81 308.49 332.83"/></g></svg>