<svg xmlns="http://www.w3.org/2000/svg" xmlns:xlink="http://www.w3.org/1999/xlink" width="500" height="500" viewBox="0 0 500 500"><defs><style>.cls-1{fill:url(#linear-gradient);}.cls-2{fill:url(#linear-gradient-2);}.cls-3{fill:url(#linear-gradient-3);}.cls-4{fill:url(#linear-gradient-4);}.cls-5{fill:url(#linear-gradient-5);}.cls-6{fill:url(#linear-gradient-6);}.cls-7{fill:url(#linear-gradient-7);}.cls-8{fill:url(#linear-gradient-8);}.cls-9{fill:url(#linear-gradient-9);}.cls-10{fill:url(#linear-gradient-10);}.cls-11{fill:url(#linear-gradient-11);}.cls-12{fill:url(#linear-gradient-12);}.cls-13{fill:url(#linear-gradient-13);}.cls-14{fill:url(#linear-gradient-14);}.cls-15{fill:url(#linear-gradient-15);}.cls-16{fill:url(#linear-gradient-16);}.cls-17{fill:url(#linear-gradient-17);}.cls-18{fill:url(#linear-gradient-18);}.cls-19{fill:url(#linear-gradient-19);}.cls-20{fill:url(#linear-gradient-20);}.cls-21{fill:url(#linear-gradient-21);}.cls-22{fill:url(#linear-gradient-22);}.cls-23{fill:url(#linear-gradient-23);}.cls-24{fill:url(#linear-gradient-24);}.cls-25{fill:url(#linear-gradient-25);}.cls-26{fill:url(#linear-gradient-26);}.cls-27{fill:url(#linear-gradient-27);}.cls-28{fill:none;stroke:#6f6f6f;stroke-width:0.5px;}</style><linearGradient id="linear-gradient" x1="64.36" y1="180.22" x2="79.99" y2="153.16" gradientUnits="userSpaceOnUse"><stop offset="0" stop-color="#565656"/><stop offset="1" stop-color="#3d3d3d"/></linearGradient><linearGradient id="linear-gradient-2" x1="42.43" y1="182.3" x2="72.18" y2="182.3" gradientUnits="userSpaceOnUse"><stop offset="0" stop-color="#3d3d3d"/><stop offset="1" stop-color="#282828"/></linearGradient><linearGradient id="linear-gradient-3" x1="72.18" y1="182.08" x2="101.92" y2="182.08" gradientUnits="userSpaceOnUse"><stop offset="0" stop-color="#171717"/><stop offset="1" stop-color="#282828"/></linearGradient><linearGradient id="linear-gradient-4" x1="108.98" y1="183.77" x2="124.6" y2="156.7" xlink:href="#linear-gradient"/><linearGradient id="linear-gradient-5" x1="87.05" y1="196.95" x2="116.79" y2="196.95" xlink:href="#linear-gradient-2"/><linearGradient id="linear-gradient-6" x1="116.79" y1="196.74" x2="146.53" y2="196.74" xlink:href="#linear-gradient-3"/><linearGradient id="linear-gradient-7" x1="152.33" y1="169.2" x2="167.96" y2="142.13" xlink:href="#linear-gradient"/><linearGradient id="linear-gradient-8" x1="130.41" y1="202.64" x2="160.15" y2="202.64" xlink:href="#linear-gradient-2"/><linearGradient id="linear-gradient-9" x1="160.15" y1="202.43" x2="189.89" y2="202.43" xlink:href="#linear-gradient-3"/><linearGradient id="linear-gradient-10" x1="196.95" y1="127.25" x2="212.57" y2="100.18" xlink:href="#linear-gradient"/><linearGradient id="linear-gradient-11" x1="175.02" y1="194.72" x2="204.76" y2="194.72" xlink:href="#linear-gradient-2"/><linearGradient id="linear-gradient-12" x1="204.76" y1="194.51" x2="234.5" y2="194.51" xlink:href="#linear-gradient-3"/><linearGradient id="linear-gradient-13" x1="241.56" y1="204.06" x2="257.19" y2="176.99" xlink:href="#linear-gradient"/><linearGradient id="linear-gradient-14" x1="219.63" y1="245.99" x2="249.37" y2="245.99" xlink:href="#linear-gradient-2"/><linearGradient id="linear-gradient-15" x1="249.37" y1="245.78" x2="279.11" y2="245.78" xlink:href="#linear-gradient-3"/><linearGradient id="linear-gradient-16" x1="286.17" y1="254.32" x2="301.8" y2="227.25" xlink:href="#linear-gradient"/><linearGradient id="linear-gradient-17" x1="264.24" y1="284.01" x2="293.98" y2="284.01" xlink:href="#linear-gradient-2"/><linearGradient id="linear-gradient-18" x1="293.98" y1="283.79" x2="323.73" y2="283.79" xlink:href="#linear-gradient-3"/><linearGradient id="linear-gradient-19" x1="330.78" y1="310.87" x2="346.41" y2="283.8" xlink:href="#linear-gradient"/><linearGradient id="linear-gradient-20" x1="308.86" y1="325.17" x2="338.6" y2="325.17" xlink:href="#linear-gradient-2"/><linearGradient id="linear-gradient-21" x1="338.6" y1="324.95" x2="368.34" y2="324.95" xlink:href="#linear-gradient-3"/><linearGradient id="linear-gradient-22" x1="375.4" y1="348.8" x2="391.02" y2="321.73" xlink:href="#linear-gradient"/><linearGradient id="linear-gradient-23" x1="353.47" y1="357.02" x2="383.21" y2="357.02" xlink:href="#linear-gradient-2"/><linearGradient id="linear-gradient-24" x1="383.21" y1="356.81" x2="412.95" y2="356.81" xlink:href="#linear-gradient-3"/><linearGradient id="linear-gradient-25" x1="420.01" y1="380.5" x2="435.64" y2="353.44" xlink:href="#linear-gradient"/><linearGradient id="linear-gradient-26" x1="398.08" y1="385.76" x2="427.82" y2="385.76" xlink:href="#linear-gradient-2"/><linearGradient id="linear-gradient-27" x1="427.82" y1="385.55" x2="457.57" y2="385.55" xlink:href="#linear-gradient-3"/></defs><g id="Dark_Theme_Objects" data-name="Dark Theme Objects"><g id="_1" data-name="1"><polygon class="cls-1" points="101.92 166.48 72.18 148.64 42.44 166.9 72.18 184.74 101.92 166.48"/><polygon class="cls-2" points="72.18 197.69 72.18 184.74 42.44 166.9 42.43 179.85 72.18 197.69"/><polygon class="cls-3" points="101.92 166.48 101.92 179.43 72.18 197.69 72.18 184.74 101.92 166.48"/><polygon class="cls-4" points="146.53 170.02 116.79 152.19 87.05 170.44 116.79 188.28 146.53 170.02"/><polygon class="cls-5" points="116.79 223.45 116.79 188.28 87.05 170.44 87.05 205.62 116.79 223.45"/><polygon class="cls-6" points="146.53 170.02 146.53 205.2 116.79 223.45 116.79 188.28 146.53 170.02"/><polygon class="cls-7" points="189.89 155.45 160.15 137.62 130.41 155.88 160.15 173.71 189.89 155.45"/><polygon class="cls-8" points="160.15 249.41 160.15 173.71 130.41 155.88 130.41 231.58 160.15 249.41"/><polygon class="cls-9" points="189.89 155.45 189.89 231.16 160.15 249.41 160.15 173.71 189.89 155.45"/><polygon class="cls-10" points="234.5 113.5 204.76 95.67 175.02 113.92 204.76 131.76 234.5 113.5"/><polygon class="cls-11" points="204.76 275.51 204.76 131.76 175.02 113.92 175.02 257.68 204.76 275.51"/><polygon class="cls-12" points="234.5 113.5 234.5 257.26 204.76 275.51 204.76 131.76 234.5 113.5"/><polygon class="cls-13" points="279.11 190.31 249.37 172.48 219.63 190.74 249.37 208.57 279.11 190.31"/><polygon class="cls-14" points="249.37 301.24 249.37 208.57 219.63 190.74 219.63 283.41 249.37 301.24"/><polygon class="cls-15" points="279.11 190.31 279.11 282.98 249.37 301.24 249.37 208.57 279.11 190.31"/><polygon class="cls-16" points="323.73 240.57 293.99 222.74 264.24 241 293.99 258.83 323.73 240.57"/><polygon class="cls-17" points="293.99 327.01 293.99 258.83 264.24 241 264.24 309.18 293.99 327.01"/><polygon class="cls-18" points="323.73 240.57 323.73 308.76 293.99 327.01 293.99 258.83 323.73 240.57"/><polygon class="cls-19" points="368.34 297.13 338.6 279.29 308.86 297.55 338.6 315.38 368.34 297.13"/><polygon class="cls-20" points="338.6 352.78 338.6 315.38 308.86 297.55 308.86 334.95 338.6 352.78"/><polygon class="cls-21" points="368.34 297.13 368.34 334.52 338.6 352.78 338.6 315.38 368.34 297.13"/><polygon class="cls-22" points="412.95 335.05 383.21 317.22 353.47 335.48 383.21 353.31 412.95 335.05"/><polygon class="cls-23" points="383.21 378.57 383.21 353.31 353.47 335.48 353.47 360.73 383.21 378.57"/><polygon class="cls-24" points="412.95 335.05 412.95 360.31 383.21 378.57 383.21 353.31 412.95 335.05"/><polygon class="cls-25" points="457.57 366.76 427.82 348.93 398.08 367.18 427.82 385.02 457.57 366.76"/><polygon class="cls-26" points="427.82 404.33 427.82 385.02 398.08 367.18 398.08 386.5 427.82 404.33"/><polygon class="cls-27" points="457.57 366.76 457.56 386.08 427.82 404.33 427.82 385.02 457.57 366.76"/></g><line class="cls-28" x1="42.43" y1="166.9" x2="72.18" y2="184.73"/><line class="cls-28" x1="87.05" y1="170.44" x2="116.79" y2="188.28"/><line class="cls-28" x1="130.41" y1="155.87" x2="160.15" y2="173.71"/><line class="cls-28" x1="175.02" y1="113.92" x2="204.76" y2="131.76"/><line class="cls-28" x1="219.63" y1="190.74" x2="249.37" y2="208.57"/><line class="cls-28" x1="264.24" y1="241" x2="293.98" y2="258.83"/><line class="cls-28" x1="308.86" y1="297.55" x2="338.6" y2="315.38"/><line class="cls-28" x1="353.47" y1="335.48" x2="383.21" y2="353.31"/><line class="cls-28" x1="398.08" y1="367.18" x2="427.82" y2="385.02"/></g></svg>