<svg xmlns="http://www.w3.org/2000/svg" xmlns:xlink="http://www.w3.org/1999/xlink" width="500" height="500" viewBox="0 0 500 500"><defs><style>.cls-1,.cls-11,.cls-15,.cls-5{fill:none;}.cls-1,.cls-11{stroke:#3d3d3d;stroke-miterlimit:10;stroke-width:0.8px;}.cls-2{fill:url(#linear-gradient);}.cls-3{fill:url(#linear-gradient-2);}.cls-4{fill:url(#linear-gradient-3);}.cls-5{stroke:#6f6f6f;}.cls-6{fill:url(#linear-gradient-4);}.cls-7{fill:url(#linear-gradient-5);}.cls-8{fill:url(#linear-gradient-6);}.cls-9{fill:url(#linear-gradient-7);}.cls-10{fill:url(#linear-gradient-8);}.cls-11{stroke-dasharray:2.71;}.cls-12{fill:url(#linear-gradient-9);}.cls-13{fill:url(#linear-gradient-10);}.cls-14{fill:url(#linear-gradient-11);}.cls-15{opacity:0.4;}.cls-16{fill:url(#linear-gradient-12);}</style><linearGradient id="linear-gradient" x1="351.97" y1="226.65" x2="365.67" y2="202.91" gradientUnits="userSpaceOnUse"><stop offset="0" stop-color="#565656"/><stop offset="1" stop-color="#3d3d3d"/></linearGradient><linearGradient id="linear-gradient-2" x1="358.83" y1="286" x2="386.22" y2="286" gradientUnits="userSpaceOnUse"><stop offset="0" stop-color="#171717"/><stop offset="1" stop-color="#282828"/></linearGradient><linearGradient id="linear-gradient-3" x1="331.41" y1="286" x2="358.83" y2="286" gradientUnits="userSpaceOnUse"><stop offset="0" stop-color="#3d3d3d"/><stop offset="1" stop-color="#282828"/></linearGradient><linearGradient id="linear-gradient-4" x1="338.26" y1="178.99" x2="379.36" y2="155.27" xlink:href="#linear-gradient"/><linearGradient id="linear-gradient-5" x1="358.82" y1="190.87" x2="386.21" y2="190.87" xlink:href="#linear-gradient-2"/><linearGradient id="linear-gradient-6" x1="331.41" y1="190.87" x2="358.82" y2="190.87" xlink:href="#linear-gradient-3"/><linearGradient id="linear-gradient-7" x1="151.95" y1="268.97" x2="314.3" y2="268.97" xlink:href="#linear-gradient-3"/><linearGradient id="linear-gradient-8" x1="242.03" y1="175.11" x2="260.14" y2="143.75" xlink:href="#linear-gradient"/><linearGradient id="linear-gradient-9" x1="324.98" y1="268.89" x2="285.52" y2="279.46" gradientUnits="userSpaceOnUse"><stop offset="0" stop-color="#282828"/><stop offset="1" stop-color="#171717"/></linearGradient><linearGradient id="linear-gradient-10" x1="205.93" y1="312.63" x2="224" y2="312.63" xlink:href="#linear-gradient-9"/><linearGradient id="linear-gradient-11" x1="216.25" y1="239.14" x2="240.03" y2="239.14" xlink:href="#linear-gradient-9"/><linearGradient id="linear-gradient-12" x1="231.64" y1="273.35" x2="243.62" y2="252.6" gradientUnits="userSpaceOnUse"><stop offset="0" stop-color="#565656"/><stop offset="1" stop-color="#282828"/></linearGradient></defs><g id="Dark_Theme_Objects" data-name="Dark Theme Objects"><polygon class="cls-1" points="351.95 326.86 406.14 358.14 352.13 159.89 297.77 128.72 243.79 264.06 297.77 295.57 304.53 278.6 345.16 301.92 351.95 326.86"/><polygon class="cls-2" points="331.42 214.78 358.83 198.96 386.22 214.79 358.83 230.61 331.42 214.78"/><polygon class="cls-3" points="358.83 230.61 358.83 357.21 386.22 341.22 386.22 214.79 358.83 230.61"/><polygon class="cls-4" points="358.83 230.61 331.42 214.78 331.42 341.38 358.83 357.21 358.83 230.61"/><line class="cls-5" x1="331.41" y1="214.78" x2="358.83" y2="230.61"/><polygon class="cls-6" points="331.41 167.12 358.82 151.3 386.21 167.13 358.82 182.95 331.41 167.12"/><polygon class="cls-1" points="331.41 138.95 358.82 123.12 386.21 138.96 358.82 154.77 331.41 138.95"/><polygon class="cls-7" points="358.82 182.95 358.82 214.61 386.21 198.79 386.21 167.13 358.82 182.95"/><polygon class="cls-8" points="358.82 182.95 331.41 167.12 331.41 198.78 358.82 214.61 358.82 182.95"/><polygon class="cls-1" points="338.95 256.74 331.87 224.98 331.87 224.99 323.72 188.46 308.09 238.73 308.09 238.72 338.95 256.74"/><polygon class="cls-9" points="260.12 352.4 314.3 383.68 260.3 185.43 205.93 154.26 151.95 289.61 205.93 321.12 212.7 304.14 253.33 327.46 260.12 352.4"/><polygon class="cls-10" points="205.93 154.27 242.68 133.72 296.24 164.59 260.3 185.43 205.93 154.27"/><polygon class="cls-1" points="205.93 97.56 242.68 77.01 296.24 107.89 260.3 128.72 205.93 97.56"/><line class="cls-11" x1="159.61" y1="171.61" x2="191.75" y2="190.14"/><polygon class="cls-12" points="296.48 164.59 350.13 362.75 314.3 383.68 260.33 185.43 296.48 164.59"/><polygon class="cls-1" points="329.59 196.11 383.54 394.05 347.77 415.2 293.44 216.95 329.59 196.11"/><polygon class="cls-1" points="186.33 128.72 130.59 268.14 94.82 289.29 150.19 149.56 186.33 128.72"/><line class="cls-11" x1="151.74" y1="215.47" x2="209.66" y2="182.09"/><line class="cls-11" x1="118.13" y1="331.85" x2="176.06" y2="298.46"/><line class="cls-11" x1="190.36" y1="234.55" x2="248.28" y2="201.16"/><line class="cls-11" x1="226.09" y1="394.93" x2="284.02" y2="361.55"/><polygon class="cls-13" points="205.93 321.12 224 310.62 212.7 304.14 205.93 321.12"/><polygon class="cls-14" points="216.25 264.27 240.03 250.53 231.89 214 216.25 264.27"/><polygon class="cls-15" points="202.03 391.7 256.21 422.99 202.21 224.74 147.84 193.57 93.86 328.91 147.84 360.42 154.61 343.44 195.23 366.77 202.03 391.7"/><polygon class="cls-16" points="240.03 250.53 247.11 282.28 216.25 264.27 240.03 250.53"/><polygon class="cls-1" points="189.02 321.58 181.94 289.83 181.94 289.83 173.8 253.31 158.16 303.57 158.16 303.57 189.02 321.58"/><line class="cls-11" x1="250.32" y1="133.6" x2="250.32" y2="159.55"/><line class="cls-11" x1="360.27" y1="156.03" x2="360.27" y2="167.24"/><line class="cls-11" x1="291.38" y1="212.48" x2="323.52" y2="231"/><polygon class="cls-1" points="202.03 391.7 256.21 422.99 202.21 224.74 147.84 193.57 93.86 328.91 147.84 360.42 154.61 343.44 195.23 366.77 202.03 391.7"/><line class="cls-5" x1="205.93" y1="154.27" x2="260.33" y2="185.43"/><line class="cls-5" x1="216.25" y1="264.27" x2="247.11" y2="282.28"/><line class="cls-5" x1="331.41" y1="167.12" x2="358.82" y2="182.95"/></g></svg>