<svg xmlns="http://www.w3.org/2000/svg" xmlns:xlink="http://www.w3.org/1999/xlink" width="500" height="500" viewBox="0 0 500 500"><defs><style>.cls-1{fill:url(#linear-gradient);}.cls-2{fill:url(#linear-gradient-2);}</style><linearGradient id="linear-gradient" x1="5406.6" y1="-395.27" x2="5256.36" y2="-655.49" gradientTransform="translate(2460.75 -4586.52) rotate(120)" gradientUnits="userSpaceOnUse"><stop offset="0" stop-color="#8c8c8c"/><stop offset="0.45" stop-color="#6f6f6f"/><stop offset="0.55" stop-color="#565656"/><stop offset="1" stop-color="#6f6f6f"/></linearGradient><linearGradient id="linear-gradient-2" x1="207.8" y1="316.41" x2="292.2" y2="170.22" gradientUnits="userSpaceOnUse"><stop offset="0" stop-color="#8c8c8c"/><stop offset="1" stop-color="#6f6f6f"/></linearGradient></defs><g id="Dark_Theme_Objects" data-name="Dark Theme Objects"><path class="cls-1" d="M400.24,243.31V257c-.16,6.49-4.51,13-13.09,17.91L281.69,335.85c-17.49,10.1-45.84,10.1-63.32,0L112.89,275c-8.75-5.05-13.12-11.67-13.12-18.29V243.32"/><path class="cls-2" d="M281.68,322.51c-17.49,10.1-45.84,10.1-63.32,0l-105.49-60.9c-17.48-10.1-17.48-26.46,0-36.56l105.5-60.9c17.49-10.1,45.83-10.1,63.32,0L387.13,225c17.48,10.09,17.48,26.46,0,36.56Z"/></g></svg>