<svg xmlns="http://www.w3.org/2000/svg" xmlns:xlink="http://www.w3.org/1999/xlink" width="500" height="500" viewBox="0 0 500 500"><defs><style>.cls-1{fill:url(#linear-gradient);}.cls-2{fill:url(#linear-gradient-2);}.cls-3{fill:url(#linear-gradient-3);}.cls-4{fill:url(#linear-gradient-4);}.cls-5{fill:url(#linear-gradient-5);}.cls-6{fill:url(#linear-gradient-6);}.cls-7{fill:#171717;}.cls-8{fill:url(#linear-gradient-7);}.cls-9{fill:url(#linear-gradient-8);}.cls-10{fill:url(#linear-gradient-9);}.cls-11{fill:url(#linear-gradient-10);}.cls-12{fill:url(#linear-gradient-11);}.cls-13{fill:url(#linear-gradient-12);}.cls-14{fill:url(#linear-gradient-13);}.cls-15{fill:url(#linear-gradient-14);}.cls-16{fill:url(#linear-gradient-15);}.cls-17{fill:url(#linear-gradient-16);}.cls-18{fill:url(#linear-gradient-17);}.cls-19{fill:url(#linear-gradient-18);}.cls-20{fill:url(#linear-gradient-19);}.cls-21{fill:url(#linear-gradient-20);}.cls-22{fill:url(#linear-gradient-21);}.cls-23{fill:url(#linear-gradient-22);}.cls-24{fill:url(#linear-gradient-23);}.cls-25{fill:url(#linear-gradient-24);}.cls-26{fill:url(#linear-gradient-25);}.cls-27{fill:url(#linear-gradient-26);}.cls-28{fill:url(#linear-gradient-27);}.cls-29{fill:url(#linear-gradient-28);}.cls-30{fill:url(#linear-gradient-29);}</style><linearGradient id="linear-gradient" x1="166.57" y1="230.24" x2="196.06" y2="179.15" gradientUnits="userSpaceOnUse"><stop offset="0" stop-color="#6f6f6f"/><stop offset="1" stop-color="#565656"/></linearGradient><linearGradient id="linear-gradient-2" x1="137.2" y1="196.2" x2="191.14" y2="196.2" gradientUnits="userSpaceOnUse"><stop offset="0" stop-color="#282828"/><stop offset="1" stop-color="#3d3d3d"/></linearGradient><linearGradient id="linear-gradient-3" x1="169.02" y1="228.66" x2="193.61" y2="186.06" xlink:href="#linear-gradient"/><linearGradient id="linear-gradient-4" x1="191.14" y1="190.46" x2="225.49" y2="190.46" gradientUnits="userSpaceOnUse"><stop offset="0" stop-color="#3d3d3d"/><stop offset="1" stop-color="#282828"/></linearGradient><linearGradient id="linear-gradient-5" x1="132.27" y1="283.88" x2="171.5" y2="283.88" gradientUnits="userSpaceOnUse"><stop offset="0" stop-color="#565656"/><stop offset="1" stop-color="#3d3d3d"/></linearGradient><linearGradient id="linear-gradient-6" x1="159.26" y1="350.42" x2="242.58" y2="206.1" xlink:href="#linear-gradient-2"/><linearGradient id="linear-gradient-7" x1="191.18" y1="260.62" x2="250.02" y2="260.62" xlink:href="#linear-gradient-5"/><linearGradient id="linear-gradient-8" x1="213.25" y1="170.56" x2="227.96" y2="170.56" gradientUnits="userSpaceOnUse"><stop offset="0" stop-color="#b067ff"/><stop offset="0.44" stop-color="#655fff"/><stop offset="1" stop-color="#05f"/></linearGradient><linearGradient id="linear-gradient-9" x1="232.86" y1="233.02" x2="247.57" y2="233.02" xlink:href="#linear-gradient-8"/><linearGradient id="linear-gradient-10" x1="250.02" y1="260.62" x2="308.86" y2="260.62" xlink:href="#linear-gradient-2"/><linearGradient id="linear-gradient-11" x1="235.31" y1="143.85" x2="264.73" y2="92.89" xlink:href="#linear-gradient"/><linearGradient id="linear-gradient-12" x1="-517.45" y1="104.14" x2="-463.06" y2="104.14" gradientTransform="translate(709.27) scale(0.99 1)" xlink:href="#linear-gradient-2"/><linearGradient id="linear-gradient-13" x1="237.77" y1="142.27" x2="262.28" y2="99.81" xlink:href="#linear-gradient"/><linearGradient id="linear-gradient-14" x1="-463.06" y1="104.14" x2="-408.67" y2="104.14" gradientTransform="translate(709.27) scale(0.99 1)" xlink:href="#linear-gradient-4"/><linearGradient id="linear-gradient-15" x1="193.64" y1="278.32" x2="208.35" y2="278.32" xlink:href="#linear-gradient-8"/><linearGradient id="linear-gradient-16" x1="232.86" y1="385.89" x2="247.57" y2="385.89" xlink:href="#linear-gradient-8"/><linearGradient id="linear-gradient-17" x1="235.34" y1="126.74" x2="250.04" y2="126.74" xlink:href="#linear-gradient-5"/><linearGradient id="linear-gradient-18" x1="246.36" y1="127.25" x2="253.71" y2="114.52" xlink:href="#linear-gradient"/><linearGradient id="linear-gradient-19" x1="-463.08" y1="126.74" x2="-448.26" y2="126.74" gradientTransform="translate(709.27) scale(0.99 1)" xlink:href="#linear-gradient-2"/><linearGradient id="linear-gradient-20" x1="248.35" y1="93.17" x2="251.06" y2="93.17" gradientUnits="userSpaceOnUse"><stop offset="0" stop-color="#565656"/><stop offset="0.65" stop-color="#282828"/><stop offset="0.81" stop-color="#2b2b2b"/><stop offset="0.94" stop-color="#353535"/><stop offset="1" stop-color="#3d3d3d"/></linearGradient><linearGradient id="linear-gradient-21" x1="249.34" y1="64.75" x2="250.24" y2="63.19" xlink:href="#linear-gradient"/><linearGradient id="linear-gradient-22" x1="303.94" y1="309.53" x2="333.43" y2="258.43" xlink:href="#linear-gradient"/><linearGradient id="linear-gradient-23" x1="274.57" y1="275.49" x2="328.5" y2="275.49" xlink:href="#linear-gradient-2"/><linearGradient id="linear-gradient-24" x1="306.39" y1="307.94" x2="330.98" y2="265.34" xlink:href="#linear-gradient"/><linearGradient id="linear-gradient-25" x1="328.5" y1="269.74" x2="362.85" y2="269.74" xlink:href="#linear-gradient-4"/><linearGradient id="linear-gradient-26" x1="269.64" y1="363.16" x2="308.86" y2="363.16" xlink:href="#linear-gradient-5"/><linearGradient id="linear-gradient-27" x1="291.7" y1="368.91" x2="306.41" y2="368.91" xlink:href="#linear-gradient-8"/><linearGradient id="linear-gradient-28" x1="296.62" y1="429.7" x2="379.95" y2="285.39" xlink:href="#linear-gradient-2"/><linearGradient id="linear-gradient-29" x1="154.33" y1="255.66" x2="169.04" y2="255.66" xlink:href="#linear-gradient-8"/></defs><g id="Dark_Theme_Objects" data-name="Dark Theme Objects"><polygon class="cls-1" points="191.11 176.47 132.27 210.44 171.52 232.92 230.36 198.95 191.11 176.47"/><polygon class="cls-2" points="191.14 179.3 191.14 184.8 142.1 213.11 137.2 210.44 191.14 179.3"/><polygon class="cls-3" points="191.11 184.8 142.07 213.11 171.52 229.93 220.56 201.62 191.11 184.8"/><polygon class="cls-4" points="225.49 198.79 191.14 179.3 191.14 184.8 220.58 201.62 225.49 198.79"/><polygon class="cls-5" points="132.27 334.37 171.5 357.49 171.5 232.92 132.27 210.28 132.27 334.37"/><polygon class="cls-6" points="230.34 199.04 171.5 232.92 171.5 357.49 230.34 323.6 230.34 199.04"/><polygon class="cls-7" points="154.33 228.76 154.33 240.09 169.04 248.58 169.04 237.25 154.33 228.76"/><polygon class="cls-7" points="134.72 217.44 134.72 228.76 149.43 237.25 149.43 225.93 134.72 217.44"/><polygon class="cls-7" points="134.72 234.42 134.72 245.75 149.43 254.24 149.43 242.92 134.72 234.42"/><polygon class="cls-7" points="154.33 262.73 154.33 274.06 169.04 282.55 169.04 271.23 154.33 262.73"/><polygon class="cls-7" points="134.72 251.41 134.72 262.73 149.43 271.23 149.43 259.9 134.72 251.41"/><polygon class="cls-7" points="154.33 279.72 154.33 291.04 169.04 299.54 169.04 288.21 154.33 279.72"/><polygon class="cls-7" points="134.72 268.39 134.72 279.72 149.43 288.21 149.43 276.89 134.72 268.39"/><polygon class="cls-7" points="154.33 296.7 154.33 308.03 169.04 316.52 169.04 305.2 154.33 296.7"/><polygon class="cls-7" points="134.72 285.38 134.72 296.7 149.43 305.2 149.43 293.87 134.72 285.38"/><polygon class="cls-7" points="154.33 313.69 154.33 325.01 169.04 333.51 169.04 322.18 154.33 313.69"/><polygon class="cls-7" points="134.72 302.37 134.72 313.69 149.43 322.18 149.43 310.86 134.72 302.37"/><polygon class="cls-7" points="154.33 330.68 154.33 342 169.04 350.49 169.04 339.17 154.33 330.68"/><polygon class="cls-7" points="134.72 319.35 134.72 330.68 149.43 339.17 149.43 327.85 134.72 319.35"/><polygon class="cls-8" points="191.18 368.91 250.02 402.88 250.02 152.32 191.18 118.35 191.18 368.91"/><polygon class="cls-9" points="213.25 160.65 213.25 171.98 227.96 180.47 227.96 169.15 213.25 160.65"/><polygon class="cls-10" points="232.86 223.11 232.86 234.44 247.57 242.93 247.57 231.61 232.86 223.11"/><polygon class="cls-11" points="308.86 118.35 250.02 152.32 250.02 402.88 308.86 368.91 308.86 118.35"/><polygon class="cls-12" points="250.02 84.4 191.18 118.37 250.02 152.34 308.86 118.37 250.02 84.4"/><polygon class="cls-13" points="250.05 87.23 250.05 92.73 201.02 121.04 196.11 118.37 250.05 87.23"/><polygon class="cls-14" points="250.02 92.73 200.99 121.04 250.02 149.35 299.06 121.04 250.02 92.73"/><polygon class="cls-15" points="303.99 118.21 250.05 87.23 250.05 92.73 299.08 121.04 303.99 118.21"/><polygon class="cls-7" points="213.25 211.79 213.25 223.11 227.96 231.61 227.96 220.28 213.25 211.79"/><polygon class="cls-7" points="193.63 200.47 193.63 211.79 208.34 220.28 208.34 208.96 193.63 200.47"/><polygon class="cls-7" points="213.25 228.78 213.25 240.1 227.96 248.59 227.96 237.27 213.25 228.78"/><polygon class="cls-7" points="193.63 217.45 193.63 228.78 208.34 237.27 208.34 225.94 193.63 217.45"/><polygon class="cls-7" points="232.86 240.1 232.86 251.42 247.57 259.92 247.57 248.59 232.86 240.1"/><polygon class="cls-7" points="213.25 194.81 213.25 206.13 227.96 214.62 227.96 203.3 213.25 194.81"/><polygon class="cls-7" points="193.63 183.48 193.63 194.81 208.34 203.3 208.34 191.97 193.63 183.48"/><polygon class="cls-7" points="232.86 206.13 232.86 217.45 247.57 225.94 247.57 214.62 232.86 206.13"/><polygon class="cls-7" points="213.25 177.82 213.25 189.14 227.96 197.64 227.96 186.31 213.25 177.82"/><polygon class="cls-7" points="193.63 166.5 193.63 177.82 208.34 186.31 208.34 174.99 193.63 166.5"/><polygon class="cls-7" points="232.86 189.14 232.86 200.47 247.57 208.96 247.57 197.64 232.86 189.14"/><polygon class="cls-7" points="193.63 149.33 193.63 160.65 208.34 169.15 208.34 157.82 193.63 149.33"/><polygon class="cls-7" points="232.86 171.98 232.86 183.3 247.57 191.79 247.57 180.47 232.86 171.98"/><polygon class="cls-7" points="213.25 143.45 213.25 154.78 227.96 163.27 227.96 151.94 213.25 143.45"/><polygon class="cls-7" points="193.63 132.13 193.63 143.45 208.34 151.94 208.34 140.62 193.63 132.13"/><polygon class="cls-7" points="232.86 154.78 232.86 166.1 247.57 174.59 247.57 163.27 232.86 154.78"/><polygon class="cls-7" points="213.25 245.76 213.25 257.09 227.96 265.58 227.96 254.25 213.25 245.76"/><polygon class="cls-7" points="193.63 234.44 193.63 245.76 208.34 254.25 208.34 242.93 193.63 234.44"/><polygon class="cls-7" points="232.86 257.09 232.86 268.41 247.57 276.9 247.57 265.58 232.86 257.09"/><polygon class="cls-7" points="213.25 262.75 213.25 274.07 227.96 282.56 227.96 271.24 213.25 262.75"/><polygon class="cls-7" points="193.63 251.42 193.63 262.75 208.34 271.24 208.34 259.92 193.63 251.42"/><polygon class="cls-7" points="232.86 274.07 232.86 285.4 247.57 293.89 247.57 282.56 232.86 274.07"/><polygon class="cls-7" points="213.25 279.73 213.25 291.06 227.96 299.55 227.96 288.23 213.25 279.73"/><polygon class="cls-16" points="193.63 268.41 193.63 279.73 208.34 288.23 208.34 276.9 193.63 268.41"/><polygon class="cls-7" points="232.86 291.06 232.86 302.38 247.57 310.87 247.57 299.55 232.86 291.06"/><polygon class="cls-7" points="213.25 296.72 213.25 308.04 227.96 316.54 227.96 305.21 213.25 296.72"/><polygon class="cls-7" points="193.63 285.4 193.63 296.72 208.34 305.21 208.34 293.89 193.63 285.4"/><polygon class="cls-7" points="232.86 308.04 232.86 319.37 247.57 327.86 247.57 316.54 232.86 308.04"/><polygon class="cls-7" points="213.25 313.7 213.25 325.03 227.96 333.52 227.96 322.2 213.25 313.7"/><polygon class="cls-7" points="193.63 302.38 193.63 313.7 208.34 322.2 208.34 310.87 193.63 302.38"/><polygon class="cls-7" points="232.86 325.03 232.86 336.35 247.57 344.85 247.57 333.52 232.86 325.03"/><polygon class="cls-7" points="213.25 330.69 213.25 342.01 227.96 350.51 227.96 339.18 213.25 330.69"/><polygon class="cls-7" points="193.63 319.37 193.63 330.69 208.34 339.18 208.34 327.86 193.63 319.37"/><polygon class="cls-7" points="232.86 342.01 232.86 353.34 247.57 361.83 247.57 350.51 232.86 342.01"/><polygon class="cls-7" points="213.25 347.68 213.25 359 227.96 367.49 227.96 356.17 213.25 347.68"/><polygon class="cls-7" points="193.63 336.35 193.63 347.68 208.34 356.17 208.34 344.85 193.63 336.35"/><polygon class="cls-7" points="232.86 359 232.86 370.32 247.57 378.82 247.57 367.49 232.86 359"/><polygon class="cls-7" points="213.25 364.66 213.25 375.99 227.96 384.48 227.96 373.16 213.25 364.66"/><polygon class="cls-7" points="193.63 353.34 193.63 364.66 208.34 373.16 208.34 361.83 193.63 353.34"/><polygon class="cls-17" points="232.86 375.99 232.86 387.31 247.57 395.8 247.57 384.48 232.86 375.99"/><polygon class="cls-18" points="235.34 124.11 250.04 132.59 250.04 129.37 235.34 120.88 235.34 124.11"/><polygon class="cls-19" points="250.04 112.4 235.34 120.88 250.04 129.37 264.73 120.88 250.04 112.4"/><polygon class="cls-20" points="264.73 120.88 264.73 124.11 250.04 132.59 250.04 129.37 264.73 120.88"/><path class="cls-21" d="M251,64.25h0a.8.8,0,0,1-.27.24,2,2,0,0,1-.39.15h-.06a2.12,2.12,0,0,1-.44,0h0a2.4,2.4,0,0,1-.46,0h0a1.34,1.34,0,0,1-.41-.15.66.66,0,0,1-.38-.53l-.16,57.65a.62.62,0,0,0,.37.52.66.66,0,0,0,.19.09l.15.06h.14l.13,0h.52l.16,0,.07,0h.06l.11,0a1.39,1.39,0,0,0,.28-.12h0a.74.74,0,0,0,.16-.12l.08-.09,0,0h0l0,0,0-.07a.24.24,0,0,0,0-.08.17.17,0,0,0,0-.07h0L251.06,64A.48.48,0,0,1,251,64.25Z"/><path class="cls-22" d="M250.69,63.45a.55.55,0,0,1,0,1,2,2,0,0,1-1.8,0,.55.55,0,0,1,0-1A2,2,0,0,1,250.69,63.45Z"/><polygon class="cls-23" points="328.48 255.75 269.64 289.72 308.89 312.21 367.73 278.23 328.48 255.75"/><polygon class="cls-24" points="328.5 258.58 328.5 264.08 279.47 292.39 274.57 289.72 328.5 258.58"/><polygon class="cls-25" points="328.48 264.08 279.44 292.39 308.89 309.21 357.93 280.9 328.48 264.08"/><polygon class="cls-26" points="362.86 278.07 328.5 258.58 328.5 264.08 357.95 280.9 362.86 278.07"/><polygon class="cls-27" points="269.64 413.65 308.86 436.77 308.86 312.21 269.64 289.56 269.64 413.65"/><polygon class="cls-28" points="291.7 359 291.7 370.32 306.41 378.82 306.41 367.49 291.7 359"/><polygon class="cls-29" points="367.7 278.32 308.86 312.21 308.86 436.77 367.7 402.88 367.7 278.32"/><polygon class="cls-7" points="291.7 308.04 291.7 319.37 306.41 327.86 306.41 316.54 291.7 308.04"/><polygon class="cls-7" points="272.09 296.72 272.09 308.04 286.8 316.54 286.8 305.21 272.09 296.72"/><polygon class="cls-7" points="291.7 325.03 291.7 336.35 306.41 344.85 306.41 333.52 291.7 325.03"/><polygon class="cls-7" points="272.09 313.7 272.09 325.03 286.8 333.52 286.8 322.2 272.09 313.7"/><polygon class="cls-7" points="291.7 342.01 291.7 353.34 306.41 361.83 306.41 350.51 291.7 342.01"/><polygon class="cls-7" points="272.09 330.69 272.09 342.01 286.8 350.51 286.8 339.18 272.09 330.69"/><polygon class="cls-7" points="272.09 347.68 272.09 359 286.8 367.49 286.8 356.17 272.09 347.68"/><polygon class="cls-7" points="291.7 375.99 291.7 387.31 306.41 395.8 306.41 384.48 291.7 375.99"/><polygon class="cls-7" points="272.09 364.66 272.09 375.99 286.8 384.48 286.8 373.16 272.09 364.66"/><polygon class="cls-7" points="291.7 392.97 291.7 404.3 306.41 412.79 306.41 401.46 291.7 392.97"/><polygon class="cls-7" points="272.09 381.65 272.09 392.97 286.8 401.46 286.8 390.14 272.09 381.65"/><polygon class="cls-7" points="291.7 409.96 291.7 421.28 306.41 429.77 306.41 418.45 291.7 409.96"/><polygon class="cls-7" points="272.09 398.63 272.09 409.96 286.8 418.45 286.8 407.13 272.09 398.63"/><polygon class="cls-30" points="154.33 245.75 154.33 257.07 169.04 265.56 169.04 254.24 154.33 245.75"/></g></svg>