<svg xmlns="http://www.w3.org/2000/svg" xmlns:xlink="http://www.w3.org/1999/xlink" width="500" height="500" viewBox="0 0 500 500"><defs><style>.cls-1{fill:url(#linear-gradient);}.cls-2{fill:#dcdcdc;}.cls-3{fill:url(#linear-gradient-2);}.cls-4{fill:url(#linear-gradient-3);}</style><linearGradient id="linear-gradient" x1="129.18" y1="235.88" x2="380.28" y2="235.88" gradientUnits="userSpaceOnUse"><stop offset="0" stop-color="#565656"/><stop offset="1" stop-color="#3d3d3d"/></linearGradient><linearGradient id="linear-gradient-2" x1="261.46" y1="291.19" x2="380.36" y2="291.19" gradientUnits="userSpaceOnUse"><stop offset="0" stop-color="#171717"/><stop offset="1" stop-color="#282828"/></linearGradient><linearGradient id="linear-gradient-3" x1="119.64" y1="281.22" x2="271.01" y2="281.22" gradientUnits="userSpaceOnUse"><stop offset="0" stop-color="#3d3d3d"/><stop offset="1" stop-color="#282828"/></linearGradient></defs><g id="Dark_Theme_Objects" data-name="Dark Theme Objects"><path class="cls-1" d="M274.48,306.6l105.8-61.07-141.81-82.4L129.18,226.22c.3-.17.59-.33.88-.46-.28.13-.57.28-.86.45L271,308.62Z"/><path class="cls-2" d="M377.85,260.51c0-5,.8-10.49,2.44-11.44L277.52,308.4l-6.47,3.73,0,0c-3.22,1.87-5.81,7.85-5.8,13.41s2.64,8.47,5.85,6.62l6.54-3.78,102.74-59.31C378.7,270,377.86,265.52,377.85,260.51Z"/><path class="cls-3" d="M271.08,335.78l109.28-63.09v-3.6L277.61,328.4h0l-6.53,3.77c-3.21,1.85-5.84-1.11-5.85-6.62S267.8,314,271,312.15l6.5-3.75h0l102.77-59.33v-3.55L271,308.6l0,0c-5.32,3.06-9.57,11.58-9.55,19.11s4.31,11.12,9.62,8"/><path class="cls-4" d="M271,308.62,129.2,226.21c-5.31,3.07-9.58,11.59-9.56,19.12,0,4.22,1.4,7.22,3.56,8.47L265,336.22c-2.16-1.26-3.53-4.26-3.54-8.49,0-7.53,4.23-16.05,9.55-19.11"/></g></svg>