<svg xmlns="http://www.w3.org/2000/svg" xmlns:xlink="http://www.w3.org/1999/xlink" width="500" height="500" viewBox="0 0 500 500"><defs><style>.cls-1{isolation:isolate;}.cls-2{fill:#282828;}.cls-3{fill:#565656;}.cls-4{fill:#3d3d3d;}.cls-5{fill:url(#linear-gradient);}.cls-6{fill:url(#linear-gradient-2);}.cls-7{fill:url(#linear-gradient-3);}.cls-8{fill:#6f6f6f;}.cls-9{fill:url(#linear-gradient-4);}.cls-10{fill:url(#linear-gradient-5);}.cls-11{fill:url(#linear-gradient-6);}.cls-12{fill:url(#linear-gradient-7);}.cls-13{fill:url(#linear-gradient-8);}.cls-14{fill:url(#linear-gradient-9);}.cls-15{fill:url(#linear-gradient-10);}.cls-16{fill:url(#linear-gradient-11);}.cls-17{fill:#383d42;}.cls-18{fill:url(#linear-gradient-12);}.cls-19{fill:url(#linear-gradient-13);}.cls-20{fill:url(#linear-gradient-14);}.cls-21{fill:url(#linear-gradient-15);}.cls-22{fill:url(#linear-gradient-16);}</style><linearGradient id="linear-gradient" x1="258.87" y1="329.66" x2="317.3" y2="329.66" gradientUnits="userSpaceOnUse"><stop offset="0" stop-color="#565656"/><stop offset="1" stop-color="#6f6f6f"/></linearGradient><linearGradient id="linear-gradient-2" x1="260.37" y1="301.71" x2="306.68" y2="301.71" gradientUnits="userSpaceOnUse"><stop offset="0" stop-color="#3d3d3d"/><stop offset="1" stop-color="#565656"/></linearGradient><linearGradient id="linear-gradient-3" x1="254.71" y1="321.97" x2="258.87" y2="321.97" xlink:href="#linear-gradient-2"/><linearGradient id="linear-gradient-4" x1="218.58" y1="296.44" x2="247.83" y2="296.44" gradientUnits="userSpaceOnUse"><stop offset="0" stop-color="#6f6f6f"/><stop offset="1" stop-color="#565656"/></linearGradient><linearGradient id="linear-gradient-5" x1="244.4" y1="341.19" x2="254.71" y2="341.19" gradientUnits="userSpaceOnUse"><stop offset="0" stop-color="#565656"/><stop offset="1" stop-color="#3d3d3d"/></linearGradient><linearGradient id="linear-gradient-6" x1="235.32" y1="352.01" x2="281.17" y2="272.59" gradientUnits="userSpaceOnUse"><stop offset="0" stop-color="#a4a4a4"/><stop offset="1" stop-color="#8c8c8c"/></linearGradient><linearGradient id="linear-gradient-7" x1="182.21" y1="323.15" x2="247.02" y2="323.15" xlink:href="#linear-gradient"/><linearGradient id="linear-gradient-8" x1="247.83" y1="310.5" x2="259.51" y2="310.5" gradientUnits="userSpaceOnUse"><stop offset="0" stop-color="#8c8c8c"/><stop offset="0.65" stop-color="#565656"/><stop offset="0.8" stop-color="#595959"/><stop offset="0.92" stop-color="#636363"/><stop offset="1" stop-color="#6f6f6f"/></linearGradient><linearGradient id="linear-gradient-9" x1="251.61" y1="307.21" x2="255.73" y2="300.07" xlink:href="#linear-gradient-6"/><linearGradient id="linear-gradient-10" x1="249.48" y1="279.62" x2="257.7" y2="279.62" xlink:href="#linear-gradient-8"/><linearGradient id="linear-gradient-11" x1="249.48" y1="253.25" x2="257.69" y2="253.25" xlink:href="#linear-gradient-6"/><linearGradient id="linear-gradient-12" x1="178.65" y1="245.39" x2="314.4" y2="245.39" xlink:href="#linear-gradient-5"/><linearGradient id="linear-gradient-13" x1="250.86" y1="145.78" x2="324.26" y2="145.78" xlink:href="#linear-gradient-5"/><linearGradient id="linear-gradient-14" x1="246.49" y1="227.33" x2="324.26" y2="227.33" gradientUnits="userSpaceOnUse"><stop offset="0" stop-color="#171717"/><stop offset="1" stop-color="#282828"/></linearGradient><linearGradient id="linear-gradient-15" x1="178.65" y1="268.12" x2="246.49" y2="268.12" gradientUnits="userSpaceOnUse"><stop offset="0" stop-color="#3d3d3d"/><stop offset="1" stop-color="#282828"/></linearGradient><linearGradient id="linear-gradient-16" x1="246.5" y1="186.53" x2="318.91" y2="186.53" xlink:href="#linear-gradient-15"/></defs><g id="Dark_Theme_Objects" data-name="Dark Theme Objects"><g class="cls-1"><path class="cls-2" d="M307.34,294.49a11.52,11.52,0,0,0-3.94,8.27c0,2.92,1.78,3.95,4,2.3a11.5,11.5,0,0,0,3.94-8.26C311.3,293.88,309.53,292.84,307.34,294.49Z"/><path class="cls-3" d="M307.35,296.07a8.09,8.09,0,0,0-2.77,5.79c0,2.05,1.25,2.77,2.79,1.62a8.12,8.12,0,0,0,2.76-5.79C310.12,295.65,308.88,294.92,307.35,296.07Z"/><path class="cls-4" d="M296.58,299.56v-.23a.61.61,0,0,0,0-.14v-.08a1.64,1.64,0,0,1,0-.22c0-.08,0-.15,0-.23v-.08a.59.59,0,0,1,0-.14l0-.23a1.16,1.16,0,0,1,0-.18v0c0-.08,0-.15.05-.22a1.46,1.46,0,0,1,.05-.2l0-.12v0l0-.05c0-.05,0-.11,0-.17s0-.12.05-.18,0-.1.05-.15v0h0l0-.12a.88.88,0,0,0,.05-.15.78.78,0,0,0,.05-.14l.05-.14v0h0a.3.3,0,0,0,0-.1.58.58,0,0,0,.05-.14l.07-.15.06-.16v0h0a.77.77,0,0,1,.07-.16l.12-.27,0-.05c.1-.22.2-.44.32-.65h0l.14-.25.1-.18.05-.08v0l0,0,.1-.15.09-.14.09-.14v0h0l.07-.11.11-.15.1-.14.05-.06,0,0L299,293c0-.06.09-.12.14-.17a1.15,1.15,0,0,1,.14-.17l0,0v0l.13-.14.16-.18.06-.07,0,0a.46.46,0,0,0,.07-.07l.17-.16.12-.11,0,0,0,0,.17-.14.16-.14,0,0,.12-.09.17-.11.07,0,0,0,0,0,.16-.09.13-.07h0l.16-.07.16-.07h0l.13,0,.17-.05H302l.13,0,.17,0h.45l.08,0,.14,0H303l.16.07h0l6.82,3-.22-.08-.14,0-.16,0h-.37l-.3.05h0l-.32.09h0l-.34.15h0c-.11.05-.22.12-.34.19l0,0-.36.25-.39.32,0,0c-.12.1-.24.22-.36.34l0,0-.34.38,0,0c-.12.14-.24.28-.35.43l0,0-.33.46h0l-.32.5v0c-.1.17-.2.34-.29.52s-.22.42-.32.64-.15.32-.22.48h0c-.08.19-.15.38-.22.57h0c-.07.19-.13.38-.19.58h0c-.06.19-.12.38-.17.57v0c-.05.19-.09.38-.13.57v0a5.07,5.07,0,0,0-.09.54v0c0,.18,0,.36-.05.54v0c0,.18,0,.36,0,.54s0,.37,0,.54v0c0,.16,0,.31.07.46v0a4,4,0,0,0,.09.4.14.14,0,0,1,0,.06c0,.13.09.24.13.35l.06.11c0,.07.08.15.12.21l.07.11c.05.06.09.12.14.17l.08.09.16.15.08.06a1.82,1.82,0,0,0,.27.15h0l-6.82-3a1.91,1.91,0,0,1-.27-.16s-.05,0-.08-.06l-.16-.14-.08-.09a2.09,2.09,0,0,1-.14-.17l-.07-.11a.21.21,0,0,1,0-.06.8.8,0,0,1-.08-.16l-.06-.11,0,0-.09-.25s0,0,0-.06a.14.14,0,0,0,0-.06l0-.12-.06-.23v-.09l0-.13,0-.21a.49.49,0,0,0,0-.12v0s0,0,0-.06,0-.14,0-.22a1.48,1.48,0,0,0,0-.21v-.06A.86.86,0,0,1,296.58,299.56Z"/></g><g class="cls-1"><path class="cls-2" d="M318,342.43c-3.5.42-6.34,3.12-6.33,6.05s2.86,4.94,6.36,4.52,6.35-3.13,6.34-6.05S321.51,342,318,342.43Z"/><path class="cls-4" d="M309.93,343.56c0-.1,0-.19,0-.28a1.49,1.49,0,0,0,0-.21V343c0-.09,0-.18,0-.27a1.6,1.6,0,0,1,.05-.21v0c0-.08,0-.17.07-.26a1.87,1.87,0,0,1,.07-.22v0h0c0-.09.07-.18.1-.26l.1-.22v0c0-.09.09-.19.14-.28l.09-.15a.43.43,0,0,0,0-.07l0-.06.2-.3,0,0,.07-.1.13-.17.11-.13.14-.15.07-.09.12-.11.28-.27.09-.09.07-.05a7.38,7.38,0,0,1,.77-.58l.13-.09a8.39,8.39,0,0,1,.89-.48l0,0,.19-.08.38-.15.06,0,.4-.13.08,0h0l.43-.11.12,0,.12,0,.14,0,.36-.06h.09l.26,0,.33,0h.62l.3,0,.29,0,.27,0h0l.3.06.3.08a2.8,2.8,0,0,1,.31.09h0l.31.11.35.15.15.08.09.05.14.07c.15.09.3.18.44.28l.07.06c.06,0,.12.1.18.15a4.89,4.89,0,0,1,.41.37,1.62,1.62,0,0,1,.18.2,4.59,4.59,0,0,1,.33.44l.13.2a4.37,4.37,0,0,1,.33.69l1.72,4.89a3.45,3.45,0,0,0-.33-.7l-.13-.2a4.35,4.35,0,0,0-.32-.43l-.18-.2-.41-.38-.19-.15a4.77,4.77,0,0,0-.65-.41l-.09-.05a6.38,6.38,0,0,0-.8-.33h0a5.5,5.5,0,0,0-.93-.23h0a7.92,7.92,0,0,0-1-.09h0a7.57,7.57,0,0,0-1.05.06c-.2,0-.39.05-.59.09l-.11,0-.57.13-.07,0-.47.16c-.13,0-.25.1-.37.15l-.23.09a8.29,8.29,0,0,0-.88.49l-.14.08a7.25,7.25,0,0,0-.76.58l-.16.14a3.83,3.83,0,0,0-.29.28l-.19.19c0,.06-.09.11-.13.16a3.07,3.07,0,0,0-.24.29l-.08.1a4.94,4.94,0,0,0-.27.42l-.05.07c-.08.14-.16.29-.23.44l0,0c-.07.16-.14.32-.2.48v0a4.91,4.91,0,0,0-.15.51v0a4.54,4.54,0,0,0-.09.51v0a4.41,4.41,0,0,0,0,.52,3.82,3.82,0,0,0,.06.68s0,0,0,.08a4.64,4.64,0,0,0,.17.64L310.17,345s0-.08,0-.12-.07-.25-.1-.37,0-.1,0-.15,0-.05,0-.07a.36.36,0,0,0,0-.11l0-.31c0-.09,0-.18,0-.27Z"/></g><path class="cls-3" d="M318,344c-2.46.3-4.44,2.19-4.43,4.24s2,3.46,4.45,3.16,4.44-2.19,4.44-4.23S320.46,343.72,318,344Z"/><g class="cls-1"><path class="cls-2" d="M239.92,364.2c-2.83-1.25-5.14.14-5.15,3.08a9.07,9.07,0,0,0,5.1,7.61c2.83,1.25,5.14-.12,5.15-3.08A9.08,9.08,0,0,0,239.92,364.2Z"/><path class="cls-3" d="M239.91,365.81c-2-.88-3.59.09-3.6,2.15a6.36,6.36,0,0,0,3.57,5.33c2,.88,3.59-.09,3.6-2.16A6.34,6.34,0,0,0,239.91,365.81Z"/><path class="cls-4" d="M238.46,363.79l-.14,0-.24,0h-.41a1.53,1.53,0,0,0-.3,0l-.13,0-.32.08-.08,0a1.94,1.94,0,0,0-.36.15l-.08,0a2.14,2.14,0,0,0-.32.2h0l5.27-3.84.18-.13.14-.07.08,0a.05.05,0,0,0,0,0l.29-.12h0l.09,0,.19-.06.12,0,.13,0,.09,0,.22,0h.68l.1,0c.18,0,.36.06.55.11l.11,0,.08,0a5.2,5.2,0,0,1,.72.26,7.08,7.08,0,0,1,.77.41l.09,0,.06.05a6,6,0,0,1,.66.46l0,0,.17.15.27.22,0,.05.22.21.15.14,0,0c.11.12.23.24.34.37v0l.06.07.24.28.06.09.11.13.11.15.13.2.08.12,0,.05a4.11,4.11,0,0,1,.24.39l0,0,.05.08.16.29a1.17,1.17,0,0,0,0,.11l.09.17.07.15c0,.06,0,.13.08.19a1.54,1.54,0,0,1,.08.19.36.36,0,0,1,0,.09c0,.07.05.15.08.22l.09.25,0,.07a.94.94,0,0,0,0,.16c0,.13.08.27.11.4l0,.11s0,.08,0,.12.06.31.08.47l0,.2q0,.33,0,.66a3.56,3.56,0,0,1-1.3,3l-5.28,3.84a3.53,3.53,0,0,0,1.31-3,4.82,4.82,0,0,0,0-.65,1.49,1.49,0,0,0,0-.21c0-.15-.05-.31-.08-.47a1.89,1.89,0,0,1,0-.23c0-.13-.07-.27-.11-.4a2,2,0,0,1-.07-.23l-.09-.25-.12-.31c0-.06-.05-.12-.08-.19s-.1-.23-.16-.34,0-.11-.08-.16-.14-.27-.22-.4a.41.41,0,0,0-.05-.09c-.09-.16-.19-.32-.29-.47l-.08-.12-.25-.35-.1-.13-.3-.37-.06-.07c-.12-.14-.25-.28-.38-.41l-.15-.15-.27-.25-.27-.23-.2-.17c-.22-.16-.44-.32-.66-.46l-.15-.09a8.14,8.14,0,0,0-.77-.41,5.13,5.13,0,0,0-.72-.25l-.19-.06C238.82,363.85,238.64,363.81,238.46,363.79Z"/></g><g class="cls-1"><path class="cls-2" d="M218.18,287.32c-3.2-1-5.94.52-6.13,3.48s2.24,6.2,5.43,7.25,6-.52,6.14-3.48S221.37,288.36,218.18,287.32Z"/><path class="cls-4" d="M223.6,293.75c0-.14,0-.28,0-.42s0-.16-.05-.23-.06-.27-.1-.4l-.06-.23-.15-.4a1.8,1.8,0,0,0-.08-.21,4.9,4.9,0,0,0-.24-.52.3.3,0,0,1,0-.08l-.13-.21a3.14,3.14,0,0,0-.18-.31l-.07-.11-.25-.37-.11-.13-.25-.32-.12-.13-.3-.32-.09-.09-.41-.38-.11-.09-.33-.27-.16-.11a3.62,3.62,0,0,0-.32-.22l-.17-.11-.32-.18a1.55,1.55,0,0,0-.22-.12l-.21-.1-.41-.19-.49-.18a7.1,7.1,0,0,0-.85-.22l-.64-.09H216l-.25,0-.4,0-.26.06-.37.1-.17.06-.49.22h0a3.76,3.76,0,0,0-.47.3l-.08.06a5.14,5.14,0,0,0-.42.38l3.85-4.14.1-.09a2,2,0,0,1,.26-.24.18.18,0,0,1,.07-.05l.08-.06.14-.11a3.37,3.37,0,0,1,.32-.19h0a2.92,2.92,0,0,1,.36-.17l.13-.05.17-.06.15,0L219,283l.26-.06.11,0a2.58,2.58,0,0,1,.29,0l.25,0a3.89,3.89,0,0,1,.48,0h.23a5.21,5.21,0,0,1,.55.08h.06a6.45,6.45,0,0,1,.84.21l.42.15.08,0,.41.18.16.08.05,0,.22.12.25.14.07.05.17.11.2.13.12.09.15.11.12.09.22.18.11.09,0,0,.34.31,0,0,.09.1a2,2,0,0,1,.2.21l.1.11.12.13.09.11.16.2.1.14,0,.05.21.32.07.11h0l.17.29c0,.08.09.14.13.22h0s0,0,0,.07.17.34.24.51l0,.06c0,.05,0,.1.05.15l.15.41.06.23c0,.13.07.26.1.39a2,2,0,0,1,0,.24c0,.14,0,.28.06.42a1.5,1.5,0,0,0,0,.2c0,.2,0,.41,0,.62a4.07,4.07,0,0,1-1,2.53l-3.86,4.14a4.07,4.07,0,0,0,1-2.53c0-.21,0-.41,0-.62A1.36,1.36,0,0,1,223.6,293.75Z"/><path class="cls-3" d="M218.07,288.93c-2.23-.73-4.15.36-4.29,2.43a5.48,5.48,0,0,0,3.81,5.08c2.24.73,4.16-.37,4.29-2.44A5.45,5.45,0,0,0,218.07,288.93Z"/></g><g class="cls-1"><path class="cls-4" d="M175.64,334c0-.07,0-.14,0-.22s0-.07,0-.1v0s0-.06,0-.08,0-.15,0-.23a2.23,2.23,0,0,1,0-.23h0a1.55,1.55,0,0,1,0-.21c0-.08,0-.16,0-.24a.29.29,0,0,0,0-.09l0-.05a.36.36,0,0,1,0-.1l.06-.24L176,332v-.06c0-.08.05-.16.08-.23a2.25,2.25,0,0,1,.08-.24l0,0v0a.78.78,0,0,0,.05-.14l.09-.22.08-.18v0a1.47,1.47,0,0,0,.1-.22l.12-.24,0,0,0-.05.08-.16a3.72,3.72,0,0,1,.19-.34h0c.13-.22.26-.43.4-.64a.16.16,0,0,0,0-.07l.21-.29,0-.06,0,0,.19-.25.15-.19,0,0h0a1.63,1.63,0,0,1,.17-.2l.18-.2,0,0,0,0,.13-.14.19-.19.06-.05.05,0,.1-.1.2-.17.09-.08,0,0,.07-.06.2-.15.15-.11,0,0,0,0,.19-.13.2-.11,0,0,.15-.08.19-.1.12-.06h0l0,0,.19-.08.18-.07h.06l.12,0,.19-.05.09,0h.1l.2,0h.66l.26,0h0l.28.08h0a1.58,1.58,0,0,1,.35.16l6.09,3.51-.35-.16-.3-.08h0a2,2,0,0,0-.35,0h-.46l-.38.06h0l-.4.12h0l-.43.17,0,0-.45.23a4.53,4.53,0,0,0-.46.3l0,0-.42.31,0,0-.39.34-.05.05-.38.38,0,0c-.13.14-.26.29-.38.44h0c-.12.15-.24.31-.35.47l-.05.06-.25.36c-.13.21-.27.42-.39.64s-.19.33-.28.5l0,.06a5.12,5.12,0,0,0-.25.53v0c-.08.18-.15.35-.22.53v0c-.07.18-.13.37-.18.55v0c-.05.17-.1.35-.14.53v0c0,.18-.08.36-.11.54h0c0,.18,0,.36-.07.54v0c0,.18,0,.36,0,.54s0,.34,0,.5v.05a2.83,2.83,0,0,0,.06.42v.06c0,.13.06.26.1.38a.25.25,0,0,1,0,.07,2.52,2.52,0,0,0,.13.33l0,0a2.21,2.21,0,0,0,.18.34,2.37,2.37,0,0,0,.32.39l.08.08a2.71,2.71,0,0,0,.39.3L177,337.19a2.19,2.19,0,0,1-.39-.29l-.08-.09a1.76,1.76,0,0,1-.32-.39h0a3.07,3.07,0,0,1-.17-.31h0v0l-.09-.22a.56.56,0,0,1,0-.12l0-.06a.14.14,0,0,1,0-.07l-.06-.23s0-.06,0-.09v0s0-.06,0-.08l0-.22a.62.62,0,0,1,0-.13v-.1c0-.07,0-.14,0-.21v-.23h0Z"/><path class="cls-2" d="M186.3,329.8a10.17,10.17,0,0,0-4.57,8c0,2.91,2.07,4.09,4.6,2.62a10.17,10.17,0,0,0,4.57-7.95C190.89,329.51,188.83,328.33,186.3,329.8Z"/></g><path class="cls-3" d="M186.3,331.39a7.12,7.12,0,0,0-3.2,5.57c0,2,1.45,2.86,3.22,1.83a7.06,7.06,0,0,0,3.2-5.56C189.51,331.18,188.07,330.36,186.3,331.39Z"/><polygon class="cls-5" points="317.3 341.82 258.87 325.24 258.87 317.5 315.49 334.15 317.3 336.47 317.3 341.82"/><polygon class="cls-3" points="319.55 334.13 317.69 331.95 315.49 334.15 317.3 336.47 319.55 334.13"/><polygon class="cls-4" points="319.55 334.13 319.55 339.57 317.3 341.82 317.3 336.47 319.55 334.13"/><polygon class="cls-6" points="306.68 288.16 305.1 286.67 260.37 312.63 260.78 315.1 266.33 316.74 306.68 293.34 306.68 288.16"/><polygon class="cls-7" points="258.87 325.24 258.87 317.5 254.71 318.7 254.71 326.44 258.87 325.24"/><polygon class="cls-8" points="246.91 324.05 248.49 324.78 250.21 318.42 247.02 316.44 246.91 324.05"/><polygon class="cls-9" points="218.58 285.36 218.58 279.23 219.52 278.76 247.83 310.91 247.83 312.26 246.29 313.92 244.05 314.12 218.58 285.36"/><polygon class="cls-3" points="244.74 354.95 244.4 357.76 240.07 357.73 240.35 354.92 244.74 354.95"/><polygon class="cls-4" points="240.07 357.73 244.4 357.76 244.4 363.67 240.07 363.65 240.07 357.73"/><polygon class="cls-10" points="254.71 326.44 244.4 363.67 244.4 357.76 244.74 354.95 254.71 318.7 254.71 326.44"/><polygon class="cls-3" points="183.27 319.57 184.15 322.16 182.21 324.02 181.47 321.44 183.27 319.57"/><polygon class="cls-4" points="182.21 324.02 182.21 329.87 181.5 327.66 181.47 321.44 182.21 324.02"/><polygon class="cls-11" points="260.78 315.1 260.37 312.63 305.1 286.67 302.15 284.7 259.51 309.35 251.64 308.97 223.48 277.48 219.52 278.76 247.83 310.91 246.29 313.92 183.27 319.57 184.15 322.16 247.02 316.44 250.21 318.42 240.35 354.92 244.74 354.95 254.71 318.7 258.87 317.5 315.49 334.15 317.69 331.95 260.78 315.1"/><polygon class="cls-12" points="247.02 316.44 184.15 322.16 182.21 324.02 182.21 329.87 246.91 324.05 247.02 316.44"/><path class="cls-13" d="M259.5,303.63H247.83V314a3,3,0,0,0,1.78,2.42,9.12,9.12,0,0,0,8.22-.06A2.92,2.92,0,0,0,259.5,314Z"/><ellipse class="cls-14" cx="253.67" cy="303.64" rx="5.83" ry="3.37"/><path class="cls-15" d="M257.69,253.25h-8.21v50.37a2.09,2.09,0,0,0,1.25,1.7,6.42,6.42,0,0,0,5.79,0,2,2,0,0,0,1.17-1.66Z"/><ellipse class="cls-16" cx="253.59" cy="253.25" rx="4.11" ry="2.37"/><polygon class="cls-17" points="319.41 248.7 246.49 290.84 178.65 251.58 251.47 209.48 319.41 248.7"/><polygon class="cls-18" points="314.4 245.33 246.49 284.67 178.65 245.4 246.49 206.12 314.4 245.33"/><polygon class="cls-19" points="324.26 163.82 318.91 166.91 250.86 127.73 256.21 124.64 324.26 163.82"/><polygon class="cls-20" points="246.49 284.67 246.49 290.84 319.41 248.7 324.26 163.82 318.91 166.91 314.4 245.33 246.49 284.67"/><polygon class="cls-21" points="178.65 245.4 178.65 251.58 246.49 290.84 246.49 284.67 178.65 245.4"/><polygon class="cls-22" points="318.91 166.91 314.43 245.32 246.5 206.1 250.86 127.73 318.91 166.91"/></g></svg>