<svg xmlns="http://www.w3.org/2000/svg" width="500" height="500" viewBox="0 0 500 500"><defs><style>.cls-1{isolation:isolate;}.cls-2{fill:#bebebe;}.cls-3{fill:#f3f3f3;}.cls-4{fill:#dcdcdc;}.cls-5{fill:#8bc0ff;}.cls-6{fill:#1a89ff;}</style></defs><g id="Dark_Theme_Objects" data-name="Dark Theme Objects"><g class="cls-1"><polygon class="cls-2" points="311.96 349.72 317.36 346.58 317.8 192.13 312.4 195.27 311.96 349.72"/><polygon class="cls-3" points="312.4 195.27 317.8 192.13 216.51 133.65 211.11 136.79 312.4 195.27"/><polygon class="cls-4" points="211.11 136.79 210.67 291.24 311.96 349.72 312.4 195.27 211.11 136.79"/></g><g class="cls-1"><polygon class="cls-2" points="297.83 358.2 303.24 355.06 303.68 200.6 298.27 203.74 297.83 358.2"/><polygon class="cls-3" points="298.27 203.74 303.68 200.6 202.39 142.13 196.99 145.26 298.27 203.74"/><polygon class="cls-4" points="196.99 145.26 196.55 299.72 297.83 358.2 298.27 203.74 196.99 145.26"/></g><g class="cls-1"><polygon class="cls-2" points="283.49 366.35 288.89 363.21 289.33 208.76 283.92 211.9 283.49 366.35"/><polygon class="cls-3" points="283.92 211.9 289.33 208.76 188.04 150.28 182.64 153.42 283.92 211.9"/><polygon class="cls-4" points="182.64 153.42 182.2 307.87 283.49 366.35 283.92 211.9 182.64 153.42"/></g><polygon class="cls-5" points="188.82 236.87 188.8 246.15 277.24 297.21 277.27 287.93 188.82 236.87"/><polygon class="cls-5" points="188.94 197.31 188.91 206.59 277.35 257.65 277.38 248.38 188.94 197.31"/><polygon class="cls-6" points="217.64 194.06 217.62 203.34 277.41 237.86 277.44 228.59 217.64 194.06"/><polygon class="cls-5" points="188.88 217.11 188.85 226.38 277.3 277.45 277.32 268.17 188.88 217.11"/><polygon class="cls-5" points="188.71 276.45 188.69 285.73 277.13 336.79 277.16 327.51 188.71 276.45"/><polygon class="cls-5" points="188.77 256.66 188.74 265.94 277.19 317 277.21 307.72 188.77 256.66"/></g></svg>