<svg xmlns="http://www.w3.org/2000/svg" xmlns:xlink="http://www.w3.org/1999/xlink" width="500" height="500" viewBox="0 0 500 500"><defs><style>.cls-1{fill:url(#linear-gradient);}.cls-2{fill:url(#linear-gradient-2);}.cls-3{fill:url(#linear-gradient-3);}.cls-4{fill:url(#linear-gradient-4);}.cls-5{fill:#bdbdbd;}.cls-6{fill:url(#linear-gradient-5);}.cls-7{fill:#171717;}.cls-8{fill:#565656;}.cls-9{fill:#3d3d3d;}.cls-10{fill:url(#linear-gradient-6);}</style><linearGradient id="linear-gradient" x1="251.02" y1="273.23" x2="331.52" y2="273.23" gradientUnits="userSpaceOnUse"><stop offset="0" stop-color="#171717"/><stop offset="1" stop-color="#282828"/></linearGradient><linearGradient id="linear-gradient-2" x1="170.55" y1="273.24" x2="251.02" y2="273.24" gradientUnits="userSpaceOnUse"><stop offset="0" stop-color="#3d3d3d"/><stop offset="1" stop-color="#282828"/></linearGradient><linearGradient id="linear-gradient-3" x1="173.02" y1="273.24" x2="248.56" y2="273.24" gradientUnits="userSpaceOnUse"><stop offset="0" stop-color="#282828"/><stop offset="1"/></linearGradient><linearGradient id="linear-gradient-4" x1="230.91" y1="222.91" x2="271.16" y2="153.19" gradientUnits="userSpaceOnUse"><stop offset="0" stop-color="#565656"/><stop offset="1" stop-color="#3d3d3d"/></linearGradient><linearGradient id="linear-gradient-5" x1="168.48" y1="243.43" x2="248.98" y2="243.43" xlink:href="#linear-gradient-2"/><linearGradient id="linear-gradient-6" x1="168.48" y1="305.4" x2="248.98" y2="305.4" xlink:href="#linear-gradient-2"/></defs><g id="Dark_Theme_Objects" data-name="Dark Theme Objects"><polygon class="cls-1" points="331.52 311.94 251.02 358.42 251.02 234.51 331.52 188.03 331.52 311.94"/><polygon class="cls-2" points="170.55 188.06 251.02 234.51 251.02 358.42 170.55 311.95 170.55 188.06"/><polygon class="cls-3" points="173.02 193.28 248.56 236.89 248.56 353.2 173.02 309.58 173.02 193.28"/><polygon class="cls-4" points="251.02 141.58 170.55 188.06 251.02 234.51 331.52 188.03 251.02 141.58"/><polygon class="cls-5" points="170.53 189.39 191.16 201.3 198.51 212.96 223.06 227.12 230.41 223.95 251.04 235.86 251.04 295.11 170.53 248.64 170.53 189.39"/><polygon class="cls-6" points="168.48 190.57 189.11 202.47 196.46 214.13 221 228.3 228.35 225.13 248.98 237.04 248.98 296.29 168.48 249.82 168.48 190.57"/><polygon class="cls-7" points="251.04 235.85 248.98 237.04 248.98 296.29 251.04 295.1 251.04 235.85"/><polygon class="cls-8" points="198.51 212.96 196.46 214.13 221 228.3 223.06 227.12 198.51 212.96"/><polygon class="cls-8" points="170.53 189.39 168.48 190.57 189.11 202.47 191.16 201.3 170.53 189.39"/><polygon class="cls-8" points="251.04 235.86 230.41 223.95 228.35 225.13 248.98 237.04 251.04 235.86"/><polygon class="cls-9" points="191.16 201.3 189.11 202.47 196.46 214.13 198.51 212.96 191.16 201.3"/><polygon class="cls-9" points="223.06 227.12 230.41 223.95 228.35 225.13 221 228.3 223.06 227.12"/><polygon class="cls-5" points="170.53 251.37 191.16 263.27 198.51 274.93 223.06 289.1 230.41 285.93 251.04 297.84 251.04 357.09 170.53 310.62 170.53 251.37"/><polygon class="cls-10" points="168.48 252.54 189.11 264.45 196.46 276.11 221 290.28 228.35 287.11 248.98 299.01 248.98 358.26 168.48 311.79 168.48 252.54"/><polygon class="cls-7" points="251.04 297.83 248.98 299.01 248.98 358.26 251.04 357.08 251.04 297.83"/><polygon class="cls-8" points="198.51 274.93 196.46 276.11 221 290.28 223.06 289.1 198.51 274.93"/><polygon class="cls-8" points="170.53 251.37 168.48 252.54 189.11 264.45 191.16 263.27 170.53 251.37"/><polygon class="cls-8" points="251.04 297.84 230.41 285.93 228.35 287.11 248.98 299.01 251.04 297.84"/><polygon class="cls-9" points="191.16 263.27 189.11 264.45 196.46 276.11 198.51 274.93 191.16 263.27"/><polygon class="cls-9" points="223.06 289.1 230.41 285.93 228.35 287.11 221 290.28 223.06 289.1"/></g></svg>