<svg xmlns="http://www.w3.org/2000/svg" xmlns:xlink="http://www.w3.org/1999/xlink" width="500" height="500" viewBox="0 0 500 500"><defs><style>.cls-1{opacity:0.9;fill:url(#linear-gradient);}.cls-2{fill:url(#linear-gradient-2);}.cls-3{fill:url(#linear-gradient-3);}.cls-4{fill:#6f6f6f;}</style><linearGradient id="linear-gradient" x1="349.07" y1="248.24" x2="154.97" y2="323.77" gradientUnits="userSpaceOnUse"><stop offset="0"/><stop offset="1" stop-color="#171717" stop-opacity="0"/></linearGradient><linearGradient id="linear-gradient-2" x1="187.24" y1="223" x2="327.61" y2="223" gradientUnits="userSpaceOnUse"><stop offset="0" stop-color="#3d3d3d"/><stop offset="1" stop-color="#282828"/></linearGradient><linearGradient id="linear-gradient-3" x1="261.24" y1="285.97" x2="361.33" y2="285.97" xlink:href="#linear-gradient-2"/></defs><g id="Dark_Theme_Objects" data-name="Dark Theme Objects"><path class="cls-1" d="M169.16,332.25c40.49,23.38,106.11,23.37,146.33,0s40-61.39-.47-84.76-106.11-23.37-146.33,0-40,61.39.47,84.76"/><path class="cls-2" d="M327.61,218c.47-22.8-26.15-40.42-49.85-46.8a141,141,0,0,0-35-5.42,178.46,178.46,0,0,0-20.42.52c-8.8.63-18,4.3-26.59,1.09-3.92-1.28-8.24-4.1-8.3-8.4l-.2,69c.06,4.48,4.79,7.38,8.83,8.58,8.54,2.94,17.36-.51,26-1.11a154.53,154.53,0,0,1,26.78-.34C278.72,237,326.3,252.46,327.41,287h0Z"/><path class="cls-3" d="M361.07,220.36c-2.51,19.39-16,34.67-30.82,44.83-10.16,7-21.52,11.78-33.34,15.5-5.54,1.59-11.39,3.55-17.3,3.92-6.63.25-17.28-2.23-18.12-9.51L261.24,344a6.42,6.42,0,0,0,1.27,3.72c2.7,3.67,7.81,5.35,12.27,5.86,7.83,1,15.56-2.18,22.89-4.18,20.83-6.91,41.73-17.63,54.6-35.95a48.35,48.35,0,0,0,8.26-20.61,45,45,0,0,0,.44-5.67l.36-69C361.33,218.91,361.11,219.64,361.07,220.36Z"/><path class="cls-4" d="M324.8,167.22c72.52,44.24,25.45,103.13-40.18,116.8-6.43,1.52-13.59.55-18.24-2.13-8.29-4.66-5.75-13.35,5.49-15.89,47.77-9.94,82.07-52.82,29.26-85C277,167,241.86,162.17,209.51,168.33c-6.23,1.17-12.79.12-17.13-2.38-8.81-5-5.22-14,6.58-16.11C243.41,141.4,291.61,148.06,324.8,167.22Z"/></g></svg>