<svg xmlns="http://www.w3.org/2000/svg" xmlns:xlink="http://www.w3.org/1999/xlink" width="500" height="500" viewBox="0 0 500 500"><defs><style>.cls-1{isolation:isolate;}.cls-2{fill:#bebebe;}.cls-3{fill:#f3f3f3;}.cls-4{fill:#dcdcdc;}.cls-5{fill:#8bc0ff;}.cls-6{fill:#1a89ff;}.cls-7{fill:#408bfc;}.cls-8{fill:url(#linear-gradient);}.cls-9{fill:url(#linear-gradient-2);}.cls-10{fill:url(#linear-gradient-3);}.cls-11{fill:url(#linear-gradient-4);}.cls-12{fill:url(#linear-gradient-5);}.cls-13{fill:url(#linear-gradient-6);}.cls-14{opacity:0.25;}.cls-15{fill:url(#linear-gradient-7);}</style><linearGradient id="linear-gradient" x1="-2873.46" y1="327.71" x2="-2854.48" y2="320.8" gradientTransform="matrix(-1, 0, 0, 1, -2681.05, 0)" gradientUnits="userSpaceOnUse"><stop offset="0" stop-color="#0062ff"/><stop offset="0.03" stop-color="#015df8"/><stop offset="0.12" stop-color="#0353e7"/><stop offset="0.22" stop-color="#054cdd"/><stop offset="0.35" stop-color="#054ada"/><stop offset="1" stop-color="#0062ff"/></linearGradient><linearGradient id="linear-gradient-2" x1="-2884.81" y1="285.21" x2="-2871.58" y2="285.21" gradientTransform="matrix(-0.34, -0.94, -0.94, 0.34, -518.13, -2517.24)" gradientUnits="userSpaceOnUse"><stop offset="0" stop-color="#a2a2a2"/><stop offset="0" stop-color="#a2a2a2"/><stop offset="0.22" stop-color="#949494"/><stop offset="0.49" stop-color="#8c8c8c"/><stop offset="1" stop-color="#8a8a8a"/></linearGradient><linearGradient id="linear-gradient-3" x1="-2884.58" y1="292.42" x2="-2867.41" y2="292.42" gradientTransform="matrix(-1, 0, 0, 1, -2681.05, 0)" gradientUnits="userSpaceOnUse"><stop offset="0" stop-color="#6f6f6f"/><stop offset="0.07" stop-color="#5b5b5b"/><stop offset="0.15" stop-color="#4a4a4a"/><stop offset="0.24" stop-color="#404040"/><stop offset="0.35" stop-color="#3d3d3d"/><stop offset="1" stop-color="#6f6f6f"/></linearGradient><linearGradient id="linear-gradient-4" x1="-2716.45" y1="294.51" x2="-2688.54" y2="234.65" gradientTransform="matrix(-1, 0, 0, 1, -2507.1, 0)" gradientUnits="userSpaceOnUse"><stop offset="0" stop-color="#3d3d3d"/><stop offset="1" stop-color="#565656"/></linearGradient><linearGradient id="linear-gradient-5" x1="-2734.17" y1="291.66" x2="-2702.07" y2="222.82" gradientTransform="matrix(-1, 0, 0, 1, -2507.1, 0)" gradientUnits="userSpaceOnUse"><stop offset="0" stop-color="#565656"/><stop offset="0.01" stop-color="#515151"/><stop offset="0.04" stop-color="#464646"/><stop offset="0.08" stop-color="#3f3f3f"/><stop offset="0.21" stop-color="#3d3d3d"/><stop offset="0.57" stop-color="#6f6f6f"/><stop offset="1" stop-color="#8c8c8c"/></linearGradient><linearGradient id="linear-gradient-6" x1="169.51" y1="265" x2="222.6" y2="265" gradientUnits="userSpaceOnUse"><stop offset="0" stop-color="#6f6f6f"/><stop offset="1" stop-color="#565656"/></linearGradient><linearGradient id="linear-gradient-7" x1="173.03" y1="265" x2="219.09" y2="265" gradientUnits="userSpaceOnUse"><stop offset="0" stop-color="#97c1ff"/><stop offset="1" stop-color="#408bfc"/></linearGradient></defs><g id="Dark_Theme_Objects" data-name="Dark Theme Objects"><g class="cls-1"><polygon class="cls-2" points="328.27 349.72 333.67 346.58 334.11 192.13 328.71 195.27 328.27 349.72"/><polygon class="cls-3" points="328.71 195.27 334.11 192.13 232.82 133.65 227.42 136.79 328.71 195.27"/><polygon class="cls-4" points="227.42 136.79 226.98 291.24 328.27 349.72 328.71 195.27 227.42 136.79"/></g><g class="cls-1"><polygon class="cls-2" points="314.14 358.2 319.54 355.06 319.98 200.6 314.58 203.74 314.14 358.2"/><polygon class="cls-3" points="314.58 203.74 319.98 200.6 218.69 142.13 213.29 145.26 314.58 203.74"/><polygon class="cls-4" points="213.29 145.26 212.85 299.72 314.14 358.2 314.58 203.74 213.29 145.26"/></g><g class="cls-1"><polygon class="cls-2" points="299.79 366.35 305.19 363.21 305.63 208.76 300.23 211.9 299.79 366.35"/><polygon class="cls-3" points="300.23 211.9 305.63 208.76 204.34 150.28 198.94 153.42 300.23 211.9"/><polygon class="cls-4" points="198.94 153.42 198.5 307.87 299.79 366.35 300.23 211.9 198.94 153.42"/></g><polygon class="cls-5" points="205.13 236.87 205.1 246.15 293.55 297.21 293.57 287.93 205.13 236.87"/><polygon class="cls-5" points="205.24 197.31 205.22 206.59 293.66 257.65 293.69 248.38 205.24 197.31"/><polygon class="cls-6" points="233.95 194.06 233.92 203.34 293.72 237.86 293.74 228.59 233.95 194.06"/><polygon class="cls-5" points="205.19 217.11 205.16 226.38 293.61 277.45 293.63 268.17 205.19 217.11"/><polygon class="cls-5" points="205.02 276.45 204.99 285.73 293.44 336.79 293.46 327.51 205.02 276.45"/><polygon class="cls-5" points="205.08 256.66 205.05 265.94 293.49 317 293.52 307.72 205.08 256.66"/><g class="cls-1"><ellipse class="cls-7" cx="192.69" cy="297.39" rx="7.44" ry="10.09" transform="translate(-152.64 376.88) rotate(-70.02)"/><path class="cls-8" d="M166,343.55a5.9,5.9,0,0,1,.25-2.89l17-46.72c-2.78,9.56,15,16,19,6.91l-17,46.71a6.37,6.37,0,0,1-3.65,3.6C175.68,353.51,167.26,350,166,343.55Z"/></g><g class="cls-1"><ellipse class="cls-9" cx="197.14" cy="285.21" rx="5.02" ry="6.8" transform="translate(-138.26 373.05) rotate(-70.02)"/><path class="cls-10" d="M186.41,296.32l0-.22s0-.07,0-.1v0a.62.62,0,0,1,0-.13v-.43s0,0,0,0a3.56,3.56,0,0,1,.06-.44v0l0-.06a2.25,2.25,0,0,1,.09-.35s0,0,0-.05,0-.05,0-.08l4.17-11.49,0,.13a2,2,0,0,0-.09.35.24.24,0,0,0,0,.08,3.32,3.32,0,0,0-.06.44.76.76,0,0,0,0,.15v.32a.49.49,0,0,0,0,.12.53.53,0,0,0,0,.13,1.6,1.6,0,0,0,0,.23.68.68,0,0,0,0,.14c0,.07,0,.15.05.22a.83.83,0,0,0,0,.15,1.8,1.8,0,0,0,.05.19l0,.15a1.07,1.07,0,0,1,.07.19l.07.15.09.19a1,1,0,0,0,.07.15l.1.19.09.15.12.19.1.14a2.43,2.43,0,0,0,.14.2.64.64,0,0,1,.1.13l.18.21.1.11c.09.1.19.21.3.31a4.38,4.38,0,0,0,.45.41l.11.09.31.24.34.24.25.16.3.17.28.16.28.13.31.14.28.11a1.75,1.75,0,0,0,.32.12l.29.1.32.09.34.09.29.06.43.07.29,0,.15,0,.44,0h.14c.19,0,.37,0,.56,0h.1l.45,0,.16,0,.44-.08.1,0,.51-.14.13,0,.38-.15.14-.06.46-.23a4.13,4.13,0,0,0,1.86-2.13L199.36,299a4.09,4.09,0,0,1-1.86,2.13,4.93,4.93,0,0,1-.46.23l-.14.06-.38.15-.13,0-.51.14-.09,0-.45.08-.16,0-.45,0h-.8l-.44,0-.15,0h-.1l-.18,0-.44-.07-.11,0-.18,0-.34-.09-.14,0-.17-.06-.3-.09-.14,0-.18-.07-.28-.11-.12-.05-.19-.1-.28-.13-.1-.05-.18-.11-.3-.17-.1-.06-.15-.1-.34-.24-.12-.08-.19-.15-.11-.1a4.59,4.59,0,0,1-.41-.36l0,0c-.11-.11-.21-.21-.3-.32l-.09-.11-.19-.21-.09-.13-.15-.2-.1-.14-.12-.19A1.09,1.09,0,0,1,187,298a1.18,1.18,0,0,1-.11-.19l-.07-.15-.09-.19-.06-.15c0-.06,0-.12-.08-.19a.88.88,0,0,0-.05-.15,1.33,1.33,0,0,1,0-.19l0-.08s0,0,0-.07,0-.14,0-.22A.59.59,0,0,1,186.41,296.32Z"/></g><path class="cls-11" d="M173.53,257.56c-1.31-6.48-.15-15.33,4.07-19,1.05-1.35,13.71-8.22,15.34-9.3-12.12,7.83-5.58,29.37,1.41,39.71,5.94,9.34,19.33,22.43,31.2,16.4l-13.19,7.67a11.48,11.48,0,0,1-3.56,1.32c-8.46,1.36-16.19-4.39-21.77-10.17A53.36,53.36,0,0,1,173.53,257.56Z"/><path class="cls-12" d="M222.55,278.4c-1.1-15.58-9.41-30.51-21.36-40.43-6.48-5.17-15.95-9.77-23.93-5.32L190.44,225a13.29,13.29,0,0,1,5.09-1.67c12.91-1,24.35,10.59,30.9,20.6,8.06,11.9,15.57,36.79,1.62,45.78l-13.19,7.67C220.05,294.65,223.17,286.67,222.55,278.4Z"/><path class="cls-13" d="M222.6,280.33c0,16.84-12,23.64-26.63,15.18s-26.51-29-26.46-45.84,12-23.64,26.63-15.18S222.65,263.48,222.6,280.33ZM196,291.47c12.7,7.33,23.07,1.42,23.11-13.17s-10.26-32.43-23-39.76-23.06-1.43-23.1,13.17,10.25,32.42,22.95,39.76"/><g class="cls-14"><path class="cls-15" d="M196.13,238.54c-12.7-7.34-23.06-1.43-23.1,13.17s10.25,32.42,22.95,39.76,23.07,1.42,23.11-13.17S208.83,245.87,196.13,238.54Z"/></g></g></svg>