<svg xmlns="http://www.w3.org/2000/svg" xmlns:xlink="http://www.w3.org/1999/xlink" width="500" height="500" viewBox="0 0 500 500"><defs><style>.cls-1,.cls-2,.cls-3,.cls-4,.cls-5,.cls-6,.cls-7,.cls-8{fill-rule:evenodd;}.cls-1{fill:url(#linear-gradient);}.cls-2{fill:url(#linear-gradient-2);}.cls-3{fill:url(#linear-gradient-3);}.cls-4{fill:url(#linear-gradient-4);}.cls-5{fill:url(#linear-gradient-5);}.cls-6{fill:url(#linear-gradient-6);}.cls-7{fill:url(#linear-gradient-7);}.cls-8{fill:url(#linear-gradient-8);}</style><linearGradient id="linear-gradient" x1="152.24" y1="242.49" x2="309.62" y2="242.49" gradientUnits="userSpaceOnUse"><stop offset="0" stop-color="#171717"/><stop offset="1" stop-color="#282828"/></linearGradient><linearGradient id="linear-gradient-2" x1="119.31" y1="265.17" x2="152.4" y2="265.17" gradientUnits="userSpaceOnUse"><stop offset="0" stop-color="#3d3d3d"/><stop offset="1" stop-color="#282828"/></linearGradient><linearGradient id="linear-gradient-3" x1="368.16" y1="256.42" x2="380.69" y2="256.42" xlink:href="#linear-gradient"/><linearGradient id="linear-gradient-4" x1="313.78" y1="238.16" x2="352.7" y2="170.74" gradientUnits="userSpaceOnUse"><stop offset="0" stop-color="#565656"/><stop offset="1" stop-color="#3d3d3d"/></linearGradient><linearGradient id="linear-gradient-5" x1="269.92" y1="256.82" x2="368.33" y2="256.82" xlink:href="#linear-gradient-2"/><linearGradient id="linear-gradient-6" x1="162.28" y1="330.99" x2="294.66" y2="284.51" gradientUnits="userSpaceOnUse"><stop offset="0.1" stop-color="#d0b0ff"/><stop offset="0.9" stop-color="#408bfc"/></linearGradient><linearGradient id="linear-gradient-7" x1="159.52" y1="260.67" x2="337.66" y2="260.67" xlink:href="#linear-gradient-6"/><linearGradient id="linear-gradient-8" x1="167.01" y1="267.51" x2="245.87" y2="130.91" xlink:href="#linear-gradient-4"/></defs><g id="Dark_Theme_Objects" data-name="Dark Theme Objects"><path class="cls-1" d="M231,213.4,152.4,259.08l-.16,58.18L309.45,225.9l.17-58.19Z"/><path class="cls-2" d="M129.86,240.47c-6.31-7.8-10.46-17.45-10.39-27.4h0l-.16,58.19c0,16.64,10.94,33.31,32.93,46l.16-58.18c-9.62-5.56-17.13-11.87-22.54-18.61"/><path class="cls-3" d="M368.18,300.89l0,0h0v-.21h0l.17-58,12.34-30.8V270c.36,10.32-3.66,20.82-12.3,30.72h0l-.19.19"/><path class="cls-4" d="M347.45,167.71c35,20.18,43,48.13,20.88,75l-98.24-29.78Z"/><polygon class="cls-5" points="368.33 242.72 368.16 300.7 269.92 271.13 270.08 212.94 368.33 242.72"/><path class="cls-6" d="M335.07,260.52c-12.88,12.93-29.93,20.81-47.29,25.84l-.29.07c-40.78,11.3-90.68,8.66-128-12.34l-.17,58.19c47.33,27.37,130.81,26.18,172.79-10.91l.31-.27c1.74-1.66,3.48-3.37,5.05-5.18l.16-58.18c-.82.94-1.69,1.87-2.59,2.78"/><path class="cls-7" d="M337.66,257.74c-32.28,38.15-124.45,47.83-178.14,16.35l78.6-45.68Z"/><path class="cls-8" d="M309.62,167.71,152.4,259.08c-43.69-25.23-43.93-66.14-.52-91.37s114-25.23,157.74,0"/></g></svg>