<svg xmlns="http://www.w3.org/2000/svg" xmlns:xlink="http://www.w3.org/1999/xlink" width="500" height="500" viewBox="0 0 500 500"><defs><style>.cls-1{isolation:isolate;}.cls-2{fill:url(#linear-gradient);}.cls-3{fill:url(#linear-gradient-2);}.cls-4{fill:url(#linear-gradient-3);}.cls-5{fill:#8b8b8b;}.cls-12,.cls-6,.cls-7{fill:none;stroke-width:0.5px;}.cls-6{stroke:#8c8c8c;}.cls-7{stroke:#6f6f6f;}.cls-8{fill:url(#linear-gradient-4);}.cls-9{fill:url(#linear-gradient-5);}.cls-10{fill:url(#linear-gradient-6);}.cls-11{fill:#f3f3f3;}.cls-12{stroke:#97c1ff;}.cls-13{fill:url(#linear-gradient-7);}.cls-14{fill:url(#linear-gradient-8);}.cls-15{fill:url(#linear-gradient-9);}</style><linearGradient id="linear-gradient" x1="253.52" y1="239.18" x2="260.86" y2="239.18" gradientUnits="userSpaceOnUse"><stop offset="0" stop-color="#282828"/><stop offset="1" stop-color="#3d3d3d"/></linearGradient><linearGradient id="linear-gradient-2" x1="192.48" y1="194.68" x2="240.33" y2="167.06" gradientUnits="userSpaceOnUse"><stop offset="0" stop-color="#6f6f6f"/><stop offset="1" stop-color="#565656"/></linearGradient><linearGradient id="linear-gradient-3" x1="171.4" y1="217.44" x2="254.07" y2="217.44" gradientUnits="userSpaceOnUse"><stop offset="0" stop-color="#565656"/><stop offset="1" stop-color="#3d3d3d"/></linearGradient><linearGradient id="linear-gradient-4" x1="287.81" y1="297.67" x2="297.27" y2="297.67" gradientUnits="userSpaceOnUse"><stop offset="0" stop-color="#054ada"/><stop offset="1" stop-color="#0062ff"/></linearGradient><linearGradient id="linear-gradient-5" x1="209.11" y1="240.3" x2="270.8" y2="204.68" gradientUnits="userSpaceOnUse"><stop offset="0" stop-color="#6ea6ff"/><stop offset="1" stop-color="#408bfc"/></linearGradient><linearGradient id="linear-gradient-6" x1="181.93" y1="269.64" x2="288.52" y2="269.64" gradientUnits="userSpaceOnUse"><stop offset="0" stop-color="#408bfc"/><stop offset="1" stop-color="#0062ff"/></linearGradient><linearGradient id="linear-gradient-7" x1="321.27" y1="256.25" x2="328.6" y2="256.25" gradientUnits="userSpaceOnUse"><stop offset="0" stop-color="#171717"/><stop offset="1" stop-color="#282828"/></linearGradient><linearGradient id="linear-gradient-8" x1="260.22" y1="211.75" x2="308.07" y2="184.13" xlink:href="#linear-gradient-3"/><linearGradient id="linear-gradient-9" x1="239.14" y1="234.5" x2="321.82" y2="234.5" gradientUnits="userSpaceOnUse"><stop offset="0" stop-color="#3d3d3d"/><stop offset="1" stop-color="#282828"/></linearGradient></defs><g id="Dark_Theme_Objects" data-name="Dark Theme Objects"><g class="cls-1"><polygon class="cls-2" points="253.52 275.75 260.31 271.81 260.86 202.62 254.07 206.56 253.52 275.75"/><polygon class="cls-3" points="254.07 206.56 260.86 202.62 178.73 155.18 171.94 159.13 254.07 206.56"/><polygon class="cls-4" points="171.94 159.13 171.4 228.31 253.52 275.75 254.07 206.56 171.94 159.13"/></g><polygon class="cls-5" points="246.87 264.6 178.59 225.19 178.59 222.23 246.87 261.64 246.87 264.6"/><polygon class="cls-5" points="209.17 207.33 209.17 221.86 217.27 219.29 209.17 207.33"/><line class="cls-6" x1="171.95" y1="159.12" x2="254.07" y2="206.56"/><line class="cls-7" x1="233.37" y1="232.39" x2="315.5" y2="279.83"/><g class="cls-1"><polygon class="cls-8" points="287.81 344.82 296.56 339.74 297.27 250.53 288.52 255.61 287.81 344.82"/><polygon class="cls-9" points="288.52 255.61 297.27 250.53 191.39 189.37 182.64 194.45 288.52 255.61"/><polygon class="cls-10" points="182.64 194.45 181.93 283.66 287.81 344.82 288.52 255.61 182.64 194.45"/></g><polygon class="cls-11" points="279.24 330.44 191.21 279.63 191.21 275.81 279.24 326.62 279.24 330.44"/><polygon class="cls-11" points="230.63 256.6 230.63 275.33 241.08 272.02 230.63 256.6"/><line class="cls-12" x1="182.64" y1="194.45" x2="288.52" y2="255.61"/><g class="cls-1"><polygon class="cls-13" points="321.27 292.82 328.06 288.87 328.61 219.69 321.82 223.63 321.27 292.82"/><polygon class="cls-14" points="321.82 223.63 328.61 219.69 246.48 172.25 239.69 176.19 321.82 223.63"/><polygon class="cls-15" points="239.69 176.19 239.14 245.38 321.27 292.82 321.82 223.63 239.69 176.19"/></g><polygon class="cls-5" points="314.62 281.67 246.34 242.26 246.34 239.29 314.62 278.7 314.62 281.67"/><polygon class="cls-5" points="276.92 224.39 276.92 238.92 285.02 236.36 276.92 224.39"/><line class="cls-7" x1="321.82" y1="223.63" x2="239.69" y2="176.19"/></g></svg>