<svg xmlns="http://www.w3.org/2000/svg" xmlns:xlink="http://www.w3.org/1999/xlink" width="500" height="500" viewBox="0 0 500 500"><defs><style>.cls-1{fill:url(#linear-gradient);}.cls-2{fill:url(#linear-gradient-2);}.cls-3{fill:url(#linear-gradient-3);}.cls-4{fill:url(#linear-gradient-4);}.cls-5{fill:url(#linear-gradient-5);}.cls-6{fill:url(#linear-gradient-6);}.cls-7{fill:#6f6f6f;}.cls-8{fill:url(#linear-gradient-7);}.cls-9{fill:#171717;}.cls-10{fill:url(#linear-gradient-8);}.cls-11{fill:#1a89ff;}.cls-12{fill:#0046e2;}.cls-13{fill:#8bc0ff;}.cls-14{fill:#005eff;}.cls-15{fill:none;stroke:#8b8b8b;stroke-linecap:round;stroke-linejoin:round;stroke-width:7.29px;}.cls-16{fill:url(#linear-gradient-9);}.cls-17{fill:url(#linear-gradient-10);}.cls-18{fill:url(#linear-gradient-11);}</style><linearGradient id="linear-gradient" x1="250.01" y1="295.18" x2="290.82" y2="224.5" gradientUnits="userSpaceOnUse"><stop offset="0" stop-color="#6f6f6f"/><stop offset="1" stop-color="#565656"/></linearGradient><linearGradient id="linear-gradient-2" x1="256.18" y1="290.02" x2="284.68" y2="240.65" xlink:href="#linear-gradient"/><linearGradient id="linear-gradient-3" x1="249.73" y1="243.39" x2="357.12" y2="243.39" gradientUnits="userSpaceOnUse"><stop offset="0" stop-color="#565656"/><stop offset="1" stop-color="#3d3d3d"/></linearGradient><linearGradient id="linear-gradient-4" x1="290.68" y1="341.9" x2="372.04" y2="341.9" gradientUnits="userSpaceOnUse"><stop offset="0" stop-color="#282828"/><stop offset="1" stop-color="#3d3d3d"/></linearGradient><linearGradient id="linear-gradient-5" x1="4492.24" y1="343.14" x2="4434.62" y2="364.11" gradientTransform="matrix(-1, 0, 0, 1, 4794.78, 0)" gradientUnits="userSpaceOnUse"><stop offset="0" stop-color="#171717"/><stop offset="0.23" stop-color="#1a1a1a"/><stop offset="0.39" stop-color="#232323"/><stop offset="0.53" stop-color="#333"/><stop offset="0.6" stop-color="#3d3d3d"/><stop offset="0.68" stop-color="#343434"/><stop offset="0.81" stop-color="#2b2b2b"/><stop offset="1" stop-color="#282828"/></linearGradient><linearGradient id="linear-gradient-6" x1="176.05" y1="231.56" x2="249.73" y2="231.56" xlink:href="#linear-gradient-4"/><linearGradient id="linear-gradient-7" x1="168.68" y1="318.46" x2="290.81" y2="318.46" xlink:href="#linear-gradient-3"/><linearGradient id="linear-gradient-8" x1="593.6" y1="339.16" x2="673.81" y2="368.36" gradientTransform="translate(-383.68)" xlink:href="#linear-gradient-5"/><linearGradient id="linear-gradient-9" x1="195.52" y1="132.39" x2="343.08" y2="132.39" gradientUnits="userSpaceOnUse"><stop offset="0" stop-color="#0047e0"/><stop offset="0.38" stop-color="#0f66ef"/><stop offset="0.76" stop-color="#1c7efb"/><stop offset="1" stop-color="#2087ff"/></linearGradient><linearGradient id="linear-gradient-10" x1="341.74" y1="149.85" x2="341.82" y2="149.85" gradientUnits="userSpaceOnUse"><stop offset="0" stop-color="#2087ff"/><stop offset="0.24" stop-color="#1c7efb"/><stop offset="0.62" stop-color="#0f66ef"/><stop offset="1" stop-color="#0047e0"/></linearGradient><linearGradient id="linear-gradient-11" x1="196.22" y1="168" x2="341.7" y2="168" xlink:href="#linear-gradient-10"/></defs><g id="Dark_Theme_Objects" data-name="Dark Theme Objects"><polygon class="cls-1" points="372.04 271.39 249.61 201.06 168.93 248.06 290.69 318.66 372.04 271.39"/><polygon class="cls-2" points="193.18 253.44 249.73 220.47 347.75 277.1 290.69 309.94 193.18 253.44"/><polygon class="cls-3" points="249.73 209.68 357.12 271.71 347.75 277.1 249.73 220.47 249.73 209.68"/><polygon class="cls-4" points="290.81 412.41 290.68 295.09 298.21 290.74 331.41 295 372.04 271.39 371.88 365.58 290.81 412.41"/><polygon class="cls-5" points="361.81 359.57 361.77 312.48 300.89 347.67 300.89 394.75 361.81 359.57"/><polygon class="cls-6" points="216.77 228.88 183.58 224.63 176.05 229.01 176.05 252.55 184.26 248.27 193.18 253.44 249.73 220.47 249.73 209.68 216.77 228.88"/><polygon class="cls-7" points="324.12 290.77 331.41 295 298.21 290.74 290.92 286.51 324.12 290.77"/><polygon class="cls-7" points="209.49 224.66 216.78 228.89 183.58 224.63 176.29 220.4 209.49 224.66"/><polygon class="cls-8" points="168.93 224.52 168.68 342.13 290.81 412.41 290.69 295.12 168.93 224.52"/><polygon class="cls-9" points="177.93 347.61 177.93 300.13 200.09 312.94 200.09 360.41 177.93 347.61"/><polygon class="cls-10" points="219.55 359.72 219.58 312.62 280.47 347.81 280.47 394.9 219.55 359.72"/><polygon class="cls-7" points="290.68 295.09 168.81 224.5 176.29 220.4 298.21 290.74 290.68 295.09"/><polygon class="cls-11" points="168.93 248.18 168.82 261.14 290.69 331.5 290.69 318.66 168.93 248.18"/><polygon class="cls-11" points="249.73 354.84 127.96 284.6 127.96 279.7 249.73 350.3 249.73 354.84"/><polygon class="cls-12" points="249.73 350.3 290.69 318.66 290.69 331.5 249.73 354.84 249.73 350.3"/><polygon class="cls-11" points="127.96 279.7 168.93 248.18 168.82 261.14 127.96 284.6 127.96 279.7"/><polygon class="cls-13" points="168.93 248.18 290.69 318.66 249.73 350.3 127.96 279.7 168.93 248.18"/><polygon class="cls-14" points="179.14 309.37 219.62 277.6 209.44 271.71 168.96 303.47 179.14 309.37"/><polygon class="cls-14" points="219.83 332.97 260.38 301.14 250.19 295.26 209.65 327.07 219.83 332.97"/><polygon class="cls-14" points="199.48 321.17 240 289.37 229.81 283.48 189.31 315.27 199.48 321.17"/><polygon class="cls-14" points="158.84 297.54 199.25 265.82 189.06 259.93 148.62 291.67 158.84 297.54"/><polygon class="cls-14" points="270.56 307.03 230 338.87 240.17 344.76 280.75 312.92 270.56 307.03"/><polygon class="cls-14" points="179.08 254.05 138.61 285.81 127.96 279.7 168.93 248.18 179.08 254.05"/><polygon class="cls-12" points="138.61 285.81 138.61 290.74 127.96 284.6 127.96 279.7 138.61 285.81"/><polygon class="cls-12" points="148.62 291.67 158.84 297.54 158.84 302.41 148.62 296.52 148.62 291.67"/><polygon class="cls-12" points="168.96 303.47 179.14 309.37 179.14 314.12 168.96 308.25 168.96 303.47"/><polygon class="cls-12" points="189.31 315.27 199.48 321.17 199.48 325.86 189.31 319.99 189.31 315.27"/><polygon class="cls-12" points="209.65 327.07 219.83 332.97 219.83 337.59 209.65 331.73 209.65 327.07"/><polygon class="cls-12" points="230 338.87 240.17 344.76 240.17 349.33 230 343.46 230 338.87"/><path class="cls-13" d="M341.74,149.93l0,.06Z"/><line class="cls-15" x1="302.57" y1="123.4" x2="302.57" y2="98.56"/><path class="cls-16" d="M267.28,146.19l42.53,24.16,25.92-15a16.73,16.73,0,0,0,6-5.39l0-.06c2.62-4.27,1.42-8.9-3.85-11.94L266.5,97.43c-7.69-4.44-21.25-3.88-30.13,1.25L202.87,118c-8.88,5.13-9.85,13-2.16,17.39L233.48,154l12-6.94C251.92,143.38,261.72,143,267.28,146.19Z"/><path class="cls-11" d="M302.23,174.72l7.58-4.37-42.53-24.16c-5.56-3.21-15.36-2.81-21.77.9l-12,6.94L272.1,176C279.79,180.41,293.35,179.85,302.23,174.72Z"/><path class="cls-17" d="M341.82,149.78l-.08.15.08-.15Z"/><path class="cls-18" d="M335.73,155.38l-25.92,15-7.58,4.37c-8.88,5.13-22.44,5.69-30.13,1.25L233.48,154l-32.77-18.62a10.59,10.59,0,0,1-4.47-4.51h0l19.87,38.24h0a6.88,6.88,0,0,0,3.65,4.49l51.58,29.3c5.56,3.21,15.36,2.81,21.77-.9l24.21-14a13,13,0,0,0,3.83-3.22h0a7.7,7.7,0,0,0,1-1.7L341.7,150A16.73,16.73,0,0,1,335.73,155.38Z"/><path class="cls-15" d="M286.14,89.08l-31.46,18.18a35.8,35.8,0,0,0-17.89,31v23.48"/><path class="cls-15" d="M253.35,108.07l32.79-19a11,11,0,0,1,16.43,9.48h0"/></g></svg>