<svg xmlns="http://www.w3.org/2000/svg" xmlns:xlink="http://www.w3.org/1999/xlink" width="500" height="500" viewBox="0 0 500 500"><defs><style>.cls-1{fill:url(#linear-gradient);}.cls-2{fill:url(#linear-gradient-2);}.cls-3{fill:#3d3d3d;}.cls-4{fill:url(#linear-gradient-3);}.cls-5{fill:url(#linear-gradient-4);}.cls-6{fill:url(#linear-gradient-5);}.cls-7{fill:url(#linear-gradient-6);}.cls-11,.cls-14,.cls-8{opacity:0.8;}.cls-8{fill:url(#linear-gradient-7);}.cls-9{fill:url(#linear-gradient-8);}.cls-10{fill:url(#linear-gradient-9);}.cls-11{fill:url(#linear-gradient-10);}.cls-12{fill:url(#linear-gradient-11);}.cls-13{fill:url(#linear-gradient-12);}.cls-14{fill:url(#linear-gradient-13);}.cls-15{fill:url(#linear-gradient-14);}.cls-16{fill:url(#linear-gradient-15);}</style><linearGradient id="linear-gradient" x1="203.47" y1="97.35" x2="321.23" y2="237.69" gradientUnits="userSpaceOnUse"><stop offset="0" stop-color="#565656"/><stop offset="0.28" stop-color="#515151"/><stop offset="0.62" stop-color="#424242"/><stop offset="0.99" stop-color="#292929"/><stop offset="1" stop-color="#282828"/></linearGradient><linearGradient id="linear-gradient-2" x1="159.04" y1="181.81" x2="312.32" y2="181.81" gradientUnits="userSpaceOnUse"><stop offset="0" stop-color="#3d3d3d"/><stop offset="1" stop-color="#282828"/></linearGradient><linearGradient id="linear-gradient-3" x1="247.44" y1="210.23" x2="346.24" y2="327.97" xlink:href="#linear-gradient"/><linearGradient id="linear-gradient-4" x1="210.25" y1="281.1" x2="338.69" y2="281.1" xlink:href="#linear-gradient-2"/><linearGradient id="linear-gradient-5" x1="134.2" y1="366.13" x2="277.6" y2="366.13" gradientUnits="userSpaceOnUse"><stop offset="0" stop-color="#3d3d3d"/><stop offset="0.65" stop-color="#171717"/><stop offset="0.82" stop-color="#1a1a1a"/><stop offset="0.96" stop-color="#242424"/><stop offset="1" stop-color="#282828"/></linearGradient><linearGradient id="linear-gradient-6" x1="180.61" y1="376.41" x2="231.28" y2="288.65" gradientTransform="translate(537.89 125.64) rotate(89.84)" gradientUnits="userSpaceOnUse"><stop offset="0" stop-color="#565656"/><stop offset="1" stop-color="#3d3d3d"/></linearGradient><linearGradient id="linear-gradient-7" x1="140.77" y1="344.61" x2="270.75" y2="344.61" gradientUnits="userSpaceOnUse"><stop offset="0" stop-color="#2f81fe"/><stop offset="0.77" stop-color="#a66efa"/><stop offset="1" stop-color="#4f2196"/></linearGradient><linearGradient id="linear-gradient-8" x1="134.2" y1="326.63" x2="277.6" y2="326.63" xlink:href="#linear-gradient-5"/><linearGradient id="linear-gradient-9" x1="180.61" y1="336.91" x2="231.28" y2="249.15" gradientTransform="translate(498.39 86.26) rotate(89.84)" xlink:href="#linear-gradient-6"/><linearGradient id="linear-gradient-10" x1="140.77" y1="305.03" x2="270.75" y2="305.03" xlink:href="#linear-gradient-7"/><linearGradient id="linear-gradient-11" x1="134.2" y1="287.06" x2="277.6" y2="287.06" xlink:href="#linear-gradient-5"/><linearGradient id="linear-gradient-12" x1="180.61" y1="297.34" x2="231.28" y2="209.58" gradientTransform="translate(458.82 46.8) rotate(89.84)" xlink:href="#linear-gradient-6"/><linearGradient id="linear-gradient-13" x1="140.77" y1="265.5" x2="270.75" y2="265.5" xlink:href="#linear-gradient-7"/><linearGradient id="linear-gradient-14" x1="180.61" y1="257.8" x2="231.28" y2="170.04" gradientTransform="translate(419.28 7.37) rotate(89.84)" xlink:href="#linear-gradient-6"/><linearGradient id="linear-gradient-15" x1="134.2" y1="247.52" x2="277.6" y2="247.52" xlink:href="#linear-gradient-5"/></defs><g id="Dark_Theme_Objects" data-name="Dark Theme Objects"><path class="cls-1" d="M344.52,205.41a43.7,43.7,0,0,0-.54-5.59c-3-18.39-17.89-41.55-37.12-45.53-5.49-17.62-16.08-34-30.86-45.21-7.2-5.24-15.85-9.55-25-9a20.13,20.13,0,0,0-8.65,2.58L231.62,109c-3.93-2.34-8.8-3.91-13.29-2.38-1.26.36-7.6,4.27-8.86,5-3.48-1.56-7.58-2.34-11.24-1a11.3,11.3,0,0,0-1.66.76l-31.71,18.44c4.87-2.79,10.82-1.17,15.41,1.51l11.61-6.75c4,.44,7.78,2.48,11,4.93h0l18.81-10.93c25.41,1.57,46.78,31.62,53.45,54.21h0c18.43,3.89,32.34,24.75,36.46,42.15,2.17,9.62,2.31,22.52-7,28.37,1.48-1.09,35.32-19.88,34.87-21C343.6,217.79,344.67,211.33,344.52,205.41Z"/><path class="cls-2" d="M297.15,244.64a25.19,25.19,0,0,1-12.44-3.81L180.38,180.6c-11.8-6.82-21.38-23.4-21.34-37,0-9.16,4.44-14.86,11.51-14.86a19.11,19.11,0,0,1,9.47,2.91l.5.29.22-.54A9.88,9.88,0,0,1,190.4,125c3.92,0,8.35,1.77,12.17,4.86l.47.38.28-.54A19.38,19.38,0,0,1,221.06,119c5.44,0,11.32,1.8,17.47,5.35,15.84,9.15,30,28.2,36.13,48.54l.09.28.28.06c21,4.69,37,31.27,37.29,51.92C312.28,237.16,306.47,244.64,297.15,244.64Z"/><path class="cls-3" d="M221.06,118.48v1c5.36,0,11.15,1.78,17.22,5.28,15.74,9.09,29.83,28,35.91,48.25l.16.56.58.13c20.75,4.63,36.59,31,36.89,51.42,0,11.73-5.66,19-14.67,19A24.75,24.75,0,0,1,285,240.4L180.63,180.16C169,173.43,159.5,157,159.54,143.64c0-8.85,4.24-14.36,11-14.36a18.7,18.7,0,0,1,9.22,2.84l1,.58.43-1.07a9.41,9.41,0,0,1,9.2-6.16c3.81,0,8.13,1.73,11.85,4.74l.94.77.57-1.07a18.91,18.91,0,0,1,17.3-10.43v-1m0,0a19.83,19.83,0,0,0-18.18,11c-3.95-3.2-8.45-5-12.48-5a10.38,10.38,0,0,0-10.13,6.79,19.7,19.7,0,0,0-9.72-3c-7.09,0-12,5.62-12,15.36,0,13.75,9.63,30.48,21.59,37.39l104.33,60.24a25.77,25.77,0,0,0,12.69,3.87c9.26,0,15.63-7.33,15.67-20-.3-20.92-16.31-47.63-37.68-52.4-5.94-19.77-20-39.36-36.36-48.82-6.37-3.68-12.39-5.42-17.72-5.42Z"/><path class="cls-4" d="M365.78,300.9a36.85,36.85,0,0,0-.45-4.69v0c-2.57-15.49-14.95-34.77-31.14-38.17-5.61-17.79-18-35.9-35.59-43.45-5.84-2.38-12.86-3.11-18.5.17h0l-9,5.25c-3.31-2-7.46-3.33-11.23-2-1,.26-6.36,3.58-7.36,4.11-2.92-1.31-6.35-2-9.42-.83a7.94,7.94,0,0,0-1.39.64l-26.61,15.46c4.08-2.33,9.08-1,12.93,1.27l9.74-5.65a18.93,18.93,0,0,1,9.23,4.13h0L262.73,228c21.47,1.44,39.14,26.41,44.85,45.49h0c16.28,3.49,28.51,22.6,31.14,38.2,1.16,7.35.52,16.7-6.45,21l26.61-15.46a11,11,0,0,0,1.76-1.29C364.84,312.21,365.94,306.25,365.78,300.9Z"/><path class="cls-5" d="M326,333.73a21.06,21.06,0,0,1-10.39-3.18L228.11,280c-9.88-5.71-17.89-19.58-17.86-30.94,0-7.64,3.69-12.38,9.58-12.38a15.91,15.91,0,0,1,7.9,2.43l.5.28.22-.53a8.21,8.21,0,0,1,8-5.38,16.85,16.85,0,0,1,10.15,4l.47.39.29-.54a16.17,16.17,0,0,1,14.81-8.93c4.55,0,9.47,1.51,14.62,4.48,13.27,7.67,25.16,23.63,30.28,40.68l.08.28.29.06c17.57,3.92,31,26.19,31.22,43.48C338.66,327.49,333.81,333.73,326,333.73Z"/><path class="cls-3" d="M262.2,229h0c4.47,0,9.3,1.49,14.37,4.42,13.17,7.6,25,23.45,30.05,40.38l.17.56.57.13c17.35,3.87,30.58,25.89,30.83,43,0,9.75-4.69,15.8-12.15,15.8a20.53,20.53,0,0,1-10.14-3.12l-87.54-50.53c-9.74-5.63-17.64-19.31-17.61-30.5,0-7.34,3.5-11.89,9.08-11.89a15.65,15.65,0,0,1,7.65,2.36l1,.57.43-1.06a7.74,7.74,0,0,1,7.57-5.07,16.36,16.36,0,0,1,9.84,3.94l.94.76.57-1.06A15.7,15.7,0,0,1,262.2,229m0-1a16.62,16.62,0,0,0-15.25,9.2A17.24,17.24,0,0,0,236.48,233a8.71,8.71,0,0,0-8.5,5.69,16.57,16.57,0,0,0-8.15-2.49c-6,0-10.06,4.71-10.08,12.88,0,11.54,8.08,25.58,18.11,31.37L315.4,331A21.57,21.57,0,0,0,326,334.23c7.77,0,13.12-6.15,13.15-16.8-.26-17.55-13.69-40-31.61-44-5-16.59-16.75-33-30.51-41-5.34-3.09-10.39-4.55-14.87-4.55Z"/><path class="cls-6" d="M277.6,332.73c-1,25.48-33.58,37.42-55.1,40.21a119.67,119.67,0,0,1-48.59-3.34c-18.74-5-40.12-19.33-39.62-37.28l-.08,26c-.44,18,20.83,32.24,39.63,37.27,31.45,9,82.9,5.68,101-25.61a26.09,26.09,0,0,0,2.73-11.26Z"/><ellipse class="cls-7" cx="205.94" cy="332.53" rx="41.51" ry="71.66" transform="translate(-127.17 537.53) rotate(-89.84)"/><path class="cls-8" d="M270.7,320.63c-.63,11.28-9.56,19.9-18.82,25.28-27.46,14.9-64.42,14.84-91.89,0-10.94-6.57-18.78-14.55-19.18-26.79l0,13.24c-.39,16.75,19.71,29.7,37,34.1,28.21,8,77.56,4.29,91.42-25.78a23.73,23.73,0,0,0,1.49-7.95l0-13.24C270.75,319.87,270.72,320.25,270.7,320.63Z"/><path class="cls-9" d="M277.6,293.24c-1,25.47-33.58,37.42-55.1,40.2a119.32,119.32,0,0,1-48.59-3.34c-18.74-5-40.12-19.33-39.62-37.27l-.08,26c-.44,18,20.83,32.25,39.63,37.27,31.45,9,82.9,5.69,101-25.61a26,26,0,0,0,2.73-11.25Z"/><ellipse class="cls-10" cx="205.94" cy="293.03" rx="41.51" ry="71.66" transform="translate(-87.67 498.14) rotate(-89.84)"/><path class="cls-11" d="M270.7,281.06c-.63,11.28-9.56,19.9-18.82,25.27-27.46,14.91-64.42,14.84-91.89,0-10.94-6.57-18.78-14.54-19.18-26.79l0,13.24c-.39,16.76,19.71,29.71,37,34.11,28.21,8,77.56,4.29,91.42-25.78a23.79,23.79,0,0,0,1.49-8l0-13.24C270.75,280.29,270.72,280.68,270.7,281.06Z"/><path class="cls-12" d="M277.6,253.66c-1,25.48-33.58,37.42-55.1,40.21a119.67,119.67,0,0,1-48.59-3.34c-18.74-5-40.12-19.34-39.62-37.28l-.08,26c-.44,18,20.83,32.24,39.63,37.27,31.45,9,82.9,5.68,101-25.61a26.09,26.09,0,0,0,2.73-11.26Z"/><ellipse class="cls-13" cx="205.94" cy="253.46" rx="41.51" ry="71.66" transform="translate(-48.1 458.68) rotate(-89.84)"/><path class="cls-14" d="M270.7,241.52c-.63,11.28-9.56,19.9-18.82,25.28-27.46,14.91-64.42,14.84-91.89,0-10.94-6.57-18.78-14.55-19.18-26.79l0,13.24c-.39,16.75,19.71,29.7,37,34.11,28.21,7.95,77.56,4.28,91.42-25.78a23.83,23.83,0,0,0,1.49-8l0-13.24C270.75,240.76,270.72,241.14,270.7,241.52Z"/><ellipse class="cls-15" cx="205.94" cy="213.92" rx="41.51" ry="71.66" transform="translate(-8.56 419.26) rotate(-89.84)"/><path class="cls-16" d="M277.6,214.13c-1,25.47-33.58,37.42-55.1,40.2A119.32,119.32,0,0,1,173.91,251c-18.74-5-40.12-19.33-39.62-37.27l-.08,26c-.44,18,20.83,32.25,39.63,37.27,31.45,9,82.9,5.69,101-25.61a26,26,0,0,0,2.73-11.25Z"/></g></svg>