<svg xmlns="http://www.w3.org/2000/svg" xmlns:xlink="http://www.w3.org/1999/xlink" width="500" height="500" viewBox="0 0 500 500"><defs><style>.cls-1,.cls-25{fill:#fff;}.cls-2{fill:url(#linear-gradient);}.cls-3{fill:url(#linear-gradient-2);}.cls-4{fill:url(#linear-gradient-3);}.cls-5,.cls-7{fill:none;}.cls-5{stroke:#6f6f6f;}.cls-6{fill:#282828;}.cls-7{stroke:#565656;stroke-miterlimit:10;stroke-width:0.6px;}.cls-8{fill:#bb8eff;}.cls-9{clip-path:url(#clip-path);}.cls-10{opacity:0.9;fill:url(#linear-gradient-4);}.cls-11,.cls-13{opacity:0.8;}.cls-11{fill:url(#linear-gradient-5);}.cls-12{opacity:0.4;fill:url(#linear-gradient-6);}.cls-13{fill:url(#linear-gradient-7);}.cls-14,.cls-15,.cls-16,.cls-17,.cls-18,.cls-19,.cls-20,.cls-25,.cls-27,.cls-37,.cls-38,.cls-39,.cls-47,.cls-48,.cls-49,.cls-56,.cls-57,.cls-58,.cls-59,.cls-60,.cls-61,.cls-62{opacity:0.5;}.cls-15{fill:url(#linear-gradient-8);}.cls-16{fill:url(#linear-gradient-9);}.cls-17{fill:url(#linear-gradient-10);}.cls-18{fill:url(#linear-gradient-11);}.cls-19{fill:url(#linear-gradient-12);}.cls-20{fill:url(#linear-gradient-13);}.cls-21{opacity:0.25;}.cls-22{fill:url(#linear-gradient-14);}.cls-23{fill:url(#linear-gradient-15);}.cls-24{fill:url(#linear-gradient-16);}.cls-26,.cls-40{opacity:0.3;}.cls-26{fill:url(#linear-gradient-17);}.cls-27{fill:url(#linear-gradient-18);}.cls-28{fill:url(#linear-gradient-19);}.cls-29{fill:url(#linear-gradient-20);}.cls-30{fill:url(#linear-gradient-21);}.cls-31{fill:url(#linear-gradient-22);}.cls-32{fill:url(#linear-gradient-23);}.cls-33{fill:url(#linear-gradient-24);}.cls-34{fill:url(#linear-gradient-25);}.cls-35{fill:url(#linear-gradient-26);}.cls-36{fill:url(#linear-gradient-27);}.cls-37{fill:url(#linear-gradient-28);}.cls-38{fill:url(#linear-gradient-29);}.cls-39{fill:url(#linear-gradient-30);}.cls-41{fill:url(#linear-gradient-31);}.cls-42{fill:url(#linear-gradient-32);}.cls-43{fill:url(#linear-gradient-33);}.cls-44{fill:url(#linear-gradient-34);}.cls-45{fill:url(#linear-gradient-35);}.cls-46{fill:url(#linear-gradient-36);}.cls-47{fill:url(#linear-gradient-37);}.cls-48{fill:url(#linear-gradient-38);}.cls-49{fill:url(#linear-gradient-39);}.cls-50{fill:url(#linear-gradient-40);}.cls-51{fill:url(#linear-gradient-41);}.cls-52{fill:url(#linear-gradient-42);}.cls-53,.cls-54,.cls-55{opacity:0.7;}.cls-53{fill:url(#linear-gradient-43);}.cls-54{fill:url(#linear-gradient-44);}.cls-55{fill:url(#linear-gradient-45);}.cls-56{fill:url(#linear-gradient-46);}.cls-57{fill:url(#linear-gradient-47);}.cls-58{fill:url(#linear-gradient-48);}.cls-59{fill:url(#linear-gradient-49);}.cls-60{fill:url(#linear-gradient-50);}.cls-61{fill:url(#linear-gradient-51);}.cls-62{fill:url(#linear-gradient-52);}</style><linearGradient id="linear-gradient" x1="125.79" y1="351.07" x2="250" y2="351.07" gradientUnits="userSpaceOnUse"><stop offset="0" stop-color="#3d3d3d"/><stop offset="1" stop-color="#282828"/></linearGradient><linearGradient id="linear-gradient-2" x1="250" y1="351.07" x2="374.21" y2="351.07" gradientUnits="userSpaceOnUse"><stop offset="0" stop-color="#171717"/><stop offset="1" stop-color="#282828"/></linearGradient><linearGradient id="linear-gradient-3" x1="218.95" y1="357.8" x2="281.05" y2="250.24" gradientUnits="userSpaceOnUse"><stop offset="0" stop-color="#565656"/><stop offset="1" stop-color="#3d3d3d"/></linearGradient><clipPath id="clip-path"><path class="cls-1" d="M254.64,261.39a10.21,10.21,0,0,0-9.23,0l-67.93,39.22c-2.55,1.47-2.55,3.86,0,5.33l67.93,39.22a10.21,10.21,0,0,0,9.23,0l67.93-39.22c2.55-1.47,2.55-3.86,0-5.33Z"/></clipPath><linearGradient id="linear-gradient-4" x1="234.91" y1="289.47" x2="279.34" y2="315.62" gradientUnits="userSpaceOnUse"><stop offset="0" stop-color="#a66efa"/><stop offset="1" stop-color="#0062ff"/></linearGradient><linearGradient id="linear-gradient-5" x1="168.98" y1="280.29" x2="250.02" y2="280.29" gradientUnits="userSpaceOnUse"><stop offset="0" stop-color="#2f81fe"/><stop offset="1" stop-color="#bb8eff"/></linearGradient><linearGradient id="linear-gradient-6" x1="175.06" y1="303.27" x2="324.89" y2="303.27" xlink:href="#linear-gradient-5"/><linearGradient id="linear-gradient-7" x1="250.02" y1="345.61" x2="250.02" y2="102.38" gradientUnits="userSpaceOnUse"><stop offset="0" stop-color="#2f81fe"/><stop offset="1" stop-color="#bb8eff" stop-opacity="0"/></linearGradient><linearGradient id="linear-gradient-8" x1="263.34" y1="308.87" x2="272.23" y2="308.87" gradientUnits="userSpaceOnUse"><stop offset="0" stop-color="#dedede"/><stop offset="1" stop-color="#fff"/></linearGradient><linearGradient id="linear-gradient-9" x1="267.78" y1="312.78" x2="272.23" y2="312.78" gradientUnits="userSpaceOnUse"><stop offset="0" stop-color="#bdbdbd"/><stop offset="1" stop-color="#a6a6a6"/></linearGradient><linearGradient id="linear-gradient-10" x1="263.32" y1="312.78" x2="267.8" y2="312.78" gradientUnits="userSpaceOnUse"><stop offset="0" stop-color="#f3f3f3"/><stop offset="1" stop-color="#bebebe"/></linearGradient><linearGradient id="linear-gradient-11" x1="250.16" y1="153.36" x2="250.12" y2="145.66" xlink:href="#linear-gradient-8"/><linearGradient id="linear-gradient-12" x1="250.15" y1="155.08" x2="254.59" y2="155.08" xlink:href="#linear-gradient-9"/><linearGradient id="linear-gradient-13" x1="245.16" y1="155.1" x2="252.54" y2="155.06" xlink:href="#linear-gradient-10"/><linearGradient id="linear-gradient-14" x1="241.94" y1="320.8" x2="252.65" y2="320.8" xlink:href="#linear-gradient-8"/><linearGradient id="linear-gradient-15" x1="247.3" y1="325.51" x2="252.65" y2="325.51" xlink:href="#linear-gradient-9"/><linearGradient id="linear-gradient-16" x1="241.93" y1="325.51" x2="247.31" y2="325.51" xlink:href="#linear-gradient-10"/><linearGradient id="linear-gradient-17" x1="280.99" y1="285.87" x2="286.34" y2="285.87" xlink:href="#linear-gradient-9"/><linearGradient id="linear-gradient-18" x1="274.98" y1="285.89" x2="283.87" y2="285.85" xlink:href="#linear-gradient-10"/><linearGradient id="linear-gradient-19" x1="286.36" y1="239.78" x2="286.31" y2="230.52" xlink:href="#linear-gradient-8"/><linearGradient id="linear-gradient-20" x1="286.35" y1="241.86" x2="291.7" y2="241.86" xlink:href="#linear-gradient-9"/><linearGradient id="linear-gradient-21" x1="280.34" y1="241.87" x2="289.23" y2="241.84" xlink:href="#linear-gradient-10"/><linearGradient id="linear-gradient-22" x1="250.09" y1="174.66" x2="250.04" y2="165.4" xlink:href="#linear-gradient-8"/><linearGradient id="linear-gradient-23" x1="250.08" y1="176.73" x2="255.43" y2="176.73" xlink:href="#linear-gradient-9"/><linearGradient id="linear-gradient-24" x1="244.07" y1="176.75" x2="252.96" y2="176.71" xlink:href="#linear-gradient-10"/><linearGradient id="linear-gradient-25" x1="231.23" y1="200.72" x2="231.18" y2="191.46" xlink:href="#linear-gradient-8"/><linearGradient id="linear-gradient-26" x1="231.21" y1="202.8" x2="236.57" y2="202.8" xlink:href="#linear-gradient-9"/><linearGradient id="linear-gradient-27" x1="225.21" y1="202.81" x2="234.1" y2="202.78" xlink:href="#linear-gradient-10"/><linearGradient id="linear-gradient-28" x1="250.02" y1="289.61" x2="249.92" y2="271.06" xlink:href="#linear-gradient-8"/><linearGradient id="linear-gradient-29" x1="249.99" y1="293.76" x2="260.71" y2="293.76" xlink:href="#linear-gradient-9"/><linearGradient id="linear-gradient-30" x1="237.96" y1="293.79" x2="255.76" y2="293.71" xlink:href="#linear-gradient-10"/><linearGradient id="linear-gradient-31" x1="233.94" y1="267.7" x2="233.84" y2="249.16" xlink:href="#linear-gradient-8"/><linearGradient id="linear-gradient-32" x1="233.91" y1="271.86" x2="244.63" y2="271.86" xlink:href="#linear-gradient-9"/><linearGradient id="linear-gradient-33" x1="221.89" y1="271.89" x2="239.68" y2="271.81" xlink:href="#linear-gradient-10"/><linearGradient id="linear-gradient-34" x1="266.65" y1="261.5" x2="266.55" y2="242.95" xlink:href="#linear-gradient-8"/><linearGradient id="linear-gradient-35" x1="266.62" y1="265.65" x2="277.34" y2="265.65" xlink:href="#linear-gradient-9"/><linearGradient id="linear-gradient-36" x1="254.6" y1="265.68" x2="272.39" y2="265.6" xlink:href="#linear-gradient-10"/><linearGradient id="linear-gradient-37" x1="267.83" y1="200.32" x2="267.73" y2="181.78" xlink:href="#linear-gradient-8"/><linearGradient id="linear-gradient-38" x1="267.8" y1="204.48" x2="278.52" y2="204.48" xlink:href="#linear-gradient-9"/><linearGradient id="linear-gradient-39" x1="255.77" y1="204.51" x2="273.57" y2="204.43" xlink:href="#linear-gradient-10"/><linearGradient id="linear-gradient-40" x1="250.11" y1="229.73" x2="249.97" y2="204.21" xlink:href="#linear-gradient-8"/><linearGradient id="linear-gradient-41" x1="250.07" y1="235.45" x2="264.82" y2="235.45" xlink:href="#linear-gradient-9"/><linearGradient id="linear-gradient-42" x1="233.53" y1="235.49" x2="258.01" y2="235.38" xlink:href="#linear-gradient-10"/><linearGradient id="linear-gradient-43" x1="231.24" y1="300.75" x2="231.13" y2="282.21" xlink:href="#linear-gradient-8"/><linearGradient id="linear-gradient-44" x1="231.21" y1="304.91" x2="241.93" y2="304.91" xlink:href="#linear-gradient-9"/><linearGradient id="linear-gradient-45" x1="219.18" y1="304.94" x2="236.98" y2="304.86" xlink:href="#linear-gradient-10"/><linearGradient id="linear-gradient-46" x1="220.48" y1="229.58" x2="222.88" y2="229.58" xlink:href="#linear-gradient-8"/><linearGradient id="linear-gradient-47" x1="266.64" y1="172.08" x2="269.03" y2="172.08" xlink:href="#linear-gradient-8"/><linearGradient id="linear-gradient-48" x1="230.01" y1="158.26" x2="232.4" y2="158.26" xlink:href="#linear-gradient-8"/><linearGradient id="linear-gradient-49" x1="244.61" y1="193.21" x2="247" y2="193.21" xlink:href="#linear-gradient-8"/><linearGradient id="linear-gradient-50" x1="219.95" y1="243.92" x2="224.06" y2="243.92" gradientUnits="userSpaceOnUse"><stop offset="0" stop-color="#fff"/><stop offset="1" stop-color="#f3f3f3"/></linearGradient><linearGradient id="linear-gradient-51" x1="273.58" y1="229.58" x2="277.69" y2="229.58" xlink:href="#linear-gradient-50"/><linearGradient id="linear-gradient-52" x1="229.19" y1="172.08" x2="233.3" y2="172.08" xlink:href="#linear-gradient-8"/></defs><g id="Dark_Theme_Objects" data-name="Dark Theme Objects"><polygon class="cls-2" points="250 398.13 125.79 326.42 125.79 304.02 250 375.73 250 398.13"/><polygon class="cls-3" points="374.21 326.42 250 398.13 250 375.73 374.21 304.02 374.21 326.42"/><polygon class="cls-4" points="250 375.73 125.79 304.02 250 232.31 374.2 304.02 250 375.73"/><line class="cls-5" x1="125.79" y1="304.02" x2="250" y2="375.73"/><ellipse class="cls-6" cx="250" cy="366.8" rx="3.56" ry="2.08"/><ellipse class="cls-6" cx="250" cy="241.26" rx="3.56" ry="2.08"/><ellipse class="cls-6" cx="137.12" cy="304.02" rx="3.56" ry="2.08"/><ellipse class="cls-6" cx="362.82" cy="304.02" rx="3.56" ry="2.08"/><polygon class="cls-7" points="273.14 378.08 257.29 387.23 257.29 378.64 273.14 369.48 273.14 378.08"/><polygon class="cls-8" points="132.76 322.53 137.83 325.46 137.83 316.96 132.76 314.04 132.76 322.53"/><polygon class="cls-7" points="140.83 327.19 145.89 330.12 145.89 321.62 140.83 318.69 140.83 327.19"/><polygon class="cls-7" points="148.89 331.86 153.96 334.78 153.96 326.28 148.89 323.36 148.89 331.86"/><line class="cls-7" x1="232" y1="371.58" x2="232" y2="380.18"/><line class="cls-7" x1="238" y1="375.13" x2="238" y2="383.73"/><line class="cls-7" x1="244" y1="378.63" x2="244" y2="387.23"/><polygon class="cls-7" points="366.84 323.46 350.8 332.73 350.8 324.14 366.65 315 366.84 323.46"/><path class="cls-1" d="M254.64,261.39a10.21,10.21,0,0,0-9.23,0l-67.93,39.22c-2.55,1.47-2.55,3.86,0,5.33l67.93,39.22a10.21,10.21,0,0,0,9.23,0l67.93-39.22c2.55-1.47,2.55-3.86,0-5.33Z"/><g class="cls-9"><path class="cls-10" d="M181,309.4l64.38-37.16a10.21,10.21,0,0,1,9.23,0l63.25,36.52-.7.41c7.15-1,15.69-5.78,16.9-13.05l-71-39.48-20.65-5.45-16.81,9.88L169,294.86C172.12,300.51,175.24,306.7,181,309.4Z"/><path class="cls-11" d="M250,253.19l-7.57-2-16.81,9.88L169,294.86c3.14,5.65,6.26,11.84,12.05,14.54l64.38-37.16a9.36,9.36,0,0,1,4.61-1.1Z"/></g><path class="cls-12" d="M322.83,300.42l-68.17-39.36a10.89,10.89,0,0,0-9.85,0l-67.73,39.36c-2.71,1.58-2.7,4.13,0,5.71l68.17,39.36a10.91,10.91,0,0,0,9.86,0l67.72-39.36C325.58,304.55,325.56,302,322.83,300.42Z"/><path class="cls-13" d="M324.94,303.26h0V101.88H175.11V303.26h0a3.48,3.48,0,0,0,2,2.87l68.18,39.36a10.89,10.89,0,0,0,9.85,0l67.73-39.36A3.45,3.45,0,0,0,324.94,303.26Z"/><g class="cls-14"><polygon class="cls-15" points="267.77 306.29 263.34 308.87 267.8 311.44 272.23 308.87 267.77 306.29"/><polygon class="cls-16" points="267.8 311.44 267.78 316.7 272.21 314.13 272.23 308.87 267.8 311.44"/><polygon class="cls-17" points="263.34 308.87 263.32 314.13 267.78 316.7 267.8 311.44 263.34 308.87"/></g><polygon class="cls-18" points="250.13 148.59 245.7 151.17 250.16 153.74 254.59 151.17 250.13 148.59"/><polygon class="cls-19" points="250.16 153.74 250.15 159 254.58 156.42 254.59 151.17 250.16 153.74"/><polygon class="cls-20" points="245.7 151.17 245.69 156.42 250.15 159 250.16 153.74 245.7 151.17"/><g class="cls-21"><polygon class="cls-22" points="247.28 317.7 241.94 320.8 247.31 323.9 252.65 320.8 247.28 317.7"/><polygon class="cls-23" points="247.31 323.9 247.3 330.23 252.63 327.13 252.65 320.8 247.31 323.9"/><polygon class="cls-24" points="241.94 320.8 241.93 327.13 247.3 330.23 247.31 323.9 241.94 320.8"/></g><polygon class="cls-25" points="280.97 278.06 275.64 281.16 281.01 284.26 286.34 281.16 280.97 278.06"/><polygon class="cls-26" points="281.01 284.26 280.99 290.59 286.32 287.49 286.34 281.16 281.01 284.26"/><polygon class="cls-27" points="275.64 281.16 275.62 287.49 280.99 290.59 281.01 284.26 275.64 281.16"/><g class="cls-14"><polygon class="cls-28" points="286.33 234.05 281 237.15 286.37 240.25 291.7 237.15 286.33 234.05"/><polygon class="cls-29" points="286.37 240.25 286.35 246.57 291.68 243.47 291.7 237.15 286.37 240.25"/><polygon class="cls-30" points="281 237.15 280.98 243.47 286.35 246.57 286.37 240.25 281 237.15"/></g><g class="cls-14"><polygon class="cls-31" points="250.06 168.92 244.72 172.02 250.09 175.12 255.43 172.02 250.06 168.92"/><polygon class="cls-32" points="250.09 175.12 250.08 181.45 255.41 178.35 255.43 172.02 250.09 175.12"/><polygon class="cls-33" points="244.72 172.02 244.71 178.35 250.08 181.45 250.09 175.12 244.72 172.02"/></g><g class="cls-14"><polygon class="cls-34" points="231.2 194.99 225.86 198.09 231.23 201.19 236.57 198.09 231.2 194.99"/><polygon class="cls-35" points="231.23 201.19 231.21 207.51 236.55 204.41 236.57 198.09 231.23 201.19"/><polygon class="cls-36" points="225.86 198.09 225.84 204.41 231.21 207.51 231.23 201.19 225.86 198.09"/></g><g class="cls-14"><polygon class="cls-37" points="249.96 278.11 239.27 284.32 250.03 290.53 260.71 284.32 249.96 278.11"/><polygon class="cls-38" points="250.03 290.53 249.99 303.2 260.67 296.99 260.71 284.32 250.03 290.53"/><polygon class="cls-39" points="239.27 284.32 239.24 296.99 249.99 303.2 250.03 290.53 239.27 284.32"/></g><g class="cls-40"><polygon class="cls-41" points="233.88 256.21 223.19 262.42 233.95 268.63 244.63 262.42 233.88 256.21"/><polygon class="cls-42" points="233.95 268.63 233.91 281.3 244.59 275.09 244.63 262.42 233.95 268.63"/><polygon class="cls-43" points="223.19 262.42 223.16 275.09 233.91 281.3 233.95 268.63 223.19 262.42"/></g><g class="cls-14"><polygon class="cls-44" points="266.59 250 255.9 256.21 266.66 262.42 277.34 256.21 266.59 250"/><polygon class="cls-45" points="266.66 262.42 266.62 275.09 277.31 268.88 277.34 256.21 266.66 262.42"/><polygon class="cls-46" points="255.9 256.21 255.87 268.88 266.62 275.09 266.66 262.42 255.9 256.21"/></g><polygon class="cls-47" points="267.76 188.83 257.08 195.04 267.83 201.25 278.52 195.04 267.76 188.83"/><polygon class="cls-48" points="267.83 201.25 267.8 213.92 278.48 207.71 278.52 195.04 267.83 201.25"/><polygon class="cls-49" points="257.08 195.04 257.05 207.71 267.8 213.92 267.83 201.25 257.08 195.04"/><g class="cls-14"><polygon class="cls-50" points="250.02 213.92 235.32 222.46 250.12 231 264.82 222.46 250.02 213.92"/><polygon class="cls-51" points="250.12 231 250.07 248.44 264.77 239.89 264.82 222.46 250.12 231"/><polygon class="cls-52" points="235.32 222.46 235.27 239.89 250.07 248.44 250.12 231 235.32 222.46"/></g><g class="cls-14"><polygon class="cls-53" points="231.17 289.26 220.49 295.47 231.24 301.68 241.93 295.47 231.17 289.26"/><polygon class="cls-54" points="231.24 301.68 231.21 314.35 241.89 308.14 241.93 295.47 231.24 301.68"/><polygon class="cls-55" points="220.49 295.47 220.45 308.14 231.21 314.35 231.24 301.68 220.49 295.47"/></g><path class="cls-56" d="M221.68,235.24a1.19,1.19,0,0,1-1.2-1.19v-8.94a1.2,1.2,0,0,1,2.4,0v8.94A1.19,1.19,0,0,1,221.68,235.24Z"/><path class="cls-57" d="M267.84,180.9a1.19,1.19,0,0,1-1.2-1.19V164.45a1.2,1.2,0,0,1,2.39,0v15.26A1.19,1.19,0,0,1,267.84,180.9Z"/><path class="cls-58" d="M231.21,163.93a1.2,1.2,0,0,1-1.2-1.2V153.8a1.2,1.2,0,1,1,2.39,0v8.93A1.19,1.19,0,0,1,231.21,163.93Z"/><path class="cls-59" d="M245.8,202.38a1.19,1.19,0,0,1-1.19-1.19V185.24a1.2,1.2,0,1,1,2.39,0v15.95A1.19,1.19,0,0,1,245.8,202.38Z"/><path class="cls-60" d="M224.06,243.92a2.06,2.06,0,1,1-2.05-2.06A2.05,2.05,0,0,1,224.06,243.92Z"/><path class="cls-61" d="M277.69,229.58a2.06,2.06,0,1,1-2.05-2.06A2.05,2.05,0,0,1,277.69,229.58Z"/><path class="cls-62" d="M233.3,172.08a2.06,2.06,0,1,1-2.06-2.06A2.06,2.06,0,0,1,233.3,172.08Z"/><path class="cls-25" d="M258,311.44a2.06,2.06,0,1,1-2.06-2.05A2.06,2.06,0,0,1,258,311.44Z"/></g></svg>