<svg xmlns="http://www.w3.org/2000/svg" xmlns:xlink="http://www.w3.org/1999/xlink" width="500" height="500" viewBox="0 0 500 500"><defs><style>.cls-1{isolation:isolate;}.cls-2{fill:url(#linear-gradient);}.cls-3{fill:url(#linear-gradient-2);}.cls-4{fill:url(#linear-gradient-3);}.cls-5{fill:#6f6f6f;}.cls-6{fill:url(#linear-gradient-4);}.cls-7{fill:url(#linear-gradient-5);}.cls-8{fill:url(#linear-gradient-6);}.cls-9{fill:#f3f3f3;}.cls-10,.cls-11{fill:none;stroke-width:0.5px;}.cls-10{stroke:#97c1ff;}.cls-11{stroke:#6f6f6f;}</style><linearGradient id="linear-gradient" x1="298.59" y1="282.62" x2="305.11" y2="282.62" gradientUnits="userSpaceOnUse"><stop offset="0" stop-color="#171717"/><stop offset="1" stop-color="#282828"/></linearGradient><linearGradient id="linear-gradient-2" x1="214.33" y1="181.9" x2="276.86" y2="145.79" gradientUnits="userSpaceOnUse"><stop offset="0" stop-color="#565656"/><stop offset="1" stop-color="#3d3d3d"/></linearGradient><linearGradient id="linear-gradient-3" x1="185.59" y1="251.75" x2="299.08" y2="251.75" gradientUnits="userSpaceOnUse"><stop offset="0" stop-color="#3d3d3d"/><stop offset="1" stop-color="#282828"/></linearGradient><linearGradient id="linear-gradient-4" x1="307.89" y1="301.72" x2="314.41" y2="301.72" gradientUnits="userSpaceOnUse"><stop offset="0" stop-color="#054ada"/><stop offset="1" stop-color="#0062ff"/></linearGradient><linearGradient id="linear-gradient-5" x1="253.68" y1="262.2" x2="296.17" y2="237.67" gradientUnits="userSpaceOnUse"><stop offset="0" stop-color="#6ea6ff"/><stop offset="1" stop-color="#408bfc"/></linearGradient><linearGradient id="linear-gradient-6" x1="234.96" y1="282.41" x2="308.38" y2="282.41" gradientUnits="userSpaceOnUse"><stop offset="0" stop-color="#408bfc"/><stop offset="1" stop-color="#0062ff"/></linearGradient></defs><g id="Dark_Theme_Objects" data-name="Dark Theme Objects"><g class="cls-1"><polygon class="cls-2" points="298.59 370.53 304.62 367.03 305.11 194.71 299.08 198.21 298.59 370.53"/><polygon class="cls-3" points="299.08 198.21 305.11 194.71 192.11 129.47 186.08 132.97 299.08 198.21"/><polygon class="cls-4" points="186.08 132.97 185.59 305.29 298.59 370.53 299.08 198.21 186.08 132.97"/></g><polygon class="cls-5" points="193.11 181.95 193.08 236.43 291.75 293.39 291.78 238.91 193.11 181.95"/><polygon class="cls-5" points="193.11 159.89 193.08 170.24 259.79 208.76 259.82 198.41 193.11 159.89"/><polygon class="cls-5" points="192.86 270.24 192.83 280.59 291.5 337.56 291.53 327.21 192.86 270.24"/><polygon class="cls-5" points="192.92 248.16 192.89 258.51 291.56 315.48 291.59 305.13 192.92 248.16"/><g class="cls-1"><polygon class="cls-6" points="307.89 334.2 313.92 330.69 314.41 269.25 308.38 272.75 307.89 334.2"/><polygon class="cls-7" points="308.38 272.75 314.41 269.25 241.47 227.12 235.45 230.62 308.38 272.75"/><polygon class="cls-8" points="235.45 230.62 234.96 292.07 307.89 334.2 308.38 272.75 235.45 230.62"/></g><polygon class="cls-9" points="301.99 324.3 241.35 289.3 241.35 286.66 301.99 321.66 301.99 324.3"/><polygon class="cls-9" points="268.51 273.43 268.5 286.33 275.7 284.05 268.51 273.43"/><line class="cls-10" x1="235.45" y1="230.62" x2="308.38" y2="272.75"/><line class="cls-11" x1="186.08" y1="132.97" x2="299.08" y2="198.21"/></g></svg>