<svg xmlns="http://www.w3.org/2000/svg" xmlns:xlink="http://www.w3.org/1999/xlink" width="500" height="500" viewBox="0 0 500 500"><defs><style>.cls-1{isolation:isolate;}.cls-2{fill:#282828;}.cls-3{fill:#565656;}.cls-4{fill:#3d3d3d;}.cls-5{fill:url(#linear-gradient);}.cls-6{fill:url(#linear-gradient-2);}.cls-7{fill:url(#linear-gradient-3);}.cls-8{fill:#6f6f6f;}.cls-9{fill:url(#linear-gradient-4);}.cls-10{fill:url(#linear-gradient-5);}.cls-11{fill:url(#linear-gradient-6);}.cls-12{fill:url(#linear-gradient-7);}.cls-13{fill:url(#linear-gradient-8);}.cls-14{fill:url(#linear-gradient-9);}.cls-15{fill:url(#linear-gradient-10);}.cls-16{fill:url(#linear-gradient-11);}.cls-17{fill:url(#linear-gradient-12);}.cls-18{fill:url(#linear-gradient-13);}.cls-19{fill:url(#linear-gradient-14);}.cls-20{fill:url(#linear-gradient-15);}</style><linearGradient id="linear-gradient" x1="259.9" y1="307.39" x2="318.32" y2="307.39" gradientUnits="userSpaceOnUse"><stop offset="0" stop-color="#565656"/><stop offset="1" stop-color="#6f6f6f"/></linearGradient><linearGradient id="linear-gradient-2" x1="261.39" y1="279.44" x2="307.7" y2="279.44" gradientUnits="userSpaceOnUse"><stop offset="0" stop-color="#3d3d3d"/><stop offset="1" stop-color="#565656"/></linearGradient><linearGradient id="linear-gradient-3" x1="255.74" y1="299.7" x2="259.9" y2="299.7" xlink:href="#linear-gradient-2"/><linearGradient id="linear-gradient-4" x1="219.61" y1="274.17" x2="248.86" y2="274.17" gradientUnits="userSpaceOnUse"><stop offset="0" stop-color="#6f6f6f"/><stop offset="1" stop-color="#565656"/></linearGradient><linearGradient id="linear-gradient-5" x1="245.43" y1="318.92" x2="255.74" y2="318.92" gradientUnits="userSpaceOnUse"><stop offset="0" stop-color="#565656"/><stop offset="1" stop-color="#3d3d3d"/></linearGradient><linearGradient id="linear-gradient-6" x1="236.34" y1="329.75" x2="282.2" y2="250.32" gradientUnits="userSpaceOnUse"><stop offset="0" stop-color="#a4a4a4"/><stop offset="1" stop-color="#8c8c8c"/></linearGradient><linearGradient id="linear-gradient-7" x1="183.23" y1="300.89" x2="248.04" y2="300.89" xlink:href="#linear-gradient"/><linearGradient id="linear-gradient-8" x1="248.86" y1="288.24" x2="260.53" y2="288.24" gradientUnits="userSpaceOnUse"><stop offset="0" stop-color="#8c8c8c"/><stop offset="0.65" stop-color="#565656"/><stop offset="0.8" stop-color="#595959"/><stop offset="0.92" stop-color="#636363"/><stop offset="1" stop-color="#6f6f6f"/></linearGradient><linearGradient id="linear-gradient-9" x1="252.63" y1="284.95" x2="256.76" y2="277.8" xlink:href="#linear-gradient-6"/><linearGradient id="linear-gradient-10" x1="250.51" y1="257.35" x2="258.72" y2="257.35" xlink:href="#linear-gradient-8"/><linearGradient id="linear-gradient-11" x1="250.51" y1="230.99" x2="258.72" y2="230.99" xlink:href="#linear-gradient-6"/><linearGradient id="linear-gradient-12" x1="231.31" y1="253.64" x2="268.14" y2="189.85" xlink:href="#linear-gradient-2"/><linearGradient id="linear-gradient-13" x1="209.95" y1="170.4" x2="212.67" y2="165.69" xlink:href="#linear-gradient-5"/><linearGradient id="linear-gradient-14" x1="174.61" y1="209.33" x2="247.15" y2="209.33" gradientUnits="userSpaceOnUse"><stop offset="0" stop-color="#3d3d3d"/><stop offset="1" stop-color="#282828"/></linearGradient><linearGradient id="linear-gradient-15" x1="242.66" y1="227.38" x2="320.5" y2="227.38" gradientUnits="userSpaceOnUse"><stop offset="0" stop-color="#171717"/><stop offset="1" stop-color="#282828"/></linearGradient></defs><g id="Dark_Theme_Objects" data-name="Dark Theme Objects"><g class="cls-1"><path class="cls-2" d="M308.37,272.22a11.53,11.53,0,0,0-3.95,8.27c0,2.92,1.79,4,4,2.31a11.56,11.56,0,0,0,3.94-8.27C312.33,271.61,310.55,270.58,308.37,272.22Z"/><path class="cls-3" d="M308.37,273.81a8.06,8.06,0,0,0-2.76,5.79c0,2,1.25,2.76,2.78,1.61a8,8,0,0,0,2.76-5.79C311.15,273.38,309.9,272.66,308.37,273.81Z"/><path class="cls-4" d="M297.6,277.29c0-.07,0-.15,0-.22s0-.1,0-.15v-.07a1.79,1.79,0,0,0,0-.23l0-.22v-.09c0-.05,0-.09,0-.14s0-.15,0-.23l0-.17v0c0-.07,0-.14,0-.21a1.6,1.6,0,0,0,.05-.21l0-.12v-.07c0-.06,0-.12.05-.18a1.54,1.54,0,0,1,0-.17c0-.05,0-.11,0-.16v0h0s0-.08,0-.12,0-.1.05-.14,0-.1,0-.15a1.21,1.21,0,0,1,.05-.14v0h0a.3.3,0,0,1,0-.1.58.58,0,0,1,.05-.14l.06-.16.07-.16h0l.06-.15.12-.27,0-.06c.1-.22.21-.43.32-.64h0a2,2,0,0,0,.14-.25c0-.06.07-.12.11-.17a.41.41,0,0,1,.05-.09v0l0-.05.09-.15.09-.14.09-.14,0,0h0a1,1,0,0,0,.08-.11l.1-.14.11-.15,0-.06,0,0,.05-.07.13-.17a1.15,1.15,0,0,0,.14-.17l0,0,0,0,.12-.14.17-.18.06-.06,0,0,.07-.07.17-.17.11-.1,0,0,0,0,.16-.14.17-.13,0,0,.12-.09.16-.11.07-.05,0,0,.05,0,.16-.09.13-.07h0l.15-.07.17-.07h0l.14,0,.17,0h0l.13,0,.17,0h.45l.09,0,.13,0H304l.16.06h0l6.82,3-.22-.07-.13,0-.17,0h-.37a1.6,1.6,0,0,0-.29.05h0l-.32.1h0l-.34.15h0l-.34.19,0,0-.36.25a4.12,4.12,0,0,0-.4.33l0,0-.36.34,0,0c-.12.12-.23.25-.35.38l0,0a5,5,0,0,0-.34.43l0,0c-.12.15-.23.31-.34.47h0l-.32.49v0l-.3.51-.32.64-.21.48h0l-.22.57h0c-.07.19-.14.39-.2.58h0c-.06.19-.11.38-.16.57v0c0,.19-.09.37-.12.56v0l-.09.54v0a5,5,0,0,0-.06.54v0c0,.18,0,.36,0,.53a4.63,4.63,0,0,0,0,.54v0c0,.16,0,.32.06.46v.05c0,.14.06.27.1.4l0,.06a3.42,3.42,0,0,0,.13.34l.06.11a1.51,1.51,0,0,0,.11.22,1,1,0,0,1,.08.11l.13.17.09.09.16.14.08.06a1.75,1.75,0,0,0,.27.16h0l-6.82-3a1.17,1.17,0,0,1-.27-.15l-.08-.06-.17-.15-.08-.09a1.09,1.09,0,0,1-.13-.17,1,1,0,0,1-.08-.11l0-.06-.08-.15a.54.54,0,0,0-.05-.11s0,0,0,0-.07-.16-.1-.25,0,0,0-.06,0,0,0-.06,0-.07,0-.12,0-.15-.05-.23v-.09s0-.08,0-.12l0-.22s0-.08,0-.12v-.1a1.48,1.48,0,0,1,0-.21,1.62,1.62,0,0,1,0-.22v-.22Z"/></g><g class="cls-1"><path class="cls-2" d="M319,320.16c-3.51.42-6.34,3.13-6.33,6s2.85,5,6.36,4.52,6.35-3.13,6.34-6.05S322.53,319.74,319,320.16Z"/><path class="cls-4" d="M311,321.29a2.72,2.72,0,0,1,0-.28,1.36,1.36,0,0,1,0-.2v-.07a2,2,0,0,1,0-.26c0-.08,0-.15,0-.22v0c0-.09.05-.18.07-.26l.08-.23v0h0c0-.08.06-.17.1-.26l.09-.21,0,0v0c0-.09.09-.18.14-.27a1.09,1.09,0,0,1,.08-.15l.05-.08,0-.05.2-.3,0-.06.08-.1a1.83,1.83,0,0,1,.13-.16.69.69,0,0,1,.11-.13l.13-.16.08-.08.11-.11a3.83,3.83,0,0,1,.29-.28l.09-.09.07-.05a7.25,7.25,0,0,1,.76-.58l.14-.08a8.29,8.29,0,0,1,.88-.49h0l.2-.08.37-.16.07,0,.4-.13.07,0h0l.42-.11.13,0,.11,0,.15,0,.36,0h.08l.26,0,.33,0h.92l.3,0,.27,0h0a2.47,2.47,0,0,1,.29.06l.31.07.31.09h0l.31.11a2.63,2.63,0,0,1,.35.15l.14.07.09.05.14.07a4.92,4.92,0,0,1,.45.28l.06.06.19.15a4.86,4.86,0,0,1,.41.38l.18.2a3.43,3.43,0,0,1,.32.43l.13.2a3.45,3.45,0,0,1,.33.7l1.73,4.88a4.37,4.37,0,0,0-.33-.69l-.13-.21c-.1-.15-.21-.29-.32-.43l-.18-.2a3.7,3.7,0,0,0-.42-.37c-.06-.05-.12-.11-.18-.15a6,6,0,0,0-.65-.42l-.09,0a5.65,5.65,0,0,0-.8-.34h0a5.75,5.75,0,0,0-.93-.23h0a7.59,7.59,0,0,0-1-.09h0a7.53,7.53,0,0,0-1.05.05,5.58,5.58,0,0,0-.59.1l-.12,0-.56.14-.07,0-.47.16-.38.15-.22.1a8.39,8.39,0,0,0-.89.48l-.13.09a6.2,6.2,0,0,0-.77.58l-.16.14a3.57,3.57,0,0,0-.28.27l-.19.2-.14.15-.24.3-.07.1c-.1.13-.19.27-.28.41l0,.07a4.77,4.77,0,0,0-.24.44v0c-.07.16-.14.32-.2.49v0a4.13,4.13,0,0,0-.15.5v0a4.37,4.37,0,0,0-.09.5v0a4.67,4.67,0,0,0,0,.52,5.21,5.21,0,0,0,.05.69s0,.05,0,.07a4.28,4.28,0,0,0,.16.64l-1.72-4.88a.93.93,0,0,1,0-.13,2.24,2.24,0,0,1-.1-.37l0-.14s0,0,0-.08a.43.43,0,0,1,0-.11l0-.31a2.26,2.26,0,0,1,0-.26Z"/></g><path class="cls-3" d="M319,321.75c-2.45.29-4.43,2.19-4.43,4.23s2,3.46,4.46,3.17,4.44-2.2,4.43-4.24S321.48,321.45,319,321.75Z"/><g class="cls-1"><path class="cls-2" d="M241,341.94c-2.84-1.25-5.14.13-5.16,3.08a9.07,9.07,0,0,0,5.11,7.61c2.83,1.25,5.13-.13,5.15-3.08A9.08,9.08,0,0,0,241,341.94Z"/><path class="cls-3" d="M240.94,343.54c-2-.87-3.6.09-3.61,2.16a6.32,6.32,0,0,0,3.58,5.32c2,.88,3.59-.08,3.6-2.15A6.36,6.36,0,0,0,240.94,343.54Z"/><path class="cls-4" d="M239.48,341.52l-.13,0h-.65l-.31,0-.13,0a1.57,1.57,0,0,0-.31.08l-.09,0-.36.15-.07,0a2.63,2.63,0,0,0-.33.2h0l5.28-3.84.18-.12.14-.08.08,0,0,0,.28-.11h0l.08,0,.19,0,.13,0,.13,0,.09,0h.4l.22,0h.28l.09,0a3.69,3.69,0,0,1,.56.11l.1,0,.09,0a5.71,5.71,0,0,1,.72.26,6.26,6.26,0,0,1,.77.4l.09.05.06,0c.22.14.44.3.66.46l0,0,.17.14.27.23,0,0,.22.22.14.14,0,0,.35.38h0l.06.07.23.28.07.09.1.14a1.34,1.34,0,0,1,.11.14l.14.2.08.12,0,.06.24.38v0a.41.41,0,0,1,0,.09,2.69,2.69,0,0,1,.16.29l.06.11.08.16.08.16.08.18c0,.07.05.13.08.19a1,1,0,0,0,0,.1l.08.21.09.25a.14.14,0,0,0,0,.07c0,.06,0,.11.05.16s.07.27.11.4,0,.07,0,.11a.5.5,0,0,1,0,.12c0,.16.06.32.09.47s0,.14,0,.21a4.82,4.82,0,0,1,0,.65,3.55,3.55,0,0,1-1.31,3l-5.27,3.84a3.53,3.53,0,0,0,1.31-3c0-.22,0-.44,0-.66l0-.2c0-.16,0-.32-.08-.48a1.74,1.74,0,0,0-.05-.22c0-.14-.07-.27-.11-.4a1.55,1.55,0,0,0-.07-.23,1.84,1.84,0,0,0-.09-.25,2.83,2.83,0,0,0-.11-.31l-.09-.19-.15-.34-.08-.17c-.07-.13-.14-.27-.22-.4l-.05-.09c-.09-.16-.19-.31-.29-.47l-.08-.11-.25-.35-.1-.13-.3-.37-.06-.07-.39-.42-.15-.14a2.23,2.23,0,0,0-.27-.26l-.26-.23-.21-.16a7.85,7.85,0,0,0-.66-.47l-.14-.08a5.75,5.75,0,0,0-.77-.41,6.34,6.34,0,0,0-.72-.26l-.19-.05A4,4,0,0,0,239.48,341.52Z"/></g><g class="cls-1"><path class="cls-2" d="M219.2,265.05c-3.19-1-5.94.52-6.13,3.48s2.24,6.21,5.44,7.25,5.94-.52,6.13-3.48S222.4,266.09,219.2,265.05Z"/><path class="cls-4" d="M224.62,271.49c0-.15,0-.29-.05-.43s0-.15,0-.23-.06-.26-.1-.39a2.17,2.17,0,0,0-.07-.24c0-.13-.09-.27-.14-.4l-.08-.21c-.08-.17-.16-.35-.25-.52a.59.59,0,0,0,0-.08,2.25,2.25,0,0,0-.12-.21l-.18-.31-.07-.1c-.08-.13-.17-.25-.26-.37l-.1-.14-.26-.31-.12-.14c-.09-.11-.19-.21-.29-.32l-.09-.09-.41-.38-.11-.08a2.88,2.88,0,0,0-.34-.27l-.15-.12-.33-.22-.17-.11-.31-.18-.22-.12-.21-.1-.42-.18-.49-.19a6.45,6.45,0,0,0-.84-.21l-.65-.09H217l-.24,0-.4.05a2.44,2.44,0,0,0-.26.06l-.37.1-.17.06a3.61,3.61,0,0,0-.49.21h0a4.66,4.66,0,0,0-.47.3l-.08.06a3.88,3.88,0,0,0-.42.39l3.86-4.14.09-.1.26-.24.07,0,.08-.06.14-.1.33-.2h0l.37-.17.13-.05.17-.06.15-.05.22,0,.26-.05.11,0,.29,0,.24,0h.71c.18,0,.37,0,.56.07l.06,0a6.87,6.87,0,0,1,.84.21,2.86,2.86,0,0,1,.41.15l.08,0,.41.19.17.07.05,0,.22.12.24.14.07,0,.17.11a1.37,1.37,0,0,1,.2.13l.13.09.15.11.12.09.22.18.1.09,0,0c.12.1.23.21.34.32l0,0,.09.09.21.21.09.11.12.14.1.11.15.2a.76.76,0,0,1,.11.14l0,.05a3.62,3.62,0,0,1,.22.32l.07.1v0c.06.09.11.19.17.29l.12.21h0l0,.07c.09.17.17.34.25.52a.14.14,0,0,1,0,.06l.06.15c0,.13.1.26.14.4a2,2,0,0,1,.07.23,2.88,2.88,0,0,1,.09.4,1.55,1.55,0,0,1,.05.23c0,.14,0,.28,0,.42a1.5,1.5,0,0,1,0,.2c0,.21,0,.41,0,.62a4,4,0,0,1-1,2.53l-3.86,4.14a4,4,0,0,0,1-2.53,4.14,4.14,0,0,0,0-.61A1.23,1.23,0,0,0,224.62,271.49Z"/><path class="cls-3" d="M219.1,266.66c-2.24-.73-4.16.36-4.29,2.44a5.46,5.46,0,0,0,3.8,5.07c2.24.73,4.16-.36,4.3-2.43A5.48,5.48,0,0,0,219.1,266.66Z"/></g><g class="cls-1"><path class="cls-4" d="M176.67,311.77a1.55,1.55,0,0,1,0-.22v-.23l0-.22,0-.23h0a1.43,1.43,0,0,0,0-.22c0-.08,0-.16.05-.24s0-.05,0-.08v-.05l0-.11.06-.24c0-.06,0-.12,0-.18v-.06a2.25,2.25,0,0,1,.08-.24,1.55,1.55,0,0,1,.08-.23v-.05l0,0a1.21,1.21,0,0,1,.05-.14l.09-.22c0-.06,0-.12.07-.17v0a1.47,1.47,0,0,1,.1-.22l.11-.24,0-.06,0,0,.08-.16c.06-.11.12-.23.19-.34h0a6.89,6.89,0,0,1,.4-.64.43.43,0,0,1,0-.07l.2-.29.05-.07h0c.07-.09.13-.18.2-.26l.15-.19h0v0l.18-.2c0-.07.11-.13.17-.2l0,0,0,0a.86.86,0,0,1,.13-.14l.19-.19.06-.06,0,0,.1-.09.2-.18.09-.07.05,0,.07-.06.2-.15.14-.1,0,0,0,0,.19-.13.19-.12,0,0,.14-.08.19-.1.12,0,0,0,0,0,.18-.07.19-.07h0l.13,0,.19-.06.09,0h.1l.2,0,.12,0h.53l.27,0h0l.28.07h0l.35.16,6.09,3.52a1.58,1.58,0,0,0-.35-.16l-.3-.09h0l-.34,0h-.07a2,2,0,0,0-.35,0h0a2.5,2.5,0,0,0-.38.06h0l-.4.11h0l-.44.18h0a4.92,4.92,0,0,0-.45.24l-.46.29,0,0-.42.32,0,0-.38.35-.05,0c-.13.12-.26.25-.38.38l0,0-.39.44v0l-.36.46,0,.06-.25.36c-.14.21-.27.42-.4.64l-.27.51,0,.05c-.09.18-.17.35-.25.53v0l-.21.54v0c-.07.19-.13.37-.19.55v0c0,.18-.09.36-.14.53v.05c0,.18-.07.36-.1.54h0c0,.18,0,.37-.07.54v0a4.7,4.7,0,0,0,0,.53,4.1,4.1,0,0,0,0,.5V316c0,.15,0,.29.07.43v0c0,.14.06.26.1.39a.14.14,0,0,0,0,.06,2.52,2.52,0,0,0,.13.33v0a2.59,2.59,0,0,0,.19.33,2,2,0,0,0,.31.39l.09.09a2.19,2.19,0,0,0,.39.29L178,314.93a2.25,2.25,0,0,1-.39-.3l-.09-.08a3.3,3.3,0,0,1-.32-.4h0a3.3,3.3,0,0,1-.18-.32h0v0a1.47,1.47,0,0,1-.1-.22l0-.11,0-.07a.14.14,0,0,0,0-.06l-.06-.24s0,0,0-.08l0-.06s0-.05,0-.08,0-.15,0-.22a.62.62,0,0,0,0-.13v-.09c0-.07,0-.15,0-.22s0-.15,0-.22v0A1.41,1.41,0,0,1,176.67,311.77Z"/><path class="cls-2" d="M187.32,307.54a10.12,10.12,0,0,0-4.56,7.95c0,2.92,2.06,4.09,4.59,2.62a10.11,10.11,0,0,0,4.57-7.95C191.91,307.24,189.86,306.07,187.32,307.54Z"/></g><path class="cls-3" d="M187.33,309.12a7.1,7.1,0,0,0-3.2,5.57c0,2,1.45,2.87,3.22,1.84a7.13,7.13,0,0,0,3.2-5.57C190.54,308.92,189.1,308.09,187.33,309.12Z"/><polygon class="cls-5" points="318.32 319.55 259.9 302.97 259.9 295.23 316.51 311.88 318.32 314.21 318.32 319.55"/><polygon class="cls-3" points="320.57 311.87 318.71 309.68 316.51 311.88 318.32 314.21 320.57 311.87"/><polygon class="cls-4" points="320.57 311.87 320.57 317.3 318.32 319.55 318.32 314.21 320.57 311.87"/><polygon class="cls-6" points="307.7 265.9 306.13 264.4 261.39 290.36 261.81 292.83 267.36 294.48 307.7 271.07 307.7 265.9"/><polygon class="cls-7" points="259.9 302.97 259.9 295.23 255.74 296.44 255.74 304.17 259.9 302.97"/><polygon class="cls-8" points="247.94 301.78 249.51 302.51 251.23 296.16 248.04 294.17 247.94 301.78"/><polygon class="cls-9" points="219.61 263.09 219.61 256.96 220.54 256.5 248.86 288.65 248.86 290 247.31 291.65 245.07 291.85 219.61 263.09"/><polygon class="cls-3" points="245.77 332.68 245.43 335.5 241.1 335.46 241.37 332.65 245.77 332.68"/><polygon class="cls-4" points="241.1 335.46 245.43 335.5 245.43 341.41 241.1 341.38 241.1 335.46"/><polygon class="cls-10" points="255.74 304.17 245.43 341.41 245.43 335.5 245.77 332.68 255.74 296.44 255.74 304.17"/><polygon class="cls-3" points="184.29 297.3 185.17 299.9 183.24 301.76 182.5 299.17 184.29 297.3"/><polygon class="cls-4" points="183.24 301.76 183.24 307.6 182.53 305.39 182.5 299.17 183.24 301.76"/><polygon class="cls-11" points="261.81 292.83 261.39 290.36 306.13 264.4 303.18 262.44 260.53 287.09 252.66 286.71 224.51 255.22 220.54 256.5 248.86 288.65 247.31 291.65 184.29 297.3 185.17 299.89 248.04 294.17 251.23 296.16 241.37 332.65 245.77 332.68 255.74 296.44 259.9 295.23 316.51 311.88 318.71 309.68 261.81 292.83"/><polygon class="cls-12" points="248.04 294.17 185.17 299.9 183.24 301.76 183.24 307.6 247.94 301.78 248.04 294.17"/><path class="cls-13" d="M260.53,281.36H248.86v10.38a2.93,2.93,0,0,0,1.78,2.42,9.1,9.1,0,0,0,8.21-.06,2.91,2.91,0,0,0,1.68-2.36Z"/><ellipse class="cls-14" cx="254.69" cy="281.37" rx="5.83" ry="3.37"/><path class="cls-15" d="M258.72,231h-8.21v50.37a2.07,2.07,0,0,0,1.25,1.71,6.43,6.43,0,0,0,5.78,0,2,2,0,0,0,1.18-1.67Z"/><ellipse class="cls-16" cx="254.61" cy="230.99" rx="4.11" ry="2.37"/><polygon class="cls-17" points="246.82 262.6 320.5 220.18 252.66 180.92 178.9 223.39 246.82 262.6"/><polygon class="cls-18" points="248.01 186.09 242.66 189.18 174.61 150 179.96 146.91 248.01 186.09"/><polygon class="cls-19" points="242.66 189.18 247.15 268.66 179.22 229.44 174.61 150 242.66 189.18"/><polygon class="cls-20" points="320.5 220.18 320.5 226.36 247.15 268.66 242.66 189.18 248.01 186.09 252.14 259.54 320.5 220.18"/></g></svg>