<svg xmlns="http://www.w3.org/2000/svg" xmlns:xlink="http://www.w3.org/1999/xlink" width="500" height="500" viewBox="0 0 500 500"><defs><style>.cls-1{fill:url(#linear-gradient);}.cls-2{fill:url(#linear-gradient-2);}.cls-3{fill:url(#linear-gradient-3);}.cls-4{fill:url(#linear-gradient-4);}.cls-5{fill:url(#linear-gradient-5);}.cls-6{fill:url(#linear-gradient-6);}.cls-7{fill:url(#linear-gradient-7);}.cls-8{fill:url(#linear-gradient-8);}.cls-9{fill:url(#linear-gradient-9);}.cls-10{fill:url(#linear-gradient-10);}.cls-11{fill:url(#linear-gradient-11);}.cls-12{fill:url(#linear-gradient-12);}.cls-13{fill:url(#linear-gradient-13);}.cls-14{fill:url(#linear-gradient-14);}.cls-15{fill:url(#linear-gradient-15);}.cls-16{fill:url(#linear-gradient-16);}.cls-17{fill:url(#linear-gradient-17);}.cls-18{fill:url(#linear-gradient-18);}</style><linearGradient id="linear-gradient" x1="108.1" y1="272.8" x2="235" y2="200.4" gradientUnits="userSpaceOnUse"><stop offset="0.1" stop-color="#d0b0ff"/><stop offset="0.9" stop-color="#408bfc"/></linearGradient><linearGradient id="linear-gradient-2" x1="142.37" y1="251.53" x2="288.76" y2="163.75" xlink:href="#linear-gradient"/><linearGradient id="linear-gradient-3" x1="117.97" y1="210.91" x2="265.87" y2="125.52" gradientUnits="userSpaceOnUse"><stop offset="0" stop-color="#d0b0ff"/><stop offset="0.16" stop-color="#b0a8fe"/><stop offset="0.44" stop-color="#809bfd"/><stop offset="0.68" stop-color="#5d92fd"/><stop offset="0.87" stop-color="#488dfc"/><stop offset="1" stop-color="#408bfc"/></linearGradient><linearGradient id="linear-gradient-4" x1="187" y1="263.65" x2="322.35" y2="263.65" gradientUnits="userSpaceOnUse"><stop offset="0" stop-color="#171717"/><stop offset="1"/></linearGradient><linearGradient id="linear-gradient-5" x1="182.86" y1="301.89" x2="187" y2="301.89" gradientUnits="userSpaceOnUse"><stop offset="0" stop-color="#565656" stop-opacity="0.99"/><stop offset="1" stop-color="#3d3d3d"/></linearGradient><linearGradient id="linear-gradient-6" x1="218.61" y1="267.16" x2="286.6" y2="149.4" gradientUnits="userSpaceOnUse"><stop offset="0" stop-color="#6f6f6f"/><stop offset="1" stop-color="#565656"/></linearGradient><linearGradient id="linear-gradient-7" x1="197.51" y1="269.05" x2="332.86" y2="269.05" xlink:href="#linear-gradient-4"/><linearGradient id="linear-gradient-8" x1="193.37" y1="307.29" x2="197.51" y2="307.29" xlink:href="#linear-gradient-5"/><linearGradient id="linear-gradient-9" x1="229.12" y1="272.57" x2="297.11" y2="154.81" xlink:href="#linear-gradient-6"/><linearGradient id="linear-gradient-10" x1="208.41" y1="274.9" x2="343.76" y2="274.9" xlink:href="#linear-gradient-4"/><linearGradient id="linear-gradient-11" x1="204.27" y1="313.14" x2="208.41" y2="313.14" xlink:href="#linear-gradient-5"/><linearGradient id="linear-gradient-12" x1="240.02" y1="278.41" x2="308.01" y2="160.65" xlink:href="#linear-gradient-6"/><linearGradient id="linear-gradient-13" x1="219.18" y1="280.46" x2="354.53" y2="280.46" xlink:href="#linear-gradient-4"/><linearGradient id="linear-gradient-14" x1="215.04" y1="318.7" x2="219.18" y2="318.7" xlink:href="#linear-gradient-5"/><linearGradient id="linear-gradient-15" x1="250.79" y1="283.97" x2="318.78" y2="166.21" xlink:href="#linear-gradient-6"/><linearGradient id="linear-gradient-16" x1="230.05" y1="285.86" x2="365.4" y2="285.86" gradientUnits="userSpaceOnUse"><stop offset="0" stop-color="#282828"/><stop offset="1" stop-color="#3d3d3d"/></linearGradient><linearGradient id="linear-gradient-17" x1="225.91" y1="324.1" x2="230.05" y2="324.1" xlink:href="#linear-gradient-5"/><linearGradient id="linear-gradient-18" x1="261.66" y1="289.37" x2="329.65" y2="171.61" xlink:href="#linear-gradient-6"/></defs><g id="Dark_Theme_Objects" data-name="Dark Theme Objects"><polygon class="cls-1" points="138.74 201.85 274.09 123.1 274.09 230.94 138.74 310.32 138.74 201.85"/><polygon class="cls-2" points="134.6 307.99 134.6 199.58 138.74 201.85 138.74 310.32 134.6 307.99"/><polygon class="cls-3" points="134.6 199.58 269.43 120.53 274.09 123.1 138.74 201.85 134.6 199.58"/><polygon class="cls-4" points="187 248.78 322.35 170.04 322.35 277.88 187 357.26 187 248.78"/><polygon class="cls-5" points="182.86 354.93 182.86 246.52 187 248.78 187 357.26 182.86 354.93"/><polygon class="cls-6" points="182.86 246.52 317.69 167.47 322.35 170.04 187 248.78 182.86 246.52"/><polygon class="cls-7" points="197.51 254.19 332.86 175.45 332.86 283.28 197.51 362.66 197.51 254.19"/><polygon class="cls-8" points="193.37 360.34 193.37 251.93 197.51 254.19 197.51 362.66 193.37 360.34"/><polygon class="cls-9" points="193.37 251.93 328.21 172.88 332.86 175.45 197.51 254.19 193.37 251.93"/><polygon class="cls-10" points="208.41 260.04 343.76 181.29 343.76 289.13 208.41 368.51 208.41 260.04"/><polygon class="cls-11" points="204.27 366.18 204.27 257.77 208.41 260.04 208.41 368.51 204.27 366.18"/><polygon class="cls-12" points="204.27 257.77 339.1 178.72 343.76 181.29 208.41 260.04 204.27 257.77"/><polygon class="cls-13" points="219.18 265.59 354.53 186.85 354.53 294.69 219.18 374.06 219.18 265.59"/><polygon class="cls-14" points="215.04 371.74 215.04 263.33 219.18 265.59 219.18 374.06 215.04 371.74"/><polygon class="cls-15" points="215.04 263.33 349.87 184.28 354.53 186.85 219.18 265.59 215.04 263.33"/><polygon class="cls-16" points="230.05 271 365.4 192.25 365.4 300.09 230.05 379.47 230.05 271"/><polygon class="cls-17" points="225.91 377.14 225.91 268.73 230.05 271 230.05 379.47 225.91 377.14"/><polygon class="cls-18" points="225.91 268.73 360.75 189.68 365.4 192.25 230.05 271 225.91 268.73"/></g></svg>