<svg xmlns="http://www.w3.org/2000/svg" xmlns:xlink="http://www.w3.org/1999/xlink" width="500" height="500" viewBox="0 0 500 500"><defs><style>.cls-1{fill:#ededed;}.cls-2{fill:url(#linear-gradient);}.cls-3{fill:url(#linear-gradient-2);}.cls-4{fill:url(#linear-gradient-3);}.cls-5{fill:url(#linear-gradient-4);}.cls-6{fill:url(#linear-gradient-5);}.cls-7{fill:url(#linear-gradient-6);}.cls-8{fill:url(#linear-gradient-7);}.cls-10,.cls-9{fill:none;stroke-width:0.5px;}.cls-9{stroke:#6f6f6f;}.cls-10{stroke:#8c8c8c;}.cls-11{fill:url(#linear-gradient-8);}.cls-12{fill:url(#linear-gradient-9);}.cls-13{fill:#6f6f6f;}.cls-14{fill:url(#linear-gradient-10);}.cls-15{fill:#171717;}</style><linearGradient id="linear-gradient" x1="280.02" y1="333.4" x2="290.49" y2="315.27" gradientUnits="userSpaceOnUse"><stop offset="0" stop-color="#6f6f6f"/><stop offset="1" stop-color="#282828"/></linearGradient><linearGradient id="linear-gradient-2" x1="310.14" y1="351.7" x2="345.24" y2="351.7" gradientUnits="userSpaceOnUse"><stop offset="0" stop-color="#282828"/><stop offset="1" stop-color="#171717"/></linearGradient><linearGradient id="linear-gradient-3" x1="224.66" y1="336.87" x2="310.17" y2="336.87" gradientUnits="userSpaceOnUse"><stop offset="0" stop-color="#565656"/><stop offset="1" stop-color="#3d3d3d"/></linearGradient><linearGradient id="linear-gradient-4" x1="189.75" y1="235.84" x2="362.91" y2="235.84" xlink:href="#linear-gradient-3"/><linearGradient id="linear-gradient-5" x1="279.08" y1="160.39" x2="284.99" y2="150.16" gradientUnits="userSpaceOnUse"><stop offset="0" stop-color="#6f6f6f"/><stop offset="1" stop-color="#565656"/></linearGradient><linearGradient id="linear-gradient-6" x1="362.91" y1="282.37" x2="374.32" y2="282.37" gradientUnits="userSpaceOnUse"><stop offset="0" stop-color="#282828"/><stop offset="1" stop-color="#3d3d3d"/></linearGradient><linearGradient id="linear-gradient-7" x1="357.79" y1="282.68" x2="209.23" y2="196.91" gradientUnits="userSpaceOnUse"><stop offset="0" stop-color="#171717"/><stop offset="1"/></linearGradient><linearGradient id="linear-gradient-8" x1="229" y1="384.62" x2="266.99" y2="384.62" xlink:href="#linear-gradient-6"/><linearGradient id="linear-gradient-9" x1="125.68" y1="367.99" x2="221.75" y2="367.99" xlink:href="#linear-gradient-3"/><linearGradient id="linear-gradient-10" x1="221.75" y1="396.77" x2="229" y2="396.77" gradientUnits="userSpaceOnUse"><stop offset="0" stop-color="#3d3d3d"/><stop offset="1" stop-color="#282828"/></linearGradient></defs><g id="Dark_Theme_Objects" data-name="Dark Theme Objects"><polygon class="cls-1" points="310.14 359.83 224.66 310.06 259.73 290.6 345.21 339.71 310.14 359.83"/><polygon class="cls-2" points="310.14 359.83 224.66 310.06 259.73 290.6 345.21 339.71 310.14 359.83"/><polygon class="cls-3" points="310.14 359.83 310.17 363.69 345.24 344.22 345.21 339.71 310.14 359.83"/><polygon class="cls-4" points="224.66 310.06 224.69 313.91 310.17 363.69 310.14 359.83 224.66 310.06"/><polygon class="cls-5" points="362.92 362.94 189.75 262.89 189.75 108.74 362.92 208.78 362.92 362.94"/><polygon class="cls-6" points="362.92 208.79 189.75 108.74 201.16 101.76 374.32 201.8 362.92 208.79"/><polygon class="cls-7" points="374.32 355.96 362.92 362.94 362.92 208.79 374.32 201.8 374.32 355.96"/><polygon class="cls-8" points="350.6 342.82 202.06 257 202.06 128.48 350.6 214.43 350.6 342.82"/><line class="cls-9" x1="202.07" y1="257" x2="350.6" y2="342.82"/><line class="cls-10" x1="189.75" y1="108.74" x2="362.91" y2="208.79"/><line class="cls-10" x1="224.66" y1="310.06" x2="310.14" y2="359.83"/><path class="cls-11" d="M266.9,372.39a.14.14,0,0,1,0,.06,1.74,1.74,0,0,1-.24.47.56.56,0,0,1-.05.08,2.46,2.46,0,0,1-.41.45,3.18,3.18,0,0,1-.35.26,3.71,3.71,0,0,1-.32.23L229,395.29v2.09L265.5,376l.07,0,.25-.19c.12-.08.25-.17.36-.26l0,0c.12-.11.22-.23.32-.34a.56.56,0,0,1,.05-.08l.06-.09.09-.14a2.59,2.59,0,0,0,.14-.29.06.06,0,0,1,0,0l0-.06c0-.06,0-.12.05-.18a1.53,1.53,0,0,0,0-.3v-2.12A1.89,1.89,0,0,1,266.9,372.39Z"/><path class="cls-12" d="M127.19,340.7a3.59,3.59,0,0,1-1.13-1,2,2,0,0,1-.37-1.12v2.08a2.56,2.56,0,0,0,1.5,2.1l94.57,54.6v-2.09Z"/><path class="cls-13" d="M265.47,369.75c2,1.16,2,3,0,4.19L229,395.29a8,8,0,0,1-7.25,0L127.19,340.7c-2-1.16-2-3,0-4.19l36.51-21.36a7.92,7.92,0,0,1,7.22,0Z"/><path class="cls-14" d="M229,395.29a6.07,6.07,0,0,1-1,.45l-.39.12-.51.12c-.21,0-.42.08-.63.11l-.15,0a8.11,8.11,0,0,1-.86.05h-.14a7.92,7.92,0,0,1-.85-.05h-.13c-.28,0-.56-.08-.82-.14l-.15,0c-.24-.06-.48-.13-.71-.21l-.13,0a5.56,5.56,0,0,1-.78-.37v2.09a5.47,5.47,0,0,0,.73.35h.05l.13.05c.14,0,.29.11.45.15l.25.06.15,0,.13,0,.51.09.18,0h.13l.19,0,.5,0h.53l.57,0h.06l.15,0,.45-.06.18-.05.51-.12.28-.07.11-.05a6.16,6.16,0,0,0,1-.44Z"/><path class="cls-15" d="M195,369.76a.28.28,0,0,1,0,.53l-5,2.91a1.06,1.06,0,0,1-.92,0L158,355.25c-.26-.15-.24-.39,0-.54l5-2.9a1,1,0,0,1,.92,0Z"/><path class="cls-15" d="M203.13,374.44c.25.14.23.38,0,.52l-5,2.91a1,1,0,0,1-.9,0l-6.63-3.82a.29.29,0,0,1,0-.54l5-2.9a1,1,0,0,1,.93,0Z"/><path class="cls-15" d="M209.63,378.2c.27.15.25.39,0,.53l-5,2.91a1,1,0,0,1-.92,0l-5-2.9c-.26-.15-.25-.39,0-.54l5-2.9a1,1,0,0,1,.92,0Z"/><path class="cls-15" d="M167.19,323.7c.25.14.27.38,0,.53l-5,2.9a1,1,0,0,1-.92,0l-5-2.9a.29.29,0,0,1,0-.54l5-2.91a1,1,0,0,1,.91,0Z"/><path class="cls-15" d="M193.27,338.75a.28.28,0,0,1,0,.52l-5,2.91a1,1,0,0,1-.91,0l-5-2.91a.28.28,0,0,1,0-.53l5-2.91a1,1,0,0,1,.91,0Z"/><path class="cls-15" d="M186.74,335c.25.14.27.38,0,.52l-5,2.91a1.06,1.06,0,0,1-.92,0l-5-2.91a.28.28,0,0,1,0-.53l5-2.91a1,1,0,0,1,.91,0Z"/><path class="cls-15" d="M248.61,378.19a.29.29,0,0,1,0,.55l-5.43,3.15-6,3.49a1,1,0,0,1-.94,0l-3.28-1.89c-.27-.16-.27-.4,0-.56l6-3.49-1.41-.81-.31-.18,5.91-3.43.31.18Z"/><path class="cls-15" d="M237.34,379.2c.25.14.25.37,0,.52l-5,2.9a1,1,0,0,1-.91,0l-5-2.91c-.25-.14-.27-.38,0-.53l5-2.9a1,1,0,0,1,.92,0Z"/><path class="cls-15" d="M229.18,389.48c.27.16.25.39,0,.54l-5,2.9a1,1,0,0,1-.92,0l-5-2.89c-.26-.16-.25-.39,0-.54l5-2.91a1,1,0,0,1,.93,0Z"/><path class="cls-15" d="M222.68,385.73c.25.14.23.38,0,.52l-5,2.91a1,1,0,0,1-.9,0l-5-2.91a.28.28,0,0,1,0-.53l5-2.91a1.06,1.06,0,0,1,.92,0Z"/><path class="cls-15" d="M147.81,342.5c.27.15.25.39,0,.54l-5,2.9a1,1,0,0,1-.92,0l-5-2.89a.29.29,0,0,1,0-.54l5-2.91a1.06,1.06,0,0,1,.92,0Z"/><path class="cls-15" d="M173.7,327.46c.26.15.26.38,0,.52l-5,2.91a1,1,0,0,1-.92,0l-5-2.9a.28.28,0,0,1,0-.53l5-2.91a1,1,0,0,1,.91,0Z"/><path class="cls-15" d="M163.88,329.28c.27.15.25.39,0,.53l-5,2.91a1,1,0,0,1-.9,0L149.79,328c-.25-.14-.27-.38,0-.52l5-2.91a1.06,1.06,0,0,1,.92,0Z"/><path class="cls-15" d="M180.22,331.22c.25.15.27.38,0,.53l-5,2.91a1.08,1.08,0,0,1-.93,0l-5-2.9c-.27-.16-.25-.39,0-.54l5-2.9a.93.93,0,0,1,.9,0Z"/><path class="cls-15" d="M170.41,333a.29.29,0,0,1,0,.54l-5,2.91a1,1,0,0,1-.9,0l-5-2.91a.28.28,0,0,1,0-.52l5-2.9a1,1,0,0,1,.91,0Z"/><path class="cls-15" d="M176.93,336.81a.28.28,0,0,1,0,.53l-5,2.91a1,1,0,0,1-.91,0l-5-2.91c-.25-.14-.27-.38,0-.52l5-2.91a1.06,1.06,0,0,1,.92,0Z"/><path class="cls-15" d="M165.64,337.8a.29.29,0,0,1,0,.54l-5,2.89a1,1,0,0,1-.92,0l-5-2.9c-.25-.15-.25-.38,0-.53l5-2.9a1,1,0,0,1,.91,0Z"/><path class="cls-15" d="M183.45,340.58c.25.14.23.38,0,.52l-5,2.91a1,1,0,0,1-.89,0l-5-2.91c-.25-.14-.27-.38,0-.52l5-2.91a1,1,0,0,1,.92,0Z"/><path class="cls-15" d="M172.16,341.57c.25.14.25.37,0,.52l-5,2.9a1,1,0,0,1-.9,0l-5-2.91a.28.28,0,0,1,0-.53l5-2.9a1,1,0,0,1,.92,0Z"/><path class="cls-15" d="M199.77,342.51c.27.15.27.38,0,.53l-5,2.9a1,1,0,0,1-.92,0l-5-2.9c-.27-.15-.25-.39,0-.53l5-2.91a1,1,0,0,1,.9,0Z"/><path class="cls-15" d="M162.38,343.43c.25.14.27.38,0,.52l-5,2.91a1.06,1.06,0,0,1-.92,0l-5-2.91c-.25-.14-.23-.38,0-.52l5-2.91a1,1,0,0,1,.89,0Z"/><path class="cls-15" d="M190,344.33a.29.29,0,0,1,0,.54l-5,2.9a1,1,0,0,1-.91,0l-5-2.89c-.26-.16-.27-.39,0-.53l5-2.91a1,1,0,0,1,.93,0Z"/><path class="cls-15" d="M178.67,345.32c.26.16.27.38,0,.54l-5,2.9a1,1,0,0,1-.93,0l-5-2.9c-.27-.16-.27-.38,0-.54l5-2.89a.94.94,0,0,1,.92,0Z"/><path class="cls-15" d="M206.29,346.28c.25.14.27.38,0,.52l-5,2.91a1.06,1.06,0,0,1-.92,0l-5-2.91a.28.28,0,0,1,0-.53l5-2.91a1,1,0,0,1,.91,0Z"/><path class="cls-15" d="M154.33,346.27a.28.28,0,0,1,0,.53l-5,2.91a1.06,1.06,0,0,1-.92,0l-5-2.9a.28.28,0,0,1,0-.53l5-2.91a1,1,0,0,1,.92,0Z"/><path class="cls-15" d="M168.9,347.19c.25.15.25.37,0,.52l-5,2.9a1,1,0,0,1-.9,0l-5-2.9a.29.29,0,0,1,0-.54l5-2.91a1,1,0,0,1,.91,0Z"/><path class="cls-15" d="M196.48,348.1a.28.28,0,0,1,0,.53l-5,2.91a1,1,0,0,1-.91,0l-5-2.91c-.25-.14-.27-.38,0-.52l5-2.91a1.06,1.06,0,0,1,.92,0Z"/><path class="cls-15" d="M185.19,349.09c.25.14.27.38,0,.53l-5,2.9a1,1,0,0,1-.92,0l-5-2.91c-.25-.14-.25-.37,0-.52l5-2.9a1,1,0,0,1,.91,0Z"/><path class="cls-15" d="M212.82,350c.24.15.25.37,0,.52l-5,2.9a1,1,0,0,1-.91,0l-5-2.9a.29.29,0,0,1,0-.54l5-2.9a1,1,0,0,1,.9,0Z"/><path class="cls-15" d="M175.41,351c.26.15.27.38,0,.52l-5,2.91a1,1,0,0,1-.93,0l-5-2.9a.28.28,0,0,1,0-.53l5-2.91a1,1,0,0,1,.9,0Z"/><path class="cls-15" d="M162.44,351c.25.14.23.38,0,.52l-5,2.91a1,1,0,0,1-.9,0l-6.62-3.82a.29.29,0,0,1,0-.54l5-2.9a1,1,0,0,1,.92,0Z"/><path class="cls-15" d="M203,351.86c.25.15.23.38,0,.53l-5,2.91a1,1,0,0,1-.88,0l-5-2.91c-.25-.15-.27-.38,0-.53l5-2.9a1,1,0,0,1,.92,0Z"/><path class="cls-15" d="M191.72,352.85c.24.15.26.39,0,.54l-5,2.9a1,1,0,0,1-.92,0l-5-2.91a.28.28,0,0,1,0-.53l5-2.9a1,1,0,0,1,.92,0Z"/><path class="cls-15" d="M219.32,353.8c.27.15.27.38,0,.52l-5,2.91a1,1,0,0,1-.92,0l-5-2.9c-.27-.15-.25-.39,0-.53l5-2.91a1,1,0,0,1,.9,0Z"/><path class="cls-15" d="M181.93,354.71c.25.15.27.39,0,.53l-5,2.91a1.06,1.06,0,0,1-.92,0l-5-2.91c-.25-.14-.23-.38,0-.53l5-2.9a.94.94,0,0,1,.89,0Z"/><path class="cls-15" d="M209.51,355.62a.28.28,0,0,1,0,.53l-5,2.91a1,1,0,0,1-.91,0l-5-2.9c-.26-.15-.26-.38,0-.52l5-2.91a1,1,0,0,1,.92,0Z"/><path class="cls-15" d="M225.85,357.56c.24.15.26.39,0,.53l-5,2.91a1.06,1.06,0,0,1-.92,0l-5-2.91c-.24-.14-.23-.38,0-.53l5-2.9a.94.94,0,0,1,.89,0Z"/><path class="cls-15" d="M188.46,358.48c.24.14.26.38,0,.52l-5,2.91a1.06,1.06,0,0,1-.92,0l-5-2.91a.28.28,0,0,1,0-.53l5-2.91a1,1,0,0,1,.91,0Z"/><path class="cls-15" d="M216,359.39a.28.28,0,0,1,0,.53l-5,2.91a1,1,0,0,1-.91,0l-5-2.91a.28.28,0,0,1,0-.52l5-2.9a1,1,0,0,1,.9,0Z"/><path class="cls-15" d="M204.74,360.38c.25.14.27.38,0,.53l-5,2.9a1,1,0,0,1-.92,0l-5-2.9c-.27-.15-.27-.38,0-.53l5-2.9a1,1,0,0,1,.92,0Z"/><path class="cls-15" d="M232.37,361.33c.25.14.25.37,0,.51l-5,2.91a1,1,0,0,1-.91,0l-5-2.91a.28.28,0,0,1,0-.53l5-2.91a1,1,0,0,1,.9,0Z"/><path class="cls-15" d="M195,362.24c.27.15.27.38,0,.52l-5,2.91a1,1,0,0,1-.92,0l-5-2.9c-.27-.15-.25-.39,0-.53l5-2.91a1,1,0,0,1,.9,0Z"/><path class="cls-15" d="M222.55,363.15c.25.14.23.38,0,.53l-5,2.9a.92.92,0,0,1-.88,0l-5-2.9c-.25-.15-.27-.39,0-.53l5-2.91a1.08,1.08,0,0,1,.93,0Z"/><path class="cls-15" d="M211.27,364.14c.24.15.26.38,0,.54l-5,2.89a1,1,0,0,1-.92,0l-5-2.9c-.24-.15-.26-.38,0-.54l5-2.9a1,1,0,0,1,.92,0Z"/><path class="cls-15" d="M238.87,365.09c.27.15.27.38,0,.52l-5,2.91a1,1,0,0,1-.92,0l-5-2.9c-.27-.15-.25-.39,0-.53l5-2.91a1,1,0,0,1,.9,0Z"/><path class="cls-15" d="M201.48,366c.25.14.27.38,0,.53l-5,2.9a1,1,0,0,1-.92,0l-5-2.9c-.25-.15-.23-.39,0-.53l5-2.91a1,1,0,0,1,.89,0Z"/><path class="cls-15" d="M229.06,366.91a.28.28,0,0,1,0,.53l-5,2.91a1,1,0,0,1-.91,0l-5-2.9c-.26-.15-.26-.38,0-.52l5-2.91a1,1,0,0,1,.92,0Z"/><path class="cls-15" d="M217.79,367.91c.25.14.25.37,0,.52l-5,2.9a1,1,0,0,1-.91,0l-5-2.91c-.25-.14-.27-.38,0-.53l5-2.9a1,1,0,0,1,.92,0Z"/><path class="cls-15" d="M245.4,368.85c.24.15.26.38,0,.53l-5,2.9a1,1,0,0,1-.92,0l-5-2.9c-.24-.15-.23-.38,0-.53l5-2.91a1,1,0,0,1,.89,0Z"/><path class="cls-15" d="M208,369.77c.24.14.26.38,0,.52l-5,2.91a1.06,1.06,0,0,1-.92,0l-5-2.91a.29.29,0,0,1,0-.53l5-2.91a1,1,0,0,1,.91,0Z"/><path class="cls-15" d="M235.58,370.67a.29.29,0,0,1,0,.54l-5,2.9a1,1,0,0,1-.91,0l-5-2.91c-.25-.15-.25-.37,0-.52l5-2.91a1,1,0,0,1,.9,0Z"/><path class="cls-15" d="M224.29,371.66c.27.16.27.39,0,.54l-5,2.9a1,1,0,0,1-.92,0l-5-2.9c-.26-.15-.27-.38,0-.54l5-2.89a1,1,0,0,1,.93,0Z"/><path class="cls-15" d="M214.51,373.52c.27.16.27.38,0,.53l-5,2.91a1,1,0,0,1-.92,0l-5-2.9a.29.29,0,0,1,0-.54l5-2.9a1,1,0,0,1,.9,0Z"/><path class="cls-15" d="M255.07,374.44c.27.15.27.38,0,.52l-5,2.91a1,1,0,0,1-.92,0L241,373.14a.28.28,0,0,1,0-.53l5-2.91a1,1,0,0,1,.9,0Z"/><path class="cls-15" d="M242.1,374.44c.25.14.24.38,0,.52l-5,2.91a1,1,0,0,1-.89,0l-5-2.91c-.25-.14-.27-.38,0-.52l5-2.91a1.08,1.08,0,0,1,.93,0Z"/><path class="cls-15" d="M230.82,375.43a.28.28,0,0,1,0,.53l-5,2.9a1,1,0,0,1-.92,0l-5-2.91c-.25-.14-.25-.37,0-.52l5-2.9a1,1,0,0,1,.9,0Z"/><path class="cls-15" d="M221,377.29c.27.15.27.38,0,.52l-5,2.91a1,1,0,0,1-.92,0l-5-2.9c-.27-.15-.25-.39,0-.53l5-2.91a1,1,0,0,1,.91,0Z"/><path class="cls-15" d="M235.65,385.73c.26.15.26.38,0,.52l-5,2.91a1,1,0,0,1-.92,0l-13.12-7.58a.28.28,0,0,1,0-.53l5-2.91a1,1,0,0,1,.9,0Z"/><path class="cls-15" d="M198.22,356.61c.27.15.27.38,0,.53l-5,2.9a.94.94,0,0,1-.92,0l-5-2.89c-.27-.16-.27-.39,0-.54l5-2.9a1,1,0,0,1,.92,0Z"/><path class="cls-15" d="M159.12,334c.26.15.27.38,0,.53l-5,2.9a1,1,0,0,1-.93,0l-9.9-5.72c-.25-.15-.27-.38,0-.54l5-2.89a1,1,0,0,1,.92,0Z"/><path class="cls-15" d="M149.35,335.9c.25.15.25.38,0,.52l-5,2.91a1,1,0,0,1-.9,0l-6.62-3.83a.28.28,0,0,1,0-.53l5-2.91a1,1,0,0,1,.9,0Z"/><path class="cls-15" d="M155.86,339.66c.26.15.27.38,0,.52l-5,2.91a1,1,0,0,1-.93,0l-5-2.9a.28.28,0,0,1,0-.53l5-2.91a1,1,0,0,1,.91,0Z"/><path class="cls-15" d="M216.16,382a.28.28,0,0,1,0,.53l-5,2.91a1,1,0,0,1-.93,0l-5-2.91c-.25-.14-.23-.38,0-.52l5-2.91a1,1,0,0,1,.91,0Z"/><path class="cls-15" d="M141.31,338.75a.29.29,0,0,1,0,.53l-5,2.91a1.06,1.06,0,0,1-.92,0l-5-2.91a.28.28,0,0,1,0-.53l5-2.91a1,1,0,0,1,.92,0Z"/><path class="cls-15" d="M177,321.73a.28.28,0,0,1,0,.53l-5,2.91a1,1,0,0,1-.91,0l-8.19-4.73c-.24-.14-.26-.38,0-.52l5-2.91a1.06,1.06,0,0,1,.92,0Z"/><path class="cls-15" d="M183.48,325.49a.29.29,0,0,1,0,.54l-5,2.91a1,1,0,0,1-.9,0l-5-2.91c-.25-.14-.25-.37,0-.52l5-2.9a1,1,0,0,1,.9,0Z"/><path class="cls-15" d="M190,329.26a.28.28,0,0,1,0,.53l-5,2.91a1,1,0,0,1-.9,0l-5-2.91c-.25-.14-.26-.38,0-.52l5-2.91a1.06,1.06,0,0,1,.92,0Z"/><path class="cls-15" d="M196.53,333c.24.14.23.38,0,.52l-5,2.91a1,1,0,0,1-.89,0l-5-2.91c-.24-.14-.26-.38,0-.52l5-2.91a1.06,1.06,0,0,1,.92,0Z"/><path class="cls-15" d="M203,336.78a.29.29,0,0,1,0,.54l-5,2.9a1,1,0,0,1-.9,0l-5-2.89c-.27-.16-.27-.39,0-.53l5-2.91a1,1,0,0,1,.92,0Z"/><path class="cls-15" d="M209.55,340.55a.28.28,0,0,1,0,.53l-5,2.91a1,1,0,0,1-.9,0l-5-2.91c-.25-.14-.26-.38,0-.52l5-2.91a1.06,1.06,0,0,1,.92,0Z"/><path class="cls-15" d="M216.08,344.31a.28.28,0,0,1,0,.53l-5,2.91a1,1,0,0,1-.89,0l-5-2.91a.28.28,0,0,1,0-.53l5-2.9a1,1,0,0,1,.92,0Z"/><path class="cls-15" d="M222.58,348.07c.27.15.25.39,0,.53l-5,2.91a1,1,0,0,1-.9,0l-5-2.9c-.27-.15-.27-.38,0-.52l5-2.91a1,1,0,0,1,.92,0Z"/><path class="cls-15" d="M229.11,351.84a.29.29,0,0,1,0,.53l-5,2.91a1,1,0,0,1-.9,0l-5-2.91c-.24-.14-.25-.37,0-.51l5-2.91a1,1,0,0,1,.91,0Z"/><path class="cls-15" d="M235.63,355.6c.25.14.23.38,0,.53l-5,2.9a.94.94,0,0,1-.89,0l-5-2.9c-.25-.15-.27-.39,0-.53l5-2.91a1.06,1.06,0,0,1,.92,0Z"/><path class="cls-15" d="M242.13,359.36c.27.15.25.39,0,.53l-5,2.91a1,1,0,0,1-.9,0l-5-2.9c-.27-.15-.27-.38,0-.52l5-2.91a1,1,0,0,1,.92,0Z"/><path class="cls-15" d="M248.66,363.12a.29.29,0,0,1,0,.54l-5,2.91a1,1,0,0,1-.91,0l-5-2.91a.28.28,0,0,1,0-.52l5-2.9a1,1,0,0,1,.91,0Z"/><path class="cls-15" d="M255.18,366.89c.25.14.23.38,0,.52l-5,2.91a1,1,0,0,1-.89,0l-5-2.91c-.25-.14-.27-.38,0-.52l5-2.91a1.06,1.06,0,0,1,.92,0Z"/><path class="cls-15" d="M261.69,370.65c.25.14.23.38,0,.53l-5,2.9a.94.94,0,0,1-.89,0l-5-2.9c-.25-.15-.27-.39,0-.53l5-2.91a1.06,1.06,0,0,1,.92,0Z"/></g></svg>