<svg xmlns="http://www.w3.org/2000/svg" xmlns:xlink="http://www.w3.org/1999/xlink" width="500" height="500" viewBox="0 0 500 500"><defs><style>.cls-1{fill:#3d3d3d;}.cls-2{fill:#6f6f6f;}.cls-3{fill:url(#linear-gradient);}.cls-4{fill:url(#linear-gradient-2);}</style><linearGradient id="linear-gradient" x1="159.42" y1="255.25" x2="322.39" y2="255.25" gradientUnits="userSpaceOnUse"><stop offset="0" stop-color="#3d3d3d"/><stop offset="1" stop-color="#282828"/></linearGradient><linearGradient id="linear-gradient-2" x1="165.98" y1="254.63" x2="312.51" y2="254.63" gradientUnits="userSpaceOnUse"><stop offset="0" stop-color="#6f6f6f"/><stop offset="1" stop-color="#3d3d3d"/></linearGradient></defs><g id="Dark_Theme_Objects" data-name="Dark Theme Objects"><path class="cls-1" d="M340,225.17,259.1,138.33l-80.87-6.54s-13,109.63,80.87,225.92C353,349.81,340,225.17,340,225.17Z"/><polygon class="cls-2" points="178.22 131.79 160.03 142.29 240.9 148.84 259.1 138.33 178.22 131.79"/><path class="cls-3" d="M321.77,235.68,240.9,148.84l-33.25-3.36L160,142.3S147,251.93,240.9,368.21C334.77,360.32,321.77,235.68,321.77,235.68Z"/><path class="cls-4" d="M312,237,239.24,159l-29.89-3-42.82-2.86s-11.68,98.57,72.71,203.12C323.64,349.09,312,237,312,237Z"/></g></svg>