<svg xmlns="http://www.w3.org/2000/svg" xmlns:xlink="http://www.w3.org/1999/xlink" width="500" height="500" viewBox="0 0 500 500"><defs><style>.cls-1{fill:url(#linear-gradient);}.cls-2{fill:#565656;}.cls-3{fill:#3d3d3d;}.cls-4{fill:#6f6f6f;}</style><linearGradient id="linear-gradient" x1="217.63" y1="328.36" x2="320.51" y2="150.17" gradientUnits="userSpaceOnUse"><stop offset="0" stop-color="#282828"/><stop offset="0.01" stop-color="#292929"/><stop offset="0.38" stop-color="#424242"/><stop offset="0.72" stop-color="#515151"/><stop offset="1" stop-color="#565656"/></linearGradient></defs><g id="Dark_Theme_Objects" data-name="Dark Theme Objects"><g id="pQBJmD"><path class="cls-1" d="M199.91,141.94,301.85,376.23,184.94,129.44l22.32-12.93c3.56-2,8.23-2.11,13.76-.53a2.87,2.87,0,0,0,3-.6c9.63-12.21,26.54-9.35,43.69,7.42a6.33,6.33,0,0,0,2.95,1.67c16.74,2.77,34.29,20.05,43.5,42.78a11.92,11.92,0,0,0,2.89,4.11c15,12.52,24,33.46,21.23,49.32-.05.26,0,.58-.06,1.13a76.38,76.38,0,0,1,12.5,17.67c8.25,16.56,9.95,30.53,4.94,41.67-.68,1.5-.69,2.74.31,5.09,7.94,18.58,7.12,35-1.9,42.88a3.76,3.76,0,0,0-.83,3c2,19.88-5.73,32.5-20.15,32.93a2.62,2.62,0,0,0-2.27,1.63s-1.12,6.76-12.74,13.47L299.89,390.6Z"/></g><path class="cls-2" d="M164.38,205.18c4.29,9,9.63,16.42,16.29,22.15,1.32,1.14,3.28,2,4.28,1.63,1.86-.66.64-4.45-2.09-7a65.82,65.82,0,0,1-16.13-22.87c-8.94-21.53-1.71-39.95,14.23-36.83,11.84,2.31,25.36,16.28,31.11,30.83,1.36,3.45,3.28,5.22,5,4.88,1.51-.31,1.64-2.58.3-5.76-6.26-14.75-15.18-25.75-26.62-32.88-2.49-1.55-5-2.27-7.66-3.45a21.75,21.75,0,0,1,.67-13.28c3.52-9.17,13-10.42,23.19-2.77a46.21,46.21,0,0,1,11.66,13.72c.5.86,1,1.74,1.45,2.59,1.43,2.44,3.06,3.95,4.62,3.11s1.24-2.89-.07-5.43a55.21,55.21,0,0,0-14.85-18.53c-.6-.47-1.19-1-1.78-1.51a4.74,4.74,0,0,1-.5-.85c4.6-5.25,11-6.34,19-3.7,5.13,1.69,10.24,4.94,15.26,9.75a5.63,5.63,0,0,1,2.1,4.43q-.09,28.13-.06,56.32a3.26,3.26,0,0,1-.17.72c-1.76-2.56-3.38-5.12-5.17-7.45a56.19,56.19,0,0,0-5.13-5.85c-1.9-1.86-3.76-2.63-4.41-.33s.54,4.18,2.58,6.17c6.26,6.12,10.73,13.23,12,21.86a18.93,18.93,0,0,1,.25,2.84q0,30.92,0,61.81c0,.38-.06.72-.12,1.45-1.46-2.17-2.76-4-4-5.92a40.87,40.87,0,0,0-11.05-11.34c-2.83-2.06-4.61-1.91-4.91.26s1.09,4.45,4.08,6.61c8.71,6.29,15.07,15.43,15.57,24.8.76,14.1,1.2,28.24,0,41.1-1.34,14.08-13.18,17.81-26.23,10.75-12.64-6.83-24.28-23.78-27.35-40a10.25,10.25,0,0,0-2.87-5.44c-14-15.24-21.59-36.39-18.51-51.83.35-1.77,0-3.12-1.14-5.16C158.63,229.23,157.35,212.61,164.38,205.18Zm37.8,72.94c-5,.19-9.64-2.82-14.27-8.12-2-2.25-3.75-3.53-5-1.77-1,1.47-.14,4.08,2.31,6.83,6.84,7.68,13.74,11.69,20.34,11.23,2.19-.16,4,.71,6.35,2.66,5.4,4.51,10.58,6.41,15.38,5.94,1.6-.16,2.45-1.25,1.48-4s-2.49-3.78-4.25-4c-.82-.11-1.56,0-2.37-.08-8.72-.93-18.5-12.07-21-23.95-.42-2-.21-3.87-.88-5.8-.55-1.62-2-4.11-3-4.64s-2.37.38-2.92,1.4c-.45.85,0,2.73.13,4.22C195.35,264.72,198,271.34,202.18,278.12Zm23.13,40.45c-5.83-2.86-10.87-3.62-15.08-1.54-1.5.73-2,2.35-.71,4.92,1.4,2.78,3.2,3.55,4.82,2.84,3.2-1.39,6.87-1.11,11.17,1.34.61.35,1.41.9,1.78.73.93-.44,2.3-.86,2.31-2s-1.23-3.26-2.18-4.76C226.94,319.35,225.92,319,225.31,318.57Z"/><path class="cls-2" d="M266.34,225.61c.77-5.64,1.51-10.29,2-15.12.19-1.92.73-2.69,2.46-2.54,3.74.33,5.66-3.27,4.86-8.16a20.26,20.26,0,0,0-8.07-12.85c-3.76-2.5-7.46-1.8-8.76,1.65-1.25,3.29-.31,8.32,2.69,12.74a5.67,5.67,0,0,1,1.25,4.52c-1,7.3-1.85,14.72-2.89,22a4.73,4.73,0,0,1-1.63,3c-2.57,1.92-5.32,3.56-8.33,5.52-.07-1.51-.16-2.51-.16-3.46q0-42.57,0-85.16c0-2.16.49-2.87,2.35-2.43,13.88,3.23,28.36,18.58,35.33,37.75a12.54,12.54,0,0,0,4.4,6.23c13.39,10,21.32,28.55,17.73,41.5-.9,3.24-.36,4.73,2.9,8.06,15.77,16.08,22,38.63,14.13,51.21-1.16,1.86-1,3.83.55,6.9,8.27,16.89,7.89,31.89-1,38.46-1.47,1.08-1.95,2.74-1.6,5.41,2.41,18.46-4.24,29.49-17.66,29.13-2.14-.06-3.34.8-4,3.12-3.37,12-14.31,14.94-26.76,7.48-14-8.36-26.13-29.37-26.31-45.49a3.08,3.08,0,0,1,.78-2.28c3.21-2.67,6.45-5.3,9.83-7.69.72-.51,2-.34,3.16.11,9.84,3.91,19.7,8,29.53,11.9,1.81.71,2.76,1.64,3.85,4,2.27,4.87,6.07,8.18,9.62,8.82s5.89-1.79,5.93-6-2.22-9.33-5.73-12.89c-4.17-4.24-8.67-4.74-10.95-1.37-.45.66-1.3,1.33-2.1,1-8.44-3.3-16.9-6.79-26-10.5l8.18-5.39c2.39-1.57,4.75-3.2,7.19-4.68a3.23,3.23,0,0,1,2.34-.38c6.15,1.3,12.32,2.66,18.53,4.2a6.81,6.81,0,0,1,3,2.36c3.63,4.87,7.79,7.29,10.95,6.12,3-1.1,4-5.36,2.52-10.33-1.45-4.81-5.24-9.63-8.84-11.25-4.23-1.91-7.13-.22-8,4.42-.13.72-.75,1.46-1.34,1.33-5.31-1.1-10.66-2.39-16.43-3.73,1.16-4.42,2.19-8.56,3.38-12.54.16-.53,1.14-.43,1.82-.31,4.1.71,6.5-1.77,6.31-6.67a19.38,19.38,0,0,0-6.75-13.15c-3.82-3.27-7.68-3.55-9.6-.7s-1.28,8,1.48,13.17a6.94,6.94,0,0,1,.8,3.73c-.48,2.69-1.53,4.93-1.92,7.68-1,7.36-4.68,11.23-9.56,14-7.45,4.18-14.44,9.17-22,14.07v-3.08c0-21.92,0-43.81,0-65.77,0-2.58.46-3.29,2.86-1.84,3.92,2.36,7.84,4.2,11.76,6.34,3.53,1.92,6.65,2.36,9.52,1.72,5.17-1.16,10.39-2.2,15.51-3.47,1.5-.37,2.63,0,4.44,2,4.53,4.92,9.61,5.1,11.37.81s-.47-11.15-5-15.82-9.64-5.06-11.38-.74a3.23,3.23,0,0,0-.41,1.79c.69,4.19-1.34,4.73-3.72,5.14a95.31,95.31,0,0,0-12.94,2.85c-5.38,1.72-11.38-3.29-18-7a14.13,14.13,0,0,1,2-2.26q15.56-10.32,31.19-20.47c.55-.35,1.81.06,2.65.71,4.13,3.17,7.9,3.44,9.78.46s1.22-8.08-1.6-12.91c-2.72-4.64-7.08-7.82-10.43-7.6s-5.23,3.75-4.09,9.06c.47,2.19.05,3-1,3.61C277.09,218.82,272,222.08,266.34,225.61Zm8.23,123.26L270.37,338c-1.48,2.14-2.75,4-4.17,6.06Zm9.77-2.82-4.19,6,8.35,4.82Zm-9.75,16.24-4.24-10.91-4.14,6.07Zm9.76-2.84-4.16,6,8.28,4.79C287.11,366.64,285.88,363.44,284.35,359.45Zm-25.21-87.89,5.07,2.92v-5.62l-5.07-2.93Zm5.11-102.42v-5.85l-5-2.89v5.84Zm-5.06,3.13v5.88l5.12,3v-5.89Zm0,111.38,5.12,3v-5.82l-5.12-3Zm.05,6.87v5.86l5.07,2.92v-5.86Z"/><path class="cls-3" d="M176.78,154.32c.49-5.27.25-11.2,1.6-15.68,3-9.86,10.12-12.63,20.25-9.72a2.89,2.89,0,0,0,3-.61c9.63-12.21,26.54-9.35,43.7,7.42a6.25,6.25,0,0,0,2.94,1.67c16.74,2.77,34.29,20,43.5,42.78a11.81,11.81,0,0,0,2.9,4.11c14.95,12.52,24,33.46,21.22,49.32a9.61,9.61,0,0,0-.05,1.13,76.65,76.65,0,0,1,12.49,17.67c8.25,16.56,9.95,30.53,4.94,41.67-.68,1.5-.69,2.74.31,5.09,7.94,18.59,7.12,35-1.89,42.88a3.77,3.77,0,0,0-.84,3c2,19.88-5.73,32.5-20.15,32.93a2.63,2.63,0,0,0-2.27,1.63c-5,12.73-14.62,16.48-28.93,9.58-14.12-6.8-24.78-20.28-31.84-38.56-.21-.57-.41-1.13-.64-1.69-.09-.2-.24-.39-.43-.71-3.63,6.5-9.11,9.75-16.68,9.29-17.58-1.07-38.38-23.6-44.71-48.29a15.48,15.48,0,0,0-2.79-5.48c-14.18-16.94-21.86-38.58-19.77-55.91a7.67,7.67,0,0,0-.78-3.63c-9.23-19-9.9-35.56-1.85-45.59a4,4,0,0,0,.45-3.17c-7.31-24.8-.87-40.7,16.47-40.42a2.28,2.28,0,0,0,.63-.13Zm-12.4,50.86c-7,7.43-5.75,24,2.87,39.59,1.13,2,1.49,3.39,1.14,5.16-3.08,15.44,4.49,36.59,18.51,51.83a10.25,10.25,0,0,1,2.87,5.44c3.07,16.2,14.71,33.15,27.35,40,13,7.06,24.89,3.33,26.23-10.75,1.23-12.86.79-27,0-41.1-.5-9.37-6.86-18.51-15.57-24.8-3-2.16-4.39-4.43-4.08-6.61s2.08-2.32,4.91-.26A40.87,40.87,0,0,1,239.69,275c1.22,1.91,2.52,3.75,4,5.92.06-.73.12-1.07.12-1.45q0-30.9,0-61.81a18.93,18.93,0,0,0-.25-2.84c-1.31-8.63-5.78-15.74-12-21.86-2-2-3.2-4-2.58-6.17s2.51-1.53,4.41.33a56.19,56.19,0,0,1,5.13,5.85c1.79,2.33,3.41,4.89,5.17,7.45a3.26,3.26,0,0,0,.17-.72q0-28.17.06-56.32a5.63,5.63,0,0,0-2.1-4.43c-5-4.81-10.13-8.06-15.26-9.75-8-2.64-14.43-1.55-19,3.7a4.74,4.74,0,0,0,.5.85c.59.53,1.18,1,1.78,1.51a55.21,55.21,0,0,1,14.85,18.53c1.31,2.54,1.58,4.62.07,5.43s-3.19-.67-4.62-3.11c-.49-.85-.95-1.73-1.45-2.59a46.21,46.21,0,0,0-11.66-13.72c-10.21-7.65-19.67-6.4-23.19,2.77a21.75,21.75,0,0,0-.67,13.28c2.66,1.18,5.17,1.9,7.66,3.45,11.44,7.13,20.36,18.13,26.62,32.88,1.34,3.18,1.21,5.45-.3,5.76-1.69.34-3.61-1.43-5-4.88-5.75-14.55-19.27-28.52-31.11-30.83-15.94-3.12-23.17,15.3-14.23,36.83a65.82,65.82,0,0,0,16.13,22.87c2.73,2.58,3.95,6.37,2.09,7-1,.35-3-.49-4.28-1.63C174,221.6,168.67,214.14,164.38,205.18Zm102,20.43c5.64-3.53,10.75-6.79,15.91-9.94,1.06-.65,1.48-1.42,1-3.61-1.14-5.31.67-8.84,4.09-9.06s7.71,3,10.43,7.6c2.82,4.83,3.45,10,1.6,12.91s-5.65,2.71-9.78-.46c-.84-.65-2.1-1.06-2.65-.71q-15.68,10.11-31.19,20.47a14.13,14.13,0,0,0-2,2.26c6.61,3.72,12.61,8.73,18,7a95.31,95.31,0,0,1,12.94-2.85c2.38-.41,4.41-.95,3.72-5.14a3.23,3.23,0,0,1,.41-1.79c1.74-4.32,6.81-4,11.38.74s6.69,11.62,5,15.82-6.84,4.11-11.37-.81c-1.81-2-2.94-2.36-4.44-2-5.12,1.27-10.34,2.31-15.51,3.47-2.87.64-6,.2-9.52-1.72-3.92-2.14-7.84-4-11.76-6.34-2.4-1.45-2.87-.74-2.86,1.84.08,22,0,43.85,0,65.77v3.08c7.58-4.9,14.57-9.89,22-14.07,4.88-2.75,8.52-6.62,9.56-14,.39-2.75,1.44-5,1.92-7.68a6.94,6.94,0,0,0-.8-3.73c-2.76-5.17-3.42-10.28-1.48-13.17s5.78-2.57,9.6.7a19.38,19.38,0,0,1,6.75,13.15c.19,4.9-2.21,7.38-6.31,6.67-.68-.12-1.66-.22-1.82.31-1.19,4-2.22,8.12-3.38,12.54,5.77,1.34,11.12,2.63,16.43,3.73.59.13,1.21-.61,1.34-1.33.84-4.64,3.74-6.33,8-4.42,3.6,1.62,7.39,6.44,8.84,11.25,1.51,5,.47,9.23-2.52,10.33-3.16,1.17-7.32-1.25-10.95-6.12a6.81,6.81,0,0,0-3-2.36c-6.21-1.54-12.38-2.9-18.53-4.2a3.23,3.23,0,0,0-2.34.38c-2.44,1.48-4.8,3.11-7.19,4.68l-8.18,5.39c9.14,3.71,17.6,7.2,26,10.5.8.31,1.65-.36,2.1-1,2.28-3.37,6.78-2.87,10.95,1.37,3.51,3.56,5.78,8.67,5.73,12.89s-2.44,6.62-5.93,6-7.35-3.95-9.62-8.82c-1.09-2.35-2-3.28-3.85-4-9.83-3.86-19.69-8-29.53-11.9-1.12-.45-2.44-.62-3.16-.11-3.38,2.39-6.62,5-9.83,7.69a3.08,3.08,0,0,0-.78,2.28c.18,16.12,12.35,37.13,26.31,45.49,12.45,7.46,23.39,4.49,26.76-7.48.66-2.32,1.86-3.18,4-3.12,13.42.36,20.07-10.67,17.66-29.13-.35-2.67.13-4.33,1.6-5.41,8.88-6.57,9.26-21.57,1-38.46-1.51-3.07-1.71-5-.55-6.9,7.89-12.58,1.64-35.13-14.13-51.21-3.26-3.33-3.8-4.82-2.9-8.06,3.59-13-4.34-31.51-17.73-41.5a12.54,12.54,0,0,1-4.4-6.23c-7-19.17-21.45-34.52-35.33-37.75-1.86-.44-2.36.27-2.35,2.43q.09,42.63,0,85.16c0,.95.09,1.95.16,3.46,3-2,5.76-3.6,8.33-5.52a4.73,4.73,0,0,0,1.63-3c1-7.28,1.88-14.7,2.89-22a5.67,5.67,0,0,0-1.25-4.52c-3-4.42-3.94-9.45-2.69-12.74,1.3-3.45,5-4.15,8.76-1.65a20.26,20.26,0,0,1,8.07,12.85c.8,4.89-1.12,8.49-4.86,8.16-1.73-.15-2.27.62-2.46,2.54C267.85,215.32,267.11,220,266.34,225.61Z"/><path class="cls-3" d="M202.18,278.12c-4.18-6.78-6.83-13.4-7.63-20.07-.18-1.49-.58-3.37-.13-4.22.55-1,1.88-2,2.92-1.4s2.41,3,3,4.64c.67,1.93.46,3.83.88,5.8,2.49,11.88,12.27,23,21,23.95.81.09,1.55,0,2.37.08,1.76.25,3.32,1.42,4.25,4s.12,3.8-1.48,4c-4.8.47-10-1.43-15.38-5.94-2.34-1.95-4.16-2.82-6.35-2.66-6.6.46-13.5-3.55-20.34-11.23-2.45-2.75-3.34-5.36-2.31-6.83,1.23-1.76,3-.48,5,1.77C192.54,275.3,197.19,278.31,202.18,278.12Z"/><path class="cls-3" d="M227.72,229.39c-2.93-.26-5.88-.58-8.71-.55-1.83,0-2.31,1.63-1.77,4.37a18.82,18.82,0,0,1,.29,5.53c-.21,1.95-1.28,2.93-3.3,1.61a7,7,0,0,1-3-5.63,34.32,34.32,0,0,0-.35-5.31c-1.92-8.8-10.09-16.95-15.92-16-.37.06-.71.2-1.06.29-1.62.44-3.28-.27-4.64-3s-.9-4.25.7-4.85c4.67-1.77,10-.13,15.67,5.46,2.81,2.76,5.36,6.27,8.44,9.93,3.39-1.75,7.69-1.79,12.68.28,0,0,5.25,1.8,5.25,5S227.72,229.39,227.72,229.39Z"/><path class="cls-3" d="M225.31,318.57c.61.42,1.63.78,2.11,1.55,1,1.5,2.19,3.58,2.18,4.76s-1.38,1.54-2.31,2c-.37.17-1.17-.38-1.78-.73-4.3-2.45-8-2.73-11.17-1.34-1.62.71-3.42-.06-4.82-2.84-1.29-2.57-.79-4.19.71-4.92C214.44,315,219.48,315.71,225.31,318.57Z"/><path class="cls-3" d="M274.57,348.87,266.2,344c1.42-2.06,2.69-3.92,4.17-6.06Z"/><path class="cls-3" d="M284.34,346.05l4.16,10.82-8.35-4.82Z"/><path class="cls-3" d="M274.59,362.29l-8.38-4.84,4.14-6.07Z"/><path class="cls-3" d="M284.35,359.45c1.53,4,2.76,7.19,4.12,10.77l-8.28-4.79Z"/><path class="cls-3" d="M259.14,271.56v-5.63l5.07,2.93v5.62Z"/><path class="cls-3" d="M264.25,169.14l-5-2.9V160.4l5,2.89Z"/><path class="cls-3" d="M259.19,172.27l5.12,2.95v5.89l-5.12-3Z"/><path class="cls-3" d="M259.15,283.65v-5.81l5.12,3v5.82Z"/><path class="cls-3" d="M259.2,290.52l5.07,2.92v5.86l-5.07-2.92Z"/><ellipse class="cls-2" cx="267.1" cy="196.93" rx="3.02" ry="3.82" transform="translate(-62.68 159.93) rotate(-30)"/><ellipse class="cls-2" cx="291.38" cy="214.49" rx="3.02" ry="3.82" transform="translate(-68.21 174.42) rotate(-30)"/><ellipse class="cls-2" cx="297.29" cy="250.5" rx="3.02" ry="3.82" transform="translate(-85.42 182.21) rotate(-30)"/><ellipse class="cls-2" cx="288.36" cy="278.78" rx="3.02" ry="3.82" transform="translate(-100.75 181.53) rotate(-30)"/><ellipse class="cls-2" cx="312.26" cy="311.36" rx="3.02" ry="3.82" transform="translate(-113.85 197.84) rotate(-30)"/><ellipse class="cls-2" cx="303.95" cy="339.24" rx="3.02" ry="3.82" transform="translate(-128.9 197.42) rotate(-30)"/><ellipse class="cls-3" cx="309.78" cy="274.78" rx="2.83" ry="4.57" transform="translate(-39.37 52.16) rotate(-9.05)"/><ellipse class="cls-3" cx="309.78" cy="287.24" rx="2.83" ry="4.57" transform="translate(-41.33 52.31) rotate(-9.05)"/><g id="pQBJmD-2" data-name="pQBJmD"><path class="cls-1" d="M199.91,141.94,301.85,376.23,184.94,129.44l22.32-12.93c3.56-2,8.23-2.11,13.76-.53a2.87,2.87,0,0,0,3-.6c9.63-12.21,26.54-9.35,43.69,7.42a6.33,6.33,0,0,0,2.95,1.67c16.74,2.77,34.29,20.05,43.5,42.78a11.92,11.92,0,0,0,2.89,4.11c15,12.52,24,33.46,21.23,49.32-.05.26,0,.58-.06,1.13a76.38,76.38,0,0,1,12.5,17.67c8.25,16.56,9.95,30.53,4.94,41.67-.68,1.5-.69,2.74.31,5.09,7.94,18.58,7.12,35-1.9,42.88a3.76,3.76,0,0,0-.83,3c2,19.88-5.73,32.5-20.15,32.93a2.62,2.62,0,0,0-2.27,1.63s-1.12,6.76-12.74,13.47L299.89,390.6Z"/></g><path class="cls-3" d="M164.38,205.18c4.29,9,9.63,16.42,16.29,22.15,1.32,1.14,3.28,2,4.28,1.63,1.86-.66.64-4.45-2.09-7a65.82,65.82,0,0,1-16.13-22.87c-8.94-21.53-1.71-39.95,14.23-36.83,11.84,2.31,25.36,16.28,31.11,30.83,1.36,3.45,3.28,5.22,5,4.88,1.51-.31,1.64-2.58.3-5.76-6.26-14.75-15.18-25.75-26.62-32.88-2.49-1.55-5-2.27-7.66-3.45a21.75,21.75,0,0,1,.67-13.28c3.52-9.17,13-10.42,23.19-2.77a46.21,46.21,0,0,1,11.66,13.72c.5.86,1,1.74,1.45,2.59,1.43,2.44,3.06,3.95,4.62,3.11s1.24-2.89-.07-5.43a55.21,55.21,0,0,0-14.85-18.53c-.6-.47-1.19-1-1.78-1.51a4.74,4.74,0,0,1-.5-.85c4.6-5.25,11-6.34,19-3.7,5.13,1.69,10.24,4.94,15.26,9.75a5.63,5.63,0,0,1,2.1,4.43q-.09,28.13-.06,56.32a3.26,3.26,0,0,1-.17.72c-1.76-2.56-3.38-5.12-5.17-7.45a56.19,56.19,0,0,0-5.13-5.85c-1.9-1.86-3.76-2.63-4.41-.33s.54,4.18,2.58,6.17c6.26,6.12,10.73,13.23,12,21.86a18.93,18.93,0,0,1,.25,2.84q0,30.92,0,61.81c0,.38-.06.72-.12,1.45-1.46-2.17-2.76-4-4-5.92a40.87,40.87,0,0,0-11.05-11.34c-2.83-2.06-4.61-1.91-4.91.26s1.09,4.45,4.08,6.61c8.71,6.29,15.07,15.43,15.57,24.8.76,14.1,1.2,28.24,0,41.1-1.34,14.08-13.18,17.81-26.23,10.75-12.64-6.83-24.28-23.78-27.35-40a10.25,10.25,0,0,0-2.87-5.44c-14-15.24-21.59-36.39-18.51-51.83.35-1.77,0-3.12-1.14-5.16C158.63,229.23,157.35,212.61,164.38,205.18Zm37.8,72.94c-5,.19-9.64-2.82-14.27-8.12-2-2.25-3.75-3.53-5-1.77-1,1.47-.14,4.08,2.31,6.83,6.84,7.68,13.74,11.69,20.34,11.23,2.19-.16,4,.71,6.35,2.66,5.4,4.51,10.58,6.41,15.38,5.94,1.6-.16,2.45-1.25,1.48-4s-2.49-3.78-4.25-4c-.82-.11-1.56,0-2.37-.08-8.72-.93-18.5-12.07-21-23.95-.42-2-.21-3.87-.88-5.8-.55-1.62-2-4.11-3-4.64s-2.37.38-2.92,1.4c-.45.85,0,2.73.13,4.22C195.35,264.72,198,271.34,202.18,278.12Zm23.13,40.45c-5.83-2.86-10.87-3.62-15.08-1.54-1.5.73-2,2.35-.71,4.92,1.4,2.78,3.2,3.55,4.82,2.84,3.2-1.39,6.87-1.11,11.17,1.34.61.35,1.41.9,1.78.73.93-.44,2.3-.86,2.31-2s-1.23-3.26-2.18-4.76C226.94,319.35,225.92,319,225.31,318.57Z"/><path class="cls-3" d="M266.34,225.61c.77-5.64,1.51-10.29,2-15.12.19-1.92.73-2.69,2.46-2.54,3.74.33,5.66-3.27,4.86-8.16a20.26,20.26,0,0,0-8.07-12.85c-3.76-2.5-7.46-1.8-8.76,1.65-1.25,3.29-.31,8.32,2.69,12.74a5.67,5.67,0,0,1,1.25,4.52c-1,7.3-1.85,14.72-2.89,22a4.73,4.73,0,0,1-1.63,3c-2.57,1.92-5.32,3.56-8.33,5.52-.07-1.51-.16-2.51-.16-3.46q0-42.57,0-85.16c0-2.16.49-2.87,2.35-2.43,13.88,3.23,28.36,18.58,35.33,37.75a12.54,12.54,0,0,0,4.4,6.23c13.39,10,21.32,28.55,17.73,41.5-.9,3.24-.36,4.73,2.9,8.06,15.77,16.08,22,38.63,14.13,51.21-1.16,1.86-1,3.83.55,6.9,8.27,16.89,7.89,31.89-1,38.46-1.47,1.08-1.95,2.74-1.6,5.41,2.41,18.46-4.24,29.49-17.66,29.13-2.14-.06-3.34.8-4,3.12-3.37,12-14.31,14.94-26.76,7.48-14-8.36-26.13-29.37-26.31-45.49a3.08,3.08,0,0,1,.78-2.28c3.21-2.67,6.45-5.3,9.83-7.69.72-.51,2-.34,3.16.11,9.84,3.91,19.7,8,29.53,11.9,1.81.71,2.76,1.64,3.85,4,2.27,4.87,6.07,8.18,9.62,8.82s5.89-1.79,5.93-6-2.22-9.33-5.73-12.89c-4.17-4.24-8.67-4.74-10.95-1.37-.45.66-1.3,1.33-2.1,1-8.44-3.3-16.9-6.79-26-10.5l8.18-5.39c2.39-1.57,4.75-3.2,7.19-4.68a3.23,3.23,0,0,1,2.34-.38c6.15,1.3,12.32,2.66,18.53,4.2a6.81,6.81,0,0,1,3,2.36c3.63,4.87,7.79,7.29,10.95,6.12,3-1.1,4-5.36,2.52-10.33-1.45-4.81-5.24-9.63-8.84-11.25-4.23-1.91-7.13-.22-8,4.42-.13.72-.75,1.46-1.34,1.33-5.31-1.1-10.66-2.39-16.43-3.73,1.16-4.42,2.19-8.56,3.38-12.54.16-.53,1.14-.43,1.82-.31,4.1.71,6.5-1.77,6.31-6.67a19.38,19.38,0,0,0-6.75-13.15c-3.82-3.27-7.68-3.55-9.6-.7s-1.28,8,1.48,13.17a6.94,6.94,0,0,1,.8,3.73c-.48,2.69-1.53,4.93-1.92,7.68-1,7.36-4.68,11.23-9.56,14-7.45,4.18-14.44,9.17-22,14.07v-3.08c0-21.92,0-43.81,0-65.77,0-2.58.46-3.29,2.86-1.84,3.92,2.36,7.84,4.2,11.76,6.34,3.53,1.92,6.65,2.36,9.52,1.72,5.17-1.16,10.39-2.2,15.51-3.47,1.5-.37,2.63,0,4.44,2,4.53,4.92,9.61,5.1,11.37.81s-.47-11.15-5-15.82-9.64-5.06-11.38-.74a3.23,3.23,0,0,0-.41,1.79c.69,4.19-1.34,4.73-3.72,5.14a95.31,95.31,0,0,0-12.94,2.85c-5.38,1.72-11.38-3.29-18-7a14.13,14.13,0,0,1,2-2.26q15.56-10.32,31.19-20.47c.55-.35,1.81.06,2.65.71,4.13,3.17,7.9,3.44,9.78.46s1.22-8.08-1.6-12.91c-2.72-4.64-7.08-7.82-10.43-7.6s-5.23,3.75-4.09,9.06c.47,2.19.05,3-1,3.61C277.09,218.82,272,222.08,266.34,225.61Zm8.23,123.26L270.37,338c-1.48,2.14-2.75,4-4.17,6.06Zm9.77-2.82-4.19,6,8.35,4.82Zm-9.75,16.24-4.24-10.91-4.14,6.07Zm9.76-2.84-4.16,6,8.28,4.79C287.11,366.64,285.88,363.44,284.35,359.45Zm-25.21-87.89,5.07,2.92v-5.62l-5.07-2.93Zm5.11-102.42v-5.85l-5-2.89v5.84Zm-5.06,3.13v5.88l5.12,3v-5.89Zm0,111.38,5.12,3v-5.82l-5.12-3Zm.05,6.87v5.86l5.07,2.92v-5.86Z"/><path class="cls-4" d="M176.78,154.32c.49-5.27.25-11.2,1.6-15.68,3-9.86,10.12-12.63,20.25-9.72a2.89,2.89,0,0,0,3-.61c9.63-12.21,26.54-9.35,43.7,7.42a6.25,6.25,0,0,0,2.94,1.67c16.74,2.77,34.29,20,43.5,42.78a11.81,11.81,0,0,0,2.9,4.11c14.95,12.52,24,33.46,21.22,49.32a9.61,9.61,0,0,0-.05,1.13,76.65,76.65,0,0,1,12.49,17.67c8.25,16.56,9.95,30.53,4.94,41.67-.68,1.5-.69,2.74.31,5.09,7.94,18.59,7.12,35-1.89,42.88a3.77,3.77,0,0,0-.84,3c2,19.88-5.73,32.5-20.15,32.93a2.63,2.63,0,0,0-2.27,1.63c-5,12.73-14.62,16.48-28.93,9.58-14.12-6.8-24.78-20.28-31.84-38.56-.21-.57-.41-1.13-.64-1.69-.09-.2-.24-.39-.43-.71-3.63,6.5-9.11,9.75-16.68,9.29-17.58-1.07-38.38-23.6-44.71-48.29a15.48,15.48,0,0,0-2.79-5.48c-14.18-16.94-21.86-38.58-19.77-55.91a7.67,7.67,0,0,0-.78-3.63c-9.23-19-9.9-35.56-1.85-45.59a4,4,0,0,0,.45-3.17c-7.31-24.8-.87-40.7,16.47-40.42a2.28,2.28,0,0,0,.63-.13Zm-12.4,50.86c-7,7.43-5.75,24,2.87,39.59,1.13,2,1.49,3.39,1.14,5.16-3.08,15.44,4.49,36.59,18.51,51.83a10.25,10.25,0,0,1,2.87,5.44c3.07,16.2,14.71,33.15,27.35,40,13,7.06,24.89,3.33,26.23-10.75,1.23-12.86.79-27,0-41.1-.5-9.37-6.86-18.51-15.57-24.8-3-2.16-4.39-4.43-4.08-6.61s2.08-2.32,4.91-.26A40.87,40.87,0,0,1,239.69,275c1.22,1.91,2.52,3.75,4,5.92.06-.73.12-1.07.12-1.45q0-30.9,0-61.81a18.93,18.93,0,0,0-.25-2.84c-1.31-8.63-5.78-15.74-12-21.86-2-2-3.2-4-2.58-6.17s2.51-1.53,4.41.33a56.19,56.19,0,0,1,5.13,5.85c1.79,2.33,3.41,4.89,5.17,7.45a3.26,3.26,0,0,0,.17-.72q0-28.17.06-56.32a5.63,5.63,0,0,0-2.1-4.43c-5-4.81-10.13-8.06-15.26-9.75-8-2.64-14.43-1.55-19,3.7a4.74,4.74,0,0,0,.5.85c.59.53,1.18,1,1.78,1.51a55.21,55.21,0,0,1,14.85,18.53c1.31,2.54,1.58,4.62.07,5.43s-3.19-.67-4.62-3.11c-.49-.85-.95-1.73-1.45-2.59a46.21,46.21,0,0,0-11.66-13.72c-10.21-7.65-19.67-6.4-23.19,2.77a21.75,21.75,0,0,0-.67,13.28c2.66,1.18,5.17,1.9,7.66,3.45,11.44,7.13,20.36,18.13,26.62,32.88,1.34,3.18,1.21,5.45-.3,5.76-1.69.34-3.61-1.43-5-4.88-5.75-14.55-19.27-28.52-31.11-30.83-15.94-3.12-23.17,15.3-14.23,36.83a65.82,65.82,0,0,0,16.13,22.87c2.73,2.58,3.95,6.37,2.09,7-1,.35-3-.49-4.28-1.63C174,221.6,168.67,214.14,164.38,205.18Zm102,20.43c5.64-3.53,10.75-6.79,15.91-9.94,1.06-.65,1.48-1.42,1-3.61-1.14-5.31.67-8.84,4.09-9.06s7.71,3,10.43,7.6c2.82,4.83,3.45,10,1.6,12.91s-5.65,2.71-9.78-.46c-.84-.65-2.1-1.06-2.65-.71q-15.68,10.11-31.19,20.47a14.13,14.13,0,0,0-2,2.26c6.61,3.72,12.61,8.73,18,7a95.31,95.31,0,0,1,12.94-2.85c2.38-.41,4.41-.95,3.72-5.14a3.23,3.23,0,0,1,.41-1.79c1.74-4.32,6.81-4,11.38.74s6.69,11.62,5,15.82-6.84,4.11-11.37-.81c-1.81-2-2.94-2.36-4.44-2-5.12,1.27-10.34,2.31-15.51,3.47-2.87.64-6,.2-9.52-1.72-3.92-2.14-7.84-4-11.76-6.34-2.4-1.45-2.87-.74-2.86,1.84.08,22,0,43.85,0,65.77v3.08c7.58-4.9,14.57-9.89,22-14.07,4.88-2.75,8.52-6.62,9.56-14,.39-2.75,1.44-5,1.92-7.68a6.94,6.94,0,0,0-.8-3.73c-2.76-5.17-3.42-10.28-1.48-13.17s5.78-2.57,9.6.7a19.38,19.38,0,0,1,6.75,13.15c.19,4.9-2.21,7.38-6.31,6.67-.68-.12-1.66-.22-1.82.31-1.19,4-2.22,8.12-3.38,12.54,5.77,1.34,11.12,2.63,16.43,3.73.59.13,1.21-.61,1.34-1.33.84-4.64,3.74-6.33,8-4.42,3.6,1.62,7.39,6.44,8.84,11.25,1.51,5,.47,9.23-2.52,10.33-3.16,1.17-7.32-1.25-10.95-6.12a6.81,6.81,0,0,0-3-2.36c-6.21-1.54-12.38-2.9-18.53-4.2a3.23,3.23,0,0,0-2.34.38c-2.44,1.48-4.8,3.11-7.19,4.68l-8.18,5.39c9.14,3.71,17.6,7.2,26,10.5.8.31,1.65-.36,2.1-1,2.28-3.37,6.78-2.87,10.95,1.37,3.51,3.56,5.78,8.67,5.73,12.89s-2.44,6.62-5.93,6-7.35-3.95-9.62-8.82c-1.09-2.35-2-3.28-3.85-4-9.83-3.86-19.69-8-29.53-11.9-1.12-.45-2.44-.62-3.16-.11-3.38,2.39-6.62,5-9.83,7.69a3.08,3.08,0,0,0-.78,2.28c.18,16.12,12.35,37.13,26.31,45.49,12.45,7.46,23.39,4.49,26.76-7.48.66-2.32,1.86-3.18,4-3.12,13.42.36,20.07-10.67,17.66-29.13-.35-2.67.13-4.33,1.6-5.41,8.88-6.57,9.26-21.57,1-38.46-1.51-3.07-1.71-5-.55-6.9,7.89-12.58,1.64-35.13-14.13-51.21-3.26-3.33-3.8-4.82-2.9-8.06,3.59-13-4.34-31.51-17.73-41.5a12.54,12.54,0,0,1-4.4-6.23c-7-19.17-21.45-34.52-35.33-37.75-1.86-.44-2.36.27-2.35,2.43q.09,42.63,0,85.16c0,.95.09,1.95.16,3.46,3-2,5.76-3.6,8.33-5.52a4.73,4.73,0,0,0,1.63-3c1-7.28,1.88-14.7,2.89-22a5.67,5.67,0,0,0-1.25-4.52c-3-4.42-3.94-9.45-2.69-12.74,1.3-3.45,5-4.15,8.76-1.65a20.26,20.26,0,0,1,8.07,12.85c.8,4.89-1.12,8.49-4.86,8.16-1.73-.15-2.27.62-2.46,2.54C267.85,215.32,267.11,220,266.34,225.61Z"/><path class="cls-4" d="M202.18,278.12c-4.18-6.78-6.83-13.4-7.63-20.07-.18-1.49-.58-3.37-.13-4.22.55-1,1.88-2,2.92-1.4s2.41,3,3,4.64c.67,1.93.46,3.83.88,5.8,2.49,11.88,12.27,23,21,23.95.81.09,1.55,0,2.37.08,1.76.25,3.32,1.42,4.25,4s.12,3.8-1.48,4c-4.8.47-10-1.43-15.38-5.94-2.34-1.95-4.16-2.82-6.35-2.66-6.6.46-13.5-3.55-20.34-11.23-2.45-2.75-3.34-5.36-2.31-6.83,1.23-1.76,3-.48,5,1.77C192.54,275.3,197.19,278.31,202.18,278.12Z"/><path class="cls-4" d="M227.72,229.39c-2.93-.26-5.88-.58-8.71-.55-1.83,0-2.31,1.63-1.77,4.37a18.82,18.82,0,0,1,.29,5.53c-.21,1.95-1.28,2.93-3.3,1.61a7,7,0,0,1-3-5.63,34.32,34.32,0,0,0-.35-5.31c-1.92-8.8-10.09-16.95-15.92-16-.37.06-.71.2-1.06.29-1.62.44-3.28-.27-4.64-3s-.9-4.25.7-4.85c4.67-1.77,10-.13,15.67,5.46,2.81,2.76,5.36,6.27,8.44,9.93,3.39-1.75,7.69-1.79,12.68.28,0,0,5.25,1.8,5.25,5S227.72,229.39,227.72,229.39Z"/><path class="cls-4" d="M225.31,318.57c.61.42,1.63.78,2.11,1.55,1,1.5,2.19,3.58,2.18,4.76s-1.38,1.54-2.31,2c-.37.17-1.17-.38-1.78-.73-4.3-2.45-8-2.73-11.17-1.34-1.62.71-3.42-.06-4.82-2.84-1.29-2.57-.79-4.19.71-4.92C214.44,315,219.48,315.71,225.31,318.57Z"/><path class="cls-4" d="M274.57,348.87,266.2,344c1.42-2.06,2.69-3.92,4.17-6.06Z"/><path class="cls-4" d="M284.34,346.05l4.16,10.82-8.35-4.82Z"/><path class="cls-4" d="M274.59,362.29l-8.38-4.84,4.14-6.07Z"/><path class="cls-4" d="M284.35,359.45c1.53,4,2.76,7.19,4.12,10.77l-8.28-4.79Z"/><path class="cls-4" d="M259.14,271.56v-5.63l5.07,2.93v5.62Z"/><path class="cls-4" d="M264.25,169.14l-5-2.9V160.4l5,2.89Z"/><path class="cls-4" d="M259.19,172.27l5.12,2.95v5.89l-5.12-3Z"/><path class="cls-4" d="M259.15,283.65v-5.81l5.12,3v5.82Z"/><path class="cls-4" d="M259.2,290.52l5.07,2.92v5.86l-5.07-2.92Z"/><ellipse class="cls-3" cx="267.1" cy="196.93" rx="3.02" ry="3.82" transform="translate(-62.68 159.93) rotate(-30)"/><ellipse class="cls-3" cx="291.38" cy="214.49" rx="3.02" ry="3.82" transform="translate(-68.21 174.42) rotate(-30)"/><ellipse class="cls-3" cx="297.29" cy="250.5" rx="3.02" ry="3.82" transform="translate(-85.42 182.21) rotate(-30)"/><ellipse class="cls-3" cx="288.36" cy="278.78" rx="3.02" ry="3.82" transform="translate(-100.75 181.53) rotate(-30)"/><ellipse class="cls-3" cx="312.26" cy="311.36" rx="3.02" ry="3.82" transform="translate(-113.85 197.84) rotate(-30)"/><ellipse class="cls-3" cx="303.95" cy="339.24" rx="3.02" ry="3.82" transform="translate(-128.9 197.42) rotate(-30)"/><ellipse class="cls-4" cx="309.78" cy="274.78" rx="2.83" ry="4.57" transform="translate(-39.37 52.16) rotate(-9.05)"/><ellipse class="cls-4" cx="309.78" cy="287.24" rx="2.83" ry="4.57" transform="translate(-41.33 52.31) rotate(-9.05)"/></g></svg>