<svg xmlns="http://www.w3.org/2000/svg" xmlns:xlink="http://www.w3.org/1999/xlink" width="500" height="500" viewBox="0 0 500 500"><defs><style>.cls-1{isolation:isolate;}.cls-2{fill:url(#linear-gradient);}.cls-3{fill:url(#linear-gradient-2);}.cls-4,.cls-8{mix-blend-mode:multiply;}.cls-4{fill:url(#linear-gradient-3);}.cls-5{fill:url(#linear-gradient-4);}.cls-6{fill:url(#linear-gradient-5);}.cls-7{fill:url(#linear-gradient-6);}.cls-8{fill:url(#linear-gradient-7);}.cls-9{fill:url(#linear-gradient-8);}.cls-10{fill:url(#linear-gradient-9);}.cls-11{fill:url(#linear-gradient-10);}.cls-12{fill:#3d3d3d;}.cls-13{fill:#0062ff;}.cls-14{fill:#282828;}</style><linearGradient id="linear-gradient" x1="190.43" y1="317.16" x2="193.27" y2="317.16" gradientUnits="userSpaceOnUse"><stop offset="0" stop-color="#565656"/><stop offset="0.65" stop-color="#282828"/><stop offset="0.81" stop-color="#2b2b2b"/><stop offset="0.94" stop-color="#353535"/><stop offset="1" stop-color="#3d3d3d"/></linearGradient><linearGradient id="linear-gradient-2" x1="184.82" y1="288.8" x2="198.87" y2="288.8" xlink:href="#linear-gradient"/><linearGradient id="linear-gradient-3" x1="191.85" y1="297.91" x2="191.85" y2="261.45" gradientUnits="userSpaceOnUse"><stop offset="0" stop-color="#f3f3f3" stop-opacity="0.1"/><stop offset="1" stop-color="#cacaca"/></linearGradient><linearGradient id="linear-gradient-4" x1="180.46" y1="256.4" x2="203.23" y2="256.4" xlink:href="#linear-gradient"/><linearGradient id="linear-gradient-5" x1="269.31" y1="361.55" x2="272.16" y2="361.55" xlink:href="#linear-gradient"/><linearGradient id="linear-gradient-6" x1="263.71" y1="333.2" x2="277.76" y2="333.2" xlink:href="#linear-gradient"/><linearGradient id="linear-gradient-7" x1="270.73" y1="332.97" x2="270.73" y2="326.07" xlink:href="#linear-gradient-3"/><linearGradient id="linear-gradient-8" x1="259.35" y1="300.8" x2="282.12" y2="300.8" xlink:href="#linear-gradient"/><linearGradient id="linear-gradient-9" x1="169.98" y1="114.14" x2="364.62" y2="346.09" gradientUnits="userSpaceOnUse"><stop offset="0" stop-color="#565656"/><stop offset="0.28" stop-color="#515151"/><stop offset="0.62" stop-color="#424242"/><stop offset="0.99" stop-color="#292929"/><stop offset="1" stop-color="#282828"/></linearGradient><linearGradient id="linear-gradient-10" x1="113.74" y1="234.48" x2="356.09" y2="234.48" gradientUnits="userSpaceOnUse"><stop offset="0" stop-color="#3d3d3d"/><stop offset="1" stop-color="#282828"/></linearGradient></defs><g class="cls-1"><g id="Dark_Theme_Objects" data-name="Dark Theme Objects"><path class="cls-2" d="M191.85,359a1.42,1.42,0,0,1-1.42-1.42V276.7a1.42,1.42,0,0,1,2.84,0v80.9A1.43,1.43,0,0,1,191.85,359Z"/><path class="cls-3" d="M198.87,271.61H184.82v30.33a3.48,3.48,0,0,0,2.06,2.87c3.29,2,11.32,1.75,12-2.87h0Z"/><path class="cls-4" d="M184.82,276.6v10.27a18.21,18.21,0,0,0,14.05,0V276.6A18.21,18.21,0,0,0,184.82,276.6Z"/><path class="cls-5" d="M180.46,229.35v47.56c0,1.68,1.11,3.37,3.33,4.65,5.1,3.26,18.64,2.69,19.44-4.65h0V229.35Z"/><path class="cls-6" d="M270.73,403.4a1.42,1.42,0,0,1-1.42-1.42V321.09a1.43,1.43,0,0,1,2.85,0V402A1.42,1.42,0,0,1,270.73,403.4Z"/><path class="cls-7" d="M277.76,316H263.71v30.33h0c.55,5.42,13.5,5.42,14.05,0h0Z"/><path class="cls-8" d="M263.71,321v10.27a18.21,18.21,0,0,0,14.05,0V321A18.21,18.21,0,0,0,263.71,321Z"/><path class="cls-9" d="M282.12,321.3V273.74H259.35V321.3h0C260.08,330.05,281.39,330.06,282.12,321.3Z"/><path class="cls-10" d="M386.76,314.84c-.41-22.94-17.93-52.38-41.4-57.36-5.66-27.47-23.66-55.77-49.23-68.14h0a39.78,39.78,0,0,0-13.21-3.6c-2.59-27.73-20-58.81-42.29-76.14h0c-.71-.55-1.42-1.09-2.14-1.62-11.79-8.58-28.2-15.56-42.24-8.39v0l-.45.26-.7.4-28.74,17,9.55,7.55c-.5.21-1,.47-1.46.71v0l-48.74,28,18.91,8.67s9.54-2.93,17.48-5.39C164,182,181.58,211.1,203,223.47l140.1,100,4.32,29.15,30.27-17.83.26-.16h0C383.4,331.39,386.76,324.54,386.76,314.84Z"/><path class="cls-11" d="M339.51,354.14c-4.21,0-8.76-1.4-13.53-4.15l-171.4-99c-22.52-13-40.84-44.74-40.84-70.74,0-17.78,8.52-28.83,22.24-28.83a33.61,33.61,0,0,1,14.07,3.45l.76.35-.05-.84c-.82-13.22,2.42-24.42,9.12-31.54A25.52,25.52,0,0,1,179,114.82c7,0,14.57,2.35,22.38,7,26.06,15,47.92,50.18,50.87,81.74l0,.4.4.05c30.33,3.86,55.81,40.05,62,71.35l.07.35.34.05a30.09,30.09,0,0,1,10.37,3.85c16.88,9.74,30.61,33.52,30.61,53,0,6.63-1.6,12.14-4.63,15.94a14.77,14.77,0,0,1-11.94,5.59Z"/><path class="cls-12" d="M179,115.32c6.95,0,14.4,2.32,22.14,6.92,25.92,15,47.68,49.94,50.62,81.36l.07.8.8.1c30.11,3.83,55.41,39.81,61.58,70.95l.13.69.69.1a29.81,29.81,0,0,1,10.2,3.79c16.74,9.66,30.36,33.25,30.36,52.58,0,13-6.16,21-16.08,21-4.12,0-8.59-1.38-13.28-4.08l-171.4-99c-22.38-12.92-40.59-44.46-40.59-70.31,0-8.75,2.11-16,6.09-21A19.33,19.33,0,0,1,136,152a33.11,33.11,0,0,1,13.86,3.4l1.52.71-.1-1.68c-.81-13.08,2.38-24.15,9-31.17a25.08,25.08,0,0,1,18.76-7.9m0-1c-18.17,0-30.25,15.81-28.74,40.13A34.21,34.21,0,0,0,136,151c-13.48,0-22.74,10.74-22.74,29.33,0,26.21,18.4,58.07,41.09,71.17l171.4,99c5,2.86,9.64,4.22,13.78,4.22,10.13,0,17.08-8.07,17.08-22,0-19.68-13.82-43.61-30.86-53.45a30.58,30.58,0,0,0-10.54-3.9c-6.07-30.65-31.13-67.77-62.44-71.75-2.92-31.3-24.69-66.87-51.11-82.13-8.14-4.84-15.82-7.06-22.64-7.06Z"/><path class="cls-13" d="M245.08,253l-23-42c-1-1.81-2.77-2.86-3.77-2.22l-23.12,14.88c-1,.63-.19,3,1.3,3.86l10.95,6.45-.06,19.46a4.59,4.59,0,0,0,2,3.6l21.41,12.61c1.09.64,2,.06,2-1.28l.06-19.47,10.94,6.45C245.25,256.16,246.05,254.75,245.08,253Z"/><path class="cls-14" d="M189.69,296.69c0,1.39-1,2-2.19,1.26a4.85,4.85,0,0,1-2.19-3.79c0-1.4,1-2,2.19-1.26A4.82,4.82,0,0,1,189.69,296.69Z"/><path class="cls-14" d="M268.76,341.72c0,1.39-1,2-2.18,1.26a4.83,4.83,0,0,1-2.19-3.79c0-1.39,1-2,2.19-1.26A4.85,4.85,0,0,1,268.76,341.72Z"/></g></g></svg>