<svg xmlns="http://www.w3.org/2000/svg" xmlns:xlink="http://www.w3.org/1999/xlink" width="500" height="500" viewBox="0 0 500 500"><defs><style>.cls-1{fill:url(#linear-gradient);}.cls-2{fill:url(#linear-gradient-2);}.cls-3{fill:url(#linear-gradient-3);}.cls-4{fill:#a4a4a4;}.cls-5{fill:url(#linear-gradient-4);}.cls-6{fill:url(#linear-gradient-5);}.cls-7{fill:url(#linear-gradient-6);}.cls-8{fill:url(#linear-gradient-7);}.cls-9{fill:url(#linear-gradient-8);}.cls-10{fill:url(#linear-gradient-9);}.cls-11{fill:url(#linear-gradient-10);}.cls-12{fill:url(#linear-gradient-11);}.cls-13{fill:url(#linear-gradient-12);}.cls-14{fill:url(#linear-gradient-13);}.cls-15{fill:#ededed;}.cls-16{fill:url(#linear-gradient-14);}.cls-17{fill:url(#linear-gradient-15);}.cls-18{fill:url(#linear-gradient-16);}.cls-19{fill:url(#linear-gradient-17);}.cls-20{fill:url(#linear-gradient-18);}.cls-21{fill:url(#linear-gradient-19);}.cls-22{fill:url(#linear-gradient-20);}.cls-23,.cls-24,.cls-30{fill:none;}.cls-23,.cls-30{stroke:#6f6f6f;}.cls-23,.cls-24{stroke-width:0.23px;}.cls-24{stroke:#8c8c8c;}.cls-25{fill:url(#linear-gradient-21);}.cls-26{fill:url(#linear-gradient-22);}.cls-27{fill:#6f6f6f;}.cls-28{fill:url(#linear-gradient-23);}.cls-29{fill:#171717;}.cls-30{stroke-width:0.5px;}</style><linearGradient id="linear-gradient" x1="118.01" y1="345.79" x2="136.01" y2="345.79" gradientUnits="userSpaceOnUse"><stop offset="0" stop-color="#6f6f6f"/><stop offset="1" stop-color="#565656"/></linearGradient><linearGradient id="linear-gradient-2" x1="130.01" y1="328.43" x2="214" y2="328.43" gradientUnits="userSpaceOnUse"><stop offset="0" stop-color="#3d3d3d"/><stop offset="1" stop-color="#565656"/></linearGradient><linearGradient id="linear-gradient-3" x1="147.98" y1="350.97" x2="184.03" y2="288.54" gradientUnits="userSpaceOnUse"><stop offset="0" stop-color="#8c8c8c"/><stop offset="1" stop-color="#6f6f6f"/></linearGradient><linearGradient id="linear-gradient-4" x1="166" y1="240.38" x2="173.21" y2="240.38" xlink:href="#linear-gradient-2"/><linearGradient id="linear-gradient-5" x1="158.8" y1="240.38" x2="166" y2="240.38" xlink:href="#linear-gradient"/><linearGradient id="linear-gradient-6" x1="286" y1="439.51" x2="304" y2="439.51" gradientTransform="translate(528.12 -35.72) rotate(60)" xlink:href="#linear-gradient"/><linearGradient id="linear-gradient-7" x1="298" y1="422.19" x2="381.99" y2="422.19" xlink:href="#linear-gradient-2"/><linearGradient id="linear-gradient-8" x1="316" y1="444.7" x2="351.99" y2="382.35" xlink:href="#linear-gradient-3"/><linearGradient id="linear-gradient-9" x1="333.99" y1="334.34" x2="341.2" y2="334.34" xlink:href="#linear-gradient-2"/><linearGradient id="linear-gradient-10" x1="326.79" y1="334.34" x2="333.99" y2="334.34" xlink:href="#linear-gradient"/><linearGradient id="linear-gradient-11" x1="317.64" y1="255.73" x2="450.35" y2="255.73" gradientUnits="userSpaceOnUse"><stop offset="0" stop-color="#171717"/><stop offset="1" stop-color="#282828"/></linearGradient><linearGradient id="linear-gradient-12" x1="49.65" y1="216.68" x2="317.64" y2="216.68" gradientUnits="userSpaceOnUse"><stop offset="0" stop-color="#3d3d3d"/><stop offset="1" stop-color="#282828"/></linearGradient><linearGradient id="linear-gradient-13" x1="216.82" y1="232.37" x2="283.18" y2="117.44" gradientUnits="userSpaceOnUse"><stop offset="0" stop-color="#565656"/><stop offset="1" stop-color="#3d3d3d"/></linearGradient><linearGradient id="linear-gradient-14" x1="261.69" y1="160.34" x2="266.59" y2="151.85" gradientUnits="userSpaceOnUse"><stop offset="0" stop-color="#6f6f6f"/><stop offset="1" stop-color="#282828"/></linearGradient><linearGradient id="linear-gradient-15" x1="275.8" y1="168.91" x2="292.24" y2="168.91" gradientUnits="userSpaceOnUse"><stop offset="0" stop-color="#282828"/><stop offset="1" stop-color="#171717"/></linearGradient><linearGradient id="linear-gradient-16" x1="235.76" y1="161.97" x2="275.81" y2="161.97" xlink:href="#linear-gradient-13"/><linearGradient id="linear-gradient-17" x1="219.41" y1="114.64" x2="300.52" y2="114.64" xlink:href="#linear-gradient-13"/><linearGradient id="linear-gradient-18" x1="261.25" y1="79.3" x2="264.02" y2="74.51" xlink:href="#linear-gradient"/><linearGradient id="linear-gradient-19" x1="300.52" y1="136.44" x2="305.86" y2="136.44" gradientUnits="userSpaceOnUse"><stop offset="0" stop-color="#282828"/><stop offset="1" stop-color="#3d3d3d"/></linearGradient><linearGradient id="linear-gradient-20" x1="298.12" y1="136.58" x2="228.53" y2="96.41" gradientUnits="userSpaceOnUse"><stop offset="0" stop-color="#171717"/><stop offset="1"/></linearGradient><linearGradient id="linear-gradient-21" x1="237.79" y1="184.34" x2="255.59" y2="184.34" xlink:href="#linear-gradient-19"/><linearGradient id="linear-gradient-22" x1="189.39" y1="176.55" x2="234.4" y2="176.55" xlink:href="#linear-gradient-13"/><linearGradient id="linear-gradient-23" x1="234.39" y1="190.03" x2="237.79" y2="190.03" xlink:href="#linear-gradient-12"/></defs><g id="Dark_Theme_Objects" data-name="Dark Theme Objects"><polygon class="cls-1" points="130.01 354.47 118.01 347.52 124.01 337.11 136.01 344.05 130.01 354.47"/><polygon class="cls-2" points="136.01 344.05 130.01 354.47 214 305.87 208 302.39 136.01 344.05"/><polygon class="cls-3" points="196 295.45 208 302.39 136.01 344.05 124.01 337.11 196 295.45"/><polygon class="cls-4" points="173.21 156.99 166 161.16 158.8 156.99 166 152.81 173.21 156.99"/><polygon class="cls-5" points="173.21 319.61 173.21 156.99 166 161.16 166 323.78 173.21 319.61"/><polygon class="cls-6" points="158.8 156.99 166 161.16 166 323.78 158.8 319.61 158.8 156.99"/><rect class="cls-7" x="289" y="432.58" width="12" height="13.86" transform="translate(-233.12 475.23) rotate(-60)"/><polygon class="cls-8" points="304 437.77 298 448.17 381.99 399.67 375.99 396.21 304 437.77"/><polygon class="cls-9" points="363.99 389.28 375.99 396.21 304 437.77 292 430.85 363.99 389.28"/><polygon class="cls-4" points="341.2 251.13 334 255.29 326.79 251.13 334 246.97 341.2 251.13"/><polygon class="cls-10" points="341.2 413.39 341.2 251.13 334 255.29 334 417.55 341.2 413.39"/><polygon class="cls-11" points="326.79 251.13 334 255.29 334 417.55 326.79 413.39 326.79 251.13"/><polygon class="cls-12" points="450.35 220.89 450.35 213.96 317.64 290.58 317.64 297.51 450.35 220.89"/><polygon class="cls-13" points="49.65 135.85 317.64 290.58 317.64 297.51 49.65 142.79 49.65 135.85"/><polygon class="cls-14" points="450.35 213.96 317.64 290.58 49.65 135.85 182.36 59.23 450.35 213.96"/><polygon class="cls-15" points="275.8 172.73 235.76 149.41 252.19 140.29 292.23 163.3 275.8 172.73"/><polygon class="cls-16" points="275.8 172.73 235.76 149.41 252.19 140.29 292.23 163.3 275.8 172.73"/><polygon class="cls-17" points="275.8 172.73 275.81 174.53 292.24 165.41 292.23 163.3 275.8 172.73"/><polygon class="cls-18" points="235.76 149.41 235.77 151.22 275.81 174.53 275.8 172.73 235.76 149.41"/><polygon class="cls-19" points="300.52 174.18 219.41 127.31 219.41 55.1 300.52 101.97 300.52 174.18"/><polygon class="cls-20" points="300.52 101.97 219.41 55.1 224.75 51.83 305.87 98.7 300.52 101.97"/><polygon class="cls-21" points="305.87 170.91 300.52 174.18 300.52 101.97 305.87 98.7 305.87 170.91"/><polygon class="cls-22" points="294.75 164.76 225.18 124.56 225.18 64.35 294.75 104.61 294.75 164.76"/><line class="cls-23" x1="225.18" y1="124.56" x2="294.75" y2="164.76"/><line class="cls-24" x1="219.41" y1="55.11" x2="300.52" y2="101.97"/><line class="cls-24" x1="235.76" y1="149.41" x2="275.8" y2="172.73"/><path class="cls-25" d="M255.55,178.61v0a2.4,2.4,0,0,1-.11.23l0,0a1.19,1.19,0,0,1-.19.2,1.09,1.09,0,0,1-.17.13s-.09.07-.15.1l-17.1,10v1l17.1-10,0,0,.12-.09.17-.12h0a1.1,1.1,0,0,0,.15-.16l0,0s0,0,0,0l.05-.06.06-.14v0l0-.08a.66.66,0,0,0,0-.14v-1A1,1,0,0,1,255.55,178.61Z"/><path class="cls-26" d="M190.1,163.76a1.62,1.62,0,0,1-.53-.46.87.87,0,0,1-.17-.52v1a1.21,1.21,0,0,0,.71,1l44.29,25.57v-1Z"/><path class="cls-27" d="M254.88,177.37a1,1,0,0,1,0,2l-17.1,10a3.75,3.75,0,0,1-3.39,0l-44.3-25.58a1,1,0,0,1,0-2l17.1-10a3.67,3.67,0,0,1,3.38,0Z"/><path class="cls-28" d="M237.79,189.34a2.22,2.22,0,0,1-.47.2l-.18.06-.24.06-.29.05h-.07l-.41,0h-.06l-.4,0h-.06l-.39-.06-.06,0-.34-.1-.06,0a3,3,0,0,1-.36-.17v1l.35.17h0l.06,0,.21.07.12,0h.07l.06,0,.24,0h.72l.26,0h.1l.21,0,.09,0,.24,0,.13,0,0,0a2.24,2.24,0,0,0,.47-.21Z"/><path class="cls-29" d="M221.88,177.38a.14.14,0,0,1,0,.25L219.53,179a.54.54,0,0,1-.43,0l-14.56-8.41c-.13-.07-.12-.19,0-.25l2.35-1.36a.44.44,0,0,1,.43,0Z"/><path class="cls-29" d="M225.67,179.57a.13.13,0,0,1,0,.24l-2.35,1.37a.48.48,0,0,1-.42,0l-3.1-1.79a.13.13,0,0,1,0-.25l2.34-1.36a.47.47,0,0,1,.43,0Z"/><path class="cls-29" d="M228.72,181.33a.13.13,0,0,1,0,.25l-2.34,1.36a.47.47,0,0,1-.43,0l-2.36-1.36c-.12-.07-.11-.18,0-.25l2.35-1.36a.47.47,0,0,1,.43,0Z"/><path class="cls-29" d="M208.84,155.8c.12.07.12.18,0,.25l-2.35,1.36a.47.47,0,0,1-.43,0l-2.36-1.36a.14.14,0,0,1,0-.25l2.35-1.37a.48.48,0,0,1,.42,0Z"/><path class="cls-29" d="M221.05,162.85c.12.07.12.18,0,.24l-2.34,1.37a.48.48,0,0,1-.42,0l-2.36-1.36c-.12-.07-.12-.19,0-.25l2.34-1.36a.45.45,0,0,1,.42,0Z"/><path class="cls-29" d="M218,161.09c.11.07.12.18,0,.24l-2.35,1.37a.54.54,0,0,1-.43,0l-2.36-1.37a.14.14,0,0,1,0-.25l2.34-1.36a.47.47,0,0,1,.43,0Z"/><path class="cls-29" d="M247,181.33c.11.06.11.18,0,.25l-2.54,1.48-2.81,1.63a.46.46,0,0,1-.44,0l-1.54-.89c-.13-.07-.13-.19,0-.26l2.82-1.63-.66-.38-.15-.09,2.77-1.61.15.09Z"/><path class="cls-29" d="M241.7,181.8c.12.06.12.17,0,.24l-2.33,1.36a.47.47,0,0,1-.43,0L236.57,182c-.11-.07-.12-.18,0-.25l2.34-1.36a.5.5,0,0,1,.43,0Z"/><path class="cls-29" d="M237.88,186.61c.12.08.12.19,0,.25l-2.34,1.37a.52.52,0,0,1-.44,0l-2.35-1.36c-.12-.07-.11-.18,0-.25l2.35-1.36a.47.47,0,0,1,.43,0Z"/><path class="cls-29" d="M234.83,184.86c.12.06.11.17,0,.24l-2.35,1.36a.48.48,0,0,1-.42,0l-2.36-1.36c-.12-.07-.12-.19,0-.25l2.34-1.37a.54.54,0,0,1,.43,0Z"/><path class="cls-29" d="M199.76,164.61a.13.13,0,0,1,0,.25l-2.34,1.36a.47.47,0,0,1-.43,0l-2.36-1.36a.14.14,0,0,1,0-.25l2.35-1.36a.47.47,0,0,1,.43,0Z"/><path class="cls-29" d="M211.89,157.56c.12.07.12.18,0,.25l-2.35,1.36a.5.5,0,0,1-.43,0l-2.35-1.36a.13.13,0,0,1,0-.25l2.34-1.36a.5.5,0,0,1,.43,0Z"/><path class="cls-29" d="M207.29,158.41c.12.07.12.19,0,.25L205,160a.5.5,0,0,1-.43,0l-3.83-2.21c-.12-.07-.13-.18,0-.25L203,156.2a.47.47,0,0,1,.43,0Z"/><path class="cls-29" d="M214.94,159.32c.12.07.13.18,0,.25l-2.34,1.36a.47.47,0,0,1-.43,0l-2.36-1.36c-.12-.07-.11-.18,0-.25l2.35-1.36a.42.42,0,0,1,.42,0Z"/><path class="cls-29" d="M210.34,160.18a.13.13,0,0,1,0,.25L208,161.79a.45.45,0,0,1-.42,0l-2.36-1.36c-.12-.06-.12-.17,0-.24l2.34-1.36a.5.5,0,0,1,.43,0Z"/><path class="cls-29" d="M213.4,161.94a.13.13,0,0,1,0,.25l-2.34,1.36a.47.47,0,0,1-.43,0l-2.36-1.36c-.11-.07-.12-.18,0-.25l2.34-1.36a.47.47,0,0,1,.43,0Z"/><path class="cls-29" d="M208.11,162.41c.12.06.13.17,0,.25L205.78,164a.47.47,0,0,1-.43,0L203,162.65c-.12-.07-.12-.17,0-.24l2.34-1.36a.48.48,0,0,1,.42,0Z"/><path class="cls-29" d="M216.46,163.71c.11.06.1.17,0,.24l-2.34,1.36a.45.45,0,0,1-.42,0L211.33,164c-.12-.07-.12-.18,0-.24l2.34-1.37a.56.56,0,0,1,.44,0Z"/><path class="cls-29" d="M211.17,164.17c.11.07.12.17,0,.25l-2.33,1.35a.5.5,0,0,1-.43,0L206,164.42c-.11-.07-.12-.18,0-.25l2.34-1.36a.47.47,0,0,1,.43,0Z"/><path class="cls-29" d="M224.1,164.61c.12.07.13.18,0,.25l-2.34,1.36a.49.49,0,0,1-.44,0L219,164.86c-.12-.07-.11-.18,0-.25l2.35-1.36a.45.45,0,0,1,.42,0Z"/><path class="cls-29" d="M206.59,165c.11.07.12.18,0,.25l-2.35,1.36a.47.47,0,0,1-.43,0l-2.36-1.36c-.12-.07-.11-.18,0-.25l2.34-1.36a.45.45,0,0,1,.42,0Z"/><path class="cls-29" d="M219.5,165.46c.12.07.12.19,0,.25l-2.34,1.37a.48.48,0,0,1-.42,0l-2.36-1.36c-.12-.07-.12-.17,0-.24l2.34-1.36a.47.47,0,0,1,.43,0Z"/><path class="cls-29" d="M214.22,165.93a.13.13,0,0,1,0,.25l-2.34,1.36a.47.47,0,0,1-.43,0l-2.35-1.36c-.13-.07-.13-.18,0-.25l2.33-1.36a.47.47,0,0,1,.43,0Z"/><path class="cls-29" d="M227.16,166.38a.13.13,0,0,1,0,.24L224.82,168a.47.47,0,0,1-.43,0L222,166.62a.13.13,0,0,1,0-.25l2.34-1.36a.5.5,0,0,1,.43,0Z"/><path class="cls-29" d="M202.82,166.37a.14.14,0,0,1,0,.25L200.47,168a.47.47,0,0,1-.43,0l-2.35-1.35c-.12-.08-.12-.19,0-.25L200,165a.5.5,0,0,1,.43,0Z"/><path class="cls-29" d="M209.64,166.8a.13.13,0,0,1,0,.25l-2.34,1.36a.48.48,0,0,1-.42,0l-2.36-1.36c-.12-.07-.12-.18,0-.25l2.35-1.36a.48.48,0,0,1,.42,0Z"/><path class="cls-29" d="M222.56,167.23a.14.14,0,0,1,0,.25l-2.34,1.36a.5.5,0,0,1-.43,0l-2.36-1.37a.13.13,0,0,1,0-.24l2.35-1.36a.47.47,0,0,1,.43,0Z"/><path class="cls-29" d="M217.27,167.69c.12.07.13.18,0,.25l-2.33,1.36a.47.47,0,0,1-.43,0l-2.36-1.36a.13.13,0,0,1,0-.25l2.34-1.35a.42.42,0,0,1,.42,0Z"/><path class="cls-29" d="M230.21,168.14c.12.07.12.17,0,.24l-2.34,1.36a.48.48,0,0,1-.42,0l-2.36-1.36c-.12-.07-.12-.19,0-.25l2.35-1.37a.48.48,0,0,1,.42,0Z"/><path class="cls-29" d="M212.69,168.56c.12.08.12.18,0,.25l-2.35,1.36a.47.47,0,0,1-.43,0l-2.35-1.36a.13.13,0,0,1,0-.25l2.34-1.36a.44.44,0,0,1,.43,0Z"/><path class="cls-29" d="M206.61,168.56c.12.07.11.18,0,.25l-2.35,1.36a.48.48,0,0,1-.42,0l-3.1-1.79c-.12-.07-.12-.19,0-.25l2.34-1.37a.54.54,0,0,1,.43,0Z"/><path class="cls-29" d="M225.61,169c.12.07.11.18,0,.25l-2.35,1.36a.43.43,0,0,1-.41,0l-2.36-1.36c-.12-.07-.13-.18,0-.25l2.34-1.36a.47.47,0,0,1,.43,0Z"/><path class="cls-29" d="M220.33,169.46a.13.13,0,0,1,0,.25L218,171.06a.44.44,0,0,1-.43,0l-2.36-1.36a.13.13,0,0,1,0-.25l2.34-1.36a.47.47,0,0,1,.43,0Z"/><path class="cls-29" d="M233.26,169.9c.12.07.12.18,0,.24l-2.35,1.37a.5.5,0,0,1-.43,0l-2.35-1.36a.13.13,0,0,1,0-.25l2.34-1.36a.47.47,0,0,1,.43,0Z"/><path class="cls-29" d="M215.74,170.33c.12.06.13.18,0,.24l-2.34,1.37a.54.54,0,0,1-.43,0l-2.36-1.37c-.12-.06-.11-.18,0-.24L213,169a.45.45,0,0,1,.42,0Z"/><path class="cls-29" d="M228.66,170.75c.12.07.12.19,0,.25l-2.34,1.36a.47.47,0,0,1-.43,0L223.54,171c-.12-.07-.12-.18,0-.24l2.35-1.37a.5.5,0,0,1,.43,0Z"/><path class="cls-29" d="M236.31,171.66c.12.07.13.18,0,.25L234,173.27a.47.47,0,0,1-.43,0l-2.36-1.36c-.12-.07-.11-.18,0-.25l2.34-1.36a.45.45,0,0,1,.42,0Z"/><path class="cls-29" d="M218.8,172.09c.12.07.12.18,0,.25l-2.34,1.36a.49.49,0,0,1-.44,0l-2.36-1.36a.14.14,0,0,1,0-.25l2.35-1.36a.45.45,0,0,1,.42,0Z"/><path class="cls-29" d="M231.72,172.52a.14.14,0,0,1,0,.25l-2.35,1.36a.45.45,0,0,1-.42,0l-2.36-1.36c-.12-.07-.12-.17,0-.24l2.34-1.36a.5.5,0,0,1,.43,0Z"/><path class="cls-29" d="M226.43,173a.13.13,0,0,1,0,.25l-2.33,1.36a.49.49,0,0,1-.44,0l-2.35-1.36a.13.13,0,0,1,0-.25l2.34-1.36a.47.47,0,0,1,.43,0Z"/><path class="cls-29" d="M239.37,173.43c.12.06.12.17,0,.24L237,175a.47.47,0,0,1-.43,0l-2.36-1.36a.14.14,0,0,1,0-.25l2.35-1.36a.45.45,0,0,1,.42,0Z"/><path class="cls-29" d="M221.85,173.85c.12.07.12.18,0,.25l-2.35,1.36a.47.47,0,0,1-.43,0l-2.35-1.36a.13.13,0,0,1,0-.25l2.34-1.36a.47.47,0,0,1,.43,0Z"/><path class="cls-29" d="M234.77,174.28c.12.07.11.18,0,.25l-2.35,1.36a.49.49,0,0,1-.41,0l-2.36-1.36c-.12-.07-.13-.18,0-.25l2.34-1.36a.47.47,0,0,1,.43,0Z"/><path class="cls-29" d="M229.49,174.74c.11.07.12.18,0,.25l-2.34,1.36a.47.47,0,0,1-.43,0L224.36,175a.13.13,0,0,1,0-.25l2.33-1.36a.52.52,0,0,1,.44,0Z"/><path class="cls-29" d="M242.42,175.19c.12.07.12.18,0,.24l-2.35,1.36a.44.44,0,0,1-.43,0l-2.35-1.35c-.12-.07-.12-.19,0-.25l2.34-1.37a.5.5,0,0,1,.43,0Z"/><path class="cls-29" d="M224.9,175.62c.12.06.13.17,0,.24l-2.34,1.36a.47.47,0,0,1-.43,0l-2.36-1.36c-.12-.07-.11-.18,0-.24l2.35-1.37a.49.49,0,0,1,.41,0Z"/><path class="cls-29" d="M237.82,176a.13.13,0,0,1,0,.25l-2.34,1.36a.47.47,0,0,1-.43,0l-2.35-1.36c-.12-.07-.12-.18,0-.25l2.35-1.36a.5.5,0,0,1,.43,0Z"/><path class="cls-29" d="M232.54,176.51c.12.07.12.17,0,.24l-2.33,1.36a.5.5,0,0,1-.43,0l-2.35-1.37c-.12-.06-.13-.17,0-.25l2.34-1.35a.47.47,0,0,1,.43,0Z"/><path class="cls-29" d="M245.47,177c.12.07.13.18,0,.25l-2.34,1.36a.47.47,0,0,1-.43,0l-2.36-1.36c-.12-.07-.11-.18,0-.25l2.35-1.36a.43.43,0,0,1,.41,0Z"/><path class="cls-29" d="M228,177.38c.11.07.12.18,0,.25L225.62,179a.54.54,0,0,1-.43,0l-2.36-1.36a.14.14,0,0,1,0-.25l2.35-1.37a.48.48,0,0,1,.42,0Z"/><path class="cls-29" d="M240.87,177.8c.12.07.12.19,0,.25l-2.35,1.37a.48.48,0,0,1-.42,0l-2.36-1.36c-.12-.07-.12-.17,0-.24l2.34-1.36a.47.47,0,0,1,.43,0Z"/><path class="cls-29" d="M235.59,178.27a.13.13,0,0,1,0,.25l-2.34,1.36a.47.47,0,0,1-.43,0l-2.35-1.36a.13.13,0,0,1,0-.25l2.34-1.36a.47.47,0,0,1,.43,0Z"/><path class="cls-29" d="M231,179.14c.12.07.12.18,0,.24l-2.34,1.37a.5.5,0,0,1-.43,0l-2.35-1.36a.13.13,0,0,1,0-.25l2.34-1.36a.45.45,0,0,1,.42,0Z"/><path class="cls-29" d="M250,179.57c.12.07.12.18,0,.24l-2.34,1.37a.5.5,0,0,1-.43,0L243.4,179a.14.14,0,0,1,0-.25l2.34-1.36a.5.5,0,0,1,.43,0Z"/><path class="cls-29" d="M243.93,179.57c.12.06.11.18,0,.24l-2.34,1.37a.51.51,0,0,1-.42,0l-2.36-1.37a.13.13,0,0,1,0-.24l2.34-1.36a.47.47,0,0,1,.43,0Z"/><path class="cls-29" d="M238.64,180c.12.07.13.18,0,.25l-2.34,1.36a.47.47,0,0,1-.43,0l-2.36-1.36a.13.13,0,0,1,0-.25l2.34-1.36a.45.45,0,0,1,.42,0Z"/><path class="cls-29" d="M234.06,180.9c.12.07.13.18,0,.25l-2.34,1.36a.49.49,0,0,1-.44,0l-2.35-1.36c-.12-.07-.11-.18,0-.25l2.35-1.36a.42.42,0,0,1,.42,0Z"/><path class="cls-29" d="M240.91,184.86c.12.07.12.17,0,.24l-2.35,1.36a.47.47,0,0,1-.43,0L232,182.91c-.12-.06-.12-.18,0-.25l2.34-1.36a.5.5,0,0,1,.43,0Z"/><path class="cls-29" d="M223.37,171.22c.13.07.13.18,0,.25L221,172.82a.42.42,0,0,1-.43,0l-2.35-1.35c-.13-.07-.13-.18,0-.25l2.33-1.36a.47.47,0,0,1,.43,0Z"/><path class="cls-29" d="M205.06,160.64a.13.13,0,0,1,0,.25l-2.34,1.36a.47.47,0,0,1-.43,0l-4.64-2.68a.13.13,0,0,1,0-.25L200,158a.5.5,0,0,1,.43,0Z"/><path class="cls-29" d="M200.48,161.52c.12.06.12.17,0,.24l-2.34,1.36a.45.45,0,0,1-.42,0l-3.1-1.79a.13.13,0,0,1,0-.25l2.35-1.36a.45.45,0,0,1,.42,0Z"/><path class="cls-29" d="M203.53,163.28c.12.07.13.18,0,.24l-2.34,1.36a.46.46,0,0,1-.44,0l-2.35-1.35a.13.13,0,0,1,0-.25l2.35-1.37a.48.48,0,0,1,.42,0Z"/><path class="cls-29" d="M231.78,183.09a.14.14,0,0,1,0,.25l-2.35,1.36a.47.47,0,0,1-.43,0l-2.36-1.36c-.11-.07-.11-.18,0-.24l2.34-1.37a.5.5,0,0,1,.43,0Z"/><path class="cls-29" d="M196.71,162.85c.12.06.12.18,0,.25l-2.34,1.36a.47.47,0,0,1-.43,0l-2.36-1.36c-.12-.07-.12-.19,0-.25l2.34-1.36a.47.47,0,0,1,.43,0Z"/><path class="cls-29" d="M213.41,154.88c.13.07.12.18,0,.25l-2.35,1.36a.42.42,0,0,1-.42,0l-3.84-2.21c-.11-.07-.12-.18,0-.25l2.35-1.36a.47.47,0,0,1,.43,0Z"/><path class="cls-29" d="M216.47,156.64a.13.13,0,0,1,0,.25l-2.34,1.36a.47.47,0,0,1-.43,0l-2.36-1.36c-.11-.07-.11-.18,0-.24l2.35-1.37a.48.48,0,0,1,.42,0Z"/><path class="cls-29" d="M219.53,158.4a.14.14,0,0,1,0,.25L217.18,160a.48.48,0,0,1-.42,0l-2.36-1.36c-.12-.07-.12-.18,0-.25l2.34-1.36a.56.56,0,0,1,.44,0Z"/><path class="cls-29" d="M222.58,160.17c.12.07.11.18,0,.24l-2.34,1.37a.51.51,0,0,1-.42,0l-2.36-1.37c-.11-.06-.12-.17,0-.24l2.34-1.36a.47.47,0,0,1,.43,0Z"/><path class="cls-29" d="M225.63,161.93a.14.14,0,0,1,0,.25l-2.34,1.36a.5.5,0,0,1-.43,0l-2.35-1.36c-.12-.07-.12-.18,0-.25l2.34-1.36a.49.49,0,0,1,.44,0Z"/><path class="cls-29" d="M228.68,163.69c.12.07.12.19,0,.25l-2.34,1.36a.45.45,0,0,1-.42,0l-2.36-1.36c-.12-.07-.13-.18,0-.25l2.34-1.36a.47.47,0,0,1,.43,0Z"/><path class="cls-29" d="M231.74,165.46c.11.06.11.17,0,.24l-2.34,1.36a.45.45,0,0,1-.42,0l-2.36-1.36c-.11-.07-.12-.18,0-.24l2.35-1.37a.54.54,0,0,1,.43,0Z"/><path class="cls-29" d="M234.79,167.22c.12.07.11.18,0,.25l-2.35,1.36a.48.48,0,0,1-.42,0l-2.35-1.35c-.13-.08-.13-.18,0-.25l2.34-1.36a.47.47,0,0,1,.43,0Z"/><path class="cls-29" d="M237.84,169a.13.13,0,0,1,0,.25l-2.34,1.36a.48.48,0,0,1-.42,0l-2.36-1.36c-.12-.07-.12-.18,0-.25l2.35-1.36a.48.48,0,0,1,.42,0Z"/><path class="cls-29" d="M240.9,170.74c.11.07.11.18,0,.25l-2.34,1.36a.45.45,0,0,1-.42,0L235.77,171c-.11-.07-.12-.18,0-.25l2.35-1.36a.47.47,0,0,1,.43,0Z"/><path class="cls-29" d="M243.94,172.5c.13.07.12.19,0,.25l-2.35,1.37a.48.48,0,0,1-.42,0l-2.35-1.36c-.13-.07-.13-.18,0-.24l2.34-1.36a.44.44,0,0,1,.43,0Z"/><path class="cls-29" d="M247,174.27c.12.06.12.18,0,.25l-2.34,1.36a.47.47,0,0,1-.43,0l-2.36-1.36c-.11-.06-.11-.17,0-.24l2.35-1.36a.45.45,0,0,1,.42,0Z"/><path class="cls-29" d="M250.06,176c.11.07.1.18,0,.25l-2.34,1.36a.45.45,0,0,1-.42,0l-2.36-1.36c-.12-.07-.12-.18,0-.25l2.34-1.36a.49.49,0,0,1,.44,0Z"/><path class="cls-29" d="M253.11,177.79c.11.07.1.18,0,.25l-2.34,1.36a.45.45,0,0,1-.42,0L248,178c-.12-.07-.12-.18,0-.25l2.34-1.36a.49.49,0,0,1,.44,0Z"/><line class="cls-30" x1="317.64" y1="290.58" x2="49.65" y2="135.85"/></g></svg>