<svg width="319" height="319" viewBox="0 0 319 319" fill="none" xmlns="http://www.w3.org/2000/svg">
<rect width="319" height="319" fill="#001D6C"/>
<g clip-path="url(#clip0_566_7198)">
<rect width="128" height="128" transform="translate(96 128)" fill="white" fill-opacity="0.01" style="mix-blend-mode:multiply"/>
<g clip-path="url(#clip1_566_7198)">
<path d="M216.001 134.56H188.001C188.001 134.56 187.881 134.56 187.801 134.56C187.721 134.56 187.681 134.56 187.601 134.56C187.361 134.64 187.121 134.72 186.961 134.92L161.401 160.48V136C161.401 135.2 160.761 134.56 159.961 134.56H131.961C131.961 134.56 131.841 134.56 131.761 134.56C131.681 134.56 131.641 134.56 131.561 134.56C131.321 134.64 131.081 134.72 130.921 134.92L103.001 163C102.601 163.4 102.481 164.04 102.681 164.56C102.921 165.08 103.441 165.44 104.001 165.44H130.561V248C130.561 248.8 131.201 249.44 132.001 249.44H160.001C160.801 249.44 161.441 248.8 161.441 248V165.44H186.561V248C186.561 248.8 187.201 249.44 188.001 249.44H216.001C216.801 249.44 217.441 248.8 217.441 248V136C217.441 135.2 216.801 134.56 216.001 134.56ZM107.481 162.56L130.561 139.48V162.56H107.481ZM158.561 246.56H133.441V137.44H158.561V246.56ZM163.481 162.56L186.561 139.48V162.56H163.481ZM214.561 246.56H189.441V137.44H214.561V246.56Z" fill="#F4F4F4"/>
</g>
</g>
<defs>
<clipPath id="clip0_566_7198">
<rect width="128" height="128" fill="white" transform="translate(96 128)"/>
</clipPath>
<clipPath id="clip1_566_7198">
<rect width="128" height="128" fill="white" transform="translate(96 128)"/>
</clipPath>
</defs>
</svg>
