<svg width="319" height="319" viewBox="0 0 319 319" fill="none" xmlns="http://www.w3.org/2000/svg">
<rect width="319" height="319" fill="#0F62FE"/>
<rect width="128" height="128" transform="translate(96 128)" fill="white" fill-opacity="0.01" style="mix-blend-mode:multiply"/>
<path d="M160.001 251.44C159.753 251.44 159.501 251.372 159.281 251.244L125.893 231.944L127.333 229.452L160.001 248.336L198.757 225.928C198.629 225.304 198.557 224.66 198.557 224C198.557 218.792 202.793 214.56 207.997 214.56C213.201 214.56 217.437 218.796 217.437 224C217.437 229.204 213.201 233.44 207.997 233.44C204.485 233.44 201.413 231.512 199.789 228.656L160.717 251.244C160.501 251.376 160.249 251.44 160.001 251.44ZM208.001 217.44C204.385 217.44 201.441 220.38 201.441 224C201.441 227.62 204.381 230.56 208.001 230.56C211.621 230.56 214.561 227.62 214.561 224C214.561 220.38 211.617 217.44 208.001 217.44ZM112.001 233.44C106.797 233.44 102.561 229.204 102.561 224C102.561 219.284 106.037 215.364 110.561 214.668V166.752C110.561 166.24 110.833 165.76 111.281 165.504L144.977 146.02L146.417 148.512L113.441 167.58V214.668C117.965 215.364 121.441 219.284 121.441 224C121.441 229.208 117.205 233.44 112.001 233.44ZM112.001 217.44C108.385 217.44 105.441 220.38 105.441 224C105.441 227.62 108.385 230.56 112.001 230.56C115.617 230.56 118.561 227.616 118.561 224C118.561 220.384 115.617 217.44 112.001 217.44ZM160.001 233.44C159.753 233.44 159.501 233.372 159.281 233.244L127.281 214.744C126.837 214.488 126.561 214.012 126.561 213.496V176.496C126.561 175.984 126.833 175.504 127.281 175.248L159.281 156.748C159.725 156.492 160.277 156.492 160.721 156.748L192.721 175.248C193.161 175.504 193.441 175.98 193.441 176.496V213.496C193.441 214.012 193.165 214.484 192.721 214.744L160.721 233.244C160.501 233.376 160.249 233.44 160.001 233.44ZM129.441 212.668L160.001 230.336L190.561 212.668V177.332L160.001 159.664L129.441 177.332V212.668ZM209.441 208H206.561V167.58L167.869 145.212C166.177 147.756 163.281 149.44 160.001 149.44C154.797 149.44 150.561 145.204 150.561 140C150.561 134.796 154.797 130.56 160.001 130.56C165.209 130.56 169.441 134.796 169.441 140C169.441 140.896 169.313 141.764 169.077 142.584L208.721 165.5C209.161 165.756 209.441 166.232 209.441 166.748V208ZM160.001 133.44C156.385 133.44 153.441 136.384 153.441 140C153.441 143.616 156.385 146.56 160.001 146.56C163.617 146.56 166.561 143.616 166.561 140C166.561 136.384 163.617 133.44 160.001 133.44Z" fill="#F4F4F4"/>
</svg>
