<svg width="319" height="319" viewBox="0 0 319 319" fill="none" xmlns="http://www.w3.org/2000/svg">
<rect width="319" height="319" fill="#4589FF"/>
<rect width="128" height="128" transform="translate(96 128)" fill="white" fill-opacity="0.01" style="mix-blend-mode:multiply"/>
<path d="M160.001 253.44C151.713 253.44 143.669 251.816 136.089 248.612C128.773 245.52 122.201 241.088 116.557 235.444C110.913 229.8 106.485 223.228 103.389 215.916C100.185 208.336 98.5605 200.288 98.5605 192C98.5605 183.708 100.185 175.664 103.389 168.084C106.485 160.768 110.913 154.196 116.557 148.556C122.197 142.912 128.769 138.484 136.089 135.388C151.253 128.972 168.769 128.98 183.925 135.388C191.249 138.488 197.821 142.916 203.453 148.556C208.917 154.016 213.249 160.364 216.337 167.424L213.697 168.576C210.761 161.848 206.625 155.8 201.417 150.592C196.049 145.22 189.781 140.996 182.801 138.04C168.377 131.94 151.665 131.932 137.209 138.04C130.233 140.992 123.969 145.212 118.593 150.592C113.213 155.972 108.993 162.236 106.041 169.208C103.477 175.276 101.973 181.656 101.557 188.228C109.333 180.284 133.049 158.56 160.001 158.56C160.041 158.556 160.085 158.56 160.125 158.56C160.309 158.56 160.497 158.56 160.685 158.564C192.677 158.996 219.933 189.732 221.085 191.052C221.561 191.592 221.561 192.404 221.085 192.948C219.921 194.276 192.281 225.44 160.001 225.44C133.049 225.44 109.333 203.712 101.561 195.772C101.977 202.344 103.477 208.728 106.045 214.792C108.997 221.764 113.217 228.028 118.597 233.404C123.977 238.788 130.241 243.008 137.213 245.956C151.669 252.068 168.381 252.06 182.805 245.956C189.785 243.008 196.049 238.784 201.417 233.404C206.629 228.196 210.761 222.148 213.697 215.42L216.337 216.576C213.253 223.632 208.921 229.98 203.453 235.444C197.817 241.084 191.245 245.516 183.925 248.612C176.345 251.816 168.297 253.44 160.001 253.44ZM160.069 161.44C143.173 161.472 129.441 175.168 129.441 192C129.441 208.852 143.149 222.56 160.001 222.56C175.005 222.56 187.777 211.732 190.249 197.152C188.553 196.572 187.229 195.18 186.753 193.44H173.361C172.641 200.176 166.925 205.44 159.997 205.44C152.585 205.44 146.557 199.408 146.557 192C146.557 184.592 152.585 178.56 159.997 178.56C166.921 178.56 172.641 183.824 173.361 190.56H186.753C187.229 188.82 188.553 187.424 190.249 186.848C187.809 172.448 175.369 161.704 160.669 161.444C160.473 161.44 160.269 161.44 160.069 161.44ZM101.957 192C105.633 195.916 120.561 210.944 139.457 218.368C131.609 212.244 126.561 202.7 126.561 192C126.561 181.28 131.649 171.72 139.549 165.596C120.609 173.004 105.641 188.076 101.957 192ZM193.141 197.32C191.777 205.856 187.197 213.236 180.729 218.292C199.537 210.848 214.377 195.904 218.045 192C214.381 188.1 199.581 173.192 180.809 165.74C187.225 170.796 191.777 178.164 193.137 186.68C195.589 187.204 197.437 189.392 197.437 192C197.437 194.608 195.593 196.792 193.141 197.32ZM160.001 181.44C154.177 181.44 149.441 186.18 149.441 192C149.441 197.824 154.181 202.56 160.001 202.56C165.825 202.56 170.561 197.824 170.561 192C170.561 186.176 165.825 181.44 160.001 181.44ZM192.001 189.44C190.589 189.44 189.441 190.588 189.441 192C189.441 193.412 190.589 194.56 192.001 194.56C193.413 194.56 194.561 193.412 194.561 192C194.561 190.588 193.413 189.44 192.001 189.44Z" fill="#F4F4F4"/>
</svg>
