<svg width="319" height="319" viewBox="0 0 319 319" fill="none" xmlns="http://www.w3.org/2000/svg">
<rect width="319" height="319" fill="#002D9C"/>
<rect width="128" height="128" transform="translate(96 128)" fill="white" fill-opacity="0.01" style="mix-blend-mode:multiply"/>
<path d="M213.441 194C213.441 188.268 210.253 183.04 205.233 180.376C205.369 179.556 205.441 178.772 205.441 178C205.441 172.268 202.253 167.04 197.233 164.376C197.373 163.556 197.441 162.768 197.441 162C197.441 155.976 193.985 149.732 189.289 147.08C188.321 139.996 181.765 134.56 174.001 134.56C167.785 134.56 162.445 138.272 160.001 143.584C157.557 138.276 152.217 134.56 146.001 134.56C138.045 134.56 131.473 140.592 130.689 148.448C125.725 151.132 122.561 156.36 122.561 162C122.561 162.768 122.629 163.552 122.765 164.376C117.745 167.04 114.561 172.268 114.561 178C114.561 178.768 114.629 179.552 114.765 180.376C109.745 183.04 106.561 188.268 106.561 194C106.561 197.5 107.773 200.888 109.993 203.64C109.045 205.696 108.561 207.828 108.561 210C108.561 216.44 112.649 222.2 118.653 224.42C118.589 224.968 118.561 225.492 118.561 226C118.561 233.328 123.809 239.624 130.933 241.068C132.373 248.192 138.673 253.444 146.001 253.444C152.221 253.444 157.557 249.728 160.001 244.42C160.705 245.948 161.649 247.34 162.789 248.552C162.861 248.712 162.853 248.892 162.985 249.024C163.117 249.156 163.297 249.148 163.457 249.22C166.221 251.82 169.917 253.444 174.001 253.444C181.329 253.444 187.625 248.196 189.069 241.068C196.193 239.628 201.445 233.328 201.445 226C201.445 225.488 201.413 224.972 201.353 224.42C207.353 222.196 211.445 216.44 211.445 210C211.445 207.832 210.961 205.7 210.009 203.64C212.229 200.892 213.441 197.504 213.441 194ZM149.441 250.02V242.816C149.441 238.08 145.765 234.616 141.325 230.896C140.713 230.392 139.805 230.468 139.297 231.076C138.785 231.684 138.865 232.596 139.477 233.108C144.073 236.96 146.565 239.648 146.565 242.82V250.504C146.377 250.512 146.197 250.56 146.005 250.56C139.757 250.56 134.429 245.86 133.617 239.632L133.473 238.536L132.377 238.392C126.141 237.576 121.441 232.248 121.441 226C121.441 225.456 121.529 224.936 121.605 224.408L128.585 221.316C129.313 220.996 129.641 220.144 129.317 219.416C128.993 218.684 128.141 218.344 127.417 218.68L120.205 221.88C115.029 220.224 111.441 215.424 111.441 210C111.441 208.452 111.845 206.936 112.453 205.44H124.001C124.797 205.44 125.441 204.796 125.441 204C125.441 203.204 124.797 202.56 124.001 202.56H112.869L112.773 202.456C110.625 200.108 109.441 197.108 109.441 194C109.441 189.02 112.401 184.508 116.977 182.5L118.073 182.02L117.801 180.856C117.557 179.828 117.441 178.892 117.441 178C117.441 173.388 119.997 169.204 124.009 167.016L130.893 175.76C132.145 177.28 133.277 178.512 134.497 179.476L126.985 186.988C126.421 187.552 126.421 188.46 126.985 189.024C127.265 189.3 127.633 189.44 128.001 189.44C128.369 189.44 128.737 189.3 129.017 189.02L137.017 181.02C137.037 181 137.029 180.964 137.049 180.944C137.929 181.252 138.885 181.444 140.001 181.444H148.001C148.797 181.444 149.441 180.8 149.441 180.004C149.441 179.208 148.797 178.564 148.001 178.564H140.001C137.377 178.564 135.981 177.404 133.133 173.956L125.769 164.596C125.569 163.676 125.441 162.808 125.441 162C125.441 157.484 127.961 153.316 131.901 151.104L135.077 153.76C135.345 153.988 135.673 154.096 136.001 154.096C136.413 154.096 136.821 153.92 137.105 153.58C137.613 152.972 137.533 152.064 136.925 151.552L133.601 148.772C134.233 142.376 139.529 137.44 146.001 137.44C152.925 137.44 158.561 143.076 158.561 150V166.676C156.313 163.992 152.797 162.56 148.001 162.56C147.205 162.56 146.561 163.204 146.561 164C146.561 164.796 147.205 165.44 148.001 165.44C155.305 165.44 158.561 168.696 158.561 176V194.636C155.565 194.94 153.897 196.068 152.481 197.128C150.661 198.5 149.225 199.576 144.285 198.588C143.501 198.42 142.745 198.936 142.589 199.716C142.433 200.492 142.937 201.256 143.717 201.408C145.217 201.708 146.481 201.836 147.573 201.836C151.001 201.836 152.681 200.576 154.209 199.428C155.409 198.528 156.529 197.76 158.561 197.5V218.512L150.001 218.552C145.825 218.552 142.917 216.192 141.365 211.536C141.117 210.784 140.293 210.372 139.545 210.624C138.793 210.876 138.381 211.692 138.633 212.448C141.237 220.264 146.873 221.432 150.005 221.432L158.561 221.392V237.992C158.561 243.724 154.689 248.512 149.441 250.02ZM200.485 221.624C198.009 216.496 194.249 214.48 187.761 214.512L183.737 214.56C178.909 214.56 177.441 213.028 177.441 208C177.441 207.204 176.797 206.56 176.001 206.56C175.205 206.56 174.561 207.204 174.561 208C174.561 214.616 177.309 217.44 183.757 217.44L187.797 217.392C187.893 217.388 187.993 217.388 188.089 217.388C193.749 217.388 196.377 219.052 198.341 223.816C198.465 224.528 198.561 225.248 198.561 225.996C198.561 231.66 194.677 236.532 189.309 238.004C188.997 233.756 187.653 230.5 184.993 228C184.409 227.456 183.501 227.48 182.957 228.06C182.409 228.644 182.437 229.552 183.017 230.096C185.273 232.22 186.329 234.976 186.493 238.832L186.389 239.628C185.577 245.86 180.249 250.556 174.001 250.556C171.057 250.556 168.385 249.496 166.241 247.796L173.021 241.016C173.585 240.452 173.585 239.54 173.021 238.976C172.457 238.412 171.545 238.412 170.981 238.976L164.201 245.76C162.497 243.616 161.437 240.944 161.437 238V236C161.437 229.68 163.453 229.44 171.997 229.44C172.793 229.44 173.437 228.796 173.437 228C173.437 227.204 172.793 226.56 171.997 226.56C167.537 226.56 163.833 226.62 161.437 228.384V197.352C167.285 197.176 169.141 195.96 170.753 194.868C171.921 194.068 172.849 193.44 176.001 193.44C176.797 193.44 177.441 192.796 177.441 192C177.441 191.204 176.797 190.56 176.001 190.56C171.961 190.56 170.525 191.54 169.133 192.484C167.797 193.392 166.377 194.32 161.441 194.472V161.324C163.689 164.008 167.205 165.44 172.001 165.44C172.797 165.44 173.441 164.796 173.441 164C173.441 163.204 172.797 162.56 172.001 162.56C164.697 162.56 161.441 159.304 161.441 152V150C161.441 143.076 167.077 137.44 174.001 137.44C179.981 137.44 185.025 141.344 186.221 146.56H176.001C175.205 146.56 174.561 147.204 174.561 148C174.561 148.796 175.205 149.44 176.001 149.44H187.553C191.497 151.452 194.557 156.896 194.557 162C194.557 162.764 194.425 163.588 194.249 164.444C190.465 167.64 187.333 170.696 186.697 174.56H176.001C175.205 174.56 174.561 175.204 174.561 176C174.561 176.796 175.205 177.44 176.001 177.44H186.561V188C186.561 188.796 187.205 189.44 188.001 189.44C188.797 189.44 189.441 188.796 189.441 188V176C189.441 173.004 191.681 170.428 195.797 166.912C199.921 169.072 202.557 173.316 202.557 178C202.557 178.896 202.441 179.828 202.197 180.852L201.925 182.02L203.021 182.5C207.601 184.504 210.557 189.02 210.557 194C210.557 197.108 209.373 200.112 207.225 202.452L207.129 202.556H196.001C195.205 202.556 194.561 203.2 194.561 203.996C194.561 204.792 195.205 205.436 196.001 205.436H207.549C208.157 206.928 208.557 208.452 208.557 209.996C208.561 215.18 205.281 219.776 200.485 221.624Z" fill="#F4F4F4"/>
</svg>
