<svg xmlns="http://www.w3.org/2000/svg" xmlns:xlink="http://www.w3.org/1999/xlink" viewBox="0 0 452 452"><defs><style>.cls-1{fill:url(#linear-gradient);}.cls-2{fill:url(#linear-gradient-2);}.cls-3{fill:#005d5d;}.cls-10,.cls-11,.cls-12,.cls-13,.cls-14,.cls-15,.cls-16,.cls-17,.cls-18,.cls-4,.cls-5,.cls-6,.cls-7,.cls-8{fill:none;}.cls-11,.cls-12,.cls-13,.cls-14,.cls-15,.cls-16,.cls-4,.cls-5,.cls-6,.cls-7,.cls-8{stroke-linecap:round;stroke-width:1.79px;}.cls-10,.cls-11,.cls-12,.cls-13,.cls-14,.cls-15,.cls-16,.cls-4,.cls-5,.cls-6,.cls-7,.cls-8{stroke-linejoin:round;}.cls-11,.cls-12,.cls-16,.cls-4,.cls-5{stroke-dasharray:2.68 3.57;}.cls-4{stroke:url(#linear-gradient-3);}.cls-5{stroke:url(#linear-gradient-4);}.cls-6{stroke:url(#linear-gradient-5);}.cls-14,.cls-7{stroke-dasharray:2.76 3.68;}.cls-7{stroke:url(#linear-gradient-6);}.cls-8{stroke:url(#linear-gradient-7);}.cls-9{fill:#081a1c;}.cls-10,.cls-18{stroke:#3ddbd9;stroke-width:0.89px;}.cls-11{stroke:url(#linear-gradient-8);}.cls-12{stroke:url(#linear-gradient-9);}.cls-13{stroke:url(#linear-gradient-10);}.cls-14{stroke:url(#linear-gradient-11);}.cls-15{stroke:url(#linear-gradient-12);}.cls-16{stroke:url(#linear-gradient-13);}.cls-18{stroke-miterlimit:10;}.cls-19{fill:#004144;}.cls-20{fill:url(#linear-gradient-14);}.cls-21{fill:url(#radial-gradient);}</style><linearGradient id="linear-gradient" x1="236.77" y1="242.34" x2="236.77" y2="304.03" gradientUnits="userSpaceOnUse"><stop offset="0" stop-color="#9ef0f0"/><stop offset="0.21" stop-color="#82e1e1"/><stop offset="0.66" stop-color="#3bbcba"/><stop offset="1" stop-color="#009d9a"/></linearGradient><linearGradient id="linear-gradient-2" x1="182.11" y1="242.33" x2="254.94" y2="242.33" gradientUnits="userSpaceOnUse"><stop offset="0" stop-color="#009d9a"/><stop offset="0.12" stop-color="#01a19e"/><stop offset="1" stop-color="#08bdba"/></linearGradient><linearGradient id="linear-gradient-3" x1="132.31" y1="292.72" x2="201.25" y2="292.72" gradientUnits="userSpaceOnUse"><stop offset="0" stop-color="#007d79"/><stop offset="0.07" stop-color="#0a8480"/><stop offset="0.18" stop-color="#249794"/><stop offset="0.33" stop-color="#4fb7b5"/><stop offset="0.5" stop-color="#8ae2e1"/><stop offset="0.55" stop-color="#9ef0f0"/><stop offset="1" stop-color="#007d79"/></linearGradient><linearGradient id="linear-gradient-4" x1="-83.09" y1="297.74" x2="1.36" y2="297.74" gradientTransform="matrix(-1, 0, 0, 1, 237.53, 0)" xlink:href="#linear-gradient-3"/><linearGradient id="linear-gradient-5" x1="249.24" y1="179.14" x2="218.05" y2="243" gradientUnits="userSpaceOnUse"><stop offset="0" stop-color="#007d79"/><stop offset="0.06" stop-color="#0a8480"/><stop offset="0.15" stop-color="#249794"/><stop offset="0.28" stop-color="#4fb7b5"/><stop offset="0.42" stop-color="#8ae2e1"/><stop offset="0.47" stop-color="#9ef0f0"/><stop offset="1" stop-color="#007d79"/></linearGradient><linearGradient id="linear-gradient-6" x1="233.76" y1="171.58" x2="202.57" y2="235.44" xlink:href="#linear-gradient-5"/><linearGradient id="linear-gradient-7" x1="219.01" y1="164.38" x2="187.82" y2="228.24" xlink:href="#linear-gradient-5"/><linearGradient id="linear-gradient-8" x1="132.31" y1="152.43" x2="201.25" y2="152.43" gradientUnits="userSpaceOnUse"><stop offset="0" stop-color="#007d79"/><stop offset="0.06" stop-color="#0a8480"/><stop offset="0.16" stop-color="#249794"/><stop offset="0.29" stop-color="#4fb7b5"/><stop offset="0.44" stop-color="#8ae2e1"/><stop offset="0.48" stop-color="#9ef0f0"/><stop offset="1" stop-color="#007d79"/></linearGradient><linearGradient id="linear-gradient-9" x1="-83.09" y1="157.45" x2="1.36" y2="157.45" gradientTransform="matrix(-1, 0, 0, 1, 237.53, 0)" xlink:href="#linear-gradient-8"/><linearGradient id="linear-gradient-10" x1="139.83" y1="237.46" x2="108.64" y2="301.32" gradientUnits="userSpaceOnUse"><stop offset="0" stop-color="#007d79"/><stop offset="0.05" stop-color="#0a8480"/><stop offset="0.13" stop-color="#249794"/><stop offset="0.23" stop-color="#4fb7b5"/><stop offset="0.35" stop-color="#8ae2e1"/><stop offset="0.39" stop-color="#9ef0f0"/><stop offset="1" stop-color="#007d79"/></linearGradient><linearGradient id="linear-gradient-11" x1="124.35" y1="229.9" x2="93.16" y2="293.76" xlink:href="#linear-gradient-10"/><linearGradient id="linear-gradient-12" x1="109.6" y1="222.69" x2="78.41" y2="286.56" xlink:href="#linear-gradient-10"/><linearGradient id="linear-gradient-13" x1="104.91" y1="-61.39" x2="175.98" y2="-61.39" gradientTransform="translate(342.06 108.87) rotate(116.03)" xlink:href="#linear-gradient-10"/><linearGradient id="linear-gradient-14" x1="357.59" y1="295.23" x2="357.59" y2="370.81" gradientUnits="userSpaceOnUse"><stop offset="0" stop-color="#9ef0f0"/><stop offset="0.22" stop-color="#82e6e6"/><stop offset="0.69" stop-color="#3bcecc"/><stop offset="1" stop-color="#08bdba"/></linearGradient><radialGradient id="radial-gradient" cx="-21.3" cy="325.61" fx="-34.05332835608605" fy="314.9719725375223" r="35.79" gradientTransform="matrix(-1.02, 0, 0, 1, 87.26, 0)" gradientUnits="userSpaceOnUse"><stop offset="0" stop-color="#9ef0f0"/><stop offset="0.15" stop-color="#9aecec"/><stop offset="0.31" stop-color="#8de0e0"/><stop offset="0.48" stop-color="#78cdcd"/><stop offset="0.64" stop-color="#5bb2b2"/><stop offset="0.81" stop-color="#358f8f"/><stop offset="0.97" stop-color="#086464"/><stop offset="1" stop-color="#005d5d"/></radialGradient></defs><title>Asset 7</title><g id="Layer_2" data-name="Layer 2"><g id="Specs"><polygon class="cls-1" points="218.54 262.94 218.54 304.03 255.01 283.47 254.97 242.34 218.54 262.94"/><polygon class="cls-2" points="182.11 242.37 218.55 221.75 254.94 242.33 218.55 262.92 182.11 242.37"/><polygon class="cls-3" points="182.03 283.47 182.09 242.37 218.54 262.93 218.54 304 182.03 283.47"/><line class="cls-4" x1="200.36" y1="273.42" x2="133.2" y2="312.02"/><line class="cls-5" x1="237.06" y1="273.42" x2="319.72" y2="322.06"/><line class="cls-6" x1="218.71" y1="242.33" x2="218.7" y2="240.99"/><line class="cls-7" x1="218.69" y1="237.31" x2="218.36" y2="168.23"/><line class="cls-8" x1="218.35" y1="166.39" x2="218.35" y2="165.05"/><polygon class="cls-9" points="255.25 102.01 218.46 81.19 181.7 101.97 218.46 122.76 255.25 102.01"/><polygon class="cls-9" points="255.26 102.01 218.46 122.77 218.46 122.78 181.68 101.98 181.64 143.51 218.46 164.28 218.46 164.25 255.33 143.51 255.26 102.01"/><polygon class="cls-10" points="255.03 143.41 255 102.03 218.35 122.76 218.35 164.1 255.03 143.41"/><polygon class="cls-10" points="181.71 102.06 218.37 81.32 254.99 102.03 218.37 122.74 181.71 102.06"/><polygon class="cls-10" points="181.63 143.41 181.69 102.07 218.36 122.75 218.36 164.07 181.63 143.41"/><path class="cls-10" d="M255,143.44l-36.63,20.63Z"/><line class="cls-11" x1="133.2" y1="171.73" x2="200.36" y2="133.13"/><line class="cls-12" x1="237.06" y1="133.13" x2="319.72" y2="181.77"/><line class="cls-13" x1="109.3" y1="300.65" x2="109.29" y2="299.31"/><line class="cls-14" x1="109.28" y1="295.63" x2="108.95" y2="226.55"/><line class="cls-15" x1="108.94" y1="224.71" x2="108.94" y2="223.37"/><line class="cls-16" x1="335.77" y1="300.65" x2="335.41" y2="223.37"/><polygon class="cls-9" points="335.59 231.56 379.46 206.84 335.59 156.14 335.59 156.14 335.59 156.14 335.59 156.14 335.59 156.14 291.72 206.84 335.59 231.56 335.59 231.56 335.59 231.56 335.59 231.56 335.59 231.56"/><polygon class="cls-17" points="379.57 207.13 335.73 182.34 291.83 207.17 335.7 231.71 379.57 207.13"/><polygon class="cls-10" points="335.7 156.14 379.57 206.84 335.7 231.56 335.7 156.14"/><polygon class="cls-10" points="335.7 156.14 291.83 206.84 335.7 231.56 335.7 156.14"/><ellipse class="cls-9" cx="109.01" cy="189.08" rx="34.34" ry="33.55"/><ellipse class="cls-10" cx="109.12" cy="189.08" rx="34.34" ry="33.55"/><path class="cls-18" d="M143.46,188c0,8-15.38,14.4-34.34,14.4S74.78,196,74.78,188"/><polygon class="cls-19" points="335.62 295.23 291.67 346.03 335.62 370.81 335.62 295.23"/><polygon class="cls-20" points="335.62 295.23 379.57 346.03 335.62 370.81 335.62 295.23"/><ellipse class="cls-21" cx="109.06" cy="325.61" rx="36.63" ry="35.79"/><rect class="cls-17" width="452" height="452"/></g></g></svg>