<svg xmlns="http://www.w3.org/2000/svg" xmlns:xlink="http://www.w3.org/1999/xlink" viewBox="0 0 452 452"><defs><style>.cls-1{font-size:34.59px;fill:#fff;font-family:IBMPlexSans-Bold, IBM Plex Sans;font-weight:700;}.cls-2{fill:url(#linear-gradient);}.cls-3{fill:url(#linear-gradient-2);}.cls-4{fill:#005d5d;}.cls-5{fill:url(#linear-gradient-3);}.cls-6{fill:#08bdba;}.cls-7{fill:none;}</style><linearGradient id="linear-gradient" x1="139.61" y1="355.21" x2="139.61" y2="408.86" gradientUnits="userSpaceOnUse"><stop offset="0" stop-color="#9ef0f0"/><stop offset="0.21" stop-color="#82e1e1"/><stop offset="0.66" stop-color="#3bbcba"/><stop offset="1" stop-color="#009d9a"/></linearGradient><linearGradient id="linear-gradient-2" x1="92.08" y1="355.21" x2="155.42" y2="355.21" gradientUnits="userSpaceOnUse"><stop offset="0" stop-color="#009d9a"/><stop offset="0.12" stop-color="#01a19e"/><stop offset="1" stop-color="#08bdba"/></linearGradient><linearGradient id="linear-gradient-3" x1="1685.43" y1="609.05" x2="1492.87" y2="720.04" gradientTransform="translate(-1449.58 439.59) rotate(-30.04)" gradientUnits="userSpaceOnUse"><stop offset="0" stop-color="#9ef0f0"/><stop offset="0.04" stop-color="#8be6e6"/><stop offset="0.13" stop-color="#66d3d2"/><stop offset="0.22" stop-color="#46c2c0"/><stop offset="0.32" stop-color="#2db4b2"/><stop offset="0.44" stop-color="#19aaa7"/><stop offset="0.57" stop-color="#0ba3a0"/><stop offset="0.73" stop-color="#029e9b"/><stop offset="1" stop-color="#009d9a"/></linearGradient></defs><title>07-punctuation</title><g id="Layer_2" data-name="Layer 2"><g id="Layer_11" data-name="Layer 11"><text class="cls-1" transform="translate(118.2 316.01)">!</text><polygon class="cls-2" points="123.76 373.13 123.76 408.86 155.47 390.98 155.44 355.21 123.76 373.13"/><polygon class="cls-3" points="92.08 355.23 123.76 337.31 155.41 355.2 123.76 373.11 92.08 355.23"/><polygon class="cls-4" points="92.01 390.98 92.06 355.24 123.76 373.12 123.76 408.83 92.01 390.98"/><polygon class="cls-5" points="157.56 74.5 341.5 395.32 359.99 363.96 176.01 43.14 157.56 74.5"/><polygon class="cls-6" points="121.18 74.88 139.63 43.5 175.99 43.14 157.55 74.49 121.18 74.88"/><polygon class="cls-4" points="305.06 395.73 121.16 74.89 157.55 74.5 341.48 395.3 305.06 395.73"/><rect class="cls-7" width="452" height="452"/></g></g></svg>