<?xml version="1.0" encoding="utf-8"?>
<!-- Generator: Adobe Illustrator 26.0.3, SVG Export Plug-In . SVG Version: 6.00 Build 0)  -->
<svg version="1.1" id="Layer_1" xmlns="http://www.w3.org/2000/svg" xmlns:xlink="http://www.w3.org/1999/xlink" x="0px" y="0px"
	 viewBox="0 0 1400 758" style="enable-background:new 0 0 1400 758;" xml:space="preserve">
<style type="text/css">
	.st0{fill:url(#SVGID_1_);fill-opacity:0.29;}
	.st1{fill:url(#SVGID_00000152243646721815841520000001684941889832594846_);fill-opacity:0.23;}
	.st2{fill:url(#SVGID_00000159441115194934078360000013545875423445043609_);fill-opacity:0.42;}
	.st3{fill:url(#SVGID_00000121978857488264933870000017270241965722337954_);fill-opacity:0.33;}
	.st4{fill:url(#SVGID_00000162315930892932750970000008306759251954026169_);filter:url(#Adobe_OpacityMaskFilter);}
	
		.st5{opacity:0.6;mask:url(#__lottie_element_2638_00000106141311003307962290000015741202432383844765_);fill:url(#SVGID_00000093880846805586319550000010282656977366924704_);fill-opacity:0.42;}
	.st6{fill-opacity:0;stroke:#FFFFFF;stroke-width:2;stroke-opacity:0.15;}
	.st7{fill:#B4B4B4;}
	.st8{font-family:'IBMPlexSans';}
	.st9{font-size:36px;}
	.st10{fill:#FFFFFF;}
	.st11{font-family:'IBMPlexSans-ExtraLight';}
	.st12{font-size:52px;}
	.st13{fill:none;stroke:#000000;stroke-width:1.000000e-02;}
	.st14{font-family:'IBMPlexMono';}
	.st15{font-size:180px;}
	.st16{letter-spacing:-4;}
	.st17{clip-path:url(#SVGID_00000137813150130873128920000017622087950349978253_);}
	.st18{fill-opacity:0;stroke:#8141F7;stroke-width:10;}
	.st19{fill-opacity:0;stroke:#4FBABA;stroke-width:10;}
	.st20{fill-opacity:0;stroke:#C2E5FE;stroke-width:10;}
	.st21{fill-opacity:0;stroke:#5286FB;stroke-width:10;}
	.st22{fill-opacity:0;stroke:#F185B5;stroke-width:10;}
</style>
<g>
	<rect width="1400" height="758"/>
	<g transform="matrix(1,0,0,1,-261.9639892578125,-167.19000244140625)">
		
			<radialGradient id="SVGID_1_" cx="724.6609" cy="1064.1639" r="617.4341" gradientTransform="matrix(1 0 0 -1 236.851 1265.1639)" gradientUnits="userSpaceOnUse">
			<stop  offset="0.7" style="stop-color:#000000;stop-opacity:0"/>
			<stop  offset="0.85" style="stop-color:#4B1680;stop-opacity:0.5"/>
			<stop  offset="1" style="stop-color:#962CFF"/>
		</radialGradient>
		<path class="st0" d="M611.9,202H348.9c0,0.2,0,0.5,0,0.7c0,97.2,23.5,191.3,66,275.3l234.8-118.4c-24.2-48-37.7-101.7-37.7-157.3
			C611.9,202.2,611.9,202.1,611.9,202z"/>
		
			<radialGradient id="SVGID_00000062882630194850488420000003801196764176521118_" cx="579.53" cy="1305.061" r="623.0413" gradientTransform="matrix(1 0 0 -1 380.982 1506.0609)" gradientUnits="userSpaceOnUse">
			<stop  offset="0.7" style="stop-color:#00BEBA;stop-opacity:0"/>
			<stop  offset="0.85" style="stop-color:#00BEBA;stop-opacity:0.5"/>
			<stop  offset="1" style="stop-color:#00BEBA"/>
		</radialGradient>
		<path style="fill:url(#SVGID_00000062882630194850488420000003801196764176521118_);fill-opacity:0.23;" d="M656.2,372.8
			L426.6,501c75.3,134.8,200.6,240.9,355.6,288l77.1-251.7C770.7,510.3,699.2,449.8,656.2,372.8z"/>
		
			<radialGradient id="SVGID_00000137851628350801546610000015743058102633162143_" cx="172.18" cy="1392.485" r="626.235" gradientTransform="matrix(1 0 0 -1 787.332 1593.485)" gradientUnits="userSpaceOnUse">
			<stop  offset="0.7" style="stop-color:#2982FF;stop-opacity:0"/>
			<stop  offset="0.85" style="stop-color:#2982FF;stop-opacity:0.5"/>
			<stop  offset="1" style="stop-color:#2982FF"/>
		</radialGradient>
		<path style="fill:url(#SVGID_00000137851628350801546610000015743058102633162143_);fill-opacity:0.42;" d="M962.4,552.4
			c-15.3,0-30.3-1-44.9-2.8l-33.4,261c25.6,3.2,51.9,4.9,78.7,4.9c88.3,0,173.9-19.4,251.9-54.7l-108.3-239.6
			C1061.7,541.3,1012.8,552.4,962.4,552.4z"/>
		
			<radialGradient id="SVGID_00000043437941068371973440000007714224784102254501_" cx="-125.1" cy="1201.65" r="624.3199" gradientTransform="matrix(1 0 0 -1 1085.05 1401.1019)" gradientUnits="userSpaceOnUse">
			<stop  offset="0.7" style="stop-color:#000000;stop-opacity:0"/>
			<stop  offset="0.85" style="stop-color:#80395C;stop-opacity:0.5"/>
			<stop  offset="1" style="stop-color:#FF73B7"/>
		</radialGradient>
		<path style="fill:url(#SVGID_00000043437941068371973440000007714224784102254501_);fill-opacity:0.33;" d="M1312.1,201.5
			c-0.2,141.6-80.9,256.8-192.8,313.3l118.4,234.8c195.8-98.9,337.2-300.6,337.4-548.1H1312.1z"/>
		<defs>
			<filter id="Adobe_OpacityMaskFilter" filterUnits="userSpaceOnUse" x="807.3" y="541.3" width="95.4" height="265.5">
				<feFlood  style="flood-color:white;flood-opacity:1" result="back"/>
				<feBlend  in="SourceGraphic" in2="back" mode="normal"/>
			</filter>
		</defs>
		
			<mask maskUnits="userSpaceOnUse" x="807.3" y="541.3" width="95.4" height="265.5" id="__lottie_element_2638_00000106141311003307962290000015741202432383844765_">
			
				<radialGradient id="SVGID_00000173129710338679493710000005257486280059823546_" cx="597.671" cy="1304.136" r="633.1565" gradientTransform="matrix(1 0 0 -1 0 1092.38)" gradientUnits="userSpaceOnUse">
				<stop  offset="0.7" style="stop-color:#FFFFFF;stop-opacity:0"/>
				<stop  offset="0.85" style="stop-color:#FFFFFF;stop-opacity:0.5"/>
				<stop  offset="1" style="stop-color:#FFFFFF"/>
			</radialGradient>
			<path style="fill:url(#SVGID_00000173129710338679493710000005257486280059823546_);filter:url(#Adobe_OpacityMaskFilter);" d="
				M492.6,127.6l-66.3,254.7c16.7,4.3,33.7,7.9,51,10.8l44.5-259.4C511.9,132.1,502.2,130,492.6,127.6z"/>
		</mask>
		
			<radialGradient id="SVGID_00000117640337311546319380000009772690346143191198_" cx="532.9377" cy="1047.8657" r="353.1295" fx="332.0948" fy="1049.1805" gradientTransform="matrix(1 0 0 -1 380.982 1506.0609)" gradientUnits="userSpaceOnUse">
			<stop  offset="0.7" style="stop-color:#AEE6FF;stop-opacity:0"/>
			<stop  offset="0.8516" style="stop-color:#AEE6FF;stop-opacity:0.5"/>
			<stop  offset="1" style="stop-color:#AEE6FF"/>
		</radialGradient>
		
			<path style="opacity:0.6;mask:url(#__lottie_element_2638_00000106141311003307962290000015741202432383844765_);fill:url(#SVGID_00000117640337311546319380000009772690346143191198_);fill-opacity:0.42;" d="
			M873.6,541.3L807.3,796c16.7,4.3,33.7,7.9,51,10.8l44.5-259.4C892.8,545.8,883.1,543.7,873.6,541.3z"/>
	</g>
	<g transform="matrix(1,0,0,1,700.5,341.25)">
		<path class="st6" d="M613.5-306.7l-264.2,0 M349-291.9L613-280.7 M611.3-254.7l-263.2-22.4 M346.5-262.4l262,33.6 M604.7-203.1
			l-260.3-44.7 M341.6-233.1l258.2,55.7 M593.7-152.1l-255.6-66.6 M334.1-204.4l252.5,77.3 M578.5-102.4l-249-88 M324.2-176.5
			l245,98.5 M559.1-54L318.4-162.8 M312-149.4L547.8-30.5 M535.6-7.5L305-136.3 M297.5-123.6L522.4,14.9 M508.3,36.8L289.5-111.1
			 M280.9-99L493.3,58.1 M477.3,78.7L271.8-87.3 M262.3-75.9L460.5,98.6 M442.9,117.8L252.3-65 M241.8-54.5l182.7,190.7
			 M405.3,153.8L230.9-44.4 M219.5-34.9l165.9,205.5 M364.8,186.5l-157-212.3 M195.7-17.2l147.8,218.7 M321.7,215.7L183.3-9.1
			 M170.5-1.6l128.7,230.4 M276.2,241.1L157.4,5.4 M144,11.8l108.7,240.5 M228.7,262.5L130.4,17.7 M116.5,23l87.9,248.8
			 M179.6,279.9L102.4,27.6 M88.1,31.7L154.6,287 M129.2,293L73.7,35.1 M59.1,38l44.6,260 M77.9,301.8L44.4,40.2 M29.7,41.7
			L52,304.6 M26,306.2L14.8,42.7 M0,306.8L0,43 M-26.1,306.2l11.2-263.5 M-29.7,41.8L-52,304.6 M-44.4,40.3l-33.5,261.5 M-59.1,38.1
			l-44.6,259.8 M-73.7,35.4L-129.3,293 M-88.2,32l-66.4,255 M-102.5,27.9l-77.2,251.9 M-116.6,23.3l-87.8,248.4 M-130.5,18.1
			l-98.2,244.4 M-144.2,12.3l-108.5,240 M-157.6,5.9l-118.6,235.2 M-170.8-1.1l-128.5,229.9 M-183.6-8.6l-138.1,224.3 M-196.1-16.7
			l-147.5,218.2 M-208.2-25.2l-156.6,211.7 M-220-34.3l-165.4,204.9 M-231.4-43.9l-174,197.7 M-242.3-53.9l-182.2,190.1
			 M-252.9-64.4l-190.1,182.2 M-262.9-75.4L-460.6,98.6 M-272.5-86.7L-477.3,78.7 M-281.6-98.5L-493.3,58.1 M-290.3-110.6
			L-508.3,36.8 M-298.4-123.1l-224.1,138 M-305.9-135.9L-535.6-7.6 M-312.9-149L-547.8-30.6 M-319.4-162.4L-559.1-54.1
			 M-325.2-176.1L-569.3-78 M-330.5-190l-248,87.6 M-335.1-204.1l-251.5,77 M-339.2-218.4l-254.5,66.3 M-342.6-232.9l-257.1,55.4
			 M-345.5-247.5l-259.2,44.5 M-347.7-262.2l-260.9,33.4 M-349.2-277l-262.1,22.3 M-350.2-291.9L-613-280.7 M-350.5-306.8h-263"/>
		<g transform="matrix(1,0,0,1,0,0)">
			<g transform="matrix(1,0,0,1,0,0)">
			</g>
		</g>
	</g>
	<g transform="matrix(1,0,0,1,632.2490234375,388.7919921875)">
		<text transform="matrix(0.1567 0.9876 -0.9876 0.1567 -587.3973 -262.6553)" class="st7 st8 st9">S</text>
		<text transform="matrix(0.178 0.984 -0.984 0.178 -584.1106 -241.9991)" class="st7 st8 st9">e</text>
		<text transform="matrix(0.2097 0.9778 -0.9778 0.2097 -580.515 -222.5647)" class="st7 st8 st9">c</text>
		<text transform="matrix(0.2411 0.9705 -0.9705 0.2411 -576.7377 -204.8531)" class="st7 st8 st9">u</text>
		<text transform="matrix(0.2618 0.9651 -0.9651 0.2618 -571.7627 -185.0199)" class="st7 st8 st9">r</text>
		<text transform="matrix(0.2824 0.9593 -0.9593 0.2824 -568.2754 -172.2764)" class="st7 st8 st9">i</text>
		<text transform="matrix(0.2926 0.9562 -0.9562 0.2926 -565.736 -163.6423)" class="st7 st8 st9">t</text>
		<text transform="matrix(0.3229 0.9464 -0.9464 0.3229 -562.0822 -151.5438)" class="st7 st8 st9">y</text>
	</g>
	<g transform="matrix(1,0,0,1,632.2490234375,388.7919921875)">
		<text transform="matrix(0.6776 0.7354 -0.7354 0.6776 -428.6046 83.2155)" class="st7 st8 st9">D</text>
		<text transform="matrix(0.6999 0.7143 -0.7143 0.6999 -412.2497 100.9948)" class="st7 st8 st9">a</text>
		<text transform="matrix(0.7144 0.6998 -0.6998 0.7144 -398.7726 114.7032)" class="st7 st8 st9">t</text>
		<text transform="matrix(0.7285 0.685 -0.685 0.7285 -389.7376 123.5373)" class="st7 st8 st9">a</text>
		<text transform="matrix(0.7493 0.6623 -0.6623 0.7493 -375.6739 136.644)" class="st7 st8 st9"> </text>
		<text transform="matrix(0.7627 0.6468 -0.6468 0.7627 -369.3859 142.3607)" class="st7 st8 st9">&amp;</text>
		<text transform="matrix(0.7758 0.631 -0.631 0.7758 -350.2584 158.4321)" class="st7 st8 st9"> </text>
		<text transform="matrix(0.7949 0.6068 -0.6068 0.7949 -343.7231 163.8662)" class="st7 st8 st9">A</text>
		<text transform="matrix(0.8072 0.5903 -0.5903 0.8072 -325.3434 177.8186)" class="st7 st8 st9">I</text>
		<text transform="matrix(0.8192 0.5736 -0.5736 0.8192 -313.6749 186.2562)" class="st7 st8 st9">.</text>
		<text transform="matrix(0.8308 0.5565 -0.5565 0.8308 -305.6549 191.8744)" class="st7 st8 st9"> </text>
		<text transform="matrix(0.8365 0.5479 -0.5479 0.8365 -298.6067 196.6188)" class="st7 st8 st9">I</text>
		<text transform="matrix(0.8531 0.5217 -0.5217 0.8531 -286.579 204.5399)" class="st7 st8 st9">A</text>
	</g>
	<g transform="matrix(1,0,0,1,632.2490234375,388.7919921875)">
		<text transform="matrix(0.9319 0.3626 -0.3626 0.9319 -179.411 259.5575)" class="st7 st8 st9">P</text>
		<text transform="matrix(0.943 0.3329 -0.3329 0.943 -159.0398 267.3645)" class="st7 st8 st9">u</text>
		<text transform="matrix(0.9531 0.3027 -0.3027 0.9531 -139.7254 274.078)" class="st7 st8 st9">b</text>
		<text transform="matrix(0.9623 0.272 -0.272 0.9623 -119.7954 280.3049)" class="st7 st8 st9">l</text>
		<text transform="matrix(0.9651 0.2617 -0.2617 0.9651 -110.3761 282.9807)" class="st7 st8 st9">i</text>
		<text transform="matrix(0.9705 0.241 -0.241 0.9705 -101.7041 285.3921)" class="st7 st8 st9">c</text>
		<text transform="matrix(0.9755 0.2201 -0.2201 0.9755 -84.123 289.7285)" class="st7 st8 st9"> </text>
		<text transform="matrix(0.98 0.1991 -0.1991 0.98 -75.8544 291.6885)" class="st7 st8 st9">C</text>
		<text transform="matrix(0.984 0.178 -0.178 0.984 -53.93 296.057)" class="st7 st8 st9">l</text>
		<text transform="matrix(0.9876 0.1567 -0.1567 0.9876 -44.2958 297.8098)" class="st7 st8 st9">o</text>
		<text transform="matrix(0.9922 0.1246 -0.1246 0.9922 -24.3748 300.9092)" class="st7 st8 st9">u</text>
		<text transform="matrix(0.9957 9.224704e-02 -9.224704e-02 0.9957 -4.0819 303.4305)" class="st7 st8 st9">d</text>
	</g>
	<g transform="matrix(1,0,0,1,632.2490234375,388.7919921875)">
		<text transform="matrix(0.9999 -1.631531e-02 1.631531e-02 0.9999 64.4948 307.339)" class="st7 st8 st9">H</text>
		<text transform="matrix(0.9988 -4.891893e-02 4.891893e-02 0.9988 89.9445 306.9122)" class="st7 st8 st9">P</text>
		<text transform="matrix(0.9967 -8.143611e-02 8.143611e-02 0.9967 111.735 305.8334)" class="st7 st8 st9">S</text>
		<text transform="matrix(0.9947 -0.103 0.103 0.9947 132.5754 304.061)" class="st7 st8 st9">,</text>
		<text transform="matrix(0.9935 -0.1138 0.1138 0.9935 142.3126 303.0285)" class="st7 st8 st9"> </text>
		<text transform="matrix(0.9893 -0.146 0.146 0.9893 150.7704 302.179)" class="st7 st8 st9">C</text>
		<text transform="matrix(0.984 -0.178 0.178 0.984 172.9024 299.0013)" class="st7 st8 st9">C</text>
		<text transform="matrix(0.9778 -0.2097 0.2097 0.9778 194.9132 295.0749)" class="st7 st8 st9">B</text>
		<text transform="matrix(0.9705 -0.241 0.241 0.9705 217.8954 290.1257)" class="st7 st8 st9">A</text>
		<text transform="matrix(0.9623 -0.272 0.272 0.9623 240.2708 284.4822)" class="st7 st8 st9">S</text>
	</g>
	<g transform="matrix(1,0,0,1,632.2490234375,388.7919921875)">
		<text transform="matrix(0.7355 -0.6775 0.6775 0.7355 507.2208 140.0391)" class="st7 st8 st9">A</text>
		<text transform="matrix(0.7144 -0.6998 0.6998 0.7144 524.1595 124.3672)" class="st7 st8 st9">u</text>
		<text transform="matrix(0.6925 -0.7214 0.7214 0.6925 538.7309 110.0208)" class="st7 st8 st9">t</text>
		<text transform="matrix(0.6776 -0.7354 0.7354 0.6776 547.5225 100.9437)" class="st7 st8 st9">o</text>
		<text transform="matrix(0.6469 -0.7626 0.7626 0.6469 561.2776 86.1966)" class="st7 st8 st9">m</text>
		<text transform="matrix(0.615 -0.7885 0.7885 0.615 581.5735 62.1973)" class="st7 st8 st9">a</text>
		<text transform="matrix(0.5987 -0.801 0.801 0.5987 593.3984 47.0404)" class="st7 st8 st9">t</text>
		<text transform="matrix(0.5904 -0.8071 0.8071 0.5904 600.9446 36.9052)" class="st7 st8 st9">i</text>
		<text transform="matrix(0.5652 -0.825 0.825 0.5652 606.3182 29.6824)" class="st7 st8 st9">o</text>
		<text transform="matrix(0.5394 -0.8421 0.8421 0.5394 617.783 13.0968)" class="st7 st8 st9">n</text>
		<text transform="matrix(0.5218 -0.8531 0.8531 0.5218 628.8006 -4.1297)" class="st7 st8 st9"> </text>
		<text transform="matrix(0.504 -0.8637 0.8637 0.504 633.3152 -11.3288)" class="st7 st8 st9">F</text>
		<text transform="matrix(0.4768 -0.879 0.879 0.4768 643.5012 -28.6869)" class="st7 st8 st9">o</text>
		<text transform="matrix(0.4491 -0.8935 0.8935 0.4491 653.1709 -46.3792)" class="st7 st8 st9">u</text>
		<text transform="matrix(0.4208 -0.9071 0.9071 0.4208 662.417 -64.6203)" class="st7 st8 st9">n</text>
		<text transform="matrix(0.392 -0.92 0.92 0.392 671.0935 -83.1386)" class="st7 st8 st9">d</text>
		<text transform="matrix(0.3627 -0.9319 0.9319 0.3627 679.3475 -102.3209)" class="st7 st8 st9">a</text>
		<text transform="matrix(0.3429 -0.9394 0.9394 0.3429 686.3291 -120.2333)" class="st7 st8 st9">t</text>
		<text transform="matrix(0.3229 -0.9464 0.9464 0.3229 690.6963 -132.091)" class="st7 st8 st9">o</text>
		<text transform="matrix(0.2926 -0.9562 0.9562 0.2926 697.1751 -151.1824)" class="st7 st8 st9">n</text>
	</g>
	<g transform="matrix(1,0,0,1,705.7119750976562,223.95999145507812)">
		<text transform="matrix(1 0 0 1 -203.6281 -3.006250e-05)" class="st10 st11 st12">Total instances of </text>
		<text transform="matrix(1 0 0 1 -203.6281 -3.006250e-05)" class="st13 st11 st12">Total instances of </text>
		<text transform="matrix(1 0 0 1 -196.7115 54)" class="st10 st11 st12">universal pattern </text>
		<text transform="matrix(1 0 0 1 -196.7115 54)" class="st13 st11 st12">universal pattern </text>
		<text transform="matrix(1 0 0 1 -100.2798 108)" class="st10 st11 st12">adoption</text>
		<text transform="matrix(1 0 0 1 -100.2798 108)" class="st13 st11 st12">adoption</text>
	</g>
	<g transform="matrix(1,0,0,1,542.77197265625,160.74000549316406)">
		<text transform="matrix(1 0 0 1 0 -1.476562e-05)" class="st10 st14 st15 st16">655</text>
	</g>
	<g>
		<defs>
			<rect id="SVGID_00000071534787104869476770000008187715336839279292_" x="50" y="-22" width="1300" height="800"/>
		</defs>
		<clipPath id="SVGID_00000093890682139911281480000001489257640507530414_">
			<use xlink:href="#SVGID_00000071534787104869476770000008187715336839279292_"  style="overflow:visible;"/>
		</clipPath>
		<g transform="matrix(1,0,0,1,50,-22)" style="clip-path:url(#SVGID_00000093890682139911281480000001489257640507530414_);">
			<g transform="matrix(1,0,0,1,650.5,363.25)">
				<g transform="matrix(1,0,0,1,0,0)">
					<path class="st18" d="M-350.5-306.8c0,0-43.3,0-94.7,0"/>
				</g>
			</g>
			<g transform="matrix(1,0,0,1,650.5,363.25)">
				<g transform="matrix(1,0,0,1,0,0)">
					<path class="st18" d="M-350.2-291.9c0,0-101.8,4.3-178.7,7.6"/>
				</g>
			</g>
			<g transform="matrix(1,0,0,1,650.5,363.25)">
				<g transform="matrix(1,0,0,1,0,0)">
					<path class="st18" d="M-349.2-277c0,0-69.1,5.9-136.3,11.6"/>
				</g>
			</g>
			<g transform="matrix(1,0,0,1,650.5,363.25)">
				<g transform="matrix(1,0,0,1,0,0)">
					<path class="st18" d="M-347.7-262.2c0,0-37.2,4.8-83.5,10.7"/>
				</g>
			</g>
			<g transform="matrix(1,0,0,1,650.5,363.25)">
				<g transform="matrix(1,0,0,1,0,0)">
					<path class="st18" d="M-345.5-247.5c0,0-100.4,17.2-176.3,30.2"/>
				</g>
			</g>
			<g transform="matrix(1,0,0,1,650.5,363.25)">
				<g transform="matrix(1,0,0,1,0,0)">
					<path class="st18" d="M-342.6-232.9c0,0-31.3,6.7-72,15.5"/>
				</g>
			</g>
			<g transform="matrix(1,0,0,1,650.5,363.25)">
				<g transform="matrix(1,0,0,1,0,0)">
					<path class="st18" d="M-339.2-218.4c0,0-41.9,10.9-91.6,23.9"/>
				</g>
			</g>
			<g transform="matrix(1,0,0,1,650.5,363.25)">
				<g transform="matrix(1,0,0,1,0,0)">
					<path class="st18" d="M-335.1-204.1c0,0-41.4,12.7-90.5,27.7"/>
				</g>
			</g>
			<g transform="matrix(1,0,0,1,650.5,363.25)">
				<g transform="matrix(1,0,0,1,0,0)">
					<path class="st18" d="M-330.5-190c0,0-30.2,10.7-69.4,24.5"/>
				</g>
			</g>
			<g transform="matrix(1,0,0,1,650.5,363.25)">
				<g transform="matrix(1,0,0,1,0,0)">
					<path class="st18" d="M-325.2-176.1c0,0-40.1,16.1-87.9,35.3"/>
				</g>
			</g>
			<g transform="matrix(1,0,0,1,650.5,363.25)">
				<g transform="matrix(1,0,0,1,0,0)">
					<path class="st18" d="M-319.4-162.4c0,0-69.9,31.6-134.2,60.7"/>
				</g>
			</g>
			<g transform="matrix(1,0,0,1,650.5,363.25)">
				<g transform="matrix(1,0,0,1,0,0)">
					<path class="st19" d="M-298.4-123.1c0,0-113.9,70.1-179.3,110.4"/>
				</g>
			</g>
			<g transform="matrix(1,0,0,1,650.5,363.25)">
				<g transform="matrix(1,0,0,1,0,0)">
					<path class="st19" d="M-290.3-110.6c0,0-35.9,24.2-78.5,53.1"/>
				</g>
			</g>
			<g transform="matrix(1,0,0,1,650.5,363.25)">
				<g transform="matrix(1,0,0,1,0,0)">
					<path class="st19" d="M-281.6-98.5c0,0-50.1,37.1-101.6,75.1"/>
				</g>
			</g>
			<g transform="matrix(1,0,0,1,650.5,363.25)">
				<g transform="matrix(1,0,0,1,0,0)">
					<path class="st19" d="M-272.5-86.7c0,0-65.9,53.2-122.9,99.2"/>
				</g>
			</g>
			<g transform="matrix(1,0,0,1,650.5,363.25)">
				<g transform="matrix(1,0,0,1,0,0)">
					<path class="st19" d="M-262.9-75.4c0,0-20.1,17.7-47.4,41.7"/>
				</g>
			</g>
			<g transform="matrix(1,0,0,1,650.5,363.25)">
				<g transform="matrix(1,0,0,1,0,0)">
					<path class="st19" d="M-252.9-64.4c0,0-73.7,70.6-129.3,123.9"/>
				</g>
			</g>
			<g transform="matrix(1,0,0,1,650.5,363.25)">
				<g transform="matrix(1,0,0,1,0,0)">
					<path class="st19" d="M-242.3-53.9c0,0-124.4,129.8-167.6,174.9"/>
				</g>
			</g>
			<g transform="matrix(1,0,0,1,650.5,363.25)">
				<g transform="matrix(1,0,0,1,0,0)">
					<path class="st19" d="M-231.4-43.9c0,0-61.5,69.9-111.3,126.5"/>
				</g>
			</g>
			<g transform="matrix(1,0,0,1,650.5,363.25)">
				<g transform="matrix(1,0,0,1,0,0)">
					<path class="st19" d="M-220-34.3c0,0-53.2,65.9-99.3,122.9"/>
				</g>
			</g>
			<g transform="matrix(1,0,0,1,650.5,363.25)">
				<g transform="matrix(1,0,0,1,0,0)">
					<path class="st19" d="M-208.2-25.2c0,0-55.3,74.8-100.2,135.5"/>
				</g>
			</g>
			<g transform="matrix(1,0,0,1,650.5,363.25)">
				<g transform="matrix(1,0,0,1,0,0)">
					<path class="st19" d="M-196.1-16.7c0,0-43,63.6-82.6,122.2"/>
				</g>
			</g>
			<g transform="matrix(1,0,0,1,650.5,363.25)">
				<g transform="matrix(1,0,0,1,0,0)">
					<path class="st19" d="M-183.6-8.6c0,0-2,3.3-5.5,9"/>
				</g>
			</g>
			<g transform="matrix(1,0,0,1,650.5,363.25)">
				<g transform="matrix(1,0,0,1,0,0)">
					<path class="st19" d="M-170.8-1.1c0,0-37.5,67.1-71.9,128.8"/>
				</g>
			</g>
			<g transform="matrix(1,0,0,1,650.5,363.25)">
				<g transform="matrix(1,0,0,1,0,0)">
					<path class="st19" d="M-157.6,5.9c0,0-41.9,83.1-75.9,150.5"/>
				</g>
			</g>
			<g transform="matrix(1,0,0,1,650.5,363.25)">
				<g transform="matrix(1,0,0,1,0,0)">
					<path class="st19" d="M-144.2,12.3c0,0-38.3,84.8-69.4,153.6"/>
				</g>
			</g>
			<g transform="matrix(1,0,0,1,650.5,363.25)">
				<g transform="matrix(1,0,0,1,0,0)">
					<path class="st19" d="M-130.5,18.1c0,0-25.9,64.4-51.1,127.1"/>
				</g>
			</g>
			<g transform="matrix(1,0,0,1,650.5,363.25)">
				<g transform="matrix(1,0,0,1,0,0)">
					<path class="st19" d="M-116.6,23.3c0,0-37.2,105.4-63.2,178.8"/>
				</g>
			</g>
			<g transform="matrix(1,0,0,1,650.5,363.25)">
				<g transform="matrix(1,0,0,1,0,0)">
					<path class="st20" d="M-73.7,35.4c0,0-9.1,42.4-20,92.7"/>
				</g>
			</g>
			<g transform="matrix(1,0,0,1,650.5,363.25)">
				<g transform="matrix(1,0,0,1,0,0)">
					<path class="st21" d="M-29.7,41.8c0,0-1,12.3-2.7,31.5"/>
				</g>
			</g>
			<g transform="matrix(1,0,0,1,650.5,363.25)">
				<g transform="matrix(1,0,0,1,0,0)">
					<path class="st21" d="M-14.9,42.7c0,0-3.6,84.7-6.7,158.1"/>
				</g>
			</g>
			<g transform="matrix(1,0,0,1,650.5,363.25)">
				<path class="st21" d="M0,43c0,0,0,3.8,0,10.5"/>
			</g>
			<g transform="matrix(1,0,0,1,650.5,363.25)">
				<g transform="matrix(1,0,0,1,0,0)">
					<path class="st21" d="M14.8,42.7c0,0,0.5,12.3,1.3,31.6"/>
				</g>
			</g>
			<g transform="matrix(1,0,0,1,650.5,363.25)">
				<g transform="matrix(1,0,0,1,0,0)">
					<path class="st21" d="M29.7,41.7c0,0,1.8,21.7,4.5,52.6"/>
				</g>
			</g>
			<g transform="matrix(1,0,0,1,650.5,363.25)">
				<g transform="matrix(1,0,0,1,0,0)">
					<path class="st21" d="M44.4,40.2c0,0,0.5,3.8,1.3,10.5"/>
				</g>
			</g>
			<g transform="matrix(1,0,0,1,650.5,363.25)">
				<g transform="matrix(1,0,0,1,0,0)">
					<path class="st21" d="M59.1,38c0,0,13,75.8,25,145.6"/>
				</g>
			</g>
			<g transform="matrix(1,0,0,1,650.5,363.25)">
				<g transform="matrix(1,0,0,1,0,0)">
					<path class="st21" d="M73.7,35.1c0,0,23.6,109.4,40,185.7"/>
				</g>
			</g>
			<g transform="matrix(1,0,0,1,650.5,363.25)">
				<g transform="matrix(1,0,0,1,0,0)">
					<path class="st21" d="M88.1,31.7c0,0,1,3.7,2.7,10.2"/>
				</g>
			</g>
			<g transform="matrix(1,0,0,1,650.5,363.25)">
				<g transform="matrix(1,0,0,1,0,0)">
					<path class="st21" d="M102.4,27.6c0,0,1.1,3.7,3.1,10.1"/>
				</g>
			</g>
			<g transform="matrix(1,0,0,1,650.5,363.25)">
				<g transform="matrix(1,0,0,1,0,0)">
					<path class="st21" d="M116.5,23c0,0,25.6,72.6,49.2,139.3"/>
				</g>
			</g>
			<g transform="matrix(1,0,0,1,650.5,363.25)">
				<path class="st21" d="M130.4,17.7c0,0,38.1,94.9,66.9,166.5"/>
			</g>
			<g transform="matrix(1,0,0,1,650.5,363.25)">
				<g transform="matrix(1,0,0,1,0,0)">
					<path class="st22" d="M170.5-1.6c0,0,8.3,14.8,20.6,36.9"/>
				</g>
			</g>
			<g transform="matrix(1,0,0,1,650.5,363.25)">
				<g transform="matrix(1,0,0,1,0,0)">
					<path class="st22" d="M183.3-9.1c0,0,22.8,37,49.8,80.9"/>
				</g>
			</g>
			<g transform="matrix(1,0,0,1,650.5,363.25)">
				<g transform="matrix(1,0,0,1,0,0)">
					<path class="st22" d="M195.7-17.2c0,0,21.1,31.2,47.3,70"/>
				</g>
			</g>
			<g transform="matrix(1,0,0,1,650.5,363.25)">
				<g transform="matrix(1,0,0,1,0,0)">
					<path class="st22" d="M207.8-25.8c0,0,7.3,9.9,18.8,25.5"/>
				</g>
			</g>
			<g transform="matrix(1,0,0,1,650.5,363.25)">
				<g transform="matrix(1,0,0,1,0,0)">
					<path class="st22" d="M219.5-34.9c0,0,20.2,25,46.4,57.5"/>
				</g>
			</g>
			<g transform="matrix(1,0,0,1,650.5,363.25)">
				<g transform="matrix(1,0,0,1,0,0)">
					<path class="st22" d="M230.9-44.4c0,0,41.3,47,83.7,95.2"/>
				</g>
			</g>
			<g transform="matrix(1,0,0,1,650.5,363.25)">
				<g transform="matrix(1,0,0,1,0,0)">
					<path class="st22" d="M241.8-54.5c0,0,53.3,55.6,102.3,106.8"/>
				</g>
			</g>
			<g transform="matrix(1,0,0,1,650.5,363.25)">
				<g transform="matrix(1,0,0,1,0,0)">
					<path class="st22" d="M252.3-65c0,0,67.4,64.6,122,117"/>
				</g>
			</g>
			<g transform="matrix(1,0,0,1,650.5,363.25)">
				<g transform="matrix(1,0,0,1,0,0)">
					<path class="st22" d="M262.3-75.9c0,0,37.2,32.7,79.3,69.8"/>
				</g>
			</g>
			<g transform="matrix(1,0,0,1,650.5,363.25)">
				<g transform="matrix(1,0,0,1,0,0)">
					<path class="st22" d="M271.8-87.3c0,0,13.2,10.6,32.9,26.5"/>
				</g>
			</g>
			<g transform="matrix(1,0,0,1,650.5,363.25)">
				<g transform="matrix(1,0,0,1,0,0)">
					<path class="st22" d="M280.9-99c0,0,56,41.4,110.4,81.7"/>
				</g>
			</g>
			<g transform="matrix(1,0,0,1,650.5,363.25)">
				<g transform="matrix(1,0,0,1,0,0)">
					<path class="st22" d="M289.5-111.1c0,0,63.8,43.1,122.5,82.8"/>
				</g>
			</g>
			<g transform="matrix(1,0,0,1,650.5,363.25)">
				<g transform="matrix(1,0,0,1,0,0)">
					<path class="st22" d="M297.5-123.6c0,0,47.6,29.3,99,60.9"/>
				</g>
			</g>
			<g transform="matrix(1,0,0,1,650.5,363.25)">
				<g transform="matrix(1,0,0,1,0,0)">
					<path class="st22" d="M305-136.3c0,0,54.6,30.5,110.7,61.8"/>
				</g>
			</g>
			<g transform="matrix(1,0,0,1,650.5,363.25)">
				<path class="st22" d="M312-149.4c0,0,49.9,25.2,103.8,52.3"/>
				<g transform="matrix(1,0,0,1,0,0)">
				</g>
			</g>
			<g transform="matrix(1,0,0,1,650.5,363.25)">
				<g transform="matrix(1,0,0,1,0,0)">
					<path class="st22" d="M318.4-162.8c0,0,11.2,5.1,28.9,13.1"/>
				</g>
			</g>
			<g transform="matrix(1,0,0,1,650.5,363.25)">
				<g transform="matrix(1,0,0,1,0,0)">
					<path class="st22" d="M324.2-176.5c0,0,40.3,16.2,88.2,35.5"/>
				</g>
			</g>
			<g transform="matrix(1,0,0,1,650.5,363.25)">
				<g transform="matrix(1,0,0,1,0,0)">
					<path class="st22" d="M329.5-190.3c0,0,41,14.5,89.6,31.7"/>
				</g>
			</g>
			<g transform="matrix(1,0,0,1,650.5,363.25)">
				<g transform="matrix(1,0,0,1,0,0)">
					<path class="st22" d="M334.1-204.4c0,0,3.7,1.1,10.1,3.1"/>
				</g>
			</g>
			<g transform="matrix(1,0,0,1,650.5,363.25)">
				<g transform="matrix(1,0,0,1,0,0)">
					<path class="st22" d="M338.1-218.7c0,0,67.4,17.5,132.9,34.6"/>
				</g>
			</g>
			<g transform="matrix(1,0,0,1,650.5,363.25)">
				<g transform="matrix(1,0,0,1,0,0)">
					<path class="st22" d="M341.6-233.1c0,0,36.8,7.9,82.6,17.8"/>
				</g>
			</g>
			<g transform="matrix(1,0,0,1,650.5,363.25)">
				<g transform="matrix(1,0,0,1,0,0)">
					<path class="st22" d="M344.4-247.7c0,0,3.8,0.6,10.4,1.8"/>
				</g>
			</g>
			<g transform="matrix(1,0,0,1,650.5,363.25)">
				<g transform="matrix(1,0,0,1,0,0)">
					<path class="st22" d="M346.5-262.4c0,0,69,8.8,136.2,17.5"/>
				</g>
			</g>
			<g transform="matrix(1,0,0,1,650.5,363.25)">
				<g transform="matrix(1,0,0,1,0,0)">
					<path class="st22" d="M348.1-277.1c0,0,7.9,0.7,21.1,1.8"/>
				</g>
			</g>
			<g transform="matrix(1,0,0,1,650.5,363.25)">
				<g transform="matrix(1,0,0,1,0,0)">
					<path class="st22" d="M349-291.9c0,0,3.8,0.2,10.6,0.4"/>
				</g>
			</g>
			<g transform="matrix(1,0,0,1,650.5,363.25)">
				<g transform="matrix(1,0,0,1,0,0)">
					<path class="st22" d="M349.3-306.7c0,0,32.1,0,74,0"/>
				</g>
			</g>
		</g>
	</g>
</g>
</svg>
