<?xml version="1.0" encoding="utf-8"?>
<!-- Generator: Adobe Illustrator 26.1.0, SVG Export Plug-In . SVG Version: 6.00 Build 0)  -->
<svg version="1.1" id="Layer_1" xmlns="http://www.w3.org/2000/svg" xmlns:xlink="http://www.w3.org/1999/xlink" x="0px" y="0px"
	 viewBox="0 0 1400 758" style="enable-background:new 0 0 1400 758;" xml:space="preserve">
<style type="text/css">
	.st0{fill:url(#SVGID_1_);fill-opacity:0.29;}
	.st1{fill:url(#SVGID_00000006687592089111438240000015520916046211961729_);fill-opacity:0.23;}
	.st2{fill:url(#SVGID_00000051384661930170254920000009358581914268719294_);fill-opacity:0.42;}
	.st3{fill:url(#SVGID_00000161595590451710725930000006259389308604034435_);fill-opacity:0.33;}
	
		.st4{opacity:0.6;fill:url(#SVGID_00000044159751789959381640000011555010312181337239_);fill-opacity:0.42;enable-background:new    ;}
	.st5{fill:none;stroke:#FFFFFF;stroke-width:2;stroke-opacity:0.15;}
	.st6{fill:#B4B4B4;}
	.st7{font-family:'IBMPlexSans';}
	.st8{font-size:35.9984px;}
	.st9{font-size:36px;}
	.st10{font-size:36.0012px;}
	.st11{font-size:35.9988px;}
	.st12{font-size:35.9989px;}
	.st13{font-size:36.0015px;}
	.st14{font-size:36.0016px;}
	.st15{font-size:36.0011px;}
	.st16{font-size:36.0013px;}
	.st17{font-size:36.0019px;}
	.st18{font-size:35.9987px;}
	.st19{font-size:35.9985px;}
	.st20{font-size:35.9983px;}
	.st21{font-size:36.0014px;}
	.st22{fill:#FFFFFF;}
	.st23{font-family:'IBMPlexSans-ExtraLight';}
	.st24{font-size:52px;}
	.st25{font-family:'IBMPlexMono';}
	.st26{font-size:180px;}
	.st27{letter-spacing:-2;}
	.st28{fill-opacity:0;stroke:#8141F7;stroke-width:10;}
	.st29{fill-opacity:0;stroke:#4FBABA;stroke-width:10;}
	.st30{fill-opacity:0;stroke:#C2E5FE;stroke-width:10;}
	.st31{fill-opacity:0;stroke:#5286FB;stroke-width:10;}
	.st32{fill-opacity:0;stroke:#F185B5;stroke-width:10;}
</style>
<g>
	<rect width="1400" height="758"/>
	<g>
		
			<radialGradient id="SVGID_1_" cx="724.6249" cy="1066.5239" r="617.4341" gradientTransform="matrix(1 0 0 -1 -25.113 1099.9739)" gradientUnits="userSpaceOnUse">
			<stop  offset="0.7" style="stop-color:#000000;stop-opacity:0"/>
			<stop  offset="0.85" style="stop-color:#4B1680;stop-opacity:0.5"/>
			<stop  offset="1" style="stop-color:#962CFF"/>
		</radialGradient>
		<path class="st0" d="M86.9,34.45c0,0.2,0,0.5,0,0.7c0,97.2,23.5,191.3,66,275.3l234.8-118.4c-24.2-48-37.7-102-37.7-157.6H86.9z"
			/>
		
			<radialGradient id="SVGID_00000005231705740518017750000004688344832991105421_" cx="579.894" cy="1307.321" r="623.0413" gradientTransform="matrix(1 0 0 -1 119.018 1340.8708)" gradientUnits="userSpaceOnUse">
			<stop  offset="0.7" style="stop-color:#00BEBA;stop-opacity:0"/>
			<stop  offset="0.85" style="stop-color:#00BEBA;stop-opacity:0.5"/>
			<stop  offset="1" style="stop-color:#00BEBA"/>
		</radialGradient>
		<path style="fill:url(#SVGID_00000005231705740518017750000004688344832991105421_);fill-opacity:0.23;" d="M394.6,205.35
			L165,333.55c75.3,134.8,200.6,240.9,355.6,288l77.1-251.7C509.1,342.85,437.6,282.35,394.6,205.35z"/>
		
			<radialGradient id="SVGID_00000098207973780769311060000009310859960490473918_" cx="172.744" cy="1395.345" r="626.235" gradientTransform="matrix(1 0 0 -1 525.368 1428.2949)" gradientUnits="userSpaceOnUse">
			<stop  offset="0.7" style="stop-color:#2982FF;stop-opacity:0"/>
			<stop  offset="0.85" style="stop-color:#2982FF;stop-opacity:0.5"/>
			<stop  offset="1" style="stop-color:#2982FF"/>
		</radialGradient>
		<path style="fill:url(#SVGID_00000098207973780769311060000009310859960490473918_);fill-opacity:0.42;" d="M701,384.35
			c-15.3,0-30.3-1-44.9-2.8l-33.4,261c25.6,3.2,51.9,4.9,78.7,4.9c88.3,0,173.9-19.4,251.9-54.7L845,353.15
			C800.3,373.25,751.4,384.35,701,384.35z"/>
		
			<radialGradient id="SVGID_00000103978655859469194060000017503509428540151472_" cx="-124.236" cy="1203.41" r="624.3199" gradientTransform="matrix(1 0 0 -1 823.0861 1235.9119)" gradientUnits="userSpaceOnUse">
			<stop  offset="0.7" style="stop-color:#000000;stop-opacity:0"/>
			<stop  offset="0.85" style="stop-color:#80395C;stop-opacity:0.5"/>
			<stop  offset="1" style="stop-color:#FF73B7"/>
		</radialGradient>
		<path style="fill:url(#SVGID_00000103978655859469194060000017503509428540151472_);fill-opacity:0.33;" d="M1051,34.55
			c-0.2,141.6-80.9,256.8-192.8,313.3l118.4,234.8c195.8-98.9,337.2-300.6,337.4-548.1H1051z"/>
		
			<radialGradient id="SVGID_00000127766193873691387480000008456660099318167429_" cx="533.6019" cy="1050.7261" r="353.1308" fx="332.7582" fy="1052.0409" gradientTransform="matrix(1 0 0 -1 119.018 1340.8708)" gradientUnits="userSpaceOnUse">
			<stop  offset="0.7" style="stop-color:#AEE6FF;stop-opacity:0"/>
			<stop  offset="0.8516" style="stop-color:#AEE6FF;stop-opacity:0.5"/>
			<stop  offset="1" style="stop-color:#AEE6FF"/>
		</radialGradient>
		
			<path style="opacity:0.6;fill:url(#SVGID_00000127766193873691387480000008456660099318167429_);fill-opacity:0.42;enable-background:new    ;" d="
			M597,638.751c-17.216-2.886-34.376-6.521-51-10.801l66.3-254.7l0,0c10.374,2.621,19.926,4.616,29.2,6.1L597,638.751L597,638.751z"
			/>
	</g>
	<g>
		<line class="st5" x1="1314" y1="34.55" x2="1049.8" y2="34.55"/>
		<line class="st5" x1="1049.5" y1="49.35" x2="1313.5" y2="60.55"/>
		<line class="st5" x1="1311.8" y1="86.55" x2="1048.6" y2="64.15"/>
		<line class="st5" x1="1047" y1="78.85" x2="1309" y2="112.45"/>
		<line class="st5" x1="1305.2" y1="138.15" x2="1044.9" y2="93.45"/>
		<line class="st5" x1="1042.1" y1="108.15" x2="1300.3" y2="163.85"/>
		<line class="st5" x1="1294.2" y1="189.15" x2="1038.6" y2="122.55"/>
		<line class="st5" x1="1034.6" y1="136.85" x2="1287.1" y2="214.15"/>
		<line class="st5" x1="1279" y1="238.85" x2="1030" y2="150.85"/>
		<line class="st5" x1="1024.7" y1="164.75" x2="1269.7" y2="263.25"/>
		<line class="st5" x1="1259.6" y1="287.25" x2="1018.9" y2="178.45"/>
		<line class="st5" x1="1012.5" y1="191.85" x2="1248.3" y2="310.75"/>
		<line class="st5" x1="1236.1" y1="333.75" x2="1005.5" y2="204.95"/>
		<line class="st5" x1="998" y1="217.65" x2="1222.9" y2="356.15"/>
		<line class="st5" x1="1208.8" y1="378.05" x2="990" y2="230.15"/>
		<line class="st5" x1="981.4" y1="242.25" x2="1193.8" y2="399.35"/>
		<line class="st5" x1="1177.8" y1="419.95" x2="972.3" y2="253.95"/>
		<line class="st5" x1="962.8" y1="265.35" x2="1161" y2="439.85"/>
		<line class="st5" x1="1143.4" y1="459.05" x2="952.8" y2="276.25"/>
		<line class="st5" x1="942.3" y1="286.75" x2="1125" y2="477.45"/>
		<line class="st5" x1="1105.8" y1="495.05" x2="931.4" y2="296.85"/>
		<line class="st5" x1="920" y1="306.35" x2="1085.9" y2="511.85"/>
		<line class="st5" x1="1065.3" y1="527.75" x2="908.3" y2="315.45"/>
		<line class="st5" x1="896.2" y1="324.05" x2="1044" y2="542.75"/>
		<line class="st5" x1="1022.2" y1="556.95" x2="883.8" y2="332.15"/>
		<line class="st5" x1="871" y1="339.65" x2="999.7" y2="570.05"/>
		<line class="st5" x1="976.7" y1="582.35" x2="857.9" y2="346.65"/>
		<line class="st5" x1="844.5" y1="353.05" x2="953.2" y2="593.55"/>
		<line class="st5" x1="929.2" y1="603.75" x2="830.9" y2="358.95"/>
		<line class="st5" x1="817" y1="364.25" x2="904.9" y2="613.05"/>
		<line class="st5" x1="880.1" y1="621.15" x2="802.9" y2="368.85"/>
		<line class="st5" x1="788.6" y1="372.95" x2="855.1" y2="628.25"/>
		<line class="st5" x1="829.7" y1="634.25" x2="774.2" y2="376.35"/>
		<line class="st5" x1="759.6" y1="379.25" x2="804.2" y2="639.25"/>
		<line class="st5" x1="778.4" y1="643.05" x2="744.9" y2="381.45"/>
		<line class="st5" x1="730.2" y1="382.95" x2="752.5" y2="645.85"/>
		<line class="st5" x1="726.5" y1="647.45" x2="715.3" y2="383.95"/>
		<line class="st5" x1="700.5" y1="648.05" x2="700.5" y2="384.25"/>
		<line class="st5" x1="674.4" y1="647.45" x2="685.6" y2="383.95"/>
		<line class="st5" x1="670.8" y1="383.05" x2="648.5" y2="645.85"/>
		<line class="st5" x1="656.1" y1="381.55" x2="622.6" y2="643.05"/>
		<line class="st5" x1="641.4" y1="379.35" x2="596.8" y2="639.15"/>
		<line class="st5" x1="626.8" y1="376.65" x2="571.2" y2="634.25"/>
		<line class="st5" x1="612.3" y1="373.25" x2="545.9" y2="628.25"/>
		<line class="st5" x1="598" y1="369.15" x2="520.8" y2="621.05"/>
		<line class="st5" x1="583.9" y1="364.55" x2="496.1" y2="612.95"/>
		<line class="st5" x1="570" y1="359.35" x2="471.8" y2="603.75"/>
		<line class="st5" x1="556.3" y1="353.55" x2="447.8" y2="593.55"/>
		<line class="st5" x1="542.9" y1="347.15" x2="424.3" y2="582.35"/>
		<line class="st5" x1="529.7" y1="340.15" x2="401.2" y2="570.05"/>
		<line class="st5" x1="516.9" y1="332.65" x2="378.8" y2="556.95"/>
		<line class="st5" x1="504.4" y1="324.55" x2="356.9" y2="542.75"/>
		<line class="st5" x1="492.3" y1="316.05" x2="335.7" y2="527.75"/>
		<line class="st5" x1="480.5" y1="306.95" x2="315.1" y2="511.85"/>
		<line class="st5" x1="469.1" y1="297.35" x2="295.1" y2="495.05"/>
		<line class="st5" x1="458.2" y1="287.35" x2="276" y2="477.45"/>
		<line class="st5" x1="447.6" y1="276.85" x2="257.5" y2="459.05"/>
		<line class="st5" x1="437.6" y1="265.85" x2="239.9" y2="439.85"/>
		<line class="st5" x1="428" y1="254.55" x2="223.2" y2="419.95"/>
		<line class="st5" x1="418.9" y1="242.75" x2="207.2" y2="399.35"/>
		<line class="st5" x1="410.2" y1="230.65" x2="192.2" y2="378.05"/>
		<line class="st5" x1="402.1" y1="218.15" x2="178" y2="356.15"/>
		<line class="st5" x1="394.6" y1="205.35" x2="164.9" y2="333.65"/>
		<line class="st5" x1="387.6" y1="192.25" x2="152.7" y2="310.65"/>
		<line class="st5" x1="381.1" y1="178.85" x2="141.4" y2="287.15"/>
		<line class="st5" x1="375.3" y1="165.15" x2="131.2" y2="263.25"/>
		<line class="st5" x1="370" y1="151.25" x2="122" y2="238.85"/>
		<line class="st5" x1="365.4" y1="137.15" x2="113.9" y2="214.15"/>
		<line class="st5" x1="361.3" y1="122.85" x2="106.8" y2="189.15"/>
		<line class="st5" x1="357.9" y1="108.35" x2="100.8" y2="163.75"/>
		<line class="st5" x1="355" y1="93.75" x2="95.8" y2="138.25"/>
		<line class="st5" x1="352.8" y1="79.05" x2="91.9" y2="112.45"/>
		<line class="st5" x1="351.3" y1="64.25" x2="89.2" y2="86.55"/>
		<line class="st5" x1="350.3" y1="49.35" x2="87.5" y2="60.55"/>
		<line class="st5" x1="350" y1="34.45" x2="87" y2="34.45"/>
	</g>
	<g transform="matrix(1,0,0,1,632.2490234375,388.7919921875)">
		<text transform="matrix(0.1567 0.9876 -0.9876 0.1567 -587.3973 -262.6557)" class="st6 st7 st8">S</text>
		<text transform="matrix(0.178 0.984 -0.984 0.178 -584.1104 -241.9991)" class="st6 st7 st9">e</text>
		<text transform="matrix(0.2097 0.9778 -0.9778 0.2097 -580.5148 -222.5648)" class="st6 st7 st10">c</text>
		<text transform="matrix(0.2411 0.9705 -0.9705 0.2411 -576.7375 -204.8531)" class="st6 st7 st9">u</text>
		<text transform="matrix(0.2618 0.9651 -0.9651 0.2618 -571.7623 -185.0199)" class="st6 st7 st9">r</text>
		<text transform="matrix(0.2824 0.9593 -0.9593 0.2824 -568.2759 -172.2765)" class="st6 st7 st9">i</text>
		<text transform="matrix(0.2926 0.9562 -0.9562 0.2926 -565.7356 -163.6422)" class="st6 st7 st11">t</text>
		<text transform="matrix(0.3229 0.9464 -0.9464 0.3229 -562.0824 -151.5442)" class="st6 st7 st12">y</text>
	</g>
	<g transform="matrix(1,0,0,1,632.2490234375,388.7919921875)">
		<text transform="matrix(0.6776 0.7354 -0.7354 0.6776 -428.6047 83.2154)" class="st6 st7 st9">D</text>
		<text transform="matrix(0.6999 0.7143 -0.7143 0.6999 -412.249 100.9948)" class="st6 st7 st13">a</text>
		<text transform="matrix(0.7144 0.6998 -0.6998 0.7144 -398.7726 114.704)" class="st6 st7 st14">t</text>
		<text transform="matrix(0.7285 0.685 -0.685 0.7285 -389.7382 123.5377)" class="st6 st7 st12">a</text>
		<text transform="matrix(0.7627 0.6468 -0.6468 0.7627 -369.3861 142.3607)" class="st6 st7 st15">&amp;</text>
		<text transform="matrix(0.7949 0.6068 -0.6068 0.7949 -343.7232 163.8656)" class="st6 st7 st16">A</text>
		<text transform="matrix(0.8072 0.5903 -0.5903 0.8072 -325.3434 177.8186)" class="st6 st7 st9">I</text>
		<text transform="matrix(0.8192 0.5736 -0.5736 0.8192 -313.6746 186.2556)" class="st6 st7 st17">.</text>
		<text transform="matrix(0.8365 0.5479 -0.5479 0.8365 -298.6063 196.6185)" class="st6 st7 st18">I</text>
		<text transform="matrix(0.8531 0.5217 -0.5217 0.8531 -286.5788 204.54)" class="st6 st7 st9">A</text>
	</g>
	<g transform="matrix(1,0,0,1,632.2490234375,388.7919921875)">
		<text transform="matrix(0.9319 0.3626 -0.3626 0.9319 -179.4108 259.5575)" class="st6 st7 st19">P</text>
		<text transform="matrix(0.943 0.3329 -0.3329 0.943 -159.0394 267.365)" class="st6 st7 st16">u</text>
		<text transform="matrix(0.9531 0.3027 -0.3027 0.9531 -139.7253 274.0779)" class="st6 st7 st9">b</text>
		<text transform="matrix(0.9623 0.272 -0.272 0.9623 -119.7954 280.3049)" class="st6 st7 st9">l</text>
		<text transform="matrix(0.9651 0.2617 -0.2617 0.9651 -110.3767 282.9814)" class="st6 st7 st20">i</text>
		<text transform="matrix(0.9705 0.241 -0.241 0.9705 -101.704 285.3921)" class="st6 st7 st9">c</text>
		<text transform="matrix(0.98 0.1991 -0.1991 0.98 -75.8542 291.6885)" class="st6 st7 st9">C</text>
		<text transform="matrix(0.984 0.178 -0.178 0.984 -53.93 296.0569)" class="st6 st7 st9">l</text>
		<text transform="matrix(0.9876 0.1567 -0.1567 0.9876 -44.2964 297.8092)" class="st6 st7 st8">o</text>
		<text transform="matrix(0.9922 0.1246 -0.1246 0.9922 -24.3748 300.9091)" class="st6 st7 st9">u</text>
		<text transform="matrix(0.9957 0.0922 -0.0922 0.9957 -4.082 303.43)" class="st6 st7 st18">d</text>
	</g>
	<g transform="matrix(1,0,0,1,632.2490234375,388.7919921875)">
		<text transform="matrix(0.9999 -0.0163 0.0163 0.9999 64.495 307.3397)" class="st6 st7 st10">H</text>
		<text transform="matrix(0.9988 -0.0489 0.0489 0.9988 89.9445 306.9122)" class="st6 st7 st9">P</text>
		<text transform="matrix(0.9967 -0.0814 0.0814 0.9967 111.735 305.8334)" class="st6 st7 st9">S</text>
		<text transform="matrix(0.9947 -0.103 0.103 0.9947 132.5754 304.061)" class="st6 st7 st9">,</text>
		<text transform="matrix(0.9893 -0.146 0.146 0.9893 150.7704 302.179)" class="st6 st7 st9">C</text>
		<text transform="matrix(0.984 -0.178 0.178 0.984 172.9024 299.0014)" class="st6 st7 st9">C</text>
		<text transform="matrix(0.9778 -0.2097 0.2097 0.9778 194.9138 295.0752)" class="st6 st7 st10">B</text>
		<text transform="matrix(0.9705 -0.241 0.241 0.9705 217.8954 290.1257)" class="st6 st7 st9">AA</text>
		<text transform="matrix(0.9623 -0.272 0.272 0.9623 263.2457 278.8578)" class="st6 st7 st9">S</text>
	</g>
	<g transform="matrix(1,0,0,1,632.2490234375,388.7919921875)">
		<text transform="matrix(0.7355 -0.6775 0.6775 0.7355 507.2209 140.0392)" class="st6 st7 st9">A</text>
		<text transform="matrix(0.7144 -0.6998 0.6998 0.7144 524.1597 124.3666)" class="st6 st7 st14">u</text>
		<text transform="matrix(0.6925 -0.7214 0.7214 0.6925 538.7309 110.0209)" class="st6 st7 st9">t</text>
		<text transform="matrix(0.6776 -0.7354 0.7354 0.6776 547.5226 100.9437)" class="st6 st7 st9">o</text>
		<text transform="matrix(0.6469 -0.7626 0.7626 0.6469 561.2776 86.1964)" class="st6 st7 st9">m</text>
		<text transform="matrix(0.615 -0.7885 0.7885 0.615 581.5734 62.1972)" class="st6 st7 st9">a</text>
		<text transform="matrix(0.5987 -0.801 0.801 0.5987 593.3984 47.0407)" class="st6 st7 st9">t</text>
		<text transform="matrix(0.5904 -0.8071 0.8071 0.5904 600.9445 36.9049)" class="st6 st7 st9">i</text>
		<text transform="matrix(0.5652 -0.825 0.825 0.5652 606.3187 29.6826)" class="st6 st7 st21">o</text>
		<text transform="matrix(0.5394 -0.8421 0.8421 0.5394 617.7833 13.096)" class="st6 st7 st13">n</text>
		<text transform="matrix(0.504 -0.8637 0.8637 0.504 633.3153 -11.3286)" class="st6 st7 st9">F</text>
		<text transform="matrix(0.4768 -0.879 0.879 0.4768 643.5011 -28.6873)" class="st6 st7 st9">o</text>
		<text transform="matrix(0.4491 -0.8935 0.8935 0.4491 653.1709 -46.3796)" class="st6 st7 st9">u</text>
		<text transform="matrix(0.4208 -0.9071 0.9071 0.4208 662.4163 -64.6206)" class="st6 st7 st20">n</text>
		<text transform="matrix(0.392 -0.92 0.92 0.392 671.0945 -83.1386)" class="st6 st7 st10">d</text>
		<text transform="matrix(0.3627 -0.9319 0.9319 0.3627 679.3475 -102.3207)" class="st6 st7 st9">a</text>
		<text transform="matrix(0.3429 -0.9394 0.9394 0.3429 686.329 -120.2334)" class="st6 st7 st9">t</text>
		<text transform="matrix(0.3229 -0.9464 0.9464 0.3229 693.6962 -140.0909)" class="st6 st7 st12">o</text>
		<text transform="matrix(0.3229 -0.9464 0.9464 0.3229 690.6962 -132.0909)" class="st6 st7 st12">i</text>
		<text transform="matrix(0.2926 -0.9562 0.9562 0.2926 700.1754 -159.1827)" class="st6 st7 st11">n</text>
	</g>
	<g transform="matrix(1,0,0,1,705.7119750976562,223.95999145507812)">
		<text transform="matrix(1 0 0 1 -203.6281 -3.006250e-05)" class="st22 st23 st24">Total instances of </text>
		<text transform="matrix(1 0 0 1 -196.7115 54)" class="st22 st23 st24">universal pattern </text>
		<text transform="matrix(1 0 0 1 -100.2798 108)" class="st22 st23 st24">adoption</text>
	</g>
	<text transform="matrix(1 0 0 1 542.3225 160.74)" class="st22 st25 st26 st27">679</text>
	<g>
		<path class="st28" d="M350,34.45c0,0-43.3,0-94.7,0"/>
		<path class="st28" d="M350.3,49.35c0,0-101.8,4.3-178.7,7.6"/>
		<path class="st28" d="M351.3,64.25c0,0-69.1,5.9-136.3,11.6"/>
		<path class="st28" d="M352.8,79.05c0,0-37.2,4.8-83.5,10.7"/>
		<path class="st28" d="M355,93.75c0,0-100.4,17.2-176.3,30.2"/>
		<path class="st28" d="M357.9,108.35c0,0-31.3,6.7-72,15.5"/>
		<path class="st28" d="M361.3,122.85c0,0-41.9,10.9-91.6,23.9"/>
		<path class="st28" d="M365.4,137.15c0,0-41.4,12.7-90.5,27.7"/>
		<path class="st28" d="M370,151.25c0,0-30.2,10.7-69.4,24.5"/>
		<path class="st28" d="M375.3,165.15c0,0-40.1,16.1-87.9,35.3"/>
		<path class="st28" d="M381.1,178.85c0,0-69.9,31.6-134.2,60.7"/>
		<path class="st29" d="M402.1,218.15c0,0-113.9,70.1-179.3,110.4"/>
		<path class="st29" d="M410.2,230.65c0,0-35.9,24.2-78.5,53.1"/>
		<path class="st29" d="M418.9,242.75c0,0-50.1,37.1-101.6,75.1"/>
		<path class="st29" d="M428,254.55c0,0-65.9,53.2-122.9,99.2"/>
		<path class="st29" d="M437.6,265.85c0,0-20.1,17.7-47.4,41.7"/>
		<path class="st29" d="M447.6,276.85c0,0-73.7,70.6-129.3,123.9"/>
		<path class="st29" d="M458.2,287.35c0,0-124.4,129.8-167.6,174.9"/>
		<path class="st29" d="M469.1,297.35c0,0-61.5,69.9-111.3,126.5"/>
		<path class="st29" d="M480.5,306.95c0,0-53.2,65.9-99.3,122.9"/>
		<path class="st29" d="M492.3,316.05c0,0-55.3,74.8-100.2,135.5"/>
		<path class="st29" d="M504.4,324.55c0,0-43,63.6-82.6,122.2"/>
		<path class="st29" d="M516.9,332.65c0,0-2,3.3-5.5,9"/>
		<path class="st29" d="M529.7,340.15c0,0-37.5,67.1-71.9,128.8"/>
		<path class="st29" d="M542.9,347.15c0,0-41.9,83.1-75.9,150.5"/>
		<path class="st29" d="M556.3,353.55c0,0-38.3,84.8-69.4,153.6"/>
		<path class="st29" d="M570,359.35c0,0-25.9,64.4-51.1,127.1"/>
		<path class="st29" d="M583.9,364.55c0,0-37.2,105.4-63.2,178.8"/>
		<path class="st30" d="M626.8,376.65c0,0-9.1,42.4-20,92.7"/>
		<path class="st31" d="M670.8,383.05c0,0-1,12.3-2.7,31.5"/>
		<path class="st31" d="M685.6,383.95c0,0-3.6,84.7-6.7,158.1"/>
		<path class="st31" d="M700.5,384.25c0,0,0,3.8,0,10.5"/>
		<path class="st31" d="M715.3,383.95c0,0,0.5,12.3,1.3,31.6"/>
		<path class="st31" d="M730.2,382.95c0,0,1.8,21.7,4.5,52.6"/>
		<path class="st31" d="M744.9,381.45c0,0,0.5,3.8,1.3,10.5"/>
		<path class="st31" d="M759.6,379.25c0,0,13,75.8,25,145.6"/>
		<path class="st31" d="M774.2,376.35c0,0,23.6,109.4,40,185.7"/>
		<path class="st31" d="M788.6,372.95c0,0,1,3.7,2.7,10.2"/>
		<path class="st31" d="M802.9,368.85c0,0,1.1,3.7,3.1,10.1"/>
		<path class="st31" d="M817,364.25c0,0,25.6,72.6,49.2,139.3"/>
		<path class="st31" d="M830.9,358.95c0,0,38.1,94.9,66.9,166.5"/>
		<path class="st32" d="M871,339.65c0,0,8.3,14.8,20.6,36.9"/>
		<path class="st32" d="M883.8,332.15c0,0,22.8,37,49.8,80.9"/>
		<path class="st32" d="M896.2,324.05c0,0,21.1,31.2,47.3,70"/>
		<path class="st32" d="M908.3,315.45c0,0,7.3,9.9,18.8,25.5"/>
		<path class="st32" d="M920,306.35c0,0,20.2,25,46.4,57.5"/>
		<path class="st32" d="M931.4,296.85c0,0,41.3,47,83.7,95.2"/>
		<path class="st32" d="M942.3,286.75c0,0,53.3,55.6,102.3,106.8"/>
		<path class="st32" d="M952.8,276.25c0,0,67.4,64.6,122,117"/>
		<path class="st32" d="M962.8,265.35c0,0,37.2,32.7,79.3,69.8"/>
		<path class="st32" d="M972.3,253.95c0,0,13.2,10.6,32.9,26.5"/>
		<path class="st32" d="M981.4,242.25c0,0,56,41.4,110.4,81.7"/>
		<path class="st32" d="M990,230.15c0,0,63.8,43.1,122.5,82.8"/>
		<path class="st32" d="M998,217.65c0,0,47.6,29.3,99,60.9"/>
		<path class="st32" d="M1005.5,204.95c0,0,54.6,30.5,110.7,61.8"/>
		<path class="st32" d="M1012.5,191.85c0,0,49.9,25.2,103.8,52.3"/>
		<path class="st32" d="M1018.9,178.45c0,0,11.2,5.1,28.9,13.1"/>
		<path class="st32" d="M1024.7,164.75c0,0,40.3,16.2,88.2,35.5"/>
		<path class="st32" d="M1030,150.95c0,0,41,14.5,89.6,31.7"/>
		<path class="st32" d="M1034.6,136.85c0,0,3.7,1.1,10.1,3.1"/>
		<path class="st32" d="M1038.6,122.55c0,0,67.4,17.5,132.9,34.6"/>
		<path class="st32" d="M1042.1,108.15c0,0,36.8,7.9,82.6,17.8"/>
		<path class="st32" d="M1044.9,93.55c0,0,3.8,0.6,10.4,1.8"/>
		<path class="st32" d="M1047,78.85c0,0,69,8.8,136.2,17.5"/>
		<path class="st32" d="M1048.6,64.15c0,0,7.9,0.7,21.1,1.8"/>
		<path class="st32" d="M1049.5,49.35c0,0,3.8,0.2,10.6,0.4"/>
		<path class="st32" d="M1049.8,34.55c0,0,32.1,0,74,0"/>
	</g>
</g>
</svg>
