<?xml version="1.0" encoding="UTF-8"?>
<svg width="40px" height="33px" viewBox="0 0 40 33" version="1.1" xmlns="http://www.w3.org/2000/svg" xmlns:xlink="http://www.w3.org/1999/xlink">
    <title>GoogleCloud-icon-color</title>
    <g id="2.2" stroke="none" stroke-width="1" fill="none" fill-rule="evenodd">
        <g id="ACM-Overview" transform="translate(-338.000000, -204.000000)" fill-rule="nonzero">
            <g id="GoogleCloud-icon-color" transform="translate(338.000000, 204.000000)">
                <path d="M26.3822235,9.204223 L27.6272358,9.204223 L31.1766128,5.5908511 L31.3513514,4.06211684 C27.2184602,0.349883881 21.4958603,-0.927158804 16.216574,0.684673567 C10.9372878,2.29650594 6.84948444,6.56878788 5.40540541,11.9837398 C5.80064332,11.8186034 6.23855011,11.7917184 6.65041765,11.9073031 L13.7491717,10.7162802 C13.7491717,10.7162802 14.10957,10.107566 14.2952297,10.1464792 C17.4500902,6.61635552 22.7616581,6.20312592 26.4067961,9.204223 L26.3822235,9.204223 Z" id="Path" fill="#EA4335"></path>
                <path d="M35.1201108,11.9874989 C34.3366658,9.0379546 32.72743,6.38622782 30.4898797,4.35772358 L25.7035144,9.24898326 C27.7248187,10.936282 28.8763669,13.4779542 28.8275099,16.1441983 L28.8275099,17.011462 C31.1508688,17.0531221 33.0129813,18.9892044 33.0129813,21.3631952 C33.0129813,23.737186 31.1508688,25.6732682 28.8275099,25.7149284 L20.307045,25.7149284 L19.4594595,26.5955964 L19.4594595,31.8152635 L20.308357,32.6825272 L28.8275099,32.6825272 C33.7133188,32.7242779 38.049064,29.4912183 39.4996312,24.7245862 C40.9501984,19.9579542 39.17307,14.7832786 35.125359,11.9874989 L35.1201108,11.9874989 Z" id="Path" fill="#4285F4"></path>
                <path d="M10.98112,32.6828455 L19.4594595,32.6828455 L19.4594595,25.4663102 L10.98112,25.4663102 C10.3752465,25.4655257 9.77665721,25.3258851 9.22617035,25.0569106 L8.03531165,25.4496566 L4.61681594,29.0579243 L4.32432432,30.3235936 C6.24031468,31.8635268 8.57897861,32.6923786 10.98112,32.6828455 Z" id="Path" fill="#34A853"></path>
                <path d="M11.3990556,9.80487805 C6.50223565,9.83404657 2.16420047,12.9918492 0.600772598,17.6654355 C-0.962655272,22.3390218 0.593639009,27.4967332 4.47471675,30.504065 L9.58922349,25.3545949 C7.80894456,24.5372809 6.77683863,22.6357633 7.05483843,20.6853282 C7.33283824,18.7348932 8.85438105,17.2025421 10.7910589,16.9225676 C12.7277368,16.642593 14.6158423,17.6820305 15.4273915,19.4749556 L20.5405405,14.324118 C18.3629836,11.4606536 14.9803477,9.78843822 11.3990556,9.80487805 Z" id="Path" fill="#FBBC05"></path>
            </g>
        </g>
    </g>
</svg>