<?xml version="1.0" encoding="UTF-8"?>
<svg width="45px" height="24px" viewBox="0 0 45 24" version="1.1" xmlns="http://www.w3.org/2000/svg" xmlns:xlink="http://www.w3.org/1999/xlink">
    <title>Java logo</title>
    <g id="*Fidelity*-Delivery" stroke="none" stroke-width="1" fill="none" fill-rule="evenodd">
        <g id="A08" transform="translate(-352.000000, -579.000000)" fill="#FFFFFF">
            <g id="modal" transform="translate(336.000000, 207.000000)">
                <g id="Java-logo" transform="translate(16.000000, 372.000000)">
                    <path d="M29.0743037,17.6846314 C29.0683231,17.8503794 28.6778754,18.0716616 28.5497197,18.1528268 C27.9610579,18.5244784 27.1160847,18.772246 26.5641609,18.2203222 C26.0301788,17.6871945 26.1805481,16.6901432 26.7563944,16.3381422 C27.0460263,16.1621417 27.4210953,16.0801221 27.8149604,16.047656 C28.1293691,16.0211705 28.773565,15.9639276 29.0683231,15.9981024 L29.0743037,17.6846314 Z M25.0946422,12.5404618 L25.3253225,13.4478041 C25.713207,13.3538233 25.9473048,13.2171239 26.5316947,13.1017838 C26.9870746,13.0137835 27.4817556,12.9633756 27.9696016,13.0257447 C28.4608651,13.0889682 28.7342639,13.272658 28.9034295,13.6366202 C28.9888666,13.8211644 29.0350026,14.0373203 29.058925,14.2645831 L29.0529444,14.998488 C29.0204783,15.0155755 27.5842802,15.1061388 27.3783767,15.1326243 C25.945596,15.3163142 24.5025629,16.0955008 24.7264082,17.8965155 C24.8656707,19.0174506 25.4697112,19.5275103 26.6026076,19.6642097 C27.2228811,19.7393943 27.6329793,19.6676271 28.1464565,19.4506168 C28.3634668,19.3583447 28.5650984,19.2532571 28.7479339,19.1370626 C28.9931384,18.9849845 29.2075856,18.7654111 29.2571392,18.7372168 L29.4092173,19.5070053 L30.5720166,19.5070053 C30.5933759,19.2720532 30.5762884,16.3911132 30.5762884,16.0715784 C30.5762884,15.4965865 30.5762884,14.9241577 30.5762884,14.3491659 C30.5762884,13.7929701 30.5344242,13.3538233 30.273841,12.941162 C29.4861107,11.6860905 27.7722419,11.7458965 26.3565486,12.0867907 C26.0404313,12.1628297 25.2885845,12.3704419 25.0946422,12.5404618 L25.0946422,12.5404618 Z" id="Fill-1"></path>
                    <path d="M43.0560899,17.7794666 C42.9561285,17.8358551 42.8510408,17.9375253 42.7357007,18.0212537 C42.4084765,18.2570601 42.0009414,18.4757792 41.5686295,18.5296046 C40.2870726,18.6876633 39.9854795,17.3668053 40.3972864,16.685017 C40.8372877,15.957947 42.2333304,15.9981024 43.0603618,15.9938306 L43.0560899,17.7794666 Z M39.0849721,12.5404618 C39.0926615,12.6822875 39.2678076,13.3410077 39.3250505,13.4443867 C39.5412064,13.4008137 40.0162369,13.2008908 40.5356946,13.0992207 C41.2901044,12.9497057 42.5297972,12.8249675 42.8920506,13.6374746 C43.0407112,13.9706794 43.1475076,14.8891285 43.0432743,14.9942162 C42.9774878,15.042061 42.3486705,15.0471872 42.2034274,15.0565853 C41.3712697,15.1087019 40.6826465,15.1719254 39.9615571,15.5521206 C39.195186,15.9536751 38.5586794,16.6576771 38.7158837,17.9007873 C38.8602725,19.0302662 39.4634586,19.5232384 40.5929375,19.6642097 C41.422532,19.768443 42.0744173,19.5539958 42.7391182,19.1362082 C43.02875,18.9542271 43.1509251,18.7961684 43.2491778,18.7312362 L43.3952753,19.5052966 L44.5649096,19.5070053 L44.5649096,14.3491659 C44.5649096,13.7681934 44.5196279,13.362367 44.2556272,12.9283464 C43.493528,11.6801099 41.7335231,11.762984 40.3494417,12.0859363 C40.0256349,12.161121 39.2866038,12.3678788 39.0849721,12.5404618 L39.0849721,12.5404618 Z" id="Fill-2"></path>
                    <path d="M33.8211906,19.5215297 L35.6862831,19.522384 C35.7477979,19.5070053 35.8785167,19.2062667 35.9152546,19.1344995 C35.9853131,18.9892563 36.0408472,18.8576832 36.1066338,18.7141488 C36.2322264,18.44075 36.3475665,18.1365938 36.456926,17.8452532 C36.9071797,16.6388809 37.2711419,15.3231491 37.5812787,14.0655146 C37.6573177,13.7553778 38.0161537,12.2593737 38.0161537,12.0457809 L36.6226741,12.0440721 C36.3176635,12.0406546 36.4415474,12.0022079 36.3595277,12.6233358 C36.2757993,13.2666774 36.1408087,13.9108734 35.9853131,14.517477 C35.8708273,14.9608957 35.0813883,17.7769035 34.9233296,17.9580302 L34.5251926,16.4500649 C34.3756776,15.9476945 34.2389782,15.4649748 34.0826282,14.9720025 L33.394005,12.7839576 C33.3162572,12.5378987 33.2410725,12.273898 33.1505091,12.048344 L31.5024269,12.0440721 C31.5092619,12.1901696 32.5849154,15.5521206 32.6575369,15.7896359 C32.8548967,16.42956 33.0454215,17.0173674 33.2393638,17.647039 C33.4281798,18.2664582 33.649462,18.9072367 33.8211906,19.5215297" id="Fill-3"></path>
                    <path d="M21.9719152,11.8868678 L21.9727695,18.3595847 C21.9727695,19.5625395 21.5797587,20.9346598 20.3725321,21.3285249 C20.4434449,21.4754768 20.9629027,22.0086045 21.1013108,22.2153623 C21.5105547,22.1427408 22.1111777,21.7685262 22.3375861,21.5532246 C22.6836064,21.2268548 22.8971993,20.9722521 23.1526563,20.4493769 C23.6644247,19.4070439 23.582405,18.3023418 23.582405,17.0523966 C23.582405,14.4986808 23.596075,11.9406932 23.582405,9.38697739 C23.393589,9.35280254 22.2888869,9.37501619 21.9710608,9.37587056 L21.9719152,11.8868678" id="Fill-4"></path>
                    <path d="M8.78896612,13.0026767 L8.28232394,12.2662086 C8.11572154,12.0244216 7.95253662,11.7552946 7.79789542,11.487022 C7.51338978,10.992341 7.17249563,10.3643781 7.01614568,9.7406871 C6.7299313,8.59924706 7.43564199,7.89182763 8.05762429,7.14339838 C8.15160513,7.02891262 8.26181903,6.92297058 8.36348921,6.8153198 C9.01537451,6.12925965 9.90733814,5.30820884 10.601942,4.63154678 C11.3085071,3.9403604 11.733984,3.17655246 11.816858,2.05903481 C11.8612853,1.47464485 11.7485083,0.225554021 11.3358469,0 C11.4588764,0.875730575 11.4870707,1.47122737 11.1325066,2.3512298 C10.721554,3.37391223 10.0525813,3.98478771 9.27681212,4.58968258 C8.64201425,5.08350919 7.60395313,5.97376408 7.05630114,6.48980434 C6.70259142,6.82557225 6.10367714,7.42704964 5.8550551,8.01314835 C5.48852981,8.88033521 5.85249198,9.44763775 6.24550278,10.0542414 C6.43261009,10.3430189 6.62228052,10.5899322 6.8222034,10.8488067 C7.05544676,11.1503997 7.26305899,11.3588663 7.44931193,11.5955272 C7.64581733,11.8450036 7.88931315,12.0756838 8.10376034,12.3140534 C8.23789663,12.4610053 8.65653857,12.9104046 8.78896612,13.0026767" id="Fill-5"></path>
                    <path d="M16.3142685,20.5202897 C16.5628905,20.9218442 16.3168316,21.0910097 15.9776462,21.2507772 C14.4671177,21.9573422 9.36139488,22.0897698 7.76713805,22.1128378 C6.14126948,22.1367602 4.50343971,22.071828 2.93395965,21.7967204 C2.679357,21.7531475 1.56013061,21.5745839 1.50801396,21.278117 C1.47383911,21.0910097 1.67205325,20.9508928 1.77372343,20.886815 C2.13512249,20.6621153 2.79726024,20.5074741 3.25178577,20.4246001 C3.38335895,20.4015321 3.70203944,20.3673572 3.80029214,20.3272018 C3.03990169,20.2144248 0.629720274,20.6219599 0.101718816,21.3720979 C-0.230631617,21.8437108 0.326418466,22.0624299 0.697215607,22.1837506 C2.08642333,22.6374218 4.97847015,22.7288395 6.50352291,22.7510531 C8.78298552,22.7818105 14.2680492,22.7595969 16.2783849,21.3780785 C16.3954337,21.2986219 16.626114,21.1303108 16.6500364,20.9671259 C16.6782306,20.7637855 16.4372979,20.5724063 16.3142685,20.5202897" id="Fill-6"></path>
                    <path d="M9.73646388,13.9313783 C9.97825096,13.8485043 10.6933597,13.2615512 10.8864476,13.0650458 C11.1384872,12.8027538 11.5690903,12.3174709 11.6058283,11.7570034 C11.6391487,11.2477981 11.2880021,10.5839516 11.073555,10.2592905 C10.3951841,9.23148181 9.85351275,8.64281999 10.7711075,7.50223432 C11.0786812,7.12289346 11.4110316,6.82557225 11.8006249,6.50432865 C12.2662573,6.1190072 13.0283565,5.59271448 13.5751541,5.25011159 L14.1971364,4.85026583 C13.8673491,4.89383876 12.995036,5.24242225 12.6515787,5.37057794 C12.1893639,5.54486969 11.6562362,5.81057916 11.2521186,6.04296815 C9.86632832,6.84351405 8.5036061,8.09773111 9.06065619,9.83125046 C9.4382883,11.0034479 10.5370098,11.7057411 10.4575533,12.5848891 C10.4097085,13.1231431 9.89195945,13.6622513 9.73646388,13.9313783" id="Fill-7"></path>
                    <path d="M12.6293651,19.6659184 C12.2038882,19.5044422 11.8834989,19.3173349 11.5024493,19.0917809 C11.2820215,18.9593533 11.3666043,18.9704602 11.0846618,19.0405186 C9.93211491,19.3241699 8.06189615,19.3284417 6.85125203,19.2917038 C6.54026087,19.2814513 5.6645303,19.2541114 5.48767544,18.9610621 C5.3757528,18.7765179 5.52868526,18.6423816 5.58849126,18.5372939 C4.79478032,18.6970614 3.98739945,19.3557816 5.09039279,19.904288 C6.33179428,20.5202897 8.94104421,20.5271247 10.2994946,20.2853376 C10.6865248,20.2169879 12.4448209,19.8162878 12.6293651,19.6659184" id="Fill-8"></path>
                    <path d="M12.9967447,17.0771734 C12.6686662,16.9942994 12.3739081,16.7892503 12.1731308,16.6132498 C11.9971303,16.4628804 12.0577907,16.5004728 11.6801586,16.5636962 C10.323417,16.7892503 6.28309512,17.1848242 5.12627639,16.708085 C4.97676141,16.6457159 4.80332404,16.5534438 4.79307158,16.3765889 C4.78025601,16.167268 4.95796524,16.0536366 5.03229554,15.9391508 C4.10273958,16.054491 3.20992158,16.9515808 4.45559492,17.3796208 C5.86018133,17.8606319 8.88978193,17.8768649 10.3832229,17.6880489 C10.8753408,17.6256798 12.619967,17.28564 12.9967447,17.0771734" id="Fill-9"></path>
                    <path d="M13.9314269,14.0279222 C13.7545721,14.0356116 13.5179112,14.0902914 13.3393476,14.11934 C13.1317354,14.1500973 12.9343756,14.1800003 12.7276178,14.2073402 C11.4845075,14.381632 10.1055523,14.5226032 8.8607333,14.5952248 C7.88931315,14.6524677 4.22320593,14.7737884 3.67555393,14.2628744 C3.63539848,14.0339028 3.89854484,13.8895141 4.05916664,13.8015139 C4.68798391,13.4640372 5.35610226,13.3504058 5.97552145,13.1564635 C5.12029579,13.077007 2.96984324,13.6921543 2.191511,14.1782916 C1.35080965,14.7020212 2.75283294,14.9113422 3.27656254,14.9839637 C6.34546422,15.4111494 9.21529739,15.1821779 12.2500242,14.7507204 C12.7447052,14.6815163 12.8506472,14.7097105 13.1872695,14.4952633 C13.4205129,14.3466027 13.7255234,14.1911072 13.9314269,14.0279222" id="Fill-10"></path>
                    <path d="M3.3252617,23.2688021 C4.18219611,23.6284925 6.04814301,23.8480659 7.01700006,23.926668 C8.37801352,24.0385907 9.87230891,24.0121052 11.2341768,23.9164156 C12.995036,23.790823 15.0848282,23.5891914 16.6346577,22.8023154 C17.0037461,22.6143537 17.6675926,22.1649544 17.7316704,21.7343513 C17.6214565,21.7847592 17.5249126,21.885575 17.4215337,21.9547791 C14.6875455,23.8369591 8.43867389,23.6575411 5.21342226,23.4277152 L3.3252617,23.2688021" id="Fill-11"></path>
                    <path d="M14.5508461,13.2940173 C15.2206732,13.0846963 15.981918,13.2239589 16.4065406,13.6007366 C16.8653379,14.0099805 16.8704642,14.7848952 16.5398225,15.3855182 C16.0972582,16.1869185 15.1685566,16.9011729 14.3996224,17.3838927 C14.2680492,17.4667667 14.1398935,17.5299902 14.0254078,17.6145729 C14.5217975,17.5616019 15.6974124,17.030183 16.1451029,16.754221 C16.7166773,16.4013657 17.3540383,15.8870342 17.6171847,15.2197702 C17.9922537,14.2722724 17.4463104,13.5494743 16.8644836,13.2077258 C16.52957,13.0120748 16.1263068,12.8941715 15.6555482,12.9138221 C15.2958579,12.9283464 14.7131767,13.0718808 14.5508461,13.2940173" id="Fill-12"></path>
                </g>
            </g>
        </g>
    </g>
</svg>