<?xml version="1.0" encoding="UTF-8"?>
<svg width="62px" height="61px" viewBox="0 0 62 61" version="1.1" xmlns="http://www.w3.org/2000/svg" xmlns:xlink="http://www.w3.org/1999/xlink">
    <!-- Generator: Sketch 57.1 (83088) - https://sketch.com -->
    <title>download (5)</title>
    <desc>Created with Sketch.</desc>
    <g id="May-visual-design" stroke="none" stroke-width="1" fill="none" fill-rule="evenodd">
        <g id="Homepage-1---Modernize-" transform="translate(-188.000000, -2785.000000)" fill-rule="nonzero">
            <g id="download-(5)" transform="translate(188.000000, 2785.000000)">
                <path d="M30.7980917,1.89169763 C30.2832102,1.91825141 29.7787356,2.04894567 29.3142631,2.27611323 L9.06634718,12.1807799 C8.00474888,12.6998211 7.23367493,13.6814547 6.97137809,14.8478288 L1.97608096,37.0962127 C1.74303868,38.1318452 1.93265975,39.219159 2.50176541,40.1105612 C2.57006839,40.218422 2.6435276,40.3228251 2.7218796,40.423396 L16.7366798,58.2629307 C17.4715367,59.1980252 18.5857198,59.742268 19.7638972,59.742268 L42.2388499,59.7369657 C43.4165867,59.7378444 44.5306912,59.1943807 45.2660673,58.2602796 L59.2756876,40.4180937 C60.0109376,39.4825305 60.2864125,38.2578246 60.0240758,37.0909104 L55.0210099,14.8425265 C54.7587131,13.6761524 53.9876391,12.6945188 52.9260408,12.1754776 L32.6755361,2.27611323 C32.0912997,1.99035446 31.4457357,1.8581722 30.7980917,1.89169763 Z" id="path3055" fill="#326CE5"></path>
                <path d="M30.785081,0.00547273011 C30.2375914,0.0345505784 29.7013712,0.173175814 29.2078134,0.413232636 L7.65095137,10.8534749 C6.5208636,11.4007408 5.70005335,12.4357036 5.42084112,13.6654296 L0.104091145,37.1222153 C-0.144747473,38.2146018 0.0568481617,39.3617663 0.662924393,40.302213 C0.735905106,40.4154366 0.814339601,40.5250091 0.897947722,40.6305392 L15.8167064,59.4404507 C16.5989907,60.4262334 17.7850047,61 19.0391373,61 L42.9645122,60.9947044 C44.2182005,60.995572 45.4041353,60.4225935 46.1869432,59.4378029 L61.1004791,40.6252436 C61.8824159,39.6393621 62.1755493,38.3491271 61.896947,37.1195675 L56.5723629,13.660134 C56.2924292,12.4314003 55.4717179,11.3975366 54.3422527,10.8508271 L32.7853907,0.410584844 C32.1629203,0.109088784 31.4750748,-0.0302169087 30.785081,0.00547273011 Z M30.7955265,1.61533002 C31.4486206,1.58184696 32.0996171,1.71386217 32.68877,1.9992598 L53.1096859,11.8861136 C54.1802177,12.4044989 54.9577804,13.3848919 55.2222845,14.549792 L60.2674519,36.770059 C60.5319963,37.9354985 60.2542032,39.1586567 59.5127659,40.0930375 L45.3852525,57.9126749 C44.6436881,58.8455956 43.5202082,59.3883725 42.3325606,59.3874949 L19.6684776,59.3927905 C18.4803856,59.3927905 17.3568265,58.8492355 16.6157857,57.9153227 L2.48304951,40.0983331 C2.40403817,39.9978893 2.32996079,39.8936182 2.26108303,39.7858937 C1.68718825,38.895618 1.49597149,37.8096783 1.73097485,36.7753546 L6.7683082,14.5550875 C7.03281231,13.3901875 7.81037498,12.4097945 8.88090679,11.8914092 L29.2992113,1.9992598 C29.7675925,1.77237934 30.2763122,1.64185024 30.7955265,1.61533002 Z" id="path3054-2-9" fill="#FFFFFF"></path>
                <path d="M30.6856064,9.43298969 C30.0180524,9.43298969 29.4767829,10.0511237 29.4768623,10.8135278 C29.4768631,10.8252288 29.479193,10.8364099 29.4794409,10.8480413 C29.4784574,10.9516335 29.4735894,11.0764343 29.4768623,11.1666272 C29.4927822,11.6063607 29.5860336,11.942914 29.6421606,12.34805 C29.7438422,13.2151695 29.8290445,13.9339588 29.7764655,14.6020453 C29.7253313,14.8539746 29.5448098,15.0843768 29.383882,15.2445269 L29.3554713,15.7701937 C28.6300744,15.8319713 27.8998251,15.9450965 27.1704338,16.1153285 C24.0318637,16.8478365 21.3296101,18.5096562 19.2722721,20.7534084 C19.1387755,20.6597926 18.9052247,20.4875684 18.8357771,20.4348225 C18.619966,20.4647798 18.4018516,20.5332265 18.1177624,20.3631407 C17.576831,19.9888549 17.0841626,19.4722105 16.488024,18.8498576 C16.2148701,18.5521548 16.0170625,18.2686711 15.6925257,17.981711 C15.6188258,17.9165436 15.5063518,17.8284032 15.4239159,17.7613557 C15.1701928,17.5534193 14.8709351,17.4449769 14.5819274,17.4348051 C14.2103458,17.421727 13.8526361,17.5710622 13.618548,17.8728608 C13.2023921,18.4093917 13.33563,19.2294463 13.9155685,19.7047298 C13.9214531,19.7095468 13.9277195,19.7132917 13.933648,19.7180042 C14.01334,19.7844077 14.1109271,19.8694922 14.1841783,19.925085 C14.5285666,20.1864572 14.8431567,20.3202548 15.1862995,20.5277434 C15.9092318,20.9866609 16.5085516,21.3671842 16.983919,21.825981 C17.1695507,22.0293807 17.2019955,22.3877899 17.226701,22.5427993 L17.614119,22.8985536 C15.5401686,26.106814 14.5803273,30.0696643 15.1475618,34.1074681 L14.6413356,34.2587964 C14.5079151,34.4358971 14.3193832,34.7145646 14.1221914,34.7977376 C13.5002456,34.9991018 12.8002807,35.073046 11.9552334,35.1641114 C11.5584917,35.1980217 11.2161696,35.1777851 10.7955622,35.2596872 C10.7029885,35.2777132 10.5740029,35.3122556 10.4727138,35.3366788 C10.469193,35.3374434 10.4659035,35.3385138 10.4623827,35.3393294 C10.4568617,35.3406462 10.4496084,35.3433988 10.4443032,35.3446392 C9.73185573,35.5215852 9.27417767,36.1947114 9.42151966,36.8579223 C9.56889636,37.5212887 10.2648007,37.9246983 10.9815228,37.7658922 C10.9866966,37.7646773 10.9942095,37.7644734 10.9996023,37.7632415 C11.0076937,37.7613385 11.0148172,37.7573031 11.0228474,37.7552811 C11.1227578,37.7327371 11.2479647,37.7076547 11.3353646,37.6835993 C11.7488865,37.5697894 12.048374,37.4025674 12.420135,37.2561632 C13.2199261,36.9612996 13.8823418,36.7149732 14.5276889,36.6189914 C14.7972227,36.5972918 15.0811995,36.7899369 15.2224585,36.8712052 L15.749347,36.7782843 C16.9618252,40.6423339 19.5027898,43.7655123 22.7202882,45.7252388 L22.5007514,46.2668349 C22.5798813,46.4771373 22.667158,46.7616795 22.6082135,46.9693652 C22.3735989,47.5947452 21.9717347,48.2548356 21.5141268,48.9907445 C21.2925568,49.3307326 21.0657939,49.5945803 20.8658474,49.9836706 C20.8180018,50.0767733 20.7570662,50.2197912 20.7108802,50.3181858 C20.4002152,51.0014345 20.6280955,51.7883706 21.2248547,52.0836827 C21.825363,52.3808495 22.5707527,52.0674272 22.8933349,51.3827937 C22.8938308,51.3818252 22.895459,51.3811116 22.8959136,51.3801431 C22.8962442,51.3793785 22.895583,51.3782316 22.8959136,51.3774925 C22.9418607,51.2804257 23.0069552,51.1528367 23.0457152,51.0615614 C23.216975,50.6582724 23.27396,50.312667 23.3943914,49.9226168 C23.7142123,49.0968302 23.8899286,48.2303708 24.3301933,47.6904671 C24.450752,47.5426236 24.6473025,47.485765 24.8510831,47.429682 L25.1248585,46.9199445 C27.929826,48.0266525 31.0695375,48.3236307 34.2059364,47.5916298 C34.9214278,47.4246424 35.6121658,47.2085239 36.2799141,46.9491482 C36.3568588,47.089439 36.4998543,47.3591216 36.5381928,47.4270271 C36.7452777,47.4962817 36.9713108,47.5320449 37.1554788,47.8119851 C37.484868,48.3904504 37.7101291,49.0747883 37.9845533,49.9013777 C38.1050045,50.2914212 38.1645318,50.6370419 38.3358123,51.0403224 C38.3748508,51.1322408 38.4396196,51.2616215 38.4856139,51.3589083 C38.8075176,52.0457659 39.5552694,52.3602595 40.1566769,52.0624522 C40.7533626,51.7669829 40.9814941,50.9801181 40.6706514,50.2969552 C40.6244596,50.198564 40.5609512,50.0555402 40.5131014,49.96244 C40.3131351,49.5733608 40.0864086,49.3121441 39.864822,48.9721688 C39.4071762,48.2362846 39.0276123,47.6249581 38.7929655,46.999591 C38.6948519,46.6770487 38.8095185,46.4764525 38.8859458,46.2668434 C38.8401764,46.2129157 38.7422346,45.9083204 38.6844885,45.7650706 C42.0282592,43.7356222 44.4946064,40.4959747 45.6528469,36.7543989 C45.8092522,36.7796665 46.0810969,36.829106 46.1694043,36.8473198 C46.3511944,36.7240737 46.5183441,36.5632669 46.8460944,36.5897961 C47.4914456,36.6857432 48.1538423,36.9321469 48.9536483,37.226968 C49.3254167,37.3733527 49.6248918,37.5432711 50.0384187,37.657059 C50.1258194,37.6811092 50.2510238,37.703547 50.3509359,37.7260859 C50.3589694,37.7281079 50.3660855,37.7321518 50.3741809,37.7340463 C50.3795779,37.7352867 50.3870866,37.7354821 50.3922605,37.7366969 C51.1090238,37.895306 51.8050522,37.4921326 51.9522636,36.8287271 C52.0994403,36.1654771 51.6419738,35.4921946 50.9294801,35.315444 C50.8258438,35.2912204 50.6788671,35.2500803 50.5782211,35.2304877 C50.1576095,35.1486086 49.8152932,35.168801 49.4185499,35.134912 C48.5734984,35.0438915 47.8735476,34.9698683 47.2515919,34.7685381 C46.9980027,34.6674164 46.8175986,34.3572446 46.7298648,34.229597 L46.2417181,34.0835784 C46.4948114,32.2014221 46.4265672,30.2425928 45.9886051,28.2826599 C45.546565,26.3044783 44.7653667,24.4952391 43.7235011,22.9012127 C43.8487188,22.7842033 44.0851896,22.5689565 44.1522437,22.5056352 C44.1718448,22.2826956 44.1550042,22.0489504 44.379529,21.8020913 C44.8548725,21.343269 45.4542401,20.9628103 46.1771485,20.5038537 C46.5202806,20.2963464 46.8374774,20.1625862 47.1818525,19.9011953 C47.2597287,19.8420862 47.3660692,19.7484789 47.4478795,19.6808401 C48.0276949,19.2053969 48.1611898,18.3853916 47.7449,17.8489711 C47.3286102,17.3125505 46.5219302,17.2620228 45.9421149,17.737466 C45.8595847,17.8046536 45.7475976,17.8923005 45.6735051,17.9578213 C45.3489831,18.2448001 45.148563,18.5282506 44.875424,18.8259679 C44.2793177,19.4483531 43.786598,19.9675904 43.2456856,20.3419059 C43.0112917,20.4821737 42.6679712,20.4336399 42.5121701,20.4242072 L42.052434,20.7613773 C39.4309014,17.9356842 35.8616258,16.129099 32.0183244,15.7781584 C32.007575,15.6126024 31.9934924,15.3133483 31.9899137,15.2232879 C31.8325736,15.0685273 31.6425045,14.9364025 31.5947473,14.6020453 C31.5421684,13.9339588 31.6299534,13.2151695 31.731635,12.34805 C31.7877621,11.942914 31.8810135,11.6063607 31.8969334,11.1666272 C31.9005534,11.0666651 31.8947432,10.9216125 31.8943547,10.8135278 C31.8942754,10.0511237 31.3531646,9.43298969 30.6856106,9.43298969 L30.6856064,9.43298969 Z M29.1720934,19.0702128 L28.8130861,25.5879497 L28.7872582,25.6012241 C28.7631792,26.1843086 28.2963255,26.6499028 27.7231501,26.6499028 C27.4883595,26.6499028 27.2716427,26.572398 27.095533,26.4401671 L27.0852018,26.4454768 L21.8860523,22.6569593 C23.4839624,21.0418434 25.5278153,19.8482727 27.8832829,19.2985327 C28.3135537,19.1981119 28.7436327,19.1235993 29.1720934,19.0702128 Z M32.2017022,19.0702128 C34.951727,19.417881 37.4949693,20.6978742 39.443836,22.6596142 L34.2782627,26.4242378 L34.2601832,26.4162774 C33.801691,26.7604937 33.1557067,26.6750872 32.7983259,26.2145063 C32.6519278,26.0258219 32.5751137,25.8039646 32.5658751,25.5799893 L32.5607096,25.5773387 L32.2017022,19.0702128 Z M20.000618,25.0914867 L24.7477799,29.4561137 L24.7426143,29.4826626 C25.1710982,29.8655578 25.2342843,30.529998 24.8769192,30.9906359 C24.730531,31.179328 24.5345797,31.3058864 24.3242029,31.3649744 L24.3190373,31.3862134 L18.2339919,33.1915336 C17.9242823,30.2804934 18.591743,27.4507309 20.000618,25.0914867 Z M41.3370187,25.0941373 C42.042355,26.2692997 42.5764711,27.581838 42.894439,29.0047794 C43.2085935,30.4106592 43.287435,31.814025 43.1578833,33.1702903 L37.0418444,31.3596603 L37.0366789,31.3331115 C36.4890041,31.1792524 36.1524211,30.606598 36.2799224,30.032219 C36.3321591,29.7969225 36.4536691,29.5978683 36.6182674,29.4507997 L36.6156888,29.4375253 L41.3370228,25.0941373 L41.3370187,25.0941373 Z M29.7118959,29.7932796 L31.6567342,29.7932796 L32.8654784,31.3463859 L32.4315702,33.2844503 L30.6856064,34.1472871 L28.9344771,33.2817954 L28.5005689,31.343731 L29.7118959,29.7932796 Z M35.9467429,35.1083546 C36.0293896,35.1040643 36.1116759,35.1117189 36.1921076,35.1269388 L36.2024388,35.1136644 L42.4966899,36.207476 C41.5755235,38.8677194 39.812839,41.1723343 37.4576731,42.7145934 L35.0143569,36.6481866 L35.0221011,36.637567 C34.7976582,36.101494 35.0222664,35.4728543 35.5386585,35.2172048 C35.6708682,35.1517537 35.8089948,35.1155113 35.9467387,35.1083546 L35.9467429,35.1083546 Z M25.375397,35.1349035 C25.8557326,35.1418274 26.2865728,35.4845196 26.3981806,35.9871208 C26.4504305,36.2224139 26.4250002,36.4555483 26.3387765,36.661461 L26.356856,36.6853549 L23.9393677,42.6906995 C21.6791475,41.1998363 19.8788741,38.9675744 18.9158476,36.2287194 L25.1558602,35.1402175 L25.1661913,35.1534919 C25.2359894,35.1402888 25.3067776,35.133918 25.375397,35.1349077 L25.375397,35.1349035 Z M30.6468646,37.7658964 C30.8141838,37.7595757 30.9839617,37.7948648 31.1453425,37.8747466 C31.3568838,37.9794577 31.5202994,38.1443289 31.623158,38.3420059 L31.6464031,38.3420059 L34.722502,44.0553134 C34.3232825,44.1928771 33.9128633,44.3104438 33.4930955,44.4084128 C31.1405257,44.9574765 28.7954306,44.7911126 26.671956,44.0473487 L29.7403065,38.3446608 L29.7454721,38.3446608 C29.9295872,37.9908682 30.2787634,37.7797978 30.6468646,37.7658964 Z" id="path3059" fill="#FFFFFF"></path>
            </g>
        </g>
    </g>
</svg>