<?xml version="1.0" encoding="UTF-8"?>
<svg width="40px" height="32px" viewBox="0 0 40 32" version="1.1" xmlns="http://www.w3.org/2000/svg" xmlns:xlink="http://www.w3.org/1999/xlink">
    <title>microsoft-azureicon-seeklogo.com</title>
    <g id="2.2" stroke="none" stroke-width="1" fill="none" fill-rule="evenodd">
        <g id="ACM-Overview" transform="translate(-961.000000, -372.000000)" fill="#0089D6" fill-rule="nonzero">
            <g id="microsoft-azureicon-seeklogo.com" transform="translate(961.000000, 372.000000)">
                <path d="M18.3228689,29.0388795 L27.6644128,27.3887145 L27.7509458,27.3685905 L22.9473557,21.6533849 C21.3373556,19.7469787 19.7361419,17.8331694 18.1437656,15.912018 C18.1437656,15.8838445 23.1043226,2.22369798 23.1324962,2.1753672 C23.1405458,2.1593013 26.5173469,7.98720116 31.3148998,16.3024229 L39.5456009,30.5703131 L39.6079852,30.6789825 L24.339934,30.6769701 L9.0718828,30.6749577 L18.3228689,29.0408919 L18.3228689,29.0388795 Z M0,27.300169 C0,27.2921195 2.26394591,23.3619094 5.0309909,18.5663688 L10.0619818,9.8466554 L15.9240924,4.92634629 C19.1479514,2.22168558 21.7942526,0.00402479272 21.806327,0 C21.7847779,0.0827732303 21.7530059,0.162541136 21.7117443,0.237462771 L15.3445223,13.8915721 L9.09200676,27.300169 L4.54600338,27.3062062 C2.0466071,27.310231 0,27.3062062 0,27.2981566 L0,27.300169 Z" id="Shape"></path>
            </g>
        </g>
    </g>
</svg>