<?xml version="1.0" encoding="UTF-8"?>
<svg width="40px" height="31px" viewBox="0 0 40 31" version="1.1" xmlns="http://www.w3.org/2000/svg" xmlns:xlink="http://www.w3.org/1999/xlink">
    <title>logo</title>
    <g id="2.2" stroke="none" stroke-width="1" fill="none" fill-rule="evenodd">
        <g id="ACM-Overview" transform="translate(-960.000000, -207.000000)" fill-rule="nonzero">
            <g id="logo" transform="translate(960.000000, 207.000000)">
                <g id="Group-5" transform="translate(0.100524, 0.000000)">
                    <path d="M25.5269529,16.6849005 C28.0420524,16.6849005 31.6810052,16.166199 31.6810052,13.1746178 C31.6885247,12.9437349 31.6675924,12.7128044 31.6186806,12.4870366 L30.1208796,5.98115183 C29.7750785,4.54969634 29.4714974,3.90031414 26.9584084,2.64376963 C25.0082513,1.64657592 20.7601257,1.10844667e-12 19.5035812,1.10844667e-12 C18.3334869,1.10844667e-12 17.9937173,1.5078534 16.5984503,1.5078534 C15.2554555,1.5078534 14.2582618,0.381989529 13.0017173,0.381989529 C11.7954346,0.381989529 11.0093403,1.20427225 10.402178,2.89507853 C10.402178,2.89507853 8.71137173,7.66391623 8.49424084,8.35551832 C8.45972978,8.48251942 8.44481442,8.61404578 8.45001047,8.74554974 C8.45001047,10.5992042 15.7480209,16.6768586 25.5269529,16.6768586 M32.0670157,14.3889424 C32.4148272,16.0355183 32.4148272,16.2084188 32.4148272,16.4255497 C32.4148272,19.2402094 29.2503455,20.8023455 25.0906806,20.8023455 C15.6897173,20.808377 7.45482723,15.2996859 7.45482723,11.6587225 C7.45428378,11.1519164 7.5576027,10.6503748 7.75840838,10.1850471 C4.37679581,10.3539267 0,10.9570681 0,14.8211937 C0,21.1501571 14.9961047,28.9507853 26.8699476,28.9507853 C35.9733613,28.9507853 38.2693194,24.8333403 38.2693194,21.5824084 C38.2693194,19.025089 36.057801,16.1219686 32.0710366,14.3889424" id="Shape" fill="#EE0000"></path>
                    <path d="M32.0670157,14.3889424 C32.4148272,16.0355183 32.4148272,16.2084188 32.4148272,16.4255497 C32.4148272,19.2402094 29.2503455,20.8023505 25.0906806,20.8023505 C15.6897173,20.808377 7.45482509,15.2996859 7.45482509,11.6587225 C7.45428378,11.1519164 7.5576027,10.6503748 7.75840838,10.1850471 L8.49424084,8.36356021 C8.46053589,8.48797289 8.44562754,8.61672688 8.45001047,8.74554974 C8.45001047,10.5992042 15.7480209,16.6768586 25.5269529,16.6768586 C28.0420524,16.6768586 31.6810052,16.1581571 31.6810052,13.1665759 C31.6885247,12.935693 31.6675924,12.7047625 31.6186806,12.4789948 L32.0670157,14.3889424 Z" id="Path" fill="#000000"></path>
                </g>
            </g>
        </g>
    </g>
</svg>