<svg xmlns="http://www.w3.org/2000/svg" viewBox="0 0 490.97 75.2"><defs><style>.cls-1{fill:#727175;}.cls-1,.cls-2,.cls-3{fill-rule:evenodd;}.cls-2{fill:#737276;}.cls-3{fill:#fefefe;}</style></defs><g id="Layer_2" data-name="Layer 2"><g id="Layer_1-2" data-name="Layer 1"><path class="cls-1" d="M37.75,49.11c3.68-8.67,7.17-16.89,10.67-25.1,1.44-3.38,2.84-6.79,4.39-10.12C60.4-2.4,80.33-3.85,91.61,7.37c2,2,3,1.48,4.76.09,8.7-6.86,18.35-9.22,29.12-5.79a18.62,18.62,0,0,1,9,5.69c1.68,2,2.62,1.63,4.47.17,9.36-7.4,19.81-9.87,31-5.05,9.2,4,14.13,11.39,14.28,21.48.19,13.26.08,26.51,0,39.77,0,7.31-4.71,11.7-11.83,11.27-5.37-.33-9.15-4.79-9.2-11.21-.09-10.88,0-21.76,0-32.65,0-.88,0-1.76,0-2.63-.41-5.56-3.92-9.38-9.09-10-6-.65-10.6,2.14-12.14,7.33a17.2,17.2,0,0,0-.47,4.95c0,10.8,0,21.6,0,32.4,0,6.07-2.83,10.18-7.72,11.47-6.34,1.67-12-1.9-13.11-8.34a26.4,26.4,0,0,1-.34-4.44c0-10.89,0-21.78,0-32.66,0-4.26-1.48-7.81-5.54-9.68a11.4,11.4,0,0,0-12.19,1.18c-3.19,2.36-4,5.83-4,9.57,0,11.24.05,22.48,0,33.71,0,6.9-4.34,11.06-11,11-6-.09-10-4.65-10-11.53-.05-13.16,0-26.33,0-39.5,0-.7,0-1.41,0-2.11a3,3,0,0,0-2.22-3.18,2.88,2.88,0,0,0-3.61,1.87q-3.24,7.05-6.46,14.1c-4.42,9.64-8.81,19.29-13.29,28.9a38.16,38.16,0,0,1-3.42,5.91c-5.38,7.59-15.88,7.66-21.52.22C24.33,66.14,22.78,62,21,58Q11.11,36.68,1.29,15.29C-1.5,9.23.34,3.59,5.85,1.1,11.61-1.5,17.26,1,19.91,7.26L36.5,46.48C36.8,47.2,37.17,47.89,37.75,49.11Z"/><path class="cls-2" d="M240.38,19.74l-8,23q-4.7,13.39-9.4,26.78c-1.19,3.37-2.89,4.82-5.73,4.93s-5.14-1.41-6.3-4.63Q200,39.47,189.18,9.16C188,5.79,189.17,3,192,2c3.22-1.19,6.15.26,7.43,3.94q8.3,23.82,16.48,47.68c.37,1.06.77,2.11,1.32,3.67,2.66-7.66,5.15-14.82,7.64-22q5-14.4,10-28.79c1.34-3.83,2.67-4.86,5.94-4.81s4.61,1.25,5.9,5q8.08,23.48,16.16,47c.37,1.07.77,2.13,1.31,3.62,2.8-8,5.45-15.56,8.1-23.15q4.89-14,9.77-28c.72-2.08,1.73-3.87,4.14-4.29,4.37-.76,7.42,2.64,6,6.91-1.74,5.24-3.72,10.39-5.59,15.58q-8,22.26-16,44.51c-.15.41-.3.82-.47,1.23-1.26,3-3.37,4.49-6.2,4.4s-4.61-1.53-5.7-4.63c-2.55-7.27-5-14.57-7.57-21.85q-4.56-13.15-9.14-26.31C241.34,21,241.39,20.17,240.38,19.74Z"/><path class="cls-2" d="M344.6,63.22c-5,5.79-10.61,9.53-17.55,10.9-10.5,2.08-20.39.9-28.44-6.85-9.7-9.37-7.52-25.9,4.08-32.84a35.77,35.77,0,0,1,16.56-4.64A70.71,70.71,0,0,1,342.19,32c2.18.59,2.46,0,2.44-2-.05-10.94-6.6-18-17.53-18.76-6.81-.45-13.47.1-19.81,3a4.66,4.66,0,0,1-6.4-2.41,4.46,4.46,0,0,1,2.26-6C315.61.62,328.33-.36,341,4.9c8.48,3.54,12.49,10.75,13.54,19.57,1.1,9.27.31,18.59.47,27.88.09,5.44,0,10.89,0,16.33,0,3.38-1.77,5.47-4.58,5.78a5,5,0,0,1-5.77-5C344.53,67.62,344.6,65.78,344.6,63.22Zm-20-25.65c-5.34.11-10.83.62-15.6,3.93a13,13,0,0,0-.57,21c5.4,4.13,11.63,4.73,18,3.49,8.41-1.63,15.11-5.62,17.72-14.45.84-2.82.35-5.76.53-8.64.1-1.7-.47-2.48-2.19-2.89A86.56,86.56,0,0,0,324.64,37.57Z"/><path class="cls-2" d="M443.36,42.15c-7.81,0-15.62.05-23.43,0-1.95,0-2.4.55-2,2.43,1.88,9.33,6.53,16.6,15.82,19.7,10,3.35,19.21,1,27.22-5.83,1.29-1.11,2.55-2.24,4.36-2.07a4.4,4.4,0,0,1,4,3,4.47,4.47,0,0,1-1.3,5c-5.07,4.94-10.92,8.51-18,9.83-11.89,2.24-22.71.07-31.82-8.27a34,34,0,0,1-10.72-20.6c-1.87-12.51.51-24,9.3-33.51S436.64-.6,449,2.6s19.13,12,22.4,23.9a34.72,34.72,0,0,1,1.23,9.63c-.05,4.34-1.66,6-6.09,6C458.81,42.16,451.09,42.15,443.36,42.15Zm-3.54-8h15.79c7.27,0,7.27,0,5.27-7-3.63-12.64-14.95-19.4-26.69-15.79-9.78,3-15,12.11-16.4,21.32-.28,1.8,1,1.46,2,1.46C426.48,34.12,433.15,34.11,439.82,34.11Z"/><path class="cls-1" d="M378.41,18.14c3.51-6.46,8.08-11.14,14.31-14.06a21.67,21.67,0,0,1,9.87-2.38c2.93.08,4.9,1.78,5.2,4.5.35,3.15-1.11,5.4-4.06,6.13-1.27.31-2.59.43-3.87.74-11.81,2.86-19.68,12.1-21.11,25-1.13,10.14-.26,20.33-.51,30.49-.1,3.93-2.92,6.39-6.48,5.62-2.71-.6-4.12-2.43-4.13-5.57,0-7.72,0-15.44,0-23.15V7.78c0-3.8,2.06-6.28,5.17-6.3,3.32,0,5.43,2.41,5.45,6.32,0,3.16,0,6.32,0,9.48C378.26,17.36,378.29,17.45,378.41,18.14Z"/><path class="cls-2" d="M491,10.3a8.77,8.77,0,1,1-17.53,0,8.71,8.71,0,0,1,8.78-8.89A8.57,8.57,0,0,1,491,10.3Zm-8.7-7a7,7,0,0,0-7.09,6.92,7.26,7.26,0,0,0,7.1,7.27,7.48,7.48,0,0,0,7-7.17A7.06,7.06,0,0,0,482.27,3.29Z"/><path class="cls-2" d="M481.53,5.91c4.27,0,5.26,1.51,3.52,5-.47.93.09,1.28.4,1.82s.61,1.18-.05,1.61-1.16.07-1.58-.47-.65-.83-1-1.21c-.85-.92-1.7-1.71-1.93.4-.08.75-.25,1.46-1.19,1.36s-.81-1-.83-1.63c0-1.23.08-2.46,0-3.68C478.62,6.76,479.06,5.17,481.53,5.91Zm2.41,2.81c-.28-.84-.94-1.06-1.79-1.07s-1.27.3-1.26,1.2.5,1.18,1.31,1.13S483.74,9.73,483.94,8.72Z"/><path class="cls-3" d="M483.94,8.72c-.2,1-.91,1.21-1.74,1.26s-1.31-.19-1.31-1.13.4-1.21,1.26-1.2S483.66,7.88,483.94,8.72Z"/></g></g></svg>