<?xml version="1.0" encoding="UTF-8"?>
<svg width="608px" height="608px" viewBox="0 0 608 608" version="1.1" xmlns="http://www.w3.org/2000/svg" xmlns:xlink="http://www.w3.org/1999/xlink">
    <title>bezierLines</title>
    <g id="bezierLines" stroke="none" stroke-width="1" fill="none" fill-rule="evenodd">
        <rect fill="#FFFFFF" x="0" y="0" width="608" height="608"></rect>
        <g id="Group-2" transform="translate(40.000000, 138.000000)">
            <path id="Path-5" d="M179,43.7018087 C202.955291,43.7018087 218.589552,51.22782 228.589272,65.9509028 C232.830492,72.1954607 236.064728,79.6951786 238.755845,88.9785865 C238.82811,89.2278772 238.899544,89.4763256 238.970223,89.7242534 L239.180075,90.4667971 L239.382092,91.1944187 L239.382092,91.1944187 L239.580643,91.9227168 C241.222017,97.9997576 242.548373,104.337417 244.711728,115.689319 C245.375022,119.169859 245.644808,120.58435 245.873442,121.766167 L245.921934,122.016521 C246.01817,122.512777 246.111471,122.990351 246.229573,123.59356 C251.287155,149.425414 256.265798,164.01703 266.14868,176.413408 C278.644595,192.087388 297.95896,200.714804 326.992077,201.762342 L326.949413,195.80391 L341,202.701809 L327.051329,209.803539 L327.007399,203.764164 C297.372487,202.710448 277.480765,193.835889 264.584839,177.660164 C254.443455,164.93954 249.382656,150.107139 244.266838,123.977841 C244.17806,123.524403 244.103269,123.141823 244.03075,122.76914 L243.958553,122.397498 C243.717529,121.154639 243.458348,119.795975 242.747086,116.063725 C237.682761,89.4893963 234.349918,77.9922573 226.934794,67.0746024 C217.420757,53.0666153 202.618781,45.8469675 179.697085,45.7039754 L179,45.7018087 L179,43.7018087 Z" fill="#666F77" fill-rule="nonzero"></path>
            <g id="Group-4" transform="translate(178.065844, 42.534133)">
                <line x1="61.5679687" y1="1.98390005" x2="1" y2="1.98390005" id="Line-Copy-2" stroke="#78A9FF"></line>
                <rect id="Rectangle" stroke="#6AA9FF" x="61.5679687" y="0" width="4" height="4"></rect>
            </g>
            <g id="Group-4-Copy" transform="translate(291.952346, 202.425918) rotate(180.000000) translate(-291.952346, -202.425918) translate(259.168362, 200.133968)">
                <line x1="61.5679687" y1="1.98390005" x2="1" y2="1.98390005" id="Line-Copy-2" stroke="#78A9FF"></line>
                <rect id="Rectangle" stroke="#6AA9FF" x="61.5679687" y="0" width="4" height="4"></rect>
            </g>
            <g id="node-/-white-theme-/-shape-node-/-low-contrast-/-01-enabled-copy-26">
                <g id="shape" transform="translate(85.444206, 0.000000)" fill="#F4F4F4">
                    <rect id="style" x="0" y="0" width="96" height="96" rx="48"></rect>
                </g>
                <g id="icon" transform="translate(113.444206, 28.000000)" fill="#161616">
                    <path d="M20,12.5 C15.8578644,12.5 12.5,15.8578644 12.5,20 L12.5,30 C12.5,34.1421356 15.8578644,37.5 20,37.5 C24.1421356,37.5 27.5,34.1421356 27.5,30 L27.5,20 C27.5,15.8578644 24.1421356,12.5 20,12.5 Z M14.6875,22.3375 L25.3125,22.3375 L25.3125,27.65 L14.6875,27.65 L14.6875,22.3375 Z M20,35.3125 C17.0716741,35.298816 14.701184,32.9283259 14.6875,30 L14.6875,29.8375 L25.3125,29.8375 L25.3125,30 C25.298816,32.9283259 22.9283259,35.298816 20,35.3125 L20,35.3125 Z M25.3125,20.15 L14.6875,20.15 L14.6875,20 C14.6875,17.0659873 17.0659873,14.6875 20,14.6875 C22.9340127,14.6875 25.3125,17.0659873 25.3125,20 L25.3125,20.15 Z M38.325,24.0125 L30,16.25 L30,27.625 C30,30.3864237 32.2385763,32.625 35,32.625 C37.7614237,32.625 40,30.3864237 40,27.625 C39.9926799,26.2347468 39.3813768,24.9163393 38.325,24.0125 L38.325,24.0125 Z M35,30.4375 C33.4466991,30.4375 32.1875,29.1783009 32.1875,27.625 L32.1875,21.25 L36.8375,25.5875 L36.8375,25.5875 C37.4033534,26.0634873 37.7360125,26.7607041 37.75,27.5 C37.783831,28.2566036 37.5110905,28.9948757 36.9934926,29.5477643 C36.4758947,30.100653 35.7571889,30.4214258 35,30.4375 L35,30.4375 Z M0,27.625 C0,30.3864237 2.23857625,32.625 5,32.625 C7.76142375,32.625 10,30.3864237 10,27.625 L10,16.25 L1.675,24.0125 C0.625297298,24.9213829 0.0154817754,26.2365821 0,27.625 L0,27.625 Z M3.1,25.675 L3.1,25.675 L7.8125,21.25 L7.8125,27.625 C7.8125,29.1783009 6.55330086,30.4375 5,30.4375 C3.44669914,30.4375 2.1875,29.1783009 2.1875,27.625 C2.19061456,26.8725524 2.52428628,26.1595005 3.1,25.675 L3.1,25.675 Z M18.75,6.875 C18.75,4.45875422 16.7912458,2.5 14.375,2.5 C11.9587542,2.5 10,4.45875422 10,6.875 C10,9.29124578 11.9587542,11.25 14.375,11.25 C16.7912458,11.25 18.75,9.29124578 18.75,6.875 Z M12.1875,6.875 C12.1875,5.66687711 13.1668771,4.6875 14.375,4.6875 C15.5831229,4.6875 16.5625,5.66687711 16.5625,6.875 C16.5625,8.08312289 15.5831229,9.0625 14.375,9.0625 C13.1725186,9.0489877 12.2010123,8.07748144 12.1875,6.875 Z M25.625,2.5 C23.2087542,2.5 21.25,4.45875422 21.25,6.875 C21.25,9.29124578 23.2087542,11.25 25.625,11.25 C28.0412458,11.25 30,9.29124578 30,6.875 C30,4.45875422 28.0412458,2.5 25.625,2.5 Z M25.625,9.0625 C24.4168771,9.0625 23.4375,8.08312289 23.4375,6.875 C23.4375,5.66687711 24.4168771,4.6875 25.625,4.6875 C26.8331229,4.6875 27.8125,5.66687711 27.8125,6.875 C27.7989877,8.07748144 26.8274814,9.0489877 25.625,9.0625 L25.625,9.0625 Z" id="Fill"></path>
                </g>
                <g id="group" transform="translate(0.444206, 104.000000)" fill="#161616" font-size="28" letter-spacing="0.319999993" line-spacing="36">
                    <text id="Secondary-text" font-family="IBMPlexSans, IBM Plex Sans" font-weight="normal">
                        <tspan x="29.3580001" y="61.6679077">Secondary text</tspan>
                    </text>
                    <text id="Primary-text" font-family="IBMPlexSans-SemiBold, IBM Plex Sans" font-weight="500">
                        <tspan x="42.53" y="25.0518188">Primary text</tspan>
                    </text>
                </g>
            </g>
            <g id="node-/-white-theme-/-shape-node-/-low-contrast-/-01-enabled-copy-26" transform="translate(262.000000, 155.000000)">
                <g id="shape" transform="translate(85.444206, 0.000000)" fill="#F4F4F4">
                    <rect id="style" x="0" y="0" width="96" height="96" rx="48"></rect>
                </g>
                <g id="icon" transform="translate(113.444206, 28.000000)" fill="#161616">
                    <path d="M20,12.5 C15.8578644,12.5 12.5,15.8578644 12.5,20 L12.5,30 C12.5,34.1421356 15.8578644,37.5 20,37.5 C24.1421356,37.5 27.5,34.1421356 27.5,30 L27.5,20 C27.5,15.8578644 24.1421356,12.5 20,12.5 Z M14.6875,22.3375 L25.3125,22.3375 L25.3125,27.65 L14.6875,27.65 L14.6875,22.3375 Z M20,35.3125 C17.0716741,35.298816 14.701184,32.9283259 14.6875,30 L14.6875,29.8375 L25.3125,29.8375 L25.3125,30 C25.298816,32.9283259 22.9283259,35.298816 20,35.3125 L20,35.3125 Z M25.3125,20.15 L14.6875,20.15 L14.6875,20 C14.6875,17.0659873 17.0659873,14.6875 20,14.6875 C22.9340127,14.6875 25.3125,17.0659873 25.3125,20 L25.3125,20.15 Z M38.325,24.0125 L30,16.25 L30,27.625 C30,30.3864237 32.2385763,32.625 35,32.625 C37.7614237,32.625 40,30.3864237 40,27.625 C39.9926799,26.2347468 39.3813768,24.9163393 38.325,24.0125 L38.325,24.0125 Z M35,30.4375 C33.4466991,30.4375 32.1875,29.1783009 32.1875,27.625 L32.1875,21.25 L36.8375,25.5875 L36.8375,25.5875 C37.4033534,26.0634873 37.7360125,26.7607041 37.75,27.5 C37.783831,28.2566036 37.5110905,28.9948757 36.9934926,29.5477643 C36.4758947,30.100653 35.7571889,30.4214258 35,30.4375 L35,30.4375 Z M0,27.625 C0,30.3864237 2.23857625,32.625 5,32.625 C7.76142375,32.625 10,30.3864237 10,27.625 L10,16.25 L1.675,24.0125 C0.625297298,24.9213829 0.0154817754,26.2365821 0,27.625 L0,27.625 Z M3.1,25.675 L3.1,25.675 L7.8125,21.25 L7.8125,27.625 C7.8125,29.1783009 6.55330086,30.4375 5,30.4375 C3.44669914,30.4375 2.1875,29.1783009 2.1875,27.625 C2.19061456,26.8725524 2.52428628,26.1595005 3.1,25.675 L3.1,25.675 Z M18.75,6.875 C18.75,4.45875422 16.7912458,2.5 14.375,2.5 C11.9587542,2.5 10,4.45875422 10,6.875 C10,9.29124578 11.9587542,11.25 14.375,11.25 C16.7912458,11.25 18.75,9.29124578 18.75,6.875 Z M12.1875,6.875 C12.1875,5.66687711 13.1668771,4.6875 14.375,4.6875 C15.5831229,4.6875 16.5625,5.66687711 16.5625,6.875 C16.5625,8.08312289 15.5831229,9.0625 14.375,9.0625 C13.1725186,9.0489877 12.2010123,8.07748144 12.1875,6.875 Z M25.625,2.5 C23.2087542,2.5 21.25,4.45875422 21.25,6.875 C21.25,9.29124578 23.2087542,11.25 25.625,11.25 C28.0412458,11.25 30,9.29124578 30,6.875 C30,4.45875422 28.0412458,2.5 25.625,2.5 Z M25.625,9.0625 C24.4168771,9.0625 23.4375,8.08312289 23.4375,6.875 C23.4375,5.66687711 24.4168771,4.6875 25.625,4.6875 C26.8331229,4.6875 27.8125,5.66687711 27.8125,6.875 C27.7989877,8.07748144 26.8274814,9.0489877 25.625,9.0625 L25.625,9.0625 Z" id="Fill"></path>
                </g>
                <g id="group" transform="translate(0.444206, 104.000000)" fill="#161616" font-size="28" letter-spacing="0.319999993" line-spacing="36">
                    <text id="Secondary-text" font-family="IBMPlexSans, IBM Plex Sans" font-weight="normal">
                        <tspan x="29.3580001" y="61.6679077">Secondary text</tspan>
                    </text>
                    <text id="Primary-text" font-family="IBMPlexSans-SemiBold, IBM Plex Sans" font-weight="500">
                        <tspan x="42.53" y="25.0518188">Primary text</tspan>
                    </text>
                </g>
            </g>
        </g>
    </g>
</svg>