<?xml version="1.0" encoding="UTF-8"?>
<svg width="1080px" height="856px" viewBox="0 0 1080 856" version="1.1" xmlns="http://www.w3.org/2000/svg" xmlns:xlink="http://www.w3.org/1999/xlink">
    <title>bulletNodeSpacing</title>
    <defs>
        <path d="M12,0 L103,0 C109.627417,-1.21743675e-15 115,5.372583 115,12 C115,18.627417 109.627417,24 103,24 L12,24 C5.372583,24 8.11624501e-16,18.627417 0,12 C-8.11624501e-16,5.372583 5.372583,1.21743675e-15 12,0 Z" id="path-1"></path>
        <mask id="mask-2" maskContentUnits="userSpaceOnUse" maskUnits="objectBoundingBox" x="-1" y="-1" width="117" height="26">
            <rect x="-1" y="-1" width="117" height="26" fill="white"></rect>
            <use xlink:href="#path-1" fill="black"></use>
        </mask>
    </defs>
    <g id="bulletNodeSpacing" stroke="none" stroke-width="1" fill="none" fill-rule="evenodd">
        <rect fill="#F4F4F4" x="0" y="0" width="1080" height="856"></rect>
        <text id=":enabled-(text-below" font-family="IBMPlexSans-Bold, IBM Plex Sans" font-size="14" font-weight="bold" line-spacing="18" letter-spacing="0.159999996" fill="#F32973">
            <tspan x="518" y="56">:enabled </tspan>
            <tspan x="518" y="74" font-family="IBMPlexSans, IBM Plex Sans" font-weight="normal">(text-below variant)</tspan>
        </text>
        <text id=":enabled" font-family="IBMPlexSans-Bold, IBM Plex Sans" font-size="14" font-weight="bold" line-spacing="18" letter-spacing="0.159999996" fill="#F32973">
            <tspan x="0" y="56">:enabled </tspan>
        </text>
        <text id="Primary-text-Copy-49" font-family="IBMPlexSans-SemiBold, IBM Plex Sans" font-size="14" font-weight="500" line-spacing="18" letter-spacing="0.159999996" fill="#161616">
            <tspan x="221.558218" y="65">Primary text</tspan>
        </text>
        <rect id="Rectangle-Copy-92" stroke="#D02670" x="222.058218" y="51.5" width="99.1729475" height="17"></rect>
        <g id="Group" transform="translate(213.558218, 42.000000)">
            <rect id="Background" fill="#8A3FFC" x="0" y="0" width="8" height="8"></rect>
            <text id="8" font-family="IBMPlexSans-SemiBold, IBM Plex Sans" font-size="8" font-weight="500" line-spacing="10" fill="#FFFFFF">
                <tspan x="1.5" y="7">8</tspan>
            </text>
        </g>
        <rect id="background-copy-7" fill="#202020" x="205.558218" y="57" width="8" height="8" rx="4"></rect>
        <g id="Spec-/-Icon-box-/-Vertical-/-Top-/-20px-/-Light-Copy-12" transform="translate(134.000000, 52.000000)">
            <g id="Icon-box" transform="translate(57.479109, 9.000000) rotate(90.000000) translate(-57.479109, -9.000000) translate(53.479109, -13.079109)">
                <rect id="Line" fill="#D12771" x="3.5" y="7.38867571" width="1" height="36.7695423"></rect>
                <rect id="Box" stroke="#D12771" x="0.5" y="0.5" width="7" height="7"></rect>
            </g>
            <text id="Text" font-family="IBMPlexSans, IBM Plex Sans" font-size="12" font-weight="normal" line-spacing="16" letter-spacing="0.32" fill="#D12771">
                <tspan x="2.42" y="12">20px</tspan>
            </text>
        </g>
        <line x1="340.382156" y1="65.437991" x2="185.382156" y2="65.437991" id="Line-3" stroke="#009D9A" stroke-linecap="square" stroke-dasharray="2,2"></line>
        <g id="Group-3" transform="translate(720.000000, 42.000000)">
            <rect id="Rectangle-Copy-104" stroke="#D02670" x="25.475141" y="17.3239656" width="96" height="17"></rect>
            <g id="Bullet-node-center-aligned-with-second-line" transform="translate(31.975141, 5.085142)">
                <rect id="background-copy-4" fill="#202020" x="37.5" y="0" width="8" height="8" rx="4"></rect>
                <text id="Label-Copy" font-family="IBMPlexSans-SemiBold, IBM Plex Sans" font-size="14" font-weight="500" line-spacing="18" letter-spacing="0.159999996" fill="#161616">
                    <tspan x="0.367000021" y="26">Primary text</tspan>
                </text>
            </g>
            <g id="Group" transform="translate(84.471920, 12.823966)">
                <rect id="Background" fill="#8A3FFC" x="0" y="0" width="8" height="8"></rect>
                <text id="8" font-family="IBMPlexSans-SemiBold, IBM Plex Sans" font-size="8" font-weight="500" line-spacing="10" fill="#FFFFFF">
                    <tspan x="1.5" y="7">8</tspan>
                </text>
            </g>
            <rect id="Rectangle-Copy-4" fill="#8A3FFC" x="77.558218" y="12.8239656" width="4" height="4"></rect>
            <g id="Spec-/-Icon-box-/-Vertical-/-Top-/-20px-/-Light-Copy-14">
                <g id="Icon-box" transform="translate(55.479109, 9.000000) rotate(90.000000) translate(-55.479109, -9.000000) translate(51.479109, -13.079109)">
                    <rect id="Line" fill="#D12771" x="3.5" y="7.38867571" width="1" height="36.7695423"></rect>
                    <rect id="Box" stroke="#D12771" x="0.5" y="0.5" width="7" height="7"></rect>
                </g>
                <text id="Text" font-family="IBMPlexSans, IBM Plex Sans" font-size="12" font-weight="normal" line-spacing="16" letter-spacing="0.32" fill="#D12771">
                    <tspan x="0.42" y="12">20px</tspan>
                </text>
            </g>
        </g>
        <g id="Group-5" transform="translate(0.000000, 198.000000)">
            <path d="M212.25,0 L303.25,0 C309.877417,-1.21743675e-15 315.25,5.372583 315.25,12 C315.25,18.627417 309.877417,24 303.25,24 L212.25,24 C205.622583,24 200.25,18.627417 200.25,12 C200.25,5.372583 205.622583,1.21743675e-15 212.25,0 Z" id="Background-Copy-3" fill="#E5E5E5"></path>
            <g id="Group" transform="translate(517.000000, 4.000000)">
                <path d="M299.25,6 C302.287566,6 305.037566,7.23121694 307.028175,9.22182541 C309.018783,11.2124339 310.25,13.9624339 310.25,17 C310.25,20.0375661 309.018783,22.7875661 307.028175,24.7781746 C305.037566,26.7687831 302.287566,28 299.25,28 L299.25,28 L208.25,28 C205.212434,28 202.462434,26.7687831 200.471825,24.7781746 C198.481217,22.7875661 197.25,20.0375661 197.25,17 C197.25,13.9624339 198.481217,11.2124339 200.471825,9.22182541 C202.462434,7.23121694 205.212434,6 208.25,6 L208.25,6 Z" id="Background-Copy-11" stroke="#0F62FE" stroke-width="2"></path>
                <text id="Primary-text-Copy-62" font-family="IBMPlexSans-SemiBold, IBM Plex Sans" font-size="14" font-weight="500" line-spacing="18" letter-spacing="0.159999996" fill="#161616">
                    <tspan x="220.25" y="22">Primary text</tspan>
                </text>
                <rect id="background-copy-25" fill="#202020" x="204.25" y="13" width="8" height="8" rx="4"></rect>
                <text id=":focus" font-family="IBMPlexSans-Bold, IBM Plex Sans" font-size="14" font-weight="bold" line-spacing="18" letter-spacing="0.159999996" fill="#F32973">
                    <tspan x="0" y="14">:focus</tspan>
                </text>
                <g transform="translate(200.250000, 33.000000)" id="Spec-/-Callout-/-Token-/-Left-arrow-/-Light-Copy-31">
                    <path d="M10,0.343145751 L13.656,3.99914575 L87,4 C88.1045695,4 89,4.8954305 89,6 L89,20 C89,21.1045695 88.1045695,22 87,22 L2,22 C0.8954305,22 1.3527075e-16,21.1045695 0,20 L0,6 C-1.3527075e-16,4.8954305 0.8954305,4 2,4 L6.343,3.99914575 L10,0.343145751 Z" id="Background" fill="#D12771"></path>
                    <g id="Spacer" transform="translate(85.000000, 4.000000)">
                        <rect id="spacer" x="0" y="0" width="4" height="16"></rect>
                    </g>
                    <text id="Text" font-family="IBMPlexSans, IBM Plex Sans" font-size="12" font-weight="normal" line-spacing="16" letter-spacing="0.32" fill="#FFFFFF">
                        <tspan x="4" y="17">$icon-primary</tspan>
                    </text>
                </g>
                <g id="Spec-/-Callout-/-Token-/-Left-arrow-/-Light-Copy-20" transform="translate(318.343146, 8.000000)">
                    <path d="M48.6568542,0 C49.7614237,-2.02906125e-16 50.6568542,0.8954305 50.6568542,2 L50.6568542,16 C50.6568542,17.1045695 49.7614237,18 48.6568542,18 L5.65685425,18 C4.55228475,18 3.65685425,17.1045695 3.65685425,16 L3.656,12.656 L-1.0658141e-14,9 L3.656,5.343 L3.65685425,2 C3.65685425,0.8954305 4.55228475,2.02906125e-16 5.65685425,0 L48.6568542,0 Z" id="Background" fill="#D12771"></path>
                    <g id="Spacer" transform="translate(46.656854, 0.000000)">
                        <rect id="spacer" x="0" y="0" width="4" height="16"></rect>
                    </g>
                    <text id="Text" font-family="IBMPlexSans, IBM Plex Sans" font-size="12" font-weight="normal" line-spacing="16" letter-spacing="0.32" fill="#FFFFFF">
                        <tspan x="7.65685425" y="13">$focus</tspan>
                    </text>
                </g>
            </g>
            <text id="Primary-text-Copy-52" font-family="IBMPlexSans-SemiBold, IBM Plex Sans" font-size="14" font-weight="500" line-spacing="18" letter-spacing="0.159999996" fill="#161616">
                <tspan x="224.25" y="17">Primary text</tspan>
            </text>
            <rect id="background-copy-15" fill="#161616" x="208.25" y="8" width="8" height="8" rx="4"></rect>
            <text id=":hover" font-family="IBMPlexSans-Bold, IBM Plex Sans" font-size="14" font-weight="bold" line-spacing="18" letter-spacing="0.159999996" fill="#F32973">
                <tspan x="0" y="18">:hover</tspan>
            </text>
            <g id="Spec-/-Callout-/-Token-/-Left-arrow-/-Light-Copy-16" transform="translate(318.343146, 4.000000)">
                <path d="M121.656854,0 C122.761424,-2.02906125e-16 123.656854,0.8954305 123.656854,2 L123.656854,16 C123.656854,17.1045695 122.761424,18 121.656854,18 L5.65685425,18 C4.55228475,18 3.65685425,17.1045695 3.65685425,16 L3.656,12.656 L-1.0658141e-14,9 L3.656,5.343 L3.65685425,2 C3.65685425,0.8954305 4.55228475,2.02906125e-16 5.65685425,0 L121.656854,0 Z" id="Background" fill="#D12771"></path>
                <g id="Spacer" transform="translate(119.656854, 0.000000)">
                    <rect id="spacer" x="0" y="0" width="4" height="16"></rect>
                </g>
                <text id="Text" font-family="IBMPlexSans, IBM Plex Sans" font-size="12" font-weight="normal" line-spacing="16" letter-spacing="0.32" fill="#FFFFFF">
                    <tspan x="7.65685425" y="13">$background-hover</tspan>
                </text>
            </g>
            <g id="Spec-/-Callout-/-Token-/-Left-arrow-/-Light-Copy-31" transform="translate(200.250000, 29.000000)">
                <path d="M10,0.343145751 L13.656,3.99914575 L87,4 C88.1045695,4 89,4.8954305 89,6 L89,20 C89,21.1045695 88.1045695,22 87,22 L2,22 C0.8954305,22 1.3527075e-16,21.1045695 0,20 L0,6 C-1.3527075e-16,4.8954305 0.8954305,4 2,4 L6.343,3.99914575 L10,0.343145751 Z" id="Background" fill="#D12771"></path>
                <g id="Spacer" transform="translate(85.000000, 4.000000)">
                    <rect id="spacer" x="0" y="0" width="4" height="16"></rect>
                </g>
                <text id="Text" font-family="IBMPlexSans, IBM Plex Sans" font-size="12" font-weight="normal" line-spacing="16" letter-spacing="0.32" fill="#FFFFFF">
                    <tspan x="4" y="17">$icon-primary</tspan>
                </text>
            </g>
        </g>
        <path d="M210.25,381 L301.25,381 C307.877417,381 313.25,386.372583 313.25,393 C313.25,399.627417 307.877417,405 301.25,405 L210.25,405 C203.622583,405 198.25,399.627417 198.25,393 C198.25,386.372583 203.622583,381 210.25,381 Z" id="Background-Copy-8" stroke="#161616" fill="#E0E0E0" stroke-dasharray="4,4"></path>
        <g id="Group" transform="translate(198.000000, 558.000000)">
            <path d="M12,0 L103,0 C109.627417,-1.21743675e-15 115,5.372583 115,12 C115,18.627417 109.627417,24 103,24 L12,24 C5.372583,24 8.11624501e-16,18.627417 0,12 C-8.11624501e-16,5.372583 5.372583,1.21743675e-15 12,0 Z" id="Background-Copy-24" stroke="#161616" fill="#CACACA" stroke-dasharray="4,4"></path>
            <text id="Primary-text-Copy-66" font-family="IBMPlexSans-SemiBold, IBM Plex Sans" font-size="14" font-weight="500" line-spacing="18" letter-spacing="0.159999996" fill="#161616">
                <tspan x="24" y="17">Primary text</tspan>
            </text>
            <rect id="background-copy-33" fill="#202020" x="8" y="8" width="8" height="8" rx="4"></rect>
            <g transform="translate(4.000000, 31.000000)" id="Spec-/-Callout-/-Token-/-Left-arrow-/-Light-Copy-31">
                <path d="M10,0.343145751 L13.656,3.99914575 L87,4 C88.1045695,4 89,4.8954305 89,6 L89,20 C89,21.1045695 88.1045695,22 87,22 L2,22 C0.8954305,22 1.3527075e-16,21.1045695 0,20 L0,6 C-1.3527075e-16,4.8954305 0.8954305,4 2,4 L6.343,3.99914575 L10,0.343145751 Z" id="Background" fill="#D12771"></path>
                <g id="Spacer" transform="translate(85.000000, 4.000000)">
                    <rect id="spacer" x="0" y="0" width="4" height="16"></rect>
                </g>
                <text id="Text" font-family="IBMPlexSans, IBM Plex Sans" font-size="12" font-weight="normal" line-spacing="16" letter-spacing="0.32" fill="#FFFFFF">
                    <tspan x="4" y="17">$icon-primary</tspan>
                </text>
            </g>
            <g id="Spec-/-Callout-/-Token-/-Left-arrow-/-Light-Copy-37" transform="translate(122.093146, 3.000000)">
                <path d="M174.656854,0 C175.761424,-4.2495073e-16 176.656854,0.8954305 176.656854,2 L176.656854,16 C176.656854,17.1045695 175.761424,18 174.656854,18 L5.65685425,18 C4.55228475,18 3.65685425,17.1045695 3.65685425,16 L3.656,12.656 L-1.0658141e-14,9 L3.656,5.343 L3.65685425,2 C3.65685425,0.8954305 4.55228475,-1.91384796e-17 5.65685425,0 L174.656854,0 Z" id="Background" fill="#D12771"></path>
                <g id="Spacer" transform="translate(172.656854, 0.000000)">
                    <rect id="spacer" x="0" y="0" width="4" height="16"></rect>
                </g>
                <text id="Text" font-family="IBMPlexSans, IBM Plex Sans" font-size="12" font-weight="normal" line-spacing="16" letter-spacing="0.32" fill="#FFFFFF">
                    <tspan x="7.65685425" y="13">$background-selected-hover</tspan>
                </text>
            </g>
        </g>
        <g id="Group-2" transform="translate(198.000000, 736.000000)">
            <use id="Background-Copy-18" stroke="#161616" mask="url(#mask-2)" stroke-width="2" fill="#E0E0E0" stroke-dasharray="4,4" xlink:href="#path-1"></use>
            <path d="M103,1 C106.037566,1 108.787566,2.23121694 110.778175,4.22182541 C112.768783,6.21243388 114,8.96243388 114,12 C114,15.0375661 112.768783,17.7875661 110.778175,19.7781746 C108.787566,21.7687831 106.037566,23 103,23 L103,23 L12,23 C8.96243388,23 6.21243388,21.7687831 4.22182541,19.7781746 C2.23121694,17.7875661 1,15.0375661 1,12 C1,8.96243388 2.23121694,6.21243388 4.22182541,4.22182541 C6.21243388,2.23121694 8.96243388,1 12,1 L12,1 Z" id="Background-Copy-15" stroke="#0F62FE" stroke-width="2"></path>
            <text id="Primary-text" font-family="IBMPlexSans-SemiBold, IBM Plex Sans" font-size="14" font-weight="500" line-spacing="18" letter-spacing="0.159999996" fill="#161616">
                <tspan x="24" y="17">Primary text</tspan>
            </text>
            <rect id="background-copy-27" fill="#202020" x="8" y="8" width="8" height="8" rx="4"></rect>
            <g id="Spec-/-Callout-/-Token-/-Left-arrow-/-Light-Copy-31" transform="translate(4.000000, 33.000000)">
                <path d="M10,0.343145751 L13.656,3.99914575 L87,4 C88.1045695,4 89,4.8954305 89,6 L89,20 C89,21.1045695 88.1045695,22 87,22 L2,22 C0.8954305,22 1.3527075e-16,21.1045695 0,20 L0,6 C-1.3527075e-16,4.8954305 0.8954305,4 2,4 L6.343,3.99914575 L10,0.343145751 Z" id="Background" fill="#D12771"></path>
                <g id="Spacer" transform="translate(85.000000, 4.000000)">
                    <rect id="spacer" x="0" y="0" width="4" height="16"></rect>
                </g>
                <text id="Text" font-family="IBMPlexSans, IBM Plex Sans" font-size="12" font-weight="normal" line-spacing="16" letter-spacing="0.32" fill="#FFFFFF">
                    <tspan x="4" y="17">$icon-primary</tspan>
                </text>
            </g>
            <g id="Spec-/-Callout-/-Token-/-Left-arrow-/-Light-Copy-22" transform="translate(122.093146, 26.000000)">
                <path d="M137.656854,0 C138.761424,-2.02906125e-16 139.656854,0.8954305 139.656854,2 L139.656854,16 C139.656854,17.1045695 138.761424,18 137.656854,18 L5.65685425,18 C4.55228475,18 3.65685425,17.1045695 3.65685425,16 L3.656,12.656 L-1.0658141e-14,9 L3.656,5.343 L3.65685425,2 C3.65685425,0.8954305 4.55228475,2.02906125e-16 5.65685425,0 L137.656854,0 Z" id="Background" fill="#D12771"></path>
                <g id="Spacer" transform="translate(135.656854, 0.000000)">
                    <rect id="spacer" x="0" y="0" width="4" height="16"></rect>
                </g>
                <text id="Text" font-family="IBMPlexSans, IBM Plex Sans" font-size="12" font-weight="normal" line-spacing="16" letter-spacing="0.32" fill="#FFFFFF">
                    <tspan x="7.65685425" y="13">$background-selected</tspan>
                </text>
            </g>
            <g id="Spec-/-Callout-/-Token-/-Left-arrow-/-Light-Copy-21" transform="translate(122.093146, 3.000000)">
                <path d="M48.6568542,0 C49.7614237,-2.02906125e-16 50.6568542,0.8954305 50.6568542,2 L50.6568542,16 C50.6568542,17.1045695 49.7614237,18 48.6568542,18 L5.65685425,18 C4.55228475,18 3.65685425,17.1045695 3.65685425,16 L3.656,12.656 L-1.0658141e-14,9 L3.656,5.343 L3.65685425,2 C3.65685425,0.8954305 4.55228475,2.02906125e-16 5.65685425,0 L48.6568542,0 Z" id="Background" fill="#D12771"></path>
                <g id="Spacer" transform="translate(46.656854, 0.000000)">
                    <rect id="spacer" x="0" y="0" width="4" height="16"></rect>
                </g>
                <text id="Text" font-family="IBMPlexSans, IBM Plex Sans" font-size="12" font-weight="normal" line-spacing="16" letter-spacing="0.32" fill="#FFFFFF">
                    <tspan x="7.65685425" y="13">$focus</tspan>
                </text>
            </g>
        </g>
        <text id="Primary-text-Copy-57" font-family="IBMPlexSans-SemiBold, IBM Plex Sans" font-size="14" font-weight="500" line-spacing="18" letter-spacing="0.159999996" fill="#161616">
            <tspan x="222.25" y="398">Primary text</tspan>
        </text>
        <rect id="background-copy-20" fill="#202020" x="206.25" y="389" width="8" height="8" rx="4"></rect>
        <text id=":selected" font-family="IBMPlexSans-Bold, IBM Plex Sans" font-size="14" font-weight="bold" line-spacing="18" letter-spacing="0.159999996" fill="#F32973">
            <tspan x="2" y="394">:selected</tspan>
        </text>
        <text id=":focus-selected" font-family="IBMPlexSans-Bold, IBM Plex Sans" font-size="14" font-weight="bold" line-spacing="18" letter-spacing="0.159999996" fill="#F32973">
            <tspan x="2" y="750">:focus-selected</tspan>
        </text>
        <g id="Spec-/-Callout-/-Token-/-Left-arrow-/-Light-Copy-31" transform="translate(202.250000, 412.000000)">
            <path d="M10,0.343145751 L13.656,3.99914575 L87,4 C88.1045695,4 89,4.8954305 89,6 L89,20 C89,21.1045695 88.1045695,22 87,22 L2,22 C0.8954305,22 1.3527075e-16,21.1045695 0,20 L0,6 C-1.3527075e-16,4.8954305 0.8954305,4 2,4 L6.343,3.99914575 L10,0.343145751 Z" id="Background" fill="#D12771"></path>
            <g id="Spacer" transform="translate(85.000000, 4.000000)">
                <rect id="spacer" x="0" y="0" width="4" height="16"></rect>
            </g>
            <text id="Text" font-family="IBMPlexSans, IBM Plex Sans" font-size="12" font-weight="normal" line-spacing="16" letter-spacing="0.32" fill="#FFFFFF">
                <tspan x="4" y="17">$icon-primary</tspan>
            </text>
        </g>
        <g id="Spec-/-Callout-/-Token-/-Left-arrow-/-Light-Copy-19" transform="translate(320.343146, 384.000000)">
            <path d="M137.656854,0 C138.761424,-2.02906125e-16 139.656854,0.8954305 139.656854,2 L139.656854,16 C139.656854,17.1045695 138.761424,18 137.656854,18 L5.65685425,18 C4.55228475,18 3.65685425,17.1045695 3.65685425,16 L3.656,12.656 L-1.0658141e-14,9 L3.656,5.343 L3.65685425,2 C3.65685425,0.8954305 4.55228475,2.02906125e-16 5.65685425,0 L137.656854,0 Z" id="Background" fill="#D12771"></path>
            <g id="Spacer" transform="translate(135.656854, 0.000000)">
                <rect id="spacer" x="0" y="0" width="4" height="16"></rect>
            </g>
            <text id="Text" font-family="IBMPlexSans, IBM Plex Sans" font-size="12" font-weight="normal" line-spacing="16" letter-spacing="0.32" fill="#FFFFFF">
                <tspan x="7.65685425" y="13">$background-selected</tspan>
            </text>
        </g>
        <g id="Spec-/-Callout-/-Token-/-Left-arrow-/-Light-Copy-27" transform="translate(224.343146, 30.000000)">
            <path d="M224.656854,0 C225.761424,-2.02906125e-16 226.656854,0.8954305 226.656854,2 L226.656854,16 C226.656854,17.1045695 225.761424,18 224.656854,18 L5.65685425,18 C4.55228475,18 3.65685425,17.1045695 3.65685425,16 L3.656,12.656 L-1.0658141e-14,9 L3.656,5.343 L3.65685425,2 C3.65685425,0.8954305 4.55228475,2.02906125e-16 5.65685425,0 L224.656854,0 Z" id="Background" fill="#007D79"></path>
            <g id="Spacer" transform="translate(222.656854, 0.000000)">
                <rect id="spacer" x="0" y="0" width="4" height="16"></rect>
            </g>
            <text id="Text" font-family="IBMPlexSans, IBM Plex Sans" font-size="12" font-weight="normal" line-spacing="16" letter-spacing="0.32" fill="#FFFFFF">
                <tspan x="7.65685425" y="13">$productive-heading-01/text-primary</tspan>
            </text>
        </g>
        <text id=":selected-hover-copy" font-family="IBMPlexSans-Bold, IBM Plex Sans" font-size="14" font-weight="bold" line-spacing="18" letter-spacing="0.159999996" fill="#F32973">
            <tspan x="2" y="572">:selected-hover</tspan>
        </text>
        <g id="Group-7" transform="translate(515.000000, 356.000000)">
            <g id="Group-3" transform="translate(200.000000, 0.000000)">
                <text id="Primary-text-Copy-65" font-family="IBMPlexSans-SemiBold, IBM Plex Sans" font-size="14" font-weight="500" line-spacing="18" letter-spacing="0.159999996" fill="#8D8D8D">
                    <tspan x="20" y="38">Primary text</tspan>
                </text>
                <rect id="background-copy-32" fill="#8D8D8D" x="4" y="29" width="8" height="8" rx="4"></rect>
                <g id="Spec-/-Callout-/-Token-/-Left-arrow-/-Light-Copy-35" transform="translate(0.000000, 51.000000)">
                    <path d="M10,0.343145751 L13.656,3.99914575 L92,4 C93.1045695,4 94,4.8954305 94,6 L94,20 C94,21.1045695 93.1045695,22 92,22 L2,22 C0.8954305,22 1.3527075e-16,21.1045695 0,20 L0,6 C-1.3527075e-16,4.8954305 0.8954305,4 2,4 L6.343,3.99914575 L10,0.343145751 Z" id="Background" fill="#D12771"></path>
                    <g id="Spacer" transform="translate(90.000000, 4.000000)">
                        <rect id="spacer" x="0" y="0" width="4" height="16"></rect>
                    </g>
                    <text id="Text" font-family="IBMPlexSans, IBM Plex Sans" font-size="12" font-weight="normal" line-spacing="16" letter-spacing="0.32" fill="#FFFFFF">
                        <tspan x="4" y="17">$icon-disabled</tspan>
                    </text>
                </g>
                <g id="Spec-/-Callout-/-Token-/-Left-arrow-/-Light-Copy-24" transform="translate(21.093146, 0.000000)">
                    <path d="M229.656854,0 C230.761424,-2.02906125e-16 231.656854,0.8954305 231.656854,2 L231.656854,16 C231.656854,17.1045695 230.761424,18 229.656854,18 L5.65685425,18 C4.55228475,18 3.65685425,17.1045695 3.65685425,16 L3.656,12.656 L-1.0658141e-14,9 L3.656,5.343 L3.65685425,2 C3.65685425,0.8954305 4.55228475,2.02906125e-16 5.65685425,0 L229.656854,0 Z" id="Background" fill="#007D79"></path>
                    <g id="Spacer" transform="translate(227.656854, 0.000000)">
                        <rect id="spacer" x="0" y="0" width="4" height="16"></rect>
                    </g>
                    <text id="Text" font-family="IBMPlexSans, IBM Plex Sans" font-size="12" font-weight="normal" line-spacing="16" letter-spacing="0.32" fill="#FFFFFF">
                        <tspan x="7.65685425" y="13">$productive-heading-01/text-disabled</tspan>
                    </text>
                </g>
            </g>
            <text id=":disabled" font-family="IBMPlexSans-Bold, IBM Plex Sans" font-size="14" font-weight="bold" line-spacing="18" letter-spacing="0.159999996" fill="#F32973">
                <tspan x="0" y="38">:disabled</tspan>
            </text>
        </g>
    </g>
</svg>