<?xml version="1.0" encoding="UTF-8"?>
<svg width="1080px" height="664px" viewBox="0 0 1080 664" version="1.1" xmlns="http://www.w3.org/2000/svg" xmlns:xlink="http://www.w3.org/1999/xlink">
    <title>bulletNodeStates</title>
    <defs>
        <path d="M210,542 L301,542 C307.627417,542 313,547.372583 313,554 C313,560.627417 307.627417,566 301,566 L210,566 C203.372583,566 198,560.627417 198,554 C198,547.372583 203.372583,542 210,542 Z" id="path-1"></path>
        <mask id="mask-2" maskContentUnits="userSpaceOnUse" maskUnits="objectBoundingBox" x="-1" y="-1" width="117" height="26">
            <rect x="197" y="541" width="117" height="26" fill="white"></rect>
            <use xlink:href="#path-1" fill="black"></use>
        </mask>
    </defs>
    <g id="bulletNodeStates" stroke="none" stroke-width="1" fill="none" fill-rule="evenodd">
        <rect fill="#F4F4F4" x="0" y="0" width="1080" height="664"></rect>
        <g id="Group-2" transform="translate(0.000000, 24.000000)">
            <text id=":enabled-(text-below" font-family="IBMPlexSans-Bold, IBM Plex Sans" font-size="14" font-weight="bold" line-spacing="18" letter-spacing="0.159999996" fill="#F32973">
                <tspan x="518" y="14">:enabled </tspan>
                <tspan x="518" y="32" font-family="IBMPlexSans, IBM Plex Sans" font-weight="normal">(text-below variant)</tspan>
            </text>
            <text id=":enabled" font-family="IBMPlexSans-Bold, IBM Plex Sans" font-size="14" font-weight="bold" line-spacing="18" letter-spacing="0.159999996" fill="#F32973">
                <tspan x="0" y="14">:enabled </tspan>
            </text>
            <g id="Group" transform="translate(200.000000, 0.000000)">
                <text id="Primary-text-Copy-50" font-family="IBMPlexSans-SemiBold, IBM Plex Sans" font-size="14" font-weight="500" line-spacing="18" letter-spacing="0.159999996" fill="#161616">
                    <tspan x="16" y="14">Primary text</tspan>
                </text>
                <rect id="background-copy-9" fill="#202020" x="0" y="6" width="8" height="8" rx="4"></rect>
            </g>
            <g id="Bullet-node-center-aligned-with-second-line-Copy-3" transform="translate(720.000000, 0.000000)">
                <rect id="background-copy-4" fill="#202020" x="37.5" y="0" width="8" height="8" rx="4"></rect>
                <text id="Label-Copy" font-family="IBMPlexSans-SemiBold, IBM Plex Sans" font-size="14" font-weight="500" line-spacing="18" letter-spacing="0.159999996" fill="#161616">
                    <tspan x="0.367000021" y="26">Primary text</tspan>
                </text>
            </g>
            <path d="M212.25,132 L303.25,132 C309.877417,132 315.25,137.372583 315.25,144 C315.25,150.627417 309.877417,156 303.25,156 L212.25,156 C205.622583,156 200.25,150.627417 200.25,144 C200.25,137.372583 205.622583,132 212.25,132 Z" id="Background-Copy-3" fill="#E5E5E5"></path>
            <path d="M816.25,142 C819.287566,142 822.037566,143.231217 824.028175,145.221825 C826.018783,147.212434 827.25,149.962434 827.25,153 C827.25,156.037566 826.018783,158.787566 824.028175,160.778175 C822.037566,162.768783 819.287566,164 816.25,164 L816.25,164 L725.25,164 C722.212434,164 719.462434,162.768783 717.471825,160.778175 C715.481217,158.787566 714.25,156.037566 714.25,153 C714.25,149.962434 715.481217,147.212434 717.471825,145.221825 C719.462434,143.231217 722.212434,142 725.25,142 L725.25,142 Z" id="Background-Copy-11" stroke="#0F62FE" stroke-width="2"></path>
            <text id="Primary-text-Copy-62" font-family="IBMPlexSans-SemiBold, IBM Plex Sans" font-size="14" font-weight="500" line-spacing="18" letter-spacing="0.159999996" fill="#161616">
                <tspan x="737.25" y="158">Primary text</tspan>
            </text>
            <rect id="background-copy-25" fill="#202020" x="721.25" y="149" width="8" height="8" rx="4"></rect>
            <text id=":focus" font-family="IBMPlexSans-Bold, IBM Plex Sans" font-size="14" font-weight="bold" line-spacing="18" letter-spacing="0.159999996" fill="#F32973">
                <tspan x="517" y="150">:focus</tspan>
            </text>
            <text id="Primary-text-Copy-52" font-family="IBMPlexSans-SemiBold, IBM Plex Sans" font-size="14" font-weight="500" line-spacing="18" letter-spacing="0.159999996" fill="#161616">
                <tspan x="224.25" y="149">Primary text</tspan>
            </text>
            <rect id="background-copy-15" fill="#161616" x="208.25" y="140" width="8" height="8" rx="4"></rect>
            <text id=":hover" font-family="IBMPlexSans-Bold, IBM Plex Sans" font-size="14" font-weight="bold" line-spacing="18" letter-spacing="0.159999996" fill="#F32973">
                <tspan x="0" y="150">:hover</tspan>
            </text>
            <path d="M210.25,267 L301.25,267 C307.877417,267 313.25,272.372583 313.25,279 C313.25,285.627417 307.877417,291 301.25,291 L210.25,291 C203.622583,291 198.25,285.627417 198.25,279 C198.25,272.372583 203.622583,267 210.25,267 Z" id="Background-Copy-8" stroke="#161616" fill="#E0E0E0" stroke-dasharray="4,4"></path>
            <path d="M210,404 L301,404 C307.627417,404 313,409.372583 313,416 C313,422.627417 307.627417,428 301,428 L210,428 C203.372583,428 198,422.627417 198,416 C198,409.372583 203.372583,404 210,404 Z" id="Background-Copy-24" stroke="#161616" fill="#CACACA" stroke-dasharray="4,4"></path>
            <text id="Primary-text-Copy-66" font-family="IBMPlexSans-SemiBold, IBM Plex Sans" font-size="14" font-weight="500" line-spacing="18" letter-spacing="0.159999996" fill="#161616">
                <tspan x="222" y="421">Primary text</tspan>
            </text>
            <rect id="background-copy-33" fill="#202020" x="206" y="412" width="8" height="8" rx="4"></rect>
            <use id="Background-Copy-18" stroke="#161616" mask="url(#mask-2)" stroke-width="2" fill="#E0E0E0" stroke-dasharray="4,4" xlink:href="#path-1"></use>
            <path d="M301,543 C304.037566,543 306.787566,544.231217 308.778175,546.221825 C310.768783,548.212434 312,550.962434 312,554 C312,557.037566 310.768783,559.787566 308.778175,561.778175 C306.787566,563.768783 304.037566,565 301,565 L301,565 L210,565 C206.962434,565 204.212434,563.768783 202.221825,561.778175 C200.231217,559.787566 199,557.037566 199,554 C199,550.962434 200.231217,548.212434 202.221825,546.221825 C204.212434,544.231217 206.962434,543 210,543 L210,543 Z" id="Background-Copy-15" stroke="#0F62FE" stroke-width="2"></path>
            <text id="Primary-text" font-family="IBMPlexSans-SemiBold, IBM Plex Sans" font-size="14" font-weight="500" line-spacing="18" letter-spacing="0.159999996" fill="#161616">
                <tspan x="222" y="559">Primary text</tspan>
            </text>
            <rect id="background-copy-27" fill="#202020" x="206" y="550" width="8" height="8" rx="4"></rect>
            <text id="Primary-text-Copy-57" font-family="IBMPlexSans-SemiBold, IBM Plex Sans" font-size="14" font-weight="500" line-spacing="18" letter-spacing="0.159999996" fill="#161616">
                <tspan x="222.25" y="284">Primary text</tspan>
            </text>
            <rect id="background-copy-20" fill="#202020" x="206.25" y="275" width="8" height="8" rx="4"></rect>
            <text id=":selected" font-family="IBMPlexSans-Bold, IBM Plex Sans" font-size="14" font-weight="bold" line-spacing="18" letter-spacing="0.159999996" fill="#F32973">
                <tspan x="2" y="280">:selected</tspan>
            </text>
            <text id=":focus-selected" font-family="IBMPlexSans-Bold, IBM Plex Sans" font-size="14" font-weight="bold" line-spacing="18" letter-spacing="0.159999996" fill="#F32973">
                <tspan x="2" y="556">:focus-selected</tspan>
            </text>
            <text id=":selected-hover-copy" font-family="IBMPlexSans-Bold, IBM Plex Sans" font-size="14" font-weight="bold" line-spacing="18" letter-spacing="0.159999996" fill="#F32973">
                <tspan x="2" y="418">:selected-hover</tspan>
            </text>
            <g id="Group-3" transform="translate(719.000000, 266.000000)" fill="#8D8D8D">
                <text id="Primary-text-Copy-65" font-family="IBMPlexSans-SemiBold, IBM Plex Sans" font-size="14" font-weight="500" line-spacing="18" letter-spacing="0.159999996">
                    <tspan x="16" y="14">Primary text</tspan>
                </text>
                <rect id="background-copy-32" x="0" y="5" width="8" height="8" rx="4"></rect>
            </g>
            <text id=":disabled" font-family="IBMPlexSans-Bold, IBM Plex Sans" font-size="14" font-weight="bold" line-spacing="18" letter-spacing="0.159999996" fill="#F32973">
                <tspan x="515" y="280">:disabled</tspan>
            </text>
        </g>
    </g>
</svg>