<?xml version="1.0" encoding="UTF-8"?>
<svg width="1312px" height="799px" viewBox="0 0 1312 799" version="1.1" xmlns="http://www.w3.org/2000/svg" xmlns:xlink="http://www.w3.org/1999/xlink">
    <title>canvasStyle</title>
    <defs>
        <rect id="path-1" x="18" y="16" width="1276" height="768"></rect>
        <path d="M6,6 L7,6 L7,12 L6,12 L6,6 Z M9,6 L10,6 L10,12 L9,12 L9,6 Z M2,3 L2,4 L3,4 L3,14 C3,14.5522847 3.44771525,15 4,15 L12,15 C12.5522847,15 13,14.5522847 13,14 L13,4 L14,4 L14,3 L2,3 Z M4,14 L4,4 L12,4 L12,14 L4,14 Z M6,1 L10,1 L10,2 L6,2 L6,1 Z" id="path-3"></path>
        <path d="M13.25,9.815 L10.12,8 L13.25,6.185 C14.2515212,5.62844918 14.7465138,4.46231411 14.4511441,3.35526839 C14.1557744,2.24822266 13.1456556,1.48366481 12,1.5 C11.5628485,1.50089513 11.1335731,1.61640295 10.755,1.835 C10.1767338,2.16656937 9.75482775,2.71534347 9.58301633,3.35940159 C9.41120491,4.0034597 9.50371726,4.68946204 9.84,5.265 C10.1142244,5.73390948 10.5337146,6.10074402 11.035,6.31 L9.125,7.415 L2,3.3 L1.5,4.17 L8.12,8 L1.5,11.84 L2,12.71 L9.12,8.58 L11.03,9.685 C10.5287146,9.89425598 10.1092244,10.2610905 9.835,10.73 C9.49871726,11.305538 9.40620491,11.9915403 9.57801633,12.6355984 C9.74982775,13.2796565 10.1717338,13.8284306 10.75,14.16 C11.1295568,14.3811911 11.5606977,14.4984614 12,14.5 C13.1466079,14.5187077 14.1589144,13.7549217 14.4556424,12.6472158 C14.7523704,11.53951 14.2574213,10.3719661 13.255,9.815 L13.25,9.815 Z M10.7,4.765 C10.4976727,4.41937848 10.4419585,4.00719945 10.5452661,3.62026523 C10.6485738,3.23333102 10.9023239,2.90377596 11.25,2.705 C11.5947296,2.50586219 12.0044832,2.4519349 12.3889982,2.55509749 C12.7735133,2.65826007 13.1012453,2.91004934 13.3,3.255 C13.5007291,3.60017764 13.5555474,4.01114274 13.4523125,4.39686587 C13.3490776,4.78258901 13.0963107,5.11123204 12.75,5.31 L12.75,5.31 C12.0334043,5.72554737 11.115623,5.48155186 10.7,4.765 L10.7,4.765 Z M13.295,12.765 C13.0962453,13.1099507 12.7685133,13.3617399 12.3839982,13.4649025 C11.9994832,13.5680651 11.5897296,13.5141378 11.245,13.315 C10.5242684,12.9007864 10.2757865,11.9807316 10.69,11.26 C11.1042136,10.5392684 12.0242684,10.2907865 12.745,10.705 L12.745,10.705 C13.4562362,11.1167582 13.7037109,12.0241653 13.3,12.74 L13.295,12.765 Z" id="path-5"></path>
        <path d="M3,9 L2,9 L2,3 C2,2.44771525 2.44771525,2 3,2 L9,2 L9,3 L3,3 L3,9 Z M14,6 L14,14 L6,14 L6,6 L14,6 L14,6 Z M14,5 L6,5 C5.44771525,5 5,5.44771525 5,6 L5,14 C5,14.5522847 5.44771525,15 6,15 L14,15 C14.5522847,15 15,14.5522847 15,14 L15,6 C15,5.44771525 14.5522847,5 14,5 Z" id="path-7"></path>
        <path d="M13,10 L8.915,10 L10.21,8.705 L9.5,8 L7,10.5 L9.5,13 L10.205,12.295 L8.915,11 L13,11 L13,15 L14,15 L14,11 C14,10.4477153 13.5522847,10 13,10 Z M11.855,4.645 L8.355,1.145 C8.26064058,1.05140674 8.13290149,0.999231621 8,0.999991632 L3,0.999991632 C2.44771525,0.999991632 2,1.44771525 2,1.99999163 L2,13.9999916 C2,14.5522847 2.44771525,14.9999916 3,14.9999916 L7,14.9999916 L7,13.9999916 L3,13.9999916 L3,1.99999163 L7,1.99999163 L7,4.99999163 C7,5.55228475 7.44771525,5.99999163 8,5.99999163 L11,5.99999163 L11,6.99999163 L12,6.99999163 L12,4.99999163 C12.0007684,4.86709851 11.9485933,4.73935942 11.855,4.645 Z M8,2.205 L10.795,5 L8,5 L8,2.205 Z" id="path-9"></path>
    </defs>
    <g id="canvasStyle" stroke="none" stroke-width="1" fill="none" fill-rule="evenodd">
        <rect fill="#FFFFFF" x="0" y="0" width="1312" height="799"></rect>
        <mask id="mask-2" fill="white">
            <use xlink:href="#path-1"></use>
        </mask>
        <use id="Mask" stroke="#E0E0E0" fill="#F4F4F4" xlink:href="#path-1"></use>
        <g id="Group-5" mask="url(#mask-2)">
            <g transform="translate(208.000000, 239.000000)">
                <g id="Group-6" stroke-width="1" fill="none">
                    <g id="Group">
                        <g id="node-/-gray-10-theme-/-card-node-/-color-/-01-enabled">
                            <rect id="Background" fill="#FFFFFF" x="0" y="0" width="239" height="72"></rect>
                            <rect id="Left-border" fill="#161616" x="0" y="0" width="3" height="72"></rect>
                            <g id="Icon" transform="translate(16.006033, 14.968777)" fill="#000000">
                                <path d="M15.625,8.125 L15.625,2.5 L14.375,2.5 L14.375,3.75 L12.5,3.75 L12.5,5 L14.375,5 L14.375,8.125 L12.5,8.125 L12.5,9.375 L17.5,9.375 L17.5,8.125 L15.625,8.125 L15.625,8.125 Z M5.3125,3.75 C6.52062289,3.75 7.5,4.72937711 7.5,5.9375 C7.5,7.14562289 6.52062289,8.125 5.3125,8.125 C4.10437711,8.125 3.125,7.14562289 3.125,5.9375 C3.125,4.72937711 4.10437711,3.75 5.3125,3.75 M5.3125,2.5 C3.41402117,2.5 1.875,4.03902117 1.875,5.9375 C1.875,7.83597883 3.41402117,9.375 5.3125,9.375 C7.21097883,9.375 8.75,7.83597883 8.75,5.9375 C8.75,5.02581832 8.38783586,4.15147674 7.74317956,3.50682044 C7.09852326,2.86216414 6.22418168,2.5 5.3125,2.5 Z M5.3125,12.5 C6.52062289,12.5 7.5,13.4793771 7.5,14.6875 C7.5,15.8956229 6.52062289,16.875 5.3125,16.875 C4.10437711,16.875 3.125,15.8956229 3.125,14.6875 C3.125,13.4793771 4.10437711,12.5 5.3125,12.5 M5.3125,11.25 C3.41402117,11.25 1.875,12.7890212 1.875,14.6875 C1.875,16.5859788 3.41402117,18.125 5.3125,18.125 C7.21097883,18.125 8.75,16.5859788 8.75,14.6875 C8.75,12.7890212 7.21097883,11.25 5.3125,11.25 L5.3125,11.25 Z M14.6875,12.5 C15.8956229,12.5 16.875,13.4793771 16.875,14.6875 C16.875,15.8956229 15.8956229,16.875 14.6875,16.875 C13.4793771,16.875 12.5,15.8956229 12.5,14.6875 C12.5,13.4793771 13.4793771,12.5 14.6875,12.5 M14.6875,11.25 C12.7890212,11.25 11.25,12.7890212 11.25,14.6875 C11.25,16.5859788 12.7890212,18.125 14.6875,18.125 C16.5859788,18.125 18.125,16.5859788 18.125,14.6875 C18.125,12.7890212 16.5859788,11.25 14.6875,11.25 L14.6875,11.25 Z" id="Fill"></path>
                            </g>
                            <text id="Secondary-text" font-family="IBMPlexSans, IBM Plex Sans" font-size="14" font-weight="normal" line-spacing="18" letter-spacing="0.159999996" fill="#161616">
                                <tspan x="52.0060332" y="48">$body-short-01</tspan>
                            </text>
                            <text id="Primary-text" font-family="IBMPlexSans-SemiBold, IBM Plex Sans" font-size="14" font-weight="500" line-spacing="18" letter-spacing="0.159999996" fill="#161616">
                                <tspan x="52.0060332" y="30">$productive-heading-01</tspan>
                            </text>
                        </g>
                        <g transform="translate(35.000000, 156.000000)" id="node-/-gray-10-theme-/-card-node-/-color-/-01-enabled-copy">
                            <rect id="Background" fill="#FFFFFF" x="0" y="0" width="204" height="68"></rect>
                            <rect id="Left-border" fill="#161616" x="0" y="0" width="3" height="68"></rect>
                            <g id="Icon" transform="translate(16.006033, 14.968777)" fill="#000000">
                                <path d="M15.625,8.125 L15.625,2.5 L14.375,2.5 L14.375,3.75 L12.5,3.75 L12.5,5 L14.375,5 L14.375,8.125 L12.5,8.125 L12.5,9.375 L17.5,9.375 L17.5,8.125 L15.625,8.125 L15.625,8.125 Z M5.3125,3.75 C6.52062289,3.75 7.5,4.72937711 7.5,5.9375 C7.5,7.14562289 6.52062289,8.125 5.3125,8.125 C4.10437711,8.125 3.125,7.14562289 3.125,5.9375 C3.125,4.72937711 4.10437711,3.75 5.3125,3.75 M5.3125,2.5 C3.41402117,2.5 1.875,4.03902117 1.875,5.9375 C1.875,7.83597883 3.41402117,9.375 5.3125,9.375 C7.21097883,9.375 8.75,7.83597883 8.75,5.9375 C8.75,5.02581832 8.38783586,4.15147674 7.74317956,3.50682044 C7.09852326,2.86216414 6.22418168,2.5 5.3125,2.5 Z M5.3125,12.5 C6.52062289,12.5 7.5,13.4793771 7.5,14.6875 C7.5,15.8956229 6.52062289,16.875 5.3125,16.875 C4.10437711,16.875 3.125,15.8956229 3.125,14.6875 C3.125,13.4793771 4.10437711,12.5 5.3125,12.5 M5.3125,11.25 C3.41402117,11.25 1.875,12.7890212 1.875,14.6875 C1.875,16.5859788 3.41402117,18.125 5.3125,18.125 C7.21097883,18.125 8.75,16.5859788 8.75,14.6875 C8.75,12.7890212 7.21097883,11.25 5.3125,11.25 L5.3125,11.25 Z M14.6875,12.5 C15.8956229,12.5 16.875,13.4793771 16.875,14.6875 C16.875,15.8956229 15.8956229,16.875 14.6875,16.875 C13.4793771,16.875 12.5,15.8956229 12.5,14.6875 C12.5,13.4793771 13.4793771,12.5 14.6875,12.5 M14.6875,11.25 C12.7890212,11.25 11.25,12.7890212 11.25,14.6875 C11.25,16.5859788 12.7890212,18.125 14.6875,18.125 C16.5859788,18.125 18.125,16.5859788 18.125,14.6875 C18.125,12.7890212 16.5859788,11.25 14.6875,11.25 L14.6875,11.25 Z" id="Fill"></path>
                            </g>
                            <text id="Secondary-text" font-family="IBMPlexSans, IBM Plex Sans" font-size="14" font-weight="normal" line-spacing="18" letter-spacing="0.159999996" fill="#161616">
                                <tspan x="52.0060332" y="48">Accommodations</tspan>
                            </text>
                            <text id="Primary-text" font-family="IBMPlexSans-SemiBold, IBM Plex Sans" font-size="14" font-weight="500" line-spacing="18" letter-spacing="0.159999996" fill="#161616">
                                <tspan x="52.0060332" y="30">Dataset 02</tspan>
                            </text>
                        </g>
                    </g>
                    <g id="node-/-gray-10-theme-/-card-node-/-color-/-01-enabled-copy-2" transform="translate(346.000000, 83.000000)">
                        <rect id="Background" fill="#FFFFFF" x="0" y="0" width="204" height="68"></rect>
                        <rect id="Left-border" fill="#161616" x="0" y="0" width="3" height="68"></rect>
                        <g id="Icon" transform="translate(16.006033, 14.968777)" fill="#000000">
                            <path d="M7.5,6.25 L16.25,6.25 C16.939999,6.24913911 17.4991391,5.68999903 17.5,5 L17.5,2.5 C17.4991391,1.81000097 16.939999,1.25086089 16.25,1.25 L7.5,1.25 C6.81000097,1.25086089 6.25086089,1.81000097 6.25,2.5 L6.25,3.125 L3.75,3.125 L3.75,1.25 L2.5,1.25 L2.5,15.625 C2.50086089,16.314999 3.06000097,16.8741391 3.75,16.875 L6.25,16.875 L6.25,17.5 C6.25086089,18.189999 6.81000097,18.7491391 7.5,18.75 L16.25,18.75 C16.939999,18.7491391 17.4991391,18.189999 17.5,17.5 L17.5,15 C17.4991391,14.310001 16.939999,13.7508609 16.25,13.75 L7.5,13.75 C6.81000097,13.7508609 6.25086089,14.310001 6.25,15 L6.25,15.625 L3.75,15.625 L3.75,10.625 L6.25,10.625 L6.25,11.25 C6.25086089,11.939999 6.81000097,12.4991391 7.5,12.5 L16.25,12.5 C16.939999,12.4991391 17.4991391,11.939999 17.5,11.25 L17.5,8.75 C17.4991391,8.06000097 16.939999,7.50086089 16.25,7.5 L7.5,7.5 C6.81000097,7.50086089 6.25086089,8.06000097 6.25,8.75 L6.25,9.375 L3.75,9.375 L3.75,4.375 L6.25,4.375 L6.25,5 C6.25086089,5.68999903 6.81000097,6.24913911 7.5,6.25 Z M7.5,2.5 L16.25,2.5 L16.25075,5 L7.5,5 L7.5,2.5 Z M7.5,15 L16.25,15 L16.25075,17.5 L7.5,17.5 L7.5,15 Z M7.5,8.75 L16.25,8.75 L16.25075,11.25 L7.5,11.25 L7.5,8.75 Z" id="Fill"></path>
                        </g>
                        <text id="Secondary-text" font-family="IBMPlexSans, IBM Plex Sans" font-size="14" font-weight="normal" line-spacing="18" letter-spacing="0.159999996"></text>
                        <text id="Primary-text" font-family="IBMPlexSans-SemiBold, IBM Plex Sans" font-size="14" font-weight="500" line-spacing="18" letter-spacing="0.159999996" fill="#161616">
                            <tspan x="52.0060332" y="30">Type</tspan>
                        </text>
                    </g>
                    <g id="node-/-gray-10-theme-/-card-node-/-color-/-01-enabled-copy-3" transform="translate(658.000000, 13.000000)">
                        <rect id="Background" fill="#FFFFFF" x="0" y="0" width="204" height="86"></rect>
                        <rect id="Left-border" fill="#161616" x="0" y="0" width="3" height="86"></rect>
                        <g id="Icon" transform="translate(16.006033, 14.968777)" fill="#000000">
                            <path d="M11.25,17.5 L16.25,17.5 L16.25,18.75 L11.25,18.75 L11.25,17.5 Z M11.25,15 L18.75,15 L18.75,16.25 L11.25,16.25 L11.25,15 Z M11.25,12.5 L18.75,12.5 L18.75,13.75 L11.25,13.75 L11.25,12.5 Z M10.000625,16.545625 L10,16.545625 L2.6775,8.096875 L5.9375,3.75 L14.0625,3.75 L17.3225,8.096875 L15.2975,10.4325 L16.243125,11.25125 L18.9275,8.153125 L14.6875,2.5 L5.3125,2.5 L1.0725,8.153125 L9.055,17.36375 L10.000625,16.545625 L10.000625,16.545625 Z" id="Fill"></path>
                        </g>
                        <text id="Secondary-text" font-family="IBMPlexSans, IBM Plex Sans" font-size="14" font-weight="normal" line-spacing="18" letter-spacing="0.159999996" fill="#161616">
                            <tspan x="52.0060332" y="48">Customer service </tspan>
                            <tspan x="52.0060332" y="66">and Accommodat…</tspan>
                        </text>
                        <text id="Primary-text" font-family="IBMPlexSans-SemiBold, IBM Plex Sans" font-size="14" font-weight="500" line-spacing="18" letter-spacing="0.159999996" fill="#161616">
                            <tspan x="52.0060332" y="30">Text mining</tspan>
                        </text>
                    </g>
                    <g id="node-/-gray-10-theme-/-card-node-/-color-/-01-enabled-copy-4" transform="translate(658.000000, 254.000000)">
                        <rect id="Background" fill="#FFFFFF" x="0" y="0" width="204" height="68"></rect>
                        <rect id="Left-border" fill="#161616" x="0" y="0" width="3" height="68"></rect>
                        <g id="Icon" transform="translate(16.006033, 14.968777)" fill="#000000">
                            <path d="M8.125,18.75 C4.32804234,18.75 1.25,15.6719577 1.25,11.875 C1.25,8.07804234 4.32804234,5 8.125,5 C8.47017797,5 8.75,5.27982203 8.75,5.625 L8.75,11.25 L14.375,11.25 C14.720178,11.25 15,11.529822 15,11.875 C15,15.6719577 11.9219577,18.75 8.125,18.75 Z M7.5,6.2875 C4.57251589,6.61320942 2.3920636,9.14217577 2.50083115,12.0857144 C2.6095987,15.029253 4.97074704,17.3904013 7.91428564,17.4991689 C10.8578242,17.6079364 13.3867906,15.4274841 13.7125,12.5 L8.75,12.5 C8.05964406,12.5 7.5,11.9403559 7.5,11.25 L7.5,6.2875 Z M17.5,8.75 L11.875,8.75 C11.1846441,8.75 10.625,8.19035594 10.625,7.5 L10.625,1.875 C10.625,1.52982203 10.904822,1.25 11.25,1.25 C15.0469577,1.25 18.125,4.32804234 18.125,8.125 C18.125,8.47017797 17.845178,8.75 17.5,8.75 Z M11.875,7.5 L16.8375,7.5 C16.5445823,4.89021658 14.4847834,2.83041765 11.875,2.5375 L11.875,7.5 Z" id="Fill"></path>
                        </g>
                        <text id="Secondary-text" font-family="IBMPlexSans, IBM Plex Sans" font-size="14" font-weight="normal" line-spacing="18" letter-spacing="0.159999996" fill="#161616">
                            <tspan x="52.0060332" y="48">Pie chart</tspan>
                        </text>
                        <text id="Primary-text" font-family="IBMPlexSans-SemiBold, IBM Plex Sans" font-size="14" font-weight="500" line-spacing="18" letter-spacing="0.159999996" fill="#161616">
                            <tspan x="52.0060332" y="30">Chart</tspan>
                        </text>
                    </g>
                    <path id="Line-2" d="M251.416845,40.7977997 L251.809522,41.1073222 L330.134,102.845 L332.61018,99.7040179 L336.892678,108.809522 L327.038776,106.772218 L329.514,103.631 L251.190478,41.8926778 L250.7978,41.5831553 L251.416845,40.7977997 Z" fill="#979797" fill-rule="nonzero"></path>
                    <path id="Line-2-Copy" d="M251.416845,118.7978 L251.809522,119.107322 L330.134,180.845 L332.61018,177.704018 L336.892678,186.809522 L327.038776,184.772218 L329.514,181.631 L251.190478,119.892678 L250.7978,119.583155 L251.416845,118.7978 Z" transform="translate(294.000000, 153.000000) scale(1, -1) translate(-294.000000, -153.000000) " fill="#979797" fill-rule="nonzero"></path>
                    <path id="Line-2-Copy" d="M564.34455,55.8101918 L564.767179,56.077371 L644.582,106.535 L646.719921,103.154292 L651.922629,111.767179 L641.910694,110.761614 L644.047,107.38 L564.232821,56.922629 L563.810192,56.6554497 L564.34455,55.8101918 Z" transform="translate(608.000000, 84.000000) scale(1, -1) translate(-608.000000, -84.000000) " fill="#979797" fill-rule="nonzero"></path>
                    <path id="Line-3" d="M760.002028,116.99798 L761.00202,117.002028 L760.999996,117.502024 L760.534,232.502 L764.534376,232.518288 L759.997976,241.499996 L755.53445,232.481851 L759.534,232.497 L760.000004,117.497976 L760.002028,116.99798 Z" fill="#979797" fill-rule="nonzero"></path>
                </g>
                <rect id="Rectangle-Copy-2" fill="#C6C6C6" x="87" y="174" width="74" height="15"></rect>
                <rect id="Rectangle-Copy-4" fill="#C6C6C6" x="710" y="31" width="85.8151261" height="15"></rect>
                <rect id="Rectangle-Copy-8" fill="#C6C6C6" x="710" y="271" width="85.8151261" height="15"></rect>
                <rect id="Rectangle-Copy-7" fill="#C6C6C6" x="393" y="103" width="85.8151261" height="15"></rect>
                <rect id="Rectangle-Copy-3" fill="#E5E5E5" x="87" y="193" width="119" height="15"></rect>
                <rect id="Rectangle-Copy-5" fill="#E5E5E5" x="710" y="50" width="138" height="15"></rect>
                <rect id="Rectangle-Copy-9" fill="#E5E5E5" x="710" y="290" width="138" height="15"></rect>
                <rect id="Rectangle-Copy-6" fill="#E5E5E5" x="710" y="68" width="138" height="15"></rect>
            </g>
        </g>
        <rect id="Mask" stroke="#E0E0E0" mask="url(#mask-2)" x="18" y="16" width="1276" height="768"></rect>
        <g id="global-layout/-header-components-/-toolbar-/-super-condensed" mask="url(#mask-2)">
            <g transform="translate(16.000000, 15.000000)">
                <rect id="Toolbar-bg" fill="#FFFFFF" transform="translate(638.500000, 20.000000) scale(-1, 1) translate(-638.500000, -20.000000) " x="0" y="0" width="1277" height="40"></rect>
                <g id="Group-4" stroke-width="1" fill="none" transform="translate(5.000000, 0.000000)">
                    <rect id="Rectangle-Copy-30" fill="#DFE3E6" x="192" y="0" width="1" height="40"></rect>
                    <g id="Group-3" transform="translate(200.000000, 0.000000)">
                        <rect id="Rectangle-Copy-29" fill="#DFE3E6" x="32" y="0" width="1" height="40"></rect>
                        <g id="icon-button-/-01-enabled-copy-3" transform="translate(0.000000, 8.000000)">
                            <rect id="Background" x="0" y="0" width="24" height="24"></rect>
                            <g id="Icon" transform="translate(4.000000, 4.000000)">
                                <mask id="mask-4" fill="white">
                                    <use xlink:href="#path-3"></use>
                                </mask>
                                <use id="icon-color" fill="#161616" xlink:href="#path-3"></use>
                            </g>
                        </g>
                    </g>
                    <rect id="Rectangle-Copy-29" fill="#DFE3E6" x="72" y="0" width="1" height="40"></rect>
                    <g id="icon-button-/-01-enabled" transform="translate(80.000000, 8.000000)">
                        <rect id="Background" x="0" y="0" width="24" height="24"></rect>
                        <g id="Icon" transform="translate(4.000000, 4.000000)">
                            <mask id="mask-6" fill="white">
                                <use xlink:href="#path-5"></use>
                            </mask>
                            <use id="icon-color" fill="#161616" xlink:href="#path-5"></use>
                        </g>
                    </g>
                    <g id="icon-button-/-01-enabled-copy" transform="translate(120.000000, 8.000000)">
                        <rect id="Background" x="0" y="0" width="24" height="24"></rect>
                        <g id="Icon" transform="translate(4.000000, 4.000000)">
                            <mask id="mask-8" fill="white">
                                <use xlink:href="#path-7"></use>
                            </mask>
                            <use id="icon-color" fill="#161616" xlink:href="#path-7"></use>
                        </g>
                    </g>
                    <g id="icon-button-/-01-enabled-copy-2" transform="translate(160.000000, 8.000000)">
                        <rect id="Background" x="0" y="0" width="24" height="24"></rect>
                        <g id="Icon" transform="translate(4.000000, 4.000000)">
                            <mask id="mask-10" fill="white">
                                <use xlink:href="#path-9"></use>
                            </mask>
                            <use id="icon-color" fill="#161616" xlink:href="#path-9"></use>
                        </g>
                    </g>
                    <g id="icon-button-/-01-enabled-copy-5" transform="translate(0.000000, 8.000000)">
                        <rect id="Background" x="0" y="0" width="24" height="24"></rect>
                        <g id="Icon" transform="translate(4.000000, 4.000000)" fill="#161616">
                            <path d="M10,5 L3.90745,5 L5.70115,3.20705 L5,2.5 L2,5.5 L5,8.5 L5.70115,7.7927 L3.90895,6 L10,6 C11.6568542,6 13,7.34314575 13,9 C13,10.6568542 11.6568542,12 10,12 L6,12 L6,13 L10,13 C12.209139,13 14,11.209139 14,9 C14,6.790861 12.209139,5 10,5 Z" id="Fill"></path>
                        </g>
                    </g>
                    <g id="icon-button-/-01-enabled-copy-6" transform="translate(40.000000, 8.000000)">
                        <rect id="Background" x="0" y="0" width="24" height="24"></rect>
                        <g id="Icon" transform="translate(4.000000, 4.000000)" fill="#161616">
                            <path d="M6,5 L12.09255,5 L10.29885,3.20705 L11,2.5 L14,5.5 L11,8.5 L10.29885,7.7927 L12.09105,6 L6,6 C4.34314575,6 3,7.34314575 3,9 C3,10.6568542 4.34314575,12 6,12 L10,12 L10,13 L6,13 C3.790861,13 2,11.209139 2,9 C2,6.790861 3.790861,5 6,5 Z" id="Fill"></path>
                        </g>
                    </g>
                </g>
                <rect id="Bottom-divider" fill="#8D8D8D" x="0" y="39" width="1276" height="1"></rect>
                <g id="Group" stroke-width="1" fill="none" transform="translate(1239.000000, 0.000000)">
                    <g id="global-layout/-header-components/-messages/-active-">
                        <rect id="Rectangle" x="0" y="0" width="38" height="39"></rect>
                    </g>
                </g>
                <g id="Group-2" stroke-width="1" fill="none" transform="translate(1165.000000, 8.000000)">
                    <g id="Zoom-in">
                        <rect id="Background" x="0" y="0" width="24" height="24"></rect>
                        <g id="Icon" transform="translate(4.000000, 4.000000)" fill="#161616">
                            <path d="M9,6 L7,6 L7,4 L6,4 L6,6 L4,6 L4,7 L6,7 L6,9 L7,9 L7,7 L9,7 L9,6 L9,6 Z M10.72395,10 C11.5488722,9.0203987 12.0008598,7.78066962 12,6.5 C12,3.46243388 9.53756612,1 6.5,1 C3.46243388,1 1,3.46243388 1,6.5 C1,9.53756612 3.46243388,12 6.5,12 C7.78066962,12.0008598 9.0203987,11.5488722 10,10.72395 L13.79295,14.5 L14.5,13.79295 L10.72395,10 Z M6.5,11 C4.01471863,11 2,8.98528137 2,6.5 C2,4.01471863 4.01471863,2 6.5,2 C8.98528137,2 11,4.01471863 11,6.5 C10.9972444,8.98413909 8.98413909,10.9972444 6.5,11 Z" id="Fill"></path>
                        </g>
                    </g>
                    <g id="Zoom-out" transform="translate(40.000000, 0.000000)">
                        <rect id="Background" x="0" y="0" width="24" height="24"></rect>
                        <g id="Icon" transform="translate(4.000000, 4.000000)" fill="#161616">
                            <path d="M4,6 L9,6 L9,7 L4,7 L4,6 Z M10.72395,10 C11.5488722,9.0203987 12.0008598,7.78066962 12,6.5 C12,3.46243388 9.53756612,1 6.5,1 C3.46243388,1 1,3.46243388 1,6.5 C1,9.53756612 3.46243388,12 6.5,12 C7.78066962,12.0008598 9.0203987,11.5488722 10,10.72395 L13.79295,14.5 L14.5,13.79295 L10.72395,10 Z M6.5,11 C4.01471863,11 2,8.98528137 2,6.5 C2,4.01471863 4.01471863,2 6.5,2 C8.98528137,2 11,4.01471863 11,6.5 C10.9972444,8.98413909 8.98413909,10.9972444 6.5,11 Z" id="Fill"></path>
                        </g>
                    </g>
                </g>
                <g id="center-to-fit" stroke-width="1" fill="none" transform="translate(1248.000000, 12.000000)">
                    <polygon id="Path" fill="#161616" fill-rule="nonzero" points="4 1 1 1 1 4 2 4 2 2 4 2"></polygon>
                    <polygon id="Path" fill="#161616" fill-rule="nonzero" points="12 1 15 1 15 4 14 4 14 2 12 2"></polygon>
                    <polygon id="Path" fill="#161616" fill-rule="nonzero" points="4 15 1 15 1 12 2 12 2 14 4 14"></polygon>
                    <polygon id="Path" fill="#161616" fill-rule="nonzero" points="12 15 15 15 15 12 14 12 14 14 12 14"></polygon>
                    <path d="M12,12 L4,12 C3.44797796,11.9993663 3.00063373,11.552022 3,11 L3,5 C3.00063373,4.44797796 3.44797796,4.00063373 4,4 L12,4 C12.552022,4.00063373 12.9993663,4.44797796 13,5 L13,11 C12.9993663,11.552022 12.552022,11.9993663 12,12 Z M4,5 L4,11 L12,11 L12,5 L4,5 Z" id="Shape" fill="#161616" fill-rule="nonzero"></path>
                    <rect id="_Transparent_Rectangle_" x="0" y="0" width="16" height="16"></rect>
                </g>
            </g>
        </g>
        <g id="Group" mask="url(#mask-2)">
            <g transform="translate(208.000000, 172.000000)" id="Spec-/-Callout-/-Token-/-No-arrow-/-Light">
                <rect id="Background" fill="#D12771" x="0" y="0" width="98" height="18" rx="2"></rect>
                <g id="Spacer" transform="translate(94.000000, 0.000000)">
                    <rect id="spacer" x="0" y="0" width="4" height="16"></rect>
                </g>
                <text id="Text" font-family="IBMPlexSans, IBM Plex Sans" font-size="12" font-weight="normal" line-spacing="16" letter-spacing="0.32" fill="#FFFFFF">
                    <tspan x="4" y="13">$ui-background</tspan>
                </text>
            </g>
        </g>
        <g id="Group" mask="url(#mask-2)">
            <g transform="translate(208.000000, 211.000000)" id="Spec-/-Callout-/-Token-/-No-arrow-/-Light-Copy">
                <path d="M55,-5.68434189e-14 C56.1045695,-5.7046325e-14 57,0.8954305 57,2 L57,16 C57,17.1045695 56.1045695,18 55,18 L32.156,18 L28.5,21.6568542 L24.843,18 L2,18 C0.8954305,18 1.3527075e-16,17.1045695 0,16 L0,2 C-1.3527075e-16,0.8954305 0.8954305,-5.66405127e-14 2,-5.68434189e-14 L55,-5.68434189e-14 Z" id="Background" fill="#D12771"></path>
                <g id="Spacer" transform="translate(53.000000, 0.000000)">
                    <rect id="spacer" x="0" y="0" width="4" height="16"></rect>
                </g>
                <text id="Text" font-family="IBMPlexSans, IBM Plex Sans" font-size="12" font-weight="normal" line-spacing="16" letter-spacing="0.32" fill="#FFFFFF">
                    <tspan x="4" y="13">$ui-01</tspan>
                </text>
            </g>
        </g>
        <g id="Group" mask="url(#mask-2)">
            <g transform="translate(146.000000, 271.000000)" id="Spec-/-Callout-/-Token-/-No-arrow-/-Light-Copy-2">
                <path d="M50.9596299,0 C52.0641994,3.72131305e-15 52.9596299,0.8954305 52.9596299,2 L52.959,5.343 L56.6164842,9 L52.959,12.656 L52.9596299,16 C52.9596299,17.1045695 52.0641994,18 50.9596299,18 L2,18 C0.8954305,18 1.3527075e-16,17.1045695 0,16 L0,2 C-5.7935996e-16,0.8954305 0.8954305,2.02906125e-16 2,0 L50.9596299,0 Z" id="Background" fill="#D12771"></path>
                <g id="Spacer" transform="translate(49.000000, 0.000000)">
                    <rect id="spacer" x="0" y="0" width="4" height="16"></rect>
                </g>
                <text id="Text" font-family="IBMPlexSans, IBM Plex Sans" font-size="12" font-weight="normal" line-spacing="16" letter-spacing="0.32" fill="#FFFFFF">
                    <tspan x="4" y="13">$ui-05</tspan>
                </text>
            </g>
        </g>
    </g>
</svg>