<?xml version="1.0" encoding="UTF-8"?>
<svg width="928px" height="928px" viewBox="0 0 928 928" version="1.1" xmlns="http://www.w3.org/2000/svg" xmlns:xlink="http://www.w3.org/1999/xlink">
    <title>cardNodeSpacing</title>
    <g id="cardNodeSpacing" stroke="none" stroke-width="1" fill="none" fill-rule="evenodd">
        <rect fill="#FFFFFF" x="0" y="0" width="928" height="928"></rect>
        <g id="Group-5" transform="translate(72.000000, 72.000000)">
            <g id="Group-9" transform="translate(0.000000, 306.718777)">
                <g id="Group-2">
                    <g id="Utilities-/-Spacer-/-Component-/-Horizontal-/-Spacing-05-(16px)-/-On-/-Light" transform="translate(58.034617, 96.937555)">
                        <rect id="Spacer" fill="#D9FBFB" style="mix-blend-mode: multiply;" x="0" y="0" width="16" height="68.0282963"></rect>
                        <line x1="0.5" y1="0" x2="0.5" y2="68.0282963" id="Line" stroke="#007D79" stroke-dasharray="2"></line>
                        <line x1="15.5" y1="0" x2="15.5" y2="68.0282963" id="Line" stroke="#007D79" stroke-dasharray="2"></line>
                    </g>
                    <g id="Spec-/-span-/-Horizontal-/-Top-/--Light-/-Teal-Copy-6" transform="translate(58.000000, 61.937555)" fill="#007D79">
                        <path id="Line" d="M12,14.5 L12,15.5 L8.5,15.499 L8.5,30.499 L12,30.5 L12,31.5 L4,31.5 L4,30.5 L7.5,30.499 L7.5,15.499 L4,15.5 L4,14.5 L12,14.5 Z" transform="translate(8.000000, 23.000000) rotate(-270.000000) translate(-8.000000, -23.000000) " fill-rule="nonzero"></path>
                        <text id="Text" font-family="IBMPlexSans, IBM Plex Sans" font-size="12" font-weight="normal" line-spacing="16" letter-spacing="0.32">
                            <tspan x="0.48" y="12">16</tspan>
                        </text>
                    </g>
                    <g id="Group-8" transform="translate(0.000000, 96.937555)">
                        <rect id="Rectangle-Copy-6" stroke="#979797" fill="#F4F4F4" x="58.4939668" y="0.531222724" width="203" height="67"></rect>
                        <g id="Spec-/-Icon-box-/-Vertical-/-Top-/-20px-/-Light-Copy-2" transform="translate(58.000000, 16.031223)">
                            <g id="Icon-box" transform="translate(16.000000, 0.000000)">
                                <rect id="Line" fill="#D12771" x="9.5" y="19" width="1" height="46.5"></rect>
                                <rect id="Box" stroke="#D12771" x="0.5" y="0.5" width="19" height="19"></rect>
                            </g>
                            <text id="Text" font-family="IBMPlexSans, IBM Plex Sans" font-size="12" font-weight="normal" line-spacing="16" letter-spacing="0.32" fill="#D12771">
                                <tspan x="18.48" y="81.5">20</tspan>
                            </text>
                        </g>
                        <g id="Fill" transform="translate(74.000000, 16.031223)" fill="#000000">
                            <path d="M10,6.25 C7.92893219,6.25 6.25,7.92893219 6.25,10 L6.25,15 C6.25,17.0710678 7.92893219,18.75 10,18.75 C12.0710678,18.75 13.75,17.0710678 13.75,15 L13.75,10 C13.75,7.92893219 12.0710678,6.25 10,6.25 Z M7.34375,11.16875 L12.65625,11.16875 L12.65625,13.825 L7.34375,13.825 L7.34375,11.16875 Z M10,17.65625 C8.53583704,17.649408 7.35059199,16.464163 7.34375,15 L7.34375,14.91875 L12.65625,14.91875 L12.65625,15 C12.649408,16.464163 11.464163,17.649408 10,17.65625 L10,17.65625 Z M12.65625,10.075 L7.34375,10.075 L7.34375,10 C7.34375,8.53299363 8.53299363,7.34375 10,7.34375 C11.4670064,7.34375 12.65625,8.53299363 12.65625,10 L12.65625,10.075 Z M19.1625,12.00625 L15,8.125 L15,13.8125 C15,15.1932119 16.1192881,16.3125 17.5,16.3125 C18.8807119,16.3125 20,15.1932119 20,13.8125 C19.99634,13.1173734 19.6906884,12.4581697 19.1625,12.00625 L19.1625,12.00625 Z M17.5,15.21875 C16.7233496,15.21875 16.09375,14.5891504 16.09375,13.8125 L16.09375,10.625 L18.41875,12.79375 L18.41875,12.79375 C18.7016767,13.0317436 18.8680062,13.3803521 18.875,13.75 C18.8919155,14.1283018 18.7555452,14.4974378 18.4967463,14.7738822 C18.2379473,15.0503265 17.8785945,15.2107129 17.5,15.21875 L17.5,15.21875 Z M0,13.8125 C0,15.1932119 1.11928813,16.3125 2.5,16.3125 C3.88071187,16.3125 5,15.1932119 5,13.8125 L5,8.125 L0.8375,12.00625 C0.312648649,12.4606915 0.00774088769,13.118291 0,13.8125 L0,13.8125 Z M1.55,12.8375 L1.55,12.8375 L3.90625,10.625 L3.90625,13.8125 C3.90625,14.5891504 3.27665043,15.21875 2.5,15.21875 C1.72334957,15.21875 1.09375,14.5891504 1.09375,13.8125 C1.09530728,13.4362762 1.26214314,13.0797503 1.55,12.8375 L1.55,12.8375 Z M9.375,3.4375 C9.375,2.22937711 8.39562289,1.25 7.1875,1.25 C5.97937711,1.25 5,2.22937711 5,3.4375 C5,4.64562289 5.97937711,5.625 7.1875,5.625 C8.39562289,5.625 9.375,4.64562289 9.375,3.4375 Z M6.09375,3.4375 C6.09375,2.83343855 6.58343855,2.34375 7.1875,2.34375 C7.79156145,2.34375 8.28125,2.83343855 8.28125,3.4375 C8.28125,4.04156145 7.79156145,4.53125 7.1875,4.53125 C6.58625928,4.52449385 6.10050615,4.03874072 6.09375,3.4375 Z M12.8125,1.25 C11.6043771,1.25 10.625,2.22937711 10.625,3.4375 C10.625,4.64562289 11.6043771,5.625 12.8125,5.625 C14.0206229,5.625 15,4.64562289 15,3.4375 C15,2.22937711 14.0206229,1.25 12.8125,1.25 Z M12.8125,4.53125 C12.2084386,4.53125 11.71875,4.04156145 11.71875,3.4375 C11.71875,2.83343855 12.2084386,2.34375 12.8125,2.34375 C13.4165614,2.34375 13.90625,2.83343855 13.90625,3.4375 C13.8994938,4.03874072 13.4137407,4.52449385 12.8125,4.53125 L12.8125,4.53125 Z"></path>
                        </g>
                        <g id="Group" transform="translate(110.000000, 0.000000)">
                            <rect id="Background" fill="#8A3FFC" x="0" y="0" width="16" height="16"></rect>
                            <text id="16" font-family="IBMPlexSans-SemiBold, IBM Plex Sans" font-size="8" font-weight="500" line-spacing="10" fill="#FFFFFF">
                                <tspan x="2" y="9">16</tspan>
                            </text>
                        </g>
                        <g id="Group" transform="translate(110.000000, 52.000000)">
                            <rect id="Background" fill="#8A3FFC" x="0" y="0" width="16" height="16"></rect>
                            <text id="16" font-family="IBMPlexSans-SemiBold, IBM Plex Sans" font-size="8" font-weight="500" line-spacing="10" fill="#FFFFFF">
                                <tspan x="2" y="9">16</tspan>
                            </text>
                        </g>
                        <text id="Primary-text-Copy-4" font-family="IBMPlexSans-SemiBold, IBM Plex Sans" font-size="14" font-weight="500" fill="#000000">
                            <tspan x="110" y="30.0312227">Primary text</tspan>
                        </text>
                        <text id="Secondary-text-Copy-2" font-family="IBMPlexSans, IBM Plex Sans" font-size="14" font-weight="normal" fill="#000000">
                            <tspan x="110" y="48.0312227">Secondary text</tspan>
                        </text>
                        <rect id="Rectangle-Copy-7" stroke="#D02670" x="110.5" y="16.5312227" width="135.5" height="35"></rect>
                        <g id="Spec-/-span-/-Vertical-/-Left-/-Dark-/-Magenta-Copy-20" transform="translate(0.000000, 0.031223)" fill="#D12771">
                            <text id="Text" font-family="IBMPlexSans, IBM Plex Sans" font-size="12" font-weight="normal" line-spacing="16" letter-spacing="0.32">
                                <tspan x="10.92" y="37.5599013">68px</tspan>
                            </text>
                            <path id="Line" d="M14,30 L14,33.499 L81,33.499 L81,30 L82,30 L82,38 L81,38 L81,34.499 L14,34.499 L14,38 L13,38 L13,30 L14,30 Z" transform="translate(47.500000, 34.000000) rotate(-270.000000) translate(-47.500000, -34.000000) " fill-rule="nonzero"></path>
                        </g>
                    </g>
                    <g id="Utilities-/-Spacer-/-Component-/-Horizontal-/-Spacing-05-(16px)-/-On-/-Light" transform="translate(58.034617, 96.937555)">
                        <rect id="Spacer" fill="#D9FBFB" style="mix-blend-mode: multiply;" x="0" y="0" width="16" height="68.0282963"></rect>
                        <line x1="0.5" y1="0" x2="0.5" y2="68.0282963" id="Line" stroke="#007D79" stroke-dasharray="2"></line>
                        <line x1="15.5" y1="0" x2="15.5" y2="68.0282963" id="Line" stroke="#007D79" stroke-dasharray="2"></line>
                    </g>
                    <g id="Utilities-/-Spacer-/-Component-/-Horizontal-/-Spacing-05-(16px)-/-On-/-Light" transform="translate(94.034617, 96.937555)">
                        <rect id="Spacer" fill="#D9FBFB" style="mix-blend-mode: multiply;" x="0" y="0" width="16" height="68.0282963"></rect>
                        <line x1="0.5" y1="0" x2="0.5" y2="68.0282963" id="Line" stroke="#007D79" stroke-dasharray="2"></line>
                        <line x1="15.5" y1="0" x2="15.5" y2="68.0282963" id="Line" stroke="#007D79" stroke-dasharray="2"></line>
                    </g>
                    <g id="Utilities-/-Spacer-/-Component-/-Horizontal-/-Spacing-05-(16px)-/-On-/-Light" transform="translate(246.034617, 96.937555)">
                        <rect id="Spacer" fill="#D9FBFB" style="mix-blend-mode: multiply;" x="0" y="0" width="16" height="68.0282963"></rect>
                        <line x1="0.5" y1="0" x2="0.5" y2="68.0282963" id="Line" stroke="#007D79" stroke-dasharray="2"></line>
                        <line x1="15.5" y1="0" x2="15.5" y2="68.0282963" id="Line" stroke="#007D79" stroke-dasharray="2"></line>
                    </g>
                    <g id="Group-7" transform="translate(0.000000, 247.687555)">
                        <rect id="Rectangle-Copy-18" stroke="#979797" fill="#F4F4F4" x="58.4939668" y="0.531222724" width="203" height="85"></rect>
                        <g id="Spec-/-Icon-box-/-Vertical-/-Top-/-20px-/-Light-Copy-4" transform="translate(58.000000, 16.031223)">
                            <g id="Icon-box" transform="translate(16.000000, 0.000000)">
                                <rect id="Line" fill="#D12771" x="9.5" y="19" width="1" height="64"></rect>
                                <rect id="Box" stroke="#D12771" x="0.5" y="0.5" width="19" height="19"></rect>
                            </g>
                            <text id="Text" font-family="IBMPlexSans, IBM Plex Sans" font-size="12" font-weight="normal" line-spacing="16" letter-spacing="0.32" fill="#D12771">
                                <tspan x="18.48" y="99">20</tspan>
                            </text>
                        </g>
                        <g id="Fill" transform="translate(74.000000, 16.031223)" fill="#000000">
                            <path d="M10,6.25 C7.92893219,6.25 6.25,7.92893219 6.25,10 L6.25,15 C6.25,17.0710678 7.92893219,18.75 10,18.75 C12.0710678,18.75 13.75,17.0710678 13.75,15 L13.75,10 C13.75,7.92893219 12.0710678,6.25 10,6.25 Z M7.34375,11.16875 L12.65625,11.16875 L12.65625,13.825 L7.34375,13.825 L7.34375,11.16875 Z M10,17.65625 C8.53583704,17.649408 7.35059199,16.464163 7.34375,15 L7.34375,14.91875 L12.65625,14.91875 L12.65625,15 C12.649408,16.464163 11.464163,17.649408 10,17.65625 L10,17.65625 Z M12.65625,10.075 L7.34375,10.075 L7.34375,10 C7.34375,8.53299363 8.53299363,7.34375 10,7.34375 C11.4670064,7.34375 12.65625,8.53299363 12.65625,10 L12.65625,10.075 Z M19.1625,12.00625 L15,8.125 L15,13.8125 C15,15.1932119 16.1192881,16.3125 17.5,16.3125 C18.8807119,16.3125 20,15.1932119 20,13.8125 C19.99634,13.1173734 19.6906884,12.4581697 19.1625,12.00625 L19.1625,12.00625 Z M17.5,15.21875 C16.7233496,15.21875 16.09375,14.5891504 16.09375,13.8125 L16.09375,10.625 L18.41875,12.79375 L18.41875,12.79375 C18.7016767,13.0317436 18.8680062,13.3803521 18.875,13.75 C18.8919155,14.1283018 18.7555452,14.4974378 18.4967463,14.7738822 C18.2379473,15.0503265 17.8785945,15.2107129 17.5,15.21875 L17.5,15.21875 Z M0,13.8125 C0,15.1932119 1.11928813,16.3125 2.5,16.3125 C3.88071187,16.3125 5,15.1932119 5,13.8125 L5,8.125 L0.8375,12.00625 C0.312648649,12.4606915 0.00774088769,13.118291 0,13.8125 L0,13.8125 Z M1.55,12.8375 L1.55,12.8375 L3.90625,10.625 L3.90625,13.8125 C3.90625,14.5891504 3.27665043,15.21875 2.5,15.21875 C1.72334957,15.21875 1.09375,14.5891504 1.09375,13.8125 C1.09530728,13.4362762 1.26214314,13.0797503 1.55,12.8375 L1.55,12.8375 Z M9.375,3.4375 C9.375,2.22937711 8.39562289,1.25 7.1875,1.25 C5.97937711,1.25 5,2.22937711 5,3.4375 C5,4.64562289 5.97937711,5.625 7.1875,5.625 C8.39562289,5.625 9.375,4.64562289 9.375,3.4375 Z M6.09375,3.4375 C6.09375,2.83343855 6.58343855,2.34375 7.1875,2.34375 C7.79156145,2.34375 8.28125,2.83343855 8.28125,3.4375 C8.28125,4.04156145 7.79156145,4.53125 7.1875,4.53125 C6.58625928,4.52449385 6.10050615,4.03874072 6.09375,3.4375 Z M12.8125,1.25 C11.6043771,1.25 10.625,2.22937711 10.625,3.4375 C10.625,4.64562289 11.6043771,5.625 12.8125,5.625 C14.0206229,5.625 15,4.64562289 15,3.4375 C15,2.22937711 14.0206229,1.25 12.8125,1.25 Z M12.8125,4.53125 C12.2084386,4.53125 11.71875,4.04156145 11.71875,3.4375 C11.71875,2.83343855 12.2084386,2.34375 12.8125,2.34375 C13.4165614,2.34375 13.90625,2.83343855 13.90625,3.4375 C13.8994938,4.03874072 13.4137407,4.52449385 12.8125,4.53125 L12.8125,4.53125 Z"></path>
                        </g>
                        <g id="Group" transform="translate(110.000000, 0.000000)">
                            <rect id="Background" fill="#8A3FFC" x="0" y="0" width="16" height="16"></rect>
                            <text id="16" font-family="IBMPlexSans-SemiBold, IBM Plex Sans" font-size="8" font-weight="500" line-spacing="10" fill="#FFFFFF">
                                <tspan x="2" y="9">16</tspan>
                            </text>
                        </g>
                        <g id="Group" transform="translate(110.000000, 70.031223)">
                            <rect id="Background" fill="#8A3FFC" x="0" y="0" width="16" height="16"></rect>
                            <text id="16" font-family="IBMPlexSans-SemiBold, IBM Plex Sans" font-size="8" font-weight="500" line-spacing="10" fill="#FFFFFF">
                                <tspan x="2" y="9">16</tspan>
                            </text>
                        </g>
                        <text id="Primary-text-Copy-12" font-family="IBMPlexSans-SemiBold, IBM Plex Sans" font-size="14" font-weight="500" fill="#000000">
                            <tspan x="110" y="30.0312227">Primary text</tspan>
                        </text>
                        <text id="Secondary-text-multi" font-family="IBMPlexSans, IBM Plex Sans" font-size="14" font-weight="normal" fill="#000000">
                            <tspan x="110" y="48.0312227">Secondary text</tspan>
                            <tspan x="110" y="66.0312227">multiple lines</tspan>
                        </text>
                        <rect id="Rectangle-Copy-19" stroke="#D02670" x="110.5" y="16.5312227" width="135.5" height="53"></rect>
                        <g id="Spec-/-span-/-Vertical-/-Left-/-Dark-/-Magenta-Copy-14" fill="#D12771">
                            <text id="Text" font-family="IBMPlexSans, IBM Plex Sans" font-size="12" font-weight="normal" line-spacing="16" letter-spacing="0.32">
                                <tspan x="10.92" y="46.5757576">86px</tspan>
                            </text>
                            <path id="Line" d="M5,39 L5,42.499 L90,42.499 L90,39 L91,39 L91,47 L90,47 L90,43.499 L5,43.499 L5,47 L4,47 L4,39 L5,39 Z" transform="translate(47.500000, 43.000000) rotate(-270.000000) translate(-47.500000, -43.000000) " fill-rule="nonzero"></path>
                        </g>
                    </g>
                    <g id="Utilities-/-Spacer-/-Component-/-Horizontal-/-Spacing-05-(16px)-/-On-/-Light-Copy-4" transform="translate(58.034617, 247.715851)">
                        <rect id="Spacer" fill="#D9FBFB" style="mix-blend-mode: multiply;" x="0" y="0" width="16" height="85.5"></rect>
                        <line x1="0.5" y1="0" x2="0.5" y2="85.5" id="Line" stroke="#007D79" stroke-dasharray="2"></line>
                        <line x1="15.5" y1="0" x2="15.5" y2="85.5" id="Line" stroke="#007D79" stroke-dasharray="2"></line>
                    </g>
                    <g id="Utilities-/-Spacer-/-Component-/-Horizontal-/-Spacing-05-(16px)-/-On-/-Light-Copy-4" transform="translate(94.034617, 247.715851)">
                        <rect id="Spacer" fill="#D9FBFB" style="mix-blend-mode: multiply;" x="0" y="0" width="16" height="85.5"></rect>
                        <line x1="0.5" y1="0" x2="0.5" y2="85.5" id="Line" stroke="#007D79" stroke-dasharray="2"></line>
                        <line x1="15.5" y1="0" x2="15.5" y2="85.5" id="Line" stroke="#007D79" stroke-dasharray="2"></line>
                    </g>
                    <g id="Utilities-/-Spacer-/-Component-/-Horizontal-/-Spacing-05-(16px)-/-On-/-Light-Copy-4" transform="translate(246.034617, 247.715851)">
                        <rect id="Spacer" fill="#D9FBFB" style="mix-blend-mode: multiply;" x="0" y="0" width="16" height="85.5"></rect>
                        <line x1="0.5" y1="0" x2="0.5" y2="85.5" id="Line" stroke="#007D79" stroke-dasharray="2"></line>
                        <line x1="15.5" y1="0" x2="15.5" y2="85.5" id="Line" stroke="#007D79" stroke-dasharray="2"></line>
                    </g>
                    <text id=":enabled-icon-top-al" font-family="IBMPlexSans-Bold, IBM Plex Sans" font-size="14" font-weight="bold" line-spacing="18" letter-spacing="0.159999996" fill="#6F6F6F">
                        <tspan x="58" y="14">:enabled</tspan>
                        <tspan x="58" y="32" font-family="IBMPlexSans, IBM Plex Sans" font-weight="normal">icon top aligned</tspan>
                    </text>
                    <g id="Spec-/-span-/-Horizontal-/-Top-/--Light-/-Teal-Copy-6" transform="translate(58.000000, 61.937555)" fill="#007D79">
                        <path id="Line" d="M12,14.5 L12,15.5 L8.5,15.499 L8.5,30.499 L12,30.5 L12,31.5 L4,31.5 L4,30.5 L7.5,30.499 L7.5,15.499 L4,15.5 L4,14.5 L12,14.5 Z" transform="translate(8.000000, 23.000000) rotate(-270.000000) translate(-8.000000, -23.000000) " fill-rule="nonzero"></path>
                        <text id="Text" font-family="IBMPlexSans, IBM Plex Sans" font-size="12" font-weight="normal" line-spacing="16" letter-spacing="0.32">
                            <tspan x="0.48" y="12">16</tspan>
                        </text>
                    </g>
                    <g id="Spec-/-span-/-Horizontal-/-Top-/--Light-/-Teal-Copy-6" transform="translate(58.000000, 213.468777)" fill="#007D79">
                        <path id="Line" d="M12,14.5 L12,15.5 L8.5,15.499 L8.5,30.499 L12,30.5 L12,31.5 L4,31.5 L4,30.5 L7.5,30.499 L7.5,15.499 L4,15.5 L4,14.5 L12,14.5 Z" transform="translate(8.000000, 23.000000) rotate(-270.000000) translate(-8.000000, -23.000000) " fill-rule="nonzero"></path>
                        <text id="Text" font-family="IBMPlexSans, IBM Plex Sans" font-size="12" font-weight="normal" line-spacing="16" letter-spacing="0.32">
                            <tspan x="0.48" y="12">16</tspan>
                        </text>
                    </g>
                    <g id="Spec-/-span-/-Horizontal-/-Top-/--Light-/-Teal-Copy-6" transform="translate(94.034617, 61.937555)" fill="#007D79">
                        <path id="Line" d="M12,14.5 L12,15.5 L8.5,15.499 L8.5,30.499 L12,30.5 L12,31.5 L4,31.5 L4,30.5 L7.5,30.499 L7.5,15.499 L4,15.5 L4,14.5 L12,14.5 Z" transform="translate(8.000000, 23.000000) rotate(-270.000000) translate(-8.000000, -23.000000) " fill-rule="nonzero"></path>
                        <text id="Text" font-family="IBMPlexSans, IBM Plex Sans" font-size="12" font-weight="normal" line-spacing="16" letter-spacing="0.32">
                            <tspan x="0.48" y="12">16</tspan>
                        </text>
                    </g>
                    <g id="Spec-/-span-/-Horizontal-/-Top-/--Light-/-Teal-Copy-6" transform="translate(94.034617, 213.468777)" fill="#007D79">
                        <path id="Line" d="M12,14.5 L12,15.5 L8.5,15.499 L8.5,30.499 L12,30.5 L12,31.5 L4,31.5 L4,30.5 L7.5,30.499 L7.5,15.499 L4,15.5 L4,14.5 L12,14.5 Z" transform="translate(8.000000, 23.000000) rotate(-270.000000) translate(-8.000000, -23.000000) " fill-rule="nonzero"></path>
                        <text id="Text" font-family="IBMPlexSans, IBM Plex Sans" font-size="12" font-weight="normal" line-spacing="16" letter-spacing="0.32">
                            <tspan x="0.48" y="12">16</tspan>
                        </text>
                    </g>
                    <g id="Spec-/-span-/-Horizontal-/-Top-/--Light-/-Teal-Copy-6" transform="translate(246.034617, 61.937555)" fill="#007D79">
                        <path id="Line" d="M12,14.5 L12,15.5 L8.5,15.499 L8.5,30.499 L12,30.5 L12,31.5 L4,31.5 L4,30.5 L7.5,30.499 L7.5,15.499 L4,15.5 L4,14.5 L12,14.5 Z" transform="translate(8.000000, 23.000000) rotate(-270.000000) translate(-8.000000, -23.000000) " fill-rule="nonzero"></path>
                        <text id="Text" font-family="IBMPlexSans, IBM Plex Sans" font-size="12" font-weight="normal" line-spacing="16" letter-spacing="0.32">
                            <tspan x="0.48" y="12">16</tspan>
                        </text>
                    </g>
                    <g id="Spec-/-span-/-Horizontal-/-Top-/--Light-/-Teal-Copy-6" transform="translate(246.034617, 213.468777)" fill="#007D79">
                        <path id="Line" d="M12,14.5 L12,15.5 L8.5,15.499 L8.5,30.499 L12,30.5 L12,31.5 L4,31.5 L4,30.5 L7.5,30.499 L7.5,15.499 L4,15.5 L4,14.5 L12,14.5 Z" transform="translate(8.000000, 23.000000) rotate(-270.000000) translate(-8.000000, -23.000000) " fill-rule="nonzero"></path>
                        <text id="Text" font-family="IBMPlexSans, IBM Plex Sans" font-size="12" font-weight="normal" line-spacing="16" letter-spacing="0.32">
                            <tspan x="0.48" y="12">16</tspan>
                        </text>
                    </g>
                </g>
                <g id="Group-4" transform="translate(390.034617, 0.000000)">
                    <text id=":enabled-icon-center" font-family="IBMPlexSans-Bold, IBM Plex Sans" font-size="14" font-weight="bold" line-spacing="18" letter-spacing="0.159999996" fill="#6F6F6F">
                        <tspan x="57.8168667" y="14">:enabled</tspan>
                        <tspan x="57.8168667" y="32" font-family="IBMPlexSans, IBM Plex Sans" font-weight="normal">icon centered vertically </tspan>
                        <tspan x="57.8168667" y="50" font-family="IBMPlexSans, IBM Plex Sans" font-weight="normal">between two lines of text</tspan>
                    </text>
                    <g id="Group-3" transform="translate(0.000000, 247.715851)">
                        <rect id="Rectangle-Copy-22" stroke="#979797" fill="#F4F4F4" x="58.4939668" y="0.531222724" width="203" height="85"></rect>
                        <g id="Spec-/-Icon-box-/-Vertical-/-Top-/-20px-/-Light-Copy-5" transform="translate(58.000000, 23.500000)">
                            <g id="Icon-box" transform="translate(16.000000, 0.000000)">
                                <rect id="Line" fill="#D12771" x="9.5" y="19" width="1" height="59"></rect>
                                <rect id="Box" stroke="#D12771" x="0.5" y="0.5" width="19" height="19"></rect>
                            </g>
                            <text id="Text" font-family="IBMPlexSans, IBM Plex Sans" font-size="12" font-weight="normal" line-spacing="16" letter-spacing="0.32" fill="#D12771">
                                <tspan x="18.48" y="94">20</tspan>
                            </text>
                        </g>
                        <g id="Fill" transform="translate(74.000000, 23.500000)" fill="#000000">
                            <path d="M10,6.25 C7.92893219,6.25 6.25,7.92893219 6.25,10 L6.25,15 C6.25,17.0710678 7.92893219,18.75 10,18.75 C12.0710678,18.75 13.75,17.0710678 13.75,15 L13.75,10 C13.75,7.92893219 12.0710678,6.25 10,6.25 Z M7.34375,11.16875 L12.65625,11.16875 L12.65625,13.825 L7.34375,13.825 L7.34375,11.16875 Z M10,17.65625 C8.53583704,17.649408 7.35059199,16.464163 7.34375,15 L7.34375,14.91875 L12.65625,14.91875 L12.65625,15 C12.649408,16.464163 11.464163,17.649408 10,17.65625 L10,17.65625 Z M12.65625,10.075 L7.34375,10.075 L7.34375,10 C7.34375,8.53299363 8.53299363,7.34375 10,7.34375 C11.4670064,7.34375 12.65625,8.53299363 12.65625,10 L12.65625,10.075 Z M19.1625,12.00625 L15,8.125 L15,13.8125 C15,15.1932119 16.1192881,16.3125 17.5,16.3125 C18.8807119,16.3125 20,15.1932119 20,13.8125 C19.99634,13.1173734 19.6906884,12.4581697 19.1625,12.00625 L19.1625,12.00625 Z M17.5,15.21875 C16.7233496,15.21875 16.09375,14.5891504 16.09375,13.8125 L16.09375,10.625 L18.41875,12.79375 L18.41875,12.79375 C18.7016767,13.0317436 18.8680062,13.3803521 18.875,13.75 C18.8919155,14.1283018 18.7555452,14.4974378 18.4967463,14.7738822 C18.2379473,15.0503265 17.8785945,15.2107129 17.5,15.21875 L17.5,15.21875 Z M0,13.8125 C0,15.1932119 1.11928813,16.3125 2.5,16.3125 C3.88071187,16.3125 5,15.1932119 5,13.8125 L5,8.125 L0.8375,12.00625 C0.312648649,12.4606915 0.00774088769,13.118291 0,13.8125 L0,13.8125 Z M1.55,12.8375 L1.55,12.8375 L3.90625,10.625 L3.90625,13.8125 C3.90625,14.5891504 3.27665043,15.21875 2.5,15.21875 C1.72334957,15.21875 1.09375,14.5891504 1.09375,13.8125 C1.09530728,13.4362762 1.26214314,13.0797503 1.55,12.8375 L1.55,12.8375 Z M9.375,3.4375 C9.375,2.22937711 8.39562289,1.25 7.1875,1.25 C5.97937711,1.25 5,2.22937711 5,3.4375 C5,4.64562289 5.97937711,5.625 7.1875,5.625 C8.39562289,5.625 9.375,4.64562289 9.375,3.4375 Z M6.09375,3.4375 C6.09375,2.83343855 6.58343855,2.34375 7.1875,2.34375 C7.79156145,2.34375 8.28125,2.83343855 8.28125,3.4375 C8.28125,4.04156145 7.79156145,4.53125 7.1875,4.53125 C6.58625928,4.52449385 6.10050615,4.03874072 6.09375,3.4375 Z M12.8125,1.25 C11.6043771,1.25 10.625,2.22937711 10.625,3.4375 C10.625,4.64562289 11.6043771,5.625 12.8125,5.625 C14.0206229,5.625 15,4.64562289 15,3.4375 C15,2.22937711 14.0206229,1.25 12.8125,1.25 Z M12.8125,4.53125 C12.2084386,4.53125 11.71875,4.04156145 11.71875,3.4375 C11.71875,2.83343855 12.2084386,2.34375 12.8125,2.34375 C13.4165614,2.34375 13.90625,2.83343855 13.90625,3.4375 C13.8994938,4.03874072 13.4137407,4.52449385 12.8125,4.53125 L12.8125,4.53125 Z"></path>
                        </g>
                        <g id="Group" transform="translate(110.000000, 0.000000)">
                            <rect id="Background" fill="#8A3FFC" x="0" y="0" width="16" height="16"></rect>
                            <text id="16" font-family="IBMPlexSans-SemiBold, IBM Plex Sans" font-size="8" font-weight="500" line-spacing="10" fill="#FFFFFF">
                                <tspan x="2" y="9">16</tspan>
                            </text>
                        </g>
                        <g id="Group" transform="translate(74.000000, 0.000000)">
                            <rect id="Background" fill="#8A3FFC" x="0" y="0" width="24" height="24"></rect>
                            <text id="24" font-family="IBMPlexSans-SemiBold, IBM Plex Sans" font-size="8" font-weight="500" line-spacing="10" fill="#FFFFFF">
                                <tspan x="2" y="9">24</tspan>
                            </text>
                        </g>
                        <g id="Group" transform="translate(110.000000, 70.031223)">
                            <rect id="Background" fill="#8A3FFC" x="0" y="0" width="16" height="16"></rect>
                            <text id="16" font-family="IBMPlexSans-SemiBold, IBM Plex Sans" font-size="8" font-weight="500" line-spacing="10" fill="#FFFFFF">
                                <tspan x="2" y="9">16</tspan>
                            </text>
                        </g>
                        <text id="Primary-text-Copy-14" font-family="IBMPlexSans-SemiBold, IBM Plex Sans" font-size="14" font-weight="500" fill="#000000">
                            <tspan x="110" y="30.0312227">Primary text</tspan>
                        </text>
                        <text id="Secondary-text-multi" font-family="IBMPlexSans, IBM Plex Sans" font-size="14" font-weight="normal" fill="#000000">
                            <tspan x="110" y="48.0312227">Secondary text</tspan>
                            <tspan x="110" y="66.0312227">multiple lines</tspan>
                        </text>
                        <rect id="Rectangle-Copy-24" stroke="#D02670" x="110.5" y="16.5312227" width="135.5" height="53"></rect>
                        <g id="Spec-/-span-/-Vertical-/-Left-/-Dark-/-Magenta-Copy-14" fill="#D12771">
                            <text id="Text" font-family="IBMPlexSans, IBM Plex Sans" font-size="12" font-weight="normal" line-spacing="16" letter-spacing="0.32">
                                <tspan x="10.92" y="46.5757576">86px</tspan>
                            </text>
                            <path id="Line" d="M5,39 L5,42.499 L90,42.499 L90,39 L91,39 L91,47 L90,47 L90,43.499 L5,43.499 L5,47 L4,47 L4,39 L5,39 Z" transform="translate(47.500000, 43.000000) rotate(-270.000000) translate(-47.500000, -43.000000) " fill-rule="nonzero"></path>
                        </g>
                    </g>
                    <g id="Utilities-/-Spacer-/-Component-/-Horizontal-/-Spacing-05-(16px)-/-On-/-Light-Copy-4" transform="translate(58.432364, 247.715851)">
                        <rect id="Spacer" fill="#D9FBFB" style="mix-blend-mode: multiply;" x="0" y="0" width="16" height="85.5"></rect>
                        <line x1="0.5" y1="0" x2="0.5" y2="85.5" id="Line" stroke="#007D79" stroke-dasharray="2"></line>
                        <line x1="15.5" y1="0" x2="15.5" y2="85.5" id="Line" stroke="#007D79" stroke-dasharray="2"></line>
                    </g>
                    <g id="Utilities-/-Spacer-/-Component-/-Horizontal-/-Spacing-05-(16px)-/-On-/-Light-Copy-4" transform="translate(93.932364, 247.715851)">
                        <rect id="Spacer" fill="#D9FBFB" style="mix-blend-mode: multiply;" x="0" y="0" width="16" height="85.5"></rect>
                        <line x1="0.5" y1="0" x2="0.5" y2="85.5" id="Line" stroke="#007D79" stroke-dasharray="2"></line>
                        <line x1="15.5" y1="0" x2="15.5" y2="85.5" id="Line" stroke="#007D79" stroke-dasharray="2"></line>
                    </g>
                    <g id="Spec-/-span-/-Horizontal-/-Top-/--Light-/-Teal-Copy-6" transform="translate(58.432364, 213.468777)" fill="#007D79">
                        <path id="Line" d="M12,14.5 L12,15.5 L8.5,15.499 L8.5,30.499 L12,30.5 L12,31.5 L4,31.5 L4,30.5 L7.5,30.499 L7.5,15.499 L4,15.5 L4,14.5 L12,14.5 Z" transform="translate(8.000000, 23.000000) rotate(-270.000000) translate(-8.000000, -23.000000) " fill-rule="nonzero"></path>
                        <text id="Text" font-family="IBMPlexSans, IBM Plex Sans" font-size="12" font-weight="normal" line-spacing="16" letter-spacing="0.32">
                            <tspan x="0.48" y="12">16</tspan>
                        </text>
                    </g>
                    <g id="Spec-/-span-/-Horizontal-/-Top-/--Light-/-Teal-Copy-6" transform="translate(93.932364, 213.468777)" fill="#007D79">
                        <path id="Line" d="M12,14.5 L12,15.5 L8.5,15.499 L8.5,30.499 L12,30.5 L12,31.5 L4,31.5 L4,30.5 L7.5,30.499 L7.5,15.499 L4,15.5 L4,14.5 L12,14.5 Z" transform="translate(8.000000, 23.000000) rotate(-270.000000) translate(-8.000000, -23.000000) " fill-rule="nonzero"></path>
                        <text id="Text" font-family="IBMPlexSans, IBM Plex Sans" font-size="12" font-weight="normal" line-spacing="16" letter-spacing="0.32">
                            <tspan x="0.48" y="12">16</tspan>
                        </text>
                    </g>
                    <g id="Group-6" transform="translate(0.316867, 96.937555)">
                        <rect id="Rectangle-Copy-12" stroke="#979797" fill="#F4F4F4" x="58.4939668" y="0.531222724" width="203" height="67"></rect>
                        <g id="Spec-/-Icon-box-/-Vertical-/-Top-/-20px-/-Light-Copy-3" transform="translate(58.000000, 24.031223)">
                            <g id="Icon-box" transform="translate(16.000000, 0.000000)">
                                <rect id="Line" fill="#D12771" x="9.5" y="19" width="1" height="38.5"></rect>
                                <rect id="Box" stroke="#D12771" x="0.5" y="0.5" width="19" height="19"></rect>
                            </g>
                            <text id="Text" font-family="IBMPlexSans, IBM Plex Sans" font-size="12" font-weight="normal" line-spacing="16" letter-spacing="0.32" fill="#D12771">
                                <tspan x="11.71" y="73.5">20px</tspan>
                            </text>
                        </g>
                        <g id="Fill" transform="translate(74.000000, 24.031223)" fill="#000000">
                            <path d="M10,6.25 C7.92893219,6.25 6.25,7.92893219 6.25,10 L6.25,15 C6.25,17.0710678 7.92893219,18.75 10,18.75 C12.0710678,18.75 13.75,17.0710678 13.75,15 L13.75,10 C13.75,7.92893219 12.0710678,6.25 10,6.25 Z M7.34375,11.16875 L12.65625,11.16875 L12.65625,13.825 L7.34375,13.825 L7.34375,11.16875 Z M10,17.65625 C8.53583704,17.649408 7.35059199,16.464163 7.34375,15 L7.34375,14.91875 L12.65625,14.91875 L12.65625,15 C12.649408,16.464163 11.464163,17.649408 10,17.65625 L10,17.65625 Z M12.65625,10.075 L7.34375,10.075 L7.34375,10 C7.34375,8.53299363 8.53299363,7.34375 10,7.34375 C11.4670064,7.34375 12.65625,8.53299363 12.65625,10 L12.65625,10.075 Z M19.1625,12.00625 L15,8.125 L15,13.8125 C15,15.1932119 16.1192881,16.3125 17.5,16.3125 C18.8807119,16.3125 20,15.1932119 20,13.8125 C19.99634,13.1173734 19.6906884,12.4581697 19.1625,12.00625 L19.1625,12.00625 Z M17.5,15.21875 C16.7233496,15.21875 16.09375,14.5891504 16.09375,13.8125 L16.09375,10.625 L18.41875,12.79375 L18.41875,12.79375 C18.7016767,13.0317436 18.8680062,13.3803521 18.875,13.75 C18.8919155,14.1283018 18.7555452,14.4974378 18.4967463,14.7738822 C18.2379473,15.0503265 17.8785945,15.2107129 17.5,15.21875 L17.5,15.21875 Z M0,13.8125 C0,15.1932119 1.11928813,16.3125 2.5,16.3125 C3.88071187,16.3125 5,15.1932119 5,13.8125 L5,8.125 L0.8375,12.00625 C0.312648649,12.4606915 0.00774088769,13.118291 0,13.8125 L0,13.8125 Z M1.55,12.8375 L1.55,12.8375 L3.90625,10.625 L3.90625,13.8125 C3.90625,14.5891504 3.27665043,15.21875 2.5,15.21875 C1.72334957,15.21875 1.09375,14.5891504 1.09375,13.8125 C1.09530728,13.4362762 1.26214314,13.0797503 1.55,12.8375 L1.55,12.8375 Z M9.375,3.4375 C9.375,2.22937711 8.39562289,1.25 7.1875,1.25 C5.97937711,1.25 5,2.22937711 5,3.4375 C5,4.64562289 5.97937711,5.625 7.1875,5.625 C8.39562289,5.625 9.375,4.64562289 9.375,3.4375 Z M6.09375,3.4375 C6.09375,2.83343855 6.58343855,2.34375 7.1875,2.34375 C7.79156145,2.34375 8.28125,2.83343855 8.28125,3.4375 C8.28125,4.04156145 7.79156145,4.53125 7.1875,4.53125 C6.58625928,4.52449385 6.10050615,4.03874072 6.09375,3.4375 Z M12.8125,1.25 C11.6043771,1.25 10.625,2.22937711 10.625,3.4375 C10.625,4.64562289 11.6043771,5.625 12.8125,5.625 C14.0206229,5.625 15,4.64562289 15,3.4375 C15,2.22937711 14.0206229,1.25 12.8125,1.25 Z M12.8125,4.53125 C12.2084386,4.53125 11.71875,4.04156145 11.71875,3.4375 C11.71875,2.83343855 12.2084386,2.34375 12.8125,2.34375 C13.4165614,2.34375 13.90625,2.83343855 13.90625,3.4375 C13.8994938,4.03874072 13.4137407,4.52449385 12.8125,4.53125 L12.8125,4.53125 Z"></path>
                        </g>
                        <g id="Group" transform="translate(110.000000, 0.000000)">
                            <rect id="Background" fill="#8A3FFC" x="0" y="0" width="16" height="16"></rect>
                            <text id="16" font-family="IBMPlexSans-SemiBold, IBM Plex Sans" font-size="8" font-weight="500" line-spacing="10" fill="#FFFFFF">
                                <tspan x="2" y="9">16</tspan>
                            </text>
                        </g>
                        <g id="Group" transform="translate(74.000000, 0.000000)">
                            <rect id="Background" fill="#8A3FFC" x="0" y="0" width="24" height="24"></rect>
                            <text id="24" font-family="IBMPlexSans-SemiBold, IBM Plex Sans" font-size="8" font-weight="500" line-spacing="10" fill="#FFFFFF">
                                <tspan x="2" y="9">24</tspan>
                            </text>
                        </g>
                        <g id="Group" transform="translate(110.000000, 52.000000)">
                            <rect id="Background" fill="#8A3FFC" x="0" y="0" width="16" height="16"></rect>
                            <text id="16" font-family="IBMPlexSans-SemiBold, IBM Plex Sans" font-size="8" font-weight="500" line-spacing="10" fill="#FFFFFF">
                                <tspan x="2" y="9">16</tspan>
                            </text>
                        </g>
                        <text id="Primary-text-Copy-9" font-family="IBMPlexSans-SemiBold, IBM Plex Sans" font-size="14" font-weight="500" fill="#000000">
                            <tspan x="110" y="30.0312227">Primary text</tspan>
                        </text>
                        <text id="Secondary-text-Copy-6" font-family="IBMPlexSans, IBM Plex Sans" font-size="14" font-weight="normal" fill="#000000">
                            <tspan x="110" y="48.0312227">Secondary text</tspan>
                        </text>
                        <rect id="Rectangle-Copy-17" stroke="#D02670" x="110.5" y="16.5312227" width="135.5" height="35"></rect>
                        <g id="Spec-/-span-/-Vertical-/-Left-/-Dark-/-Magenta-Copy-20" transform="translate(0.000000, 0.031223)" fill="#D12771">
                            <text id="Text" font-family="IBMPlexSans, IBM Plex Sans" font-size="12" font-weight="normal" line-spacing="16" letter-spacing="0.32">
                                <tspan x="10.92" y="37.5599013">68px</tspan>
                            </text>
                            <path id="Line" d="M14,30 L14,33.499 L81,33.499 L81,30 L82,30 L82,38 L81,38 L81,34.499 L14,34.499 L14,38 L13,38 L13,30 L14,30 Z" transform="translate(47.500000, 34.000000) rotate(-270.000000) translate(-47.500000, -34.000000) " fill-rule="nonzero"></path>
                        </g>
                    </g>
                    <g id="Utilities-/-Spacer-/-Component-/-Horizontal-/-Spacing-05-(16px)-/-On-/-Light" transform="translate(94.310833, 96.937555)">
                        <rect id="Spacer" fill="#D9FBFB" style="mix-blend-mode: multiply;" x="0" y="0" width="16" height="68.0282963"></rect>
                        <line x1="0.5" y1="0" x2="0.5" y2="68.0282963" id="Line" stroke="#007D79" stroke-dasharray="2"></line>
                        <line x1="15.5" y1="0" x2="15.5" y2="68.0282963" id="Line" stroke="#007D79" stroke-dasharray="2"></line>
                    </g>
                    <g id="Utilities-/-Spacer-/-Component-/-Horizontal-/-Spacing-05-(16px)-/-On-/-Light" transform="translate(58.432364, 96.937555)">
                        <rect id="Spacer" fill="#D9FBFB" style="mix-blend-mode: multiply;" x="0" y="0" width="16" height="68.0282963"></rect>
                        <line x1="0.5" y1="0" x2="0.5" y2="68.0282963" id="Line" stroke="#007D79" stroke-dasharray="2"></line>
                        <line x1="15.5" y1="0" x2="15.5" y2="68.0282963" id="Line" stroke="#007D79" stroke-dasharray="2"></line>
                    </g>
                    <g id="Spec-/-span-/-Horizontal-/-Top-/--Light-/-Teal-Copy-6" transform="translate(94.310833, 61.937555)" fill="#007D79">
                        <path id="Line" d="M12,14.5 L12,15.5 L8.5,15.499 L8.5,30.499 L12,30.5 L12,31.5 L4,31.5 L4,30.5 L7.5,30.499 L7.5,15.499 L4,15.5 L4,14.5 L12,14.5 Z" transform="translate(8.000000, 23.000000) rotate(-270.000000) translate(-8.000000, -23.000000) " fill-rule="nonzero"></path>
                        <text id="Text" font-family="IBMPlexSans, IBM Plex Sans" font-size="12" font-weight="normal" line-spacing="16" letter-spacing="0.32">
                            <tspan x="0.48" y="12">16</tspan>
                        </text>
                    </g>
                    <g id="Spec-/-span-/-Horizontal-/-Top-/--Light-/-Teal-Copy-6" transform="translate(58.432364, 61.937555)" fill="#007D79">
                        <path id="Line" d="M12,14.5 L12,15.5 L8.5,15.499 L8.5,30.499 L12,30.5 L12,31.5 L4,31.5 L4,30.5 L7.5,30.499 L7.5,15.499 L4,15.5 L4,14.5 L12,14.5 Z" transform="translate(8.000000, 23.000000) rotate(-270.000000) translate(-8.000000, -23.000000) " fill-rule="nonzero"></path>
                        <text id="Text" font-family="IBMPlexSans, IBM Plex Sans" font-size="12" font-weight="normal" line-spacing="16" letter-spacing="0.32">
                            <tspan x="0.48" y="12">16</tspan>
                        </text>
                    </g>
                </g>
            </g>
            <g id="Group" transform="translate(0.000000, 0.000000)">
                <rect id="Rectangle-Copy-91" fill="#F4F4F4" x="58" y="96.7187773" width="204" height="48"></rect>
                <rect id="Rectangle" fill="#979797" x="58.0346166" y="96.7187773" width="3" height="48"></rect>
                <g transform="translate(58.034617, 96.718777)" id="Utilities-/-Spacer-/-Component-/-Horizontal-/-Spacing-05-(16px)-/-On-/-Light-Copy-3">
                    <rect id="Spacer" fill="#D9FBFB" style="mix-blend-mode: multiply;" x="0" y="0" width="16" height="47.5"></rect>
                    <line x1="0.5" y1="0" x2="0.5" y2="47.5" id="Line" stroke="#007D79" stroke-dasharray="2"></line>
                    <line x1="15.5" y1="0" x2="15.5" y2="47.5" id="Line" stroke="#007D79" stroke-dasharray="2"></line>
                </g>
                <g transform="translate(58.000000, 61.937555)" fill="#007D79" id="Spec-/-span-/-Horizontal-/-Top-/--Light-/-Teal-Copy-6">
                    <path id="Line" d="M12,14.5 L12,15.5 L8.5,15.499 L8.5,30.499 L12,30.5 L12,31.5 L4,31.5 L4,30.5 L7.5,30.499 L7.5,15.499 L4,15.5 L4,14.5 L12,14.5 Z" transform="translate(8.000000, 23.000000) rotate(-270.000000) translate(-8.000000, -23.000000) " fill-rule="nonzero"></path>
                    <text id="Text" font-family="IBMPlexSans, IBM Plex Sans" font-size="12" font-weight="normal" line-spacing="16" letter-spacing="0.32">
                        <tspan x="0.48" y="12">16</tspan>
                    </text>
                </g>
                <g transform="translate(58.000000, 110.718777)" id="Spec-/-Icon-box-/-Vertical-/-Top-/-20px-/-Light-Copy-12">
                    <g id="Icon-box" transform="translate(16.000000, 0.000000)">
                        <rect id="Line" fill="#D12771" x="9.5" y="19" width="1" height="29"></rect>
                        <rect id="Box" stroke="#D12771" x="0.5" y="0.5" width="19" height="19"></rect>
                    </g>
                    <text id="Text" font-family="IBMPlexSans, IBM Plex Sans" font-size="12" font-weight="normal" line-spacing="16" letter-spacing="0.32" fill="#D12771">
                        <tspan x="18.48" y="64">20</tspan>
                    </text>
                </g>
                <line x1="59.5346166" y1="141.5" x2="59.5346166" y2="158.5" id="Line-3" stroke="#D12771"></line>
                <text id="3" font-family="IBMPlexSans, IBM Plex Sans" font-size="12" font-weight="normal" fill="#D12771">
                    <tspan x="56.0307248" y="174.662314">3</tspan>
                </text>
                <g transform="translate(74.000000, 110.718777)" fill="#000000" id="Fill">
                    <path d="M10,6.25 C7.92893219,6.25 6.25,7.92893219 6.25,10 L6.25,15 C6.25,17.0710678 7.92893219,18.75 10,18.75 C12.0710678,18.75 13.75,17.0710678 13.75,15 L13.75,10 C13.75,7.92893219 12.0710678,6.25 10,6.25 Z M7.34375,11.16875 L12.65625,11.16875 L12.65625,13.825 L7.34375,13.825 L7.34375,11.16875 Z M10,17.65625 C8.53583704,17.649408 7.35059199,16.464163 7.34375,15 L7.34375,14.91875 L12.65625,14.91875 L12.65625,15 C12.649408,16.464163 11.464163,17.649408 10,17.65625 L10,17.65625 Z M12.65625,10.075 L7.34375,10.075 L7.34375,10 C7.34375,8.53299363 8.53299363,7.34375 10,7.34375 C11.4670064,7.34375 12.65625,8.53299363 12.65625,10 L12.65625,10.075 Z M19.1625,12.00625 L15,8.125 L15,13.8125 C15,15.1932119 16.1192881,16.3125 17.5,16.3125 C18.8807119,16.3125 20,15.1932119 20,13.8125 C19.99634,13.1173734 19.6906884,12.4581697 19.1625,12.00625 L19.1625,12.00625 Z M17.5,15.21875 C16.7233496,15.21875 16.09375,14.5891504 16.09375,13.8125 L16.09375,10.625 L18.41875,12.79375 L18.41875,12.79375 C18.7016767,13.0317436 18.8680062,13.3803521 18.875,13.75 C18.8919155,14.1283018 18.7555452,14.4974378 18.4967463,14.7738822 C18.2379473,15.0503265 17.8785945,15.2107129 17.5,15.21875 L17.5,15.21875 Z M0,13.8125 C0,15.1932119 1.11928813,16.3125 2.5,16.3125 C3.88071187,16.3125 5,15.1932119 5,13.8125 L5,8.125 L0.8375,12.00625 C0.312648649,12.4606915 0.00774088769,13.118291 0,13.8125 L0,13.8125 Z M1.55,12.8375 L1.55,12.8375 L3.90625,10.625 L3.90625,13.8125 C3.90625,14.5891504 3.27665043,15.21875 2.5,15.21875 C1.72334957,15.21875 1.09375,14.5891504 1.09375,13.8125 C1.09530728,13.4362762 1.26214314,13.0797503 1.55,12.8375 L1.55,12.8375 Z M9.375,3.4375 C9.375,2.22937711 8.39562289,1.25 7.1875,1.25 C5.97937711,1.25 5,2.22937711 5,3.4375 C5,4.64562289 5.97937711,5.625 7.1875,5.625 C8.39562289,5.625 9.375,4.64562289 9.375,3.4375 Z M6.09375,3.4375 C6.09375,2.83343855 6.58343855,2.34375 7.1875,2.34375 C7.79156145,2.34375 8.28125,2.83343855 8.28125,3.4375 C8.28125,4.04156145 7.79156145,4.53125 7.1875,4.53125 C6.58625928,4.52449385 6.10050615,4.03874072 6.09375,3.4375 Z M12.8125,1.25 C11.6043771,1.25 10.625,2.22937711 10.625,3.4375 C10.625,4.64562289 11.6043771,5.625 12.8125,5.625 C14.0206229,5.625 15,4.64562289 15,3.4375 C15,2.22937711 14.0206229,1.25 12.8125,1.25 Z M12.8125,4.53125 C12.2084386,4.53125 11.71875,4.04156145 11.71875,3.4375 C11.71875,2.83343855 12.2084386,2.34375 12.8125,2.34375 C13.4165614,2.34375 13.90625,2.83343855 13.90625,3.4375 C13.8994938,4.03874072 13.4137407,4.52449385 12.8125,4.53125 L12.8125,4.53125 Z"></path>
                </g>
                <text id="Primary-text-Copy-49" font-family="IBMPlexSans-SemiBold, IBM Plex Sans" font-size="14" font-weight="500" fill="#000000">
                    <tspan x="110" y="125.718777">Primary text</tspan>
                </text>
                <rect id="Rectangle-Copy-92" stroke="#D02670" x="110.5" y="112.218777" width="135.055794" height="17"></rect>
                <g transform="translate(0.000000, 96.718777)" fill="#D12771" id="Spec-/-span-/-Vertical-/-Left-/-Dark-/-Magenta-Copy-37">
                    <text id="Text" font-family="IBMPlexSans, IBM Plex Sans" font-size="12" font-weight="normal" line-spacing="16" letter-spacing="0.32">
                        <tspan x="10.92" y="27.5422833">48px</tspan>
                    </text>
                    <path id="Line" d="M24,20 L24,23.499 L71,23.499 L71,20 L72,20 L72,28 L71,28 L71,24.499 L24,24.499 L24,28 L23,28 L23,20 L24,20 Z" transform="translate(47.500000, 24.000000) rotate(-270.000000) translate(-47.500000, -24.000000) " fill-rule="nonzero"></path>
                </g>
                <text id=":enabled-one-line-of" font-family="IBMPlexSans-Bold, IBM Plex Sans" font-size="14" font-weight="bold" line-spacing="18" letter-spacing="0.159999996" fill="#6F6F6F">
                    <tspan x="58" y="14">:enabled</tspan>
                    <tspan x="58" y="32" font-family="IBMPlexSans, IBM Plex Sans" font-weight="normal">one line of text, </tspan>
                    <tspan x="58" y="50" font-family="IBMPlexSans, IBM Plex Sans" font-weight="normal">icon centered</tspan>
                </text>
            </g>
        </g>
    </g>
</svg>