<?xml version="1.0" encoding="UTF-8"?>
<svg width="1080px" height="400px" viewBox="0 0 1080 400" version="1.1" xmlns="http://www.w3.org/2000/svg" xmlns:xlink="http://www.w3.org/1999/xlink">
    <title>cardNodeStatus</title>
    <g id="cardNodeStatus" stroke="none" stroke-width="1" fill="none" fill-rule="evenodd">
        <rect fill="#F4F4F4" x="0" y="0" width="1080" height="400"></rect>
        <g id="Group" transform="translate(0.000000, 24.000000)">
            <g id="Group-5" transform="translate(690.000000, 15.000000)">
                <g id="Group-Copy-4">
                    <rect id="Rectangle-Copy-35" stroke="#979797" fill="#FFFFFF" x="0.5" y="0.5" width="203" height="67" rx="8"></rect>
                    <g id="Fill" transform="translate(16.000000, 18.000000)" fill="#000000">
                        <path d="M10,6.25 C7.92893219,6.25 6.25,7.92893219 6.25,10 L6.25,15 C6.25,17.0710678 7.92893219,18.75 10,18.75 C12.0710678,18.75 13.75,17.0710678 13.75,15 L13.75,10 C13.75,7.92893219 12.0710678,6.25 10,6.25 Z M7.34375,11.16875 L12.65625,11.16875 L12.65625,13.825 L7.34375,13.825 L7.34375,11.16875 Z M10,17.65625 C8.53583704,17.649408 7.35059199,16.464163 7.34375,15 L7.34375,14.91875 L12.65625,14.91875 L12.65625,15 C12.649408,16.464163 11.464163,17.649408 10,17.65625 L10,17.65625 Z M12.65625,10.075 L7.34375,10.075 L7.34375,10 C7.34375,8.53299363 8.53299363,7.34375 10,7.34375 C11.4670064,7.34375 12.65625,8.53299363 12.65625,10 L12.65625,10.075 Z M19.1625,12.00625 L15,8.125 L15,13.8125 C15,15.1932119 16.1192881,16.3125 17.5,16.3125 C18.8807119,16.3125 20,15.1932119 20,13.8125 C19.99634,13.1173734 19.6906884,12.4581697 19.1625,12.00625 L19.1625,12.00625 Z M17.5,15.21875 C16.7233496,15.21875 16.09375,14.5891504 16.09375,13.8125 L16.09375,10.625 L18.41875,12.79375 L18.41875,12.79375 C18.7016767,13.0317436 18.8680062,13.3803521 18.875,13.75 C18.8919155,14.1283018 18.7555452,14.4974378 18.4967463,14.7738822 C18.2379473,15.0503265 17.8785945,15.2107129 17.5,15.21875 L17.5,15.21875 Z M0,13.8125 C0,15.1932119 1.11928813,16.3125 2.5,16.3125 C3.88071187,16.3125 5,15.1932119 5,13.8125 L5,8.125 L0.8375,12.00625 C0.312648649,12.4606915 0.00774088769,13.118291 0,13.8125 L0,13.8125 Z M1.55,12.8375 L1.55,12.8375 L3.90625,10.625 L3.90625,13.8125 C3.90625,14.5891504 3.27665043,15.21875 2.5,15.21875 C1.72334957,15.21875 1.09375,14.5891504 1.09375,13.8125 C1.09530728,13.4362762 1.26214314,13.0797503 1.55,12.8375 L1.55,12.8375 Z M9.375,3.4375 C9.375,2.22937711 8.39562289,1.25 7.1875,1.25 C5.97937711,1.25 5,2.22937711 5,3.4375 C5,4.64562289 5.97937711,5.625 7.1875,5.625 C8.39562289,5.625 9.375,4.64562289 9.375,3.4375 Z M6.09375,3.4375 C6.09375,2.83343855 6.58343855,2.34375 7.1875,2.34375 C7.79156145,2.34375 8.28125,2.83343855 8.28125,3.4375 C8.28125,4.04156145 7.79156145,4.53125 7.1875,4.53125 C6.58625928,4.52449385 6.10050615,4.03874072 6.09375,3.4375 Z M12.8125,1.25 C11.6043771,1.25 10.625,2.22937711 10.625,3.4375 C10.625,4.64562289 11.6043771,5.625 12.8125,5.625 C14.0206229,5.625 15,4.64562289 15,3.4375 C15,2.22937711 14.0206229,1.25 12.8125,1.25 Z M12.8125,4.53125 C12.2084386,4.53125 11.71875,4.04156145 11.71875,3.4375 C11.71875,2.83343855 12.2084386,2.34375 12.8125,2.34375 C13.4165614,2.34375 13.90625,2.83343855 13.90625,3.4375 C13.8994938,4.03874072 13.4137407,4.52449385 12.8125,4.53125 L12.8125,4.53125 Z"></path>
                    </g>
                    <text id="Primary-text-Copy-29" font-family="IBMPlexSans-SemiBold, IBM Plex Sans" font-size="14" font-weight="500" fill="#000000">
                        <tspan x="52.0060332" y="30">Primary text</tspan>
                    </text>
                    <text id="Secondary-text-Copy-27" font-family="IBMPlexSans, IBM Plex Sans" font-size="14" font-weight="normal" fill="#000000">
                        <tspan x="52.0060332" y="48">Secondary text</tspan>
                    </text>
                </g>
                <g id="Group-2-Copy" transform="translate(173.000000, 16.750000)">
                    <rect id="Rectangle" x="0" y="0" width="16" height="16"></rect>
                    <g id="Organization-/-Status-/-error--filled-/-16-Copy-4" transform="translate(0.999996, 1.249996)">
                        <polygon id="Path" fill="#F1C21B" points="1.32535419 12.5000075 12.6746542 12.5000075 12.6756542 12.4983575 7.00100419 1.58570748 6.99900419 1.58570748 1.32435419 12.4983575"></polygon>
                        <path d="M7.00000419,10.0000075 C6.58579062,10.0000075 6.25000419,10.3357939 6.25000419,10.7500075 C6.25000419,11.164221 6.58579062,11.5000075 7.00000419,11.5000075 C7.41421775,11.5000075 7.75000419,11.164221 7.75000419,10.7500075 C7.75000419,10.3357939 7.41421775,10.0000075 7.00000419,10.0000075 Z" id="Path" fill="#000000"></path>
                        <rect id="Rectangle" fill="#000000" x="6.50000419" y="4.50000748" width="1" height="4.5"></rect>
                        <path d="M13.5,13.5 L0.5,13.5 C0.325297211,13.5 0.16325958,13.4088207 0.072596347,13.2594798 C-0.0180668864,13.1101389 -0.0242056116,12.9243061 0.0564041869,12.7693075 L6.55640419,0.269307477 C6.64246354,0.103823445 6.81348026,-5.68434189e-14 7,-5.68434189e-14 C7.18652812,-5.68434189e-14 7.35754483,0.103823445 7.44360419,0.269307477 L13.9436042,12.7693075 C14.024214,12.9243061 14.0180753,13.1101389 13.927412,13.2594798 C13.8367488,13.4088207 13.6747112,13.5 13.5,13.5 Z M1.32535419,12.5000075 L12.6746542,12.5000075 L12.6756542,12.4983575 L7.00100419,1.58570748 L6.99900419,1.58570748 L1.32435419,12.4983575 L1.32535419,12.5000075 Z" id="Shape" fill="#8E6A00" fill-rule="nonzero"></path>
                    </g>
                </g>
            </g>
            <g id="Group-Copy-4" transform="translate(690.000000, 115.000000)">
                <rect id="Rectangle-Copy-35" stroke="#979797" fill="#FFFFFF" x="0.5" y="0.5" width="203" height="67" rx="8"></rect>
                <g id="Fill" transform="translate(16.000000, 18.000000)" fill="#000000">
                    <path d="M10,6.25 C7.92893219,6.25 6.25,7.92893219 6.25,10 L6.25,15 C6.25,17.0710678 7.92893219,18.75 10,18.75 C12.0710678,18.75 13.75,17.0710678 13.75,15 L13.75,10 C13.75,7.92893219 12.0710678,6.25 10,6.25 Z M7.34375,11.16875 L12.65625,11.16875 L12.65625,13.825 L7.34375,13.825 L7.34375,11.16875 Z M10,17.65625 C8.53583704,17.649408 7.35059199,16.464163 7.34375,15 L7.34375,14.91875 L12.65625,14.91875 L12.65625,15 C12.649408,16.464163 11.464163,17.649408 10,17.65625 L10,17.65625 Z M12.65625,10.075 L7.34375,10.075 L7.34375,10 C7.34375,8.53299363 8.53299363,7.34375 10,7.34375 C11.4670064,7.34375 12.65625,8.53299363 12.65625,10 L12.65625,10.075 Z M19.1625,12.00625 L15,8.125 L15,13.8125 C15,15.1932119 16.1192881,16.3125 17.5,16.3125 C18.8807119,16.3125 20,15.1932119 20,13.8125 C19.99634,13.1173734 19.6906884,12.4581697 19.1625,12.00625 L19.1625,12.00625 Z M17.5,15.21875 C16.7233496,15.21875 16.09375,14.5891504 16.09375,13.8125 L16.09375,10.625 L18.41875,12.79375 L18.41875,12.79375 C18.7016767,13.0317436 18.8680062,13.3803521 18.875,13.75 C18.8919155,14.1283018 18.7555452,14.4974378 18.4967463,14.7738822 C18.2379473,15.0503265 17.8785945,15.2107129 17.5,15.21875 L17.5,15.21875 Z M0,13.8125 C0,15.1932119 1.11928813,16.3125 2.5,16.3125 C3.88071187,16.3125 5,15.1932119 5,13.8125 L5,8.125 L0.8375,12.00625 C0.312648649,12.4606915 0.00774088769,13.118291 0,13.8125 L0,13.8125 Z M1.55,12.8375 L1.55,12.8375 L3.90625,10.625 L3.90625,13.8125 C3.90625,14.5891504 3.27665043,15.21875 2.5,15.21875 C1.72334957,15.21875 1.09375,14.5891504 1.09375,13.8125 C1.09530728,13.4362762 1.26214314,13.0797503 1.55,12.8375 L1.55,12.8375 Z M9.375,3.4375 C9.375,2.22937711 8.39562289,1.25 7.1875,1.25 C5.97937711,1.25 5,2.22937711 5,3.4375 C5,4.64562289 5.97937711,5.625 7.1875,5.625 C8.39562289,5.625 9.375,4.64562289 9.375,3.4375 Z M6.09375,3.4375 C6.09375,2.83343855 6.58343855,2.34375 7.1875,2.34375 C7.79156145,2.34375 8.28125,2.83343855 8.28125,3.4375 C8.28125,4.04156145 7.79156145,4.53125 7.1875,4.53125 C6.58625928,4.52449385 6.10050615,4.03874072 6.09375,3.4375 Z M12.8125,1.25 C11.6043771,1.25 10.625,2.22937711 10.625,3.4375 C10.625,4.64562289 11.6043771,5.625 12.8125,5.625 C14.0206229,5.625 15,4.64562289 15,3.4375 C15,2.22937711 14.0206229,1.25 12.8125,1.25 Z M12.8125,4.53125 C12.2084386,4.53125 11.71875,4.04156145 11.71875,3.4375 C11.71875,2.83343855 12.2084386,2.34375 12.8125,2.34375 C13.4165614,2.34375 13.90625,2.83343855 13.90625,3.4375 C13.8994938,4.03874072 13.4137407,4.52449385 12.8125,4.53125 L12.8125,4.53125 Z"></path>
                </g>
                <text id="Primary-text-Copy-29" font-family="IBMPlexSans-SemiBold, IBM Plex Sans" font-size="14" font-weight="500" fill="#000000">
                    <tspan x="52.0060332" y="30">Primary text</tspan>
                </text>
                <text id="Secondary-text-Copy-27" font-family="IBMPlexSans, IBM Plex Sans" font-size="14" font-weight="normal" fill="#000000">
                    <tspan x="52.0060332" y="48">Secondary text</tspan>
                </text>
            </g>
            <text id=":enabled-(status-ico" font-family="IBMPlexSans-Bold, IBM Plex Sans" font-size="14" font-weight="bold" line-spacing="18" letter-spacing="0.159999996" fill="#F32973">
                <tspan x="518" y="29">:enabled </tspan>
                <tspan x="518" y="47" font-family="IBMPlexSans, IBM Plex Sans" font-weight="normal">(status icons)</tspan>
            </text>
            <g id="Group-9" transform="translate(0.000000, 15.000000)">
                <text id=":enabled-(status-bar" font-family="IBMPlexSans-Bold, IBM Plex Sans" font-size="14" font-weight="bold" line-spacing="18" letter-spacing="0.159999996" fill="#F32973">
                    <tspan x="0" y="14">:enabled </tspan>
                    <tspan x="0" y="32" font-family="IBMPlexSans, IBM Plex Sans" font-weight="normal">(status bar)</tspan>
                </text>
                <g id="Group-7" transform="translate(178.000000, 0.000000)">
                    <g id="Group-3">
                        <rect id="Rectangle-Copy-95" fill="#FFFFFF" x="0" y="0" width="204" height="68"></rect>
                        <rect id="Rectangle-Copy-96" fill="#DA1E28" x="0" y="0" width="3" height="68"></rect>
                        <g id="Brand-/-IBM-/-bee-/-20-Copy-97" transform="translate(16.006033, 14.968777)" fill="#161616">
                            <path d="M10,6.25 C7.92893219,6.25 6.25,7.92893219 6.25,10 L6.25,15 C6.25,17.0710678 7.92893219,18.75 10,18.75 C12.0710678,18.75 13.75,17.0710678 13.75,15 L13.75,10 C13.75,7.92893219 12.0710678,6.25 10,6.25 Z M7.34375,11.16875 L12.65625,11.16875 L12.65625,13.825 L7.34375,13.825 L7.34375,11.16875 Z M10,17.65625 C8.53583704,17.649408 7.35059199,16.464163 7.34375,15 L7.34375,14.91875 L12.65625,14.91875 L12.65625,15 C12.649408,16.464163 11.464163,17.649408 10,17.65625 L10,17.65625 Z M12.65625,10.075 L7.34375,10.075 L7.34375,10 C7.34375,8.53299363 8.53299363,7.34375 10,7.34375 C11.4670064,7.34375 12.65625,8.53299363 12.65625,10 L12.65625,10.075 Z M19.1625,12.00625 L15,8.125 L15,13.8125 C15,15.1932119 16.1192881,16.3125 17.5,16.3125 C18.8807119,16.3125 20,15.1932119 20,13.8125 C19.99634,13.1173734 19.6906884,12.4581697 19.1625,12.00625 L19.1625,12.00625 Z M17.5,15.21875 C16.7233496,15.21875 16.09375,14.5891504 16.09375,13.8125 L16.09375,10.625 L18.41875,12.79375 L18.41875,12.79375 C18.7016767,13.0317436 18.8680062,13.3803521 18.875,13.75 C18.8919155,14.1283018 18.7555452,14.4974378 18.4967463,14.7738822 C18.2379473,15.0503265 17.8785945,15.2107129 17.5,15.21875 L17.5,15.21875 Z M0,13.8125 C0,15.1932119 1.11928813,16.3125 2.5,16.3125 C3.88071187,16.3125 5,15.1932119 5,13.8125 L5,8.125 L0.8375,12.00625 C0.312648649,12.4606915 0.00774088769,13.118291 0,13.8125 L0,13.8125 Z M1.55,12.8375 L1.55,12.8375 L3.90625,10.625 L3.90625,13.8125 C3.90625,14.5891504 3.27665043,15.21875 2.5,15.21875 C1.72334957,15.21875 1.09375,14.5891504 1.09375,13.8125 C1.09530728,13.4362762 1.26214314,13.0797503 1.55,12.8375 L1.55,12.8375 Z M9.375,3.4375 C9.375,2.22937711 8.39562289,1.25 7.1875,1.25 C5.97937711,1.25 5,2.22937711 5,3.4375 C5,4.64562289 5.97937711,5.625 7.1875,5.625 C8.39562289,5.625 9.375,4.64562289 9.375,3.4375 Z M6.09375,3.4375 C6.09375,2.83343855 6.58343855,2.34375 7.1875,2.34375 C7.79156145,2.34375 8.28125,2.83343855 8.28125,3.4375 C8.28125,4.04156145 7.79156145,4.53125 7.1875,4.53125 C6.58625928,4.52449385 6.10050615,4.03874072 6.09375,3.4375 Z M12.8125,1.25 C11.6043771,1.25 10.625,2.22937711 10.625,3.4375 C10.625,4.64562289 11.6043771,5.625 12.8125,5.625 C14.0206229,5.625 15,4.64562289 15,3.4375 C15,2.22937711 14.0206229,1.25 12.8125,1.25 Z M12.8125,4.53125 C12.2084386,4.53125 11.71875,4.04156145 11.71875,3.4375 C11.71875,2.83343855 12.2084386,2.34375 12.8125,2.34375 C13.4165614,2.34375 13.90625,2.83343855 13.90625,3.4375 C13.8994938,4.03874072 13.4137407,4.52449385 12.8125,4.53125 L12.8125,4.53125 Z" id="Fill"></path>
                        </g>
                        <text id="Primary-text-Copy-93" font-family="IBMPlexSans-SemiBold, IBM Plex Sans" font-size="14" font-weight="500" line-spacing="18" letter-spacing="0.159999996" fill="#161616">
                            <tspan x="52.0060332" y="30">Primary text</tspan>
                        </text>
                        <text id="Secondary-text-Copy-85" font-family="IBMPlexSans, IBM Plex Sans" font-size="14" font-weight="normal" line-spacing="18" letter-spacing="0.159999996" fill="#161616">
                            <tspan x="52.0060332" y="48">Secondary text</tspan>
                        </text>
                    </g>
                    <g id="Group-3-Copy" transform="translate(0.000000, 100.000000)">
                        <rect id="Rectangle-Copy-95" fill="#FFFFFF" x="0" y="0" width="204" height="68"></rect>
                        <rect id="Rectangle-Copy-96" fill="#24A148" x="0" y="0" width="3" height="68"></rect>
                        <g id="Brand-/-IBM-/-bee-/-20-Copy-97" transform="translate(16.006033, 14.968777)" fill="#161616">
                            <path d="M10,6.25 C7.92893219,6.25 6.25,7.92893219 6.25,10 L6.25,15 C6.25,17.0710678 7.92893219,18.75 10,18.75 C12.0710678,18.75 13.75,17.0710678 13.75,15 L13.75,10 C13.75,7.92893219 12.0710678,6.25 10,6.25 Z M7.34375,11.16875 L12.65625,11.16875 L12.65625,13.825 L7.34375,13.825 L7.34375,11.16875 Z M10,17.65625 C8.53583704,17.649408 7.35059199,16.464163 7.34375,15 L7.34375,14.91875 L12.65625,14.91875 L12.65625,15 C12.649408,16.464163 11.464163,17.649408 10,17.65625 L10,17.65625 Z M12.65625,10.075 L7.34375,10.075 L7.34375,10 C7.34375,8.53299363 8.53299363,7.34375 10,7.34375 C11.4670064,7.34375 12.65625,8.53299363 12.65625,10 L12.65625,10.075 Z M19.1625,12.00625 L15,8.125 L15,13.8125 C15,15.1932119 16.1192881,16.3125 17.5,16.3125 C18.8807119,16.3125 20,15.1932119 20,13.8125 C19.99634,13.1173734 19.6906884,12.4581697 19.1625,12.00625 L19.1625,12.00625 Z M17.5,15.21875 C16.7233496,15.21875 16.09375,14.5891504 16.09375,13.8125 L16.09375,10.625 L18.41875,12.79375 L18.41875,12.79375 C18.7016767,13.0317436 18.8680062,13.3803521 18.875,13.75 C18.8919155,14.1283018 18.7555452,14.4974378 18.4967463,14.7738822 C18.2379473,15.0503265 17.8785945,15.2107129 17.5,15.21875 L17.5,15.21875 Z M0,13.8125 C0,15.1932119 1.11928813,16.3125 2.5,16.3125 C3.88071187,16.3125 5,15.1932119 5,13.8125 L5,8.125 L0.8375,12.00625 C0.312648649,12.4606915 0.00774088769,13.118291 0,13.8125 L0,13.8125 Z M1.55,12.8375 L1.55,12.8375 L3.90625,10.625 L3.90625,13.8125 C3.90625,14.5891504 3.27665043,15.21875 2.5,15.21875 C1.72334957,15.21875 1.09375,14.5891504 1.09375,13.8125 C1.09530728,13.4362762 1.26214314,13.0797503 1.55,12.8375 L1.55,12.8375 Z M9.375,3.4375 C9.375,2.22937711 8.39562289,1.25 7.1875,1.25 C5.97937711,1.25 5,2.22937711 5,3.4375 C5,4.64562289 5.97937711,5.625 7.1875,5.625 C8.39562289,5.625 9.375,4.64562289 9.375,3.4375 Z M6.09375,3.4375 C6.09375,2.83343855 6.58343855,2.34375 7.1875,2.34375 C7.79156145,2.34375 8.28125,2.83343855 8.28125,3.4375 C8.28125,4.04156145 7.79156145,4.53125 7.1875,4.53125 C6.58625928,4.52449385 6.10050615,4.03874072 6.09375,3.4375 Z M12.8125,1.25 C11.6043771,1.25 10.625,2.22937711 10.625,3.4375 C10.625,4.64562289 11.6043771,5.625 12.8125,5.625 C14.0206229,5.625 15,4.64562289 15,3.4375 C15,2.22937711 14.0206229,1.25 12.8125,1.25 Z M12.8125,4.53125 C12.2084386,4.53125 11.71875,4.04156145 11.71875,3.4375 C11.71875,2.83343855 12.2084386,2.34375 12.8125,2.34375 C13.4165614,2.34375 13.90625,2.83343855 13.90625,3.4375 C13.8994938,4.03874072 13.4137407,4.52449385 12.8125,4.53125 L12.8125,4.53125 Z" id="Fill"></path>
                        </g>
                        <text id="Primary-text-Copy-93" font-family="IBMPlexSans-SemiBold, IBM Plex Sans" font-size="14" font-weight="500" line-spacing="18" letter-spacing="0.159999996" fill="#161616">
                            <tspan x="52.0060332" y="30">Primary text</tspan>
                        </text>
                        <text id="Secondary-text-Copy-85" font-family="IBMPlexSans, IBM Plex Sans" font-size="14" font-weight="normal" line-spacing="18" letter-spacing="0.159999996" fill="#161616">
                            <tspan x="52.0060332" y="48">Secondary text</tspan>
                        </text>
                    </g>
                    <g id="Group-3-Copy-2" transform="translate(0.000000, 200.000000)">
                        <rect id="Rectangle-Copy-95" fill="#FFFFFF" x="0" y="0" width="204" height="68"></rect>
                        <rect id="Rectangle-Copy-96" fill="#F1C21B" x="0" y="0" width="3" height="68"></rect>
                        <g id="Brand-/-IBM-/-bee-/-20-Copy-97" transform="translate(16.006033, 14.968777)" fill="#161616">
                            <path d="M10,6.25 C7.92893219,6.25 6.25,7.92893219 6.25,10 L6.25,15 C6.25,17.0710678 7.92893219,18.75 10,18.75 C12.0710678,18.75 13.75,17.0710678 13.75,15 L13.75,10 C13.75,7.92893219 12.0710678,6.25 10,6.25 Z M7.34375,11.16875 L12.65625,11.16875 L12.65625,13.825 L7.34375,13.825 L7.34375,11.16875 Z M10,17.65625 C8.53583704,17.649408 7.35059199,16.464163 7.34375,15 L7.34375,14.91875 L12.65625,14.91875 L12.65625,15 C12.649408,16.464163 11.464163,17.649408 10,17.65625 L10,17.65625 Z M12.65625,10.075 L7.34375,10.075 L7.34375,10 C7.34375,8.53299363 8.53299363,7.34375 10,7.34375 C11.4670064,7.34375 12.65625,8.53299363 12.65625,10 L12.65625,10.075 Z M19.1625,12.00625 L15,8.125 L15,13.8125 C15,15.1932119 16.1192881,16.3125 17.5,16.3125 C18.8807119,16.3125 20,15.1932119 20,13.8125 C19.99634,13.1173734 19.6906884,12.4581697 19.1625,12.00625 L19.1625,12.00625 Z M17.5,15.21875 C16.7233496,15.21875 16.09375,14.5891504 16.09375,13.8125 L16.09375,10.625 L18.41875,12.79375 L18.41875,12.79375 C18.7016767,13.0317436 18.8680062,13.3803521 18.875,13.75 C18.8919155,14.1283018 18.7555452,14.4974378 18.4967463,14.7738822 C18.2379473,15.0503265 17.8785945,15.2107129 17.5,15.21875 L17.5,15.21875 Z M0,13.8125 C0,15.1932119 1.11928813,16.3125 2.5,16.3125 C3.88071187,16.3125 5,15.1932119 5,13.8125 L5,8.125 L0.8375,12.00625 C0.312648649,12.4606915 0.00774088769,13.118291 0,13.8125 L0,13.8125 Z M1.55,12.8375 L1.55,12.8375 L3.90625,10.625 L3.90625,13.8125 C3.90625,14.5891504 3.27665043,15.21875 2.5,15.21875 C1.72334957,15.21875 1.09375,14.5891504 1.09375,13.8125 C1.09530728,13.4362762 1.26214314,13.0797503 1.55,12.8375 L1.55,12.8375 Z M9.375,3.4375 C9.375,2.22937711 8.39562289,1.25 7.1875,1.25 C5.97937711,1.25 5,2.22937711 5,3.4375 C5,4.64562289 5.97937711,5.625 7.1875,5.625 C8.39562289,5.625 9.375,4.64562289 9.375,3.4375 Z M6.09375,3.4375 C6.09375,2.83343855 6.58343855,2.34375 7.1875,2.34375 C7.79156145,2.34375 8.28125,2.83343855 8.28125,3.4375 C8.28125,4.04156145 7.79156145,4.53125 7.1875,4.53125 C6.58625928,4.52449385 6.10050615,4.03874072 6.09375,3.4375 Z M12.8125,1.25 C11.6043771,1.25 10.625,2.22937711 10.625,3.4375 C10.625,4.64562289 11.6043771,5.625 12.8125,5.625 C14.0206229,5.625 15,4.64562289 15,3.4375 C15,2.22937711 14.0206229,1.25 12.8125,1.25 Z M12.8125,4.53125 C12.2084386,4.53125 11.71875,4.04156145 11.71875,3.4375 C11.71875,2.83343855 12.2084386,2.34375 12.8125,2.34375 C13.4165614,2.34375 13.90625,2.83343855 13.90625,3.4375 C13.8994938,4.03874072 13.4137407,4.52449385 12.8125,4.53125 L12.8125,4.53125 Z" id="Fill"></path>
                        </g>
                        <text id="Primary-text-Copy-93" font-family="IBMPlexSans-SemiBold, IBM Plex Sans" font-size="14" font-weight="500" line-spacing="18" letter-spacing="0.159999996" fill="#161616">
                            <tspan x="52.0060332" y="30">Primary text</tspan>
                        </text>
                        <text id="Secondary-text-Copy-85" font-family="IBMPlexSans, IBM Plex Sans" font-size="14" font-weight="normal" line-spacing="18" letter-spacing="0.159999996" fill="#161616">
                            <tspan x="52.0060332" y="48">Secondary text</tspan>
                        </text>
                    </g>
                </g>
            </g>
            <g transform="translate(691.000000, 16.000000)" id="utilities-/-spacer-/-component-/-vertical-/-spacing-05-(16px)-/-on">
                <rect id="spacer" fill-opacity="0.5" fill="#87EDED" x="0" y="0" width="203" height="16"></rect>
                <line x1="7.04297731e-16" y1="0.5" x2="203" y2="0.5" id="Line" stroke="#009E9A" stroke-dasharray="2"></line>
                <line x1="7.04297731e-16" y1="15.5" x2="203" y2="15.5" id="Line" stroke="#009E9A" stroke-dasharray="2"></line>
            </g>
            <g transform="translate(878.000000, 16.000000)" id="utilities-/-spacer-/-component-/-horizontal-/-spacing-05-(16px)-/-on">
                <rect id="spacer" fill-opacity="0.5" fill="#87EDED" x="0" y="0" width="16" height="66"></rect>
                <line x1="15.5" y1="0" x2="15.5" y2="66" id="Line" stroke="#009E9A" stroke-dasharray="2"></line>
                <line x1="0.5" y1="0" x2="0.5" y2="66" id="Line" stroke="#009E9A" stroke-dasharray="2"></line>
            </g>
            <g transform="translate(848.000000, 16.000000)" id="utilities-/-spacer-/-component-/-horizontal-/-spacing-05-(16px)-/-on">
                <rect id="spacer" fill-opacity="0.5" fill="#87EDED" x="0" y="0" width="16" height="66"></rect>
                <line x1="15.5" y1="0" x2="15.5" y2="66" id="Line" stroke="#009E9A" stroke-dasharray="2"></line>
                <line x1="0.5" y1="0" x2="0.5" y2="66" id="Line" stroke="#009E9A" stroke-dasharray="2"></line>
            </g>
            <g transform="translate(726.000000, 16.000000)" id="utilities-/-spacer-/-component-/-horizontal-/-spacing-05-(16px)-/-on">
                <rect id="spacer" fill-opacity="0.5" fill="#87EDED" x="0" y="0" width="16" height="66"></rect>
                <line x1="15.5" y1="0" x2="15.5" y2="66" id="Line" stroke="#009E9A" stroke-dasharray="2"></line>
                <line x1="0.5" y1="0" x2="0.5" y2="66" id="Line" stroke="#009E9A" stroke-dasharray="2"></line>
            </g>
            <g transform="translate(690.000000, 16.000000)" id="utilities-/-spacer-/-component-/-horizontal-/-spacing-05-(16px)-/-on">
                <rect id="spacer" fill-opacity="0.5" fill="#87EDED" x="0" y="0" width="16" height="66"></rect>
                <line x1="15.5" y1="0" x2="15.5" y2="66" id="Line" stroke="#009E9A" stroke-dasharray="2"></line>
                <line x1="0.5" y1="0" x2="0.5" y2="66" id="Line" stroke="#009E9A" stroke-dasharray="2"></line>
            </g>
            <text id="16px" font-family="IBMPlexMono, IBM Plex Mono" font-size="10" font-weight="normal" fill="#F32973">
                <tspan x="898" y="27">16px</tspan>
            </text>
            <text id="16px-copy" font-family="IBMPlexMono, IBM Plex Mono" font-size="10" font-weight="normal" fill="#F32973">
                <tspan x="872" y="11">16px</tspan>
            </text>
            <text id="16px-copy-4" font-family="IBMPlexMono, IBM Plex Mono" font-size="10" font-weight="normal" fill="#F32973">
                <tspan x="843" y="11">16px</tspan>
            </text>
            <text id="16px-copy-2" font-family="IBMPlexMono, IBM Plex Mono" font-size="10" font-weight="normal" fill="#F32973">
                <tspan x="724" y="11">16px</tspan>
            </text>
            <text id="16px-copy-3" font-family="IBMPlexMono, IBM Plex Mono" font-size="10" font-weight="normal" fill="#F32973">
                <tspan x="685" y="11">16px</tspan>
            </text>
            <text id="3px" font-family="IBMPlexMono, IBM Plex Mono" font-size="10" font-weight="normal" fill="#F32973">
                <tspan x="167" y="10">3px</tspan>
            </text>
            <text id="support-01" font-family="IBMPlexMono, IBM Plex Mono" font-size="10" font-weight="normal" fill="#F32973">
                <tspan x="114" y="46">support-01</tspan>
            </text>
            <text id="support-02" font-family="IBMPlexMono, IBM Plex Mono" font-size="10" font-weight="normal" fill="#F32973">
                <tspan x="114" y="154">support-02</tspan>
            </text>
            <text id="support-03" font-family="IBMPlexMono, IBM Plex Mono" font-size="10" font-weight="normal" fill="#F32973">
                <tspan x="114" y="253">support-03</tspan>
            </text>
            <g transform="translate(863.000000, 132.000000)" fill="#0F62FE" id="Organization-/-Status-/-error--filled-/-16-Copy">
                <path d="M11.8821,3.42965 L12.52465,2.6639 C11.9039514,2.13853143 11.196316,1.72553399 10.4336,1.4435 L10.0918,2.3823 C10.7449616,2.62458742 11.35082,2.97902291 11.8821,3.42965 L11.8821,3.42965 Z M13.905,7 L14.88885,6.7936 C14.7505542,5.99468469 14.4734183,5.22616008 14.07,4.52285 L13.20435,5 C13.549865,5.62200328 13.7868094,6.29835927 13.905,7 L13.905,7 Z M10.0918,13.6177 L10.4336,14.5565 C11.196316,14.274466 11.9039514,13.8614686 12.52465,13.3361 L11.8821,12.57035 C11.35082,13.0209771 10.7449616,13.3754126 10.0918,13.6177 L10.0918,13.6177 Z M13.20435,11 L14.07,11.5 C14.4736523,10.7886039 14.7507968,10.0125587 14.8891,9.2064 L13.905,9.03295 C13.7867127,9.72415296 13.5496629,10.389662 13.20435,11 L13.20435,11 Z M8,15 L8,1 C4.13400675,1 1,4.13400675 1,8 C1,11.8659932 4.13400675,15 8,15 L8,15 Z" id="Fill"></path>
            </g>
        </g>
    </g>
</svg>