<?xml version="1.0" encoding="UTF-8"?>
<svg width="608px" height="342px" viewBox="0 0 608 342" version="1.1" xmlns="http://www.w3.org/2000/svg" xmlns:xlink="http://www.w3.org/1999/xlink">
    <title>dashedLines</title>
    <g id="dashedLines" stroke="none" stroke-width="1" fill="none" fill-rule="evenodd">
        <rect fill="#FFFFFF" x="0" y="0" width="608" height="342"></rect>
        <g id="Group-3" transform="translate(50.000000, 63.000000)">
            <g id="Group" fill="#6F6F6F" font-family="IBMPlexSans, IBM Plex Sans" font-size="14" font-weight="normal" letter-spacing="0.159999996" line-spacing="18">
                <text id="0/4-rounded">
                    <tspan x="0" y="14">0/4 rounded</tspan>
                </text>
                <text id="4/4">
                    <tspan x="0" y="80">4/4</tspan>
                </text>
                <text id="8/4">
                    <tspan x="0" y="146">8/4</tspan>
                </text>
                <text id="16/4">
                    <tspan x="0" y="212">16/4</tspan>
                </text>
            </g>
            <g id="Group-2" transform="translate(128.000000, 9.000000)" stroke="#8D8D8D">
                <path d="M0,67 C62.8807796,67 107.350016,67 217.841545,67 C291.502565,67 347.22205,67 385,67" id="Path-2" stroke-dasharray="4,4"></path>
                <path d="M0,1 C62.8807796,1 107.350016,1 217.841545,1 C291.502565,1 347.22205,1 385,1" id="Path-2-Copy-3" stroke-linecap="round" stroke-dasharray="0,4"></path>
                <path d="M0,199 C62.8807796,199 107.350016,199 217.841545,199 C291.502565,199 347.22205,199 385,199" id="Path-2-Copy" stroke-dasharray="16,4"></path>
                <path d="M0,133 C62.8807796,133 107.350016,133 217.841545,133 C291.502565,133 347.22205,133 385,133" id="Path-2-Copy-2" stroke-dasharray="8,4"></path>
            </g>
        </g>
    </g>
</svg>