<?xml version="1.0" encoding="UTF-8"?>
<svg width="300px" height="300px" viewBox="0 0 300 300" version="1.1" xmlns="http://www.w3.org/2000/svg" xmlns:xlink="http://www.w3.org/1999/xlink">
    <title>B08</title>
    <g id="B08" stroke="none" stroke-width="1" fill="none" fill-rule="evenodd">
        <g id="Group-5" transform="translate(50.000000, 70.000000)">
            <rect id="Rectangle" fill="#F4F4F4" x="0" y="32" width="200" height="128"></rect>
            <g id="Group-3">
                <rect id="Rectangle" fill="#161616" x="0" y="0" width="200" height="16"></rect>
                <rect id="Rectangle-Copy-2" fill="#E0E0E0" x="0" y="16" width="200" height="16"></rect>
                <rect id="Rectangle-Copy-3" fill="#E0E0E0" x="160" y="129" width="32" height="24"></rect>
                <rect id="Rectangle-Copy-3" stroke="#0F62FE" stroke-width="2" x="161" y="130" width="30" height="22"></rect>
                <g id="Group-2" transform="translate(40.000000, 88.000000)">
                    <g id="Group" fill="#8D8D8D">
                        <rect id="Rectangle" x="0" y="0" width="40" height="16"></rect>
                        <rect id="Rectangle-Copy" x="80" y="0" width="40" height="16"></rect>
                    </g>
                    <path id="Line" d="M64.3093429,3.31908161 L64.7451306,3.56421223 L72.7451306,8.06421223 L73.5198644,8.5 L72.7451306,8.93578777 L64.7451306,13.4357878 L64.3093429,13.6809184 L63.8190816,12.8093429 L64.2548694,12.5642122 L70.591,9 L47.5,9 L47.5,8 L70.591,8 L64.2548694,4.43578777 L63.8190816,4.19065715 L64.3093429,3.31908161 Z" fill="#979797" fill-rule="nonzero"></path>
                </g>
                <g id="Actions-/-Navigation-/-zoom--in-/-16" transform="translate(168.000000, 133.000000)" fill="#0F62FE">
                    <path d="M9,6 L7,6 L7,4 L6,4 L6,6 L4,6 L4,7 L6,7 L6,9 L7,9 L7,7 L9,7 L9,6 Z M10.7,10 C11.5,9 12,7.8 12,6.5 C12,3.5 9.5,1 6.5,1 C3.5,1 1,3.5 1,6.5 C1,9.5 3.5,12 6.5,12 C7.8,12 9,11.5 10,10.7 L13.8,14.5 L14.5,13.8 L10.7,10 Z M6.5,11 C4,11 2,9 2,6.5 C2,4 4,2 6.5,2 C9,2 11,4 11,6.5 C11,9 9,11 6.5,11 Z" id="Fill"></path>
                </g>
            </g>
        </g>
    </g>
</svg>