<?xml version="1.0" encoding="UTF-8"?>
<svg width="1344px" height="472px" viewBox="0 0 1344 472" version="1.1" xmlns="http://www.w3.org/2000/svg" xmlns:xlink="http://www.w3.org/1999/xlink">
    <title>non-prescriptiveCanvas</title>
    <defs>
        <rect id="path-1" x="0" y="0" width="1312" height="440"></rect>
        <rect id="path-3" x="-2" y="-2" width="208" height="90"></rect>
        <mask id="mask-4" maskContentUnits="userSpaceOnUse" maskUnits="objectBoundingBox" x="-1" y="-1" width="210" height="92">
            <rect x="-3" y="-3" width="210" height="92" fill="white"></rect>
            <use xlink:href="#path-3" fill="black"></use>
        </mask>
        <path d="M6,6 L7,6 L7,12 L6,12 L6,6 Z M9,6 L10,6 L10,12 L9,12 L9,6 Z M2,3 L2,4 L3,4 L3,14 C3,14.5522847 3.44771525,15 4,15 L12,15 C12.5522847,15 13,14.5522847 13,14 L13,4 L14,4 L14,3 L2,3 Z M4,14 L4,4 L12,4 L12,14 L4,14 Z M6,1 L10,1 L10,2 L6,2 L6,1 Z" id="path-5"></path>
        <rect id="path-7" x="0" y="0" width="20" height="20"></rect>
        <path d="M5.3315,14.3799 C5.0475,14.0209 4.7025,13.2869 4.0885,12.3959 C3.7405,11.8919 2.8775,10.9429 2.6205,10.4609 C2.3975,10.0349 2.4215,9.8439 2.4745,9.4909 C2.5685,8.8629 3.2125,8.3739 3.8995,8.4399 C4.4185,8.4889 4.8585,8.8319 5.2545,9.1559 C5.4935,9.3509 5.7875,9.7299 5.9645,9.9439 C6.1275,10.1399 6.1675,10.2209 6.3415,10.4529 C6.5715,10.7599 6.6435,10.9119 6.5555,10.5739 C6.4845,10.0779 6.3685,9.2309 6.2005,8.4819 C6.0725,7.9139 6.0415,7.8249 5.9195,7.3889 C5.7905,6.9249 5.7245,6.5999 5.6035,6.1079 C5.5195,5.7599 5.3685,5.0489 5.3275,4.6489 C5.2705,4.1019 5.2405,3.2099 5.5915,2.7999 C5.8665,2.4789 6.4975,2.3819 6.8885,2.5799 C7.4005,2.8389 7.6915,3.5829 7.8245,3.8799 C8.0635,4.4139 8.2115,5.0309 8.3405,5.8409 C8.5045,6.8719 8.8065,8.3029 8.8165,8.6039 C8.8405,8.2349 8.7485,7.4579 8.8125,7.1039 C8.8705,6.7829 9.1405,6.4099 9.4785,6.3089 C9.7645,6.2239 10.0995,6.1929 10.3945,6.2539 C10.7075,6.3179 11.0375,6.5419 11.1605,6.7529 C11.5225,7.3769 11.5295,8.6519 11.5445,8.5839 C11.6305,8.2079 11.6155,7.3549 11.8285,6.9999 C11.9685,6.7659 12.3255,6.5549 12.5155,6.5209 C12.8095,6.4689 13.1705,6.4529 13.4795,6.5129 C13.7285,6.5619 14.0655,6.8579 14.1565,6.9999 C14.3745,7.3439 14.4985,8.3169 14.5355,8.6579 C14.5505,8.7989 14.6095,8.2659 14.8285,7.9219 C15.2345,7.2829 16.6715,7.1589 16.7265,8.5609 C16.7515,9.2149 16.7465,9.1849 16.7465,9.6249 C16.7465,10.1419 16.7345,10.4529 16.7065,10.8269 C16.6755,11.2269 16.5895,12.1309 16.4645,12.5689 C16.3785,12.8699 16.0935,13.5469 15.8125,13.9529 C15.8125,13.9529 14.7385,15.2029 14.6215,15.7659 C14.5035,16.3279 14.5425,16.3319 14.5195,16.7309 C14.4965,17.1289 14.6405,17.6529 14.6405,17.6529 C14.6405,17.6529 13.8385,17.7569 13.4065,17.6879 C13.0155,17.6249 12.5315,16.8469 12.4065,16.6089 C12.2345,16.2809 11.8675,16.3439 11.7245,16.5859 C11.4995,16.9689 11.0155,17.6559 10.6735,17.6989 C10.0055,17.7829 8.6195,17.7299 7.5345,17.7189 C7.5345,17.7189 7.7195,16.7079 7.3075,16.3609 C7.0025,16.1019 6.4775,15.5769 6.1635,15.3009 L5.3315,14.3799 Z" id="path-9"></path>
        <filter x="-24.5%" y="-16.4%" width="149.0%" height="145.8%" filterUnits="objectBoundingBox" id="filter-10">
            <feMorphology radius="0.25" operator="dilate" in="SourceAlpha" result="shadowSpreadOuter1"></feMorphology>
            <feOffset dx="0" dy="1" in="shadowSpreadOuter1" result="shadowOffsetOuter1"></feOffset>
            <feGaussianBlur stdDeviation="0.75" in="shadowOffsetOuter1" result="shadowBlurOuter1"></feGaussianBlur>
            <feColorMatrix values="0 0 0 0 0   0 0 0 0 0   0 0 0 0 0  0 0 0 0.15 0" type="matrix" in="shadowBlurOuter1"></feColorMatrix>
        </filter>
        <path d="M5.3315,14.3799 C5.0475,14.0209 4.7025,13.2869 4.0885,12.3959 C3.7405,11.8919 2.8775,10.9429 2.6205,10.4609 C2.3975,10.0349 2.4215,9.8439 2.4745,9.4909 C2.5685,8.8629 3.2125,8.3739 3.8995,8.4399 C4.4185,8.4889 4.8585,8.8319 5.2545,9.1559 C5.4935,9.3509 5.7875,9.7299 5.9645,9.9439 C6.1275,10.1399 6.1675,10.2209 6.3415,10.4529 C6.5715,10.7599 6.6435,10.9119 6.5555,10.5739 C6.4845,10.0779 6.3685,9.2309 6.2005,8.4819 C6.0725,7.9139 6.0415,7.8249 5.9195,7.3889 C5.7905,6.9249 5.7245,6.5999 5.6035,6.1079 C5.5195,5.7599 5.3685,5.0489 5.3275,4.6489 C5.2705,4.1019 5.2405,3.2099 5.5915,2.7999 C5.8665,2.4789 6.4975,2.3819 6.8885,2.5799 C7.4005,2.8389 7.6915,3.5829 7.8245,3.8799 C8.0635,4.4139 8.2115,5.0309 8.3405,5.8409 C8.5045,6.8719 8.8065,8.3029 8.8165,8.6039 C8.8405,8.2349 8.7485,7.4579 8.8125,7.1039 C8.8705,6.7829 9.1405,6.4099 9.4785,6.3089 C9.7645,6.2239 10.0995,6.1929 10.3945,6.2539 C10.7075,6.3179 11.0375,6.5419 11.1605,6.7529 C11.5225,7.3769 11.5295,8.6519 11.5445,8.5839 C11.6305,8.2079 11.6155,7.3549 11.8285,6.9999 C11.9685,6.7659 12.3255,6.5549 12.5155,6.5209 C12.8095,6.4689 13.1705,6.4529 13.4795,6.5129 C13.7285,6.5619 14.0655,6.8579 14.1565,6.9999 C14.3745,7.3439 14.4985,8.3169 14.5355,8.6579 C14.5505,8.7989 14.6095,8.2659 14.8285,7.9219 C15.2345,7.2829 16.6715,7.1589 16.7265,8.5609 C16.7515,9.2149 16.7465,9.1849 16.7465,9.6249 C16.7465,10.1419 16.7345,10.4529 16.7065,10.8269 C16.6755,11.2269 16.5895,12.1309 16.4645,12.5689 C16.3785,12.8699 16.0935,13.5469 15.8125,13.9529 C15.8125,13.9529 14.7385,15.2029 14.6215,15.7659 C14.5035,16.3279 14.5425,16.3319 14.5195,16.7309 C14.4965,17.1289 14.6405,17.6529 14.6405,17.6529 C14.6405,17.6529 13.8385,17.7569 13.4065,17.6879 C13.0155,17.6249 12.5315,16.8469 12.4065,16.6089 C12.2345,16.2809 11.8675,16.3439 11.7245,16.5859 C11.4995,16.9689 11.0155,17.6559 10.6735,17.6989 C10.0055,17.7829 8.6195,17.7299 7.5345,17.7189 C7.5345,17.7189 7.7195,16.7079 7.3075,16.3609 C7.0025,16.1019 6.4775,15.5769 6.1635,15.3009 L5.3315,14.3799 Z" id="path-11"></path>
        <filter x="-13.1%" y="-7.4%" width="126.2%" height="124.6%" filterUnits="objectBoundingBox" id="filter-12">
            <feOffset dx="0" dy="0.75" in="SourceAlpha" result="shadowOffsetOuter1"></feOffset>
            <feGaussianBlur stdDeviation="0.5" in="shadowOffsetOuter1" result="shadowBlurOuter1"></feGaussianBlur>
            <feColorMatrix values="0 0 0 0 0   0 0 0 0 0   0 0 0 0 0  0 0 0 0.2 0" type="matrix" in="shadowBlurOuter1"></feColorMatrix>
        </filter>
    </defs>
    <g id="non-prescriptiveCanvas" stroke="none" stroke-width="1" fill="none" fill-rule="evenodd">
        <rect fill="#FFFFFF" x="0" y="0" width="1344" height="472"></rect>
        <g id="Group-2" transform="translate(16.000000, 16.000000)">
            <mask id="mask-2" fill="white">
                <use xlink:href="#path-1"></use>
            </mask>
            <use id="Mask" stroke="#E0E0E0" fill="#F4F4F4" xlink:href="#path-1"></use>
        </g>
        <g id="Group" transform="translate(93.000000, 107.000000)">
            <g id="node-/-gray-10-theme-/-card-node-/-color-/-01-enabled">
                <rect id="Background" fill="#FFFFFF" x="0" y="0" width="204" height="68"></rect>
                <rect id="Left-border" fill="#24A148" x="0" y="0" width="3" height="68"></rect>
                <g id="Icon" transform="translate(16.006033, 14.968777)" fill="#000000">
                    <path d="M15.625,8.125 L15.625,2.5 L14.375,2.5 L14.375,3.75 L12.5,3.75 L12.5,5 L14.375,5 L14.375,8.125 L12.5,8.125 L12.5,9.375 L17.5,9.375 L17.5,8.125 L15.625,8.125 L15.625,8.125 Z M5.3125,3.75 C6.52062289,3.75 7.5,4.72937711 7.5,5.9375 C7.5,7.14562289 6.52062289,8.125 5.3125,8.125 C4.10437711,8.125 3.125,7.14562289 3.125,5.9375 C3.125,4.72937711 4.10437711,3.75 5.3125,3.75 M5.3125,2.5 C3.41402117,2.5 1.875,4.03902117 1.875,5.9375 C1.875,7.83597883 3.41402117,9.375 5.3125,9.375 C7.21097883,9.375 8.75,7.83597883 8.75,5.9375 C8.75,5.02581832 8.38783586,4.15147674 7.74317956,3.50682044 C7.09852326,2.86216414 6.22418168,2.5 5.3125,2.5 Z M5.3125,12.5 C6.52062289,12.5 7.5,13.4793771 7.5,14.6875 C7.5,15.8956229 6.52062289,16.875 5.3125,16.875 C4.10437711,16.875 3.125,15.8956229 3.125,14.6875 C3.125,13.4793771 4.10437711,12.5 5.3125,12.5 M5.3125,11.25 C3.41402117,11.25 1.875,12.7890212 1.875,14.6875 C1.875,16.5859788 3.41402117,18.125 5.3125,18.125 C7.21097883,18.125 8.75,16.5859788 8.75,14.6875 C8.75,12.7890212 7.21097883,11.25 5.3125,11.25 L5.3125,11.25 Z M14.6875,12.5 C15.8956229,12.5 16.875,13.4793771 16.875,14.6875 C16.875,15.8956229 15.8956229,16.875 14.6875,16.875 C13.4793771,16.875 12.5,15.8956229 12.5,14.6875 C12.5,13.4793771 13.4793771,12.5 14.6875,12.5 M14.6875,11.25 C12.7890212,11.25 11.25,12.7890212 11.25,14.6875 C11.25,16.5859788 12.7890212,18.125 14.6875,18.125 C16.5859788,18.125 18.125,16.5859788 18.125,14.6875 C18.125,12.7890212 16.5859788,11.25 14.6875,11.25 L14.6875,11.25 Z" id="Fill"></path>
                </g>
                <text id="Secondary-text" font-family="IBMPlexSans, IBM Plex Sans" font-size="14" font-weight="normal" line-spacing="18" letter-spacing="0.159999996" fill="#161616">
                    <tspan x="52.0060332" y="48">Customer service</tspan>
                </text>
                <text id="Primary-text" font-family="IBMPlexSans-SemiBold, IBM Plex Sans" font-size="14" font-weight="500" line-spacing="18" letter-spacing="0.159999996" fill="#161616">
                    <tspan x="52.0060332" y="30">Dataset 01</tspan>
                </text>
            </g>
            <g transform="translate(0.000000, 164.000000)" id="node-/-gray-10-theme-/-card-node-/-color-/-01-enabled-copy">
                <rect id="Background" fill="#FFFFFF" x="0" y="0" width="204" height="68"></rect>
                <rect id="Left-border" fill="#F1C21B" x="0" y="0" width="3" height="68"></rect>
                <g id="Icon" transform="translate(16.006033, 14.968777)" fill="#000000">
                    <path d="M15.625,8.125 L15.625,2.5 L14.375,2.5 L14.375,3.75 L12.5,3.75 L12.5,5 L14.375,5 L14.375,8.125 L12.5,8.125 L12.5,9.375 L17.5,9.375 L17.5,8.125 L15.625,8.125 L15.625,8.125 Z M5.3125,3.75 C6.52062289,3.75 7.5,4.72937711 7.5,5.9375 C7.5,7.14562289 6.52062289,8.125 5.3125,8.125 C4.10437711,8.125 3.125,7.14562289 3.125,5.9375 C3.125,4.72937711 4.10437711,3.75 5.3125,3.75 M5.3125,2.5 C3.41402117,2.5 1.875,4.03902117 1.875,5.9375 C1.875,7.83597883 3.41402117,9.375 5.3125,9.375 C7.21097883,9.375 8.75,7.83597883 8.75,5.9375 C8.75,5.02581832 8.38783586,4.15147674 7.74317956,3.50682044 C7.09852326,2.86216414 6.22418168,2.5 5.3125,2.5 Z M5.3125,12.5 C6.52062289,12.5 7.5,13.4793771 7.5,14.6875 C7.5,15.8956229 6.52062289,16.875 5.3125,16.875 C4.10437711,16.875 3.125,15.8956229 3.125,14.6875 C3.125,13.4793771 4.10437711,12.5 5.3125,12.5 M5.3125,11.25 C3.41402117,11.25 1.875,12.7890212 1.875,14.6875 C1.875,16.5859788 3.41402117,18.125 5.3125,18.125 C7.21097883,18.125 8.75,16.5859788 8.75,14.6875 C8.75,12.7890212 7.21097883,11.25 5.3125,11.25 L5.3125,11.25 Z M14.6875,12.5 C15.8956229,12.5 16.875,13.4793771 16.875,14.6875 C16.875,15.8956229 15.8956229,16.875 14.6875,16.875 C13.4793771,16.875 12.5,15.8956229 12.5,14.6875 C12.5,13.4793771 13.4793771,12.5 14.6875,12.5 M14.6875,11.25 C12.7890212,11.25 11.25,12.7890212 11.25,14.6875 C11.25,16.5859788 12.7890212,18.125 14.6875,18.125 C16.5859788,18.125 18.125,16.5859788 18.125,14.6875 C18.125,12.7890212 16.5859788,11.25 14.6875,11.25 L14.6875,11.25 Z" id="Fill"></path>
                </g>
                <text id="Secondary-text" font-family="IBMPlexSans, IBM Plex Sans" font-size="14" font-weight="normal" line-spacing="18" letter-spacing="0.159999996" fill="#161616">
                    <tspan x="52.0060332" y="48">Accommodations</tspan>
                </text>
                <text id="Primary-text" font-family="IBMPlexSans-SemiBold, IBM Plex Sans" font-size="14" font-weight="500" line-spacing="18" letter-spacing="0.159999996" fill="#161616">
                    <tspan x="52.0060332" y="30">Dataset 02</tspan>
                </text>
            </g>
        </g>
        <g id="node-/-gray-10-theme-/-card-node-/-color-/-01-enabled-copy-2" transform="translate(392.909943, 197.000000)">
            <rect id="Background" fill="#FFFFFF" x="0" y="0" width="204" height="50"></rect>
            <rect id="Left-border" fill="#F1C21B" x="0" y="0" width="3" height="50"></rect>
            <g id="Icon" transform="translate(16.006033, 14.968777)" fill="#000000">
                <path d="M7.5,6.25 L16.25,6.25 C16.939999,6.24913911 17.4991391,5.68999903 17.5,5 L17.5,2.5 C17.4991391,1.81000097 16.939999,1.25086089 16.25,1.25 L7.5,1.25 C6.81000097,1.25086089 6.25086089,1.81000097 6.25,2.5 L6.25,3.125 L3.75,3.125 L3.75,1.25 L2.5,1.25 L2.5,15.625 C2.50086089,16.314999 3.06000097,16.8741391 3.75,16.875 L6.25,16.875 L6.25,17.5 C6.25086089,18.189999 6.81000097,18.7491391 7.5,18.75 L16.25,18.75 C16.939999,18.7491391 17.4991391,18.189999 17.5,17.5 L17.5,15 C17.4991391,14.310001 16.939999,13.7508609 16.25,13.75 L7.5,13.75 C6.81000097,13.7508609 6.25086089,14.310001 6.25,15 L6.25,15.625 L3.75,15.625 L3.75,10.625 L6.25,10.625 L6.25,11.25 C6.25086089,11.939999 6.81000097,12.4991391 7.5,12.5 L16.25,12.5 C16.939999,12.4991391 17.4991391,11.939999 17.5,11.25 L17.5,8.75 C17.4991391,8.06000097 16.939999,7.50086089 16.25,7.5 L7.5,7.5 C6.81000097,7.50086089 6.25086089,8.06000097 6.25,8.75 L6.25,9.375 L3.75,9.375 L3.75,4.375 L6.25,4.375 L6.25,5 C6.25086089,5.68999903 6.81000097,6.24913911 7.5,6.25 Z M7.5,2.5 L16.25,2.5 L16.25075,5 L7.5,5 L7.5,2.5 Z M7.5,15 L16.25,15 L16.25075,17.5 L7.5,17.5 L7.5,15 Z M7.5,8.75 L16.25,8.75 L16.25075,11.25 L7.5,11.25 L7.5,8.75 Z" id="Fill"></path>
            </g>
            <text id="Secondary-text" font-family="IBMPlexSans, IBM Plex Sans" font-size="14" font-weight="normal" line-spacing="18" letter-spacing="0.159999996"></text>
            <text id="Primary-text" font-family="IBMPlexSans-SemiBold, IBM Plex Sans" font-size="14" font-weight="500" line-spacing="18" letter-spacing="0.159999996" fill="#161616">
                <tspan x="52.0060332" y="30">Type</tspan>
            </text>
        </g>
        <g id="node-/-gray-10-theme-/-card-node-/-color-/-01-enabled-copy-3" transform="translate(711.909943, 99.000000)">
            <rect id="Background" fill="#FFFFFF" x="0" y="0" width="204" height="86"></rect>
            <rect id="Left-border" fill="#DA1E28" x="0" y="0" width="3" height="86"></rect>
            <g id="Icon" transform="translate(16.006033, 14.968777)" fill="#000000">
                <path d="M11.25,17.5 L16.25,17.5 L16.25,18.75 L11.25,18.75 L11.25,17.5 Z M11.25,15 L18.75,15 L18.75,16.25 L11.25,16.25 L11.25,15 Z M11.25,12.5 L18.75,12.5 L18.75,13.75 L11.25,13.75 L11.25,12.5 Z M10.000625,16.545625 L10,16.545625 L2.6775,8.096875 L5.9375,3.75 L14.0625,3.75 L17.3225,8.096875 L15.2975,10.4325 L16.243125,11.25125 L18.9275,8.153125 L14.6875,2.5 L5.3125,2.5 L1.0725,8.153125 L9.055,17.36375 L10.000625,16.545625 L10.000625,16.545625 Z" id="Fill"></path>
            </g>
            <text id="Secondary-text" font-family="IBMPlexSans, IBM Plex Sans" font-size="14" font-weight="normal" line-spacing="18" letter-spacing="0.159999996" fill="#161616">
                <tspan x="52.0060332" y="48">Customer service </tspan>
                <tspan x="52.0060332" y="66">and Accommodat…</tspan>
            </text>
            <text id="Primary-text" font-family="IBMPlexSans-SemiBold, IBM Plex Sans" font-size="14" font-weight="500" line-spacing="18" letter-spacing="0.159999996" fill="#161616">
                <tspan x="52.0060332" y="30">Text mining</tspan>
            </text>
        </g>
        <g id="node-/-gray-10-theme-/-card-node-/-color-/-01-enabled-copy-4" transform="translate(692.819887, 340.000000)">
            <rect id="Background" fill="#FFFFFF" x="0" y="0" width="204" height="68"></rect>
            <rect id="Left-border" fill="#DA1E28" x="0" y="0" width="3" height="68"></rect>
            <g id="Icon" transform="translate(16.006033, 14.968777)" fill="#000000">
                <path d="M8.125,18.75 C4.32804234,18.75 1.25,15.6719577 1.25,11.875 C1.25,8.07804234 4.32804234,5 8.125,5 C8.47017797,5 8.75,5.27982203 8.75,5.625 L8.75,11.25 L14.375,11.25 C14.720178,11.25 15,11.529822 15,11.875 C15,15.6719577 11.9219577,18.75 8.125,18.75 Z M7.5,6.2875 C4.57251589,6.61320942 2.3920636,9.14217577 2.50083115,12.0857144 C2.6095987,15.029253 4.97074704,17.3904013 7.91428564,17.4991689 C10.8578242,17.6079364 13.3867906,15.4274841 13.7125,12.5 L8.75,12.5 C8.05964406,12.5 7.5,11.9403559 7.5,11.25 L7.5,6.2875 Z M17.5,8.75 L11.875,8.75 C11.1846441,8.75 10.625,8.19035594 10.625,7.5 L10.625,1.875 C10.625,1.52982203 10.904822,1.25 11.25,1.25 C15.0469577,1.25 18.125,4.32804234 18.125,8.125 C18.125,8.47017797 17.845178,8.75 17.5,8.75 Z M11.875,7.5 L16.8375,7.5 C16.5445823,4.89021658 14.4847834,2.83041765 11.875,2.5375 L11.875,7.5 Z" id="Fill"></path>
            </g>
            <text id="Secondary-text" font-family="IBMPlexSans, IBM Plex Sans" font-size="14" font-weight="normal" line-spacing="18" letter-spacing="0.159999996" fill="#161616">
                <tspan x="52.0060332" y="48">Pie chart</tspan>
            </text>
            <text id="Primary-text" font-family="IBMPlexSans-SemiBold, IBM Plex Sans" font-size="14" font-weight="500" line-spacing="18" letter-spacing="0.159999996" fill="#161616">
                <tspan x="52.0060332" y="30">Chart</tspan>
            </text>
        </g>
        <g id="node-/-gray-10-theme-/-card-node-/-color-/-01-enabled-copy-6" transform="translate(1012.909943, 44.000000)">
            <rect id="Background" fill="#FFFFFF" x="0" y="0" width="204" height="86"></rect>
            <rect id="Left-border" fill="#F1C21B" x="0" y="0" width="3" height="86"></rect>
            <g id="Icon" transform="translate(16.006033, 14.968777)" fill="#000000">
                <path d="M11.25,17.5 L16.25,17.5 L16.25,18.75 L11.25,18.75 L11.25,17.5 Z M11.25,15 L18.75,15 L18.75,16.25 L11.25,16.25 L11.25,15 Z M11.25,12.5 L18.75,12.5 L18.75,13.75 L11.25,13.75 L11.25,12.5 Z M10.000625,16.545625 L10,16.545625 L2.6775,8.096875 L5.9375,3.75 L14.0625,3.75 L17.3225,8.096875 L15.2975,10.4325 L16.243125,11.25125 L18.9275,8.153125 L14.6875,2.5 L5.3125,2.5 L1.0725,8.153125 L9.055,17.36375 L10.000625,16.545625 L10.000625,16.545625 Z" id="Fill"></path>
            </g>
            <text id="Secondary-text" font-family="IBMPlexSans, IBM Plex Sans" font-size="14" font-weight="normal" line-spacing="18" letter-spacing="0.159999996" fill="#161616">
                <tspan x="52.0060332" y="48">Customer service </tspan>
                <tspan x="52.0060332" y="66">and Accommodat…</tspan>
            </text>
            <text id="Primary-text" font-family="IBMPlexSans-SemiBold, IBM Plex Sans" font-size="14" font-weight="500" line-spacing="18" letter-spacing="0.159999996" fill="#161616">
                <tspan x="52.0060332" y="30">Text mining model</tspan>
            </text>
        </g>
        <g id="node-/-gray-10-theme-/-card-node-/-color-/-01-enabled-copy-5" transform="translate(1024.729830, 278.000000)">
            <use id="Selection" stroke="#000000" mask="url(#mask-4)" stroke-width="2" stroke-dasharray="4,4" xlink:href="#path-3"></use>
            <rect id="Background" fill="#E5E5E5" x="0" y="0.0468340858" width="204" height="86"></rect>
            <rect id="Border-color" fill="#DA1E28" x="0" y="2.79776202e-14" width="3" height="86"></rect>
            <g id="Icon" transform="translate(15.006033, 14.015611)" fill="#000000">
                <path d="M16.25,15 L16.25,17.5 L3.75,17.5 L3.75,15 L2.5,15 L2.5,17.5 L2.50475,17.4969375 C2.50355462,17.8282826 2.63411678,18.1465143 2.86768087,18.3815438 C3.10124496,18.6165732 3.41865388,18.7491231 3.75,18.75 L16.25,18.75 C16.9403559,18.75 17.5,18.1903559 17.5,17.5 L17.5,17.5 L17.5,15 L16.25,15 Z M3.75,7.5 L4.631875,8.378125 L9.375,3.640625 L9.375,15 L10.625,15 L10.625,3.640625 L15.369375,8.378125 L16.25,7.5 L10,1.25 L3.75,7.5 L3.75,7.5 Z" id="Fill"></path>
            </g>
            <text id="Secondary-text" font-family="IBMPlexSans, IBM Plex Sans" font-size="14" font-weight="normal" line-spacing="18" letter-spacing="0.159999996" fill="#161616">
                <tspan x="51.0060332" y="47.0468341">Customer service </tspan>
                <tspan x="51.0060332" y="65.0468341">and Accommodat…</tspan>
            </text>
            <text id="Primary-text" font-family="IBMPlexSans-SemiBold, IBM Plex Sans" font-size="14" font-weight="500" line-spacing="18" letter-spacing="0.159999996" fill="#161616">
                <tspan x="51.0060332" y="29.0468341">Export</tspan>
            </text>
            <g id="Group" transform="translate(108.000000, -36.000000)">
                <rect id="Far-right-button-background" fill="#FFFFFF" x="64" y="0" width="32" height="32"></rect>
                <g id="Far-right-button" transform="translate(64.000000, 0.000000)">
                    <rect id="Background" x="0" y="0" width="32" height="32"></rect>
                    <g id="Icon" transform="translate(8.000000, 8.000000)" fill="#161616">
                        <path d="M8,5 C8.55228475,5 9,4.55228475 9,4 C9,3.44771525 8.55228475,3 8,3 C7.44771525,3 7,3.44771525 7,4 C7,4.55228475 7.44771525,5 8,5 Z M8,9 C8.55228475,9 9,8.55228475 9,8 C9,7.44771525 8.55228475,7 8,7 C7.44771525,7 7,7.44771525 7,8 C7,8.55228475 7.44771525,9 8,9 Z M8,13 C8.55228475,13 9,12.5522847 9,12 C9,11.4477153 8.55228475,11 8,11 C7.44771525,11 7,11.4477153 7,12 C7,12.5522847 7.44771525,13 8,13 Z" id="Fill"></path>
                    </g>
                </g>
                <rect id="Center-button-background" fill="#FFFFFF" x="32" y="0" width="32" height="32"></rect>
                <g id="Center-button" transform="translate(32.000000, 0.000000)">
                    <rect id="Background" x="0" y="0" width="32" height="32"></rect>
                    <g id="Icon" transform="translate(8.000000, 8.000000)">
                        <mask id="mask-6" fill="white">
                            <use xlink:href="#path-5"></use>
                        </mask>
                        <use id="icon-color" fill="#161616" xlink:href="#path-5"></use>
                    </g>
                </g>
                <rect id="Left-button-background" fill="#FFFFFF" x="0" y="0" width="32" height="32"></rect>
                <g id="Left-button">
                    <rect id="Background" x="0" y="0" width="32" height="32"></rect>
                    <g id="Icon" transform="translate(8.000000, 8.000000)" fill="#161616">
                        <polygon id="Fill" points="9 3 8.285 3.6965 12.075 7.5 2 7.5 2 8.5 12.075 8.5 8.285 12.2865 9 13 14 8"></polygon>
                    </g>
                </g>
            </g>
        </g>
        <g id="Cursor---Pointer" transform="translate(1193.000000, 307.000000)">
            <mask id="mask-8" fill="white">
                <use xlink:href="#path-7"></use>
            </mask>
            <g id="Mask"></g>
            <g id="soft-shadow" mask="url(#mask-8)" fill="black" fill-opacity="1">
                <use filter="url(#filter-10)" xlink:href="#path-9"></use>
            </g>
            <g id="Hard-shadow" mask="url(#mask-8)" fill="black" fill-opacity="1">
                <use filter="url(#filter-12)" xlink:href="#path-11"></use>
            </g>
            <path d="M14.7241056,7.47141669 C15.0443785,7.18221416 15.5213697,7.03670189 15.9663552,7.10541779 C16.623426,7.2068845 17.0693072,7.73292411 17.1012263,8.5465756 C17.1160667,8.93479975 17.1205439,9.08702079 17.1216145,9.2406012 C17.1219137,9.29681339 17.1219137,9.34230064 17.1217032,9.46255315 C17.1215507,9.53598184 17.1215507,9.53598184 17.1215,9.6249 C17.1215,10.1318217 17.1103932,10.4549875 17.0803789,10.8558756 C17.025612,11.5625448 16.9364875,12.2815187 16.8250715,12.6719204 C16.7090161,13.0781143 16.3931518,13.7728809 16.0969319,14.1972839 C16.0616068,14.2383979 15.9981808,14.3141219 15.9161351,14.4153602 C15.7791712,14.5843634 15.6422568,14.7609784 15.5150498,14.9357645 C15.4479652,15.0279408 15.3853573,15.1172241 15.3280839,15.2027233 C15.135788,15.4897873 15.0136878,15.7217462 14.9884977,15.8429565 C14.9298607,16.1222273 14.9117412,16.2502987 14.9064514,16.3851797 C14.9050538,16.4263944 14.9050538,16.4263944 14.9040081,16.4734885 C14.9012704,16.599997 14.8995119,16.6547538 14.8938754,16.7525348 C14.8906335,16.8086343 14.891639,16.8735285 14.8967392,16.945205 C14.9047839,17.0582597 14.9224844,17.1823622 14.9469771,17.3094239 C14.9681042,17.4190259 14.9890559,17.5060837 15.0020947,17.5535305 L15.1163608,17.9693322 L14.6887247,18.0247863 C14.6275805,18.0327152 14.5252168,18.0442534 14.3967426,18.0557325 C14.2263728,18.0709549 14.0575496,18.0814699 13.8980238,18.0851396 C13.6840578,18.0900615 13.4994466,18.0824989 13.3468474,18.058125 C12.8664848,17.9807264 12.3907775,17.3854512 12.0743925,16.7830539 C11.6431081,17.4647811 11.1749086,18.0138098 10.7202872,18.0709698 C10.2949704,18.1244528 9.70235518,18.1299326 8.54206362,18.1099728 C8.4349103,18.1081094 8.4349103,18.1081094 8.32811166,18.106208 C7.90126416,18.0986007 7.73999547,18.0960026 7.53069835,18.0938807 L7.08548269,18.089367 L7.16562491,17.6514006 C7.16935442,17.6310193 7.17586345,17.5882387 7.18261233,17.528931 C7.20212706,17.3574397 7.20772941,17.1794621 7.19163153,17.0199056 C7.17206735,16.8259923 7.12268682,16.6955281 7.06476789,16.6467428 C6.92588556,16.5288067 6.77400729,16.3878509 6.46754447,16.0967558 C6.13929445,15.7849397 6.03552367,15.6876836 5.8852309,15.5522788 L5.0532309,14.6312788 C4.89386376,14.431117 4.10426845,13.079656 3.77991366,12.6089715 C3.65991997,12.4351876 3.60494436,12.3661011 3.10029899,11.7442336 C3.07515424,11.7132375 3.07515424,11.7132375 3.04999471,11.6821695 C2.63887453,11.1742372 2.41852962,10.8791432 2.28826739,10.6348152 C2.05155517,10.1826206 2.02680459,9.94708422 2.10363156,9.43538784 C2.22854985,8.60082735 3.05933221,7.98245865 3.93474788,8.06656023 C4.46843682,8.11694704 4.85716923,8.34628834 5.49156673,8.86534129 C5.57863854,8.93638314 5.67035426,9.02545325 5.77012363,9.13315539 C5.82379967,9.19109928 5.87935703,9.25396661 5.93843022,9.32319183 C5.9531917,9.34049015 5.97355864,9.36477937 5.99692576,9.39285223 C5.97800375,9.28396793 5.95805218,9.1750102 5.9346717,9.05132985 C5.9020994,8.87902568 5.86879967,8.71648437 5.83467395,8.56433967 C5.77231524,8.28762291 5.73240297,8.12180912 5.69157441,7.96802977 C5.68436831,7.94099225 5.68436831,7.94099225 5.67709145,7.91407638 C5.65521771,7.83343277 5.55252156,7.46904416 5.5582031,7.48934677 C5.50405585,7.29458454 5.45870214,7.11710283 5.40697978,6.90138387 C5.39538218,6.85288766 5.39538218,6.85288766 5.38388495,6.80440351 C5.31702896,6.51937923 5.28057519,6.3650796 5.23896917,6.1958902 C5.12130583,5.70842777 4.99154332,5.04897896 4.95451956,4.68776633 C4.85757296,3.75741917 4.92175648,3.00559427 5.30671616,2.5559263 C5.69435411,2.1034471 6.51216144,1.96898396 7.05777181,2.24527774 C7.37194983,2.40420764 7.62235919,2.6839669 7.84086261,3.05761668 C7.91175358,3.17884312 7.97624888,3.30488456 8.0408589,3.44413872 C8.07817188,3.5245595 8.18069847,3.75778381 8.16678169,3.72670651 C8.40871227,4.26725433 8.56826316,4.88671546 8.71084388,5.78198982 C8.73669027,5.94447536 8.76683646,6.12248374 8.80257795,6.32471587 C8.96033303,6.14969338 9.1569747,6.01359311 9.37166736,5.94943959 C9.73160401,5.84246541 10.1256595,5.81537607 10.469623,5.88650166 C10.8755393,5.96950053 11.3018135,6.25070145 11.4848686,6.5647246 C11.5133767,6.61386559 11.5401514,6.66592605 11.5653132,6.72082016 C11.7729326,6.44599757 12.1595901,6.20363236 12.4501872,6.15163148 C12.8165041,6.08684075 13.2154051,6.07961537 13.5519065,6.14495667 C13.8790768,6.20933957 14.3070559,6.53982044 14.4732516,6.79916785 C14.5741046,6.95831194 14.6563582,7.19025162 14.7241056,7.47141669 Z" id="Outline" fill="#000000" mask="url(#mask-8)"></path>
            <path d="M5.3315,14.3799 C5.0475,14.0209 4.7025,13.2869 4.0885,12.3959 C3.7405,11.8919 2.8775,10.9429 2.6205,10.4609 C2.3975,10.0349 2.4215,9.8439 2.4745,9.4909 C2.5685,8.8629 3.2125,8.3739 3.8995,8.4399 C4.4185,8.4889 4.8585,8.8319 5.2545,9.1559 C5.4935,9.3509 5.7875,9.7299 5.9645,9.9439 C6.1275,10.1399 6.1675,10.2209 6.3415,10.4529 C6.5715,10.7599 6.6435,10.9119 6.5555,10.5739 C6.4845,10.0779 6.3685,9.2309 6.2005,8.4819 C6.0725,7.9139 6.0415,7.8249 5.9195,7.3889 C5.7905,6.9249 5.7245,6.5999 5.6035,6.1079 C5.5195,5.7599 5.3685,5.0489 5.3275,4.6489 C5.2705,4.1019 5.2405,3.2099 5.5915,2.7999 C5.8665,2.4789 6.4975,2.3819 6.8885,2.5799 C7.4005,2.8389 7.6915,3.5829 7.8245,3.8799 C8.0635,4.4139 8.2115,5.0309 8.3405,5.8409 C8.5045,6.8719 8.8065,8.3029 8.8165,8.6039 C8.8265,8.9049 8.7485,7.4579 8.8125,7.1039 C8.8705,6.7829 9.1405,6.4099 9.4785,6.3089 C9.7645,6.2239 10.0995,6.1929 10.3945,6.2539 C10.7075,6.3179 11.0375,6.5419 11.1605,6.7529 C11.5225,7.3769 11.5295,8.6519 11.5445,8.5839 C11.6305,8.2079 11.6155,7.3549 11.8285,6.9999 C11.9685,6.7659 12.3255,6.5549 12.5155,6.5209 C12.8095,6.4689 13.1705,6.4529 13.4795,6.5129 C13.7285,6.5619 14.0655,6.8579 14.1565,6.9999 C14.3745,7.3439 14.4985,8.3169 14.5355,8.6579 C14.5505,8.7989 14.6095,8.2659 14.8285,7.9219 C15.2345,7.2829 16.6715,7.1589 16.7265,8.5609 C16.7515,9.2149 16.7465,9.1849 16.7465,9.6249 C16.7465,10.1419 16.7345,10.4529 16.7065,10.8269 C16.6755,11.2269 16.5895,12.1309 16.4645,12.5689 C16.3785,12.8699 16.0935,13.5469 15.8125,13.9529 C15.8125,13.9529 14.7385,15.2029 14.6215,15.7659 C14.5035,16.3279 14.5425,16.3319 14.5195,16.7309 C14.4965,17.1289 14.6405,17.6529 14.6405,17.6529 C14.6405,17.6529 13.8385,17.7569 13.4065,17.6879 C13.0155,17.6249 12.5315,16.8469 12.4065,16.6089 C12.2345,16.2809 11.8675,16.3439 11.7245,16.5859 C11.4995,16.9689 11.0155,17.6559 10.6735,17.6989 C10.0055,17.7829 8.6195,17.7299 7.5345,17.7189 C7.5345,17.7189 7.7195,16.7079 7.3075,16.3609 C7.0025,16.1019 6.4775,15.5769 6.1635,15.3009 L5.3315,14.3799 Z" id="Fill" stroke="#000000" stroke-width="0.75" fill="#FFFFFF" mask="url(#mask-8)"></path>
            <line x1="13.5664" y1="14.75" x2="13.5664" y2="11.25" id="Right-Line" stroke="#000000" stroke-width="0.75" stroke-linecap="round" mask="url(#mask-8)"></line>
            <line x1="11.5508" y1="14.7461" x2="11.5346758" y2="11.2461371" id="Center-Line" stroke="#000000" stroke-width="0.75" stroke-linecap="round" mask="url(#mask-8)"></line>
            <line x1="9.5547" y1="14.75" x2="9.57615278" y2="11.2500657" id="Left-Line" stroke="#000000" stroke-width="0.75" stroke-linecap="round" mask="url(#mask-8)"></line>
        </g>
        <g id="Group-5" transform="translate(597.909943, 138.850000)">
            <g id="ARROWS" transform="translate(0.000000, 84.000000)">
                <g id="Group-3" transform="translate(30.909943, 79.150000)">
                    <polygon id="Rectangle-Copy-8" fill="#8C8C8C" transform="translate(60.000000, 73.000000) scale(-1, 1) translate(-60.000000, -73.000000) " points="63 70 63 76 57 73"></polygon>
                    <path d="M0,0 L52.9036293,0 C58,0 58,3.10457314 58,6.9342582 L58,73" id="Rectangle-Copy" stroke="#8C8C8C" transform="translate(29.000000, 36.500000) rotate(180.000000) translate(-29.000000, -36.500000) "></path>
                </g>
                <path d="M0,0 L24.7518378,0 C28.1760033,0 31.0099433,3.07050106 31.0099433,6.6340928 L31.0099433,52.98 C31.0099433,55.3557278 30.97661,67.7457278 30.9099433,90.15" id="Rectangle" stroke="#8C8C8C"></path>
            </g>
            <g id="ARROWS-Copy" transform="translate(66.045028, 42.075000) scale(1, -1) translate(-66.045028, -42.075000) translate(19.090057, 0.000000)">
                <g id="Group-3" transform="translate(30.909943, 8.150000)">
                    <polygon id="Rectangle-Copy-8" fill="#8C8C8C" transform="translate(60.000000, 73.000000) scale(-1, 1) translate(-60.000000, -73.000000) " points="63 70 63 76 57 73"></polygon>
                    <path d="M0,0 L52.9036293,0 C58,0 58,3.10457314 58,6.9342582 L58,73" id="Rectangle-Copy" stroke="#8C8C8C" transform="translate(29.000000, 36.500000) rotate(180.000000) translate(-29.000000, -36.500000) "></path>
                </g>
                <path d="M0,0 L24.7518378,0 C28.1760033,0 31.0099433,3.07050106 31.0099433,6.6340928 L31.0099433,52.98" id="Rectangle" stroke="#8C8C8C"></path>
            </g>
        </g>
        <g id="Group-4" transform="translate(298.000000, 142.850000)">
            <g id="ARROWS" transform="translate(46.954972, 120.075000) scale(1, -1) translate(-46.954972, -120.075000) translate(0.000000, 78.000000)">
                <g id="Group-3" transform="translate(30.909943, 8.150000)">
                    <polygon id="Rectangle-Copy-8" fill="#8C8C8C" transform="translate(60.000000, 73.000000) scale(-1, 1) translate(-60.000000, -73.000000) " points="63 70 63 76 57 73"></polygon>
                    <path d="M0,0 L52.9036293,0 C58,0 58,3.10457314 58,6.9342582 L58,73" id="Rectangle-Copy" stroke="#8C8C8C" transform="translate(29.000000, 36.500000) rotate(180.000000) translate(-29.000000, -36.500000) "></path>
                </g>
                <path d="M0,0 L24.7518378,0 C28.1760033,0 31.0099433,3.07050106 31.0099433,6.6340928 L31.0099433,52.98" id="Rectangle" stroke="#8C8C8C"></path>
            </g>
            <g id="ARROWS">
                <g id="Group-3" transform="translate(30.909943, 8.150000)">
                    <polygon id="Rectangle-Copy-8" fill="#8C8C8C" transform="translate(60.000000, 73.000000) scale(-1, 1) translate(-60.000000, -73.000000) " points="63 70 63 76 57 73"></polygon>
                    <path d="M0,0 L52.9036293,0 C58,0 58,3.10457314 58,6.9342582 L58,73" id="Rectangle-Copy" stroke="#8C8C8C" transform="translate(29.000000, 36.500000) rotate(180.000000) translate(-29.000000, -36.500000) "></path>
                </g>
                <path d="M0,0 L24.7518378,0 C28.1760033,0 31.0099433,3.07050106 31.0099433,6.6340928 L31.0099433,52.98" id="Rectangle" stroke="#8C8C8C"></path>
            </g>
        </g>
        <g id="ARROWS-Copy-2" transform="translate(964.954972, 110.925000) scale(1, -1) translate(-964.954972, -110.925000) translate(918.000000, 83.850000)">
            <g id="Group-3" transform="translate(30.909943, 28.150000)">
                <polygon id="Rectangle-Copy-8" fill="#8C8C8C" transform="translate(60.000000, 23.000000) scale(-1, 1) translate(-60.000000, -23.000000) " points="63 20 63 26 57 23"></polygon>
                <path d="M0,0 L52.9036293,0 C58,0 58,3.10457314 58,6.9342582 L58,23" id="Rectangle-Copy" stroke="#8C8C8C" transform="translate(29.000000, 11.500000) rotate(180.000000) translate(-29.000000, -11.500000) "></path>
            </g>
            <path d="M0,0 L24.7518378,0 C28.1760033,0 31.0099433,3.07050106 31.0099433,6.6340928 L31.0099433,39.98" id="Rectangle" stroke="#8C8C8C"></path>
        </g>
        <g id="ARROWS-Copy-3" transform="translate(960.274858, 347.925000) scale(1, -1) translate(-960.274858, -347.925000) translate(896.819887, 320.850000)">
            <g id="Group-3" transform="translate(63.909943, 28.150000)">
                <polygon id="Rectangle-Copy-8" fill="#8C8C8C" transform="translate(60.000000, 23.000000) scale(-1, 1) translate(-60.000000, -23.000000) " points="63 20 63 26 57 23"></polygon>
                <path d="M0,0 L52.9036293,0 C58,0 58,3.10457314 58,6.9342582 L58,23" id="Rectangle-Copy" stroke="#8C8C8C" transform="translate(29.000000, 11.500000) rotate(180.000000) translate(-29.000000, -11.500000) "></path>
            </g>
            <path d="M0,0 L57.7518378,0 C61.1760033,0 64.0099433,3.07050106 64.0099433,6.6340928 L64.0099433,39.98" id="Rectangle" stroke="#8C8C8C"></path>
        </g>
    </g>
</svg>