<?xml version="1.0" encoding="UTF-8"?>
<svg width="544px" height="128px" viewBox="0 0 544 128" version="1.1" xmlns="http://www.w3.org/2000/svg" xmlns:xlink="http://www.w3.org/1999/xlink">
    <title>relationalLinks</title>
    <g id="relationalLinks" stroke="none" stroke-width="1" fill="none" fill-rule="evenodd">
        <rect fill="#FFFFFF" x="0" y="0" width="544" height="128"></rect>
        <g id="Group-5" transform="translate(16.000000, 12.000000)">
            <text id="8-X-8px" font-family="IBMPlexSans, IBM Plex Sans" font-size="14" font-weight="normal" fill="#D02670">
                <tspan x="2.18064516" y="88.3665675">8 X 8px</tspan>
            </text>
            <text id="square" font-family="IBMPlexSans-SemiBold, IBM Plex Sans" font-size="14" font-weight="500" letter-spacing="0.100000005" fill="#D02670">
                <tspan x="0" y="14">square</tspan>
            </text>
            <rect id="Rectangle-Copy-11" stroke="#8D8D8D" fill="#FFFFFF" x="2.5" y="27.4497475" width="7" height="7"></rect>
            <rect id="Rectangle-Copy-13" fill="#8D8D8D" x="2" y="56.1296931" width="8" height="8"></rect>
            <line x1="33.25" y1="30.9497475" x2="9.75" y2="30.9497475" id="Line-Copy-9" stroke="#8D8D8D" fill="#4178BE"></line>
            <line x1="33.25" y1="60.1296931" x2="9.75" y2="60.1296931" id="Line-Copy-12" stroke="#8D8D8D" fill="#4178BE"></line>
        </g>
        <g id="Group-3" transform="translate(216.920645, 12.000000)">
            <text id="8-X-8px-Copy" font-family="IBMPlexSans, IBM Plex Sans" font-size="14" font-weight="normal" fill="#D02670">
                <tspan x="0.430645161" y="88.3665675">8 X 8px</tspan>
            </text>
            <text id="circle" font-family="IBMPlexSans-SemiBold, IBM Plex Sans" font-size="14" font-weight="500" letter-spacing="0.100000005" fill="#D02670">
                <tspan x="0" y="14">circle</tspan>
            </text>
            <circle id="Oval" stroke="#8D8D8D" fill="#FFFFFF" cx="4.75" cy="30.9497475" r="3.5"></circle>
            <circle id="Oval-Copy" fill="#8D8D8D" cx="4.75" cy="60.1296931" r="4"></circle>
            <line x1="32" y1="30.9497475" x2="8.5" y2="30.9497475" id="Line-Copy-4" stroke="#8D8D8D" fill="#4178BE"></line>
            <line x1="32" y1="60.1296931" x2="8.5" y2="60.1296931" id="Line-Copy-10" stroke="#8D8D8D"></line>
        </g>
        <g id="Group" transform="translate(415.591290, 12.000000)">
            <text id="5-X-10px" font-family="IBMPlexSans, IBM Plex Sans" font-size="14" font-weight="normal" fill="#D02670">
                <tspan x="36.1806452" y="35.3665675">5 X 10px</tspan>
            </text>
            <text id="7-X-8px" font-family="IBMPlexSans, IBM Plex Sans" font-size="14" font-weight="normal" fill="#D02670">
                <tspan x="36.1806452" y="62.3665675">7 X 8px</tspan>
            </text>
            <text id="port" font-family="IBMPlexSans-SemiBold, IBM Plex Sans" font-size="14" font-weight="500" letter-spacing="0.100000005" fill="#D02670">
                <tspan x="0" y="14">port</tspan>
            </text>
            <line x1="23.5" y1="31.9497475" x2="-3.02258218e-14" y2="31.9497475" id="Line-Copy-20" stroke="#8D8D8D" fill="#4178BE"></line>
            <line x1="23.5" y1="60.1296931" x2="-3.02258218e-14" y2="60.1296931" id="Line-Copy-39" stroke="#8D8D8D"></line>
            <path d="M22.5,36.9497475 C25.2614237,36.9497475 27.5,34.7111712 27.5,31.9497475 C27.5,29.1883237 25.2614237,26.9497475 22.5,26.9497475 C22.5,26.9497475 22.5,29.1884753 22.5,31.9498991 C22.5,34.7113228 22.5,36.9497475 22.5,36.9497475 Z" id="Oval-Copy-6" fill="#8D8D8D" transform="translate(25.000000, 31.949747) scale(-1, 1) translate(-25.000000, -31.949747) "></path>
            <polygon id="Rectangle-Copy-8" fill="#8D8D8D" points="27.5 56.1296931 27.5 64.1296931 20.5 60.1296931"></polygon>
        </g>
        <g id="Group-2" transform="translate(316.221290, 12.000000)">
            <text id="8px" font-family="IBMPlexSans, IBM Plex Sans" font-size="14" font-weight="normal" fill="#D02670">
                <tspan x="0.5" y="88.3665675">8px</tspan>
            </text>
            <text id="tee" font-family="IBMPlexSans-SemiBold, IBM Plex Sans" font-size="14" font-weight="500" letter-spacing="0.100000005" fill="#D02670">
                <tspan x="0" y="14">tee</tspan>
            </text>
            <g id="Group-5-Copy-2" transform="translate(0.500000, 26.949747)" stroke="#8D8D8D">
                <line x1="24" y1="4" x2="0.5" y2="4" id="Line-Copy-4" fill="#4178BE"></line>
                <line x1="0.5" y1="0" x2="0.5" y2="8" id="Path"></line>
            </g>
        </g>
        <g id="Group-4" transform="translate(117.050645, 12.000000)">
            <text id="7-X-7px" font-family="IBMPlexSans, IBM Plex Sans" font-size="14" font-weight="normal" fill="#D02670">
                <tspan x="0.13039263" y="88.3665675">7 X 7px</tspan>
            </text>
            <text id="diamond" font-family="IBMPlexSans-SemiBold, IBM Plex Sans" font-size="14" font-weight="500" letter-spacing="0.100000005" fill="#D02670">
                <tspan x="4.54747351e-12" y="14">diamond</tspan>
            </text>
            <line x1="33.1494949" y1="30.9497475" x2="4.94974747" y2="30.9497475" id="Line-Copy-8" stroke="#8D8D8D" fill="#8D8D8D"></line>
            <rect id="Rectangle-Copy-12" stroke="#8D8D8D" fill="#FFFFFF" transform="translate(4.949747, 30.949747) rotate(45.000000) translate(-4.949747, -30.949747) " x="1.94974747" y="27.9497475" width="6" height="6"></rect>
            <rect id="Rectangle-Copy-14" fill="#8D8D8D" transform="translate(5.823740, 60.129693) rotate(45.000000) translate(-5.823740, -60.129693) " x="2.3237398" y="56.6296931" width="7" height="7"></rect>
            <line x1="33.1494949" y1="60.1296931" x2="9.64949494" y2="60.1296931" id="Line-Copy-11" stroke="#8D8D8D" fill="#4178BE"></line>
        </g>
    </g>
</svg>