<?xml version="1.0" encoding="UTF-8"?>
<svg width="608px" height="608px" viewBox="0 0 608 608" version="1.1" xmlns="http://www.w3.org/2000/svg" xmlns:xlink="http://www.w3.org/1999/xlink">
    <title>roundedCorners</title>
    <g id="roundedCorners" stroke="none" stroke-width="1" fill="none" fill-rule="evenodd">
        <rect fill="#FFFFFF" x="0" y="0" width="608" height="608"></rect>
        <g id="Group-Copy" transform="translate(40.000000, 138.000000)">
            <path id="Line-Copy-2" d="M247.732057,44.6857087 C257.01298,44.6857087 264.556853,52.1229044 264.729049,61.362669 L264.732057,61.6857087 L264.732057,187.685709 C264.732057,195.865116 271.278843,202.515439 279.418229,202.682491 L279.732057,202.685709 L323,202.685 L323,196.685709 L337,203.685709 L323,210.685709 L323,204.685 L279.732057,204.685709 C270.451134,204.685709 262.907261,197.248513 262.735065,188.008748 L262.732057,187.685709 L262.732057,61.6857087 C262.732057,53.5063017 256.18527,46.8559785 248.045885,46.6889265 L247.732057,46.6857087 L178,46.6857087 L178,44.6857087 L247.732057,44.6857087 Z" fill="#697077" fill-rule="nonzero"></path>
            <g id="node-/-white-theme-/-shape-node-/-low-contrast-/-01-enabled-copy-26">
                <g id="shape" transform="translate(85.444206, 0.000000)" fill="#F4F4F4">
                    <rect id="style" x="0" y="0" width="96" height="96" rx="48"></rect>
                </g>
                <g id="icon" transform="translate(113.444206, 28.000000)" fill="#161616">
                    <path d="M20,12.5 C15.8578644,12.5 12.5,15.8578644 12.5,20 L12.5,30 C12.5,34.1421356 15.8578644,37.5 20,37.5 C24.1421356,37.5 27.5,34.1421356 27.5,30 L27.5,20 C27.5,15.8578644 24.1421356,12.5 20,12.5 Z M14.6875,22.3375 L25.3125,22.3375 L25.3125,27.65 L14.6875,27.65 L14.6875,22.3375 Z M20,35.3125 C17.0716741,35.298816 14.701184,32.9283259 14.6875,30 L14.6875,29.8375 L25.3125,29.8375 L25.3125,30 C25.298816,32.9283259 22.9283259,35.298816 20,35.3125 L20,35.3125 Z M25.3125,20.15 L14.6875,20.15 L14.6875,20 C14.6875,17.0659873 17.0659873,14.6875 20,14.6875 C22.9340127,14.6875 25.3125,17.0659873 25.3125,20 L25.3125,20.15 Z M38.325,24.0125 L30,16.25 L30,27.625 C30,30.3864237 32.2385763,32.625 35,32.625 C37.7614237,32.625 40,30.3864237 40,27.625 C39.9926799,26.2347468 39.3813768,24.9163393 38.325,24.0125 L38.325,24.0125 Z M35,30.4375 C33.4466991,30.4375 32.1875,29.1783009 32.1875,27.625 L32.1875,21.25 L36.8375,25.5875 L36.8375,25.5875 C37.4033534,26.0634873 37.7360125,26.7607041 37.75,27.5 C37.783831,28.2566036 37.5110905,28.9948757 36.9934926,29.5477643 C36.4758947,30.100653 35.7571889,30.4214258 35,30.4375 L35,30.4375 Z M0,27.625 C0,30.3864237 2.23857625,32.625 5,32.625 C7.76142375,32.625 10,30.3864237 10,27.625 L10,16.25 L1.675,24.0125 C0.625297298,24.9213829 0.0154817754,26.2365821 0,27.625 L0,27.625 Z M3.1,25.675 L3.1,25.675 L7.8125,21.25 L7.8125,27.625 C7.8125,29.1783009 6.55330086,30.4375 5,30.4375 C3.44669914,30.4375 2.1875,29.1783009 2.1875,27.625 C2.19061456,26.8725524 2.52428628,26.1595005 3.1,25.675 L3.1,25.675 Z M18.75,6.875 C18.75,4.45875422 16.7912458,2.5 14.375,2.5 C11.9587542,2.5 10,4.45875422 10,6.875 C10,9.29124578 11.9587542,11.25 14.375,11.25 C16.7912458,11.25 18.75,9.29124578 18.75,6.875 Z M12.1875,6.875 C12.1875,5.66687711 13.1668771,4.6875 14.375,4.6875 C15.5831229,4.6875 16.5625,5.66687711 16.5625,6.875 C16.5625,8.08312289 15.5831229,9.0625 14.375,9.0625 C13.1725186,9.0489877 12.2010123,8.07748144 12.1875,6.875 Z M25.625,2.5 C23.2087542,2.5 21.25,4.45875422 21.25,6.875 C21.25,9.29124578 23.2087542,11.25 25.625,11.25 C28.0412458,11.25 30,9.29124578 30,6.875 C30,4.45875422 28.0412458,2.5 25.625,2.5 Z M25.625,9.0625 C24.4168771,9.0625 23.4375,8.08312289 23.4375,6.875 C23.4375,5.66687711 24.4168771,4.6875 25.625,4.6875 C26.8331229,4.6875 27.8125,5.66687711 27.8125,6.875 C27.7989877,8.07748144 26.8274814,9.0489877 25.625,9.0625 L25.625,9.0625 Z" id="Fill"></path>
                </g>
                <g id="group" transform="translate(0.444206, 104.000000)" fill="#161616" font-size="28" letter-spacing="0.319999993" line-spacing="36">
                    <text id="Secondary-text" font-family="IBMPlexSans, IBM Plex Sans" font-weight="normal">
                        <tspan x="29.3580001" y="61.6679077">Secondary text</tspan>
                    </text>
                    <text id="Primary-text" font-family="IBMPlexSans-SemiBold, IBM Plex Sans" font-weight="500">
                        <tspan x="42.53" y="25.0518188">Primary text</tspan>
                    </text>
                </g>
            </g>
            <g id="node-/-white-theme-/-shape-node-/-low-contrast-/-01-enabled-copy-26" transform="translate(262.000000, 155.000000)">
                <g id="shape" transform="translate(85.444206, 0.000000)" fill="#F4F4F4">
                    <rect id="style" x="0" y="0" width="96" height="96" rx="48"></rect>
                </g>
                <g id="icon" transform="translate(113.444206, 28.000000)" fill="#161616">
                    <path d="M20,12.5 C15.8578644,12.5 12.5,15.8578644 12.5,20 L12.5,30 C12.5,34.1421356 15.8578644,37.5 20,37.5 C24.1421356,37.5 27.5,34.1421356 27.5,30 L27.5,20 C27.5,15.8578644 24.1421356,12.5 20,12.5 Z M14.6875,22.3375 L25.3125,22.3375 L25.3125,27.65 L14.6875,27.65 L14.6875,22.3375 Z M20,35.3125 C17.0716741,35.298816 14.701184,32.9283259 14.6875,30 L14.6875,29.8375 L25.3125,29.8375 L25.3125,30 C25.298816,32.9283259 22.9283259,35.298816 20,35.3125 L20,35.3125 Z M25.3125,20.15 L14.6875,20.15 L14.6875,20 C14.6875,17.0659873 17.0659873,14.6875 20,14.6875 C22.9340127,14.6875 25.3125,17.0659873 25.3125,20 L25.3125,20.15 Z M38.325,24.0125 L30,16.25 L30,27.625 C30,30.3864237 32.2385763,32.625 35,32.625 C37.7614237,32.625 40,30.3864237 40,27.625 C39.9926799,26.2347468 39.3813768,24.9163393 38.325,24.0125 L38.325,24.0125 Z M35,30.4375 C33.4466991,30.4375 32.1875,29.1783009 32.1875,27.625 L32.1875,21.25 L36.8375,25.5875 L36.8375,25.5875 C37.4033534,26.0634873 37.7360125,26.7607041 37.75,27.5 C37.783831,28.2566036 37.5110905,28.9948757 36.9934926,29.5477643 C36.4758947,30.100653 35.7571889,30.4214258 35,30.4375 L35,30.4375 Z M0,27.625 C0,30.3864237 2.23857625,32.625 5,32.625 C7.76142375,32.625 10,30.3864237 10,27.625 L10,16.25 L1.675,24.0125 C0.625297298,24.9213829 0.0154817754,26.2365821 0,27.625 L0,27.625 Z M3.1,25.675 L3.1,25.675 L7.8125,21.25 L7.8125,27.625 C7.8125,29.1783009 6.55330086,30.4375 5,30.4375 C3.44669914,30.4375 2.1875,29.1783009 2.1875,27.625 C2.19061456,26.8725524 2.52428628,26.1595005 3.1,25.675 L3.1,25.675 Z M18.75,6.875 C18.75,4.45875422 16.7912458,2.5 14.375,2.5 C11.9587542,2.5 10,4.45875422 10,6.875 C10,9.29124578 11.9587542,11.25 14.375,11.25 C16.7912458,11.25 18.75,9.29124578 18.75,6.875 Z M12.1875,6.875 C12.1875,5.66687711 13.1668771,4.6875 14.375,4.6875 C15.5831229,4.6875 16.5625,5.66687711 16.5625,6.875 C16.5625,8.08312289 15.5831229,9.0625 14.375,9.0625 C13.1725186,9.0489877 12.2010123,8.07748144 12.1875,6.875 Z M25.625,2.5 C23.2087542,2.5 21.25,4.45875422 21.25,6.875 C21.25,9.29124578 23.2087542,11.25 25.625,11.25 C28.0412458,11.25 30,9.29124578 30,6.875 C30,4.45875422 28.0412458,2.5 25.625,2.5 Z M25.625,9.0625 C24.4168771,9.0625 23.4375,8.08312289 23.4375,6.875 C23.4375,5.66687711 24.4168771,4.6875 25.625,4.6875 C26.8331229,4.6875 27.8125,5.66687711 27.8125,6.875 C27.7989877,8.07748144 26.8274814,9.0489877 25.625,9.0625 L25.625,9.0625 Z" id="Fill"></path>
                </g>
                <g id="group" transform="translate(0.444206, 104.000000)" fill="#161616" font-size="28" letter-spacing="0.319999993" line-spacing="36">
                    <text id="Secondary-text" font-family="IBMPlexSans, IBM Plex Sans" font-weight="normal">
                        <tspan x="29.3580001" y="61.6679077">Secondary text</tspan>
                    </text>
                    <text id="Primary-text" font-family="IBMPlexSans-SemiBold, IBM Plex Sans" font-weight="500">
                        <tspan x="42.53" y="25.0518188">Primary text</tspan>
                    </text>
                </g>
            </g>
        </g>
    </g>
</svg>