<?xml version="1.0" encoding="UTF-8"?>
<svg width="608px" height="342px" viewBox="0 0 608 342" version="1.1" xmlns="http://www.w3.org/2000/svg" xmlns:xlink="http://www.w3.org/1999/xlink">
    <title>shapeNodeFormatVariants</title>
    <g id="shapeNodeFormatVariants" stroke="none" stroke-width="1" fill="none" fill-rule="evenodd">
        <g id="Background" fill="#FFFFFF">
            <rect x="0" y="0" width="608" height="342"></rect>
        </g>
        <g id="shape-node-/-white-/-low-contrast-/-02-hover-copy-5" transform="translate(44.250000, 120.000000)">
            <g id="style" transform="translate(42.722103, 0.000000)" fill="#F4F4F4">
                <rect x="0" y="0" width="48" height="48" rx="24"></rect>
            </g>
            <g id="icon" transform="translate(56.722103, 14.000000)" fill="#161616">
                <path d="M10,6.25 C7.92893219,6.25 6.25,7.92893219 6.25,10 L6.25,15 C6.25,17.0710678 7.92893219,18.75 10,18.75 C12.0710678,18.75 13.75,17.0710678 13.75,15 L13.75,10 C13.75,7.92893219 12.0710678,6.25 10,6.25 Z M7.34375,11.16875 L12.65625,11.16875 L12.65625,13.825 L7.34375,13.825 L7.34375,11.16875 Z M10,17.65625 C8.53583704,17.649408 7.35059199,16.464163 7.34375,15 L7.34375,14.91875 L12.65625,14.91875 L12.65625,15 C12.649408,16.464163 11.464163,17.649408 10,17.65625 L10,17.65625 Z M12.65625,10.075 L7.34375,10.075 L7.34375,10 C7.34375,8.53299363 8.53299363,7.34375 10,7.34375 C11.4670064,7.34375 12.65625,8.53299363 12.65625,10 L12.65625,10.075 Z M19.1625,12.00625 L15,8.125 L15,13.8125 C15,15.1932119 16.1192881,16.3125 17.5,16.3125 C18.8807119,16.3125 20,15.1932119 20,13.8125 C19.99634,13.1173734 19.6906884,12.4581697 19.1625,12.00625 L19.1625,12.00625 Z M17.5,15.21875 C16.7233496,15.21875 16.09375,14.5891504 16.09375,13.8125 L16.09375,10.625 L18.41875,12.79375 L18.41875,12.79375 C18.7016767,13.0317436 18.8680062,13.3803521 18.875,13.75 C18.8919155,14.1283018 18.7555452,14.4974378 18.4967463,14.7738822 C18.2379473,15.0503265 17.8785945,15.2107129 17.5,15.21875 L17.5,15.21875 Z M0,13.8125 C0,15.1932119 1.11928813,16.3125 2.5,16.3125 C3.88071187,16.3125 5,15.1932119 5,13.8125 L5,8.125 L0.8375,12.00625 C0.312648649,12.4606915 0.00774088769,13.118291 0,13.8125 L0,13.8125 Z M1.55,12.8375 L1.55,12.8375 L3.90625,10.625 L3.90625,13.8125 C3.90625,14.5891504 3.27665043,15.21875 2.5,15.21875 C1.72334957,15.21875 1.09375,14.5891504 1.09375,13.8125 C1.09530728,13.4362762 1.26214314,13.0797503 1.55,12.8375 L1.55,12.8375 Z M9.375,3.4375 C9.375,2.22937711 8.39562289,1.25 7.1875,1.25 C5.97937711,1.25 5,2.22937711 5,3.4375 C5,4.64562289 5.97937711,5.625 7.1875,5.625 C8.39562289,5.625 9.375,4.64562289 9.375,3.4375 Z M6.09375,3.4375 C6.09375,2.83343855 6.58343855,2.34375 7.1875,2.34375 C7.79156145,2.34375 8.28125,2.83343855 8.28125,3.4375 C8.28125,4.04156145 7.79156145,4.53125 7.1875,4.53125 C6.58625928,4.52449385 6.10050615,4.03874072 6.09375,3.4375 Z M12.8125,1.25 C11.6043771,1.25 10.625,2.22937711 10.625,3.4375 C10.625,4.64562289 11.6043771,5.625 12.8125,5.625 C14.0206229,5.625 15,4.64562289 15,3.4375 C15,2.22937711 14.0206229,1.25 12.8125,1.25 Z M12.8125,4.53125 C12.2084386,4.53125 11.71875,4.04156145 11.71875,3.4375 C11.71875,2.83343855 12.2084386,2.34375 12.8125,2.34375 C13.4165614,2.34375 13.90625,2.83343855 13.90625,3.4375 C13.8994938,4.03874072 13.4137407,4.52449385 12.8125,4.53125 L12.8125,4.53125 Z" id="Fill"></path>
            </g>
            <g id="group" transform="translate(0.222103, 52.000000)" fill="#161616" font-size="14" letter-spacing="0.159999996" line-spacing="18">
                <text id="Secondary-text" font-family="IBMPlexSans, IBM Plex Sans" font-weight="normal">
                    <tspan x="35.278" y="32">Solid, low </tspan>
                    <tspan x="39.932" y="50">contrast</tspan>
                </text>
                <text id="Primary-text" font-family="IBMPlexSans-SemiBold, IBM Plex Sans" font-weight="500">
                    <tspan x="27.473" y="14">Shape node</tspan>
                </text>
            </g>
        </g>
        <g id="shape-node-/-white-/-low-contrast-/-02-hover-copy-7" transform="translate(430.972103, 120.000000)">
            <rect id="style" stroke="#393939" fill="#F4F4F4" x="42.5" y="0" width="48" height="48" rx="24"></rect>
            <g id="icon" transform="translate(56.500000, 14.000000)" fill="#161616">
                <path d="M10,6.25 C7.92893219,6.25 6.25,7.92893219 6.25,10 L6.25,15 C6.25,17.0710678 7.92893219,18.75 10,18.75 C12.0710678,18.75 13.75,17.0710678 13.75,15 L13.75,10 C13.75,7.92893219 12.0710678,6.25 10,6.25 Z M7.34375,11.16875 L12.65625,11.16875 L12.65625,13.825 L7.34375,13.825 L7.34375,11.16875 Z M10,17.65625 C8.53583704,17.649408 7.35059199,16.464163 7.34375,15 L7.34375,14.91875 L12.65625,14.91875 L12.65625,15 C12.649408,16.464163 11.464163,17.649408 10,17.65625 L10,17.65625 Z M12.65625,10.075 L7.34375,10.075 L7.34375,10 C7.34375,8.53299363 8.53299363,7.34375 10,7.34375 C11.4670064,7.34375 12.65625,8.53299363 12.65625,10 L12.65625,10.075 Z M19.1625,12.00625 L15,8.125 L15,13.8125 C15,15.1932119 16.1192881,16.3125 17.5,16.3125 C18.8807119,16.3125 20,15.1932119 20,13.8125 C19.99634,13.1173734 19.6906884,12.4581697 19.1625,12.00625 L19.1625,12.00625 Z M17.5,15.21875 C16.7233496,15.21875 16.09375,14.5891504 16.09375,13.8125 L16.09375,10.625 L18.41875,12.79375 L18.41875,12.79375 C18.7016767,13.0317436 18.8680062,13.3803521 18.875,13.75 C18.8919155,14.1283018 18.7555452,14.4974378 18.4967463,14.7738822 C18.2379473,15.0503265 17.8785945,15.2107129 17.5,15.21875 L17.5,15.21875 Z M0,13.8125 C0,15.1932119 1.11928813,16.3125 2.5,16.3125 C3.88071187,16.3125 5,15.1932119 5,13.8125 L5,8.125 L0.8375,12.00625 C0.312648649,12.4606915 0.00774088769,13.118291 0,13.8125 L0,13.8125 Z M1.55,12.8375 L1.55,12.8375 L3.90625,10.625 L3.90625,13.8125 C3.90625,14.5891504 3.27665043,15.21875 2.5,15.21875 C1.72334957,15.21875 1.09375,14.5891504 1.09375,13.8125 C1.09530728,13.4362762 1.26214314,13.0797503 1.55,12.8375 L1.55,12.8375 Z M9.375,3.4375 C9.375,2.22937711 8.39562289,1.25 7.1875,1.25 C5.97937711,1.25 5,2.22937711 5,3.4375 C5,4.64562289 5.97937711,5.625 7.1875,5.625 C8.39562289,5.625 9.375,4.64562289 9.375,3.4375 Z M6.09375,3.4375 C6.09375,2.83343855 6.58343855,2.34375 7.1875,2.34375 C7.79156145,2.34375 8.28125,2.83343855 8.28125,3.4375 C8.28125,4.04156145 7.79156145,4.53125 7.1875,4.53125 C6.58625928,4.52449385 6.10050615,4.03874072 6.09375,3.4375 Z M12.8125,1.25 C11.6043771,1.25 10.625,2.22937711 10.625,3.4375 C10.625,4.64562289 11.6043771,5.625 12.8125,5.625 C14.0206229,5.625 15,4.64562289 15,3.4375 C15,2.22937711 14.0206229,1.25 12.8125,1.25 Z M12.8125,4.53125 C12.2084386,4.53125 11.71875,4.04156145 11.71875,3.4375 C11.71875,2.83343855 12.2084386,2.34375 12.8125,2.34375 C13.4165614,2.34375 13.90625,2.83343855 13.90625,3.4375 C13.8994938,4.03874072 13.4137407,4.52449385 12.8125,4.53125 L12.8125,4.53125 Z" id="Fill"></path>
            </g>
            <g id="group" transform="translate(0.000000, 52.000000)" fill="#161616" font-size="14" letter-spacing="0.159999996" line-spacing="18">
                <text id="Secondary-text" font-family="IBMPlexSans, IBM Plex Sans" font-weight="normal">
                    <tspan x="38.938" y="32">Outlined</tspan>
                </text>
                <text id="Primary-text" font-family="IBMPlexSans-SemiBold, IBM Plex Sans" font-weight="500">
                    <tspan x="27.473" y="14">Shape node</tspan>
                </text>
            </g>
        </g>
        <g id="shape-node-/-white-/-low-contrast-/-02-hover-copy-6" transform="translate(237.500000, 120.000000)">
            <g id="shape" transform="translate(42.722103, 0.000000)" fill="#393939">
                <rect id="style" x="0" y="0" width="48" height="48" rx="24"></rect>
            </g>
            <g id="icon" transform="translate(56.722103, 14.000000)" fill="#F4F4F4">
                <path d="M10,6.25 C7.92893219,6.25 6.25,7.92893219 6.25,10 L6.25,15 C6.25,17.0710678 7.92893219,18.75 10,18.75 C12.0710678,18.75 13.75,17.0710678 13.75,15 L13.75,10 C13.75,7.92893219 12.0710678,6.25 10,6.25 Z M7.34375,11.16875 L12.65625,11.16875 L12.65625,13.825 L7.34375,13.825 L7.34375,11.16875 Z M10,17.65625 C8.53583704,17.649408 7.35059199,16.464163 7.34375,15 L7.34375,14.91875 L12.65625,14.91875 L12.65625,15 C12.649408,16.464163 11.464163,17.649408 10,17.65625 L10,17.65625 Z M12.65625,10.075 L7.34375,10.075 L7.34375,10 C7.34375,8.53299363 8.53299363,7.34375 10,7.34375 C11.4670064,7.34375 12.65625,8.53299363 12.65625,10 L12.65625,10.075 Z M19.1625,12.00625 L15,8.125 L15,13.8125 C15,15.1932119 16.1192881,16.3125 17.5,16.3125 C18.8807119,16.3125 20,15.1932119 20,13.8125 C19.99634,13.1173734 19.6906884,12.4581697 19.1625,12.00625 L19.1625,12.00625 Z M17.5,15.21875 C16.7233496,15.21875 16.09375,14.5891504 16.09375,13.8125 L16.09375,10.625 L18.41875,12.79375 L18.41875,12.79375 C18.7016767,13.0317436 18.8680062,13.3803521 18.875,13.75 C18.8919155,14.1283018 18.7555452,14.4974378 18.4967463,14.7738822 C18.2379473,15.0503265 17.8785945,15.2107129 17.5,15.21875 L17.5,15.21875 Z M0,13.8125 C0,15.1932119 1.11928813,16.3125 2.5,16.3125 C3.88071187,16.3125 5,15.1932119 5,13.8125 L5,8.125 L0.8375,12.00625 C0.312648649,12.4606915 0.00774088769,13.118291 0,13.8125 L0,13.8125 Z M1.55,12.8375 L1.55,12.8375 L3.90625,10.625 L3.90625,13.8125 C3.90625,14.5891504 3.27665043,15.21875 2.5,15.21875 C1.72334957,15.21875 1.09375,14.5891504 1.09375,13.8125 C1.09530728,13.4362762 1.26214314,13.0797503 1.55,12.8375 L1.55,12.8375 Z M9.375,3.4375 C9.375,2.22937711 8.39562289,1.25 7.1875,1.25 C5.97937711,1.25 5,2.22937711 5,3.4375 C5,4.64562289 5.97937711,5.625 7.1875,5.625 C8.39562289,5.625 9.375,4.64562289 9.375,3.4375 Z M6.09375,3.4375 C6.09375,2.83343855 6.58343855,2.34375 7.1875,2.34375 C7.79156145,2.34375 8.28125,2.83343855 8.28125,3.4375 C8.28125,4.04156145 7.79156145,4.53125 7.1875,4.53125 C6.58625928,4.52449385 6.10050615,4.03874072 6.09375,3.4375 Z M12.8125,1.25 C11.6043771,1.25 10.625,2.22937711 10.625,3.4375 C10.625,4.64562289 11.6043771,5.625 12.8125,5.625 C14.0206229,5.625 15,4.64562289 15,3.4375 C15,2.22937711 14.0206229,1.25 12.8125,1.25 Z M12.8125,4.53125 C12.2084386,4.53125 11.71875,4.04156145 11.71875,3.4375 C11.71875,2.83343855 12.2084386,2.34375 12.8125,2.34375 C13.4165614,2.34375 13.90625,2.83343855 13.90625,3.4375 C13.8994938,4.03874072 13.4137407,4.52449385 12.8125,4.53125 L12.8125,4.53125 Z" id="Fill"></path>
            </g>
            <g id="group" transform="translate(0.000000, 52.000000)" fill="#161616" font-size="14" letter-spacing="0.159999996" line-spacing="18">
                <text id="Secondary-text" font-family="IBMPlexSans, IBM Plex Sans" font-weight="normal">
                    <tspan x="32.965" y="32">Solid, high </tspan>
                    <tspan x="39.932" y="50">contrast</tspan>
                </text>
                <text id="Primary-text" font-family="IBMPlexSans-SemiBold, IBM Plex Sans" font-weight="500">
                    <tspan x="27.473" y="14">Shape node</tspan>
                </text>
            </g>
        </g>
    </g>
</svg>