<?xml version="1.0" encoding="UTF-8"?>
<svg width="608px" height="810px" viewBox="0 0 608 810" version="1.1" xmlns="http://www.w3.org/2000/svg" xmlns:xlink="http://www.w3.org/1999/xlink">
    <title>shapeNodeSpacing</title>
    <g id="shapeNodeSpacing" stroke="none" stroke-width="1" fill="none" fill-rule="evenodd">
        <rect fill="#FFFFFF" x="0" y="0" width="608" height="810"></rect>
        <g id="Background" fill="#FFFFFF">
            <rect x="0" y="0" width="608" height="810"></rect>
        </g>
        <g id="Group-7" transform="translate(50.000000, 125.000000)">
            <g id="Group-5">
                <g id="Spec-/-span-/-Horizontal-/-Bottom-/-Light-/-Magenta" transform="translate(26.500000, 537.000000)" fill="#D12771">
                    <text id="Text" font-family="IBMPlexSans, IBM Plex Sans" font-size="12" font-weight="normal" line-spacing="16" letter-spacing="0.32">
                        <tspan x="29.388" y="19.5">112 max.</tspan>
                    </text>
                    <path id="Line" d="M60,-56 L60,-55 L56.5,-55 L56.5,55.999 L60,56 L60,57 L52,57 L52,56 L55.5,55.999 L55.5,-55 L52,-55 L52,-56 L60,-56 Z" transform="translate(56.000000, 0.500000) rotate(-270.000000) translate(-56.000000, -0.500000) " fill-rule="nonzero"></path>
                </g>
                <text id=":enabled-text-below" font-family="IBMPlexSans-Bold, IBM Plex Sans" font-size="14" font-weight="bold" line-spacing="18" letter-spacing="0.159999996" fill="#6F6F6F">
                    <tspan x="30.979332" y="14">:enabled</tspan>
                    <tspan x="30.979332" y="32" font-family="IBMPlexSans, IBM Plex Sans" font-weight="normal">text below</tspan>
                </text>
                <g id="Group-3-Copy" transform="translate(0.000000, 71.998537)">
                    <rect id="Rectangle-Copy-96" stroke="#979797" fill="#F4F4F4" x="58.5" y="34.5" width="47" height="47" rx="23.5"></rect>
                    <g id="Spec-/-Icon-box-/-Vertical-/-Top-/-20px-/-Light-Copy-17" transform="translate(52.500000, 0.000000)">
                        <g id="Icon-box" transform="translate(19.500000, 20.000000)">
                            <rect id="Box" stroke="#D12771" x="0.5" y="28.5" width="19" height="19"></rect>
                            <rect id="Line" fill="#D12771" x="9.5" y="0" width="1" height="29"></rect>
                        </g>
                        <text id="Text" font-family="IBMPlexSans, IBM Plex Sans" font-size="12" font-weight="normal" line-spacing="16" letter-spacing="0.32" fill="#D12771">
                            <tspan x="15.21" y="12">20px</tspan>
                        </text>
                    </g>
                    <g id="Fill" transform="translate(72.000000, 48.000000)" fill="#000000">
                        <path d="M10,6.25 C7.92893219,6.25 6.25,7.92893219 6.25,10 L6.25,15 C6.25,17.0710678 7.92893219,18.75 10,18.75 C12.0710678,18.75 13.75,17.0710678 13.75,15 L13.75,10 C13.75,7.92893219 12.0710678,6.25 10,6.25 Z M7.34375,11.16875 L12.65625,11.16875 L12.65625,13.825 L7.34375,13.825 L7.34375,11.16875 Z M10,17.65625 C8.53583704,17.649408 7.35059199,16.464163 7.34375,15 L7.34375,14.91875 L12.65625,14.91875 L12.65625,15 C12.649408,16.464163 11.464163,17.649408 10,17.65625 L10,17.65625 Z M12.65625,10.075 L7.34375,10.075 L7.34375,10 C7.34375,8.53299363 8.53299363,7.34375 10,7.34375 C11.4670064,7.34375 12.65625,8.53299363 12.65625,10 L12.65625,10.075 Z M19.1625,12.00625 L15,8.125 L15,13.8125 C15,15.1932119 16.1192881,16.3125 17.5,16.3125 C18.8807119,16.3125 20,15.1932119 20,13.8125 C19.99634,13.1173734 19.6906884,12.4581697 19.1625,12.00625 L19.1625,12.00625 Z M17.5,15.21875 C16.7233496,15.21875 16.09375,14.5891504 16.09375,13.8125 L16.09375,10.625 L18.41875,12.79375 L18.41875,12.79375 C18.7016767,13.0317436 18.8680062,13.3803521 18.875,13.75 C18.8919155,14.1283018 18.7555452,14.4974378 18.4967463,14.7738822 C18.2379473,15.0503265 17.8785945,15.2107129 17.5,15.21875 L17.5,15.21875 Z M0,13.8125 C0,15.1932119 1.11928813,16.3125 2.5,16.3125 C3.88071187,16.3125 5,15.1932119 5,13.8125 L5,8.125 L0.8375,12.00625 C0.312648649,12.4606915 0.00774088769,13.118291 0,13.8125 L0,13.8125 Z M1.55,12.8375 L1.55,12.8375 L3.90625,10.625 L3.90625,13.8125 C3.90625,14.5891504 3.27665043,15.21875 2.5,15.21875 C1.72334957,15.21875 1.09375,14.5891504 1.09375,13.8125 C1.09530728,13.4362762 1.26214314,13.0797503 1.55,12.8375 L1.55,12.8375 Z M9.375,3.4375 C9.375,2.22937711 8.39562289,1.25 7.1875,1.25 C5.97937711,1.25 5,2.22937711 5,3.4375 C5,4.64562289 5.97937711,5.625 7.1875,5.625 C8.39562289,5.625 9.375,4.64562289 9.375,3.4375 Z M6.09375,3.4375 C6.09375,2.83343855 6.58343855,2.34375 7.1875,2.34375 C7.79156145,2.34375 8.28125,2.83343855 8.28125,3.4375 C8.28125,4.04156145 7.79156145,4.53125 7.1875,4.53125 C6.58625928,4.52449385 6.10050615,4.03874072 6.09375,3.4375 Z M12.8125,1.25 C11.6043771,1.25 10.625,2.22937711 10.625,3.4375 C10.625,4.64562289 11.6043771,5.625 12.8125,5.625 C14.0206229,5.625 15,4.64562289 15,3.4375 C15,2.22937711 14.0206229,1.25 12.8125,1.25 Z M12.8125,4.53125 C12.2084386,4.53125 11.71875,4.04156145 11.71875,3.4375 C11.71875,2.83343855 12.2084386,2.34375 12.8125,2.34375 C13.4165614,2.34375 13.90625,2.83343855 13.90625,3.4375 C13.8994938,4.03874072 13.4137407,4.52449385 12.8125,4.53125 L12.8125,4.53125 Z"></path>
                    </g>
                    <text id="Primary-text-Copy-51" font-family="IBMPlexSans-SemiBold, IBM Plex Sans" font-size="14" font-weight="500" fill="#000000">
                        <tspan x="41.827" y="100">Primary text</tspan>
                    </text>
                    <rect id="Rectangle-Copy-97" stroke="#D02670" x="26.5" y="86.5" width="111" height="17"></rect>
                    <g id="Spec-/-span-/-Vertical-/-Left-/-Dark-/-Magenta-Copy-37" transform="translate(0.000000, 34.000000)" fill="#D12771">
                        <text id="Text" font-family="IBMPlexSans, IBM Plex Sans" font-size="12" font-weight="normal" line-spacing="16" letter-spacing="0.32">
                            <tspan x="24.46" y="27.5422833">48</tspan>
                        </text>
                        <path id="Line" d="M24,20 L24,23.499 L71,23.499 L71,20 L72,20 L72,28 L71,28 L71,24.499 L24,24.499 L24,28 L23,28 L23,20 L24,20 Z" transform="translate(47.500000, 24.000000) rotate(-270.000000) translate(-47.500000, -24.000000) " fill-rule="nonzero"></path>
                    </g>
                    <g id="Utilities-/-Spacer-/-Component-/-Horizontal-/-Spacing-05-(16px)-/-On-/-Light-Copy-15" transform="translate(14.000880, 82.000000)">
                        <rect id="Spacer" fill="#D9FBFB" style="mix-blend-mode: multiply;" x="0" y="0" width="136.055794" height="4"></rect>
                        <line x1="9.44076722e-16" y1="3.5" x2="136.055794" y2="3.5" id="Line" stroke="#007D79" stroke-dasharray="2"></line>
                        <line x1="9.44076722e-16" y1="0.5" x2="136.055794" y2="0.5" id="Line" stroke="#007D79" stroke-dasharray="2"></line>
                    </g>
                    <g id="Utilities-/-Spacer-/-Component-/-Horizontal-/-Spacing-05-(16px)-/-On-/-Light-Copy-16" transform="translate(158.410874, 82.500000)" fill="#007D79">
                        <text id="Text" font-family="IBMPlexSans, IBM Plex Sans" font-size="12" font-weight="normal" line-spacing="16" letter-spacing="0.32">
                            <tspan x="8" y="5.41044776">4px</tspan>
                        </text>
                        <path id="Line" d="M-1,-2 L-0.999,1.499 L1,1.499 L1,-2 L2,-2 L2,6 L1,6 L1,2.499 L-0.999,2.499 L-1,6 L-2,6 L-2,-2 L-1,-2 Z" transform="translate(0.000000, 2.000000) rotate(-270.000000) translate(-0.000000, -2.000000) " fill-rule="nonzero"></path>
                    </g>
                </g>
                <g id="Group" transform="translate(86.913702, 153.998537)">
                    <rect id="Background" fill="#8A3FFC" x="0" y="0" width="8" height="8"></rect>
                    <text id="8" font-family="IBMPlexSans-SemiBold, IBM Plex Sans" font-size="8" font-weight="500" line-spacing="10" fill="#FFFFFF">
                        <tspan x="1.5" y="7">8</tspan>
                    </text>
                </g>
                <g id="Group-2-Copy" transform="translate(0.000000, 229.502926)">
                    <rect id="Rectangle-Copy-98" stroke="#979797" fill="#F4F4F4" x="58.5" y="34.5" width="47" height="47" rx="23.5"></rect>
                    <g id="Spec-/-Icon-box-/-Vertical-/-Top-/-20px-/-Light-Copy-17" transform="translate(52.500000, 0.000000)">
                        <g id="Icon-box" transform="translate(19.500000, 20.000000)">
                            <rect id="Box" stroke="#D12771" x="0.5" y="28.5" width="19" height="19"></rect>
                            <rect id="Line" fill="#D12771" x="9.5" y="0" width="1" height="29"></rect>
                        </g>
                        <text id="Text" font-family="IBMPlexSans, IBM Plex Sans" font-size="12" font-weight="normal" line-spacing="16" letter-spacing="0.32" fill="#D12771">
                            <tspan x="15.21" y="12">20px</tspan>
                        </text>
                    </g>
                    <g id="Fill" transform="translate(72.000000, 48.000000)" fill="#000000">
                        <path d="M10,6.25 C7.92893219,6.25 6.25,7.92893219 6.25,10 L6.25,15 C6.25,17.0710678 7.92893219,18.75 10,18.75 C12.0710678,18.75 13.75,17.0710678 13.75,15 L13.75,10 C13.75,7.92893219 12.0710678,6.25 10,6.25 Z M7.34375,11.16875 L12.65625,11.16875 L12.65625,13.825 L7.34375,13.825 L7.34375,11.16875 Z M10,17.65625 C8.53583704,17.649408 7.35059199,16.464163 7.34375,15 L7.34375,14.91875 L12.65625,14.91875 L12.65625,15 C12.649408,16.464163 11.464163,17.649408 10,17.65625 L10,17.65625 Z M12.65625,10.075 L7.34375,10.075 L7.34375,10 C7.34375,8.53299363 8.53299363,7.34375 10,7.34375 C11.4670064,7.34375 12.65625,8.53299363 12.65625,10 L12.65625,10.075 Z M19.1625,12.00625 L15,8.125 L15,13.8125 C15,15.1932119 16.1192881,16.3125 17.5,16.3125 C18.8807119,16.3125 20,15.1932119 20,13.8125 C19.99634,13.1173734 19.6906884,12.4581697 19.1625,12.00625 L19.1625,12.00625 Z M17.5,15.21875 C16.7233496,15.21875 16.09375,14.5891504 16.09375,13.8125 L16.09375,10.625 L18.41875,12.79375 L18.41875,12.79375 C18.7016767,13.0317436 18.8680062,13.3803521 18.875,13.75 C18.8919155,14.1283018 18.7555452,14.4974378 18.4967463,14.7738822 C18.2379473,15.0503265 17.8785945,15.2107129 17.5,15.21875 L17.5,15.21875 Z M0,13.8125 C0,15.1932119 1.11928813,16.3125 2.5,16.3125 C3.88071187,16.3125 5,15.1932119 5,13.8125 L5,8.125 L0.8375,12.00625 C0.312648649,12.4606915 0.00774088769,13.118291 0,13.8125 L0,13.8125 Z M1.55,12.8375 L1.55,12.8375 L3.90625,10.625 L3.90625,13.8125 C3.90625,14.5891504 3.27665043,15.21875 2.5,15.21875 C1.72334957,15.21875 1.09375,14.5891504 1.09375,13.8125 C1.09530728,13.4362762 1.26214314,13.0797503 1.55,12.8375 L1.55,12.8375 Z M9.375,3.4375 C9.375,2.22937711 8.39562289,1.25 7.1875,1.25 C5.97937711,1.25 5,2.22937711 5,3.4375 C5,4.64562289 5.97937711,5.625 7.1875,5.625 C8.39562289,5.625 9.375,4.64562289 9.375,3.4375 Z M6.09375,3.4375 C6.09375,2.83343855 6.58343855,2.34375 7.1875,2.34375 C7.79156145,2.34375 8.28125,2.83343855 8.28125,3.4375 C8.28125,4.04156145 7.79156145,4.53125 7.1875,4.53125 C6.58625928,4.52449385 6.10050615,4.03874072 6.09375,3.4375 Z M12.8125,1.25 C11.6043771,1.25 10.625,2.22937711 10.625,3.4375 C10.625,4.64562289 11.6043771,5.625 12.8125,5.625 C14.0206229,5.625 15,4.64562289 15,3.4375 C15,2.22937711 14.0206229,1.25 12.8125,1.25 Z M12.8125,4.53125 C12.2084386,4.53125 11.71875,4.04156145 11.71875,3.4375 C11.71875,2.83343855 12.2084386,2.34375 12.8125,2.34375 C13.4165614,2.34375 13.90625,2.83343855 13.90625,3.4375 C13.8994938,4.03874072 13.4137407,4.52449385 12.8125,4.53125 L12.8125,4.53125 Z"></path>
                    </g>
                    <text id="Primary-text-Copy-11" font-family="IBMPlexSans-SemiBold, IBM Plex Sans" font-size="14" font-weight="500" fill="#000000">
                        <tspan x="41.8557768" y="100">Primary text</tspan>
                    </text>
                    <text id="Secondary-text-Copy-6" font-family="IBMPlexSans, IBM Plex Sans" font-size="14" font-weight="normal" fill="#000000">
                        <tspan x="34.9677768" y="118">Secondary text</tspan>
                    </text>
                    <g id="Utilities-/-Spacer-/-Component-/-Horizontal-/-Spacing-05-(16px)-/-On-/-Light-Copy-15" transform="translate(14.000880, 82.000000)">
                        <rect id="Spacer" fill="#D9FBFB" style="mix-blend-mode: multiply;" x="0" y="0" width="136.055794" height="4"></rect>
                        <line x1="9.44076722e-16" y1="3.5" x2="136.055794" y2="3.5" id="Line" stroke="#007D79" stroke-dasharray="2"></line>
                        <line x1="9.44076722e-16" y1="0.5" x2="136.055794" y2="0.5" id="Line" stroke="#007D79" stroke-dasharray="2"></line>
                    </g>
                    <g id="Utilities-/-Spacer-/-Component-/-Horizontal-/-Spacing-05-(16px)-/-On-/-Light-Copy-16" transform="translate(158.410874, 82.500000)" fill="#007D79">
                        <text id="Text" font-family="IBMPlexSans, IBM Plex Sans" font-size="12" font-weight="normal" line-spacing="16" letter-spacing="0.32">
                            <tspan x="8" y="5.41044776">4px</tspan>
                        </text>
                        <path id="Line" d="M-1,-2 L-0.999,1.499 L1,1.499 L1,-2 L2,-2 L2,6 L1,6 L1,2.499 L-0.999,2.499 L-1,6 L-2,6 L-2,-2 L-1,-2 Z" transform="translate(0.000000, 2.000000) rotate(-270.000000) translate(-0.000000, -2.000000) " fill-rule="nonzero"></path>
                    </g>
                    <rect id="Rectangle-Copy-12" stroke="#D02670" x="24.7508796" y="86.5" width="111" height="35"></rect>
                    <g id="Spec-/-span-/-Vertical-/-Left-/-Dark-/-Magenta-Copy-37" transform="translate(0.000000, 34.000000)" fill="#D12771">
                        <text id="Text" font-family="IBMPlexSans, IBM Plex Sans" font-size="12" font-weight="normal" line-spacing="16" letter-spacing="0.32">
                            <tspan x="24.46" y="27.5422833">48</tspan>
                        </text>
                        <path id="Line" d="M24,20 L24,23.499 L71,23.499 L71,20 L72,20 L72,28 L71,28 L71,24.499 L24,24.499 L24,28 L23,28 L23,20 L24,20 Z" transform="translate(47.500000, 24.000000) rotate(-270.000000) translate(-47.500000, -24.000000) " fill-rule="nonzero"></path>
                    </g>
                    <g id="Group" transform="translate(86.913702, 82.000000)">
                        <rect id="Background" fill="#8A3FFC" x="0" y="0" width="8" height="8"></rect>
                        <text id="8" font-family="IBMPlexSans-SemiBold, IBM Plex Sans" font-size="8" font-weight="500" line-spacing="10" fill="#FFFFFF">
                            <tspan x="1.5" y="7">8</tspan>
                        </text>
                    </g>
                </g>
                <g id="Group-2-Copy-2" transform="translate(0.000000, 387.501463)">
                    <rect id="Rectangle-Copy-98" stroke="#979797" fill="#F4F4F4" x="58.5" y="34.5" width="47" height="47" rx="23.5"></rect>
                    <g id="Spec-/-Icon-box-/-Vertical-/-Top-/-20px-/-Light-Copy-17" transform="translate(52.500000, 0.000000)">
                        <g id="Icon-box" transform="translate(19.500000, 20.000000)">
                            <rect id="Box" stroke="#D12771" x="0.5" y="28.5" width="19" height="19"></rect>
                            <rect id="Line" fill="#D12771" x="9.5" y="0" width="1" height="29"></rect>
                        </g>
                        <text id="Text" font-family="IBMPlexSans, IBM Plex Sans" font-size="12" font-weight="normal" line-spacing="16" letter-spacing="0.32" fill="#D12771">
                            <tspan x="15.21" y="12">20px</tspan>
                        </text>
                    </g>
                    <g id="Fill" transform="translate(72.000000, 48.000000)" fill="#000000">
                        <path d="M10,6.25 C7.92893219,6.25 6.25,7.92893219 6.25,10 L6.25,15 C6.25,17.0710678 7.92893219,18.75 10,18.75 C12.0710678,18.75 13.75,17.0710678 13.75,15 L13.75,10 C13.75,7.92893219 12.0710678,6.25 10,6.25 Z M7.34375,11.16875 L12.65625,11.16875 L12.65625,13.825 L7.34375,13.825 L7.34375,11.16875 Z M10,17.65625 C8.53583704,17.649408 7.35059199,16.464163 7.34375,15 L7.34375,14.91875 L12.65625,14.91875 L12.65625,15 C12.649408,16.464163 11.464163,17.649408 10,17.65625 L10,17.65625 Z M12.65625,10.075 L7.34375,10.075 L7.34375,10 C7.34375,8.53299363 8.53299363,7.34375 10,7.34375 C11.4670064,7.34375 12.65625,8.53299363 12.65625,10 L12.65625,10.075 Z M19.1625,12.00625 L15,8.125 L15,13.8125 C15,15.1932119 16.1192881,16.3125 17.5,16.3125 C18.8807119,16.3125 20,15.1932119 20,13.8125 C19.99634,13.1173734 19.6906884,12.4581697 19.1625,12.00625 L19.1625,12.00625 Z M17.5,15.21875 C16.7233496,15.21875 16.09375,14.5891504 16.09375,13.8125 L16.09375,10.625 L18.41875,12.79375 L18.41875,12.79375 C18.7016767,13.0317436 18.8680062,13.3803521 18.875,13.75 C18.8919155,14.1283018 18.7555452,14.4974378 18.4967463,14.7738822 C18.2379473,15.0503265 17.8785945,15.2107129 17.5,15.21875 L17.5,15.21875 Z M0,13.8125 C0,15.1932119 1.11928813,16.3125 2.5,16.3125 C3.88071187,16.3125 5,15.1932119 5,13.8125 L5,8.125 L0.8375,12.00625 C0.312648649,12.4606915 0.00774088769,13.118291 0,13.8125 L0,13.8125 Z M1.55,12.8375 L1.55,12.8375 L3.90625,10.625 L3.90625,13.8125 C3.90625,14.5891504 3.27665043,15.21875 2.5,15.21875 C1.72334957,15.21875 1.09375,14.5891504 1.09375,13.8125 C1.09530728,13.4362762 1.26214314,13.0797503 1.55,12.8375 L1.55,12.8375 Z M9.375,3.4375 C9.375,2.22937711 8.39562289,1.25 7.1875,1.25 C5.97937711,1.25 5,2.22937711 5,3.4375 C5,4.64562289 5.97937711,5.625 7.1875,5.625 C8.39562289,5.625 9.375,4.64562289 9.375,3.4375 Z M6.09375,3.4375 C6.09375,2.83343855 6.58343855,2.34375 7.1875,2.34375 C7.79156145,2.34375 8.28125,2.83343855 8.28125,3.4375 C8.28125,4.04156145 7.79156145,4.53125 7.1875,4.53125 C6.58625928,4.52449385 6.10050615,4.03874072 6.09375,3.4375 Z M12.8125,1.25 C11.6043771,1.25 10.625,2.22937711 10.625,3.4375 C10.625,4.64562289 11.6043771,5.625 12.8125,5.625 C14.0206229,5.625 15,4.64562289 15,3.4375 C15,2.22937711 14.0206229,1.25 12.8125,1.25 Z M12.8125,4.53125 C12.2084386,4.53125 11.71875,4.04156145 11.71875,3.4375 C11.71875,2.83343855 12.2084386,2.34375 12.8125,2.34375 C13.4165614,2.34375 13.90625,2.83343855 13.90625,3.4375 C13.8994938,4.03874072 13.4137407,4.52449385 12.8125,4.53125 L12.8125,4.53125 Z"></path>
                    </g>
                    <text id="Primary-text-Copy-11" font-family="IBMPlexSans-SemiBold, IBM Plex Sans" font-size="14" font-weight="500" fill="#000000">
                        <tspan x="41.6048972" y="100">Primary text</tspan>
                    </text>
                    <text id="Secondary-text-multi" font-family="IBMPlexSans, IBM Plex Sans" font-size="14" font-weight="normal" fill="#000000">
                        <tspan x="34.7168972" y="118">Secondary text</tspan>
                        <tspan x="39.2738972" y="136">multiple lines</tspan>
                    </text>
                    <g id="Utilities-/-Spacer-/-Component-/-Horizontal-/-Spacing-05-(16px)-/-On-/-Light-Copy-15" transform="translate(14.000880, 82.000000)">
                        <rect id="Spacer" fill="#D9FBFB" style="mix-blend-mode: multiply;" x="0" y="0" width="136.055794" height="4"></rect>
                        <line x1="9.44076722e-16" y1="3.5" x2="136.055794" y2="3.5" id="Line" stroke="#007D79" stroke-dasharray="2"></line>
                        <line x1="9.44076722e-16" y1="0.5" x2="136.055794" y2="0.5" id="Line" stroke="#007D79" stroke-dasharray="2"></line>
                    </g>
                    <g id="Utilities-/-Spacer-/-Component-/-Horizontal-/-Spacing-05-(16px)-/-On-/-Light-Copy-16" transform="translate(158.410874, 82.500000)" fill="#007D79">
                        <text id="Text" font-family="IBMPlexSans, IBM Plex Sans" font-size="12" font-weight="normal" line-spacing="16" letter-spacing="0.32">
                            <tspan x="8" y="5.41044776">4px</tspan>
                        </text>
                        <path id="Line" d="M-1,-2 L-0.999,1.499 L1,1.499 L1,-2 L2,-2 L2,6 L1,6 L1,2.499 L-0.999,2.499 L-1,6 L-2,6 L-2,-2 L-1,-2 Z" transform="translate(0.000000, 2.000000) rotate(-270.000000) translate(-0.000000, -2.000000) " fill-rule="nonzero"></path>
                    </g>
                    <rect id="Rectangle-Copy-12" stroke="#D02670" x="26.5287768" y="86.5" width="111" height="53"></rect>
                    <g id="Spec-/-span-/-Vertical-/-Left-/-Dark-/-Magenta-Copy-37" transform="translate(0.000000, 34.000000)" fill="#D12771">
                        <text id="Text" font-family="IBMPlexSans, IBM Plex Sans" font-size="12" font-weight="normal" line-spacing="16" letter-spacing="0.32">
                            <tspan x="24.46" y="27.5422833">48</tspan>
                        </text>
                        <path id="Line" d="M24,20 L24,23.499 L71,23.499 L71,20 L72,20 L72,28 L71,28 L71,24.499 L24,24.499 L24,28 L23,28 L23,20 L24,20 Z" transform="translate(47.500000, 24.000000) rotate(-270.000000) translate(-47.500000, -24.000000) " fill-rule="nonzero"></path>
                    </g>
                    <g id="Group" transform="translate(86.913702, 82.000000)">
                        <rect id="Background" fill="#8A3FFC" x="0" y="0" width="8" height="8"></rect>
                        <text id="8" font-family="IBMPlexSans-SemiBold, IBM Plex Sans" font-size="8" font-weight="500" line-spacing="10" fill="#FFFFFF">
                            <tspan x="1.5" y="7">8</tspan>
                        </text>
                    </g>
                </g>
            </g>
            <g id="Group-3" transform="translate(246.910874, 0.000000)">
                <rect id="Rectangle-Copy-91" stroke="#979797" fill="#F4F4F4" x="58.5" y="106.001463" width="47" height="47" rx="23.5"></rect>
                <g id="Spec-/-Icon-box-/-Vertical-/-Top-/-20px-/-Light-Copy-17" transform="translate(52.500000, 71.998537)">
                    <g id="Icon-box" transform="translate(19.500000, 20.000000)">
                        <rect id="Box" stroke="#D12771" x="0.5" y="28.5" width="19" height="19"></rect>
                        <rect id="Line" fill="#D12771" x="9.5" y="0" width="1" height="29"></rect>
                    </g>
                    <text id="Text" font-family="IBMPlexSans, IBM Plex Sans" font-size="12" font-weight="normal" line-spacing="16" letter-spacing="0.32" fill="#D12771">
                        <tspan x="15.21" y="12">20px</tspan>
                    </text>
                </g>
                <g id="Group-2" transform="translate(0.000000, 229.502926)">
                    <g id="Spec-/-Icon-box-/-Vertical-/-Top-/-20px-/-Light-Copy-17" transform="translate(52.500000, 0.000000)">
                        <g id="Icon-box" transform="translate(19.500000, 20.000000)">
                            <rect id="Box" stroke="#D12771" x="0.5" y="28.5" width="19" height="19"></rect>
                            <rect id="Line" fill="#D12771" x="9.5" y="0" width="1" height="29"></rect>
                        </g>
                        <text id="Text" font-family="IBMPlexSans, IBM Plex Sans" font-size="12" font-weight="normal" line-spacing="16" letter-spacing="0.32" fill="#D12771">
                            <tspan x="15.21" y="12">20px</tspan>
                        </text>
                    </g>
                    <g id="Utilities-/-Spacer-/-Component-/-Horizontal-/-Spacing-05-(16px)-/-On-/-Light-Copy-32" transform="translate(105.917428, 34.500000)">
                        <rect id="Spacer" fill="#D9FBFB" style="mix-blend-mode: multiply;" x="0" y="0" width="8" height="47.5"></rect>
                        <line x1="0.5" y1="0" x2="0.5" y2="47.5" id="Line" stroke="#007D79" stroke-dasharray="2"></line>
                        <line x1="7.5" y1="0" x2="7.5" y2="47.5" id="Line" stroke="#007D79" stroke-dasharray="2"></line>
                    </g>
                    <g id="Spec-/-span-/-Horizontal-/-Top-/--Light-/-Teal-Copy-28" transform="translate(105.917428, 0.000000)" fill="#007D79">
                        <path id="Line" d="M8,18.5 L8,19.5 L4.499,19.5 L4.499,26.5 L8,26.5 L8,27.5 L-1.13686838e-13,27.5 L-1.13686838e-13,26.5 L3.499,26.5 L3.499,19.5 L-1.13686838e-13,19.5 L-1.13686838e-13,18.5 L8,18.5 Z" transform="translate(4.000000, 23.000000) rotate(-270.000000) translate(-4.000000, -23.000000) " fill-rule="nonzero"></path>
                        <text id="Text" font-family="IBMPlexSans, IBM Plex Sans" font-size="12" font-weight="normal" line-spacing="16" letter-spacing="0.32">
                            <tspan x="0.24" y="12">8</tspan>
                        </text>
                    </g>
                    <g id="Group-4" transform="translate(0.000000, 34.000000)">
                        <rect id="Rectangle-Copy-93" stroke="#979797" fill="#F4F4F4" x="58.5" y="0.5" width="47" height="47" rx="23.5"></rect>
                        <g id="Fill" transform="translate(72.000000, 14.000000)" fill="#000000">
                            <path d="M10,6.25 C7.92893219,6.25 6.25,7.92893219 6.25,10 L6.25,15 C6.25,17.0710678 7.92893219,18.75 10,18.75 C12.0710678,18.75 13.75,17.0710678 13.75,15 L13.75,10 C13.75,7.92893219 12.0710678,6.25 10,6.25 Z M7.34375,11.16875 L12.65625,11.16875 L12.65625,13.825 L7.34375,13.825 L7.34375,11.16875 Z M10,17.65625 C8.53583704,17.649408 7.35059199,16.464163 7.34375,15 L7.34375,14.91875 L12.65625,14.91875 L12.65625,15 C12.649408,16.464163 11.464163,17.649408 10,17.65625 L10,17.65625 Z M12.65625,10.075 L7.34375,10.075 L7.34375,10 C7.34375,8.53299363 8.53299363,7.34375 10,7.34375 C11.4670064,7.34375 12.65625,8.53299363 12.65625,10 L12.65625,10.075 Z M19.1625,12.00625 L15,8.125 L15,13.8125 C15,15.1932119 16.1192881,16.3125 17.5,16.3125 C18.8807119,16.3125 20,15.1932119 20,13.8125 C19.99634,13.1173734 19.6906884,12.4581697 19.1625,12.00625 L19.1625,12.00625 Z M17.5,15.21875 C16.7233496,15.21875 16.09375,14.5891504 16.09375,13.8125 L16.09375,10.625 L18.41875,12.79375 L18.41875,12.79375 C18.7016767,13.0317436 18.8680062,13.3803521 18.875,13.75 C18.8919155,14.1283018 18.7555452,14.4974378 18.4967463,14.7738822 C18.2379473,15.0503265 17.8785945,15.2107129 17.5,15.21875 L17.5,15.21875 Z M0,13.8125 C0,15.1932119 1.11928813,16.3125 2.5,16.3125 C3.88071187,16.3125 5,15.1932119 5,13.8125 L5,8.125 L0.8375,12.00625 C0.312648649,12.4606915 0.00774088769,13.118291 0,13.8125 L0,13.8125 Z M1.55,12.8375 L1.55,12.8375 L3.90625,10.625 L3.90625,13.8125 C3.90625,14.5891504 3.27665043,15.21875 2.5,15.21875 C1.72334957,15.21875 1.09375,14.5891504 1.09375,13.8125 C1.09530728,13.4362762 1.26214314,13.0797503 1.55,12.8375 L1.55,12.8375 Z M9.375,3.4375 C9.375,2.22937711 8.39562289,1.25 7.1875,1.25 C5.97937711,1.25 5,2.22937711 5,3.4375 C5,4.64562289 5.97937711,5.625 7.1875,5.625 C8.39562289,5.625 9.375,4.64562289 9.375,3.4375 Z M6.09375,3.4375 C6.09375,2.83343855 6.58343855,2.34375 7.1875,2.34375 C7.79156145,2.34375 8.28125,2.83343855 8.28125,3.4375 C8.28125,4.04156145 7.79156145,4.53125 7.1875,4.53125 C6.58625928,4.52449385 6.10050615,4.03874072 6.09375,3.4375 Z M12.8125,1.25 C11.6043771,1.25 10.625,2.22937711 10.625,3.4375 C10.625,4.64562289 11.6043771,5.625 12.8125,5.625 C14.0206229,5.625 15,4.64562289 15,3.4375 C15,2.22937711 14.0206229,1.25 12.8125,1.25 Z M12.8125,4.53125 C12.2084386,4.53125 11.71875,4.04156145 11.71875,3.4375 C11.71875,2.83343855 12.2084386,2.34375 12.8125,2.34375 C13.4165614,2.34375 13.90625,2.83343855 13.90625,3.4375 C13.8994938,4.03874072 13.4137407,4.52449385 12.8125,4.53125 L12.8125,4.53125 Z"></path>
                        </g>
                        <text id="Primary-text-Copy-7" font-family="IBMPlexSans-SemiBold, IBM Plex Sans" font-size="14" font-weight="500" fill="#000000">
                            <tspan x="114" y="20">Primary text</tspan>
                        </text>
                        <text id="Secondary-text-Copy-4" font-family="IBMPlexSans, IBM Plex Sans" font-size="14" font-weight="normal" fill="#000000">
                            <tspan x="114" y="38">Secondary text</tspan>
                        </text>
                        <rect id="Rectangle-Copy-10" stroke="#D02670" x="114.5" y="6.5" width="135.5" height="35"></rect>
                        <g id="Spec-/-span-/-Vertical-/-Left-/-Dark-/-Magenta-Copy-37" fill="#D12771">
                            <text id="Text" font-family="IBMPlexSans, IBM Plex Sans" font-size="12" font-weight="normal" line-spacing="16" letter-spacing="0.32">
                                <tspan x="24.46" y="27.5422833">48</tspan>
                            </text>
                            <path id="Line" d="M24,20 L24,23.499 L71,23.499 L71,20 L72,20 L72,28 L71,28 L71,24.499 L24,24.499 L24,28 L23,28 L23,20 L24,20 Z" transform="translate(47.500000, 24.000000) rotate(-270.000000) translate(-47.500000, -24.000000) " fill-rule="nonzero"></path>
                        </g>
                    </g>
                </g>
                <g id="Spec-/-Icon-box-/-Vertical-/-Top-/-20px-/-Light-Copy-17" transform="translate(52.500000, 387.501463)">
                    <g id="Icon-box" transform="translate(19.500000, 20.000000)">
                        <rect id="Box" stroke="#D12771" x="0.5" y="28.5" width="19" height="19"></rect>
                        <rect id="Line" fill="#D12771" x="9.5" y="0" width="1" height="29"></rect>
                    </g>
                    <text id="Text" font-family="IBMPlexSans, IBM Plex Sans" font-size="12" font-weight="normal" line-spacing="16" letter-spacing="0.32" fill="#D12771">
                        <tspan x="15.21" y="12">20px</tspan>
                    </text>
                </g>
                <g id="Fill" transform="translate(72.000000, 119.501463)" fill="#000000">
                    <path d="M10,6.25 C7.92893219,6.25 6.25,7.92893219 6.25,10 L6.25,15 C6.25,17.0710678 7.92893219,18.75 10,18.75 C12.0710678,18.75 13.75,17.0710678 13.75,15 L13.75,10 C13.75,7.92893219 12.0710678,6.25 10,6.25 Z M7.34375,11.16875 L12.65625,11.16875 L12.65625,13.825 L7.34375,13.825 L7.34375,11.16875 Z M10,17.65625 C8.53583704,17.649408 7.35059199,16.464163 7.34375,15 L7.34375,14.91875 L12.65625,14.91875 L12.65625,15 C12.649408,16.464163 11.464163,17.649408 10,17.65625 L10,17.65625 Z M12.65625,10.075 L7.34375,10.075 L7.34375,10 C7.34375,8.53299363 8.53299363,7.34375 10,7.34375 C11.4670064,7.34375 12.65625,8.53299363 12.65625,10 L12.65625,10.075 Z M19.1625,12.00625 L15,8.125 L15,13.8125 C15,15.1932119 16.1192881,16.3125 17.5,16.3125 C18.8807119,16.3125 20,15.1932119 20,13.8125 C19.99634,13.1173734 19.6906884,12.4581697 19.1625,12.00625 L19.1625,12.00625 Z M17.5,15.21875 C16.7233496,15.21875 16.09375,14.5891504 16.09375,13.8125 L16.09375,10.625 L18.41875,12.79375 L18.41875,12.79375 C18.7016767,13.0317436 18.8680062,13.3803521 18.875,13.75 C18.8919155,14.1283018 18.7555452,14.4974378 18.4967463,14.7738822 C18.2379473,15.0503265 17.8785945,15.2107129 17.5,15.21875 L17.5,15.21875 Z M0,13.8125 C0,15.1932119 1.11928813,16.3125 2.5,16.3125 C3.88071187,16.3125 5,15.1932119 5,13.8125 L5,8.125 L0.8375,12.00625 C0.312648649,12.4606915 0.00774088769,13.118291 0,13.8125 L0,13.8125 Z M1.55,12.8375 L1.55,12.8375 L3.90625,10.625 L3.90625,13.8125 C3.90625,14.5891504 3.27665043,15.21875 2.5,15.21875 C1.72334957,15.21875 1.09375,14.5891504 1.09375,13.8125 C1.09530728,13.4362762 1.26214314,13.0797503 1.55,12.8375 L1.55,12.8375 Z M9.375,3.4375 C9.375,2.22937711 8.39562289,1.25 7.1875,1.25 C5.97937711,1.25 5,2.22937711 5,3.4375 C5,4.64562289 5.97937711,5.625 7.1875,5.625 C8.39562289,5.625 9.375,4.64562289 9.375,3.4375 Z M6.09375,3.4375 C6.09375,2.83343855 6.58343855,2.34375 7.1875,2.34375 C7.79156145,2.34375 8.28125,2.83343855 8.28125,3.4375 C8.28125,4.04156145 7.79156145,4.53125 7.1875,4.53125 C6.58625928,4.52449385 6.10050615,4.03874072 6.09375,3.4375 Z M12.8125,1.25 C11.6043771,1.25 10.625,2.22937711 10.625,3.4375 C10.625,4.64562289 11.6043771,5.625 12.8125,5.625 C14.0206229,5.625 15,4.64562289 15,3.4375 C15,2.22937711 14.0206229,1.25 12.8125,1.25 Z M12.8125,4.53125 C12.2084386,4.53125 11.71875,4.04156145 11.71875,3.4375 C11.71875,2.83343855 12.2084386,2.34375 12.8125,2.34375 C13.4165614,2.34375 13.90625,2.83343855 13.90625,3.4375 C13.8994938,4.03874072 13.4137407,4.52449385 12.8125,4.53125 L12.8125,4.53125 Z"></path>
                </g>
                <text id="Primary-text-Copy-49" font-family="IBMPlexSans-SemiBold, IBM Plex Sans" font-size="14" font-weight="500" fill="#000000">
                    <tspan x="114" y="134.501463">Primary text</tspan>
                </text>
                <rect id="Rectangle-Copy-92" stroke="#D02670" x="114.5" y="121.001463" width="135.055794" height="17"></rect>
                <g id="Spec-/-span-/-Vertical-/-Left-/-Dark-/-Magenta-Copy-37" transform="translate(0.000000, 105.501463)" fill="#D12771">
                    <text id="Text" font-family="IBMPlexSans, IBM Plex Sans" font-size="12" font-weight="normal" line-spacing="16" letter-spacing="0.32">
                        <tspan x="24.46" y="27.5422833">48</tspan>
                    </text>
                    <path id="Line" d="M24,20 L24,23.499 L71,23.499 L71,20 L72,20 L72,28 L71,28 L71,24.499 L24,24.499 L24,28 L23,28 L23,20 L24,20 Z" transform="translate(47.500000, 24.000000) rotate(-270.000000) translate(-47.500000, -24.000000) " fill-rule="nonzero"></path>
                </g>
                <g id="Utilities-/-Spacer-/-Component-/-Horizontal-/-Spacing-05-(16px)-/-On-/-Light-Copy-32" transform="translate(105.917428, 105.501463)">
                    <rect id="Spacer" fill="#D9FBFB" style="mix-blend-mode: multiply;" x="0" y="0" width="8" height="47.5"></rect>
                    <line x1="0.5" y1="0" x2="0.5" y2="47.5" id="Line" stroke="#007D79" stroke-dasharray="2"></line>
                    <line x1="7.5" y1="0" x2="7.5" y2="47.5" id="Line" stroke="#007D79" stroke-dasharray="2"></line>
                </g>
                <text id=":enabled-text-on-the" font-family="IBMPlexSans-Bold, IBM Plex Sans" font-size="14" font-weight="bold" line-spacing="18" letter-spacing="0.159999996" fill="#6F6F6F">
                    <tspan x="61.4123995" y="14">:enabled</tspan>
                    <tspan x="61.4123995" y="32" font-family="IBMPlexSans, IBM Plex Sans" font-weight="normal">text on the right</tspan>
                </text>
                <g id="Spec-/-span-/-Horizontal-/-Top-/--Light-/-Teal-Copy-28" transform="translate(105.917428, 71.998537)" fill="#007D79">
                    <path id="Line" d="M8,18.5 L8,19.5 L4.499,19.5 L4.499,26.5 L8,26.5 L8,27.5 L-1.13686838e-13,27.5 L-1.13686838e-13,26.5 L3.499,26.5 L3.499,19.5 L-1.13686838e-13,19.5 L-1.13686838e-13,18.5 L8,18.5 Z" transform="translate(4.000000, 23.000000) rotate(-270.000000) translate(-4.000000, -23.000000) " fill-rule="nonzero"></path>
                    <text id="Text" font-family="IBMPlexSans, IBM Plex Sans" font-size="12" font-weight="normal" line-spacing="16" letter-spacing="0.32">
                        <tspan x="0.24" y="12">8</tspan>
                    </text>
                </g>
                <g id="Group" transform="translate(0.000000, 421.501463)">
                    <rect id="Rectangle-Copy-95" stroke="#979797" fill="#F4F4F4" x="58.5" y="0.5" width="47" height="47" rx="23.5"></rect>
                    <g transform="translate(72.000000, 14.000000)" fill="#000000" id="Fill">
                        <path d="M10,6.25 C7.92893219,6.25 6.25,7.92893219 6.25,10 L6.25,15 C6.25,17.0710678 7.92893219,18.75 10,18.75 C12.0710678,18.75 13.75,17.0710678 13.75,15 L13.75,10 C13.75,7.92893219 12.0710678,6.25 10,6.25 Z M7.34375,11.16875 L12.65625,11.16875 L12.65625,13.825 L7.34375,13.825 L7.34375,11.16875 Z M10,17.65625 C8.53583704,17.649408 7.35059199,16.464163 7.34375,15 L7.34375,14.91875 L12.65625,14.91875 L12.65625,15 C12.649408,16.464163 11.464163,17.649408 10,17.65625 L10,17.65625 Z M12.65625,10.075 L7.34375,10.075 L7.34375,10 C7.34375,8.53299363 8.53299363,7.34375 10,7.34375 C11.4670064,7.34375 12.65625,8.53299363 12.65625,10 L12.65625,10.075 Z M19.1625,12.00625 L15,8.125 L15,13.8125 C15,15.1932119 16.1192881,16.3125 17.5,16.3125 C18.8807119,16.3125 20,15.1932119 20,13.8125 C19.99634,13.1173734 19.6906884,12.4581697 19.1625,12.00625 L19.1625,12.00625 Z M17.5,15.21875 C16.7233496,15.21875 16.09375,14.5891504 16.09375,13.8125 L16.09375,10.625 L18.41875,12.79375 L18.41875,12.79375 C18.7016767,13.0317436 18.8680062,13.3803521 18.875,13.75 C18.8919155,14.1283018 18.7555452,14.4974378 18.4967463,14.7738822 C18.2379473,15.0503265 17.8785945,15.2107129 17.5,15.21875 L17.5,15.21875 Z M0,13.8125 C0,15.1932119 1.11928813,16.3125 2.5,16.3125 C3.88071187,16.3125 5,15.1932119 5,13.8125 L5,8.125 L0.8375,12.00625 C0.312648649,12.4606915 0.00774088769,13.118291 0,13.8125 L0,13.8125 Z M1.55,12.8375 L1.55,12.8375 L3.90625,10.625 L3.90625,13.8125 C3.90625,14.5891504 3.27665043,15.21875 2.5,15.21875 C1.72334957,15.21875 1.09375,14.5891504 1.09375,13.8125 C1.09530728,13.4362762 1.26214314,13.0797503 1.55,12.8375 L1.55,12.8375 Z M9.375,3.4375 C9.375,2.22937711 8.39562289,1.25 7.1875,1.25 C5.97937711,1.25 5,2.22937711 5,3.4375 C5,4.64562289 5.97937711,5.625 7.1875,5.625 C8.39562289,5.625 9.375,4.64562289 9.375,3.4375 Z M6.09375,3.4375 C6.09375,2.83343855 6.58343855,2.34375 7.1875,2.34375 C7.79156145,2.34375 8.28125,2.83343855 8.28125,3.4375 C8.28125,4.04156145 7.79156145,4.53125 7.1875,4.53125 C6.58625928,4.52449385 6.10050615,4.03874072 6.09375,3.4375 Z M12.8125,1.25 C11.6043771,1.25 10.625,2.22937711 10.625,3.4375 C10.625,4.64562289 11.6043771,5.625 12.8125,5.625 C14.0206229,5.625 15,4.64562289 15,3.4375 C15,2.22937711 14.0206229,1.25 12.8125,1.25 Z M12.8125,4.53125 C12.2084386,4.53125 11.71875,4.04156145 11.71875,3.4375 C11.71875,2.83343855 12.2084386,2.34375 12.8125,2.34375 C13.4165614,2.34375 13.90625,2.83343855 13.90625,3.4375 C13.8994938,4.03874072 13.4137407,4.52449385 12.8125,4.53125 L12.8125,4.53125 Z"></path>
                    </g>
                    <text id="Primary-text-Copy-8" font-family="IBMPlexSans-SemiBold, IBM Plex Sans" font-size="14" font-weight="500" fill="#000000">
                        <tspan x="114" y="20">Primary text</tspan>
                    </text>
                    <text id="Secondary-text-multi" font-family="IBMPlexSans, IBM Plex Sans" font-size="14" font-weight="normal" fill="#000000">
                        <tspan x="114" y="38">Secondary text</tspan>
                        <tspan x="114" y="56">multiple lines</tspan>
                    </text>
                    <rect id="Rectangle-Copy-11" stroke="#D02670" x="114.5" y="6.5" width="135.5" height="53"></rect>
                    <g fill="#D12771" id="Spec-/-span-/-Vertical-/-Left-/-Dark-/-Magenta-Copy-37">
                        <text id="Text" font-family="IBMPlexSans, IBM Plex Sans" font-size="12" font-weight="normal" line-spacing="16" letter-spacing="0.32">
                            <tspan x="24.46" y="27.5422833">48</tspan>
                        </text>
                        <path id="Line" d="M24,20 L24,23.499 L71,23.499 L71,20 L72,20 L72,28 L71,28 L71,24.499 L24,24.499 L24,28 L23,28 L23,20 L24,20 Z" transform="translate(47.500000, 24.000000) rotate(-270.000000) translate(-47.500000, -24.000000) " fill-rule="nonzero"></path>
                    </g>
                </g>
                <g id="Utilities-/-Spacer-/-Component-/-Horizontal-/-Spacing-05-(16px)-/-On-/-Light-Copy-31" transform="translate(105.917428, 421.629390)">
                    <rect id="Spacer" fill="#D9FBFB" style="mix-blend-mode: multiply;" x="0" y="0" width="8" height="60"></rect>
                    <line x1="0.5" y1="0" x2="0.5" y2="60" id="Line" stroke="#007D79" stroke-dasharray="2"></line>
                    <line x1="7.5" y1="0" x2="7.5" y2="60" id="Line" stroke="#007D79" stroke-dasharray="2"></line>
                </g>
                <g id="Spec-/-span-/-Horizontal-/-Top-/--Light-/-Teal-Copy-28" transform="translate(105.917428, 387.501463)" fill="#007D79">
                    <path id="Line" d="M8,18.5 L8,19.5 L4.499,19.5 L4.499,26.5 L8,26.5 L8,27.5 L-1.13686838e-13,27.5 L-1.13686838e-13,26.5 L3.499,26.5 L3.499,19.5 L-1.13686838e-13,19.5 L-1.13686838e-13,18.5 L8,18.5 Z" transform="translate(4.000000, 23.000000) rotate(-270.000000) translate(-4.000000, -23.000000) " fill-rule="nonzero"></path>
                    <text id="Text" font-family="IBMPlexSans, IBM Plex Sans" font-size="12" font-weight="normal" line-spacing="16" letter-spacing="0.32">
                        <tspan x="0.24" y="12">8</tspan>
                    </text>
                </g>
            </g>
        </g>
    </g>
</svg>