<?xml version="1.0" encoding="UTF-8"?>
<svg width="944px" height="531px" viewBox="0 0 944 531" version="1.1" xmlns="http://www.w3.org/2000/svg" xmlns:xlink="http://www.w3.org/1999/xlink">
    <title>shapeNodeWhiteTheme</title>
    <defs>
        <rect id="path-1" x="40.7221028" y="-2" width="52" height="52" rx="26"></rect>
        <mask id="mask-2" maskContentUnits="userSpaceOnUse" maskUnits="objectBoundingBox" x="-1" y="-1" width="54" height="54">
            <rect x="39.7221028" y="-3" width="54" height="54" fill="white"></rect>
            <use xlink:href="#path-1" fill="black"></use>
        </mask>
        <rect id="path-3" x="0" y="0" width="20" height="20"></rect>
        <path d="M5.3315,14.3799 C5.0475,14.0209 4.7025,13.2869 4.0885,12.3959 C3.7405,11.8919 2.8775,10.9429 2.6205,10.4609 C2.3975,10.0349 2.4215,9.8439 2.4745,9.4909 C2.5685,8.8629 3.2125,8.3739 3.8995,8.4399 C4.4185,8.4889 4.8585,8.8319 5.2545,9.1559 C5.4935,9.3509 5.7875,9.7299 5.9645,9.9439 C6.1275,10.1399 6.1675,10.2209 6.3415,10.4529 C6.5715,10.7599 6.6435,10.9119 6.5555,10.5739 C6.4845,10.0779 6.3685,9.2309 6.2005,8.4819 C6.0725,7.9139 6.0415,7.8249 5.9195,7.3889 C5.7905,6.9249 5.7245,6.5999 5.6035,6.1079 C5.5195,5.7599 5.3685,5.0489 5.3275,4.6489 C5.2705,4.1019 5.2405,3.2099 5.5915,2.7999 C5.8665,2.4789 6.4975,2.3819 6.8885,2.5799 C7.4005,2.8389 7.6915,3.5829 7.8245,3.8799 C8.0635,4.4139 8.2115,5.0309 8.3405,5.8409 C8.5045,6.8719 8.8065,8.3029 8.8165,8.6039 C8.8405,8.2349 8.7485,7.4579 8.8125,7.1039 C8.8705,6.7829 9.1405,6.4099 9.4785,6.3089 C9.7645,6.2239 10.0995,6.1929 10.3945,6.2539 C10.7075,6.3179 11.0375,6.5419 11.1605,6.7529 C11.5225,7.3769 11.5295,8.6519 11.5445,8.5839 C11.6305,8.2079 11.6155,7.3549 11.8285,6.9999 C11.9685,6.7659 12.3255,6.5549 12.5155,6.5209 C12.8095,6.4689 13.1705,6.4529 13.4795,6.5129 C13.7285,6.5619 14.0655,6.8579 14.1565,6.9999 C14.3745,7.3439 14.4985,8.3169 14.5355,8.6579 C14.5505,8.7989 14.6095,8.2659 14.8285,7.9219 C15.2345,7.2829 16.6715,7.1589 16.7265,8.5609 C16.7515,9.2149 16.7465,9.1849 16.7465,9.6249 C16.7465,10.1419 16.7345,10.4529 16.7065,10.8269 C16.6755,11.2269 16.5895,12.1309 16.4645,12.5689 C16.3785,12.8699 16.0935,13.5469 15.8125,13.9529 C15.8125,13.9529 14.7385,15.2029 14.6215,15.7659 C14.5035,16.3279 14.5425,16.3319 14.5195,16.7309 C14.4965,17.1289 14.6405,17.6529 14.6405,17.6529 C14.6405,17.6529 13.8385,17.7569 13.4065,17.6879 C13.0155,17.6249 12.5315,16.8469 12.4065,16.6089 C12.2345,16.2809 11.8675,16.3439 11.7245,16.5859 C11.4995,16.9689 11.0155,17.6559 10.6735,17.6989 C10.0055,17.7829 8.6195,17.7299 7.5345,17.7189 C7.5345,17.7189 7.7195,16.7079 7.3075,16.3609 C7.0025,16.1019 6.4775,15.5769 6.1635,15.3009 L5.3315,14.3799 Z" id="path-5"></path>
        <filter x="-24.5%" y="-16.4%" width="149.0%" height="145.8%" filterUnits="objectBoundingBox" id="filter-6">
            <feMorphology radius="0.25" operator="dilate" in="SourceAlpha" result="shadowSpreadOuter1"></feMorphology>
            <feOffset dx="0" dy="1" in="shadowSpreadOuter1" result="shadowOffsetOuter1"></feOffset>
            <feGaussianBlur stdDeviation="0.75" in="shadowOffsetOuter1" result="shadowBlurOuter1"></feGaussianBlur>
            <feColorMatrix values="0 0 0 0 0   0 0 0 0 0   0 0 0 0 0  0 0 0 0.15 0" type="matrix" in="shadowBlurOuter1"></feColorMatrix>
        </filter>
        <path d="M5.3315,14.3799 C5.0475,14.0209 4.7025,13.2869 4.0885,12.3959 C3.7405,11.8919 2.8775,10.9429 2.6205,10.4609 C2.3975,10.0349 2.4215,9.8439 2.4745,9.4909 C2.5685,8.8629 3.2125,8.3739 3.8995,8.4399 C4.4185,8.4889 4.8585,8.8319 5.2545,9.1559 C5.4935,9.3509 5.7875,9.7299 5.9645,9.9439 C6.1275,10.1399 6.1675,10.2209 6.3415,10.4529 C6.5715,10.7599 6.6435,10.9119 6.5555,10.5739 C6.4845,10.0779 6.3685,9.2309 6.2005,8.4819 C6.0725,7.9139 6.0415,7.8249 5.9195,7.3889 C5.7905,6.9249 5.7245,6.5999 5.6035,6.1079 C5.5195,5.7599 5.3685,5.0489 5.3275,4.6489 C5.2705,4.1019 5.2405,3.2099 5.5915,2.7999 C5.8665,2.4789 6.4975,2.3819 6.8885,2.5799 C7.4005,2.8389 7.6915,3.5829 7.8245,3.8799 C8.0635,4.4139 8.2115,5.0309 8.3405,5.8409 C8.5045,6.8719 8.8065,8.3029 8.8165,8.6039 C8.8405,8.2349 8.7485,7.4579 8.8125,7.1039 C8.8705,6.7829 9.1405,6.4099 9.4785,6.3089 C9.7645,6.2239 10.0995,6.1929 10.3945,6.2539 C10.7075,6.3179 11.0375,6.5419 11.1605,6.7529 C11.5225,7.3769 11.5295,8.6519 11.5445,8.5839 C11.6305,8.2079 11.6155,7.3549 11.8285,6.9999 C11.9685,6.7659 12.3255,6.5549 12.5155,6.5209 C12.8095,6.4689 13.1705,6.4529 13.4795,6.5129 C13.7285,6.5619 14.0655,6.8579 14.1565,6.9999 C14.3745,7.3439 14.4985,8.3169 14.5355,8.6579 C14.5505,8.7989 14.6095,8.2659 14.8285,7.9219 C15.2345,7.2829 16.6715,7.1589 16.7265,8.5609 C16.7515,9.2149 16.7465,9.1849 16.7465,9.6249 C16.7465,10.1419 16.7345,10.4529 16.7065,10.8269 C16.6755,11.2269 16.5895,12.1309 16.4645,12.5689 C16.3785,12.8699 16.0935,13.5469 15.8125,13.9529 C15.8125,13.9529 14.7385,15.2029 14.6215,15.7659 C14.5035,16.3279 14.5425,16.3319 14.5195,16.7309 C14.4965,17.1289 14.6405,17.6529 14.6405,17.6529 C14.6405,17.6529 13.8385,17.7569 13.4065,17.6879 C13.0155,17.6249 12.5315,16.8469 12.4065,16.6089 C12.2345,16.2809 11.8675,16.3439 11.7245,16.5859 C11.4995,16.9689 11.0155,17.6559 10.6735,17.6989 C10.0055,17.7829 8.6195,17.7299 7.5345,17.7189 C7.5345,17.7189 7.7195,16.7079 7.3075,16.3609 C7.0025,16.1019 6.4775,15.5769 6.1635,15.3009 L5.3315,14.3799 Z" id="path-7"></path>
        <filter x="-13.1%" y="-7.4%" width="126.2%" height="124.6%" filterUnits="objectBoundingBox" id="filter-8">
            <feOffset dx="0" dy="0.75" in="SourceAlpha" result="shadowOffsetOuter1"></feOffset>
            <feGaussianBlur stdDeviation="0.5" in="shadowOffsetOuter1" result="shadowBlurOuter1"></feGaussianBlur>
            <feColorMatrix values="0 0 0 0 0   0 0 0 0 0   0 0 0 0 0  0 0 0 0.2 0" type="matrix" in="shadowBlurOuter1"></feColorMatrix>
        </filter>
        <rect id="path-9" x="0" y="0" width="20" height="20"></rect>
        <path d="M5.3315,14.3799 C5.0475,14.0209 4.7025,13.2869 4.0885,12.3959 C3.7405,11.8919 2.8775,10.9429 2.6205,10.4609 C2.3975,10.0349 2.4215,9.8439 2.4745,9.4909 C2.5685,8.8629 3.2125,8.3739 3.8995,8.4399 C4.4185,8.4889 4.8585,8.8319 5.2545,9.1559 C5.4935,9.3509 5.7875,9.7299 5.9645,9.9439 C6.1275,10.1399 6.1675,10.2209 6.3415,10.4529 C6.5715,10.7599 6.6435,10.9119 6.5555,10.5739 C6.4845,10.0779 6.3685,9.2309 6.2005,8.4819 C6.0725,7.9139 6.0415,7.8249 5.9195,7.3889 C5.7905,6.9249 5.7245,6.5999 5.6035,6.1079 C5.5195,5.7599 5.3685,5.0489 5.3275,4.6489 C5.2705,4.1019 5.2405,3.2099 5.5915,2.7999 C5.8665,2.4789 6.4975,2.3819 6.8885,2.5799 C7.4005,2.8389 7.6915,3.5829 7.8245,3.8799 C8.0635,4.4139 8.2115,5.0309 8.3405,5.8409 C8.5045,6.8719 8.8065,8.3029 8.8165,8.6039 C8.8405,8.2349 8.7485,7.4579 8.8125,7.1039 C8.8705,6.7829 9.1405,6.4099 9.4785,6.3089 C9.7645,6.2239 10.0995,6.1929 10.3945,6.2539 C10.7075,6.3179 11.0375,6.5419 11.1605,6.7529 C11.5225,7.3769 11.5295,8.6519 11.5445,8.5839 C11.6305,8.2079 11.6155,7.3549 11.8285,6.9999 C11.9685,6.7659 12.3255,6.5549 12.5155,6.5209 C12.8095,6.4689 13.1705,6.4529 13.4795,6.5129 C13.7285,6.5619 14.0655,6.8579 14.1565,6.9999 C14.3745,7.3439 14.4985,8.3169 14.5355,8.6579 C14.5505,8.7989 14.6095,8.2659 14.8285,7.9219 C15.2345,7.2829 16.6715,7.1589 16.7265,8.5609 C16.7515,9.2149 16.7465,9.1849 16.7465,9.6249 C16.7465,10.1419 16.7345,10.4529 16.7065,10.8269 C16.6755,11.2269 16.5895,12.1309 16.4645,12.5689 C16.3785,12.8699 16.0935,13.5469 15.8125,13.9529 C15.8125,13.9529 14.7385,15.2029 14.6215,15.7659 C14.5035,16.3279 14.5425,16.3319 14.5195,16.7309 C14.4965,17.1289 14.6405,17.6529 14.6405,17.6529 C14.6405,17.6529 13.8385,17.7569 13.4065,17.6879 C13.0155,17.6249 12.5315,16.8469 12.4065,16.6089 C12.2345,16.2809 11.8675,16.3439 11.7245,16.5859 C11.4995,16.9689 11.0155,17.6559 10.6735,17.6989 C10.0055,17.7829 8.6195,17.7299 7.5345,17.7189 C7.5345,17.7189 7.7195,16.7079 7.3075,16.3609 C7.0025,16.1019 6.4775,15.5769 6.1635,15.3009 L5.3315,14.3799 Z" id="path-11"></path>
        <filter x="-24.5%" y="-16.4%" width="149.0%" height="145.8%" filterUnits="objectBoundingBox" id="filter-12">
            <feMorphology radius="0.25" operator="dilate" in="SourceAlpha" result="shadowSpreadOuter1"></feMorphology>
            <feOffset dx="0" dy="1" in="shadowSpreadOuter1" result="shadowOffsetOuter1"></feOffset>
            <feGaussianBlur stdDeviation="0.75" in="shadowOffsetOuter1" result="shadowBlurOuter1"></feGaussianBlur>
            <feColorMatrix values="0 0 0 0 0   0 0 0 0 0   0 0 0 0 0  0 0 0 0.15 0" type="matrix" in="shadowBlurOuter1"></feColorMatrix>
        </filter>
        <path d="M5.3315,14.3799 C5.0475,14.0209 4.7025,13.2869 4.0885,12.3959 C3.7405,11.8919 2.8775,10.9429 2.6205,10.4609 C2.3975,10.0349 2.4215,9.8439 2.4745,9.4909 C2.5685,8.8629 3.2125,8.3739 3.8995,8.4399 C4.4185,8.4889 4.8585,8.8319 5.2545,9.1559 C5.4935,9.3509 5.7875,9.7299 5.9645,9.9439 C6.1275,10.1399 6.1675,10.2209 6.3415,10.4529 C6.5715,10.7599 6.6435,10.9119 6.5555,10.5739 C6.4845,10.0779 6.3685,9.2309 6.2005,8.4819 C6.0725,7.9139 6.0415,7.8249 5.9195,7.3889 C5.7905,6.9249 5.7245,6.5999 5.6035,6.1079 C5.5195,5.7599 5.3685,5.0489 5.3275,4.6489 C5.2705,4.1019 5.2405,3.2099 5.5915,2.7999 C5.8665,2.4789 6.4975,2.3819 6.8885,2.5799 C7.4005,2.8389 7.6915,3.5829 7.8245,3.8799 C8.0635,4.4139 8.2115,5.0309 8.3405,5.8409 C8.5045,6.8719 8.8065,8.3029 8.8165,8.6039 C8.8405,8.2349 8.7485,7.4579 8.8125,7.1039 C8.8705,6.7829 9.1405,6.4099 9.4785,6.3089 C9.7645,6.2239 10.0995,6.1929 10.3945,6.2539 C10.7075,6.3179 11.0375,6.5419 11.1605,6.7529 C11.5225,7.3769 11.5295,8.6519 11.5445,8.5839 C11.6305,8.2079 11.6155,7.3549 11.8285,6.9999 C11.9685,6.7659 12.3255,6.5549 12.5155,6.5209 C12.8095,6.4689 13.1705,6.4529 13.4795,6.5129 C13.7285,6.5619 14.0655,6.8579 14.1565,6.9999 C14.3745,7.3439 14.4985,8.3169 14.5355,8.6579 C14.5505,8.7989 14.6095,8.2659 14.8285,7.9219 C15.2345,7.2829 16.6715,7.1589 16.7265,8.5609 C16.7515,9.2149 16.7465,9.1849 16.7465,9.6249 C16.7465,10.1419 16.7345,10.4529 16.7065,10.8269 C16.6755,11.2269 16.5895,12.1309 16.4645,12.5689 C16.3785,12.8699 16.0935,13.5469 15.8125,13.9529 C15.8125,13.9529 14.7385,15.2029 14.6215,15.7659 C14.5035,16.3279 14.5425,16.3319 14.5195,16.7309 C14.4965,17.1289 14.6405,17.6529 14.6405,17.6529 C14.6405,17.6529 13.8385,17.7569 13.4065,17.6879 C13.0155,17.6249 12.5315,16.8469 12.4065,16.6089 C12.2345,16.2809 11.8675,16.3439 11.7245,16.5859 C11.4995,16.9689 11.0155,17.6559 10.6735,17.6989 C10.0055,17.7829 8.6195,17.7299 7.5345,17.7189 C7.5345,17.7189 7.7195,16.7079 7.3075,16.3609 C7.0025,16.1019 6.4775,15.5769 6.1635,15.3009 L5.3315,14.3799 Z" id="path-13"></path>
        <filter x="-13.1%" y="-7.4%" width="126.2%" height="124.6%" filterUnits="objectBoundingBox" id="filter-14">
            <feOffset dx="0" dy="0.75" in="SourceAlpha" result="shadowOffsetOuter1"></feOffset>
            <feGaussianBlur stdDeviation="0.5" in="shadowOffsetOuter1" result="shadowBlurOuter1"></feGaussianBlur>
            <feColorMatrix values="0 0 0 0 0   0 0 0 0 0   0 0 0 0 0  0 0 0 0.2 0" type="matrix" in="shadowBlurOuter1"></feColorMatrix>
        </filter>
        <rect id="path-15" x="40.7221028" y="-2" width="52" height="52" rx="26"></rect>
        <mask id="mask-16" maskContentUnits="userSpaceOnUse" maskUnits="objectBoundingBox" x="-1" y="-1" width="54" height="54">
            <rect x="39.7221028" y="-3" width="54" height="54" fill="white"></rect>
            <use xlink:href="#path-15" fill="black"></use>
        </mask>
        <rect id="path-17" x="40.7221028" y="-2" width="52" height="52" rx="26"></rect>
        <mask id="mask-18" maskContentUnits="userSpaceOnUse" maskUnits="objectBoundingBox" x="-1" y="-1" width="54" height="54">
            <rect x="39.7221028" y="-3" width="54" height="54" fill="white"></rect>
            <use xlink:href="#path-17" fill="black"></use>
        </mask>
    </defs>
    <g id="shapeNodeWhiteTheme" stroke="none" stroke-width="1" fill="none" fill-rule="evenodd">
        <g id="bg" transform="translate(-0.000000, 0.000000)">
            <rect fill="#FFFFFF" x="0" y="0" width="944" height="531"></rect>
            <line x1="314.934348" y1="0" x2="314.934348" y2="531" id="Line" stroke="#C6C6C6"></line>
            <line x1="629.812485" y1="0" x2="629.812485" y2="531" id="Line-Copy-2" stroke="#C6C6C6"></line>
            <line x1="4.54747351e-13" y1="176.51751" x2="944" y2="176.51751" id="Line-2" stroke="#C6C6C6"></line>
            <line x1="3.55271368e-14" y1="353.51751" x2="944" y2="353.51751" id="Line-2-Copy" stroke="#C6C6C6"></line>
        </g>
        <g id="Group-Copy-3" transform="translate(90.500000, 26.500000)">
            <g id="node-/-white-theme-/-shape-node-/-low-contrast-/-01-enabled" transform="translate(0.000000, 36.000000)">
                <g id="style" transform="translate(42.722103, 0.000000)" fill="#F4F4F4">
                    <rect x="0" y="0" width="48" height="48" rx="24"></rect>
                </g>
                <g id="icon" transform="translate(56.722103, 14.000000)" fill="#161616">
                    <path d="M10,6.25 C7.92893219,6.25 6.25,7.92893219 6.25,10 L6.25,15 C6.25,17.0710678 7.92893219,18.75 10,18.75 C12.0710678,18.75 13.75,17.0710678 13.75,15 L13.75,10 C13.75,7.92893219 12.0710678,6.25 10,6.25 Z M7.34375,11.16875 L12.65625,11.16875 L12.65625,13.825 L7.34375,13.825 L7.34375,11.16875 Z M10,17.65625 C8.53583704,17.649408 7.35059199,16.464163 7.34375,15 L7.34375,14.91875 L12.65625,14.91875 L12.65625,15 C12.649408,16.464163 11.464163,17.649408 10,17.65625 L10,17.65625 Z M12.65625,10.075 L7.34375,10.075 L7.34375,10 C7.34375,8.53299363 8.53299363,7.34375 10,7.34375 C11.4670064,7.34375 12.65625,8.53299363 12.65625,10 L12.65625,10.075 Z M19.1625,12.00625 L15,8.125 L15,13.8125 C15,15.1932119 16.1192881,16.3125 17.5,16.3125 C18.8807119,16.3125 20,15.1932119 20,13.8125 C19.99634,13.1173734 19.6906884,12.4581697 19.1625,12.00625 L19.1625,12.00625 Z M17.5,15.21875 C16.7233496,15.21875 16.09375,14.5891504 16.09375,13.8125 L16.09375,10.625 L18.41875,12.79375 L18.41875,12.79375 C18.7016767,13.0317436 18.8680062,13.3803521 18.875,13.75 C18.8919155,14.1283018 18.7555452,14.4974378 18.4967463,14.7738822 C18.2379473,15.0503265 17.8785945,15.2107129 17.5,15.21875 L17.5,15.21875 Z M0,13.8125 C0,15.1932119 1.11928813,16.3125 2.5,16.3125 C3.88071187,16.3125 5,15.1932119 5,13.8125 L5,8.125 L0.8375,12.00625 C0.312648649,12.4606915 0.00774088769,13.118291 0,13.8125 L0,13.8125 Z M1.55,12.8375 L1.55,12.8375 L3.90625,10.625 L3.90625,13.8125 C3.90625,14.5891504 3.27665043,15.21875 2.5,15.21875 C1.72334957,15.21875 1.09375,14.5891504 1.09375,13.8125 C1.09530728,13.4362762 1.26214314,13.0797503 1.55,12.8375 L1.55,12.8375 Z M9.375,3.4375 C9.375,2.22937711 8.39562289,1.25 7.1875,1.25 C5.97937711,1.25 5,2.22937711 5,3.4375 C5,4.64562289 5.97937711,5.625 7.1875,5.625 C8.39562289,5.625 9.375,4.64562289 9.375,3.4375 Z M6.09375,3.4375 C6.09375,2.83343855 6.58343855,2.34375 7.1875,2.34375 C7.79156145,2.34375 8.28125,2.83343855 8.28125,3.4375 C8.28125,4.04156145 7.79156145,4.53125 7.1875,4.53125 C6.58625928,4.52449385 6.10050615,4.03874072 6.09375,3.4375 Z M12.8125,1.25 C11.6043771,1.25 10.625,2.22937711 10.625,3.4375 C10.625,4.64562289 11.6043771,5.625 12.8125,5.625 C14.0206229,5.625 15,4.64562289 15,3.4375 C15,2.22937711 14.0206229,1.25 12.8125,1.25 Z M12.8125,4.53125 C12.2084386,4.53125 11.71875,4.04156145 11.71875,3.4375 C11.71875,2.83343855 12.2084386,2.34375 12.8125,2.34375 C13.4165614,2.34375 13.90625,2.83343855 13.90625,3.4375 C13.8994938,4.03874072 13.4137407,4.52449385 12.8125,4.53125 L12.8125,4.53125 Z" id="Fill"></path>
                </g>
                <g id="group" transform="translate(0.222103, 52.000000)" fill="#161616" font-size="14" letter-spacing="0.159999996" line-spacing="18">
                    <text id="Secondary-text" font-family="IBMPlexSans, IBM Plex Sans" font-weight="normal">
                        <tspan x="40.278" y="32">Enabled</tspan>
                    </text>
                    <text id="Primary-text" font-family="IBMPlexSans-SemiBold, IBM Plex Sans" font-weight="500">
                        <tspan x="27.473" y="14">Shape node</tspan>
                    </text>
                </g>
            </g>
            <g id="node-/-white-theme-/-shape-node-/-low-contrast-/-01-enabled-copy-5" transform="translate(0.000000, 377.000000)">
                <g id="shape" transform="translate(42.722103, 0.000000)" fill="#F4F4F4">
                    <rect id="style" x="0" y="0" width="48" height="48" rx="24"></rect>
                </g>
                <g id="Icon" transform="translate(56.722103, 14.000000)" fill="#C6C6C6">
                    <path d="M10,6.25 C7.92893219,6.25 6.25,7.92893219 6.25,10 L6.25,15 C6.25,17.0710678 7.92893219,18.75 10,18.75 C12.0710678,18.75 13.75,17.0710678 13.75,15 L13.75,10 C13.75,7.92893219 12.0710678,6.25 10,6.25 Z M7.34375,11.16875 L12.65625,11.16875 L12.65625,13.825 L7.34375,13.825 L7.34375,11.16875 Z M10,17.65625 C8.53583704,17.649408 7.35059199,16.464163 7.34375,15 L7.34375,14.91875 L12.65625,14.91875 L12.65625,15 C12.649408,16.464163 11.464163,17.649408 10,17.65625 L10,17.65625 Z M12.65625,10.075 L7.34375,10.075 L7.34375,10 C7.34375,8.53299363 8.53299363,7.34375 10,7.34375 C11.4670064,7.34375 12.65625,8.53299363 12.65625,10 L12.65625,10.075 Z M19.1625,12.00625 L15,8.125 L15,13.8125 C15,15.1932119 16.1192881,16.3125 17.5,16.3125 C18.8807119,16.3125 20,15.1932119 20,13.8125 C19.99634,13.1173734 19.6906884,12.4581697 19.1625,12.00625 L19.1625,12.00625 Z M17.5,15.21875 C16.7233496,15.21875 16.09375,14.5891504 16.09375,13.8125 L16.09375,10.625 L18.41875,12.79375 L18.41875,12.79375 C18.7016767,13.0317436 18.8680062,13.3803521 18.875,13.75 C18.8919155,14.1283018 18.7555452,14.4974378 18.4967463,14.7738822 C18.2379473,15.0503265 17.8785945,15.2107129 17.5,15.21875 L17.5,15.21875 Z M0,13.8125 C0,15.1932119 1.11928813,16.3125 2.5,16.3125 C3.88071187,16.3125 5,15.1932119 5,13.8125 L5,8.125 L0.8375,12.00625 C0.312648649,12.4606915 0.00774088769,13.118291 0,13.8125 L0,13.8125 Z M1.55,12.8375 L1.55,12.8375 L3.90625,10.625 L3.90625,13.8125 C3.90625,14.5891504 3.27665043,15.21875 2.5,15.21875 C1.72334957,15.21875 1.09375,14.5891504 1.09375,13.8125 C1.09530728,13.4362762 1.26214314,13.0797503 1.55,12.8375 L1.55,12.8375 Z M9.375,3.4375 C9.375,2.22937711 8.39562289,1.25 7.1875,1.25 C5.97937711,1.25 5,2.22937711 5,3.4375 C5,4.64562289 5.97937711,5.625 7.1875,5.625 C8.39562289,5.625 9.375,4.64562289 9.375,3.4375 Z M6.09375,3.4375 C6.09375,2.83343855 6.58343855,2.34375 7.1875,2.34375 C7.79156145,2.34375 8.28125,2.83343855 8.28125,3.4375 C8.28125,4.04156145 7.79156145,4.53125 7.1875,4.53125 C6.58625928,4.52449385 6.10050615,4.03874072 6.09375,3.4375 Z M12.8125,1.25 C11.6043771,1.25 10.625,2.22937711 10.625,3.4375 C10.625,4.64562289 11.6043771,5.625 12.8125,5.625 C14.0206229,5.625 15,4.64562289 15,3.4375 C15,2.22937711 14.0206229,1.25 12.8125,1.25 Z M12.8125,4.53125 C12.2084386,4.53125 11.71875,4.04156145 11.71875,3.4375 C11.71875,2.83343855 12.2084386,2.34375 12.8125,2.34375 C13.4165614,2.34375 13.90625,2.83343855 13.90625,3.4375 C13.8994938,4.03874072 13.4137407,4.52449385 12.8125,4.53125 L12.8125,4.53125 Z" id="Fill"></path>
                </g>
                <g id="group" transform="translate(0.222103, 52.000000)" fill="#C6C6C6" font-size="14" letter-spacing="0.159999996" line-spacing="18">
                    <text id="Secondary-text" font-family="IBMPlexSans, IBM Plex Sans" font-weight="normal">
                        <tspan x="38.399" y="32">Disabled</tspan>
                    </text>
                    <text id="Primary-text" font-family="IBMPlexSans-SemiBold, IBM Plex Sans" font-weight="500">
                        <tspan x="27.473" y="14">Shape node</tspan>
                    </text>
                </g>
            </g>
            <g id="node-/-white-theme-/-shape-node-/-low-contrast-/-01-enabled-copy-6" transform="translate(315.000000, 377.000000)">
                <g id="shape" transform="translate(42.722103, 0.000000)" stroke="#262626">
                    <rect id="style" x="0.5" y="0.5" width="47" height="47" rx="23.5"></rect>
                </g>
                <g id="icon" transform="translate(56.722103, 14.000000)" fill="#161616">
                    <path d="M10,6.25 C7.92893219,6.25 6.25,7.92893219 6.25,10 L6.25,15 C6.25,17.0710678 7.92893219,18.75 10,18.75 C12.0710678,18.75 13.75,17.0710678 13.75,15 L13.75,10 C13.75,7.92893219 12.0710678,6.25 10,6.25 Z M7.34375,11.16875 L12.65625,11.16875 L12.65625,13.825 L7.34375,13.825 L7.34375,11.16875 Z M10,17.65625 C8.53583704,17.649408 7.35059199,16.464163 7.34375,15 L7.34375,14.91875 L12.65625,14.91875 L12.65625,15 C12.649408,16.464163 11.464163,17.649408 10,17.65625 L10,17.65625 Z M12.65625,10.075 L7.34375,10.075 L7.34375,10 C7.34375,8.53299363 8.53299363,7.34375 10,7.34375 C11.4670064,7.34375 12.65625,8.53299363 12.65625,10 L12.65625,10.075 Z M19.1625,12.00625 L15,8.125 L15,13.8125 C15,15.1932119 16.1192881,16.3125 17.5,16.3125 C18.8807119,16.3125 20,15.1932119 20,13.8125 C19.99634,13.1173734 19.6906884,12.4581697 19.1625,12.00625 L19.1625,12.00625 Z M17.5,15.21875 C16.7233496,15.21875 16.09375,14.5891504 16.09375,13.8125 L16.09375,10.625 L18.41875,12.79375 L18.41875,12.79375 C18.7016767,13.0317436 18.8680062,13.3803521 18.875,13.75 C18.8919155,14.1283018 18.7555452,14.4974378 18.4967463,14.7738822 C18.2379473,15.0503265 17.8785945,15.2107129 17.5,15.21875 L17.5,15.21875 Z M0,13.8125 C0,15.1932119 1.11928813,16.3125 2.5,16.3125 C3.88071187,16.3125 5,15.1932119 5,13.8125 L5,8.125 L0.8375,12.00625 C0.312648649,12.4606915 0.00774088769,13.118291 0,13.8125 L0,13.8125 Z M1.55,12.8375 L1.55,12.8375 L3.90625,10.625 L3.90625,13.8125 C3.90625,14.5891504 3.27665043,15.21875 2.5,15.21875 C1.72334957,15.21875 1.09375,14.5891504 1.09375,13.8125 C1.09530728,13.4362762 1.26214314,13.0797503 1.55,12.8375 L1.55,12.8375 Z M9.375,3.4375 C9.375,2.22937711 8.39562289,1.25 7.1875,1.25 C5.97937711,1.25 5,2.22937711 5,3.4375 C5,4.64562289 5.97937711,5.625 7.1875,5.625 C8.39562289,5.625 9.375,4.64562289 9.375,3.4375 Z M6.09375,3.4375 C6.09375,2.83343855 6.58343855,2.34375 7.1875,2.34375 C7.79156145,2.34375 8.28125,2.83343855 8.28125,3.4375 C8.28125,4.04156145 7.79156145,4.53125 7.1875,4.53125 C6.58625928,4.52449385 6.10050615,4.03874072 6.09375,3.4375 Z M12.8125,1.25 C11.6043771,1.25 10.625,2.22937711 10.625,3.4375 C10.625,4.64562289 11.6043771,5.625 12.8125,5.625 C14.0206229,5.625 15,4.64562289 15,3.4375 C15,2.22937711 14.0206229,1.25 12.8125,1.25 Z M12.8125,4.53125 C12.2084386,4.53125 11.71875,4.04156145 11.71875,3.4375 C11.71875,2.83343855 12.2084386,2.34375 12.8125,2.34375 C13.4165614,2.34375 13.90625,2.83343855 13.90625,3.4375 C13.8994938,4.03874072 13.4137407,4.52449385 12.8125,4.53125 L12.8125,4.53125 Z" id="Fill"></path>
                </g>
                <g id="group" transform="translate(0.222103, 52.000000)" fill="#161616" font-size="14" letter-spacing="0.159999996" line-spacing="18">
                    <text id="Secondary-text" font-family="IBMPlexSans, IBM Plex Sans" font-weight="normal">
                        <tspan x="33.678" y="32">Read-only</tspan>
                    </text>
                    <text id="Primary-text" font-family="IBMPlexSans-SemiBold, IBM Plex Sans" font-weight="500">
                        <tspan x="27.473" y="14">Shape node</tspan>
                    </text>
                </g>
            </g>
            <g id="Group" transform="translate(630.000000, 377.000000)">
                <g id="node-/-white-theme-/-card-node-/-gray-/-17-skeleton" transform="translate(22.500000, 0.000000)">
                    <rect id="Skeleton-light" fill="#E5E5E5" x="0" y="0" width="88" height="88"></rect>
                    <rect id="Skeleton-dark" fill="#C6C6C6" x="0" y="0" width="58.6666667" height="88"></rect>
                </g>
            </g>
            <g id="Group" transform="translate(0.000000, 177.000000)">
                <g transform="translate(0.000000, 35.000000)" id="node-/-white-theme-/-shape-node-/-low-contrast-/-01-enabled-copy-4">
                    <g id="shape" transform="translate(42.722103, 0.000000)" fill="#E5E5E5">
                        <rect id="style" x="0" y="0" width="48" height="48" rx="24"></rect>
                    </g>
                    <use id="selected-line" stroke="#000000" mask="url(#mask-2)" stroke-width="2" stroke-dasharray="4,4" xlink:href="#path-1"></use>
                    <g id="icon" transform="translate(56.722103, 14.000000)" fill="#161616">
                        <path d="M10,6.25 C7.92893219,6.25 6.25,7.92893219 6.25,10 L6.25,15 C6.25,17.0710678 7.92893219,18.75 10,18.75 C12.0710678,18.75 13.75,17.0710678 13.75,15 L13.75,10 C13.75,7.92893219 12.0710678,6.25 10,6.25 Z M7.34375,11.16875 L12.65625,11.16875 L12.65625,13.825 L7.34375,13.825 L7.34375,11.16875 Z M10,17.65625 C8.53583704,17.649408 7.35059199,16.464163 7.34375,15 L7.34375,14.91875 L12.65625,14.91875 L12.65625,15 C12.649408,16.464163 11.464163,17.649408 10,17.65625 L10,17.65625 Z M12.65625,10.075 L7.34375,10.075 L7.34375,10 C7.34375,8.53299363 8.53299363,7.34375 10,7.34375 C11.4670064,7.34375 12.65625,8.53299363 12.65625,10 L12.65625,10.075 Z M19.1625,12.00625 L15,8.125 L15,13.8125 C15,15.1932119 16.1192881,16.3125 17.5,16.3125 C18.8807119,16.3125 20,15.1932119 20,13.8125 C19.99634,13.1173734 19.6906884,12.4581697 19.1625,12.00625 L19.1625,12.00625 Z M17.5,15.21875 C16.7233496,15.21875 16.09375,14.5891504 16.09375,13.8125 L16.09375,10.625 L18.41875,12.79375 L18.41875,12.79375 C18.7016767,13.0317436 18.8680062,13.3803521 18.875,13.75 C18.8919155,14.1283018 18.7555452,14.4974378 18.4967463,14.7738822 C18.2379473,15.0503265 17.8785945,15.2107129 17.5,15.21875 L17.5,15.21875 Z M0,13.8125 C0,15.1932119 1.11928813,16.3125 2.5,16.3125 C3.88071187,16.3125 5,15.1932119 5,13.8125 L5,8.125 L0.8375,12.00625 C0.312648649,12.4606915 0.00774088769,13.118291 0,13.8125 L0,13.8125 Z M1.55,12.8375 L1.55,12.8375 L3.90625,10.625 L3.90625,13.8125 C3.90625,14.5891504 3.27665043,15.21875 2.5,15.21875 C1.72334957,15.21875 1.09375,14.5891504 1.09375,13.8125 C1.09530728,13.4362762 1.26214314,13.0797503 1.55,12.8375 L1.55,12.8375 Z M9.375,3.4375 C9.375,2.22937711 8.39562289,1.25 7.1875,1.25 C5.97937711,1.25 5,2.22937711 5,3.4375 C5,4.64562289 5.97937711,5.625 7.1875,5.625 C8.39562289,5.625 9.375,4.64562289 9.375,3.4375 Z M6.09375,3.4375 C6.09375,2.83343855 6.58343855,2.34375 7.1875,2.34375 C7.79156145,2.34375 8.28125,2.83343855 8.28125,3.4375 C8.28125,4.04156145 7.79156145,4.53125 7.1875,4.53125 C6.58625928,4.52449385 6.10050615,4.03874072 6.09375,3.4375 Z M12.8125,1.25 C11.6043771,1.25 10.625,2.22937711 10.625,3.4375 C10.625,4.64562289 11.6043771,5.625 12.8125,5.625 C14.0206229,5.625 15,4.64562289 15,3.4375 C15,2.22937711 14.0206229,1.25 12.8125,1.25 Z M12.8125,4.53125 C12.2084386,4.53125 11.71875,4.04156145 11.71875,3.4375 C11.71875,2.83343855 12.2084386,2.34375 12.8125,2.34375 C13.4165614,2.34375 13.90625,2.83343855 13.90625,3.4375 C13.8994938,4.03874072 13.4137407,4.52449385 12.8125,4.53125 L12.8125,4.53125 Z" id="Fill"></path>
                    </g>
                    <g id="group" transform="translate(0.222103, 52.000000)" fill="#161616" font-size="14" letter-spacing="0.159999996" line-spacing="18">
                        <text id="Secondary-text" font-family="IBMPlexSans, IBM Plex Sans" font-weight="normal">
                            <tspan x="16.454" y="32">Selected: hover</tspan>
                        </text>
                        <text id="Primary-text" font-family="IBMPlexSans-SemiBold, IBM Plex Sans" font-weight="500">
                            <tspan x="27.473" y="14">Shape node</tspan>
                        </text>
                    </g>
                    <g id="Cursor---Pointer" transform="translate(78.722103, 28.000000)">
                        <mask id="mask-4" fill="white">
                            <use xlink:href="#path-3"></use>
                        </mask>
                        <g id="Mask"></g>
                        <g id="soft-shadow" mask="url(#mask-4)" fill="black" fill-opacity="1">
                            <use filter="url(#filter-6)" xlink:href="#path-5"></use>
                        </g>
                        <g id="Hard-shadow" mask="url(#mask-4)" fill="black" fill-opacity="1">
                            <use filter="url(#filter-8)" xlink:href="#path-7"></use>
                        </g>
                        <path d="M14.7241056,7.47141669 C15.0443785,7.18221416 15.5213697,7.03670189 15.9663552,7.10541779 C16.623426,7.2068845 17.0693072,7.73292411 17.1012263,8.5465756 C17.1160667,8.93479975 17.1205439,9.08702079 17.1216145,9.2406012 C17.1219137,9.29681339 17.1219137,9.34230064 17.1217032,9.46255315 C17.1215507,9.53598184 17.1215507,9.53598184 17.1215,9.6249 C17.1215,10.1318217 17.1103932,10.4549875 17.0803789,10.8558756 C17.025612,11.5625448 16.9364875,12.2815187 16.8250715,12.6719204 C16.7090161,13.0781143 16.3931518,13.7728809 16.0969319,14.1972839 C16.0616068,14.2383979 15.9981808,14.3141219 15.9161351,14.4153602 C15.7791712,14.5843634 15.6422568,14.7609784 15.5150498,14.9357645 C15.4479652,15.0279408 15.3853573,15.1172241 15.3280839,15.2027233 C15.135788,15.4897873 15.0136878,15.7217462 14.9884977,15.8429565 C14.9298607,16.1222273 14.9117412,16.2502987 14.9064514,16.3851797 C14.9050538,16.4263944 14.9050538,16.4263944 14.9040081,16.4734885 C14.9012704,16.599997 14.8995119,16.6547538 14.8938754,16.7525348 C14.8906335,16.8086343 14.891639,16.8735285 14.8967392,16.945205 C14.9047839,17.0582597 14.9224844,17.1823622 14.9469771,17.3094239 C14.9681042,17.4190259 14.9890559,17.5060837 15.0020947,17.5535305 L15.1163608,17.9693322 L14.6887247,18.0247863 C14.6275805,18.0327152 14.5252168,18.0442534 14.3967426,18.0557325 C14.2263728,18.0709549 14.0575496,18.0814699 13.8980238,18.0851396 C13.6840578,18.0900615 13.4994466,18.0824989 13.3468474,18.058125 C12.8664848,17.9807264 12.3907775,17.3854512 12.0743925,16.7830539 C11.6431081,17.4647811 11.1749086,18.0138098 10.7202872,18.0709698 C10.2949704,18.1244528 9.70235518,18.1299326 8.54206362,18.1099728 C8.4349103,18.1081094 8.4349103,18.1081094 8.32811166,18.106208 C7.90126416,18.0986007 7.73999547,18.0960026 7.53069835,18.0938807 L7.08548269,18.089367 L7.16562491,17.6514006 C7.16935442,17.6310193 7.17586345,17.5882387 7.18261233,17.528931 C7.20212706,17.3574397 7.20772941,17.1794621 7.19163153,17.0199056 C7.17206735,16.8259923 7.12268682,16.6955281 7.06476789,16.6467428 C6.92588556,16.5288067 6.77400729,16.3878509 6.46754447,16.0967558 C6.13929445,15.7849397 6.03552367,15.6876836 5.8852309,15.5522788 L5.0532309,14.6312788 C4.89386376,14.431117 4.10426845,13.079656 3.77991366,12.6089715 C3.65991997,12.4351876 3.60494436,12.3661011 3.10029899,11.7442336 C3.07515424,11.7132375 3.07515424,11.7132375 3.04999471,11.6821695 C2.63887453,11.1742372 2.41852962,10.8791432 2.28826739,10.6348152 C2.05155517,10.1826206 2.02680459,9.94708422 2.10363156,9.43538784 C2.22854985,8.60082735 3.05933221,7.98245865 3.93474788,8.06656023 C4.46843682,8.11694704 4.85716923,8.34628834 5.49156673,8.86534129 C5.57863854,8.93638314 5.67035426,9.02545325 5.77012363,9.13315539 C5.82379967,9.19109928 5.87935703,9.25396661 5.93843022,9.32319183 C5.9531917,9.34049015 5.97355864,9.36477937 5.99692576,9.39285223 C5.97800375,9.28396793 5.95805218,9.1750102 5.9346717,9.05132985 C5.9020994,8.87902568 5.86879967,8.71648437 5.83467395,8.56433967 C5.77231524,8.28762291 5.73240297,8.12180912 5.69157441,7.96802977 C5.68436831,7.94099225 5.68436831,7.94099225 5.67709145,7.91407638 C5.65521771,7.83343277 5.55252156,7.46904416 5.5582031,7.48934677 C5.50405585,7.29458454 5.45870214,7.11710283 5.40697978,6.90138387 C5.39538218,6.85288766 5.39538218,6.85288766 5.38388495,6.80440351 C5.31702896,6.51937923 5.28057519,6.3650796 5.23896917,6.1958902 C5.12130583,5.70842777 4.99154332,5.04897896 4.95451956,4.68776633 C4.85757296,3.75741917 4.92175648,3.00559427 5.30671616,2.5559263 C5.69435411,2.1034471 6.51216144,1.96898396 7.05777181,2.24527774 C7.37194983,2.40420764 7.62235919,2.6839669 7.84086261,3.05761668 C7.91175358,3.17884312 7.97624888,3.30488456 8.0408589,3.44413872 C8.07817188,3.5245595 8.18069847,3.75778381 8.16678169,3.72670651 C8.40871227,4.26725433 8.56826316,4.88671546 8.71084388,5.78198982 C8.73669027,5.94447536 8.76683646,6.12248374 8.80257795,6.32471587 C8.96033303,6.14969338 9.1569747,6.01359311 9.37166736,5.94943959 C9.73160401,5.84246541 10.1256595,5.81537607 10.469623,5.88650166 C10.8755393,5.96950053 11.3018135,6.25070145 11.4848686,6.5647246 C11.5133767,6.61386559 11.5401514,6.66592605 11.5653132,6.72082016 C11.7729326,6.44599757 12.1595901,6.20363236 12.4501872,6.15163148 C12.8165041,6.08684075 13.2154051,6.07961537 13.5519065,6.14495667 C13.8790768,6.20933957 14.3070559,6.53982044 14.4732516,6.79916785 C14.5741046,6.95831194 14.6563582,7.19025162 14.7241056,7.47141669 Z" id="Outline" fill="#000000" mask="url(#mask-4)"></path>
                        <path d="M5.3315,14.3799 C5.0475,14.0209 4.7025,13.2869 4.0885,12.3959 C3.7405,11.8919 2.8775,10.9429 2.6205,10.4609 C2.3975,10.0349 2.4215,9.8439 2.4745,9.4909 C2.5685,8.8629 3.2125,8.3739 3.8995,8.4399 C4.4185,8.4889 4.8585,8.8319 5.2545,9.1559 C5.4935,9.3509 5.7875,9.7299 5.9645,9.9439 C6.1275,10.1399 6.1675,10.2209 6.3415,10.4529 C6.5715,10.7599 6.6435,10.9119 6.5555,10.5739 C6.4845,10.0779 6.3685,9.2309 6.2005,8.4819 C6.0725,7.9139 6.0415,7.8249 5.9195,7.3889 C5.7905,6.9249 5.7245,6.5999 5.6035,6.1079 C5.5195,5.7599 5.3685,5.0489 5.3275,4.6489 C5.2705,4.1019 5.2405,3.2099 5.5915,2.7999 C5.8665,2.4789 6.4975,2.3819 6.8885,2.5799 C7.4005,2.8389 7.6915,3.5829 7.8245,3.8799 C8.0635,4.4139 8.2115,5.0309 8.3405,5.8409 C8.5045,6.8719 8.8065,8.3029 8.8165,8.6039 C8.8265,8.9049 8.7485,7.4579 8.8125,7.1039 C8.8705,6.7829 9.1405,6.4099 9.4785,6.3089 C9.7645,6.2239 10.0995,6.1929 10.3945,6.2539 C10.7075,6.3179 11.0375,6.5419 11.1605,6.7529 C11.5225,7.3769 11.5295,8.6519 11.5445,8.5839 C11.6305,8.2079 11.6155,7.3549 11.8285,6.9999 C11.9685,6.7659 12.3255,6.5549 12.5155,6.5209 C12.8095,6.4689 13.1705,6.4529 13.4795,6.5129 C13.7285,6.5619 14.0655,6.8579 14.1565,6.9999 C14.3745,7.3439 14.4985,8.3169 14.5355,8.6579 C14.5505,8.7989 14.6095,8.2659 14.8285,7.9219 C15.2345,7.2829 16.6715,7.1589 16.7265,8.5609 C16.7515,9.2149 16.7465,9.1849 16.7465,9.6249 C16.7465,10.1419 16.7345,10.4529 16.7065,10.8269 C16.6755,11.2269 16.5895,12.1309 16.4645,12.5689 C16.3785,12.8699 16.0935,13.5469 15.8125,13.9529 C15.8125,13.9529 14.7385,15.2029 14.6215,15.7659 C14.5035,16.3279 14.5425,16.3319 14.5195,16.7309 C14.4965,17.1289 14.6405,17.6529 14.6405,17.6529 C14.6405,17.6529 13.8385,17.7569 13.4065,17.6879 C13.0155,17.6249 12.5315,16.8469 12.4065,16.6089 C12.2345,16.2809 11.8675,16.3439 11.7245,16.5859 C11.4995,16.9689 11.0155,17.6559 10.6735,17.6989 C10.0055,17.7829 8.6195,17.7299 7.5345,17.7189 C7.5345,17.7189 7.7195,16.7079 7.3075,16.3609 C7.0025,16.1019 6.4775,15.5769 6.1635,15.3009 L5.3315,14.3799 Z" id="Fill" stroke="#000000" stroke-width="0.75" fill="#FFFFFF" mask="url(#mask-4)"></path>
                        <line x1="13.5664" y1="14.75" x2="13.5664" y2="11.25" id="Right-Line" stroke="#000000" stroke-width="0.75" stroke-linecap="round" mask="url(#mask-4)"></line>
                        <line x1="11.5508" y1="14.7461" x2="11.5346758" y2="11.2461371" id="Center-Line" stroke="#000000" stroke-width="0.75" stroke-linecap="round" mask="url(#mask-4)"></line>
                        <line x1="9.5547" y1="14.75" x2="9.57615278" y2="11.2500657" id="Left-Line" stroke="#000000" stroke-width="0.75" stroke-linecap="round" mask="url(#mask-4)"></line>
                    </g>
                </g>
                <g transform="translate(19.000000, 0.000000)">
                    <rect id="Center-button-background" fill="#F4F4F4" x="32" y="0" width="32" height="32"></rect>
                    <rect id="Left-button-background" fill="#F4F4F4" x="0" y="0" width="32" height="32"></rect>
                    <g transform="translate(64.000000, 0.000000)">
                        <rect id="Background" fill="#F4F4F4" x="0" y="0" width="32" height="32"></rect>
                        <g transform="translate(8.000000, 8.000000)" fill="#161616" id="icon-/-navigation-/-overflow-menu-/-16">
                            <path d="M8,4 C8.55228475,4 9,3.55228475 9,3 C9,2.44771525 8.55228475,2 8,2 C7.44771525,2 7,2.44771525 7,3 C7,3.55228475 7.44771525,4 8,4 Z M8,9 C8.55228475,9 9,8.55228475 9,8 C9,7.44771525 8.55228475,7 8,7 C7.44771525,7 7,7.44771525 7,8 C7,8.55228475 7.44771525,9 8,9 Z M8,14 C8.55228475,14 9,13.5522847 9,13 C9,12.4477153 8.55228475,12 8,12 C7.44771525,12 7,12.4477153 7,13 C7,13.5522847 7.44771525,14 8,14 Z" id="Fill"></path>
                        </g>
                    </g>
                    <g transform="translate(32.000000, 0.000000)" id="center-button">
                        <rect id="Background" x="0" y="0" width="32" height="32"></rect>
                        <g id="Icon" transform="translate(8.000000, 8.000000)" fill="#000000">
                            <path d="M6,6 L7,6 L7,12 L6,12 L6,6 Z M9,6 L10,6 L10,12 L9,12 L9,6 Z M2,3 L2,4 L3,4 L3,14 C3,14.5522847 3.44771525,15 4,15 L12,15 C12.5522847,15 13,14.5522847 13,14 L13,4 L14,4 L14,3 L2,3 Z M4,14 L4,4 L12,4 L12,14 L4,14 Z M6,1 L10,1 L10,2 L6,2 L6,1 Z" id="Fill"></path>
                        </g>
                    </g>
                    <g id="left-button">
                        <rect id="Background" x="0" y="0" width="32" height="32"></rect>
                        <g id="Icon" transform="translate(8.000000, 8.000000)" fill="#000000">
                            <path d="M13,9 C12.0905218,9.00261778 11.2975985,9.61919895 11.071,10.5 L9,10.5 C8.17194984,10.4990906 7.50090936,9.82805016 7.5,9 L7.5,7 C7.49809301,6.45730971 7.31791923,5.93028034 6.9872,5.5 L11.071,5.5 C11.3227835,6.47515336 12.2603934,7.11096261 13.2595003,6.98405939 C14.2586072,6.85715618 15.0074917,6.00713406 15.0074917,5 C15.0074917,3.99286594 14.2586072,3.14284382 13.2595003,3.01594061 C12.2603934,2.88903739 11.3227835,3.52484664 11.071,4.5 L4.929,4.5 C4.67721648,3.52484664 3.73960664,2.88903739 2.74049974,3.01594061 C1.74139284,3.14284382 0.992508327,3.99286594 0.992508327,5 C0.992508327,6.00713406 1.74139284,6.85715618 2.74049974,6.98405939 C3.73960664,7.11096261 4.67721648,6.47515336 4.929,5.5 L5,5.5 C5.82805016,5.50090936 6.49909064,6.17194984 6.5,7 L6.5,9 C6.50162557,10.380038 7.61996202,11.4983744 9,11.5 L11.071,11.5 C11.3324969,12.5040444 12.3193918,13.140524 13.3419026,12.9645767 C14.3644133,12.7886294 15.0818025,11.8588871 14.9926567,10.8251856 C14.9035109,9.79148415 14.0375369,8.99829012 13,9 Z M13,4 C13.5522847,4 14,4.44771525 14,5 C14,5.55228475 13.5522847,6 13,6 C12.4477153,6 12,5.55228475 12,5 C12.0006337,4.44797796 12.447978,4.00063373 13,4 L13,4 Z M3,6 C2.44771525,6 2,5.55228475 2,5 C2,4.44771525 2.44771525,4 3,4 C3.55228475,4 4,4.44771525 4,5 C3.99944877,5.55205626 3.55205626,5.99944877 3,6 L3,6 Z M13,12 C12.4477153,12 12,11.5522847 12,11 C12,10.4477153 12.4477153,10 13,10 C13.5522847,10 14,10.4477153 14,11 C13.9992563,11.5519764 13.5519764,11.9992563 13,12 Z" id="Fill"></path>
                        </g>
                    </g>
                </g>
            </g>
            <g id="Group-12" transform="translate(315.000000, 0.000000)">
                <g id="node-/-white-theme-/-shape-node-/-low-contrast-/-01-enabled-copy-2" transform="translate(0.000000, 36.000000)">
                    <g id="shape" transform="translate(42.722103, 0.000000)" fill="#E5E5E5">
                        <rect id="style" x="0" y="0" width="48" height="48" rx="24"></rect>
                    </g>
                    <g id="icon" transform="translate(56.722103, 14.000000)" fill="#161616">
                        <path d="M10,6.25 C7.92893219,6.25 6.25,7.92893219 6.25,10 L6.25,15 C6.25,17.0710678 7.92893219,18.75 10,18.75 C12.0710678,18.75 13.75,17.0710678 13.75,15 L13.75,10 C13.75,7.92893219 12.0710678,6.25 10,6.25 Z M7.34375,11.16875 L12.65625,11.16875 L12.65625,13.825 L7.34375,13.825 L7.34375,11.16875 Z M10,17.65625 C8.53583704,17.649408 7.35059199,16.464163 7.34375,15 L7.34375,14.91875 L12.65625,14.91875 L12.65625,15 C12.649408,16.464163 11.464163,17.649408 10,17.65625 L10,17.65625 Z M12.65625,10.075 L7.34375,10.075 L7.34375,10 C7.34375,8.53299363 8.53299363,7.34375 10,7.34375 C11.4670064,7.34375 12.65625,8.53299363 12.65625,10 L12.65625,10.075 Z M19.1625,12.00625 L15,8.125 L15,13.8125 C15,15.1932119 16.1192881,16.3125 17.5,16.3125 C18.8807119,16.3125 20,15.1932119 20,13.8125 C19.99634,13.1173734 19.6906884,12.4581697 19.1625,12.00625 L19.1625,12.00625 Z M17.5,15.21875 C16.7233496,15.21875 16.09375,14.5891504 16.09375,13.8125 L16.09375,10.625 L18.41875,12.79375 L18.41875,12.79375 C18.7016767,13.0317436 18.8680062,13.3803521 18.875,13.75 C18.8919155,14.1283018 18.7555452,14.4974378 18.4967463,14.7738822 C18.2379473,15.0503265 17.8785945,15.2107129 17.5,15.21875 L17.5,15.21875 Z M0,13.8125 C0,15.1932119 1.11928813,16.3125 2.5,16.3125 C3.88071187,16.3125 5,15.1932119 5,13.8125 L5,8.125 L0.8375,12.00625 C0.312648649,12.4606915 0.00774088769,13.118291 0,13.8125 L0,13.8125 Z M1.55,12.8375 L1.55,12.8375 L3.90625,10.625 L3.90625,13.8125 C3.90625,14.5891504 3.27665043,15.21875 2.5,15.21875 C1.72334957,15.21875 1.09375,14.5891504 1.09375,13.8125 C1.09530728,13.4362762 1.26214314,13.0797503 1.55,12.8375 L1.55,12.8375 Z M9.375,3.4375 C9.375,2.22937711 8.39562289,1.25 7.1875,1.25 C5.97937711,1.25 5,2.22937711 5,3.4375 C5,4.64562289 5.97937711,5.625 7.1875,5.625 C8.39562289,5.625 9.375,4.64562289 9.375,3.4375 Z M6.09375,3.4375 C6.09375,2.83343855 6.58343855,2.34375 7.1875,2.34375 C7.79156145,2.34375 8.28125,2.83343855 8.28125,3.4375 C8.28125,4.04156145 7.79156145,4.53125 7.1875,4.53125 C6.58625928,4.52449385 6.10050615,4.03874072 6.09375,3.4375 Z M12.8125,1.25 C11.6043771,1.25 10.625,2.22937711 10.625,3.4375 C10.625,4.64562289 11.6043771,5.625 12.8125,5.625 C14.0206229,5.625 15,4.64562289 15,3.4375 C15,2.22937711 14.0206229,1.25 12.8125,1.25 Z M12.8125,4.53125 C12.2084386,4.53125 11.71875,4.04156145 11.71875,3.4375 C11.71875,2.83343855 12.2084386,2.34375 12.8125,2.34375 C13.4165614,2.34375 13.90625,2.83343855 13.90625,3.4375 C13.8994938,4.03874072 13.4137407,4.52449385 12.8125,4.53125 L12.8125,4.53125 Z" id="Fill"></path>
                    </g>
                    <g id="group" transform="translate(0.222103, 52.000000)" fill="#161616" font-size="14" letter-spacing="0.159999996" line-spacing="18">
                        <text id="Secondary-text" font-family="IBMPlexSans, IBM Plex Sans" font-weight="normal">
                            <tspan x="47.487" y="32">Hover</tspan>
                        </text>
                        <text id="Primary-text" font-family="IBMPlexSans-SemiBold, IBM Plex Sans" font-weight="500">
                            <tspan x="27.473" y="14">Shape node</tspan>
                        </text>
                    </g>
                    <g id="Cursor---Pointer" transform="translate(78.722103, 28.000000)">
                        <mask id="mask-10" fill="white">
                            <use xlink:href="#path-9"></use>
                        </mask>
                        <g id="Mask"></g>
                        <g id="soft-shadow" mask="url(#mask-10)" fill="black" fill-opacity="1">
                            <use filter="url(#filter-12)" xlink:href="#path-11"></use>
                        </g>
                        <g id="Hard-shadow" mask="url(#mask-10)" fill="black" fill-opacity="1">
                            <use filter="url(#filter-14)" xlink:href="#path-13"></use>
                        </g>
                        <path d="M14.7241056,7.47141669 C15.0443785,7.18221416 15.5213697,7.03670189 15.9663552,7.10541779 C16.623426,7.2068845 17.0693072,7.73292411 17.1012263,8.5465756 C17.1160667,8.93479975 17.1205439,9.08702079 17.1216145,9.2406012 C17.1219137,9.29681339 17.1219137,9.34230064 17.1217032,9.46255315 C17.1215507,9.53598184 17.1215507,9.53598184 17.1215,9.6249 C17.1215,10.1318217 17.1103932,10.4549875 17.0803789,10.8558756 C17.025612,11.5625448 16.9364875,12.2815187 16.8250715,12.6719204 C16.7090161,13.0781143 16.3931518,13.7728809 16.0969319,14.1972839 C16.0616068,14.2383979 15.9981808,14.3141219 15.9161351,14.4153602 C15.7791712,14.5843634 15.6422568,14.7609784 15.5150498,14.9357645 C15.4479652,15.0279408 15.3853573,15.1172241 15.3280839,15.2027233 C15.135788,15.4897873 15.0136878,15.7217462 14.9884977,15.8429565 C14.9298607,16.1222273 14.9117412,16.2502987 14.9064514,16.3851797 C14.9050538,16.4263944 14.9050538,16.4263944 14.9040081,16.4734885 C14.9012704,16.599997 14.8995119,16.6547538 14.8938754,16.7525348 C14.8906335,16.8086343 14.891639,16.8735285 14.8967392,16.945205 C14.9047839,17.0582597 14.9224844,17.1823622 14.9469771,17.3094239 C14.9681042,17.4190259 14.9890559,17.5060837 15.0020947,17.5535305 L15.1163608,17.9693322 L14.6887247,18.0247863 C14.6275805,18.0327152 14.5252168,18.0442534 14.3967426,18.0557325 C14.2263728,18.0709549 14.0575496,18.0814699 13.8980238,18.0851396 C13.6840578,18.0900615 13.4994466,18.0824989 13.3468474,18.058125 C12.8664848,17.9807264 12.3907775,17.3854512 12.0743925,16.7830539 C11.6431081,17.4647811 11.1749086,18.0138098 10.7202872,18.0709698 C10.2949704,18.1244528 9.70235518,18.1299326 8.54206362,18.1099728 C8.4349103,18.1081094 8.4349103,18.1081094 8.32811166,18.106208 C7.90126416,18.0986007 7.73999547,18.0960026 7.53069835,18.0938807 L7.08548269,18.089367 L7.16562491,17.6514006 C7.16935442,17.6310193 7.17586345,17.5882387 7.18261233,17.528931 C7.20212706,17.3574397 7.20772941,17.1794621 7.19163153,17.0199056 C7.17206735,16.8259923 7.12268682,16.6955281 7.06476789,16.6467428 C6.92588556,16.5288067 6.77400729,16.3878509 6.46754447,16.0967558 C6.13929445,15.7849397 6.03552367,15.6876836 5.8852309,15.5522788 L5.0532309,14.6312788 C4.89386376,14.431117 4.10426845,13.079656 3.77991366,12.6089715 C3.65991997,12.4351876 3.60494436,12.3661011 3.10029899,11.7442336 C3.07515424,11.7132375 3.07515424,11.7132375 3.04999471,11.6821695 C2.63887453,11.1742372 2.41852962,10.8791432 2.28826739,10.6348152 C2.05155517,10.1826206 2.02680459,9.94708422 2.10363156,9.43538784 C2.22854985,8.60082735 3.05933221,7.98245865 3.93474788,8.06656023 C4.46843682,8.11694704 4.85716923,8.34628834 5.49156673,8.86534129 C5.57863854,8.93638314 5.67035426,9.02545325 5.77012363,9.13315539 C5.82379967,9.19109928 5.87935703,9.25396661 5.93843022,9.32319183 C5.9531917,9.34049015 5.97355864,9.36477937 5.99692576,9.39285223 C5.97800375,9.28396793 5.95805218,9.1750102 5.9346717,9.05132985 C5.9020994,8.87902568 5.86879967,8.71648437 5.83467395,8.56433967 C5.77231524,8.28762291 5.73240297,8.12180912 5.69157441,7.96802977 C5.68436831,7.94099225 5.68436831,7.94099225 5.67709145,7.91407638 C5.65521771,7.83343277 5.55252156,7.46904416 5.5582031,7.48934677 C5.50405585,7.29458454 5.45870214,7.11710283 5.40697978,6.90138387 C5.39538218,6.85288766 5.39538218,6.85288766 5.38388495,6.80440351 C5.31702896,6.51937923 5.28057519,6.3650796 5.23896917,6.1958902 C5.12130583,5.70842777 4.99154332,5.04897896 4.95451956,4.68776633 C4.85757296,3.75741917 4.92175648,3.00559427 5.30671616,2.5559263 C5.69435411,2.1034471 6.51216144,1.96898396 7.05777181,2.24527774 C7.37194983,2.40420764 7.62235919,2.6839669 7.84086261,3.05761668 C7.91175358,3.17884312 7.97624888,3.30488456 8.0408589,3.44413872 C8.07817188,3.5245595 8.18069847,3.75778381 8.16678169,3.72670651 C8.40871227,4.26725433 8.56826316,4.88671546 8.71084388,5.78198982 C8.73669027,5.94447536 8.76683646,6.12248374 8.80257795,6.32471587 C8.96033303,6.14969338 9.1569747,6.01359311 9.37166736,5.94943959 C9.73160401,5.84246541 10.1256595,5.81537607 10.469623,5.88650166 C10.8755393,5.96950053 11.3018135,6.25070145 11.4848686,6.5647246 C11.5133767,6.61386559 11.5401514,6.66592605 11.5653132,6.72082016 C11.7729326,6.44599757 12.1595901,6.20363236 12.4501872,6.15163148 C12.8165041,6.08684075 13.2154051,6.07961537 13.5519065,6.14495667 C13.8790768,6.20933957 14.3070559,6.53982044 14.4732516,6.79916785 C14.5741046,6.95831194 14.6563582,7.19025162 14.7241056,7.47141669 Z" id="Outline" fill="#000000" mask="url(#mask-10)"></path>
                        <path d="M5.3315,14.3799 C5.0475,14.0209 4.7025,13.2869 4.0885,12.3959 C3.7405,11.8919 2.8775,10.9429 2.6205,10.4609 C2.3975,10.0349 2.4215,9.8439 2.4745,9.4909 C2.5685,8.8629 3.2125,8.3739 3.8995,8.4399 C4.4185,8.4889 4.8585,8.8319 5.2545,9.1559 C5.4935,9.3509 5.7875,9.7299 5.9645,9.9439 C6.1275,10.1399 6.1675,10.2209 6.3415,10.4529 C6.5715,10.7599 6.6435,10.9119 6.5555,10.5739 C6.4845,10.0779 6.3685,9.2309 6.2005,8.4819 C6.0725,7.9139 6.0415,7.8249 5.9195,7.3889 C5.7905,6.9249 5.7245,6.5999 5.6035,6.1079 C5.5195,5.7599 5.3685,5.0489 5.3275,4.6489 C5.2705,4.1019 5.2405,3.2099 5.5915,2.7999 C5.8665,2.4789 6.4975,2.3819 6.8885,2.5799 C7.4005,2.8389 7.6915,3.5829 7.8245,3.8799 C8.0635,4.4139 8.2115,5.0309 8.3405,5.8409 C8.5045,6.8719 8.8065,8.3029 8.8165,8.6039 C8.8265,8.9049 8.7485,7.4579 8.8125,7.1039 C8.8705,6.7829 9.1405,6.4099 9.4785,6.3089 C9.7645,6.2239 10.0995,6.1929 10.3945,6.2539 C10.7075,6.3179 11.0375,6.5419 11.1605,6.7529 C11.5225,7.3769 11.5295,8.6519 11.5445,8.5839 C11.6305,8.2079 11.6155,7.3549 11.8285,6.9999 C11.9685,6.7659 12.3255,6.5549 12.5155,6.5209 C12.8095,6.4689 13.1705,6.4529 13.4795,6.5129 C13.7285,6.5619 14.0655,6.8579 14.1565,6.9999 C14.3745,7.3439 14.4985,8.3169 14.5355,8.6579 C14.5505,8.7989 14.6095,8.2659 14.8285,7.9219 C15.2345,7.2829 16.6715,7.1589 16.7265,8.5609 C16.7515,9.2149 16.7465,9.1849 16.7465,9.6249 C16.7465,10.1419 16.7345,10.4529 16.7065,10.8269 C16.6755,11.2269 16.5895,12.1309 16.4645,12.5689 C16.3785,12.8699 16.0935,13.5469 15.8125,13.9529 C15.8125,13.9529 14.7385,15.2029 14.6215,15.7659 C14.5035,16.3279 14.5425,16.3319 14.5195,16.7309 C14.4965,17.1289 14.6405,17.6529 14.6405,17.6529 C14.6405,17.6529 13.8385,17.7569 13.4065,17.6879 C13.0155,17.6249 12.5315,16.8469 12.4065,16.6089 C12.2345,16.2809 11.8675,16.3439 11.7245,16.5859 C11.4995,16.9689 11.0155,17.6559 10.6735,17.6989 C10.0055,17.7829 8.6195,17.7299 7.5345,17.7189 C7.5345,17.7189 7.7195,16.7079 7.3075,16.3609 C7.0025,16.1019 6.4775,15.5769 6.1635,15.3009 L5.3315,14.3799 Z" id="Fill" stroke="#000000" stroke-width="0.75" fill="#FFFFFF" mask="url(#mask-10)"></path>
                        <line x1="13.5664" y1="14.75" x2="13.5664" y2="11.25" id="Right-Line" stroke="#000000" stroke-width="0.75" stroke-linecap="round" mask="url(#mask-10)"></line>
                        <line x1="11.5508" y1="14.7461" x2="11.5346758" y2="11.2461371" id="Center-Line" stroke="#000000" stroke-width="0.75" stroke-linecap="round" mask="url(#mask-10)"></line>
                        <line x1="9.5547" y1="14.75" x2="9.57615278" y2="11.2500657" id="Left-Line" stroke="#000000" stroke-width="0.75" stroke-linecap="round" mask="url(#mask-10)"></line>
                    </g>
                </g>
                <g id="Group" transform="translate(18.490521, 0.000000)">
                    <rect id="Center-button-background" fill="#F4F4F4" x="32" y="0" width="32" height="32"></rect>
                    <rect id="Left-button-background" fill="#F4F4F4" x="0" y="0" width="32" height="32"></rect>
                    <g transform="translate(64.000000, 0.000000)">
                        <rect id="Background" fill="#F4F4F4" x="0" y="0" width="32" height="32"></rect>
                        <g transform="translate(8.000000, 8.000000)" fill="#161616" id="icon-/-navigation-/-overflow-menu-/-16">
                            <path d="M8,4 C8.55228475,4 9,3.55228475 9,3 C9,2.44771525 8.55228475,2 8,2 C7.44771525,2 7,2.44771525 7,3 C7,3.55228475 7.44771525,4 8,4 Z M8,9 C8.55228475,9 9,8.55228475 9,8 C9,7.44771525 8.55228475,7 8,7 C7.44771525,7 7,7.44771525 7,8 C7,8.55228475 7.44771525,9 8,9 Z M8,14 C8.55228475,14 9,13.5522847 9,13 C9,12.4477153 8.55228475,12 8,12 C7.44771525,12 7,12.4477153 7,13 C7,13.5522847 7.44771525,14 8,14 Z" id="Fill"></path>
                        </g>
                    </g>
                    <g transform="translate(32.000000, 0.000000)" id="center-button">
                        <rect id="Background" x="0" y="0" width="32" height="32"></rect>
                        <g id="Icon" transform="translate(8.000000, 8.000000)" fill="#000000">
                            <path d="M6,6 L7,6 L7,12 L6,12 L6,6 Z M9,6 L10,6 L10,12 L9,12 L9,6 Z M2,3 L2,4 L3,4 L3,14 C3,14.5522847 3.44771525,15 4,15 L12,15 C12.5522847,15 13,14.5522847 13,14 L13,4 L14,4 L14,3 L2,3 Z M4,14 L4,4 L12,4 L12,14 L4,14 Z M6,1 L10,1 L10,2 L6,2 L6,1 Z" id="Fill"></path>
                        </g>
                    </g>
                    <g id="left-button">
                        <rect id="Background" x="0" y="0" width="32" height="32"></rect>
                        <g id="Icon" transform="translate(8.000000, 8.000000)" fill="#000000">
                            <path d="M13,9 C12.0905218,9.00261778 11.2975985,9.61919895 11.071,10.5 L9,10.5 C8.17194984,10.4990906 7.50090936,9.82805016 7.5,9 L7.5,7 C7.49809301,6.45730971 7.31791923,5.93028034 6.9872,5.5 L11.071,5.5 C11.3227835,6.47515336 12.2603934,7.11096261 13.2595003,6.98405939 C14.2586072,6.85715618 15.0074917,6.00713406 15.0074917,5 C15.0074917,3.99286594 14.2586072,3.14284382 13.2595003,3.01594061 C12.2603934,2.88903739 11.3227835,3.52484664 11.071,4.5 L4.929,4.5 C4.67721648,3.52484664 3.73960664,2.88903739 2.74049974,3.01594061 C1.74139284,3.14284382 0.992508327,3.99286594 0.992508327,5 C0.992508327,6.00713406 1.74139284,6.85715618 2.74049974,6.98405939 C3.73960664,7.11096261 4.67721648,6.47515336 4.929,5.5 L5,5.5 C5.82805016,5.50090936 6.49909064,6.17194984 6.5,7 L6.5,9 C6.50162557,10.380038 7.61996202,11.4983744 9,11.5 L11.071,11.5 C11.3324969,12.5040444 12.3193918,13.140524 13.3419026,12.9645767 C14.3644133,12.7886294 15.0818025,11.8588871 14.9926567,10.8251856 C14.9035109,9.79148415 14.0375369,8.99829012 13,9 Z M13,4 C13.5522847,4 14,4.44771525 14,5 C14,5.55228475 13.5522847,6 13,6 C12.4477153,6 12,5.55228475 12,5 C12.0006337,4.44797796 12.447978,4.00063373 13,4 L13,4 Z M3,6 C2.44771525,6 2,5.55228475 2,5 C2,4.44771525 2.44771525,4 3,4 C3.55228475,4 4,4.44771525 4,5 C3.99944877,5.55205626 3.55205626,5.99944877 3,6 L3,6 Z M13,12 C12.4477153,12 12,11.5522847 12,11 C12,10.4477153 12.4477153,10 13,10 C13.5522847,10 14,10.4477153 14,11 C13.9992563,11.5519764 13.5519764,11.9992563 13,12 Z" id="Fill"></path>
                        </g>
                    </g>
                </g>
            </g>
            <g id="Group-12-Copy-2" transform="translate(315.000000, 177.000000)">
                <g id="node-/-white-theme-/-shape-node-/-low-contrast-/-01-enabled-copy-2" transform="translate(0.000000, 35.000000)">
                    <g id="style" transform="translate(42.722103, 0.000000)" fill="#F4F4F4">
                        <rect x="0" y="0" width="48" height="48" rx="24"></rect>
                    </g>
                    <g id="Group" transform="translate(42.722103, 0.000000)" stroke="#0F62FE" stroke-width="2">
                        <g id="shape">
                            <rect id="style" x="1" y="1" width="46" height="46" rx="23"></rect>
                        </g>
                    </g>
                    <g id="icon" transform="translate(56.722103, 14.000000)" fill="#161616">
                        <path d="M10,6.25 C7.92893219,6.25 6.25,7.92893219 6.25,10 L6.25,15 C6.25,17.0710678 7.92893219,18.75 10,18.75 C12.0710678,18.75 13.75,17.0710678 13.75,15 L13.75,10 C13.75,7.92893219 12.0710678,6.25 10,6.25 Z M7.34375,11.16875 L12.65625,11.16875 L12.65625,13.825 L7.34375,13.825 L7.34375,11.16875 Z M10,17.65625 C8.53583704,17.649408 7.35059199,16.464163 7.34375,15 L7.34375,14.91875 L12.65625,14.91875 L12.65625,15 C12.649408,16.464163 11.464163,17.649408 10,17.65625 L10,17.65625 Z M12.65625,10.075 L7.34375,10.075 L7.34375,10 C7.34375,8.53299363 8.53299363,7.34375 10,7.34375 C11.4670064,7.34375 12.65625,8.53299363 12.65625,10 L12.65625,10.075 Z M19.1625,12.00625 L15,8.125 L15,13.8125 C15,15.1932119 16.1192881,16.3125 17.5,16.3125 C18.8807119,16.3125 20,15.1932119 20,13.8125 C19.99634,13.1173734 19.6906884,12.4581697 19.1625,12.00625 L19.1625,12.00625 Z M17.5,15.21875 C16.7233496,15.21875 16.09375,14.5891504 16.09375,13.8125 L16.09375,10.625 L18.41875,12.79375 L18.41875,12.79375 C18.7016767,13.0317436 18.8680062,13.3803521 18.875,13.75 C18.8919155,14.1283018 18.7555452,14.4974378 18.4967463,14.7738822 C18.2379473,15.0503265 17.8785945,15.2107129 17.5,15.21875 L17.5,15.21875 Z M0,13.8125 C0,15.1932119 1.11928813,16.3125 2.5,16.3125 C3.88071187,16.3125 5,15.1932119 5,13.8125 L5,8.125 L0.8375,12.00625 C0.312648649,12.4606915 0.00774088769,13.118291 0,13.8125 L0,13.8125 Z M1.55,12.8375 L1.55,12.8375 L3.90625,10.625 L3.90625,13.8125 C3.90625,14.5891504 3.27665043,15.21875 2.5,15.21875 C1.72334957,15.21875 1.09375,14.5891504 1.09375,13.8125 C1.09530728,13.4362762 1.26214314,13.0797503 1.55,12.8375 L1.55,12.8375 Z M9.375,3.4375 C9.375,2.22937711 8.39562289,1.25 7.1875,1.25 C5.97937711,1.25 5,2.22937711 5,3.4375 C5,4.64562289 5.97937711,5.625 7.1875,5.625 C8.39562289,5.625 9.375,4.64562289 9.375,3.4375 Z M6.09375,3.4375 C6.09375,2.83343855 6.58343855,2.34375 7.1875,2.34375 C7.79156145,2.34375 8.28125,2.83343855 8.28125,3.4375 C8.28125,4.04156145 7.79156145,4.53125 7.1875,4.53125 C6.58625928,4.52449385 6.10050615,4.03874072 6.09375,3.4375 Z M12.8125,1.25 C11.6043771,1.25 10.625,2.22937711 10.625,3.4375 C10.625,4.64562289 11.6043771,5.625 12.8125,5.625 C14.0206229,5.625 15,4.64562289 15,3.4375 C15,2.22937711 14.0206229,1.25 12.8125,1.25 Z M12.8125,4.53125 C12.2084386,4.53125 11.71875,4.04156145 11.71875,3.4375 C11.71875,2.83343855 12.2084386,2.34375 12.8125,2.34375 C13.4165614,2.34375 13.90625,2.83343855 13.90625,3.4375 C13.8994938,4.03874072 13.4137407,4.52449385 12.8125,4.53125 L12.8125,4.53125 Z" id="Fill"></path>
                    </g>
                    <g id="group" transform="translate(0.222103, 52.000000)" fill="#161616" font-size="14" letter-spacing="0.159999996" line-spacing="18">
                        <text id="Secondary-text" font-family="IBMPlexSans, IBM Plex Sans" font-weight="normal">
                            <tspan x="47.536" y="32">Focus</tspan>
                        </text>
                        <text id="Primary-text" font-family="IBMPlexSans-SemiBold, IBM Plex Sans" font-weight="500">
                            <tspan x="27.473" y="14">Shape node</tspan>
                        </text>
                    </g>
                </g>
                <g id="Group" transform="translate(18.490521, 0.000000)">
                    <rect id="Center-button-background" fill="#F4F4F4" x="32" y="0" width="32" height="32"></rect>
                    <rect id="Left-button-background" fill="#F4F4F4" x="0" y="0" width="32" height="32"></rect>
                    <g transform="translate(64.000000, 0.000000)">
                        <rect id="Background" fill="#F4F4F4" x="0" y="0" width="32" height="32"></rect>
                        <g transform="translate(8.000000, 8.000000)" fill="#161616" id="icon-/-navigation-/-overflow-menu-/-16">
                            <path d="M8,4 C8.55228475,4 9,3.55228475 9,3 C9,2.44771525 8.55228475,2 8,2 C7.44771525,2 7,2.44771525 7,3 C7,3.55228475 7.44771525,4 8,4 Z M8,9 C8.55228475,9 9,8.55228475 9,8 C9,7.44771525 8.55228475,7 8,7 C7.44771525,7 7,7.44771525 7,8 C7,8.55228475 7.44771525,9 8,9 Z M8,14 C8.55228475,14 9,13.5522847 9,13 C9,12.4477153 8.55228475,12 8,12 C7.44771525,12 7,12.4477153 7,13 C7,13.5522847 7.44771525,14 8,14 Z" id="Fill"></path>
                        </g>
                    </g>
                    <g transform="translate(32.000000, 0.000000)" id="center-button">
                        <rect id="Background" x="0" y="0" width="32" height="32"></rect>
                        <g id="Icon" transform="translate(8.000000, 8.000000)" fill="#000000">
                            <path d="M6,6 L7,6 L7,12 L6,12 L6,6 Z M9,6 L10,6 L10,12 L9,12 L9,6 Z M2,3 L2,4 L3,4 L3,14 C3,14.5522847 3.44771525,15 4,15 L12,15 C12.5522847,15 13,14.5522847 13,14 L13,4 L14,4 L14,3 L2,3 Z M4,14 L4,4 L12,4 L12,14 L4,14 Z M6,1 L10,1 L10,2 L6,2 L6,1 Z" id="Fill"></path>
                        </g>
                    </g>
                    <g id="left-button">
                        <rect id="Background" x="0" y="0" width="32" height="32"></rect>
                        <g id="Icon" transform="translate(8.000000, 8.000000)" fill="#000000">
                            <path d="M13,9 C12.0905218,9.00261778 11.2975985,9.61919895 11.071,10.5 L9,10.5 C8.17194984,10.4990906 7.50090936,9.82805016 7.5,9 L7.5,7 C7.49809301,6.45730971 7.31791923,5.93028034 6.9872,5.5 L11.071,5.5 C11.3227835,6.47515336 12.2603934,7.11096261 13.2595003,6.98405939 C14.2586072,6.85715618 15.0074917,6.00713406 15.0074917,5 C15.0074917,3.99286594 14.2586072,3.14284382 13.2595003,3.01594061 C12.2603934,2.88903739 11.3227835,3.52484664 11.071,4.5 L4.929,4.5 C4.67721648,3.52484664 3.73960664,2.88903739 2.74049974,3.01594061 C1.74139284,3.14284382 0.992508327,3.99286594 0.992508327,5 C0.992508327,6.00713406 1.74139284,6.85715618 2.74049974,6.98405939 C3.73960664,7.11096261 4.67721648,6.47515336 4.929,5.5 L5,5.5 C5.82805016,5.50090936 6.49909064,6.17194984 6.5,7 L6.5,9 C6.50162557,10.380038 7.61996202,11.4983744 9,11.5 L11.071,11.5 C11.3324969,12.5040444 12.3193918,13.140524 13.3419026,12.9645767 C14.3644133,12.7886294 15.0818025,11.8588871 14.9926567,10.8251856 C14.9035109,9.79148415 14.0375369,8.99829012 13,9 Z M13,4 C13.5522847,4 14,4.44771525 14,5 C14,5.55228475 13.5522847,6 13,6 C12.4477153,6 12,5.55228475 12,5 C12.0006337,4.44797796 12.447978,4.00063373 13,4 L13,4 Z M3,6 C2.44771525,6 2,5.55228475 2,5 C2,4.44771525 2.44771525,4 3,4 C3.55228475,4 4,4.44771525 4,5 C3.99944877,5.55205626 3.55205626,5.99944877 3,6 L3,6 Z M13,12 C12.4477153,12 12,11.5522847 12,11 C12,10.4477153 12.4477153,10 13,10 C13.5522847,10 14,10.4477153 14,11 C13.9992563,11.5519764 13.5519764,11.9992563 13,12 Z" id="Fill"></path>
                        </g>
                    </g>
                </g>
            </g>
            <g id="Group-12-Copy-3" transform="translate(630.000000, 177.000000)">
                <g id="node-/-white-theme-/-shape-node-/-low-contrast-/-01-enabled-copy-2" transform="translate(0.000000, 35.000000)">
                    <g id="style" transform="translate(42.722103, 0.000000)" fill="#F4F4F4">
                        <rect x="0" y="0" width="48" height="48" rx="24"></rect>
                    </g>
                    <g id="Group" transform="translate(42.722103, 0.000000)" stroke="#0F62FE" stroke-width="2">
                        <g id="shape">
                            <rect id="style" x="1" y="1" width="46" height="46" rx="23"></rect>
                        </g>
                    </g>
                    <use id="selected-line" stroke="#000000" mask="url(#mask-16)" stroke-width="2" stroke-dasharray="4,4" xlink:href="#path-15"></use>
                    <g id="icon" transform="translate(56.722103, 14.000000)" fill="#161616">
                        <path d="M10,6.25 C7.92893219,6.25 6.25,7.92893219 6.25,10 L6.25,15 C6.25,17.0710678 7.92893219,18.75 10,18.75 C12.0710678,18.75 13.75,17.0710678 13.75,15 L13.75,10 C13.75,7.92893219 12.0710678,6.25 10,6.25 Z M7.34375,11.16875 L12.65625,11.16875 L12.65625,13.825 L7.34375,13.825 L7.34375,11.16875 Z M10,17.65625 C8.53583704,17.649408 7.35059199,16.464163 7.34375,15 L7.34375,14.91875 L12.65625,14.91875 L12.65625,15 C12.649408,16.464163 11.464163,17.649408 10,17.65625 L10,17.65625 Z M12.65625,10.075 L7.34375,10.075 L7.34375,10 C7.34375,8.53299363 8.53299363,7.34375 10,7.34375 C11.4670064,7.34375 12.65625,8.53299363 12.65625,10 L12.65625,10.075 Z M19.1625,12.00625 L15,8.125 L15,13.8125 C15,15.1932119 16.1192881,16.3125 17.5,16.3125 C18.8807119,16.3125 20,15.1932119 20,13.8125 C19.99634,13.1173734 19.6906884,12.4581697 19.1625,12.00625 L19.1625,12.00625 Z M17.5,15.21875 C16.7233496,15.21875 16.09375,14.5891504 16.09375,13.8125 L16.09375,10.625 L18.41875,12.79375 L18.41875,12.79375 C18.7016767,13.0317436 18.8680062,13.3803521 18.875,13.75 C18.8919155,14.1283018 18.7555452,14.4974378 18.4967463,14.7738822 C18.2379473,15.0503265 17.8785945,15.2107129 17.5,15.21875 L17.5,15.21875 Z M0,13.8125 C0,15.1932119 1.11928813,16.3125 2.5,16.3125 C3.88071187,16.3125 5,15.1932119 5,13.8125 L5,8.125 L0.8375,12.00625 C0.312648649,12.4606915 0.00774088769,13.118291 0,13.8125 L0,13.8125 Z M1.55,12.8375 L1.55,12.8375 L3.90625,10.625 L3.90625,13.8125 C3.90625,14.5891504 3.27665043,15.21875 2.5,15.21875 C1.72334957,15.21875 1.09375,14.5891504 1.09375,13.8125 C1.09530728,13.4362762 1.26214314,13.0797503 1.55,12.8375 L1.55,12.8375 Z M9.375,3.4375 C9.375,2.22937711 8.39562289,1.25 7.1875,1.25 C5.97937711,1.25 5,2.22937711 5,3.4375 C5,4.64562289 5.97937711,5.625 7.1875,5.625 C8.39562289,5.625 9.375,4.64562289 9.375,3.4375 Z M6.09375,3.4375 C6.09375,2.83343855 6.58343855,2.34375 7.1875,2.34375 C7.79156145,2.34375 8.28125,2.83343855 8.28125,3.4375 C8.28125,4.04156145 7.79156145,4.53125 7.1875,4.53125 C6.58625928,4.52449385 6.10050615,4.03874072 6.09375,3.4375 Z M12.8125,1.25 C11.6043771,1.25 10.625,2.22937711 10.625,3.4375 C10.625,4.64562289 11.6043771,5.625 12.8125,5.625 C14.0206229,5.625 15,4.64562289 15,3.4375 C15,2.22937711 14.0206229,1.25 12.8125,1.25 Z M12.8125,4.53125 C12.2084386,4.53125 11.71875,4.04156145 11.71875,3.4375 C11.71875,2.83343855 12.2084386,2.34375 12.8125,2.34375 C13.4165614,2.34375 13.90625,2.83343855 13.90625,3.4375 C13.8994938,4.03874072 13.4137407,4.52449385 12.8125,4.53125 L12.8125,4.53125 Z" id="Fill"></path>
                    </g>
                    <g id="group" transform="translate(0.222103, 52.000000)" fill="#161616" font-size="14" letter-spacing="0.159999996" line-spacing="18">
                        <text id="Secondary-text" font-family="IBMPlexSans, IBM Plex Sans" font-weight="normal">
                            <tspan x="16.188" y="32">Focus: selected</tspan>
                        </text>
                        <text id="Primary-text" font-family="IBMPlexSans-SemiBold, IBM Plex Sans" font-weight="500">
                            <tspan x="27.473" y="14">Shape node</tspan>
                        </text>
                    </g>
                </g>
                <g id="Group" transform="translate(18.490521, 0.000000)">
                    <rect id="Center-button-background" fill="#F4F4F4" x="32" y="0" width="32" height="32"></rect>
                    <rect id="Left-button-background" fill="#F4F4F4" x="0" y="0" width="32" height="32"></rect>
                    <g transform="translate(64.000000, 0.000000)">
                        <rect id="Background" fill="#F4F4F4" x="0" y="0" width="32" height="32"></rect>
                        <g transform="translate(8.000000, 8.000000)" fill="#161616" id="icon-/-navigation-/-overflow-menu-/-16">
                            <path d="M8,4 C8.55228475,4 9,3.55228475 9,3 C9,2.44771525 8.55228475,2 8,2 C7.44771525,2 7,2.44771525 7,3 C7,3.55228475 7.44771525,4 8,4 Z M8,9 C8.55228475,9 9,8.55228475 9,8 C9,7.44771525 8.55228475,7 8,7 C7.44771525,7 7,7.44771525 7,8 C7,8.55228475 7.44771525,9 8,9 Z M8,14 C8.55228475,14 9,13.5522847 9,13 C9,12.4477153 8.55228475,12 8,12 C7.44771525,12 7,12.4477153 7,13 C7,13.5522847 7.44771525,14 8,14 Z" id="Fill"></path>
                        </g>
                    </g>
                    <g transform="translate(32.000000, 0.000000)" id="center-button">
                        <rect id="Background" x="0" y="0" width="32" height="32"></rect>
                        <g id="Icon" transform="translate(8.000000, 8.000000)" fill="#000000">
                            <path d="M6,6 L7,6 L7,12 L6,12 L6,6 Z M9,6 L10,6 L10,12 L9,12 L9,6 Z M2,3 L2,4 L3,4 L3,14 C3,14.5522847 3.44771525,15 4,15 L12,15 C12.5522847,15 13,14.5522847 13,14 L13,4 L14,4 L14,3 L2,3 Z M4,14 L4,4 L12,4 L12,14 L4,14 Z M6,1 L10,1 L10,2 L6,2 L6,1 Z" id="Fill"></path>
                        </g>
                    </g>
                    <g id="left-button">
                        <rect id="Background" x="0" y="0" width="32" height="32"></rect>
                        <g id="Icon" transform="translate(8.000000, 8.000000)" fill="#000000">
                            <path d="M13,9 C12.0905218,9.00261778 11.2975985,9.61919895 11.071,10.5 L9,10.5 C8.17194984,10.4990906 7.50090936,9.82805016 7.5,9 L7.5,7 C7.49809301,6.45730971 7.31791923,5.93028034 6.9872,5.5 L11.071,5.5 C11.3227835,6.47515336 12.2603934,7.11096261 13.2595003,6.98405939 C14.2586072,6.85715618 15.0074917,6.00713406 15.0074917,5 C15.0074917,3.99286594 14.2586072,3.14284382 13.2595003,3.01594061 C12.2603934,2.88903739 11.3227835,3.52484664 11.071,4.5 L4.929,4.5 C4.67721648,3.52484664 3.73960664,2.88903739 2.74049974,3.01594061 C1.74139284,3.14284382 0.992508327,3.99286594 0.992508327,5 C0.992508327,6.00713406 1.74139284,6.85715618 2.74049974,6.98405939 C3.73960664,7.11096261 4.67721648,6.47515336 4.929,5.5 L5,5.5 C5.82805016,5.50090936 6.49909064,6.17194984 6.5,7 L6.5,9 C6.50162557,10.380038 7.61996202,11.4983744 9,11.5 L11.071,11.5 C11.3324969,12.5040444 12.3193918,13.140524 13.3419026,12.9645767 C14.3644133,12.7886294 15.0818025,11.8588871 14.9926567,10.8251856 C14.9035109,9.79148415 14.0375369,8.99829012 13,9 Z M13,4 C13.5522847,4 14,4.44771525 14,5 C14,5.55228475 13.5522847,6 13,6 C12.4477153,6 12,5.55228475 12,5 C12.0006337,4.44797796 12.447978,4.00063373 13,4 L13,4 Z M3,6 C2.44771525,6 2,5.55228475 2,5 C2,4.44771525 2.44771525,4 3,4 C3.55228475,4 4,4.44771525 4,5 C3.99944877,5.55205626 3.55205626,5.99944877 3,6 L3,6 Z M13,12 C12.4477153,12 12,11.5522847 12,11 C12,10.4477153 12.4477153,10 13,10 C13.5522847,10 14,10.4477153 14,11 C13.9992563,11.5519764 13.5519764,11.9992563 13,12 Z" id="Fill"></path>
                        </g>
                    </g>
                </g>
            </g>
            <g id="node-/-white-theme-/-shape-node-/-low-contrast-/-01-enabled-copy-3" transform="translate(630.000000, 36.000000)">
                <g id="style" transform="translate(42.722103, 0.000000)" fill="#F4F4F4">
                    <rect x="0" y="0" width="48" height="48" rx="24"></rect>
                </g>
                <use id="selected-line" stroke="#000000" mask="url(#mask-18)" stroke-width="2" stroke-dasharray="4,4" xlink:href="#path-17"></use>
                <g id="icon" transform="translate(56.722103, 14.000000)" fill="#161616">
                    <path d="M10,6.25 C7.92893219,6.25 6.25,7.92893219 6.25,10 L6.25,15 C6.25,17.0710678 7.92893219,18.75 10,18.75 C12.0710678,18.75 13.75,17.0710678 13.75,15 L13.75,10 C13.75,7.92893219 12.0710678,6.25 10,6.25 Z M7.34375,11.16875 L12.65625,11.16875 L12.65625,13.825 L7.34375,13.825 L7.34375,11.16875 Z M10,17.65625 C8.53583704,17.649408 7.35059199,16.464163 7.34375,15 L7.34375,14.91875 L12.65625,14.91875 L12.65625,15 C12.649408,16.464163 11.464163,17.649408 10,17.65625 L10,17.65625 Z M12.65625,10.075 L7.34375,10.075 L7.34375,10 C7.34375,8.53299363 8.53299363,7.34375 10,7.34375 C11.4670064,7.34375 12.65625,8.53299363 12.65625,10 L12.65625,10.075 Z M19.1625,12.00625 L15,8.125 L15,13.8125 C15,15.1932119 16.1192881,16.3125 17.5,16.3125 C18.8807119,16.3125 20,15.1932119 20,13.8125 C19.99634,13.1173734 19.6906884,12.4581697 19.1625,12.00625 L19.1625,12.00625 Z M17.5,15.21875 C16.7233496,15.21875 16.09375,14.5891504 16.09375,13.8125 L16.09375,10.625 L18.41875,12.79375 L18.41875,12.79375 C18.7016767,13.0317436 18.8680062,13.3803521 18.875,13.75 C18.8919155,14.1283018 18.7555452,14.4974378 18.4967463,14.7738822 C18.2379473,15.0503265 17.8785945,15.2107129 17.5,15.21875 L17.5,15.21875 Z M0,13.8125 C0,15.1932119 1.11928813,16.3125 2.5,16.3125 C3.88071187,16.3125 5,15.1932119 5,13.8125 L5,8.125 L0.8375,12.00625 C0.312648649,12.4606915 0.00774088769,13.118291 0,13.8125 L0,13.8125 Z M1.55,12.8375 L1.55,12.8375 L3.90625,10.625 L3.90625,13.8125 C3.90625,14.5891504 3.27665043,15.21875 2.5,15.21875 C1.72334957,15.21875 1.09375,14.5891504 1.09375,13.8125 C1.09530728,13.4362762 1.26214314,13.0797503 1.55,12.8375 L1.55,12.8375 Z M9.375,3.4375 C9.375,2.22937711 8.39562289,1.25 7.1875,1.25 C5.97937711,1.25 5,2.22937711 5,3.4375 C5,4.64562289 5.97937711,5.625 7.1875,5.625 C8.39562289,5.625 9.375,4.64562289 9.375,3.4375 Z M6.09375,3.4375 C6.09375,2.83343855 6.58343855,2.34375 7.1875,2.34375 C7.79156145,2.34375 8.28125,2.83343855 8.28125,3.4375 C8.28125,4.04156145 7.79156145,4.53125 7.1875,4.53125 C6.58625928,4.52449385 6.10050615,4.03874072 6.09375,3.4375 Z M12.8125,1.25 C11.6043771,1.25 10.625,2.22937711 10.625,3.4375 C10.625,4.64562289 11.6043771,5.625 12.8125,5.625 C14.0206229,5.625 15,4.64562289 15,3.4375 C15,2.22937711 14.0206229,1.25 12.8125,1.25 Z M12.8125,4.53125 C12.2084386,4.53125 11.71875,4.04156145 11.71875,3.4375 C11.71875,2.83343855 12.2084386,2.34375 12.8125,2.34375 C13.4165614,2.34375 13.90625,2.83343855 13.90625,3.4375 C13.8994938,4.03874072 13.4137407,4.52449385 12.8125,4.53125 L12.8125,4.53125 Z" id="Fill"></path>
                </g>
                <g id="group" transform="translate(0.222103, 52.000000)" fill="#161616" font-size="14" letter-spacing="0.159999996" line-spacing="18">
                    <text id="Secondary-text" font-family="IBMPlexSans, IBM Plex Sans" font-weight="normal">
                        <tspan x="38.35" y="32">Selected</tspan>
                    </text>
                    <text id="Primary-text" font-family="IBMPlexSans-SemiBold, IBM Plex Sans" font-weight="500">
                        <tspan x="27.473" y="14">Shape node</tspan>
                    </text>
                </g>
            </g>
        </g>
    </g>
</svg>