<?xml version="1.0" encoding="UTF-8"?>
<svg width="608px" height="342px" viewBox="0 0 608 342" version="1.1" xmlns="http://www.w3.org/2000/svg" xmlns:xlink="http://www.w3.org/1999/xlink">
    <title>shapeNodeStatus</title>
    <g id="shapeNodeStatus" stroke="none" stroke-width="1" fill="none" fill-rule="evenodd">
        <g id="Background" fill="#FFFFFF">
            <rect x="0" y="0" width="608" height="342"></rect>
        </g>
        <g id="Group-6" transform="translate(123.500000, 92.500000)">
            <g id="Group" transform="translate(0.000000, 34.500000)">
                <g transform="translate(42.722103, 0.000000)" fill="#F4F4F4" id="style">
                    <rect x="0" y="0" width="48" height="48" rx="24"></rect>
                </g>
                <g transform="translate(56.722103, 14.000000)" fill="#161616" id="icon">
                    <path d="M10,6.25 C7.92893219,6.25 6.25,7.92893219 6.25,10 L6.25,15 C6.25,17.0710678 7.92893219,18.75 10,18.75 C12.0710678,18.75 13.75,17.0710678 13.75,15 L13.75,10 C13.75,7.92893219 12.0710678,6.25 10,6.25 Z M7.34375,11.16875 L12.65625,11.16875 L12.65625,13.825 L7.34375,13.825 L7.34375,11.16875 Z M10,17.65625 C8.53583704,17.649408 7.35059199,16.464163 7.34375,15 L7.34375,14.91875 L12.65625,14.91875 L12.65625,15 C12.649408,16.464163 11.464163,17.649408 10,17.65625 L10,17.65625 Z M12.65625,10.075 L7.34375,10.075 L7.34375,10 C7.34375,8.53299363 8.53299363,7.34375 10,7.34375 C11.4670064,7.34375 12.65625,8.53299363 12.65625,10 L12.65625,10.075 Z M19.1625,12.00625 L15,8.125 L15,13.8125 C15,15.1932119 16.1192881,16.3125 17.5,16.3125 C18.8807119,16.3125 20,15.1932119 20,13.8125 C19.99634,13.1173734 19.6906884,12.4581697 19.1625,12.00625 L19.1625,12.00625 Z M17.5,15.21875 C16.7233496,15.21875 16.09375,14.5891504 16.09375,13.8125 L16.09375,10.625 L18.41875,12.79375 L18.41875,12.79375 C18.7016767,13.0317436 18.8680062,13.3803521 18.875,13.75 C18.8919155,14.1283018 18.7555452,14.4974378 18.4967463,14.7738822 C18.2379473,15.0503265 17.8785945,15.2107129 17.5,15.21875 L17.5,15.21875 Z M0,13.8125 C0,15.1932119 1.11928813,16.3125 2.5,16.3125 C3.88071187,16.3125 5,15.1932119 5,13.8125 L5,8.125 L0.8375,12.00625 C0.312648649,12.4606915 0.00774088769,13.118291 0,13.8125 L0,13.8125 Z M1.55,12.8375 L1.55,12.8375 L3.90625,10.625 L3.90625,13.8125 C3.90625,14.5891504 3.27665043,15.21875 2.5,15.21875 C1.72334957,15.21875 1.09375,14.5891504 1.09375,13.8125 C1.09530728,13.4362762 1.26214314,13.0797503 1.55,12.8375 L1.55,12.8375 Z M9.375,3.4375 C9.375,2.22937711 8.39562289,1.25 7.1875,1.25 C5.97937711,1.25 5,2.22937711 5,3.4375 C5,4.64562289 5.97937711,5.625 7.1875,5.625 C8.39562289,5.625 9.375,4.64562289 9.375,3.4375 Z M6.09375,3.4375 C6.09375,2.83343855 6.58343855,2.34375 7.1875,2.34375 C7.79156145,2.34375 8.28125,2.83343855 8.28125,3.4375 C8.28125,4.04156145 7.79156145,4.53125 7.1875,4.53125 C6.58625928,4.52449385 6.10050615,4.03874072 6.09375,3.4375 Z M12.8125,1.25 C11.6043771,1.25 10.625,2.22937711 10.625,3.4375 C10.625,4.64562289 11.6043771,5.625 12.8125,5.625 C14.0206229,5.625 15,4.64562289 15,3.4375 C15,2.22937711 14.0206229,1.25 12.8125,1.25 Z M12.8125,4.53125 C12.2084386,4.53125 11.71875,4.04156145 11.71875,3.4375 C11.71875,2.83343855 12.2084386,2.34375 12.8125,2.34375 C13.4165614,2.34375 13.90625,2.83343855 13.90625,3.4375 C13.8994938,4.03874072 13.4137407,4.52449385 12.8125,4.53125 L12.8125,4.53125 Z" id="Fill"></path>
                </g>
                <g id="group" transform="translate(0.222103, 52.000000)" fill="#161616" font-size="14" letter-spacing="0.159999996" line-spacing="18">
                    <text id="Secondary-text" font-family="IBMPlexSans, IBM Plex Sans" font-weight="normal">
                        <tspan x="18.319" y="32">Secondary text</tspan>
                    </text>
                    <text id="Primary-text" font-family="IBMPlexSans-SemiBold, IBM Plex Sans" font-weight="500">
                        <tspan x="25.367" y="14">Primary text</tspan>
                    </text>
                </g>
            </g>
            <g id="Utilities-/-Spacer-/-Component-/-Horizontal-/-Spacing-05-(16px)-/-On-/-Light-Copy-31" transform="translate(90.500000, 34.828268)">
                <rect id="Spacer" fill="#D9FBFB" style="mix-blend-mode: multiply;" x="0" y="0" width="4" height="48.9036388"></rect>
                <line x1="3.5" y1="0" x2="3.5" y2="48.9036388" id="Line-" stroke="#007D79" stroke-dasharray="2"></line>
                <line x1="0.5" y1="0" x2="0.5" y2="48.9036388" id="Line-" stroke="#007D79" stroke-dasharray="2"></line>
            </g>
            <g id="Spec-/-span-/-Horizontal-/-Top-/--Light-/-Teal-Copy-28" transform="translate(89.031843, 0.000000)" fill="#007D79">
                <path id="Line" d="M7.46815683,20.5 L7.46815683,21.5 L3.968,21.5 L3.968,24.5 L7.46815683,24.5 L7.46815683,25.5 L-0.531843172,25.5 L-0.531843172,24.5 L2.968,24.5 L2.968,21.5 L-0.531843172,21.5 L-0.531843172,20.5 L7.46815683,20.5 Z" transform="translate(3.468157, 23.000000) rotate(-270.000000) translate(-3.468157, -23.000000) " fill-rule="nonzero"></path>
                <text id="Text" font-family="IBMPlexSans, IBM Plex Sans" font-size="12" font-weight="normal" line-spacing="16" letter-spacing="0.32">
                    <tspan x="0" y="12">4</tspan>
                </text>
            </g>
            <g id="Organization-/-Status-/-error--filled-/-16" transform="translate(94.500000, 34.500000)">
                <path d="M8,0.999866092 C6.13997313,0.988467527 4.3527873,1.72226151 3.03752441,3.03752441 C1.72226151,4.3527873 0.988467527,6.13997313 0.999866092,8 C0.988467527,9.86002687 1.72226151,11.6472127 3.03752441,12.9624756 C4.3527873,14.2777385 6.13997313,15.0115325 8,15.0001339 C9.86002687,15.0115325 11.6472127,14.2777385 12.9624756,12.9624756 C14.2777385,11.6472127 15.0115325,9.86002687 15.0001339,8 C15.0115325,6.13997313 14.2777385,4.3527873 12.9624756,3.03752441 C11.6472127,1.72226151 9.86002687,0.988467527 8,0.999866092 Z M10.72245,11.5 L4.5,5.27785 L5.27785,4.5 L11.5,10.7224 L10.72245,11.5 Z" id="Fill" fill="#DA1E28"></path>
                <polygon id="_inner-path_" transform="translate(8.000065, 8.000015) rotate(-45.000000) translate(-8.000065, -8.000015) " points="7.45016457 3.60016464 8.54996457 3.60016464 8.54996457 12.3998646 7.45016457 12.3998646"></polygon>
            </g>
        </g>
        <g id="Group-6-Copy-2" transform="translate(364.500000, 127.000000)">
            <g id="Group">
                <g transform="translate(42.722103, 0.000000)" fill="#F4F4F4" id="style">
                    <rect x="0" y="0" width="48" height="48" rx="24"></rect>
                </g>
                <g transform="translate(56.722103, 14.000000)" fill="#161616" id="icon">
                    <path d="M10,6.25 C7.92893219,6.25 6.25,7.92893219 6.25,10 L6.25,15 C6.25,17.0710678 7.92893219,18.75 10,18.75 C12.0710678,18.75 13.75,17.0710678 13.75,15 L13.75,10 C13.75,7.92893219 12.0710678,6.25 10,6.25 Z M7.34375,11.16875 L12.65625,11.16875 L12.65625,13.825 L7.34375,13.825 L7.34375,11.16875 Z M10,17.65625 C8.53583704,17.649408 7.35059199,16.464163 7.34375,15 L7.34375,14.91875 L12.65625,14.91875 L12.65625,15 C12.649408,16.464163 11.464163,17.649408 10,17.65625 L10,17.65625 Z M12.65625,10.075 L7.34375,10.075 L7.34375,10 C7.34375,8.53299363 8.53299363,7.34375 10,7.34375 C11.4670064,7.34375 12.65625,8.53299363 12.65625,10 L12.65625,10.075 Z M19.1625,12.00625 L15,8.125 L15,13.8125 C15,15.1932119 16.1192881,16.3125 17.5,16.3125 C18.8807119,16.3125 20,15.1932119 20,13.8125 C19.99634,13.1173734 19.6906884,12.4581697 19.1625,12.00625 L19.1625,12.00625 Z M17.5,15.21875 C16.7233496,15.21875 16.09375,14.5891504 16.09375,13.8125 L16.09375,10.625 L18.41875,12.79375 L18.41875,12.79375 C18.7016767,13.0317436 18.8680062,13.3803521 18.875,13.75 C18.8919155,14.1283018 18.7555452,14.4974378 18.4967463,14.7738822 C18.2379473,15.0503265 17.8785945,15.2107129 17.5,15.21875 L17.5,15.21875 Z M0,13.8125 C0,15.1932119 1.11928813,16.3125 2.5,16.3125 C3.88071187,16.3125 5,15.1932119 5,13.8125 L5,8.125 L0.8375,12.00625 C0.312648649,12.4606915 0.00774088769,13.118291 0,13.8125 L0,13.8125 Z M1.55,12.8375 L1.55,12.8375 L3.90625,10.625 L3.90625,13.8125 C3.90625,14.5891504 3.27665043,15.21875 2.5,15.21875 C1.72334957,15.21875 1.09375,14.5891504 1.09375,13.8125 C1.09530728,13.4362762 1.26214314,13.0797503 1.55,12.8375 L1.55,12.8375 Z M9.375,3.4375 C9.375,2.22937711 8.39562289,1.25 7.1875,1.25 C5.97937711,1.25 5,2.22937711 5,3.4375 C5,4.64562289 5.97937711,5.625 7.1875,5.625 C8.39562289,5.625 9.375,4.64562289 9.375,3.4375 Z M6.09375,3.4375 C6.09375,2.83343855 6.58343855,2.34375 7.1875,2.34375 C7.79156145,2.34375 8.28125,2.83343855 8.28125,3.4375 C8.28125,4.04156145 7.79156145,4.53125 7.1875,4.53125 C6.58625928,4.52449385 6.10050615,4.03874072 6.09375,3.4375 Z M12.8125,1.25 C11.6043771,1.25 10.625,2.22937711 10.625,3.4375 C10.625,4.64562289 11.6043771,5.625 12.8125,5.625 C14.0206229,5.625 15,4.64562289 15,3.4375 C15,2.22937711 14.0206229,1.25 12.8125,1.25 Z M12.8125,4.53125 C12.2084386,4.53125 11.71875,4.04156145 11.71875,3.4375 C11.71875,2.83343855 12.2084386,2.34375 12.8125,2.34375 C13.4165614,2.34375 13.90625,2.83343855 13.90625,3.4375 C13.8994938,4.03874072 13.4137407,4.52449385 12.8125,4.53125 L12.8125,4.53125 Z" id="Fill"></path>
                </g>
                <g id="group" transform="translate(0.222103, 52.000000)" fill="#161616" font-size="14" letter-spacing="0.159999996" line-spacing="18">
                    <text id="Secondary-text" font-family="IBMPlexSans, IBM Plex Sans" font-weight="normal">
                        <tspan x="18.319" y="32">Secondary text</tspan>
                    </text>
                    <text id="Primary-text" font-family="IBMPlexSans-SemiBold, IBM Plex Sans" font-weight="500">
                        <tspan x="25.367" y="14">Primary text</tspan>
                    </text>
                </g>
            </g>
            <g id="Organization-/-Status-/-error--filled-/-16-Copy" transform="translate(94.485097, 0.000000)" fill="#0F62FE">
                <path d="M11.8821,3.42965 L12.52465,2.6639 C11.9039514,2.13853143 11.196316,1.72553399 10.4336,1.4435 L10.0918,2.3823 C10.7449616,2.62458742 11.35082,2.97902291 11.8821,3.42965 L11.8821,3.42965 Z M13.905,7 L14.88885,6.7936 C14.7505542,5.99468469 14.4734183,5.22616008 14.07,4.52285 L13.20435,5 C13.549865,5.62200328 13.7868094,6.29835927 13.905,7 L13.905,7 Z M10.0918,13.6177 L10.4336,14.5565 C11.196316,14.274466 11.9039514,13.8614686 12.52465,13.3361 L11.8821,12.57035 C11.35082,13.0209771 10.7449616,13.3754126 10.0918,13.6177 L10.0918,13.6177 Z M13.20435,11 L14.07,11.5 C14.4736523,10.7886039 14.7507968,10.0125587 14.8891,9.2064 L13.905,9.03295 C13.7867127,9.72415296 13.5496629,10.389662 13.20435,11 L13.20435,11 Z M8,15 L8,1 C4.13400675,1 1,4.13400675 1,8 C1,11.8659932 4.13400675,15 8,15 L8,15 Z" id="Fill"></path>
            </g>
        </g>
        <g id="Spec-/-Icon-box-/-Vertical-/-Bottom-/-16px-/-Light" transform="translate(217.966700, 127.000000)">
            <g id="Icon-box">
                <rect id="Box" stroke="#D12771" x="0.5" y="0.5" width="15" height="15"></rect>
                <rect id="Line" fill="#D12771" x="15" y="7.5" width="27.5" height="1"></rect>
            </g>
            <g id="Text" transform="translate(46.500000, -1.000000)" fill="#D12771" font-family="IBMPlexSans, IBM Plex Sans" font-size="12" font-weight="normal" letter-spacing="0.32" line-spacing="16">
                <text>
                    <tspan x="0" y="12">16px</tspan>
                </text>
            </g>
        </g>
        <rect id="Rectangle" stroke="#D12771" x="165.268093" y="127.5" width="48.2319065" height="48.2319065"></rect>
    </g>
</svg>