<?xml version="1.0" encoding="UTF-8"?>
<svg width="256px" height="256px" viewBox="0 0 256 256" version="1.1" xmlns="http://www.w3.org/2000/svg" xmlns:xlink="http://www.w3.org/1999/xlink">
    <title>Buy-upgrade</title>
    <g id="Buy-upgrade" stroke="none" stroke-width="1" fill="none" fill-rule="evenodd">
        <g id="Tools-/-Instruments-/-binoculars-/-16" transform="translate(84.000000, 84.000000)" fill="#6F6F6F">
            <path d="M57.75,66 L30.25,66 C27.2124339,66 24.75,68.4624339 24.75,71.5 L24.75,77 C24.75,80.0375661 27.2124339,82.5 30.25,82.5 L57.75,82.5 C60.7875661,82.5 63.25,80.0375661 63.25,77 L63.25,71.5 C63.25,68.4624339 60.7875661,66 57.75,66 Z M57.75,77 L30.25,77 L30.25,71.5 L57.75,71.5 L57.75,77 Z M78.94425,39.30575 L45.94425,6.30575 C45.4287636,5.78980009 44.7293357,5.49990345 44,5.49990345 C43.2706643,5.49990345 42.5712364,5.78980009 42.05575,6.30575 L9.05575,39.30575 C8.26950323,40.0922342 8.03433976,41.2748507 8.45988556,42.3023 C8.88543136,43.3297494 9.88791128,43.9997625 11,44 L24.75,44 L24.75,55 C24.7534855,58.0361212 27.2138788,60.4965145 30.25,60.5 L57.75,60.5 C60.7858703,60.4959099 63.2459099,58.0358703 63.25,55 L63.25,44 L77,44 C78.1120887,43.9997625 79.1145686,43.3297494 79.5401144,42.3023 C79.9656602,41.2748507 79.7304968,40.0922342 78.94425,39.30575 Z M57.75,38.5 L57.75,55 L30.25,55 L30.25,38.5 L17.638775,38.5 L44,12.138775 L70.361225,38.5 L57.75,38.5 Z" id="Fill"></path>
        </g>
    </g>
</svg>