<?xml version="1.0" encoding="utf-8"?>
<svg version="1.1" xmlns="http://www.w3.org/2000/svg" width="30" height="30" viewBox="0 0 30 30"><path fill="#2860cd" d="M25 30H0V0h30v30z"></path><path fill="#fff" d="M15.35 12.63a4.07 4.07 0 0 0-3.6 2.17 4.07 4.07 0 0 0-6-1.35V10a.82.82 0 0 0-1.63 0v6.77a4.08 4.08 0 0 0 7.68 1.84 4.08 4.08 0 1 0 3.6-6m-7.2 6.53a2.45 2.45 0 1 1 2.44-2.45 2.45 2.45 0 0 1-2.44 2.45m7.2 0a2.45 2.45 0 1 1 2.45-2.45 2.45 2.45 0 0 1-2.45 2.45"></path><path fill="#fff" d="M25.76 19.42l-2.22-2.72 2.22-2.7a.78.78 0 0 0-.18-1.13 1 1 0 0 0-1.24.15l-1.91 2.34-1.9-2.36a.94.94 0 0 0-1.23-.15.77.77 0 0 0-.19 1.15l2.21 2.72-2.21 2.72a.77.77 0 0 0 .19 1.13.94.94 0 0 0 1.23-.15l1.9-2.33 1.91 2.33a.94.94 0 0 0 1.23.15.77.77 0 0 0 .19-1.13"></path>
</svg>