<svg id="Layer_1" data-name="Layer 1" xmlns="http://www.w3.org/2000/svg" xmlns:xlink="http://www.w3.org/1999/xlink" viewBox="0 0 320 320"><defs><style>.cls-1{fill:url(#Shadow_Grey_70-100);}.cls-2{fill:url(#linear-gradient);}.cls-3{fill:url(#linear-gradient-2);}.cls-4{fill:url(#linear-gradient-3);}.cls-5{fill:url(#linear-gradient-4);}</style><linearGradient id="Shadow_Grey_70-100" x1="122.69" y1="179.48" x2="202.23" y2="317.25" gradientUnits="userSpaceOnUse"><stop offset="0" stop-color="#525252" stop-opacity="0.05"/><stop offset="1" stop-opacity="0.1"/></linearGradient><linearGradient id="linear-gradient" x1="153.35" y1="203.18" x2="153.35" y2="34.1" gradientUnits="userSpaceOnUse"><stop offset="0" stop-color="#c6c6c6"/><stop offset="0.78" stop-color="#e0e0e0"/></linearGradient><linearGradient id="linear-gradient-2" x1="81.89" y1="71.02" x2="265.63" y2="177.11" gradientUnits="userSpaceOnUse"><stop offset="0" stop-color="#e0e0e0"/><stop offset="0.13" stop-color="#f4f4f4"/><stop offset="0.56" stop-color="#e0e0e0"/><stop offset="0.62" stop-color="#d8d8d8"/><stop offset="0.7" stop-color="#c6c6c6"/><stop offset="0.89" stop-color="#a8a8a8"/><stop offset="1" stop-color="#8d8d8d"/></linearGradient><linearGradient id="linear-gradient-3" x1="115.75" y1="198.38" x2="190.96" y2="68.1" gradientUnits="userSpaceOnUse"><stop offset="0.54" stop-color="#d0d0d0" stop-opacity="0"/><stop offset="0.82" stop-color="#f1f1f1" stop-opacity="0.7"/><stop offset="0.94" stop-color="#fff"/></linearGradient><linearGradient id="linear-gradient-4" x1="118.21" y1="113.1" x2="181.62" y2="149.71" gradientUnits="userSpaceOnUse"><stop offset="0" stop-color="#fff"/><stop offset="0.05" stop-color="#fdfdfd"/><stop offset="0.3" stop-color="#f6f6f6"/><stop offset="1" stop-color="#f4f4f4"/></linearGradient></defs><polygon class="cls-1" points="225.41 291.51 77.91 206.34 94.59 196.71 242.09 281.87 225.41 291.51"/><path class="cls-2" d="M153.6,46.53c41.67,24.06,75.34,82.4,75.2,130.26S194.78,244,153.11,220,77.77,137.56,77.91,89.67,111.93,22.47,153.6,46.53Z"/><path class="cls-3" d="M166.89,38.84c-21-12.1-40-13.22-53.68-5.25l-12.57,7.3c13.66-7.53,32.35-6.25,53,5.64,41.67,24.06,75.34,82.4,75.2,130.26-.06,23.2-8.05,39.69-21,47.8l-.25.15c-1.1.68,12.54-7.23,12.54-7.23,13.55-7.87,21.95-24.62,22-48.41C242.23,121.23,208.56,62.9,166.89,38.84Z"/><path class="cls-4" d="M119.76,36.19v1.26c10.34,0,21.51,3.42,33.21,10.18,41.25,23.81,74.7,81.76,74.57,129.16C227.45,209,211.9,229,187,229c-10.34,0-21.51-3.42-33.21-10.17C112.49,195,79,137.09,79.17,89.67c.09-32.21,15.64-52.22,40.58-52.22V36.19m0,0C95,36.19,78,55.78,77.91,89.67c-.14,47.89,33.53,106.22,75.2,130.28,12.16,7,23.65,10.35,33.84,10.35,24.73,0,41.76-19.6,41.85-53.51.14-47.86-33.53-106.2-75.2-130.26-12.16-7-23.66-10.34-33.85-10.34Z"/><path class="cls-5" d="M153.43,193.6a23.52,23.52,0,0,1-9.1-8.64,20.85,20.85,0,0,1-2.79-10.26v-3.39q0-5.25,2.79-7t9.1,1.86a23,23,0,0,1,8.95,8.56A20.78,20.78,0,0,1,165.17,185v3.39c0,3.5-.93,5.85-2.79,7S157.54,196,153.43,193.6Zm-4-39.9-6-52.8V67.51l20,11.52v33.39l-5.73,46Z"/></svg>