<svg id="CarbonforIBMProducts" xmlns="http://www.w3.org/2000/svg" xmlns:xlink="http://www.w3.org/1999/xlink" viewBox="0 0 32 32"><defs><linearGradient id="716njqjxaa" x1="-1968.706" y1="-4429" x2="-1968.706" y2="-4440" gradientTransform="matrix(1 0 0 -1 1995.706 -4419)" gradientUnits="userSpaceOnUse"><stop offset="0" stop-opacity="0"/><stop offset=".9"/></linearGradient><linearGradient id="3zmnnsfusb" x1="185.255" y1="-1204.217" x2="185.255" y2="-1215.217" gradientTransform="matrix(1 0 0 -1 -174.501 -1182.967)" xlink:href="#716njqjxaa"/><linearGradient id="zbk9n9uo2c" x1="40.172" y1="-990.925" x2="40.172" y2="-1001.925" gradientTransform="translate(-31.408 1004.175)" xlink:href="#716njqjxaa"/><mask id="aw2g89wbjd" x="0" y="0" width="32" height="32" maskUnits="userSpaceOnUse"><path d="M28 20h-2v-9.072l-8.768-5.062 1-1.732L27.5 9.485a1 1 0 0 1 .5.866V20zM16 31a1 1 0 0 1-.5-.134l-9.343-5.395 1-1.732L16 28.845l9.07-5.237 1 1.732-9.57 5.525a1 1 0 0 1-.5.134zM6 21H4V10.351c0-.357.19-.688.5-.866l9-5.196 1 1.732L6 10.928V21z" style="fill:#fff"/><path style="fill:url(#716njqjxaa)" d="M25 10h4v11h-4z"/><path transform="rotate(120 10.754 26.75)" style="fill:url(#3zmnnsfusb)" d="M8.754 21.25h4v11h-4z"/><path transform="rotate(60 8.763 7.75)" style="fill:url(#zbk9n9uo2c)" d="M6.763 2.25h4v11h-4z"/><path d="M16 3c.551 0 1 .449 1 1s-.449 1-1 1-1-.449-1-1 .449-1 1-1m0-2a3 3 0 1 0 0 6 3 3 0 0 0 0-6zM27 22c.551 0 1 .449 1 1s-.449 1-1 1-1-.449-1-1 .449-1 1-1m0-2a3 3 0 1 0 0 6 3 3 0 0 0 0-6zM5 22c.551 0 1 .449 1 1s-.449 1-1 1-1-.449-1-1 .449-1 1-1m0-2a3 3 0 1 0 0 6 3 3 0 0 0 0-6z" style="fill:#fff"/></mask></defs><g style="mask:url(#aw2g89wbjd)"><path id="Color" transform="rotate(-90 16 16)" d="M0 0h32v32H0z"/></g><path d="M16 25a1 1 0 0 1-.5-.134l-6-3.464a1 1 0 0 1-.5-.866v-7.072c0-.357.19-.688.5-.866l6-3.464a1.003 1.003 0 0 1 1 0l6 3.464a1 1 0 0 1 .5.866v7.072c0 .357-.19.688-.5.866l-6 3.464A1 1 0 0 1 16 25zm-5-5.041 5 2.887 5-2.887v-5.918l-5-2.887-5 2.887v5.918z"/></svg>