<?xml version="1.0" encoding="UTF-8"?>
<svg width="32px" height="32px" viewBox="0 0 32 32" version="1.1" xmlns="http://www.w3.org/2000/svg" xmlns:xlink="http://www.w3.org/1999/xlink">
    <title>Copy</title>
    <g id="Copy" stroke="none" stroke-width="1" fill="none" fill-rule="evenodd">
        <g id="Fill" fill="#000000">
            <path d="M28,10 L28,28 L10,28 L10,10 L28,10 M28,8 L10,8 C8.8954305,8 8,8.8954305 8,10 L8,28 C8,29.1045695 8.8954305,30 10,30 L28,30 C29.1045695,30 30,29.1045695 30,28 L30,10 C30,8.8954305 29.1045695,8 28,8 Z M4,18 L2,18 L2,4 C2,2.8954305 2.8954305,2 4,2 L18,2 L18,4 L4,4 L4,18 Z"></path>
        </g>
    </g>
</svg>