<?xml version="1.0" encoding="UTF-8"?>
<svg width="32px" height="32px" viewBox="0 0 32 32" version="1.1" xmlns="http://www.w3.org/2000/svg" xmlns:xlink="http://www.w3.org/1999/xlink">
    <title>Pause</title>
    <g id="Pause" stroke="none" stroke-width="1" fill="none" fill-rule="evenodd">
        <g id="Fill" fill="#000000">
            <path d="M12,8 L12,24 L8,24 L8,8 L12,8 M12,6 L8,6 C6.8954305,6 6,6.8954305 6,8 L6,24 C6,25.1045695 6.8954305,26 8,26 L12,26 C13.1045695,26 14,25.1045695 14,24 L14,8 C14,6.8954305 13.1045695,6 12,6 Z M24,8 L24,24 L20,24 L20,8 L24,8 M24,6 L20,6 C18.8954305,6 18,6.8954305 18,8 L18,24 C18,25.1045695 18.8954305,26 20,26 L24,26 C25.1045695,26 26,25.1045695 26,24 L26,8 C26,6.8954305 25.1045695,6 24,6 Z"></path>
        </g>
    </g>
</svg>