<?xml version="1.0" encoding="UTF-8"?>
<svg width="32px" height="32px" viewBox="0 0 32 32" version="1.1" xmlns="http://www.w3.org/2000/svg" xmlns:xlink="http://www.w3.org/1999/xlink">
    <title>Remove</title>
    <g id="Remove" stroke="none" stroke-width="1" fill="none" fill-rule="evenodd">
        <g id="Fill" fill="#000000">
            <path d="M16,4 C22.6,4 28,9.4 28,16 C28,22.6 22.6,28 16,28 C9.4,28 4,22.6 4,16 C4,9.4 9.4,4 16,4 M16,2 C8.3,2 2,8.3 2,16 C2,23.7 8.3,30 16,30 C23.7,30 30,23.7 30,16 C30,8.3 23.7,2 16,2 Z M8,15 L24,15 L24,17 L8,17 L8,15 Z"></path>
        </g>
    </g>
</svg>