<svg id="Objects" xmlns="http://www.w3.org/2000/svg" xmlns:xlink="http://www.w3.org/1999/xlink" width="500" height="500" viewBox="0 0 500 500"><defs><style>.cls-1{isolation:isolate;}.cls-2{fill:#767676;}.cls-3{fill:url(#linear-gradient);}.cls-4{fill:url(#linear-gradient-2);}.cls-5{fill:#bebebe;}.cls-6{fill:url(#linear-gradient-3);}.cls-7{fill:url(#linear-gradient-4);}.cls-8{fill:url(#linear-gradient-5);}</style><linearGradient id="linear-gradient" x1="195.26" y1="263.66" x2="229.84" y2="203.77" gradientUnits="userSpaceOnUse"><stop offset="0" stop-color="#8c8c8c"/><stop offset="0.32" stop-color="#8c8c8c"/><stop offset="0.49" stop-color="#868686"/><stop offset="0.71" stop-color="#757575"/><stop offset="0.97" stop-color="#595959"/><stop offset="1" stop-color="#565656"/></linearGradient><linearGradient id="linear-gradient-2" x1="-1637.5" y1="203.39" x2="-1645.78" y2="189.05" gradientTransform="matrix(-1, 0, 0, 1, -1430.06, 0)" gradientUnits="userSpaceOnUse"><stop offset="0" stop-color="#dcdcdc"/><stop offset="1" stop-color="#bebebe"/></linearGradient><linearGradient id="linear-gradient-3" x1="-1738.15" y1="264.05" x2="-1640.56" y2="264.05" gradientTransform="matrix(-1, 0, 0, 1, -1430.06, 0)" gradientUnits="userSpaceOnUse"><stop offset="0" stop-color="#a4a4a4"/><stop offset="0.08" stop-color="#999"/><stop offset="0.2" stop-color="#8f8f8f"/><stop offset="0.35" stop-color="#8c8c8c"/><stop offset="1" stop-color="#bebebe"/></linearGradient><linearGradient id="linear-gradient-4" x1="242.04" y1="234.63" x2="276.55" y2="174.87" gradientTransform="matrix(1, 0, 0, 1, 0, 0)" xlink:href="#linear-gradient-2"/><linearGradient id="linear-gradient-5" x1="-1674.49" y1="230.5" x2="-1704.22" y2="179" gradientTransform="matrix(-1, 0, 0, 1, -1430.06, 0)" gradientUnits="userSpaceOnUse"><stop offset="0" stop-color="#565656"/><stop offset="0.13" stop-color="#626262"/><stop offset="0.71" stop-color="#929292"/><stop offset="1" stop-color="#a4a4a4"/></linearGradient></defs><g class="cls-1"><polygon class="cls-2" points="214.45 278.85 227.79 271.1 227.81 266.99 214.46 274.74 214.45 278.85"/><path class="cls-3" d="M216,260.16a11.25,11.25,0,0,1-1.1-.75l-.2-.14q-.51-.4-1-.87l-.24-.24-.48-.51-.28-.32-.28-.34-.32-.41a2.83,2.83,0,0,1-.2-.28l-.36-.51c-.05-.07-.09-.14-.14-.2l-.45-.74-.07-.13c-.12-.21-.24-.42-.35-.64s-.07-.14-.11-.22c-.11-.23-.22-.46-.32-.69a.36.36,0,0,1,0-.09c-.12-.26-.22-.52-.32-.79a2.09,2.09,0,0,1-.08-.23c-.07-.19-.14-.38-.2-.58l-.09-.29c-.05-.17-.09-.34-.13-.52a2.37,2.37,0,0,1-.09-.36c0-.13-.06-.26-.08-.39s-.07-.38-.1-.57,0-.2,0-.31c0-.42-.08-.84-.08-1.25l.12-50.27c0-2.26.81-3.85,2.09-4.6l-13.34,7.76a2.91,2.91,0,0,0-.46.32,5.32,5.32,0,0,0-1.63,4.27l-.12,50.28a10.63,10.63,0,0,0,.08,1.25c0,.05,0,.1,0,.14l0,.16c0,.19.06.38.1.57a2.51,2.51,0,0,0,0,.27l0,.13.09.36c0,.11.05.22.08.33l.06.18.09.3c0,.08,0,.17.08.25s.07.21.11.32l.09.24a.56.56,0,0,0,0,.12c.08.21.17.43.26.64v0a.36.36,0,0,1,0,.09l.24.51.09.19.11.21.11.22c.07.14.15.28.23.42s0,.09.08.14l0,0,.38.61.05.08c0,.07.09.14.14.2s.15.23.22.34l.13.18.21.27c.05.07.09.14.15.21s.11.13.17.2l.28.35a1.83,1.83,0,0,1,.13.16l.15.15a5.79,5.79,0,0,0,.48.51,1.29,1.29,0,0,0,.16.17l.08.07q.48.47,1,.87l.19.15a12.45,12.45,0,0,0,1.1.74l11.83,6.83L227.81,267Z"/><path class="cls-4" d="M201,196.22a7.41,7.41,0,0,0-.75-.26l-.48-.14-.44-.09-.57-.09-.32,0a5.48,5.48,0,0,0-.7,0h-.15a5.17,5.17,0,0,0-.79.1l-.19,0a5.08,5.08,0,0,0-.59.17l-.19.07a4.47,4.47,0,0,0-.7.33l13.34-7.75.06,0c.18-.1.36-.18.54-.26l.11,0,.18-.06.28-.1L210,188l.19-.05.11,0a6.41,6.41,0,0,1,.65-.08h.88l.32,0,.31,0,.26.05.44.1.24.05.24.08c.25.08.5.16.76.26l.26.09.16.08a12.87,12.87,0,0,1,1.34.67L228,196.13l-13.34,7.75-11.83-6.83c-.46-.26-.91-.47-1.35-.67Z"/><polygon class="cls-2" points="214.63 208 227.97 200.25 227.98 196.13 214.64 203.88 214.63 208"/><path class="cls-5" d="M202.81,197.05c-5.92-3.42-10.76-.66-10.78,6.15l-.12,50.28c0,6.8,4.79,15.12,10.71,18.54l11.83,6.83v-4.11l-11.83-6.83a15.76,15.76,0,0,1-7.13-12.36l.12-50.28c0-4.54,3.23-6.38,7.18-4.1L214.63,208v-4.12Z"/></g><path class="cls-6" d="M210.5,204.68h97.59v90.57h0c0,7.21-4.77,14.42-14.29,19.92-19.06,11-50,11-69,0-9.52-5.5-14.29-12.71-14.29-19.92h0Z"/><ellipse class="cls-7" cx="259.29" cy="204.75" rx="48.79" ry="28.17"/><ellipse class="cls-8" cx="259.29" cy="204.75" rx="42.05" ry="24.28"/></svg>