<svg id="Objects" xmlns="http://www.w3.org/2000/svg" xmlns:xlink="http://www.w3.org/1999/xlink" width="500" height="500" viewBox="0 0 500 500"><defs><style>.cls-1{fill:url(#linear-gradient);}.cls-2{fill:url(#linear-gradient-2);}.cls-3{fill:url(#linear-gradient-3);}.cls-4{fill:url(#linear-gradient-4);}.cls-5{fill:#bdbdbd;}.cls-6{fill:url(#linear-gradient-5);}.cls-7{fill:url(#linear-gradient-6);}.cls-8{fill:#8b8b8b;}.cls-9{fill:url(#linear-gradient-7);}.cls-10{fill:url(#linear-gradient-8);}.cls-11{fill:url(#linear-gradient-9);}.cls-12{fill:#005eff;}.cls-13{fill:#3d3d3d;}.cls-14{fill:url(#linear-gradient-10);}.cls-15{fill:url(#linear-gradient-11);}.cls-16{fill:url(#linear-gradient-12);}.cls-17{fill:url(#linear-gradient-13);}.cls-18{fill:url(#linear-gradient-14);}.cls-19{fill:url(#linear-gradient-15);}.cls-20{fill:url(#linear-gradient-16);}</style><linearGradient id="linear-gradient" x1="244.86" y1="208.07" x2="285.5" y2="137.69" gradientUnits="userSpaceOnUse"><stop offset="0" stop-color="#f3f3f3"/><stop offset="1" stop-color="#dcdcdc"/></linearGradient><linearGradient id="linear-gradient-2" x1="325.92" y1="297.94" x2="366.72" y2="297.94" gradientUnits="userSpaceOnUse"><stop offset="0" stop-color="#a4a4a4"/><stop offset="1" stop-color="#bebebe"/></linearGradient><linearGradient id="linear-gradient-3" x1="163.45" y1="286.08" x2="244.86" y2="286.08" gradientUnits="userSpaceOnUse"><stop offset="0" stop-color="#dcdcdc"/><stop offset="1" stop-color="#bebebe"/></linearGradient><linearGradient id="linear-gradient-4" x1="244.75" y1="314.46" x2="325.92" y2="314.46" gradientUnits="userSpaceOnUse"><stop offset="0" stop-color="#bebebe"/><stop offset="1" stop-color="#a4a4a4"/></linearGradient><linearGradient id="linear-gradient-5" x1="173.6" y1="215.81" x2="356.57" y2="215.81" gradientUnits="userSpaceOnUse"><stop offset="0" stop-color="#3d3d3d"/><stop offset="0.26" stop-color="#404040"/><stop offset="0.44" stop-color="#494949"/><stop offset="0.6" stop-color="#595959"/><stop offset="0.75" stop-color="#6f6f6f"/><stop offset="0.81" stop-color="#626262"/><stop offset="0.89" stop-color="#595959"/><stop offset="1" stop-color="#565656"/></linearGradient><linearGradient id="linear-gradient-6" x1="173.6" y1="247.09" x2="356.57" y2="247.09" xlink:href="#linear-gradient-5"/><linearGradient id="linear-gradient-7" x1="285.39" y1="125.93" x2="305.7" y2="125.93" xlink:href="#linear-gradient-2"/><linearGradient id="linear-gradient-8" x1="270.09" y1="105.44" x2="280.27" y2="87.8" xlink:href="#linear-gradient"/><linearGradient id="linear-gradient-9" x1="244.75" y1="114.22" x2="285.41" y2="114.22" xlink:href="#linear-gradient-3"/><linearGradient id="linear-gradient-10" x1="173.6" y1="278.38" x2="356.57" y2="278.38" xlink:href="#linear-gradient-5"/><linearGradient id="linear-gradient-11" x1="173.6" y1="309.67" x2="356.57" y2="309.67" xlink:href="#linear-gradient-5"/><linearGradient id="linear-gradient-12" x1="244.9" y1="383.93" x2="356.49" y2="383.93" gradientUnits="userSpaceOnUse"><stop offset="0" stop-color="#3d3d3d"/><stop offset="0.21" stop-color="#404040"/><stop offset="0.35" stop-color="#494949"/><stop offset="0.48" stop-color="#595959"/><stop offset="0.6" stop-color="#6f6f6f"/><stop offset="0.7" stop-color="#626262"/><stop offset="0.82" stop-color="#595959"/><stop offset="1" stop-color="#565656"/></linearGradient><linearGradient id="linear-gradient-13" x1="244.9" y1="352.73" x2="356.49" y2="352.73" xlink:href="#linear-gradient-12"/><linearGradient id="linear-gradient-14" x1="173.81" y1="350.69" x2="194.1" y2="315.55" xlink:href="#linear-gradient"/><linearGradient id="linear-gradient-15" x1="194.35" y1="354.66" x2="234.61" y2="354.66" xlink:href="#linear-gradient-2"/><linearGradient id="linear-gradient-16" x1="133.28" y1="348.81" x2="194.35" y2="348.81" xlink:href="#linear-gradient-3"/></defs><polygon class="cls-1" points="244.76 114.17 163.91 160.85 285.41 231.48 366.64 184.57 244.76 114.17"/><polygon class="cls-2" points="366.72 325.38 366.64 184.57 325.92 207.98 325.92 270.55 325.92 348.74 325.92 411.32 366.72 387.96 366.69 325.4 366.72 325.38"/><polygon class="cls-3" points="163.91 160.85 163.45 301.89 163.66 302.01 163.45 364.47 244.86 411.32 244.86 348.74 244.86 270.55 244.86 207.98 163.91 160.85"/><path class="cls-4" d="M244.86,208l-.11-.07V411.25l.11.07c22.38,12.92,58.67,12.92,81.06,0V208C303.53,220.9,267.24,220.9,244.86,208Z"/><ellipse class="cls-5" cx="285.39" cy="184.58" rx="40.64" ry="23.46"/><path class="cls-6" d="M356.53,202.18l-30.46,17.55c-22.39,12.93-58.68,12.93-81.06,0l-.11-.06-71.26-40.95,0,23.45,71.3,41,.11.07c22.38,12.92,58.67,12.92,81.06,0l30.5-17.58Z"/><path class="cls-7" d="M356.53,233.47,326.07,251c-22.39,12.93-58.68,12.93-81.06,0l-.11-.06L173.64,210l0,23.45,71.3,41,.11.07c22.38,12.92,58.67,12.92,81.06,0l30.5-17.58Z"/><path class="cls-8" d="M289.29,189.37l-12.11-7-12.28,7.09-5.49-3.17,29-16.77L294,172.7l-11.9,6.87,12.11,7,11.9-6.87,5.49,3.17-29,16.77-5.5-3.17Z"/><polygon class="cls-9" points="285.41 114.2 305.59 102.49 305.69 149.36 285.39 137.63 285.41 114.2"/><polygon class="cls-10" points="265.01 78.99 305.59 102.49 285.41 114.2 244.75 90.81 265.01 78.99"/><polygon class="cls-11" points="244.76 114.17 244.75 90.81 285.41 114.2 285.39 137.63 244.76 114.17"/><path class="cls-12" d="M263.61,120.62v-5.71L259,112.26v-3.08l4.58,2.65v-5.74l2.9,1.67v5.74l4.58,2.65v3.08l-4.58-2.65v5.71Z"/><path class="cls-12" d="M294.89,127.69V122l-4.58,2.64v-3.08l4.58-2.64v-5.74l2.9-1.68v5.74l4.58-2.64v3.08l-4.58,2.64V126Z"/><polygon class="cls-13" points="173.6 370.3 173.6 322.83 234.61 358.07 234.61 405.54 173.6 370.3"/><path class="cls-14" d="M356.53,264.76l-30.46,17.55c-22.39,12.92-58.68,12.92-81.06,0l-.11-.07-71.26-41,0,23.45,71.3,41a.41.41,0,0,0,.11.07c22.38,12.92,58.67,12.92,81.06,0l30.5-17.57Z"/><path class="cls-15" d="M356.53,296l-30.46,17.55c-22.39,12.92-58.68,12.92-81.06,0l-.11-.07-71.26-40.94,0,23.45,71.3,41,.11.06c22.38,12.93,58.67,12.93,81.06,0l30.5-17.57Z"/><path class="cls-16" d="M356.46,358.61l-30.39,17.48C303.68,389,267.39,389,245,376.09a.41.41,0,0,1-.11-.07V399.5l.11.06c22.38,12.93,58.67,12.93,81.06,0l30.42-17.5Z"/><path class="cls-17" d="M356.46,327.41l-30.39,17.48c-22.39,12.92-58.68,12.92-81.06,0l-.11-.07V368.3l.11.06c22.38,12.93,58.67,12.93,81.06,0l30.42-17.5Z"/><polygon class="cls-18" points="234.61 338.97 173.63 303.73 153.37 315.55 153.4 315.56 133.28 327.29 194.35 362.43 214.52 350.71 214.45 350.68 234.61 338.97"/><polygon class="cls-19" points="194.35 370.34 194.35 362.43 234.61 338.97 234.61 346.89 194.35 370.34"/><polygon class="cls-20" points="133.28 327.29 133.28 335.2 194.35 370.34 194.35 362.43 133.28 327.29"/><path class="cls-12" d="M170.2,338,179,333l-8.14-4.7,4.74-2.73,8.14,4.7,8.83-5.1,5.15,3-8.83,5.1,8.14,4.7-4.74,2.73-8.14-4.7L175.35,341Z"/></svg>