<svg id="Objects" xmlns="http://www.w3.org/2000/svg" xmlns:xlink="http://www.w3.org/1999/xlink" width="500" height="500" viewBox="0 0 500 500"><defs><style>.cls-1{fill:url(#linear-gradient);}.cls-2{fill:url(#linear-gradient-2);}</style><linearGradient id="linear-gradient" x1="886.05" y1="-826.86" x2="735.81" y2="-1087.08" gradientTransform="translate(-177.01 -889.9) rotate(120)" gradientUnits="userSpaceOnUse"><stop offset="0" stop-color="#a4a4a4"/><stop offset="0.45" stop-color="#8c8c8c"/><stop offset="0.55" stop-color="#6f6f6f"/><stop offset="1" stop-color="#8c8c8c"/></linearGradient><linearGradient id="linear-gradient-2" x1="204.08" y1="313.91" x2="288.49" y2="167.72" gradientUnits="userSpaceOnUse"><stop offset="0" stop-color="#bebebe"/><stop offset="1" stop-color="#a4a4a4"/></linearGradient></defs><path class="cls-1" d="M396.52,240.81v13.7c-.16,6.49-4.52,13-13.1,17.91L278,333.35c-17.48,10.1-45.83,10.1-63.32,0l-105.48-60.9c-8.75-5.05-13.12-11.67-13.11-18.29V240.82"/><path class="cls-2" d="M278,320c-17.48,10.1-45.83,10.1-63.32,0l-105.48-60.9c-17.49-10.1-17.49-26.46,0-36.56l105.5-60.9c17.48-10.1,45.83-10.1,63.31,0l105.44,60.87c17.48,10.09,17.48,26.46,0,36.56Z"/></svg>