<svg id="Objects" xmlns="http://www.w3.org/2000/svg" xmlns:xlink="http://www.w3.org/1999/xlink" width="500" height="500" viewBox="0 0 500 500"><defs><style>.cls-1{fill:url(#linear-gradient);}.cls-2{fill:#f4f4f4;}.cls-3{fill:url(#linear-gradient-2);}.cls-4{fill:#fff;}.cls-5{fill:#2b303f;}.cls-6{fill:#6f6f6f;}</style><linearGradient id="linear-gradient" x1="356.3" y1="345.86" x2="236.39" y2="138.16" gradientUnits="userSpaceOnUse"><stop offset="0" stop-color="#408bfc"/><stop offset="0" stop-color="#3b88fc"/><stop offset="0.02" stop-color="#257afd"/><stop offset="0.04" stop-color="#146ffe"/><stop offset="0.07" stop-color="#0968ff"/><stop offset="0.11" stop-color="#0263ff"/><stop offset="0.21" stop-color="#0062ff"/><stop offset="0.57" stop-color="#6ea6ff"/><stop offset="1" stop-color="#97c1ff"/></linearGradient><linearGradient id="linear-gradient-2" x1="186.42" y1="256.37" x2="356.2" y2="256.37" gradientUnits="userSpaceOnUse"><stop offset="0" stop-color="#6ea6ff"/><stop offset="1" stop-color="#408bfc"/></linearGradient></defs><path class="cls-1" d="M381.09,291c0-54-37.91-119.67-84.68-146.68-23.62-13.63-48.18-11.78-60.34-5.64l-2.57,1.43-25.09,14.16,3.36,36.91c0,.68-.05,1.34-.05,2,0,53.17,36.78,117.58,82.56,145.32l38.4,20.9L356,346.06h0C371.47,337.28,381.09,318.24,381.09,291Z"/><ellipse class="cls-2" cx="271.32" cy="256.38" rx="63.11" ry="109.31" transform="translate(-91.84 170.01) rotate(-30)"/><path class="cls-3" d="M271.32,354.39c-46.8-27-84.9-93-84.9-147s38.14-76,84.9-49,84.88,93,84.88,147S318.12,381.4,271.32,354.39Z"/><path class="cls-4" d="M271.32,175.9c-38.43-22.19-69.69-4.15-69.69,40.23s31.26,98.52,69.69,120.71S341,341,341,296.61,309.76,198.07,271.32,175.9Zm0,141.2c-29-16.76-52.59-57.62-52.59-91.1s23.58-47.11,52.59-30.35,52.59,57.59,52.59,91.07S300.31,333.83,271.32,317.1Z"/><path class="cls-4" d="M271.32,213.19c-20.62-11.91-37.4-2.24-37.4,21.59s16.78,52.86,37.4,64.77,37.45,2.31,37.45-21.61S291.94,225.08,271.32,213.19Zm0,67.2c-11.46-6.73-20.8-22.8-20.8-36s9.34-18.63,20.8-12,20.8,22.78,20.8,36S282.79,287,271.32,280.39Z"/><path class="cls-2" d="M271.32,249.9c-3.1-1.8-5.61-.34-5.61,3.23a12.41,12.41,0,0,0,5.61,9.71c3.1,1.78,5.61.34,5.61-3.25A12.35,12.35,0,0,0,271.32,249.9Z"/><polygon class="cls-5" points="126.69 338.66 118.91 338.75 144.17 328.02 129.52 337.13 126.69 338.66"/><polygon class="cls-5" points="132.01 349.92 130.15 342.18 150.48 329.21 149.6 331.05 132.01 349.92"/><path class="cls-6" d="M130.15,342.25c.18-.16,142.94-82.68,142.94-82.68l-2.62-4.94L127.25,337.38Z"/></svg>