<svg id="Objects" xmlns="http://www.w3.org/2000/svg" xmlns:xlink="http://www.w3.org/1999/xlink" width="500" height="500" viewBox="0 0 500 500"><defs><style>.cls-1{isolation:isolate;}.cls-2{fill:#282828;}.cls-3{fill:#565656;}.cls-4{fill:#3d3d3d;}.cls-5{fill:url(#linear-gradient);}.cls-6{fill:#6f6f6f;}.cls-7{fill:url(#linear-gradient-2);}.cls-8{fill:url(#linear-gradient-3);}.cls-9{fill:#8c8c8c;}.cls-10{fill:url(#linear-gradient-4);}.cls-11{fill:url(#linear-gradient-5);}.cls-12{fill:url(#linear-gradient-6);}.cls-13{fill:url(#linear-gradient-7);}.cls-14{fill:url(#linear-gradient-8);}.cls-15{fill:url(#linear-gradient-9);}.cls-16{fill:url(#linear-gradient-10);}.cls-17{fill:#383d42;}.cls-18{fill:url(#linear-gradient-11);}.cls-19{fill:url(#linear-gradient-12);}.cls-20{fill:url(#linear-gradient-13);}.cls-21{fill:url(#linear-gradient-14);}.cls-22{fill:url(#linear-gradient-15);}</style><linearGradient id="linear-gradient" x1="255.87" y1="327.14" x2="314.3" y2="327.14" gradientUnits="userSpaceOnUse"><stop offset="0" stop-color="#6f6f6f"/><stop offset="1" stop-color="#8c8c8c"/></linearGradient><linearGradient id="linear-gradient-2" x1="257.37" y1="299.18" x2="303.67" y2="299.18" gradientUnits="userSpaceOnUse"><stop offset="0" stop-color="#565656"/><stop offset="1" stop-color="#6f6f6f"/></linearGradient><linearGradient id="linear-gradient-3" x1="251.71" y1="319.45" x2="255.87" y2="319.45" xlink:href="#linear-gradient-2"/><linearGradient id="linear-gradient-4" x1="215.58" y1="293.92" x2="244.83" y2="293.92" gradientUnits="userSpaceOnUse"><stop offset="0" stop-color="#8c8c8c"/><stop offset="1" stop-color="#6f6f6f"/></linearGradient><linearGradient id="linear-gradient-5" x1="241.4" y1="338.67" x2="251.71" y2="338.67" gradientUnits="userSpaceOnUse"><stop offset="0" stop-color="#6f6f6f"/><stop offset="1" stop-color="#565656"/></linearGradient><linearGradient id="linear-gradient-6" x1="232.32" y1="349.49" x2="278.17" y2="270.07" gradientUnits="userSpaceOnUse"><stop offset="0" stop-color="#bebebe"/><stop offset="1" stop-color="#a4a4a4"/></linearGradient><linearGradient id="linear-gradient-7" x1="179.21" y1="320.63" x2="244.01" y2="320.63" xlink:href="#linear-gradient"/><linearGradient id="linear-gradient-8" x1="244.83" y1="307.98" x2="256.5" y2="307.98" gradientUnits="userSpaceOnUse"><stop offset="0" stop-color="#a4a4a4"/><stop offset="0.65" stop-color="#6f6f6f"/><stop offset="0.79" stop-color="#727272"/><stop offset="0.9" stop-color="#7c7c7c"/><stop offset="1" stop-color="#8c8c8c"/></linearGradient><linearGradient id="linear-gradient-9" x1="248.6" y1="304.69" x2="252.73" y2="297.55" xlink:href="#linear-gradient-6"/><linearGradient id="linear-gradient-10" x1="246.48" y1="277.1" x2="254.69" y2="277.1" xlink:href="#linear-gradient-8"/><linearGradient id="linear-gradient-11" x1="175.64" y1="242.87" x2="311.4" y2="242.87" gradientUnits="userSpaceOnUse"><stop offset="0" stop-color="#565656"/><stop offset="1" stop-color="#3d3d3d"/></linearGradient><linearGradient id="linear-gradient-12" x1="247.85" y1="143.26" x2="321.25" y2="143.26" xlink:href="#linear-gradient-11"/><linearGradient id="linear-gradient-13" x1="243.48" y1="224.81" x2="321.25" y2="224.81" gradientUnits="userSpaceOnUse"><stop offset="0" stop-color="#171717"/><stop offset="1" stop-color="#282828"/></linearGradient><linearGradient id="linear-gradient-14" x1="175.64" y1="265.6" x2="243.48" y2="265.6" gradientUnits="userSpaceOnUse"><stop offset="0" stop-color="#3d3d3d"/><stop offset="1" stop-color="#282828"/></linearGradient><linearGradient id="linear-gradient-15" x1="243.5" y1="184.01" x2="315.91" y2="184.01" xlink:href="#linear-gradient-14"/></defs><g class="cls-1"><path class="cls-2" d="M304.34,292a11.57,11.57,0,0,0-3.95,8.27c0,2.91,1.79,3.95,4,2.3a11.54,11.54,0,0,0,3.94-8.27C308.3,291.36,306.52,290.32,304.34,292Z"/><path class="cls-3" d="M304.34,293.55a8.12,8.12,0,0,0-2.76,5.79c0,2,1.25,2.77,2.78,1.62a8.08,8.08,0,0,0,2.76-5.79C307.12,293.13,305.87,292.4,304.34,293.55Z"/><path class="cls-4" d="M293.57,297a1.55,1.55,0,0,0,0-.22s0-.09,0-.14v-.08c0-.07,0-.15,0-.22l0-.23v-.08a.77.77,0,0,0,0-.15c0-.07,0-.15,0-.22l0-.18v-.05c0-.07,0-.14.05-.21s0-.13,0-.2l0-.12v-.08l.05-.17c0-.06,0-.12.05-.18a.88.88,0,0,1,.05-.15v0h0a.56.56,0,0,0,0-.12c0-.05,0-.1.05-.15s0-.1.05-.14l.05-.14v0h0a1,1,0,0,0,0-.1s0-.09.05-.14l.06-.15.07-.16v0h0l.06-.16c0-.09.08-.18.13-.27a.14.14,0,0,1,0-.06L295,292h0l.14-.25a1.62,1.62,0,0,1,.1-.18.22.22,0,0,1,.05-.08v0l0-.05.09-.15.09-.14a.71.71,0,0,1,.1-.14v0h0l.07-.11.1-.15.11-.15.05-.06,0,0a.18.18,0,0,1,.05-.07l.13-.17.15-.17v0l0,0,.12-.14.17-.18.06-.07,0,0,.07-.07.17-.16.12-.11,0,0,0,0,.16-.15.17-.13,0,0,.12-.09.16-.11.08,0,0,0,0,0,.16-.09.13-.07h0l.15-.07.17-.07h0l.13-.05.17,0H299l.13,0,.17,0h.44l.09,0,.13,0H300l.16.07h0l6.82,3-.22-.08-.13,0-.17,0h-.36l-.3.05h0a1.92,1.92,0,0,0-.32.09h0a2.52,2.52,0,0,0-.34.15h0c-.11.05-.22.12-.34.19l0,0a3.9,3.9,0,0,0-.36.25c-.14.1-.27.21-.4.32l0,0-.36.35,0,0c-.12.12-.23.25-.35.38l0,0c-.11.14-.23.28-.34.43l0,0a4.84,4.84,0,0,0-.33.46h0c-.11.16-.22.33-.32.5v0c-.1.17-.2.34-.29.52s-.22.42-.32.64-.15.32-.22.48h0c-.08.19-.16.38-.23.57h0c-.07.19-.14.38-.2.57h0c-.06.19-.11.38-.16.57v0l-.12.56v0l-.09.55v0c0,.18,0,.36-.06.54v0c0,.18,0,.36,0,.54a4.63,4.63,0,0,0,0,.54v0l.06.46v0a3.89,3.89,0,0,0,.1.4s0,0,0,.06a3.62,3.62,0,0,0,.13.35l.06.11a2.25,2.25,0,0,0,.12.21l.07.11.13.17.09.09.16.14.08.07.27.15h0l-6.82-3a1.48,1.48,0,0,1-.27-.16l-.08-.06a1.07,1.07,0,0,1-.16-.14l-.09-.09-.13-.17-.07-.11-.05-.06-.07-.16-.06-.11,0,0a2,2,0,0,1-.09-.26.08.08,0,0,1,0-.05s0,0,0-.06a.56.56,0,0,0,0-.12c0-.08,0-.15-.05-.23v-.09a.51.51,0,0,0,0-.13l0-.22s0-.08,0-.12v0a.13.13,0,0,1,0-.06c0-.07,0-.14,0-.22s0-.14,0-.22V297Z"/></g><g class="cls-1"><path class="cls-2" d="M315,339.91c-3.51.42-6.34,3.12-6.33,6s2.85,4.94,6.36,4.52,6.35-3.13,6.34-6.05S318.5,339.48,315,339.91Z"/><path class="cls-4" d="M306.93,341c0-.1,0-.19,0-.28s0-.14,0-.21v-.06a2.51,2.51,0,0,1,0-.27c0-.07,0-.14,0-.21V340a2,2,0,0,0,.07-.26c0-.07.05-.15.08-.22v0h0a2,2,0,0,1,.1-.26,2.14,2.14,0,0,1,.1-.22v0h0a2.44,2.44,0,0,1,.14-.28l.09-.15a.25.25,0,0,1,0-.07l0-.06.2-.3,0-.05.08-.1.13-.17.11-.13.13-.15.08-.09.11-.11.29-.27.09-.09.07-.05a5.54,5.54,0,0,1,.77-.58l.13-.09a8.24,8.24,0,0,1,.88-.48l0,0,.2-.08.37-.15.07,0,.4-.13.08,0h0l.42-.1.13,0,.12,0,.14,0,.36-.06h.08l.26,0,.33,0h.62l.3,0,.3,0,.27,0h0l.29.06.31.08a1.81,1.81,0,0,1,.31.09h0l.31.11.35.15.14.08.09,0,.15.08c.15.09.3.18.44.28l.07.06.18.15c.14.12.28.24.41.37l.18.2a2.75,2.75,0,0,1,.32.44,1.43,1.43,0,0,1,.14.2,4.37,4.37,0,0,1,.33.69l1.72,4.89a3.45,3.45,0,0,0-.33-.7l-.13-.2a4.8,4.8,0,0,0-.32-.43l-.18-.2a3.79,3.79,0,0,0-.42-.38l-.18-.15a4.77,4.77,0,0,0-.65-.41l-.09-.05a5.16,5.16,0,0,0-.8-.33h0a7,7,0,0,0-.93-.22h0a7.92,7.92,0,0,0-1-.09h0a7.57,7.57,0,0,0-1.05.06c-.2,0-.39,0-.59.09l-.12,0-.56.14-.07,0-.47.15-.38.16-.22.09a9.58,9.58,0,0,0-.89.49l-.13.08a7.38,7.38,0,0,0-.77.58l-.16.14c-.09.09-.19.18-.28.28l-.19.19-.14.16a3.25,3.25,0,0,0-.23.29l-.08.1a4.81,4.81,0,0,0-.27.41l-.05.08-.24.44v0c-.07.16-.14.32-.2.48v0c-.05.17-.1.34-.14.51v0a4.54,4.54,0,0,0-.09.51v0a4.41,4.41,0,0,0,0,.52,3.82,3.82,0,0,0,.06.68s0,.05,0,.08a3.55,3.55,0,0,0,.17.64l-1.73-4.89s0-.08,0-.13-.07-.24-.1-.37l0-.14s0-.05,0-.07,0-.08,0-.12l0-.3a2.44,2.44,0,0,1,0-.27Z"/></g><path class="cls-3" d="M315,341.49c-2.46.3-4.44,2.19-4.44,4.24s2,3.46,4.46,3.16,4.44-2.19,4.43-4.23S317.45,341.2,315,341.49Z"/><g class="cls-1"><path class="cls-2" d="M236.92,361.68c-2.84-1.25-5.14.13-5.15,3.08a9,9,0,0,0,5.1,7.61c2.83,1.25,5.14-.12,5.15-3.08A9.08,9.08,0,0,0,236.92,361.68Z"/><path class="cls-3" d="M236.91,363.29c-2-.88-3.6.09-3.61,2.15a6.37,6.37,0,0,0,3.58,5.33c2,.87,3.59-.09,3.6-2.16A6.34,6.34,0,0,0,236.91,363.29Z"/><path class="cls-4" d="M235.45,361.26l-.13,0h-.65a1.63,1.63,0,0,0-.31,0l-.13,0-.31.08-.08,0a3,3,0,0,0-.36.16l-.08,0a2.9,2.9,0,0,0-.33.2h0l5.28-3.85.18-.12.14-.07.08-.05,0,0,.28-.12h0l.08,0,.2-.06.12,0,.13,0,.09,0,.22,0h.68l.1,0c.18,0,.36.06.55.11l.11,0,.08,0a5.2,5.2,0,0,1,.72.26,8.14,8.14,0,0,1,.77.41l.09,0,.06,0c.22.14.44.29.66.46l0,0,.17.15.27.22,0,.05.22.21.15.14,0,0c.12.12.24.24.35.37v0l.06.07a3.11,3.11,0,0,1,.23.28l.07.09a1.13,1.13,0,0,1,.1.13l.11.15c0,.06.09.13.14.2l.08.12,0,.05.24.39,0,0,0,.09c.06.1.11.2.17.29a1.17,1.17,0,0,0,0,.11,1.3,1.3,0,0,1,.08.17,1.09,1.09,0,0,1,.08.15c0,.06,0,.13.08.19a1.54,1.54,0,0,1,.08.19l0,.09c0,.07.05.15.08.22l.09.25a.19.19,0,0,1,0,.07c0,.05,0,.1.05.16s.07.27.11.4l0,.1a.59.59,0,0,0,0,.13c0,.15.06.31.08.47a1.5,1.5,0,0,1,0,.2,4.87,4.87,0,0,1,0,.66,3.53,3.53,0,0,1-1.31,3l-5.27,3.84a3.56,3.56,0,0,0,1.31-3c0-.22,0-.43,0-.65l0-.21a3.85,3.85,0,0,0-.08-.47,1.89,1.89,0,0,0-.05-.23c0-.13-.07-.27-.11-.4l-.06-.23-.09-.25-.12-.31a1.54,1.54,0,0,1-.08-.19l-.16-.34-.08-.17c-.07-.13-.14-.26-.22-.39l-.05-.09c-.09-.16-.19-.32-.29-.47l-.08-.12-.25-.35-.1-.13-.3-.37-.06-.07-.39-.42-.14-.14L239,363l-.26-.23-.2-.17c-.22-.17-.44-.32-.66-.46l-.15-.09a8.14,8.14,0,0,0-.77-.41c-.25-.1-.49-.19-.72-.26l-.19-.05C235.82,361.32,235.63,361.29,235.45,361.26Z"/></g><g class="cls-1"><path class="cls-2" d="M215.17,284.8c-3.19-1-5.94.52-6.13,3.48s2.25,6.2,5.44,7.24,5.94-.51,6.13-3.47S218.37,285.84,215.17,284.8Z"/><path class="cls-4" d="M220.6,291.23c0-.14,0-.28-.06-.42s0-.16,0-.23-.06-.27-.1-.4a2,2,0,0,0-.07-.23c0-.14-.09-.27-.14-.41s-.05-.13-.08-.2a5,5,0,0,0-.25-.52l0-.08c0-.07-.09-.14-.13-.22s-.11-.2-.18-.3l-.07-.11-.26-.37-.1-.13c-.08-.11-.17-.21-.26-.32a1.42,1.42,0,0,0-.12-.13c-.09-.11-.19-.22-.29-.32l-.09-.09-.41-.38-.11-.09-.34-.27-.15-.11-.32-.22-.18-.11a3.14,3.14,0,0,0-.31-.18l-.22-.12-.21-.1-.42-.19a4.09,4.09,0,0,0-.49-.18,6.5,6.5,0,0,0-.84-.22c-.22,0-.43-.07-.65-.09H213l-.24,0-.4.05-.26.06-.37.1-.17.06c-.17.07-.34.14-.49.22h0a3.64,3.64,0,0,0-.46.3l-.08.06a3.89,3.89,0,0,0-.43.38l3.86-4.14.09-.1.26-.23.07,0,.09-.06.13-.11.33-.2h0a3,3,0,0,1,.36-.18l.13,0,.17-.06.15-.05.22,0,.26-.06.11,0a2.58,2.58,0,0,1,.29,0l.24,0h.71a5.39,5.39,0,0,1,.56.08h.06a6.45,6.45,0,0,1,.84.21l.41.15.08,0,.42.18.16.08.05,0,.22.12.24.14.07,0,.17.12.2.12.13.1.15.11.12.09a1.92,1.92,0,0,1,.22.18l.11.09,0,0,.34.31,0,0,.09.1.2.2.09.11.12.14.1.11a1.56,1.56,0,0,0,.16.2l.1.14,0,0,.22.32.07.11h0l.17.29a1.55,1.55,0,0,1,.12.22h0l0,.07c.09.17.17.34.25.51l0,.06c0,.05,0,.1.05.15s.1.27.14.4a2.17,2.17,0,0,1,.07.24c0,.13.07.26.1.39s0,.16,0,.23a3.34,3.34,0,0,1,0,.43,1.23,1.23,0,0,1,0,.2,4.14,4.14,0,0,1,0,.61,4,4,0,0,1-1,2.54l-3.85,4.14a4,4,0,0,0,1-2.53,3.21,3.21,0,0,0,0-.62C220.61,291.36,220.6,291.3,220.6,291.23Z"/><path class="cls-3" d="M215.07,286.41c-2.24-.73-4.16.36-4.29,2.43a5.48,5.48,0,0,0,3.8,5.08c2.24.73,4.17-.37,4.3-2.44A5.47,5.47,0,0,0,215.07,286.41Z"/></g><g class="cls-1"><path class="cls-4" d="M172.64,331.51a1.7,1.7,0,0,1,0-.22.34.34,0,0,1,0-.1v-.05a.17.17,0,0,1,0-.07,1.79,1.79,0,0,1,0-.23l0-.23h0l0-.21c0-.08,0-.16.05-.24a.29.29,0,0,0,0-.09V330l0-.1.06-.25a1.21,1.21,0,0,0,0-.18v-.06c0-.08.05-.16.08-.23a2.25,2.25,0,0,1,.08-.24l0-.05v0l.05-.14.09-.22.07-.18v0l.1-.22a2.56,2.56,0,0,0,.11-.24l0-.05,0,0a.8.8,0,0,1,.08-.16,3.72,3.72,0,0,1,.19-.34h0c.13-.22.26-.43.4-.64l0-.07.21-.29,0-.06v0c.07-.08.13-.17.2-.26l.15-.18v0h0l.18-.21.17-.19,0,0,0,0,.13-.14.19-.19.06-.05,0,0,.1-.1.21-.17.08-.08.05,0,.07-.06.2-.15.14-.11,0,0,0,0,.19-.13.2-.12,0,0,.15-.08.18-.1.12-.06h0l0,0,.18-.08.19-.07h.06l.12,0,.19-.05.09,0h.1l.2,0h.66l.26,0h0l.28.08h0a1.58,1.58,0,0,1,.35.16l6.09,3.51-.35-.16-.3-.08h0a2.09,2.09,0,0,0-.35,0h-.46l-.38.06h0a3,3,0,0,0-.4.12h0l-.43.17,0,0-.46.23c-.15.09-.31.19-.46.3l0,0-.42.31,0,0a4.32,4.32,0,0,0-.39.34l-.05,0-.38.39,0,0c-.13.14-.26.29-.38.44h0l-.36.47,0,.06a3.27,3.27,0,0,0-.25.36c-.14.2-.27.42-.4.64l-.27.5,0,.06c-.08.17-.17.35-.25.53v0c-.08.18-.15.35-.22.53v0c-.07.18-.13.36-.19.55v0a4.58,4.58,0,0,0-.14.53l0,.05c0,.18-.07.36-.1.54h0c0,.18,0,.36-.07.54v0a4.78,4.78,0,0,0,0,.53c0,.18,0,.35,0,.51v0a2.79,2.79,0,0,0,.06.43v.06c0,.13.06.26.1.38s0,.05,0,.07.08.22.13.33v0a2.59,2.59,0,0,0,.19.33,2.08,2.08,0,0,0,.32.4l.08.08a2.25,2.25,0,0,0,.39.3L174,334.67a2.19,2.19,0,0,1-.39-.29l-.09-.09a2.57,2.57,0,0,1-.32-.39h0a3.07,3.07,0,0,1-.17-.31h0v0a1.89,1.89,0,0,1-.09-.21.56.56,0,0,1,0-.12.14.14,0,0,1,0-.06.14.14,0,0,1,0-.07,1.55,1.55,0,0,1-.07-.23s0-.06,0-.09v-.05a.29.29,0,0,1,0-.09l0-.22s0-.08,0-.12v-.1c0-.07,0-.14,0-.21a1.77,1.77,0,0,0,0-.23h0C172.63,331.65,172.64,331.58,172.64,331.51Z"/><path class="cls-2" d="M183.29,327.28a10.14,10.14,0,0,0-4.56,8c0,2.92,2.06,4.1,4.59,2.63a10.14,10.14,0,0,0,4.57-7.95C187.88,327,185.83,325.81,183.29,327.28Z"/></g><path class="cls-3" d="M183.3,328.87a7.12,7.12,0,0,0-3.2,5.57c0,2,1.45,2.86,3.22,1.83a7.12,7.12,0,0,0,3.2-5.57C186.51,328.66,185.07,327.84,183.3,328.87Z"/><polygon class="cls-5" points="314.3 339.3 255.87 322.71 255.87 314.98 312.48 331.63 314.3 333.95 314.3 339.3"/><polygon class="cls-6" points="316.55 331.61 314.69 329.43 312.48 331.63 314.3 333.95 316.55 331.61"/><polygon class="cls-3" points="316.55 331.61 316.55 337.05 314.3 339.3 314.3 333.95 316.55 331.61"/><polygon class="cls-7" points="303.67 285.64 302.1 284.15 257.37 310.11 257.78 312.58 263.33 314.22 303.67 290.82 303.67 285.64"/><polygon class="cls-8" points="255.87 322.71 255.87 314.98 251.71 316.18 251.71 323.92 255.87 322.71"/><polygon class="cls-9" points="243.91 321.52 245.49 322.26 247.2 315.9 244.01 313.92 243.91 321.52"/><polygon class="cls-10" points="215.58 282.84 215.58 276.71 216.51 276.24 244.83 308.39 244.83 309.74 243.28 311.39 241.04 311.6 215.58 282.84"/><polygon class="cls-6" points="241.74 352.43 241.4 355.24 237.07 355.21 237.34 352.4 241.74 352.43"/><polygon class="cls-3" points="237.07 355.21 241.4 355.24 241.4 361.15 237.07 361.13 237.07 355.21"/><polygon class="cls-11" points="251.71 323.92 241.4 361.15 241.4 355.24 241.74 352.43 251.71 316.18 251.71 323.92"/><polygon class="cls-6" points="180.26 317.05 181.14 319.64 179.21 321.5 178.47 318.92 180.26 317.05"/><polygon class="cls-3" points="179.21 321.5 179.21 327.35 178.5 325.14 178.47 318.92 179.21 321.5"/><polygon class="cls-12" points="257.78 312.58 257.37 310.11 302.1 284.15 299.15 282.18 256.5 306.83 248.64 306.45 220.48 274.96 216.51 276.24 244.83 308.39 243.28 311.4 180.26 317.05 181.14 319.64 244.01 313.92 247.21 315.9 237.34 352.4 241.74 352.43 251.71 316.18 255.87 314.98 312.48 331.63 314.69 329.43 257.78 312.58"/><polygon class="cls-13" points="244.01 313.92 181.14 319.64 179.21 321.5 179.21 327.35 243.91 321.52 244.01 313.92"/><path class="cls-14" d="M256.5,301.11H244.83v10.38a3,3,0,0,0,1.78,2.42,9.12,9.12,0,0,0,8.22-.06,2.92,2.92,0,0,0,1.67-2.37Z"/><ellipse class="cls-15" cx="250.67" cy="301.12" rx="5.83" ry="3.37"/><path class="cls-16" d="M254.69,250.72h-8.21V301.1a2.07,2.07,0,0,0,1.25,1.7,6.4,6.4,0,0,0,5.78,0,2,2,0,0,0,1.18-1.66Z"/><ellipse class="cls-9" cx="250.59" cy="250.73" rx="4.11" ry="2.37"/><polygon class="cls-17" points="316.4 246.18 243.49 288.32 175.65 249.06 248.47 206.96 316.4 246.18"/><polygon class="cls-18" points="311.4 242.81 243.49 282.14 175.65 242.88 243.49 203.6 311.4 242.81"/><polygon class="cls-19" points="321.25 161.3 315.91 164.39 247.85 125.21 253.2 122.12 321.25 161.3"/><polygon class="cls-20" points="243.49 282.14 243.49 288.32 316.4 246.18 321.25 161.3 315.91 164.39 311.4 242.81 243.49 282.14"/><polygon class="cls-21" points="175.65 242.88 175.65 249.06 243.49 288.32 243.49 282.14 175.65 242.88"/><polygon class="cls-22" points="315.91 164.39 311.43 242.8 243.5 203.58 247.85 125.21 315.91 164.39"/></svg>