<svg id="Objects" xmlns="http://www.w3.org/2000/svg" xmlns:xlink="http://www.w3.org/1999/xlink" width="500" height="500" viewBox="0 0 500 500"><defs><style>.cls-1{fill:#8b8b8b;}.cls-2{fill:url(#linear-gradient);}.cls-3{fill:url(#linear-gradient-2);}.cls-4{fill:url(#linear-gradient-3);}.cls-5{fill:url(#linear-gradient-4);}.cls-6{fill:url(#linear-gradient-5);}.cls-7{fill:url(#linear-gradient-6);}.cls-8{fill:#565656;}.cls-9{fill:url(#linear-gradient-7);}.cls-10{fill:url(#linear-gradient-8);}.cls-11{fill:url(#linear-gradient-9);}.cls-12{fill:url(#linear-gradient-10);}.cls-13{fill:url(#linear-gradient-11);}.cls-14{fill:url(#linear-gradient-12);}.cls-15{fill:url(#linear-gradient-13);}.cls-16{fill:#a3a3a3;}.cls-17{fill:url(#linear-gradient-14);}.cls-18{fill:url(#linear-gradient-15);}.cls-19{fill:url(#linear-gradient-16);}.cls-20{fill:#005eff;}.cls-21{fill:url(#linear-gradient-17);}.cls-22{fill:url(#linear-gradient-18);}.cls-23{fill:url(#linear-gradient-19);}.cls-24{fill:url(#linear-gradient-20);}.cls-25{fill:url(#linear-gradient-21);}.cls-26{fill:url(#linear-gradient-22);}.cls-27{fill:url(#linear-gradient-23);}.cls-28{fill:url(#linear-gradient-24);}.cls-29{fill:url(#linear-gradient-25);}</style><linearGradient id="linear-gradient" x1="73.03" y1="305.55" x2="426.97" y2="305.55" gradientUnits="userSpaceOnUse"><stop offset="0" stop-color="#565656"/><stop offset="0.19" stop-color="#4d4d4d"/><stop offset="0.4" stop-color="#3d3d3d"/><stop offset="0.69" stop-color="#3f3f3f"/><stop offset="0.86" stop-color="#484848"/><stop offset="1" stop-color="#565656"/><stop offset="1" stop-color="#565656"/></linearGradient><linearGradient id="linear-gradient-2" x1="171.73" y1="412.01" x2="321.04" y2="153.39" gradientUnits="userSpaceOnUse"><stop offset="0" stop-color="#f3f3f3"/><stop offset="1" stop-color="#dcdcdc"/></linearGradient><linearGradient id="linear-gradient-3" x1="364.74" y1="207.46" x2="414.48" y2="207.46" gradientUnits="userSpaceOnUse"><stop offset="0" stop-color="#a4a4a4"/><stop offset="1" stop-color="#bebebe"/></linearGradient><linearGradient id="linear-gradient-4" x1="333.59" y1="160.7" x2="346.07" y2="139.08" xlink:href="#linear-gradient-2"/><linearGradient id="linear-gradient-5" x1="277.62" y1="182.23" x2="377.16" y2="182.23" gradientUnits="userSpaceOnUse"><stop offset="0" stop-color="#dcdcdc"/><stop offset="1" stop-color="#bebebe"/></linearGradient><linearGradient id="linear-gradient-6" x1="402.02" y1="185.92" x2="408.29" y2="175.05" xlink:href="#linear-gradient-2"/><linearGradient id="linear-gradient-7" x1="377.13" y1="193.02" x2="402.04" y2="193.02" xlink:href="#linear-gradient-3"/><linearGradient id="linear-gradient-8" x1="284.23" y1="218.13" x2="296.71" y2="196.51" gradientUnits="userSpaceOnUse"><stop offset="0" stop-color="#bebebe"/><stop offset="1" stop-color="#a4a4a4"/></linearGradient><linearGradient id="linear-gradient-9" x1="240.69" y1="228.89" x2="315.38" y2="228.89" gradientUnits="userSpaceOnUse"><stop offset="0" stop-color="#a4a4a4"/><stop offset="1" stop-color="#8c8c8c"/></linearGradient><linearGradient id="linear-gradient-10" x1="315.35" y1="243.28" x2="340.26" y2="243.28" gradientUnits="userSpaceOnUse"><stop offset="0" stop-color="#6f6f6f"/><stop offset="1" stop-color="#8c8c8c"/></linearGradient><linearGradient id="linear-gradient-11" x1="259.31" y1="232.51" x2="271.79" y2="210.9" xlink:href="#linear-gradient-2"/><linearGradient id="linear-gradient-12" x1="215.77" y1="243.27" x2="290.47" y2="243.27" xlink:href="#linear-gradient-5"/><linearGradient id="linear-gradient-13" x1="290.43" y1="257.66" x2="315.35" y2="257.66" xlink:href="#linear-gradient-3"/><linearGradient id="linear-gradient-14" x1="209.53" y1="254.06" x2="271.75" y2="218.13" gradientUnits="userSpaceOnUse"><stop offset="0" stop-color="#97c1ff"/><stop offset="1" stop-color="#6ea6ff"/></linearGradient><linearGradient id="linear-gradient-15" x1="190.85" y1="257.67" x2="265.55" y2="257.67" gradientUnits="userSpaceOnUse"><stop offset="0" stop-color="#6ea6ff"/><stop offset="1" stop-color="#408bfc"/></linearGradient><linearGradient id="linear-gradient-16" x1="265.51" y1="272.06" x2="290.43" y2="272.06" gradientUnits="userSpaceOnUse"><stop offset="0" stop-color="#0062ff"/><stop offset="1" stop-color="#408bfc"/></linearGradient><linearGradient id="linear-gradient-17" x1="209.48" y1="261.29" x2="221.96" y2="239.68" xlink:href="#linear-gradient-8"/><linearGradient id="linear-gradient-18" x1="165.93" y1="272.05" x2="240.63" y2="272.05" xlink:href="#linear-gradient-9"/><linearGradient id="linear-gradient-19" x1="240.59" y1="286.44" x2="265.51" y2="286.44" xlink:href="#linear-gradient-10"/><linearGradient id="linear-gradient-20" x1="184.56" y1="275.68" x2="197.04" y2="254.07" xlink:href="#linear-gradient-2"/><linearGradient id="linear-gradient-21" x1="141.02" y1="286.44" x2="215.71" y2="286.44" xlink:href="#linear-gradient-5"/><linearGradient id="linear-gradient-22" x1="215.68" y1="300.83" x2="240.59" y2="300.83" xlink:href="#linear-gradient-3"/><linearGradient id="linear-gradient-23" x1="234.41" y1="210.91" x2="296.63" y2="174.99" xlink:href="#linear-gradient-14"/><linearGradient id="linear-gradient-24" x1="215.73" y1="214.52" x2="290.43" y2="214.52" xlink:href="#linear-gradient-15"/><linearGradient id="linear-gradient-25" x1="290.39" y1="228.91" x2="315.31" y2="228.91" xlink:href="#linear-gradient-16"/></defs><polygon class="cls-1" points="426.97 214.55 426.97 252.95 227.9 367.87 227.9 329.49 426.97 214.55"/><path class="cls-2" d="M227.9,329.49C215.25,336.8,193,346,169,353c-26.51,7.77-55.1,12.89-75.13,10a42.63,42.63,0,0,1-15.31-4.77c-3.76-2.17-5.4-5.75-5.49-10.22h0l2.21,31.77h0c.09,4.47,1.73,8.05,5.49,10.23h0c30.81,17.78,116.33-4.33,147.13-22.12h0L427,253v-38.4L227.9,329.49"/><path class="cls-3" d="M427,214.55l-99.55-57.48-99.54,57.48h0L128.36,272c-22.12,12.77-71.9,73.43-49.79,86.2h0C109.38,376,197.1,347.28,227.9,329.49L327.45,272h0Z"/><polygon class="cls-1" points="364.74 236.14 414.48 207.5 414.48 178.77 364.74 207.42 364.74 236.14"/><polygon class="cls-4" points="364.74 236.14 414.48 207.5 414.48 178.77 364.74 207.42 364.74 236.14"/><polygon class="cls-1" points="402.04 171.45 402.03 200.24 377.16 214.59 377.13 185.83 402.04 171.45"/><polygon class="cls-5" points="402.04 171.45 302.53 113.94 277.62 128.31 377.13 185.83 402.04 171.45"/><polygon class="cls-6" points="364.74 207.42 364.74 236.14 290.14 193.05 290.14 164.31 277.66 157.07 277.62 128.31 377.13 185.83 377.16 214.59 364.74 207.42"/><polygon class="cls-7" points="414.48 178.77 402.04 171.45 402.04 185.94 414.48 178.77"/><polygon class="cls-8" points="284.4 139.96 284.41 153.21 295.85 159.81 295.87 146.58 284.4 139.96"/><polygon class="cls-9" points="402.04 171.45 402.03 200.24 377.16 214.59 377.13 185.83 402.04 171.45"/><polygon class="cls-8" points="321.71 161.53 321.71 174.77 333.15 181.38 333.17 168.15 321.71 161.53"/><polygon class="cls-8" points="359.01 183.09 359.02 196.34 370.46 202.94 370.48 189.71 359.01 183.09"/><polygon class="cls-8" points="340.36 172.31 340.37 185.56 351.81 192.16 351.82 178.93 340.36 172.31"/><polygon class="cls-8" points="303.06 150.74 303.06 163.99 314.5 170.59 314.52 157.36 303.06 150.74"/><polygon class="cls-10" points="340.26 221.71 265.59 178.55 240.69 192.93 315.35 236.09 340.26 221.71"/><polygon class="cls-11" points="315.35 236.09 240.69 192.93 240.72 221.69 315.38 264.85 315.35 236.09"/><polygon class="cls-12" points="340.26 221.71 340.25 250.5 315.38 264.85 315.35 236.09 340.26 221.71"/><polygon class="cls-8" points="306.55 256.35 301.89 253.66 301.89 231.71 306.55 234.4 306.55 256.35"/><polygon class="cls-8" points="293.11 248.58 288.45 245.89 288.45 223.94 293.11 226.63 293.11 248.58"/><polygon class="cls-8" points="279.67 240.81 275.01 238.12 275.01 216.16 279.67 218.86 279.67 240.81"/><polygon class="cls-8" points="266.23 233.04 261.56 230.35 261.56 208.39 266.23 211.09 266.23 233.04"/><polygon class="cls-8" points="252.79 225.27 248.12 222.58 248.12 200.62 252.79 203.32 252.79 225.27"/><polygon class="cls-13" points="315.35 236.09 240.67 192.93 215.77 207.31 290.43 250.48 315.35 236.09"/><polygon class="cls-14" points="290.43 250.48 215.77 207.31 215.81 236.08 290.47 279.24 290.43 250.48"/><polygon class="cls-15" points="315.35 236.09 315.33 264.88 290.47 279.24 290.43 250.48 315.35 236.09"/><polygon class="cls-16" points="281.64 270.74 276.97 268.04 276.97 246.09 281.64 248.79 281.64 270.74"/><polygon class="cls-16" points="268.19 262.97 263.53 260.27 263.53 238.32 268.19 241.02 268.19 262.97"/><polygon class="cls-16" points="254.75 255.2 250.09 252.5 250.09 230.55 254.75 233.25 254.75 255.2"/><polygon class="cls-16" points="241.31 247.43 236.65 244.73 236.65 222.78 241.31 225.47 241.31 247.43"/><polygon class="cls-16" points="227.87 239.66 223.21 236.96 223.21 215.01 227.87 217.7 227.87 239.66"/><polygon class="cls-17" points="290.43 250.48 215.76 207.33 190.85 221.71 265.51 264.87 290.43 250.48"/><polygon class="cls-18" points="265.51 264.87 190.85 221.71 190.89 250.47 265.55 293.63 265.51 264.87"/><polygon class="cls-19" points="290.43 250.48 290.42 279.28 265.55 293.63 265.51 264.87 290.43 250.48"/><polygon class="cls-20" points="256.72 285.13 252.05 282.44 252.05 260.49 256.72 263.18 256.72 285.13"/><polygon class="cls-20" points="243.28 277.36 238.61 274.67 238.61 252.71 243.28 255.41 243.28 277.36"/><polygon class="cls-20" points="229.84 269.59 225.17 266.89 225.17 244.94 229.84 247.64 229.84 269.59"/><polygon class="cls-20" points="216.4 261.82 211.73 259.13 211.73 237.17 216.4 239.87 216.4 261.82"/><polygon class="cls-20" points="202.95 254.05 198.29 251.35 198.29 229.4 202.95 232.1 202.95 254.05"/><polygon class="cls-21" points="265.51 264.87 190.84 221.71 165.93 236.09 240.59 279.26 265.51 264.87"/><polygon class="cls-22" points="240.59 279.26 165.93 236.09 165.97 264.86 240.63 308.02 240.59 279.26"/><polygon class="cls-23" points="265.51 264.87 265.5 293.66 240.63 308.02 240.59 279.26 265.51 264.87"/><polygon class="cls-8" points="231.8 299.52 227.14 296.82 227.14 274.87 231.8 277.57 231.8 299.52"/><polygon class="cls-8" points="218.36 291.75 213.69 289.05 213.69 267.1 218.36 269.8 218.36 291.75"/><polygon class="cls-8" points="204.92 283.98 200.25 281.28 200.25 259.33 204.92 262.03 204.92 283.98"/><polygon class="cls-8" points="191.48 276.21 186.81 273.51 186.81 251.56 191.48 254.25 191.48 276.21"/><polygon class="cls-8" points="178.04 268.44 173.37 265.74 173.37 243.79 178.04 246.48 178.04 268.44"/><polygon class="cls-24" points="240.59 279.26 165.92 236.1 141.02 250.48 215.68 293.64 240.59 279.26"/><polygon class="cls-25" points="215.68 293.64 141.02 250.48 141.05 279.24 215.72 322.4 215.68 293.64"/><polygon class="cls-26" points="240.59 279.26 240.58 308.05 215.72 322.4 215.68 293.64 240.59 279.26"/><polygon class="cls-16" points="206.88 313.9 202.22 311.21 202.22 289.26 206.88 291.95 206.88 313.9"/><polygon class="cls-16" points="193.44 306.13 188.78 303.44 188.78 281.49 193.44 284.18 193.44 306.13"/><polygon class="cls-16" points="180 298.37 175.34 295.67 175.34 273.71 180 276.41 180 298.37"/><polygon class="cls-16" points="166.56 290.59 161.9 287.9 161.9 265.94 166.56 268.64 166.56 290.59"/><polygon class="cls-16" points="153.12 282.82 148.45 280.13 148.45 258.17 153.12 260.87 153.12 282.82"/><polygon class="cls-27" points="315.31 207.34 240.63 164.18 215.73 178.56 290.39 221.72 315.31 207.34"/><polygon class="cls-28" points="290.39 221.72 215.73 178.56 215.77 207.32 290.43 250.48 290.39 221.72"/><polygon class="cls-29" points="315.31 207.34 315.3 236.13 290.43 250.48 290.39 221.72 315.31 207.34"/><polygon class="cls-20" points="281.6 241.99 276.93 239.29 276.93 217.34 281.6 220.04 281.6 241.99"/><polygon class="cls-20" points="268.15 234.22 263.49 231.52 263.49 209.57 268.15 212.26 268.15 234.22"/><polygon class="cls-20" points="254.71 226.44 250.05 223.75 250.05 201.8 254.71 204.49 254.71 226.44"/><polygon class="cls-20" points="241.27 218.68 236.61 215.98 236.61 194.03 241.27 196.72 241.27 218.68"/><polygon class="cls-20" points="227.83 210.91 223.17 208.21 223.17 186.25 227.83 188.95 227.83 210.91"/></svg>