<svg id="Objects" xmlns="http://www.w3.org/2000/svg" xmlns:xlink="http://www.w3.org/1999/xlink" width="500" height="500" viewBox="0 0 500 500"><defs><style>.cls-1{fill:url(#linear-gradient);}.cls-2{fill:url(#linear-gradient-2);}.cls-3{fill:url(#linear-gradient-3);}.cls-4{fill:none;stroke:#fff;stroke-width:1.15px;}.cls-5{fill:url(#linear-gradient-4);}.cls-6{fill:url(#linear-gradient-5);}.cls-7{fill:url(#linear-gradient-6);}.cls-8{fill:url(#linear-gradient-7);}.cls-9{fill:url(#linear-gradient-8);}.cls-10{fill:url(#linear-gradient-9);}.cls-11{fill:url(#linear-gradient-10);}.cls-12{fill:url(#linear-gradient-11);}.cls-13{fill:url(#linear-gradient-12);}.cls-14{fill:url(#linear-gradient-13);}.cls-15{fill:url(#linear-gradient-14);}.cls-16{fill:url(#linear-gradient-15);}.cls-17{fill:url(#linear-gradient-16);}.cls-18{fill:url(#linear-gradient-17);}.cls-19{fill:url(#linear-gradient-18);}.cls-20{fill:url(#linear-gradient-19);}.cls-21{fill:url(#linear-gradient-20);}</style><linearGradient id="linear-gradient" x1="70.75" y1="302.16" x2="250.94" y2="302.16" gradientUnits="userSpaceOnUse"><stop offset="0" stop-color="#dcdcdc"/><stop offset="1" stop-color="#bebebe"/></linearGradient><linearGradient id="linear-gradient-2" x1="205.13" y1="320.11" x2="294.95" y2="164.54" gradientUnits="userSpaceOnUse"><stop offset="0" stop-color="#f3f3f3"/><stop offset="1" stop-color="#dcdcdc"/></linearGradient><linearGradient id="linear-gradient-3" x1="250.94" y1="302.03" x2="429.25" y2="302.03" gradientUnits="userSpaceOnUse"><stop offset="0" stop-color="#a4a4a4"/><stop offset="1" stop-color="#bebebe"/></linearGradient><linearGradient id="linear-gradient-4" x1="165.26" y1="199.86" x2="329.72" y2="199.86" gradientTransform="matrix(-1, 0, 0, 1, 500, 0)" gradientUnits="userSpaceOnUse"><stop offset="0.1" stop-color="#408bfc"/><stop offset="0.9" stop-color="#20d5d2"/></linearGradient><linearGradient id="linear-gradient-5" x1="165.26" y1="193.5" x2="329.72" y2="193.5" xlink:href="#linear-gradient-4"/><linearGradient id="linear-gradient-6" x1="165.26" y1="185.78" x2="329.72" y2="185.78" xlink:href="#linear-gradient-4"/><linearGradient id="linear-gradient-7" x1="165.26" y1="215.42" x2="329.72" y2="215.42" xlink:href="#linear-gradient-4"/><linearGradient id="linear-gradient-8" x1="165.26" y1="178.18" x2="329.72" y2="178.18" xlink:href="#linear-gradient-4"/><linearGradient id="linear-gradient-9" x1="165.26" y1="207.91" x2="329.72" y2="207.91" xlink:href="#linear-gradient-4"/><linearGradient id="linear-gradient-10" x1="165.26" y1="228.05" x2="329.72" y2="228.05" xlink:href="#linear-gradient-4"/><linearGradient id="linear-gradient-11" x1="165.26" y1="243.74" x2="329.72" y2="243.74" xlink:href="#linear-gradient-4"/><linearGradient id="linear-gradient-12" x1="165.26" y1="257.31" x2="329.72" y2="257.31" xlink:href="#linear-gradient-4"/><linearGradient id="linear-gradient-13" x1="165.26" y1="222.85" x2="329.72" y2="222.85" xlink:href="#linear-gradient-4"/><linearGradient id="linear-gradient-14" x1="165.26" y1="237.19" x2="329.72" y2="237.19" xlink:href="#linear-gradient-4"/><linearGradient id="linear-gradient-15" x1="165.26" y1="252.08" x2="329.72" y2="252.08" xlink:href="#linear-gradient-4"/><linearGradient id="linear-gradient-16" x1="165.26" y1="261.95" x2="329.72" y2="261.95" xlink:href="#linear-gradient-4"/><linearGradient id="linear-gradient-17" x1="165.26" y1="170.82" x2="329.72" y2="170.82" xlink:href="#linear-gradient-4"/><linearGradient id="linear-gradient-18" x1="165.26" y1="163.91" x2="329.72" y2="163.91" xlink:href="#linear-gradient-4"/><linearGradient id="linear-gradient-19" x1="165.26" y1="160.96" x2="329.72" y2="160.96" xlink:href="#linear-gradient-4"/><linearGradient id="linear-gradient-20" x1="165.26" y1="156.2" x2="329.72" y2="156.2" xlink:href="#linear-gradient-4"/></defs><polygon class="cls-1" points="70.75 257.92 250.94 361.8 250.94 346.4 70.75 242.52 70.75 257.92"/><polygon class="cls-2" points="429.25 242.27 250.94 346.4 70.75 242.52 249.33 138.2 429.25 242.27"/><polygon class="cls-3" points="429.25 257.7 250.94 361.8 250.94 346.4 429.25 242.27 429.25 257.7"/><line class="cls-4" x1="250.94" y1="346.4" x2="70.75" y2="242.52"/><path class="cls-5" d="M250.91,250a2.21,2.21,0,0,0,2.21-2.21V151.94a2.21,2.21,0,1,0-4.41,0v95.85A2.21,2.21,0,0,0,250.91,250Z"/><path class="cls-6" d="M241.49,220a2.21,2.21,0,0,0,2.2-2.21V169.24a2.21,2.21,0,1,0-4.41,0v48.52A2.21,2.21,0,0,0,241.49,220Z"/><path class="cls-7" d="M232.17,197a2.21,2.21,0,0,0,2.21-2.21v-18.1a2.21,2.21,0,1,0-4.41,0v18.1A2.21,2.21,0,0,0,232.17,197Z"/><path class="cls-8" d="M269.32,226.68a2.2,2.2,0,0,0,2.2-2.21v-18.1a2.21,2.21,0,1,0-4.41,0v18.1A2.21,2.21,0,0,0,269.32,226.68Z"/><path class="cls-9" d="M222.82,197.61A2.21,2.21,0,0,0,225,195.4V161a2.21,2.21,0,1,0-4.41,0V195.4A2.21,2.21,0,0,0,222.82,197.61Z"/><path class="cls-10" d="M260.12,237.76a2.21,2.21,0,0,0,2.2-2.2v-55.3a2.21,2.21,0,0,0-4.41,0v55.3A2.21,2.21,0,0,0,260.12,237.76Z"/><path class="cls-11" d="M288.13,247.48a2.21,2.21,0,0,0,2.21-2.21V210.83a2.21,2.21,0,1,0-4.42,0v34.44A2.21,2.21,0,0,0,288.13,247.48Z"/><path class="cls-12" d="M306.23,261.65a2.21,2.21,0,0,0,2.21-2.21V228.05a2.21,2.21,0,1,0-4.42,0v31.39A2.21,2.21,0,0,0,306.23,261.65Z"/><path class="cls-13" d="M323.76,262.52a2.21,2.21,0,0,0,2.21-2.21v-6a2.21,2.21,0,0,0-4.42,0v6A2.21,2.21,0,0,0,323.76,262.52Z"/><path class="cls-14" d="M278.67,256.52a2.21,2.21,0,0,0,2.21-2.21V191.39a2.21,2.21,0,1,0-4.41,0v62.92A2.2,2.2,0,0,0,278.67,256.52Z"/><path class="cls-15" d="M297.48,267.21a2.21,2.21,0,0,0,2.21-2.21V209.38a2.21,2.21,0,1,0-4.41,0V265A2.21,2.21,0,0,0,297.48,267.21Z"/><path class="cls-16" d="M316.12,261.65a2.21,2.21,0,0,0,2.21-2.21V244.72a2.21,2.21,0,1,0-4.41,0v14.72A2.2,2.2,0,0,0,316.12,261.65Z"/><path class="cls-17" d="M331,267.21a2.21,2.21,0,0,0,2.21-2.21v-6.11a2.21,2.21,0,0,0-4.42,0V265A2.21,2.21,0,0,0,331,267.21Z"/><path class="cls-18" d="M213.37,200.94a2.21,2.21,0,0,0,2.21-2.2V142.91a2.21,2.21,0,0,0-4.42,0v55.83A2.21,2.21,0,0,0,213.37,200.94Z"/><path class="cls-19" d="M204.12,179.7a2.21,2.21,0,0,0,2.21-2.21V150.34a2.21,2.21,0,1,0-4.41,0v27.15A2.21,2.21,0,0,0,204.12,179.7Z"/><path class="cls-20" d="M194.47,166.26a2.19,2.19,0,0,0,2.2-2.2v-6.19a2.21,2.21,0,1,0-4.41,0v6.19A2.2,2.2,0,0,0,194.47,166.26Z"/><path class="cls-21" d="M187.89,161.31a2.21,2.21,0,0,0,2.21-2.21v-5.81a2.21,2.21,0,0,0-4.42,0v5.81A2.21,2.21,0,0,0,187.89,161.31Z"/></svg>