<svg id="Objects" xmlns="http://www.w3.org/2000/svg" xmlns:xlink="http://www.w3.org/1999/xlink" width="500" height="500" viewBox="0 0 500 500"><defs><style>.cls-1{fill:url(#linear-gradient);}.cls-2{fill:url(#linear-gradient-2);}.cls-3{fill:url(#linear-gradient-3);}.cls-4{fill:url(#linear-gradient-4);}.cls-5{fill:url(#linear-gradient-5);}.cls-6{fill:url(#linear-gradient-6);}.cls-7{fill:url(#linear-gradient-7);}.cls-8{fill:url(#linear-gradient-8);}.cls-9{fill:url(#linear-gradient-9);}.cls-10{fill:url(#linear-gradient-10);}.cls-11{fill:url(#linear-gradient-11);}.cls-12{fill:url(#linear-gradient-12);}.cls-13,.cls-14{fill:none;}.cls-13{stroke:#fff;stroke-miterlimit:10;stroke-width:0.6px;}.cls-14{stroke:#dcdcdc;}</style><linearGradient id="linear-gradient" x1="224.3" y1="165.92" x2="275.67" y2="136.26" gradientUnits="userSpaceOnUse"><stop offset="0" stop-color="#bebebe"/><stop offset="1" stop-color="#a4a4a4"/></linearGradient><linearGradient id="linear-gradient-2" x1="250" y1="240.11" x2="284.24" y2="240.11" gradientUnits="userSpaceOnUse"><stop offset="0" stop-color="#6f6f6f"/><stop offset="1" stop-color="#8c8c8c"/></linearGradient><linearGradient id="linear-gradient-3" x1="215.74" y1="240.1" x2="250" y2="240.1" gradientUnits="userSpaceOnUse"><stop offset="0" stop-color="#a4a4a4"/><stop offset="1" stop-color="#8c8c8c"/></linearGradient><linearGradient id="linear-gradient-4" x1="275.72" y1="225.26" x2="292.85" y2="195.59" gradientUnits="userSpaceOnUse"><stop offset="0" stop-color="#f3f3f3"/><stop offset="1" stop-color="#dcdcdc"/></linearGradient><linearGradient id="linear-gradient-5" x1="284.29" y1="279.69" x2="318.53" y2="279.69" gradientUnits="userSpaceOnUse"><stop offset="0" stop-color="#a4a4a4"/><stop offset="1" stop-color="#bebebe"/></linearGradient><linearGradient id="linear-gradient-6" x1="250.03" y1="279.68" x2="284.29" y2="279.68" gradientUnits="userSpaceOnUse"><stop offset="0" stop-color="#dcdcdc"/><stop offset="1" stop-color="#bebebe"/></linearGradient><linearGradient id="linear-gradient-7" x1="207.16" y1="264.83" x2="224.3" y2="235.15" xlink:href="#linear-gradient-4"/><linearGradient id="linear-gradient-8" x1="215.74" y1="299.46" x2="249.97" y2="299.46" xlink:href="#linear-gradient-5"/><linearGradient id="linear-gradient-9" x1="181.47" y1="299.45" x2="215.74" y2="299.45" xlink:href="#linear-gradient-6"/><linearGradient id="linear-gradient-10" x1="224.34" y1="324.18" x2="275.71" y2="294.52" xlink:href="#linear-gradient"/><linearGradient id="linear-gradient-11" x1="250.04" y1="339.03" x2="284.28" y2="339.03" xlink:href="#linear-gradient-2"/><linearGradient id="linear-gradient-12" x1="215.77" y1="339.02" x2="250.04" y2="339.02" xlink:href="#linear-gradient-3"/></defs><polygon class="cls-1" points="215.74 151.08 250 131.3 284.24 151.1 250 170.87 215.74 151.08"/><polygon class="cls-2" points="250 170.87 250 329.12 284.24 309.35 284.24 151.1 250 170.87"/><polygon class="cls-3" points="250 170.87 215.74 151.08 215.74 309.33 250 329.12 250 170.87"/><polygon class="cls-4" points="250.03 210.43 284.29 190.65 318.53 210.44 284.29 230.21 250.03 210.43"/><polygon class="cls-5" points="284.29 230.21 284.29 348.93 318.53 329.15 318.53 210.44 284.29 230.21"/><polygon class="cls-6" points="284.29 230.21 250.03 210.43 250.03 329.14 284.29 348.93 284.29 230.21"/><polygon class="cls-7" points="181.47 249.99 215.74 230.21 249.97 250.01 215.74 269.78 181.47 249.99"/><polygon class="cls-8" points="215.74 269.78 215.74 348.92 249.97 329.14 249.97 250.01 215.74 269.78"/><polygon class="cls-9" points="215.74 269.78 181.47 249.99 181.47 329.13 215.74 348.92 215.74 269.78"/><polygon class="cls-10" points="215.77 309.34 250.04 289.56 284.28 309.35 250.04 329.12 215.77 309.34"/><polygon class="cls-11" points="250.04 329.12 250.04 368.7 284.28 348.92 284.28 309.35 250.04 329.12"/><polygon class="cls-12" points="250.04 329.12 215.77 309.34 215.77 348.91 250.04 368.7 250.04 329.12"/><line class="cls-13" x1="181.47" y1="249.99" x2="215.74" y2="269.78"/><line class="cls-13" x1="250.03" y1="210.43" x2="284.29" y2="230.21"/><line class="cls-14" x1="215.74" y1="151.08" x2="250" y2="170.87"/><line class="cls-14" x1="215.77" y1="309.34" x2="250.04" y2="329.12"/></svg>