<svg id="Objects" xmlns="http://www.w3.org/2000/svg" xmlns:xlink="http://www.w3.org/1999/xlink" width="500" height="500" viewBox="0 0 500 500"><defs><style>.cls-1{fill:url(#linear-gradient);}.cls-2{fill:url(#linear-gradient-2);}.cls-3{fill:url(#linear-gradient-3);}.cls-4{fill:url(#linear-gradient-4);}.cls-5{fill:url(#linear-gradient-5);}.cls-6{fill:url(#linear-gradient-6);}.cls-7{fill:url(#linear-gradient-7);}.cls-8{fill:url(#linear-gradient-8);}.cls-9{fill:url(#linear-gradient-9);}.cls-10{fill:url(#linear-gradient-10);}.cls-11{fill:url(#linear-gradient-11);}.cls-12{fill:url(#linear-gradient-12);}.cls-13{fill:url(#linear-gradient-13);}.cls-14{fill:url(#linear-gradient-14);}.cls-15{fill:url(#linear-gradient-15);}.cls-16{fill:url(#linear-gradient-16);}.cls-17{fill:url(#linear-gradient-17);}.cls-18{fill:url(#linear-gradient-18);}.cls-19{fill:url(#linear-gradient-19);}.cls-20{fill:url(#linear-gradient-20);}.cls-21{fill:url(#linear-gradient-21);}.cls-22{fill:url(#linear-gradient-22);}.cls-23{fill:url(#linear-gradient-23);}.cls-24{fill:url(#linear-gradient-24);}.cls-25{fill:url(#linear-gradient-25);}.cls-26{fill:url(#linear-gradient-26);}.cls-27,.cls-28{fill:none;}.cls-27{stroke:#fff;stroke-miterlimit:10;stroke-width:0.6px;}.cls-28{stroke:#dcdcdc;}.cls-29{fill:#f3f3f3;}</style><linearGradient id="linear-gradient" x1="162.26" y1="259.12" x2="205.55" y2="259.12" gradientUnits="userSpaceOnUse"><stop offset="0" stop-color="#8c8c8c"/><stop offset="1" stop-color="gray"/></linearGradient><linearGradient id="linear-gradient-2" x1="162.26" y1="239.15" x2="205.55" y2="239.15" xlink:href="#linear-gradient"/><linearGradient id="linear-gradient-3" x1="162.26" y1="218.65" x2="205.55" y2="218.65" xlink:href="#linear-gradient"/><linearGradient id="linear-gradient-4" x1="162.26" y1="198.77" x2="205.55" y2="198.77" xlink:href="#linear-gradient"/><linearGradient id="linear-gradient-5" x1="162.73" y1="178.89" x2="206.02" y2="178.89" xlink:href="#linear-gradient"/><linearGradient id="linear-gradient-6" x1="208.74" y1="304.96" x2="216.41" y2="304.96" xlink:href="#linear-gradient"/><linearGradient id="linear-gradient-7" x1="226.15" y1="314.62" x2="233.82" y2="314.62" xlink:href="#linear-gradient"/><linearGradient id="linear-gradient-8" x1="243.57" y1="324.93" x2="251.23" y2="324.93" xlink:href="#linear-gradient"/><linearGradient id="linear-gradient-9" x1="260.98" y1="335.16" x2="268.65" y2="335.16" xlink:href="#linear-gradient"/><linearGradient id="linear-gradient-10" x1="278.39" y1="345.46" x2="286.06" y2="345.46" xlink:href="#linear-gradient"/><linearGradient id="linear-gradient-11" x1="193.02" y1="255.86" x2="291.8" y2="255.86" gradientUnits="userSpaceOnUse"><stop offset="0" stop-color="#dcdcdc"/><stop offset="1" stop-color="#bebebe"/></linearGradient><linearGradient id="linear-gradient-12" x1="244.44" y1="200" x2="248.64" y2="192.73" gradientUnits="userSpaceOnUse"><stop offset="0" stop-color="#f3f3f3"/><stop offset="1" stop-color="#dcdcdc"/></linearGradient><linearGradient id="linear-gradient-13" x1="291.8" y1="281.91" x2="300.06" y2="281.91" gradientUnits="userSpaceOnUse"><stop offset="0" stop-color="#a4a4a4"/><stop offset="1" stop-color="#bebebe"/></linearGradient><linearGradient id="linear-gradient-14" x1="198.08" y1="257.79" x2="275.73" y2="257.79" gradientUnits="userSpaceOnUse"><stop offset="0" stop-color="#a4a4a4"/><stop offset="1" stop-color="#8c8c8c"/></linearGradient><linearGradient id="linear-gradient-15" x1="217.48" y1="224.15" x2="258.81" y2="200.29" gradientUnits="userSpaceOnUse"><stop offset="0" stop-color="#bebebe"/><stop offset="1" stop-color="#a4a4a4"/></linearGradient><linearGradient id="linear-gradient-16" x1="275.73" y1="279.47" x2="278.21" y2="279.47" gradientUnits="userSpaceOnUse"><stop offset="0" stop-color="#6f6f6f"/><stop offset="1" stop-color="#8c8c8c"/></linearGradient><linearGradient id="linear-gradient-17" x1="212.58" y1="178.91" x2="212.58" y2="130.17" xlink:href="#linear-gradient"/><linearGradient id="linear-gradient-18" x1="229.99" y1="188.57" x2="229.99" y2="139.84" xlink:href="#linear-gradient"/><linearGradient id="linear-gradient-19" x1="247.4" y1="198.88" x2="247.4" y2="150.14" xlink:href="#linear-gradient"/><linearGradient id="linear-gradient-20" x1="264.81" y1="209.11" x2="264.81" y2="160.37" xlink:href="#linear-gradient"/><linearGradient id="linear-gradient-21" x1="282.22" y1="219.41" x2="282.22" y2="170.67" xlink:href="#linear-gradient"/><linearGradient id="linear-gradient-22" x1="293.98" y1="331.55" x2="337.27" y2="331.55" xlink:href="#linear-gradient"/><linearGradient id="linear-gradient-23" x1="293.98" y1="311.58" x2="337.27" y2="311.58" xlink:href="#linear-gradient"/><linearGradient id="linear-gradient-24" x1="293.98" y1="291.08" x2="337.27" y2="291.08" xlink:href="#linear-gradient"/><linearGradient id="linear-gradient-25" x1="293.98" y1="271.2" x2="337.27" y2="271.2" xlink:href="#linear-gradient"/><linearGradient id="linear-gradient-26" x1="294.45" y1="251.32" x2="337.74" y2="251.32" xlink:href="#linear-gradient"/></defs><path class="cls-1" d="M201.71,273.18a3.91,3.91,0,0,1-1.91-.51l-35.61-20.44a3.84,3.84,0,0,1,3.81-6.66L203.62,266a3.83,3.83,0,0,1-1.91,7.16Z"/><path class="cls-2" d="M201.71,253.21a3.8,3.8,0,0,1-1.91-.51l-35.61-20.44A3.84,3.84,0,0,1,168,225.6l35.62,20.45a3.83,3.83,0,0,1-1.91,7.16Z"/><path class="cls-3" d="M201.71,232.71a3.8,3.8,0,0,1-1.91-.51l-35.61-20.44a3.83,3.83,0,1,1,3.81-6.65l35.62,20.44a3.83,3.83,0,0,1-1.91,7.16Z"/><path class="cls-4" d="M201.71,212.83a3.91,3.91,0,0,1-1.91-.51l-35.61-20.44a3.84,3.84,0,0,1,3.81-6.66l35.62,20.45a3.83,3.83,0,0,1-1.91,7.16Z"/><path class="cls-5" d="M202.19,193a3.88,3.88,0,0,1-1.91-.51L164.66,172a3.84,3.84,0,0,1,3.82-6.66l35.62,20.45a3.84,3.84,0,0,1-1.91,7.16Z"/><path class="cls-6" d="M212.58,329.33a3.84,3.84,0,0,1-3.84-3.84V284.42a3.84,3.84,0,0,1,7.67,0v41.07A3.84,3.84,0,0,1,212.58,329.33Z"/><path class="cls-7" d="M230,339a3.84,3.84,0,0,1-3.84-3.83V294.09a3.84,3.84,0,1,1,7.67,0v41.07A3.83,3.83,0,0,1,230,339Z"/><path class="cls-8" d="M247.4,349.29a3.82,3.82,0,0,1-3.83-3.83V304.39a3.83,3.83,0,1,1,7.66,0v41.07A3.82,3.82,0,0,1,247.4,349.29Z"/><path class="cls-9" d="M264.81,359.53a3.84,3.84,0,0,1-3.83-3.84V314.62a3.84,3.84,0,0,1,7.67,0v41.07A3.84,3.84,0,0,1,264.81,359.53Z"/><path class="cls-10" d="M282.22,369.83a3.84,3.84,0,0,1-3.83-3.83V324.93a3.84,3.84,0,1,1,7.67,0V366A3.84,3.84,0,0,1,282.22,369.83Z"/><polygon class="cls-11" points="193.02 284.37 291.8 341.4 291.8 227.34 193.02 170.31 193.02 284.37"/><polygon class="cls-12" points="291.8 227.34 300.06 222.42 201.28 165.39 193.02 170.31 291.8 227.34"/><polygon class="cls-13" points="291.8 227.34 300.06 222.42 300.06 336.48 291.8 341.4 291.8 227.34"/><polygon class="cls-14" points="198.08 280.21 275.73 325.04 275.73 235.38 198.08 190.54 198.08 280.21"/><polygon class="cls-15" points="275.73 235.38 278.21 233.9 200.56 189.07 198.08 190.54 275.73 235.38"/><polygon class="cls-16" points="275.73 235.38 278.21 233.9 278.21 323.57 275.73 325.04 275.73 235.38"/><path class="cls-17" d="M212.58,178.91a3.84,3.84,0,0,1-3.84-3.83V134a3.84,3.84,0,0,1,7.67,0v41.08A3.84,3.84,0,0,1,212.58,178.91Z"/><path class="cls-18" d="M230,188.57a3.83,3.83,0,0,1-3.84-3.83V143.67a3.84,3.84,0,0,1,7.67,0v41.07A3.82,3.82,0,0,1,230,188.57Z"/><path class="cls-19" d="M247.4,198.88a3.83,3.83,0,0,1-3.83-3.84V154a3.83,3.83,0,1,1,7.66,0V195A3.83,3.83,0,0,1,247.4,198.88Z"/><path class="cls-20" d="M264.81,209.11a3.84,3.84,0,0,1-3.83-3.84V164.2a3.84,3.84,0,0,1,7.67,0v41.07A3.84,3.84,0,0,1,264.81,209.11Z"/><path class="cls-21" d="M282.22,219.41a3.84,3.84,0,0,1-3.83-3.83V174.51a3.84,3.84,0,1,1,7.67,0v41.07A3.84,3.84,0,0,1,282.22,219.41Z"/><path class="cls-22" d="M333.43,345.61a3.88,3.88,0,0,1-1.91-.51L295.9,324.66a3.83,3.83,0,0,1,3.82-6.65l35.62,20.44a3.83,3.83,0,0,1-1.91,7.16Z"/><path class="cls-23" d="M333.43,325.64a3.78,3.78,0,0,1-1.91-.51L295.9,304.69a3.83,3.83,0,0,1,3.82-6.65l35.62,20.44a3.83,3.83,0,0,1-1.91,7.16Z"/><path class="cls-24" d="M333.43,305.14a3.78,3.78,0,0,1-1.91-.51L295.9,284.19a3.83,3.83,0,0,1,3.82-6.65L335.34,298a3.83,3.83,0,0,1-1.91,7.16Z"/><path class="cls-25" d="M333.43,285.26a3.78,3.78,0,0,1-1.91-.51L295.9,264.31a3.83,3.83,0,0,1,3.82-6.65l35.62,20.44a3.83,3.83,0,0,1-1.91,7.16Z"/><path class="cls-26" d="M333.9,265.38a3.77,3.77,0,0,1-1.9-.51l-35.62-20.44a3.84,3.84,0,0,1,3.81-6.66l35.62,20.45a3.83,3.83,0,0,1-1.91,7.16Z"/><line class="cls-27" x1="193.02" y1="170.31" x2="291.8" y2="227.34"/><line class="cls-28" x1="198.08" y1="190.54" x2="275.73" y2="235.38"/><g id="CA_logomark_Grouped" data-name="CA logomark Grouped"><path class="cls-29" d="M220.3,262.42h0c1.13.65,2,.12,2-1.18h0a4.52,4.52,0,0,0-2-3.54h0c-1.13-.65-2-.12-2,1.18h0A4.51,4.51,0,0,0,220.3,262.42Z"/><path class="cls-29" d="M242.79,270.68h0l-14.31-8.26h0c-.88-.51-1.68-.34-1.94.48-.44,1.37.6,3.46,1.94,4.24h0l14.31,8.26h0c1.34.77,2.38-.12,1.94-2A4.46,4.46,0,0,0,242.79,270.68Z"/><path class="cls-29" d="M220.3,238.82h0c1.13.65,2,.12,2-1.18h0a4.52,4.52,0,0,0-2-3.54h0c-1.13-.65-2.05-.13-2.05,1.18h0A4.54,4.54,0,0,0,220.3,238.82Z"/><path class="cls-29" d="M242.79,247.08h0l-14.31-8.26h0c-.88-.51-1.68-.34-1.94.48-.44,1.37.6,3.46,1.94,4.24h0l14.31,8.26h0c1.34.77,2.38-.12,1.94-2A4.46,4.46,0,0,0,242.79,247.08Z"/><path class="cls-29" d="M214.36,247.19h0c1.13.65,2,.12,2-1.18h0a4.5,4.5,0,0,0-2-3.54h0c-1.13-.66-2.05-.13-2.05,1.18h0A4.54,4.54,0,0,0,214.36,247.19Z"/><path class="cls-29" d="M236.84,255.44h0l-14.31-8.26h0c-.87-.5-1.68-.33-1.94.49-.44,1.37.6,3.46,1.94,4.24h0l14.31,8.25h0c1.34.78,2.38-.11,1.95-2A4.56,4.56,0,0,0,236.84,255.44Z"/><path class="cls-29" d="M226.62,277.87h0c1.13.65,2,.12,2-1.18h0a4.5,4.5,0,0,0-2-3.54h0c-1.13-.66-2-.13-2,1.18h0A4.51,4.51,0,0,0,226.62,277.87Z"/><path class="cls-29" d="M255.24,289.66h0L234.8,277.87h0c-.88-.51-1.69-.34-2,.48-.43,1.37.6,3.46,2,4.24h0l20.44,11.8h0c1.34.77,2.38-.12,1.94-2A4.51,4.51,0,0,0,255.24,289.66Z"/><path class="cls-29" d="M226.62,230.66h0c1.13.65,2,.13,2-1.18h0a4.52,4.52,0,0,0-2-3.54h0c-1.12-.65-2-.12-2,1.18h0A4.52,4.52,0,0,0,226.62,230.66Z"/><path class="cls-29" d="M255.24,242.46h0l-20.44-11.8h0c-.88-.5-1.68-.33-1.94.49-.44,1.37.6,3.46,1.94,4.23h0l20.44,11.8h0c1.34.78,2.38-.12,1.95-2A4.56,4.56,0,0,0,255.24,242.46Z"/></g></svg>