<svg id="Objects" xmlns="http://www.w3.org/2000/svg" xmlns:xlink="http://www.w3.org/1999/xlink" width="500" height="500" viewBox="0 0 500 500"><defs><style>.cls-1{isolation:isolate;}.cls-2{fill:url(#linear-gradient);}.cls-3{fill:url(#linear-gradient-2);}.cls-4{fill:url(#linear-gradient-3);}.cls-5{fill:url(#linear-gradient-4);}.cls-6{fill:#c3ddff;}.cls-7{fill:url(#linear-gradient-5);}.cls-8{fill:url(#linear-gradient-6);}.cls-9{fill:url(#linear-gradient-7);}.cls-10{fill:url(#linear-gradient-8);}.cls-11{fill:#a3a3a3;}.cls-12{fill:url(#linear-gradient-9);}.cls-13{fill:url(#linear-gradient-10);}.cls-14{fill:#1a89ff;}.cls-15{fill:url(#linear-gradient-11);}.cls-16{fill:url(#linear-gradient-12);}.cls-17{fill:url(#linear-gradient-13);}.cls-18{fill:url(#linear-gradient-14);}.cls-19{fill:url(#linear-gradient-15);}.cls-20{fill:url(#linear-gradient-16);}.cls-21{fill:url(#linear-gradient-17);}.cls-22{fill:url(#linear-gradient-18);}.cls-23{fill:url(#linear-gradient-19);}</style><linearGradient id="linear-gradient" x1="190.7" y1="105.73" x2="186.14" y2="97.84" gradientUnits="userSpaceOnUse"><stop offset="0" stop-color="#8bc0ff"/><stop offset="0.07" stop-color="#9cc9ff"/><stop offset="0.21" stop-color="#b8d8ff"/><stop offset="0.37" stop-color="#cee4ff"/><stop offset="0.54" stop-color="#deedff"/><stop offset="0.73" stop-color="#e7f1ff"/><stop offset="1" stop-color="#eaf3ff"/></linearGradient><linearGradient id="linear-gradient-2" x1="212.8" y1="104.21" x2="206.69" y2="93.61" xlink:href="#linear-gradient"/><linearGradient id="linear-gradient-3" x1="279.03" y1="150.98" x2="240.53" y2="84.29" gradientUnits="userSpaceOnUse"><stop offset="0" stop-color="#8bc0ff"/><stop offset="0.02" stop-color="#94c5ff"/><stop offset="0.09" stop-color="#afd3ff"/><stop offset="0.17" stop-color="#c5dfff"/><stop offset="0.27" stop-color="#d6e8ff"/><stop offset="0.38" stop-color="#e1eeff"/><stop offset="0.55" stop-color="#e8f2ff"/><stop offset="1" stop-color="#eaf3ff"/></linearGradient><linearGradient id="linear-gradient-4" x1="330.4" y1="208.83" x2="292.45" y2="143.11" gradientUnits="userSpaceOnUse"><stop offset="0" stop-color="#8bc0ff"/><stop offset="0.16" stop-color="#a9d0ff"/><stop offset="0.35" stop-color="#c6dfff"/><stop offset="0.54" stop-color="#daeaff"/><stop offset="0.72" stop-color="#e6f1ff"/><stop offset="0.91" stop-color="#eaf3ff"/><stop offset="1" stop-color="#c3ddff"/></linearGradient><linearGradient id="linear-gradient-5" x1="236.73" y1="214.13" x2="232.9" y2="207.5" xlink:href="#linear-gradient"/><linearGradient id="linear-gradient-6" x1="255.27" y1="212.85" x2="250.14" y2="203.96" xlink:href="#linear-gradient"/><linearGradient id="linear-gradient-7" x1="310.84" y1="252.09" x2="278.54" y2="196.13" xlink:href="#linear-gradient-3"/><linearGradient id="linear-gradient-8" x1="353.93" y1="300.62" x2="322.1" y2="245.49" xlink:href="#linear-gradient-4"/><linearGradient id="linear-gradient-9" x1="134.2" y1="346.66" x2="277.6" y2="346.66" gradientUnits="userSpaceOnUse"><stop offset="0" stop-color="#dcdcdc"/><stop offset="0.65" stop-color="#a4a4a4"/><stop offset="0.8" stop-color="#a7a7a7"/><stop offset="0.91" stop-color="#b1b1b1"/><stop offset="1" stop-color="#bebebe"/></linearGradient><linearGradient id="linear-gradient-10" x1="180.6" y1="356.91" x2="231.28" y2="269.15" gradientTransform="translate(518.38 106.2) rotate(89.84)" gradientUnits="userSpaceOnUse"><stop offset="0" stop-color="#f3f3f3"/><stop offset="1" stop-color="#dcdcdc"/></linearGradient><linearGradient id="linear-gradient-11" x1="140.77" y1="325.15" x2="270.75" y2="325.15" gradientUnits="userSpaceOnUse"><stop offset="0" stop-color="#6ea6ff"/><stop offset="0.65" stop-color="#0062ff"/><stop offset="0.75" stop-color="#0364ff"/><stop offset="0.83" stop-color="#0d6afe"/><stop offset="0.91" stop-color="#1e75fe"/><stop offset="0.98" stop-color="#3684fc"/><stop offset="1" stop-color="#408bfc"/></linearGradient><linearGradient id="linear-gradient-12" x1="134.2" y1="307.16" x2="277.6" y2="307.16" xlink:href="#linear-gradient-9"/><linearGradient id="linear-gradient-13" x1="180.6" y1="317.41" x2="231.28" y2="229.65" gradientTransform="translate(478.89 66.82) rotate(89.84)" xlink:href="#linear-gradient-10"/><linearGradient id="linear-gradient-14" x1="140.77" y1="285.57" x2="270.75" y2="285.57" xlink:href="#linear-gradient-11"/><linearGradient id="linear-gradient-15" x1="134.2" y1="267.59" x2="277.6" y2="267.59" xlink:href="#linear-gradient-9"/><linearGradient id="linear-gradient-16" x1="180.6" y1="277.84" x2="231.28" y2="190.07" gradientTransform="translate(439.31 27.35) rotate(89.84)" xlink:href="#linear-gradient-10"/><linearGradient id="linear-gradient-17" x1="140.77" y1="246.04" x2="270.75" y2="246.04" xlink:href="#linear-gradient-11"/><linearGradient id="linear-gradient-18" x1="134.21" y1="228.05" x2="277.6" y2="228.05" xlink:href="#linear-gradient-9"/><linearGradient id="linear-gradient-19" x1="180.6" y1="238.3" x2="231.28" y2="150.54" gradientTransform="translate(399.78 -12.07) rotate(89.84)" xlink:href="#linear-gradient-10"/></defs><g class="cls-1"><path class="cls-2" d="M168.1,109a14.06,14.06,0,0,1,1.62-.2l.34,0a13,13,0,0,1,1.64,0l.21,0a14.65,14.65,0,0,1,1.79.27l.19.05a16,16,0,0,1,1.9.53l.14,0a21.48,21.48,0,0,1,2,.83l.14.06c.71.33,1.43.7,2.15,1.12L212,93.32l-.69-.38-.89-.46-.57-.27-.14-.06-.17-.08c-.29-.13-.58-.26-.87-.37s-.58-.23-.87-.33l-.15-.05-.13,0c-.2-.07-.39-.14-.59-.19s-.6-.18-.89-.25l-.43-.1-.18,0-.28-.06-.95-.16-.57,0-.2,0-.19,0c-.35,0-.69,0-1,0l-.44,0-.33,0-.35,0a9.9,9.9,0,0,0-1.25.18h0l-.25.07a12.57,12.57,0,0,0-1.24.34l-.09,0a10.84,10.84,0,0,0-1.66.76l-31.72,18.44a10.11,10.11,0,0,1,1.67-.77,11.2,11.2,0,0,1,1.32-.39Z"/><path class="cls-3" d="M234.59,91.51l-.44-.33c-.36-.27-.72-.53-1.09-.78l-.05,0-.08-.06-.72-.47-.72-.44-.15-.09-.66-.37-.85-.44-.55-.26-.12-.06-.16-.07-.83-.35c-.27-.11-.55-.22-.82-.31l-.16,0-.13-.05-.54-.17-.85-.24-.43-.09-.18,0-.25-.06c-.3-.06-.59-.11-.88-.14l-.58-.06-.19,0-.16,0-1,0-.44,0h-.31l-.31,0a9.21,9.21,0,0,0-1.19.17h0c-.12,0-.24.07-.36.1a8.83,8.83,0,0,0-1,.28l-.11,0a9.39,9.39,0,0,0-1.61.74L184.9,106.31a10.21,10.21,0,0,1,1.61-.74,10.68,10.68,0,0,1,1.14-.33c.13,0,.24-.08.37-.1a12.44,12.44,0,0,1,1.54-.2h.31a12,12,0,0,1,1.58,0l.18,0a15.59,15.59,0,0,1,1.72.26l.18,0a17.28,17.28,0,0,1,1.82.51l.13,0c.64.22,1.3.48,2,.78l.13.06c.67.32,1.36.67,2.05,1.07.54.31,1.07.65,1.59,1l.09.06c.53.36,1,.74,1.58,1.14h0Z"/><path class="cls-4" d="M244.62,108.28l.48.36q1.18.9,2.34,1.86l.37.31c.84.71,1.67,1.46,2.49,2.22.27.24.53.5.79.75q.85.81,1.68,1.65l1.17,1.22c.42.44.84.9,1.25,1.35.75.83,1.48,1.67,2.2,2.53.26.32.53.62.79.94q1.44,1.77,2.8,3.61l.46.66c.74,1,1.47,2.07,2.17,3.14.28.42.55.85.82,1.28.58.9,1.14,1.81,1.69,2.73.26.45.53.89.78,1.34.59,1,1.16,2.08,1.71,3.13l.51,1c.69,1.37,1.36,2.75,2,4.15.3.66.58,1.34.86,2,.22.51.45,1,.65,1.54.45,1.12.88,2.25,1.28,3.38.06.19.12.38.19.57.37,1.08.73,2.17,1.06,3.25l31.71-18.43c-.13-.43-.26-.87-.4-1.31q-.31-1-.66-1.95c-.06-.19-.12-.38-.19-.56l-.06-.18c-.36-1-.73-2-1.13-3,0-.07-.06-.13-.08-.19-.21-.51-.43-1-.64-1.52s-.5-1.22-.77-1.82c0-.08-.07-.15-.1-.22q-.94-2.09-2-4.14l-.09-.2c-.13-.26-.28-.51-.42-.76-.55-1.05-1.11-2.09-1.7-3.13l-.79-1.34c-.54-.92-1.11-1.83-1.68-2.73-.28-.43-.55-.86-.83-1.28-.7-1.07-1.42-2.11-2.16-3.14l-.47-.66q-1.35-1.84-2.79-3.6c-.07-.09-.13-.18-.2-.26-.19-.24-.4-.46-.6-.7-.72-.85-1.45-1.7-2.19-2.52-.17-.18-.32-.37-.48-.55s-.52-.53-.77-.8-.78-.82-1.18-1.22c-.19-.2-.37-.4-.56-.59l-1.11-1.06L282,94.6c-.11-.1-.21-.21-.32-.3-.66-.62-1.34-1.21-2-1.8l-.16-.12-.37-.31c-.45-.38-.91-.76-1.37-1.12s-.64-.49-1-.74l-.48-.37-.35-.26c-.57-.42-1.15-.84-1.73-1.24l-.51-.33-.47-.31c-.24-.16-.48-.33-.73-.48-.55-.36-1.11-.7-1.67-1l-.39-.22c-.42-.25-.84-.48-1.25-.71l-.48-.24-.64-.34-.5-.25c-.27-.14-.53-.26-.8-.38l-.57-.27-.23-.11c-.53-.23-1.06-.46-1.58-.67h0c-.53-.21-1.05-.4-1.57-.58l-.21-.07-.57-.19-.8-.26-.41-.11-.68-.19-.53-.15-.56-.13-.72-.16-.37-.08-.66-.11-.76-.12-.28,0-.66-.07-.86-.08-.24,0-.57,0-1,0h-.27l-.45,0c-.4,0-.81,0-1.21.06h-.36l-.29,0c-.6.07-1.2.15-1.78.26l-.21,0-.07,0a3,3,0,0,0-.43.1l-1,.25-.54.17-.65.2-.2.08-1.06.43c-.17.08-.35.14-.51.22-.51.24-1,.49-1.49.77h0l-31.72,18.43q.74-.42,1.5-.78l.51-.21c.35-.16.7-.3,1.07-.43a7.52,7.52,0,0,1,.84-.28l.54-.17c.35-.1.7-.18,1-.26l.43-.1.28,0c.59-.11,1.18-.19,1.79-.26l.65,0c.4,0,.8,0,1.21-.06h.71l1,0,.82,0,.85.09c.31,0,.62.06.94.11l.76.12c.34.06.69.12,1,.2l.72.16c.36.08.73.17,1.09.27l.69.19c.4.11.8.24,1.2.37l.58.19c.58.2,1.18.42,1.77.66h0c.6.24,1.21.51,1.82.78l.56.27c.43.2.87.41,1.3.64.22.1.43.22.64.33.58.3,1.16.61,1.74,1,.94.54,1.86,1.12,2.78,1.73l.48.31C242.91,107,243.77,107.64,244.62,108.28Z"/><path class="cls-5" d="M344.51,185.91c0-.45,0-.91-.06-1.36,0-.21,0-.42-.05-.63s0-.18,0-.27,0-.32,0-.48c0-.46-.1-.93-.16-1.39s-.12-.95-.2-1.43v-.06c-.07-.46-.15-.92-.24-1.39s-.2-1-.31-1.53c0-.14-.07-.29-.1-.43s-.06-.22-.08-.33c-.06-.26-.12-.53-.19-.8q-.21-.84-.45-1.68c-.06-.21-.13-.43-.2-.65s-.08-.29-.13-.44-.13-.46-.21-.69c-.2-.62-.41-1.25-.63-1.88l-.18-.48-.24-.64c-.14-.35-.26-.71-.41-1.07-.2-.51-.42-1-.63-1.51-.11-.24-.2-.49-.31-.73s-.08-.2-.13-.3c-.27-.6-.57-1.19-.85-1.78-.21-.44-.41-.88-.63-1.31l-.08-.17c-.37-.72-.77-1.43-1.17-2.14-.18-.32-.34-.64-.52-1-.62-1.07-1.27-2.12-1.94-3.16-.14-.21-.28-.4-.42-.6-.55-.83-1.11-1.65-1.69-2.44-.27-.36-.55-.7-.82-1.05-.42-.56-.84-1.12-1.28-1.66-.05-.06-.11-.12-.16-.19-.33-.4-.68-.79-1-1.18s-.76-.9-1.15-1.33l-.27-.28c-.17-.19-.36-.37-.54-.56-.33-.35-.66-.71-1-1s-.65-.63-1-.93c-.13-.12-.25-.25-.38-.36l-.23-.23c-.48-.44-1-.88-1.47-1.3l-.7-.58-.3-.24-.34-.28c-.42-.33-.85-.66-1.29-1s-.63-.46-.94-.68l-.17-.11a.71.71,0,0,0-.14-.1c-.4-.28-.8-.55-1.21-.81l-1.2-.73-.28-.16c-.3-.18-.6-.34-.89-.5l-1.15-.6-.32-.15-.25-.12-.57-.26c-.38-.17-.75-.33-1.13-.48l-.44-.17-.27-.1-.43-.16c-.38-.14-.77-.26-1.15-.38l-.48-.13-.29-.08-.4-.11-1.2-.27-.54-.1-31.71,18.43a21.59,21.59,0,0,1,2.13.48l.29.08c.68.19,1.37.41,2.06.67l.27.1c.71.27,1.42.57,2.14.91l.25.12c.78.38,1.57.79,2.36,1.25,1,.55,1.91,1.15,2.84,1.8l.16.11c.87.61,1.73,1.26,2.57,1.94l.3.25c.82.67,1.62,1.37,2.41,2.1l.37.36c.67.63,1.33,1.29,2,2l.54.56c.48.52.95,1.07,1.42,1.61s.69.78,1,1.18c.5.61,1,1.23,1.46,1.86.26.35.54.68.8,1,.59.8,1.15,1.63,1.71,2.46.13.2.27.38.4.58.68,1,1.32,2.09,1.95,3.17.17.3.33.62.5.93.44.77.87,1.54,1.27,2.33.22.43.41.87.62,1.3.33.69.67,1.39,1,2.09.11.24.21.49.31.73.37.86.72,1.72,1,2.58l.24.64c.37,1,.71,2,1,3.05.05.15.09.3.14.45.31,1,.59,2.08.83,3.13,0,.1.05.21.08.32.26,1.12.48,2.24.65,3.35v0c.18,1.12.31,2.23.4,3.33a2.45,2.45,0,0,1,0,.27c.09,1.1.14,2.19.13,3.27s-.05,2.1-.14,3.1l0,.26a26.14,26.14,0,0,1-.39,2.64l-.06.34c-.17.81-.38,1.6-.61,2.34,0,.14-.09.28-.14.42a20.16,20.16,0,0,1-.78,2c0,.07-.06.14-.1.21a17.6,17.6,0,0,1-1.13,2.06l-.18.24a14.83,14.83,0,0,1-1.09,1.45c-.14.17-.29.32-.43.48-.34.36-.7.7-1.07,1l-.45.39a13.32,13.32,0,0,1-1.64,1.14l31.72-18.43a15.35,15.35,0,0,0,1.63-1.14l.46-.4a14.55,14.55,0,0,0,1.06-1c.15-.16.29-.31.43-.48a14.52,14.52,0,0,0,1.1-1.45l.17-.24a.21.21,0,0,0,0-.06,16.25,16.25,0,0,0,1.07-1.93l0-.07.09-.22c.2-.42.39-.86.56-1.31.08-.23.15-.47.23-.7s.09-.28.14-.42l.12-.37c.14-.47.26-.95.38-1.44,0-.18.07-.36.1-.53s.05-.23.07-.34.07-.34.1-.51c.08-.45.15-.89.21-1.35,0-.26.05-.52.07-.78l0-.26c0-.11,0-.21,0-.32,0-.44.06-.88.08-1.34s0-.9,0-1.36v-.08C344.53,186.76,344.53,186.34,344.51,185.91Z"/></g><path class="cls-6" d="M238.78,104.4c16.39,9.46,30.42,29,36.36,48.82a29,29,0,0,1,9.51,3.61c15.61,9,28.22,30.85,28.16,48.79s-12.74,25.16-28.35,16.15L180.13,161.53c-12-6.91-21.63-23.64-21.59-37.39s9.77-19.29,21.73-12.38c3.07-7.12,10.58-9.09,19.35-4a33.29,33.29,0,0,1,3.26,2.2C209.22,98.09,222.92,95.24,238.78,104.4Z"/><g class="cls-1"><path class="cls-7" d="M217.77,216.89a9.91,9.91,0,0,1,1.36-.17h.28a10.64,10.64,0,0,1,1.38,0l.17,0a14.2,14.2,0,0,1,1.51.23l.15,0a14.17,14.17,0,0,1,1.6.44l.12,0c.56.2,1.14.43,1.72.69l.12.06q.88.41,1.8.93l26.61-15.46-.58-.33-.74-.38-.48-.23-.12-.05-.14-.07-.73-.31c-.24-.1-.49-.19-.73-.27l-.13,0-.11,0-.49-.16q-.37-.12-.75-.21l-.36-.08-.15,0-.24-.05a7.22,7.22,0,0,0-.79-.13,3.91,3.91,0,0,0-.48-.05l-.17,0-.16,0c-.29,0-.57,0-.86,0l-.36,0-.28,0h-.3a9,9,0,0,0-1,.15h0a1.41,1.41,0,0,0-.22.06,8.67,8.67,0,0,0-1,.28l-.08,0a8,8,0,0,0-1.4.64L215,217.91a9.85,9.85,0,0,1,1.4-.64,10.12,10.12,0,0,1,1.11-.32A1.8,1.8,0,0,1,217.77,216.89Z"/><path class="cls-8" d="M273.55,202.19l-.37-.27c-.3-.23-.6-.45-.91-.66l0,0-.07-.05-.6-.4-.61-.37-.13-.07-.55-.31-.71-.37-.46-.22-.11,0-.13-.06-.69-.29-.69-.26-.13,0-.11,0-.46-.15-.71-.2-.36-.08-.15,0-.21-.05-.74-.12-.49-.05-.15,0h-.14l-.83,0-.36,0h-.26l-.26,0a8.3,8.3,0,0,0-1,.14h0l-.31.08a8.6,8.6,0,0,0-.87.24l-.09,0a8.25,8.25,0,0,0-1.35.62l-26.61,15.46a9.18,9.18,0,0,1,1.35-.62c.31-.11.64-.2,1-.28l.31-.08a9.09,9.09,0,0,1,1.29-.16l.26,0a12,12,0,0,1,1.33,0h.15c.47,0,1,.12,1.44.22l.15,0q.75.17,1.53.42l.11,0a14.79,14.79,0,0,1,1.64.66l.11,0c.57.26,1.14.56,1.72.89s.9.55,1.34.84l.07,0q.67.47,1.32,1h0Z"/><path class="cls-9" d="M282,216.26l.4.31c.66.5,1.32,1,2,1.56l.31.26c.71.6,1.41,1.22,2.09,1.86l.67.63c.47.45.94.91,1.4,1.38l1,1,1,1.13c.62.69,1.23,1.4,1.84,2.12l.67.8c.8,1,1.58,2,2.34,3l.39.55c.62.87,1.23,1.75,1.82,2.64l.69,1.07c.48.76,1,1.52,1.41,2.3.22.37.45.74.66,1.12.5.87,1,1.74,1.43,2.63.15.26.29.53.43.8.59,1.15,1.14,2.31,1.67,3.48.25.56.48,1.12.72,1.69s.37.86.54,1.29c.38.94.74,1.88,1.07,2.83.06.16.11.32.16.48.32.91.62,1.82.89,2.73l26.61-15.46c-.11-.37-.22-.73-.34-1.1-.17-.55-.36-1.09-.55-1.64-.05-.15-.1-.31-.16-.47s0-.1-.05-.15c-.3-.84-.62-1.69-.95-2.53,0-.05-.05-.1-.07-.16-.17-.42-.36-.85-.54-1.27s-.41-1-.64-1.53a1.42,1.42,0,0,1-.08-.18c-.53-1.17-1.08-2.33-1.67-3.47,0-.06-.05-.12-.08-.17-.11-.22-.24-.43-.35-.64-.46-.88-.93-1.76-1.43-2.62-.21-.38-.44-.75-.66-1.13-.46-.77-.93-1.54-1.41-2.29l-.69-1.08c-.59-.89-1.2-1.76-1.82-2.63l-.39-.55q-1.14-1.54-2.34-3l-.17-.21c-.16-.2-.34-.39-.5-.58-.61-.72-1.22-1.43-1.84-2.12-.14-.15-.27-.31-.4-.46s-.44-.45-.65-.68l-1-1-.47-.49c-.31-.31-.62-.6-.93-.89s-.44-.43-.67-.63a3.19,3.19,0,0,0-.26-.26c-.56-.51-1.13-1-1.7-1.5l-.13-.11-.31-.25c-.38-.32-.76-.64-1.15-.95l-.81-.61-.4-.31-.29-.22c-.48-.36-1-.71-1.46-1l-.42-.28c-.13-.09-.26-.18-.4-.26s-.4-.28-.61-.41l-1.4-.86-.32-.18-1.06-.6-.4-.2-.54-.28-.42-.22-.67-.31-.47-.23-.19-.09c-.45-.2-.89-.39-1.34-.56h0c-.44-.17-.88-.34-1.31-.49l-.18-.06-.48-.16-.67-.22-.34-.09-.58-.16-.44-.12-.48-.11-.6-.13-.31-.07-.55-.09-.64-.11-.23,0-.56,0-.72-.08-.2,0h-.48c-.28,0-.57,0-.85,0h-.23l-.37,0c-.34,0-.68,0-1,0l-.31,0-.24,0a14.86,14.86,0,0,0-1.49.22l-.18,0-.06,0-.36.08-.88.22-.45.14c-.18.05-.37.1-.55.17l-.17.06c-.3.11-.59.24-.89.37-.14.06-.29.11-.43.18-.42.2-.84.41-1.24.64h0L253.48,210.7c.41-.23.83-.45,1.25-.65l.43-.18q.43-.19.9-.36c.23-.09.47-.16.7-.24l.46-.14c.29-.08.58-.15.88-.21.12,0,.24-.07.36-.09l.23,0q.75-.14,1.5-.21l.55-.05c.33,0,.67,0,1-.05h.6l.85,0,.68,0,.72.07.79.1.64.1.86.16.61.14.91.22.58.16,1,.31.48.16c.49.17,1,.35,1.49.56h0c.5.2,1,.42,1.52.66l.47.22,1.09.53.54.28c.48.26,1,.52,1.46.8.78.45,1.56.94,2.33,1.45l.4.26C280.53,215.21,281.26,215.73,282,216.26Z"/><path class="cls-10" d="M365.78,281.4c0-.38,0-.76-.06-1.15,0-.17,0-.35,0-.52a1.79,1.79,0,0,0,0-.23l0-.4c0-.39-.08-.78-.13-1.17s-.11-.8-.17-1.2v-.05c-.06-.39-.13-.77-.2-1.16s-.17-.86-.26-1.29l-.09-.36-.06-.27c0-.23-.1-.45-.16-.68-.12-.47-.24-.93-.38-1.4-.05-.19-.11-.37-.16-.55s-.08-.25-.11-.37l-.18-.58c-.17-.52-.34-1-.53-1.58L363,268c-.07-.18-.14-.36-.2-.53s-.22-.61-.34-.91-.36-.84-.54-1.26c-.08-.21-.16-.41-.25-.62s-.07-.17-.11-.25c-.23-.5-.48-1-.72-1.49s-.34-.74-.52-1.1a.61.61,0,0,1-.07-.14c-.31-.61-.65-1.2-1-1.8-.15-.26-.29-.54-.44-.8-.52-.9-1.06-1.78-1.63-2.65l-.35-.51c-.46-.69-.93-1.38-1.42-2-.22-.31-.46-.59-.68-.89-.36-.46-.71-.93-1.08-1.39l-.13-.15c-.28-.34-.58-.67-.86-1s-.64-.75-1-1.12l-.23-.23-.45-.47c-.28-.29-.55-.59-.84-.87s-.54-.52-.82-.78l-.31-.3-.2-.19c-.4-.38-.81-.74-1.23-1.09l-.59-.49-.25-.21-.28-.22c-.36-.29-.72-.57-1.09-.83s-.52-.38-.79-.57l-.14-.1-.11-.08c-.34-.23-.68-.46-1-.67s-.67-.42-1-.62l-.23-.14-.75-.42c-.32-.17-.64-.34-1-.49l-.27-.13-.21-.1-.48-.22c-.32-.15-.63-.28-.95-.41l-.37-.14-.23-.08-.35-.14c-.33-.11-.65-.22-1-.31l-.4-.11-.25-.07-.33-.09c-.34-.09-.67-.16-1-.23l-.45-.08L307.57,254c.59.1,1.19.24,1.79.4l.25.07c.56.16,1.14.35,1.72.56l.23.09c.59.22,1.19.48,1.8.76l.21.1c.65.32,1.31.66,2,1.05s1.59,1,2.38,1.51l.13.09c.73.51,1.45,1.06,2.16,1.63l.25.21c.69.56,1.36,1.15,2,1.76l.31.3c.57.53,1.12,1.09,1.66,1.65l.45.48c.41.43.8.89,1.2,1.35s.58.65.86,1c.41.51.81,1,1.21,1.56.23.29.46.57.68.87.49.67,1,1.37,1.43,2.07.11.16.23.31.34.48.57.87,1.11,1.76,1.63,2.66.15.25.28.52.43.78.36.65.72,1.3,1.06,2,.18.36.35.72.52,1.08.28.59.57,1.17.83,1.76.09.2.17.41.26.61.3.72.59,1.44.87,2.17.06.18.13.36.2.53.31.85.59,1.7.86,2.56,0,.12.07.25.11.38.26.87.49,1.75.7,2.62l.06.27c.22.94.4,1.88.55,2.81v0q.22,1.41.33,2.79a2,2,0,0,1,0,.23c.07.93.12,1.84.11,2.74s0,1.77-.12,2.6a1.79,1.79,0,0,0,0,.23c-.08.76-.19,1.5-.33,2.21,0,.09,0,.19,0,.28-.15.68-.32,1.34-.51,2l-.12.35a17,17,0,0,1-.66,1.69l-.08.18a13.68,13.68,0,0,1-1,1.73c0,.07-.1.13-.14.2a14.41,14.41,0,0,1-.92,1.22c-.12.14-.24.27-.37.4a12,12,0,0,1-.89.86l-.38.33a11.55,11.55,0,0,1-1.37.95l26.61-15.46a12.86,12.86,0,0,0,1.37-.95l.38-.34a10.3,10.3,0,0,0,.89-.86c.12-.13.25-.26.37-.4a14.23,14.23,0,0,0,.92-1.21c0-.07.1-.13.14-.2l0,0a14,14,0,0,0,.9-1.62l0-.06.08-.18c.16-.36.32-.73.47-1.11.07-.19.13-.39.19-.59l.12-.34c0-.11.07-.21.1-.32.12-.39.22-.79.32-1.21l.09-.44c0-.1,0-.19.05-.29l.09-.43c.06-.37.12-.74.17-1.13l.06-.65,0-.22,0-.27c0-.37.05-.74.07-1.12s0-.75,0-1.14v-.07C365.79,282.11,365.79,281.76,365.78,281.4Z"/></g><path class="cls-6" d="M277.07,213c13.75,7.94,25.52,24.37,30.5,41a24.24,24.24,0,0,1,8,3c13.1,7.56,23.68,25.88,23.63,40.93S328.49,319,315.39,311.48l-87.53-50.54c-10-5.79-18.15-19.83-18.12-31.37s8.2-16.18,18.24-10.39c2.57-6,8.87-7.62,16.23-3.37a25.21,25.21,0,0,1,2.73,1.85C252.27,207.72,263.76,205.33,277.07,213Z"/><g class="cls-1"><ellipse class="cls-11" cx="205.94" cy="338.99" rx="41.51" ry="71.66" transform="translate(-133.63 543.96) rotate(-89.84)"/><path class="cls-12" d="M277.6,313.23c-1,25.48-33.59,37.42-55.1,40.21a119.67,119.67,0,0,1-48.59-3.34c-18.74-5-40.12-19.34-39.63-37.28l-.07,26c-.45,18,20.83,32.24,39.62,37.27a119.18,119.18,0,0,0,45,3.77c20.27-2.21,45.88-10.15,56-29.38a25.94,25.94,0,0,0,2.72-11.26Z"/><ellipse class="cls-13" cx="205.94" cy="313.03" rx="41.51" ry="71.66" transform="translate(-107.67 518.08) rotate(-89.84)"/></g><path class="cls-14" d="M251.57,286.42c25.46,14.7,25.59,38.53.31,53.22s-66.44,14.7-91.9,0-25.58-38.52-.29-53.22S226.12,271.73,251.57,286.42Z"/><path class="cls-15" d="M270.7,301.13c-.63,11.28-9.56,19.9-18.82,25.28-14.72,8.37-32,11.32-48.79,11-14.91-.43-30.06-3.58-43.11-11-10.93-6.57-18.77-14.55-19.17-26.79l0,13.24c-.38,16.75,19.72,29.7,37,34.1A108.74,108.74,0,0,0,225,349c16.85-3.13,37.28-10.88,44.28-27.85a23.77,23.77,0,0,0,1.48-7.95l0-13.24C270.75,300.37,270.72,300.75,270.7,301.13Z"/><path class="cls-14" d="M251.57,273.19c25.46,14.69,25.59,38.52.31,53.22s-66.44,14.7-91.9,0-25.58-38.52-.29-53.22S226.12,258.49,251.57,273.19Z"/><g class="cls-1"><ellipse class="cls-11" cx="205.94" cy="299.49" rx="41.51" ry="71.66" transform="translate(-94.13 504.58) rotate(-89.84)"/><path class="cls-16" d="M277.6,273.74c-1,25.47-33.59,37.42-55.1,40.2a119.32,119.32,0,0,1-48.59-3.34c-18.74-5-40.12-19.33-39.63-37.27l-.07,26c-.45,18,20.83,32.25,39.62,37.27a119,119,0,0,0,45,3.77c20.27-2.21,45.88-10.15,56-29.38a25.86,25.86,0,0,0,2.72-11.25Z"/><ellipse class="cls-17" cx="205.94" cy="273.53" rx="41.51" ry="71.66" transform="translate(-68.17 478.7) rotate(-89.84)"/></g><path class="cls-14" d="M251.57,246.85c25.46,14.7,25.59,38.53.31,53.22s-66.44,14.7-91.9,0-25.58-38.52-.29-53.22S226.12,232.16,251.57,246.85Z"/><path class="cls-18" d="M270.7,261.56c-.63,11.28-9.56,19.9-18.82,25.27-14.72,8.38-32,11.33-48.79,11-14.91-.43-30.06-3.58-43.11-11-10.93-6.57-18.77-14.54-19.17-26.79l0,13.24c-.38,16.76,19.72,29.71,37,34.11A108.89,108.89,0,0,0,225,309.45c16.85-3.12,37.28-10.88,44.28-27.84a23.78,23.78,0,0,0,1.48-8l0-13.24C270.75,260.79,270.72,261.18,270.7,261.56Z"/><path class="cls-14" d="M251.57,233.61c25.46,14.7,25.59,38.53.31,53.22s-66.44,14.7-91.9,0-25.58-38.52-.29-53.22S226.12,218.92,251.57,233.61Z"/><g class="cls-1"><ellipse class="cls-11" cx="205.94" cy="259.92" rx="41.51" ry="71.66" transform="translate(-54.56 465.12) rotate(-89.84)"/><path class="cls-19" d="M277.6,234.16c-1,25.48-33.59,37.42-55.1,40.21A119.67,119.67,0,0,1,173.91,271c-18.74-5-40.12-19.34-39.63-37.28l-.07,26C133.76,277.7,155,292,173.83,297a119.18,119.18,0,0,0,45,3.77c20.27-2.21,45.88-10.15,56-29.38a25.94,25.94,0,0,0,2.72-11.26Z"/><ellipse class="cls-20" cx="205.94" cy="233.96" rx="41.51" ry="71.66" transform="translate(-28.6 439.23) rotate(-89.84)"/></g><path class="cls-14" d="M251.57,207.31c25.46,14.7,25.59,38.53.31,53.22s-66.44,14.7-91.9,0-25.58-38.53-.29-53.23S226.12,192.62,251.57,207.31Z"/><path class="cls-21" d="M270.7,222c-.63,11.28-9.56,19.9-18.82,25.28-14.72,8.37-32,11.32-48.79,11-14.91-.43-30.06-3.57-43.11-11-10.93-6.57-18.77-14.55-19.17-26.79l0,13.24c-.38,16.75,19.72,29.7,37,34.11A108.89,108.89,0,0,0,225,269.92c16.85-3.13,37.28-10.88,44.28-27.85a23.72,23.72,0,0,0,1.48-7.95l0-13.24C270.75,221.26,270.72,221.64,270.7,222Z"/><path class="cls-14" d="M251.57,194.08c25.46,14.7,25.59,38.53.31,53.22s-66.44,14.7-91.9,0-25.58-38.52-.29-53.22S226.12,179.38,251.57,194.08Z"/><g class="cls-1"><ellipse class="cls-11" cx="205.94" cy="220.38" rx="41.51" ry="71.66" transform="translate(-15.02 425.7) rotate(-89.84)"/><path class="cls-22" d="M277.6,194.63c0,.42,0,.84-.06,1.26s0,.72-.08,1.08-.07.63-.11.94-.11.72-.17,1.08-.13.63-.2.95-.16.69-.26,1-.18.63-.27,1-.22.69-.35,1-.22.62-.35.93-.29.72-.45,1.08-.28.61-.43.91-.36.72-.55,1.08l-.48.86c-.25.43-.52.85-.79,1.27-.17.26-.33.52-.5.77-.32.47-.66.93-1,1.39l-.45.6c-.58.73-1.2,1.46-1.86,2.17l-.53.55c-.52.54-1.06,1.08-1.62,1.61l-.78.73-1,.9-1,.82-1.12.88-1.07.8-1.21.85c-.38.26-.75.52-1.14.77l-1.3.83c-.55.34-1.09.68-1.66,1-1.07.62-2.18,1.21-3.3,1.79l-1,.49c-.87.43-1.75.84-2.65,1.24l-.91.42c-1.17.5-2.36,1-3.57,1.45l-.65.24c-1,.38-2.06.74-3.11,1.09l-1.3.42-1.74.53c-.49.14-1,.29-1.49.42s-1.18.33-1.78.48l-1.51.38c-.6.15-1.21.28-1.82.42s-1,.23-1.52.33l-1.87.37-1.45.27c-1.34.24-2.69.46-4,.65l-.58.07c-1.19.16-2.38.3-3.57.43l-1.37.13c-.77.07-1.53.14-2.3.19l-1.46.1-2.41.13-1.36.05-2.08,0-1.48,0c-.74,0-1.48,0-2.22,0l-1.34,0-2.06-.08c-.47,0-.95,0-1.42-.06-.74,0-1.48-.09-2.21-.15l-1.27-.08c-.93-.08-1.85-.18-2.77-.27l-.67-.07c-1.15-.13-2.29-.27-3.43-.43l-.58-.09c-1-.15-1.93-.29-2.88-.46l-1.23-.23c-.73-.13-1.47-.27-2.2-.42-.38-.07-.76-.16-1.15-.25-.8-.17-1.61-.35-2.41-.54l-1.32-.33-2.18-.58-1.22-.35c-1.14-.33-2.28-.68-3.39-1.05l-.6-.19c-1.28-.44-2.54-.9-3.78-1.39l-.79-.32q-2.43-1-4.75-2.06c-.15-.08-.3-.16-.46-.23-1.61-.78-3.19-1.6-4.7-2.48-14.13-8.16-21.19-18.86-21.16-29.55l-.07,26c0,10.69,7,21.4,21.15,29.55,1.52.88,3.1,1.7,4.71,2.48l.46.23c1.54.73,3.13,1.42,4.75,2.07l.42.18.36.13c1.25.49,2.51,1,3.79,1.39l.59.19q1.68.56,3.39,1.05l.57.18.66.17,2.17.58,1.33.33,2.42.55.89.2.24,0c.74.16,1.49.29,2.24.43l1.19.22c1,.17,2,.32,3,.47l.49.07h0c1.14.16,2.28.3,3.43.43l.65.07c.93.09,1.86.19,2.8.27h.06c.39,0,.78,0,1.16.08q1.13.09,2.25.15c.47,0,.94,0,1.42.06.69,0,1.38.07,2.07.08h1.31l2.25,0,1.46,0c.7,0,1.4,0,2.1-.05h.39l1-.05c.81,0,1.62-.07,2.42-.12l1.45-.1c.77-.06,1.54-.12,2.31-.2l.81-.06.55-.07c1.2-.12,2.4-.27,3.59-.43l.56-.07c1.36-.19,2.71-.41,4.06-.65l.38-.06,1.06-.2,1.87-.37,1.52-.34q.93-.19,1.83-.42l1.5-.38,1.79-.47,1.49-.43,1.74-.53.76-.23.54-.19c1.05-.35,2.09-.71,3.11-1.09l.64-.24c1.22-.46,2.4-1,3.58-1.45l.9-.41c.9-.4,1.79-.82,2.66-1.25l1-.49c1.12-.57,2.22-1.16,3.29-1.79l.88-.51.78-.5c.44-.27.88-.55,1.3-.83s.77-.51,1.14-.77.82-.56,1.22-.85.71-.53,1.06-.8.76-.58,1.12-.87.67-.55,1-.83.7-.6,1-.9l.43-.37c.12-.12.23-.24.35-.35.57-.54,1.11-1.08,1.63-1.62.17-.18.36-.36.52-.55.66-.71,1.28-1.43,1.86-2.17l.08-.09.37-.51c.35-.46.7-.92,1-1.39l.5-.76c.27-.42.53-.85.78-1.27l.22-.35c.09-.17.17-.35.27-.52.19-.36.37-.72.55-1.08s.29-.6.42-.9.32-.73.46-1.09c.06-.16.14-.32.2-.48s.1-.3.15-.44c.12-.35.24-.69.34-1s.2-.63.28-.95.18-.7.25-1c.05-.19.1-.38.14-.57s0-.25.06-.38c.07-.36.12-.72.17-1.08s.09-.62.12-.94.06-.72.08-1.08c0-.21,0-.42,0-.63s0-.42,0-.63h0Z"/><ellipse class="cls-23" cx="205.94" cy="194.42" rx="41.51" ry="71.66" transform="translate(10.94 399.81) rotate(-89.84)"/></g></svg>