<svg id="Objects" xmlns="http://www.w3.org/2000/svg" xmlns:xlink="http://www.w3.org/1999/xlink" width="500" height="500" viewBox="0 0 500 500"><defs><style>.cls-1{fill:none;}.cls-2{fill:url(#linear-gradient);}.cls-3{fill:url(#linear-gradient-2);}.cls-4{fill:#a3a3a3;}.cls-5{fill:url(#linear-gradient-3);}.cls-6{fill:#8b8b8b;}.cls-7{fill:url(#linear-gradient-4);}.cls-8{fill:url(#linear-gradient-5);}.cls-9{fill:url(#linear-gradient-6);}.cls-10{clip-path:url(#clip-path);}.cls-11{fill:#8bc0ff;}.cls-12{fill:#5da5ff;}.cls-13{fill:url(#linear-gradient-7);}.cls-14{fill:url(#linear-gradient-8);}.cls-15{fill:url(#linear-gradient-9);}.cls-16{fill:url(#linear-gradient-10);}.cls-17{fill:url(#linear-gradient-11);}.cls-18{fill:#014cc3;}.cls-19{fill:#6b6b6b;}</style><linearGradient id="linear-gradient" x1="330.21" y1="203.17" x2="360.85" y2="150.11" gradientUnits="userSpaceOnUse"><stop offset="0" stop-color="#bebebe"/><stop offset="0.01" stop-color="#b8b8b8"/><stop offset="0.04" stop-color="#adadad"/><stop offset="0.09" stop-color="#a6a6a6"/><stop offset="0.21" stop-color="#a4a4a4"/><stop offset="0.57" stop-color="#dcdcdc"/><stop offset="1" stop-color="#f3f3f3"/></linearGradient><linearGradient id="linear-gradient-2" x1="307.2" y1="181.93" x2="370.1" y2="181.93" gradientTransform="translate(136.33 -144.95) rotate(30)" gradientUnits="userSpaceOnUse"><stop offset="0" stop-color="#dcdcdc"/><stop offset="1" stop-color="#bebebe"/></linearGradient><linearGradient id="linear-gradient-3" x1="332.17" y1="208.95" x2="313.62" y2="176.81" xlink:href="#linear-gradient"/><linearGradient id="linear-gradient-4" x1="319.27" y1="211.02" x2="319.27" y2="179.83" gradientUnits="userSpaceOnUse"><stop offset="0.12" stop-color="#a3a3a3"/><stop offset="0.21" stop-color="#989898"/><stop offset="0.55" stop-color="#747474"/><stop offset="0.82" stop-color="#5e5e5e"/><stop offset="1" stop-color="#565656"/></linearGradient><linearGradient id="linear-gradient-5" x1="285.8" y1="2274.6" x2="315.67" y2="2288.53" gradientTransform="translate(0 -2054.62)" gradientUnits="userSpaceOnUse"><stop offset="0.39" stop-color="#f0f0f0"/><stop offset="0.78" stop-color="#a3a3a3"/></linearGradient><linearGradient id="linear-gradient-6" x1="170.6" y1="277.01" x2="170.6" y2="362.92" gradientTransform="translate(182.84 -42.43) rotate(30)" gradientUnits="userSpaceOnUse"><stop offset="0" stop-color="#282828"/><stop offset="1" stop-color="#dbdbdb"/></linearGradient><clipPath id="clip-path"><ellipse class="cls-1" cx="170.71" cy="320.14" rx="27.01" ry="46.79" transform="translate(-137.2 128.25) rotate(-30)"/></clipPath><linearGradient id="linear-gradient-7" x1="169" y1="324.18" x2="180.38" y2="312.8" gradientUnits="userSpaceOnUse"><stop offset="0" stop-color="#c3ddff"/><stop offset="1" stop-color="#005eff"/></linearGradient><linearGradient id="linear-gradient-8" x1="201.36" y1="332.09" x2="201.36" y2="359.56" gradientUnits="userSpaceOnUse"><stop offset="0" stop-color="#282828"/><stop offset="1" stop-color="#a3a3a3"/></linearGradient><linearGradient id="linear-gradient-9" x1="258.23" y1="328.23" x2="207.69" y2="240.69" xlink:href="#linear-gradient"/><linearGradient id="linear-gradient-10" x1="123.32" y1="311.26" x2="193.74" y2="311.26" gradientTransform="matrix(1, 0, 0, 1, 0, 0)" xlink:href="#linear-gradient-2"/><linearGradient id="linear-gradient-11" x1="135.14" y1="283.82" x2="135.14" y2="328.6" xlink:href="#linear-gradient-8"/></defs><path class="cls-2" d="M377.31,195.92c0-20.06-14.08-44.44-31.45-54.47-8.77-5.06-16.7-5.49-22.41-2.1h0l-6.4,3.71,6,10.79c0,.25,0,.5,0,.76,0,19.74,13.66,43.66,30.66,54l6.77,12.09,7.47-4.31h0C373.73,213.09,377.31,206,377.31,195.92Z"/><ellipse class="cls-3" cx="338.65" cy="181.93" rx="25.68" ry="44.47" transform="translate(-45.59 193.7) rotate(-30)"/><path class="cls-4" d="M361,220.35l-.3.17Z"/><path class="cls-5" d="M348.53,193.24c0-8.38-5.88-18.56-13.13-22.75-3.23-1.86-6.18-2.21-8.47-1.3h0l-.07,0a6.19,6.19,0,0,0-1.41.82l-14.52,8.34S285.45,197,308.26,212.3l9-1.28,7.52-2.16,3.74,2.16,15.93-9.18.41-.23.2-.12v0C347.21,200,348.53,197.19,348.53,193.24Z"/><path class="cls-6" d="M316.9,182.63c6.89-4,12.51-.77,12.54,7.15s-5.57,17.59-12.45,21.56-12.52.78-12.54-7.14S310,186.61,316.9,182.63Z"/><path class="cls-7" d="M309.91,200.27,328.53,211c4.22-5.52,7-12.52,7-18.82,0-7.4-4.14-12.37-10.24-12.37a15.05,15.05,0,0,0-7.5,2.24c-7.19,4.15-13,13-14.69,21.56Z"/><path class="cls-8" d="M332,189.81c-.93-6-4.72-8.76-9.24-7.46L318,184.58a22.55,22.55,0,0,0-7.07,7.06h0l-8.56,12.62h0c-4.73-1.8-8.48-.76-10.25,2.29h0l-.05.12a8,8,0,0,0-.43.93l-26.28,56.71,28.48,16.24,34.78-74.45h0C331.36,201,332.8,194.88,332,189.81Z"/><ellipse class="cls-4" cx="170.71" cy="320.24" rx="29.07" ry="50.34" transform="translate(-137.25 128.26) rotate(-30)"/><ellipse class="cls-9" cx="170.6" cy="319.96" rx="27.16" ry="47.05" transform="translate(-137.13 128.17) rotate(-30)"/><g class="cls-10"><ellipse class="cls-11" cx="176.91" cy="316.31" rx="27.01" ry="46.79" transform="translate(-134.45 130.84) rotate(-30)"/><ellipse class="cls-12" cx="176.91" cy="316.31" rx="13.57" ry="23.59" transform="translate(-133.28 128.87) rotate(-29.64)"/><path class="cls-13" d="M178,330.41c-7.32-4.05-13.26-13.89-13.26-22,0-3.63,1.2-6.28,3.17-7.75l.22-.16-.25.12c-2.55,1.25-4.15,4.15-4.15,8.35,0,8.09,5.93,17.93,13.25,22,3.58,2,6.83,2.2,9.21,1a5.45,5.45,0,0,0,.66-.39,6.39,6.39,0,0,1-.73.27C183.84,332.51,181,332.1,178,330.41Z"/></g><path class="cls-14" d="M200.82,359.56c3.47-4.34,5.48-10.7,5.48-18.77a54.21,54.21,0,0,0-.72-8.7l-2.17.43a50.35,50.35,0,0,1,.46,6.65c0,9.19-2.8,16-7.46,19.93Z"/><path class="cls-15" d="M315.29,267.94c-.93-4.56-3.29-14.22-12-28.91-12.67-21.46-35.06-32.75-48.24-25.2L135.24,282.51l0,.05c6.24-2.62,14.36-1.7,23.25,3.43,17.88,10.33,32.68,34.11,35.21,55.41l12.16-7a51.91,51.91,0,0,1,.4,6.41c0,10.8-3.6,18.53-9.5,22.46l106.54-61.07c6.52-3.68,10.57-11.68,10.57-23.12a53.25,53.25,0,0,0-.44-6.72h0A3.91,3.91,0,0,0,315.29,267.94Z"/><path class="cls-16" d="M125.83,302.16c1.24-11.44,7.44-18.37,16.8-18.37,4.43,0,9.46,1.56,14.57,4.51,16.64,9.61,30.55,31.42,33.62,51.4l2.92,1.68c-2.53-21.3-17.33-45.06-35.21-55.39s-32.68-3.64-35.21,14.72Z"/><path class="cls-17" d="M142,283.82c-9,.3-15,7.15-16.2,18.34l9.37-5.35c-.06.94-.09,1.89-.09,2.88,0,9.22,2.63,19.26,7.07,28.68l2.27.23c-4.46-9.11-7.11-18.88-7.11-27.84C137.34,293.57,139.06,287.86,142,283.82Z"/><path class="cls-18" d="M265.66,291.71c3-1.72,5.43-.33,5.44,3.1a11.93,11.93,0,0,1-5.4,9.36c-3,1.72-5.43.33-5.44-3.1A12,12,0,0,1,265.66,291.71Z"/><path class="cls-18" d="M282.58,281.87c3-1.72,5.43-.33,5.43,3.1a11.92,11.92,0,0,1-5.4,9.36c-3,1.73-5.43.34-5.44-3.1A12,12,0,0,1,282.58,281.87Z"/><path class="cls-18" d="M299.49,272c3-1.73,5.43-.34,5.44,3.1a11.93,11.93,0,0,1-5.4,9.35c-3,1.73-5.43.34-5.44-3.1A11.9,11.9,0,0,1,299.49,272Z"/><path class="cls-19" d="M323.27,195c2.18-1.26,4-.25,4,2.25A8.69,8.69,0,0,1,323.3,204c-2.18,1.26-4,.25-4-2.26A8.68,8.68,0,0,1,323.27,195Z"/></svg>