<svg id="Objects" xmlns="http://www.w3.org/2000/svg" xmlns:xlink="http://www.w3.org/1999/xlink" width="500" height="500" viewBox="0 0 500 500"><defs><style>.cls-1{fill:#bebebe;}.cls-2{fill:#f3f3f3;}.cls-3{fill:url(#linear-gradient);}.cls-4{fill:url(#linear-gradient-2);}</style><linearGradient id="linear-gradient" x1="145.73" y1="250.93" x2="308.7" y2="250.93" gradientUnits="userSpaceOnUse"><stop offset="0" stop-color="#bebebe"/><stop offset="1" stop-color="#a4a4a4"/></linearGradient><linearGradient id="linear-gradient-2" x1="152.29" y1="250.31" x2="298.82" y2="250.31" gradientUnits="userSpaceOnUse"><stop offset="0" stop-color="#dcdcdc"/><stop offset="1" stop-color="#bebebe"/></linearGradient></defs><path class="cls-1" d="M326.28,220.85,245.41,134l-80.88-6.54s-13,109.63,80.88,225.92C339.28,345.5,326.28,220.85,326.28,220.85Z"/><polygon class="cls-2" points="164.53 127.47 146.34 137.98 227.21 144.52 245.41 134.01 164.53 127.47"/><path class="cls-3" d="M308.08,231.36l-80.87-86.84L194,141.16,146.34,138s-13,109.63,80.87,225.91C321.08,356,308.08,231.36,308.08,231.36Z"/><path class="cls-4" d="M298.27,232.71l-72.72-78.08-29.89-3-42.82-2.86s-11.68,98.57,72.71,203.12C310,344.77,298.27,232.71,298.27,232.71Z"/></svg>