<svg id="Objects" xmlns="http://www.w3.org/2000/svg" xmlns:xlink="http://www.w3.org/1999/xlink" width="500" height="500" viewBox="0 0 500 500"><defs><style>.cls-1{isolation:isolate;}.cls-2{fill:#bebebe;}.cls-3{fill:#f3f3f3;}.cls-4{fill:#dcdcdc;}.cls-5{fill:#8bc0ff;}.cls-6{fill:#1a89ff;}.cls-7{fill:#c7dcfd;}.cls-8{fill:url(#linear-gradient);}.cls-9{fill:url(#linear-gradient-2);}.cls-10{fill:url(#linear-gradient-3);}.cls-11{fill:url(#linear-gradient-4);}.cls-12{fill:url(#linear-gradient-5);}.cls-13{fill:url(#linear-gradient-6);}.cls-14{opacity:0.25;}.cls-15{fill:url(#linear-gradient-7);}</style><linearGradient id="linear-gradient" x1="785.33" y1="330.83" x2="804.31" y2="323.92" gradientTransform="matrix(-1, 0, 0, 1, 976.95, 0)" gradientUnits="userSpaceOnUse"><stop offset="0" stop-color="#97c1ff"/><stop offset="0.04" stop-color="#8cbaff"/><stop offset="0.13" stop-color="#7bafff"/><stop offset="0.23" stop-color="#71a8ff"/><stop offset="0.35" stop-color="#6ea6ff"/><stop offset="1" stop-color="#c9deff"/></linearGradient><linearGradient id="linear-gradient-2" x1="773.99" y1="288.33" x2="787.22" y2="288.33" gradientTransform="matrix(-0.34, -0.94, -0.94, 0.34, 734.02, 923.46)" gradientUnits="userSpaceOnUse"><stop offset="0" stop-color="#a2a2a2"/><stop offset="0" stop-color="#a2a2a2"/><stop offset="0.22" stop-color="#949494"/><stop offset="0.49" stop-color="#8c8c8c"/><stop offset="1" stop-color="#8a8a8a"/></linearGradient><linearGradient id="linear-gradient-3" x1="774.21" y1="295.54" x2="791.39" y2="295.54" gradientTransform="matrix(-1, 0, 0, 1, 976.95, 0)" gradientUnits="userSpaceOnUse"><stop offset="0" stop-color="#bebebe"/><stop offset="0.09" stop-color="#b1b1b1"/><stop offset="0.2" stop-color="#a7a7a7"/><stop offset="0.35" stop-color="#a4a4a4"/><stop offset="1" stop-color="#dcdcdc"/></linearGradient><linearGradient id="linear-gradient-4" x1="942.35" y1="297.63" x2="970.26" y2="237.77" gradientTransform="matrix(-1, 0, 0, 1, 1150.9, 0)" gradientUnits="userSpaceOnUse"><stop offset="0" stop-color="#bebebe"/><stop offset="0.43" stop-color="#a4a4a4"/><stop offset="0.79" stop-color="#6f6f6f"/><stop offset="0.91" stop-color="#717171"/><stop offset="0.96" stop-color="#787878"/><stop offset="0.99" stop-color="#838383"/><stop offset="1" stop-color="#8c8c8c"/></linearGradient><linearGradient id="linear-gradient-5" x1="924.62" y1="294.79" x2="956.73" y2="225.94" gradientTransform="matrix(-1, 0, 0, 1, 1150.9, 0)" gradientUnits="userSpaceOnUse"><stop offset="0" stop-color="#bebebe"/><stop offset="0.01" stop-color="#b8b8b8"/><stop offset="0.04" stop-color="#adadad"/><stop offset="0.09" stop-color="#a6a6a6"/><stop offset="0.21" stop-color="#a4a4a4"/><stop offset="0.57" stop-color="#dcdcdc"/><stop offset="1" stop-color="#f3f3f3"/></linearGradient><linearGradient id="linear-gradient-6" x1="168.72" y1="268.13" x2="221.81" y2="268.13" gradientUnits="userSpaceOnUse"><stop offset="0" stop-color="#dcdcdc"/><stop offset="1" stop-color="#bebebe"/></linearGradient><linearGradient id="linear-gradient-7" x1="172.23" y1="268.13" x2="218.29" y2="268.13" gradientUnits="userSpaceOnUse"><stop offset="0" stop-color="#0062ff"/><stop offset="1" stop-color="#054ada"/></linearGradient></defs><g class="cls-1"><polygon class="cls-2" points="327.47 352.85 332.88 349.71 333.31 195.26 327.91 198.4 327.47 352.85"/><polygon class="cls-3" points="327.91 198.4 333.31 195.26 232.03 136.78 226.62 139.92 327.91 198.4"/><polygon class="cls-4" points="226.62 139.92 226.19 294.37 327.47 352.85 327.91 198.4 226.62 139.92"/></g><g class="cls-1"><polygon class="cls-2" points="313.35 361.32 318.75 358.18 319.19 203.73 313.78 206.87 313.35 361.32"/><polygon class="cls-3" points="313.78 206.87 319.19 203.73 217.9 145.25 212.5 148.39 313.78 206.87"/><polygon class="cls-4" points="212.5 148.39 212.06 302.84 313.35 361.32 313.78 206.87 212.5 148.39"/></g><g class="cls-1"><polygon class="cls-2" points="299 369.47 304.4 366.33 304.84 211.88 299.44 215.02 299 369.47"/><polygon class="cls-3" points="299.44 215.02 304.84 211.88 203.55 153.4 198.15 156.54 299.44 215.02"/><polygon class="cls-4" points="198.15 156.54 197.71 310.99 299 369.47 299.44 215.02 198.15 156.54"/></g><polygon class="cls-5" points="204.34 239.99 204.31 249.27 292.75 300.33 292.78 291.06 204.34 239.99"/><polygon class="cls-5" points="204.45 200.44 204.42 209.72 292.87 260.78 292.89 251.5 204.45 200.44"/><polygon class="cls-6" points="233.15 197.19 233.13 206.47 292.92 240.99 292.95 231.71 233.15 197.19"/><polygon class="cls-5" points="204.39 220.23 204.37 229.51 292.81 280.57 292.83 271.29 204.39 220.23"/><polygon class="cls-5" points="204.22 279.58 204.2 288.85 292.64 339.92 292.67 330.64 204.22 279.58"/><polygon class="cls-5" points="204.28 259.79 204.25 269.06 292.7 320.13 292.72 310.85 204.28 259.79"/><g class="cls-1"><ellipse class="cls-7" cx="191.89" cy="300.52" rx="7.44" ry="10.09" transform="translate(-156.1 378.19) rotate(-70.02)"/><path class="cls-8" d="M165.17,346.68a6,6,0,0,1,.26-2.9l17-46.72c-2.78,9.56,15,16,19,6.91l-17,46.72a6.35,6.35,0,0,1-3.66,3.59C174.88,356.64,166.46,353.14,165.17,346.68Z"/></g><g class="cls-1"><ellipse class="cls-9" cx="196.34" cy="288.33" rx="5.02" ry="6.8" transform="translate(-141.72 374.36) rotate(-70.02)"/><path class="cls-10" d="M185.61,299.45l0-.23s0-.06,0-.09V299a1.28,1.28,0,0,1,0-.19.57.57,0,0,1,0-.13v-.15c0-.15,0-.3.06-.44v0a.43.43,0,0,1,0,0,3.57,3.57,0,0,1,.1-.35.13.13,0,0,1,0-.06l0-.07L190,286a.56.56,0,0,0,0,.12c0,.12-.07.23-.1.35s0,.06,0,.08a3.47,3.47,0,0,0-.06.45.76.76,0,0,1,0,.15v.31a.62.62,0,0,1,0,.13s0,.09,0,.13l0,.23,0,.14a1.55,1.55,0,0,0,0,.21c0,.05,0,.1,0,.15l.06.19a1.42,1.42,0,0,0,.05.16,1.34,1.34,0,0,0,.07.18l.06.16.09.18c0,.05.05.1.07.16l.11.18.08.15c0,.07.09.13.13.19l.09.14.15.2a1.13,1.13,0,0,0,.1.13l.18.22.09.1.3.32.45.41.12.09.3.23a2.71,2.71,0,0,0,.35.24l.24.16.3.17a2.69,2.69,0,0,0,.29.16l.27.14.31.14.28.11.32.12.3.09.31.1.34.08.3.06.43.08.28,0h.15l.45,0h.8l.45,0,.16,0,.44-.08.1,0a4.84,4.84,0,0,0,.51-.14l.12,0,.38-.14.14-.06c.16-.08.31-.15.46-.24a4,4,0,0,0,1.86-2.13l-4.17,11.49a4.56,4.56,0,0,1-2.32,2.37l-.14.06-.38.14-.12,0-.51.14-.1,0-.44.07-.16,0-.45,0h-.8a3.15,3.15,0,0,1-.44,0h-.26l-.18,0-.43-.07-.12,0-.18,0-.34-.08-.13,0-.18-.06-.3-.1-.13,0-.19-.08-.28-.11-.11-.05-.2-.09-.27-.14-.11-.05-.18-.1-.29-.17-.11-.06-.14-.1-.35-.25-.12-.08-.18-.15-.12-.09-.4-.37-.05,0-.3-.31-.09-.11-.18-.22a.64.64,0,0,1-.1-.13l-.15-.19-.09-.14a2.12,2.12,0,0,1-.12-.2l-.09-.14-.1-.19a1.09,1.09,0,0,1-.08-.15l-.09-.19-.06-.16a1.34,1.34,0,0,1-.07-.18,1,1,0,0,1-.05-.16l-.06-.18a.31.31,0,0,1,0-.08.64.64,0,0,0,0-.07c0-.08,0-.15,0-.22Z"/></g><path class="cls-11" d="M172.73,260.69c-1.3-6.48-.15-15.34,4.07-19,1-1.35,13.71-8.21,15.35-9.29-12.13,7.82-5.59,29.36,1.4,39.7,5.95,9.34,19.34,22.44,31.2,16.41l-13.18,7.66A11.42,11.42,0,0,1,208,297.5c-8.47,1.36-16.2-4.38-21.78-10.16A53.44,53.44,0,0,1,172.73,260.69Z"/><path class="cls-12" d="M221.76,281.53c-1.1-15.58-9.41-30.52-21.37-40.44-6.47-5.17-15.95-9.76-23.93-5.32l13.19-7.66a13.26,13.26,0,0,1,5.08-1.68c12.92-1,24.35,10.59,30.9,20.61,8.06,11.9,15.57,36.78,1.62,45.78l-13.19,7.66C219.25,297.77,222.38,289.8,221.76,281.53Z"/><path class="cls-13" d="M221.81,283.45c-.05,16.85-12,23.65-26.64,15.18s-26.5-29-26.45-45.83,12-23.65,26.63-15.18S221.86,266.61,221.81,283.45Zm-26.63,11.14c12.7,7.33,23.07,1.42,23.11-13.17S208,249,195.33,241.66s-23.06-1.42-23.1,13.17,10.26,32.43,23,39.76"/><g class="cls-14"><path class="cls-15" d="M195.33,241.66c-12.69-7.33-23.06-1.42-23.1,13.17s10.26,32.43,23,39.76,23.07,1.42,23.11-13.17S208,249,195.33,241.66Z"/></g></svg>