<svg id="Objects" xmlns="http://www.w3.org/2000/svg" xmlns:xlink="http://www.w3.org/1999/xlink" width="500" height="500" viewBox="0 0 500 500"><defs><style>.cls-1{fill:#42e8e0;}.cls-2{fill:url(#linear-gradient);}.cls-3{fill:url(#linear-gradient-2);}.cls-4{fill:url(#linear-gradient-3);}.cls-15,.cls-5,.cls-7{fill:none;}.cls-5{stroke:#dcdcdc;}.cls-6{fill:#545454;}.cls-7{stroke:#565656;stroke-width:0.6px;}.cls-15,.cls-7{stroke-miterlimit:10;}.cls-8{fill:#50d874;}.cls-9{fill:url(#New_Gradient_Swatch_3);}.cls-10,.cls-13,.cls-20,.cls-23{opacity:0.8;}.cls-10{fill:url(#New_Gradient_Swatch_3-2);}.cls-11,.cls-21{opacity:0.9;}.cls-11{fill:url(#linear-gradient-4);}.cls-12,.cls-14,.cls-22,.cls-24{opacity:0.3;}.cls-12{fill:url(#radial-gradient);}.cls-13{fill:url(#linear-gradient-5);}.cls-14{fill:url(#linear-gradient-6);}.cls-15{stroke:#e8e8e8;stroke-width:0.51px;}.cls-16{fill:url(#linear-gradient-7);}.cls-17{fill:url(#linear-gradient-8);}.cls-18{fill:url(#linear-gradient-9);}.cls-19{fill:url(#New_Gradient_Swatch_3-3);}.cls-20{fill:url(#New_Gradient_Swatch_3-4);}.cls-21{fill:url(#linear-gradient-10);}.cls-22{fill:url(#radial-gradient-2);}.cls-23{fill:url(#linear-gradient-11);}.cls-24{fill:url(#linear-gradient-12);}.cls-25{fill:url(#linear-gradient-13);}.cls-26{fill:url(#linear-gradient-14);}.cls-27{fill:url(#linear-gradient-15);}</style><linearGradient id="linear-gradient" x1="125.79" y1="355.27" x2="250" y2="355.27" gradientUnits="userSpaceOnUse"><stop offset="0" stop-color="#a4a4a4"/><stop offset="1" stop-color="#8c8c8c"/></linearGradient><linearGradient id="linear-gradient-2" x1="252.37" y1="381.35" x2="355.37" y2="336.38" gradientUnits="userSpaceOnUse"><stop offset="0" stop-color="#6f6f6f"/><stop offset="1" stop-color="#8c8c8c"/></linearGradient><linearGradient id="linear-gradient-3" x1="156.85" y1="353" x2="343.15" y2="245.44" gradientUnits="userSpaceOnUse"><stop offset="0" stop-color="#bebebe"/><stop offset="1" stop-color="#a4a4a4"/></linearGradient><radialGradient id="New_Gradient_Swatch_3" cx="250.84" cy="319.79" r="84.76" gradientUnits="userSpaceOnUse"><stop offset="0" stop-color="#69d6d4"/><stop offset="1" stop-color="#74a9ff"/></radialGradient><radialGradient id="New_Gradient_Swatch_3-2" cx="249.71" cy="366.51" r="101.94" xlink:href="#New_Gradient_Swatch_3"/><linearGradient id="linear-gradient-4" x1="143.8" y1="315.07" x2="250" y2="315.07" gradientUnits="userSpaceOnUse"><stop offset="0" stop-color="#00bae3"/><stop offset="1" stop-color="#0062ff"/></linearGradient><radialGradient id="radial-gradient" cx="303.1" cy="253.76" r="47.84" gradientUnits="userSpaceOnUse"><stop offset="0" stop-color="#69d6d4"/><stop offset="0.03" stop-color="#4a86be"/><stop offset="1" stop-color="#4795e3"/></radialGradient><linearGradient id="linear-gradient-5" x1="250" y1="315.07" x2="356.2" y2="315.07" gradientUnits="userSpaceOnUse"><stop offset="0" stop-color="#2f81fe"/><stop offset="1" stop-color="#58d2ed"/></linearGradient><linearGradient id="linear-gradient-6" x1="145.19" y1="282.49" x2="245.92" y2="226.53" gradientUnits="userSpaceOnUse"><stop offset="0" stop-color="#106efb"/><stop offset="1" stop-color="#005bcc"/></linearGradient><linearGradient id="linear-gradient-7" x1="125.79" y1="286.39" x2="250" y2="286.39" xlink:href="#linear-gradient"/><linearGradient id="linear-gradient-8" x1="252.37" y1="312.47" x2="355.37" y2="267.5" xlink:href="#linear-gradient-2"/><linearGradient id="linear-gradient-9" x1="156.85" y1="284.12" x2="343.15" y2="176.56" xlink:href="#linear-gradient-3"/><radialGradient id="New_Gradient_Swatch_3-3" cx="250.84" cy="249.84" r="84.76" xlink:href="#New_Gradient_Swatch_3"/><radialGradient id="New_Gradient_Swatch_3-4" cx="249.71" cy="296.56" r="101.94" xlink:href="#New_Gradient_Swatch_3"/><linearGradient id="linear-gradient-10" x1="143.8" y1="245.12" x2="250" y2="245.12" xlink:href="#linear-gradient-4"/><radialGradient id="radial-gradient-2" cx="303.1" cy="183.81" r="47.84" xlink:href="#radial-gradient"/><linearGradient id="linear-gradient-11" x1="250" y1="245.12" x2="356.2" y2="245.12" xlink:href="#linear-gradient-5"/><linearGradient id="linear-gradient-12" x1="145.19" y1="212.54" x2="245.92" y2="156.58" xlink:href="#linear-gradient-6"/><linearGradient id="linear-gradient-13" x1="125.79" y1="216.44" x2="250" y2="216.44" xlink:href="#linear-gradient"/><linearGradient id="linear-gradient-14" x1="252.37" y1="242.52" x2="355.37" y2="197.55" xlink:href="#linear-gradient-2"/><linearGradient id="linear-gradient-15" x1="218.95" y1="214.17" x2="281.05" y2="106.61" xlink:href="#linear-gradient-3"/></defs><polygon class="cls-1" points="250 370.93 125.79 299.22 125.79 339.61 250 411.32 374.21 339.61 374.21 299.22 250 370.93"/><polygon class="cls-2" points="250 411.32 125.79 339.61 125.79 299.22 250 370.93 250 411.32"/><polygon class="cls-3" points="374.21 339.61 250 411.32 250 370.93 374.21 299.22 374.21 339.61"/><polygon class="cls-4" points="250 370.93 125.79 299.22 250 227.51 374.2 299.22 250 370.93"/><line class="cls-5" x1="125.79" y1="299.22" x2="250" y2="370.93"/><ellipse class="cls-6" cx="250" cy="362" rx="3.56" ry="2.08"/><ellipse class="cls-6" cx="250" cy="236.46" rx="3.56" ry="2.08"/><ellipse class="cls-6" cx="137.12" cy="299.22" rx="3.56" ry="2.08"/><ellipse class="cls-6" cx="362.82" cy="299.22" rx="3.56" ry="2.08"/><polygon class="cls-7" points="273.14 391.27 257.29 400.43 257.29 373.84 273.14 364.68 273.14 391.27"/><polygon class="cls-8" points="132.76 317.73 137.83 320.66 137.83 312.16 132.76 309.23 132.76 317.73"/><polygon class="cls-8" points="140.83 322.39 145.89 325.31 145.89 316.82 140.83 313.89 140.83 322.39"/><polygon class="cls-8" points="148.89 327.05 153.96 329.98 153.96 321.48 148.89 318.55 148.89 327.05"/><line class="cls-7" x1="232" y1="366.78" x2="232" y2="393.38"/><line class="cls-7" x1="238" y1="370.33" x2="238" y2="396.92"/><line class="cls-7" x1="244" y1="373.83" x2="244" y2="400.43"/><polygon class="cls-7" points="366.84 336.66 350.8 345.93 350.8 319.34 366.65 310.2 366.84 336.66"/><polygon class="cls-9" points="250 357 143.8 295.69 250 234.38 356.19 295.69 250 357"/><polygon class="cls-10" points="250 334.46 143.8 273.15 250 211.84 356.19 273.15 250 334.46"/><polygon class="cls-11" points="250 357 143.8 295.69 143.8 273.15 250 334.46 250 357"/><polygon class="cls-12" points="356.19 295.69 250 234.38 250 211.84 356.19 273.15 356.19 295.69"/><polygon class="cls-13" points="356.2 295.69 250 357 250 334.46 356.2 273.15 356.2 295.69"/><polygon class="cls-14" points="250 234.38 143.8 295.69 143.8 273.15 250 211.84 250 234.38"/><line class="cls-15" x1="143.8" y1="273.15" x2="250" y2="334.46"/><polygon class="cls-1" points="250 302.05 125.79 230.34 125.79 270.73 250 342.44 374.21 270.73 374.21 230.34 250 302.05"/><polygon class="cls-16" points="250 342.44 125.79 270.73 125.79 230.34 250 302.05 250 342.44"/><polygon class="cls-17" points="374.21 270.73 250 342.44 250 302.05 374.21 230.34 374.21 270.73"/><polygon class="cls-18" points="250 302.05 125.79 230.34 250 158.63 374.2 230.34 250 302.05"/><line class="cls-5" x1="125.79" y1="230.34" x2="250" y2="302.05"/><ellipse class="cls-6" cx="250" cy="293.12" rx="3.56" ry="2.08"/><ellipse class="cls-6" cx="250" cy="167.58" rx="3.56" ry="2.08"/><ellipse class="cls-6" cx="137.12" cy="230.34" rx="3.56" ry="2.08"/><ellipse class="cls-6" cx="362.82" cy="230.34" rx="3.56" ry="2.08"/><polygon class="cls-7" points="273.14 322.39 257.29 331.55 257.29 304.96 273.14 295.8 273.14 322.39"/><polygon class="cls-8" points="132.76 248.85 137.83 251.78 137.83 243.28 132.76 240.35 132.76 248.85"/><polygon class="cls-8" points="140.83 253.51 145.89 256.44 145.89 247.94 140.83 245.01 140.83 253.51"/><polygon class="cls-8" points="148.89 258.18 153.96 261.1 153.96 252.6 148.89 249.68 148.89 258.18"/><line class="cls-7" x1="232" y1="297.9" x2="232" y2="324.5"/><line class="cls-7" x1="238" y1="301.45" x2="238" y2="328.05"/><line class="cls-7" x1="244" y1="304.95" x2="244" y2="331.55"/><polygon class="cls-7" points="366.84 267.78 350.8 277.05 350.8 250.46 366.65 241.32 366.84 267.78"/><polygon class="cls-19" points="250 287.05 143.8 225.74 250 164.43 356.19 225.74 250 287.05"/><polygon class="cls-20" points="250 264.51 143.8 203.2 250 141.89 356.19 203.2 250 264.51"/><polygon class="cls-21" points="250 287.05 143.8 225.74 143.8 203.2 250 264.51 250 287.05"/><polygon class="cls-22" points="356.19 225.74 250 164.43 250 141.89 356.19 203.2 356.19 225.74"/><polygon class="cls-23" points="356.2 225.74 250 287.05 250 264.51 356.2 203.2 356.2 225.74"/><polygon class="cls-24" points="250 164.43 143.8 225.74 143.8 203.2 250 141.89 250 164.43"/><line class="cls-15" x1="143.8" y1="203.2" x2="250" y2="264.51"/><polygon class="cls-1" points="250 232.1 125.79 160.39 125.79 200.78 250 272.49 374.21 200.78 374.21 160.39 250 232.1"/><polygon class="cls-25" points="250 272.49 125.79 200.78 125.79 160.39 250 232.1 250 272.49"/><polygon class="cls-26" points="374.21 200.78 250 272.49 250 232.1 374.21 160.39 374.21 200.78"/><polygon class="cls-27" points="250 232.1 125.79 160.39 250 88.68 374.2 160.39 250 232.1"/><line class="cls-5" x1="125.79" y1="160.39" x2="250" y2="232.1"/><ellipse class="cls-6" cx="250" cy="223.17" rx="3.56" ry="2.08"/><ellipse class="cls-6" cx="250" cy="97.63" rx="3.56" ry="2.08"/><ellipse class="cls-6" cx="137.12" cy="160.39" rx="3.56" ry="2.08"/><ellipse class="cls-6" cx="362.82" cy="160.39" rx="3.56" ry="2.08"/><polygon class="cls-7" points="273.14 252.44 257.29 261.6 257.29 235.01 273.14 225.85 273.14 252.44"/><polygon class="cls-8" points="132.76 178.9 137.83 181.83 137.83 173.33 132.76 170.4 132.76 178.9"/><polygon class="cls-8" points="140.83 183.56 145.89 186.49 145.89 177.99 140.83 175.06 140.83 183.56"/><polygon class="cls-8" points="148.89 188.22 153.96 191.15 153.96 182.65 148.89 179.72 148.89 188.22"/><line class="cls-7" x1="232" y1="227.95" x2="232" y2="254.55"/><line class="cls-7" x1="238" y1="231.5" x2="238" y2="258.09"/><line class="cls-7" x1="244" y1="235" x2="244" y2="261.6"/><polygon class="cls-7" points="366.84 197.83 350.8 207.1 350.8 180.51 366.65 171.37 366.84 197.83"/></svg>