<svg id="Objects" xmlns="http://www.w3.org/2000/svg" width="500" height="500" viewBox="0 0 500 500"><defs><style>.cls-1{isolation:isolate;}.cls-2{fill:#bebebe;}.cls-3{fill:#f2a92e;}.cls-4{fill:#dcdcdc;}.cls-5{fill:#f3f3f3;}.cls-6{fill:#f8f9fc;}.cls-7{fill:#8bc0ff;}.cls-8{fill:#1a89ff;}</style></defs><g class="cls-1"><g class="cls-1"><path class="cls-2" d="M185,142.93,195.17,137a7.92,7.92,0,0,0-2.27-.91L182.69,142a7.88,7.88,0,0,1,2.27.9Z"/><path class="cls-2" d="M182.69,142l10.21-5.94a4.2,4.2,0,0,0-3,.39l-10.21,5.93a4.2,4.2,0,0,1,3-.38Z"/></g><g class="cls-1"><path class="cls-3" d="M308.81,316,319,310c1.28-.74,2.07-2.32,2.08-4.56l-10.21,5.93c0,2.24-.8,3.82-2.08,4.56Z"/></g><polygon class="cls-2" points="242.21 175.77 252.42 169.84 195.17 137 184.96 142.93 242.21 175.77"/><g class="cls-1"><path class="cls-2" d="M255.07,166.17l10.21-5.94a9.4,9.4,0,0,0-2.74-1.06l-10.21,5.93a9.16,9.16,0,0,1,2.74,1.07Z"/><path class="cls-2" d="M252.33,165.1l10.21-5.93a6.68,6.68,0,0,0-4.76.63l-10.21,5.93a6.68,6.68,0,0,1,4.76-.63Z"/></g><polygon class="cls-2" points="310.89 311.39 321.1 305.45 324.63 202.48 314.42 208.42 310.89 311.39"/><polygon class="cls-2" points="307 195.56 317.21 189.63 265.28 160.23 255.07 166.17 307 195.56"/><g class="cls-1"><path class="cls-2" d="M314.42,208.42l10.21-5.94a16.18,16.18,0,0,0-3.81-9.69l-10.21,5.93a16.18,16.18,0,0,1,3.81,9.7Z"/><path class="cls-2" d="M310.61,198.72l10.21-5.93a13.69,13.69,0,0,0-3.61-3.16L307,195.56a13.69,13.69,0,0,1,3.61,3.16Z"/></g><path class="cls-4" d="M307,195.56l-51.93-29.39c-3.93-2.27-8.29-1.33-9.69,2.07l-3.17,7.53L185,142.93c-4.11-2.37-7.45-.47-7.47,4.26l3,88.91a15.67,15.67,0,0,0,7.1,12.29l116.16,67.07c3.94,2.27,7.14.45,7.15-4.07l3.53-103A16.33,16.33,0,0,0,307,195.56Z"/></g><g class="cls-1"><polygon class="cls-4" points="309.75 265.84 314.42 265.84 318.86 221.49 313.75 224.46 309.75 265.84"/><polygon class="cls-5" points="313.75 224.46 318.86 221.49 195.05 139.42 189.94 142.38 313.75 224.46"/><polygon class="cls-6" points="189.94 142.38 185.98 183.79 309.75 265.84 313.75 224.46 189.94 142.38"/></g><path class="cls-2" d="M245.54,228.16a23.81,23.81,0,0,0-4.33-7.49,23,23,0,0,0-5.91-5.29l-55.17-32.44a9.52,9.52,0,0,0-2.74-1.1,4.6,4.6,0,0,0-3.3.38l10.21-5.93a4.6,4.6,0,0,1,3.3-.38,9.24,9.24,0,0,1,2.74,1.1l55.17,32.43a23.37,23.37,0,0,1,5.91,5.29,23.92,23.92,0,0,1,4.33,7.49l3.31,10.32,60.81,35.32a16.64,16.64,0,0,1,4.34,3.78c2.16,2.63,3.6,5.83,3.59,8.52l-3.69,76.32a4,4,0,0,1-1.79,3.7l-10.21,5.93a4,4,0,0,0,1.79-3.69l3.69-76.33c0-2.69-1.43-5.89-3.59-8.52a16.26,16.26,0,0,0-4.34-3.77l-60.81-35.32Z"/><path class="cls-4" d="M180.13,182.94c-4.35-2.51-7.92-1.06-7.93,3.19l3.15,96.3c0,4,3.41,9.36,7.57,11.76L306.3,365.42c4.16,2.41,7.59,1,7.6-3l3.69-76.33c0-4.25-3.58-9.78-7.93-12.29l-60.81-35.32-3.31-10.32a26.24,26.24,0,0,0-10.24-12.78Z"/><polygon class="cls-7" points="294.81 253.27 307.12 260.37 318.54 266.97 308.5 272.78 284.77 259.08 294.81 253.27"/><polygon class="cls-8" points="308.49 333.85 295.58 318.58 284.77 320.16 284.77 259.09 308.49 272.78 308.49 333.85"/></svg>