<svg id="Objects" xmlns="http://www.w3.org/2000/svg" xmlns:xlink="http://www.w3.org/1999/xlink" width="500" height="500" viewBox="0 0 500 500"><defs><style>.cls-1{fill:url(#linear-gradient);}.cls-2{fill:url(#linear-gradient-2);}.cls-3{fill:#171717;}.cls-4{fill:#a4a4a4;}.cls-5{fill:url(#linear-gradient-3);}.cls-6,.cls-7{opacity:0.5;}.cls-6{fill:url(#linear-gradient-4);}.cls-7{fill:url(#New_Gradient_Swatch_1);}.cls-8{opacity:0.15;}.cls-9{fill:#fff;}</style><linearGradient id="linear-gradient" x1="100.63" y1="250.97" x2="396.03" y2="250.97" gradientUnits="userSpaceOnUse"><stop offset="0" stop-color="#dcdcdc"/><stop offset="1" stop-color="#bebebe"/></linearGradient><linearGradient id="linear-gradient-2" x1="445.5" y1="362" x2="55.54" y2="136.86" gradientUnits="userSpaceOnUse"><stop offset="0.19" stop-color="#8c8c8c"/><stop offset="0.35" stop-color="#dcdcdc"/><stop offset="1" stop-color="#f3f3f3"/></linearGradient><linearGradient id="linear-gradient-3" x1="367.48" y1="258.7" x2="149.57" y2="258.7" gradientTransform="matrix(-1, 0, 0, 1, 500, 0)" gradientUnits="userSpaceOnUse"><stop offset="0" stop-color="#171717"/><stop offset="1" stop-color="#3d3d3d"/></linearGradient><linearGradient id="linear-gradient-4" x1="4578.28" y1="289.19" x2="4836.62" y2="289.19" gradientTransform="matrix(-1, 0, 0, 1, 4955.7, 0)" gradientUnits="userSpaceOnUse"><stop offset="0.1" stop-color="#20d5d2"/><stop offset="0.9" stop-color="#408bfc"/></linearGradient><linearGradient id="New_Gradient_Swatch_1" x1="4578.28" y1="303.53" x2="4836.62" y2="303.53" xlink:href="#linear-gradient-4"/></defs><path class="cls-1" d="M101.24,58.4c0-3.24,2.3-4.54,5.12-2.92L391,219.79a11.21,11.21,0,0,1,5.08,8.8l-.61,215c0,3.24-2.3,4.54-5.12,2.92L105.71,282.15a11.21,11.21,0,0,1-5.08-8.8Z"/><path class="cls-2" d="M105.24,55a3.84,3.84,0,0,0-.84-.18h-.07a3.14,3.14,0,0,0-.82,0h-.05a2.57,2.57,0,0,0-.73.28l3.34-1.94,0,0a1.42,1.42,0,0,1,.25-.12l.27-.1.19,0h0l.06,0a3,3,0,0,1,.31,0h.52l.2,0,.44.1.2.07.18.06a2,2,0,0,1,.22.08,4.76,4.76,0,0,1,.72.35L394.29,217.85a8.12,8.12,0,0,1,.95.66,3.85,3.85,0,0,1,.3.27l.45.39.19.2.17.18.2.21c.14.16.28.33.41.5l.14.19.07.1c0,.06.09.11.13.18s.2.29.29.44.18.28.27.43l0,0,0,0,.2.36.22.43.18.4v0c.07.15.13.3.19.45s.12.32.17.48.05.17.07.25a.3.3,0,0,1,0,.1.84.84,0,0,0,.05.17c0,.2.1.39.14.59s0,.23.06.35a1.08,1.08,0,0,1,0,.19.86.86,0,0,1,0,.17,6.69,6.69,0,0,1,.07,1l-.61,215a3.55,3.55,0,0,1-1.49,3.27l-3.34,1.94a3.57,3.57,0,0,0,1.49-3.27L396,228.59a7.68,7.68,0,0,0-.1-1.16l0-.19a7.43,7.43,0,0,0-.26-1.11l0-.1a11,11,0,0,0-.44-1.21v0c-.18-.4-.38-.8-.6-1.19l0,0c-.22-.38-.46-.74-.71-1.09l-.07-.1q-.36-.46-.75-.9l-.17-.17c-.21-.22-.42-.42-.64-.61l-.3-.26a9.54,9.54,0,0,0-.95-.66L106.36,55.48a7,7,0,0,0-.94-.43Z"/><path class="cls-3" d="M107.89,79.6,389.24,242l0-15.46L107.93,64.15ZM377.28,227.38c0-2.43,1.73-3.4,3.85-2.17a8.41,8.41,0,0,1,3.82,6.6c0,2.44-1.74,3.42-3.84,2.21A8.44,8.44,0,0,1,377.28,227.38ZM364,219.74c0-2.43,1.73-3.4,3.85-2.18a8.42,8.42,0,0,1,3.82,6.61c0,2.43-1.72,3.43-3.84,2.21A8.47,8.47,0,0,1,364,219.74Zm-13.23-7.64c0-2.43,1.72-3.41,3.84-2.18a8.4,8.4,0,0,1,3.83,6.61c0,2.44-1.74,3.42-3.85,2.2A8.41,8.41,0,0,1,350.81,212.1Z"/><path class="cls-4" d="M354.65,209.92a8.4,8.4,0,0,1,3.83,6.61c0,2.44-1.74,3.42-3.85,2.2a8.41,8.41,0,0,1-3.82-6.63C350.82,209.67,352.53,208.69,354.65,209.92Z"/><path class="cls-4" d="M367.89,217.56a8.42,8.42,0,0,1,3.82,6.61c0,2.43-1.72,3.43-3.84,2.21a8.47,8.47,0,0,1-3.83-6.64C364,217.31,365.77,216.34,367.89,217.56Z"/><polygon class="cls-5" points="107.89 79.6 389.24 242.04 388.68 437.8 107.33 275.36 107.89 79.6"/><path class="cls-4" d="M381.13,225.21a8.41,8.41,0,0,1,3.82,6.6c0,2.44-1.74,3.42-3.84,2.21a8.44,8.44,0,0,1-3.83-6.63C377.28,225,379,224,381.13,225.21Z"/><path class="cls-6" d="M131.69,191.35c.29-1.63,1.6-1.84,2.92-1.09a6.39,6.39,0,0,1,2.67,3.57,6.37,6.37,0,0,0,2.68,3.58c1.21.7,2.43.56,2.83-.81l8.31-28.33c.43-1.43,1.67-1.54,2.91-.83a6.56,6.56,0,0,1,2.92,4.28l9.87,50.16a11.14,11.14,0,0,0,5,7.29c2,1.18,4.07,1,4.86-1.22L182,212.6c.77-2.21,2.78-2.37,4.78-1.21a10.92,10.92,0,0,1,4.83,7l7.18,33.82a6.27,6.27,0,0,0,2.76,4c1.15.67,2.31.57,2.74-.73l18.51-56.26c.61-1.83,2.24-2,3.88-1a8.83,8.83,0,0,1,3.89,5.65l6.67,31.54a7.65,7.65,0,0,0,3.37,4.89c1.32.76,2.64.7,3.24-.66l5-11.3c1-2.2,3.15-2.33,5.34-1.07a12.47,12.47,0,0,1,5.22,6.91l1.05,3.31a6.31,6.31,0,0,0,2.65,3.52c1.22.7,2.43.56,2.83-.82l6-20.66c.4-1.4,1.61-1.52,2.81-.82a6.32,6.32,0,0,1,2.82,4.14l15.31,77A11,11,0,0,0,297.7,307c1.89,1.09,3.79,1,4.67-.89l9-19.48c.87-1.9,2.77-2,4.68-.89a11,11,0,0,1,4.62,6.14l7.64,24.53a9.86,9.86,0,0,0,4.19,5.59c2,1.16,4,.87,4.53-1.56l7.72-35.62c.54-2.46,2.53-2.71,4.52-1.56a10,10,0,0,1,4.46,6.57l23.67,121.53L119.08,262.48Z"/><path class="cls-7" d="M130.73,230.13c.61-1.68,2.21-1.84,3.81-.92a8.49,8.49,0,0,1,3.39,4.18,8.55,8.55,0,0,0,3.41,4.21c1.56.9,3.1.77,3.74-.82l15.42-37.92c.65-1.6,2.2-1.7,3.74-.81a8.75,8.75,0,0,1,3.72,5.09l3.72,13.37a14.06,14.06,0,0,0,6,8.22c2.4,1.39,4.81,1.29,5.94-1l16.12-26c1.12-2.32,3.53-2.45,5.95-1.05a13.79,13.79,0,0,1,5.64,7.13l23.91,70.43a15.1,15.1,0,0,0,6.15,7.77c2.81,1.62,5.61,1.35,6.69-1.63l7-19.35c1.08-3,3.88-3.25,6.68-1.63a15.21,15.21,0,0,1,6.37,8.4L271.43,278a8.68,8.68,0,0,0,3.64,4.81c1.81,1,3.62.74,4-1.53l8.19-38.84c.4-2.31,2.2-2.57,4-1.53a8.69,8.69,0,0,1,3.88,5.73l12.27,76.43a20.21,20.21,0,0,0,9,13.18c3.46,2,6.93,1.85,8.52-1.66l7.88-17.28c1.58-3.46,5.08-3.65,8.58-1.63a20,20,0,0,1,8.35,10.94l27.72,84.72L119.08,262.49Z"/><g class="cls-8"><polygon class="cls-9" points="119.08 143.43 119.08 141.5 377.42 290.91 377.42 292.84 119.08 143.43"/><polygon class="cls-9" points="119.08 156.59 119.08 154.66 377.42 304.08 377.42 306 119.08 156.59"/><polygon class="cls-9" points="119.08 130.24 119.08 128.31 377.42 277.74 377.42 279.67 119.08 130.24"/><polygon class="cls-9" points="119.08 101.98 377.42 251.39 377.42 253.32 119.08 103.91 119.08 101.98"/><polygon class="cls-9" points="119.08 169.76 119.08 167.83 377.42 317.24 377.42 319.17 119.08 169.76"/><polygon class="cls-9" points="119.08 117.08 119.08 115.15 377.42 264.56 377.42 266.49 119.08 117.08"/><polygon class="cls-9" points="119.08 248.8 119.08 246.87 377.42 396.28 377.42 398.21 119.08 248.8"/><polygon class="cls-9" points="119.08 235.61 119.08 233.68 377.42 383.11 377.42 385.04 119.08 235.61"/><polygon class="cls-9" points="119.08 261.96 119.08 260.03 377.42 409.44 377.42 411.37 119.08 261.96"/><polygon class="cls-9" points="119.08 222.44 119.08 220.52 377.42 369.93 377.42 371.86 119.08 222.44"/><polygon class="cls-9" points="119.08 196.11 119.08 194.18 377.42 343.59 377.42 345.52 119.08 196.11"/><polygon class="cls-9" points="119.08 182.93 119.08 181 377.42 330.43 377.42 332.36 119.08 182.93"/><polygon class="cls-9" points="119.08 209.28 119.08 207.35 377.42 356.76 377.42 358.69 119.08 209.28"/></g></svg>