<svg id="Objects" xmlns="http://www.w3.org/2000/svg" xmlns:xlink="http://www.w3.org/1999/xlink" width="500" height="500" viewBox="0 0 500 500"><defs><style>.cls-1{fill:url(#linear-gradient);}.cls-2{fill:url(#linear-gradient-2);}.cls-3{fill:#f3f3f3;}.cls-4{fill:url(#linear-gradient-3);}.cls-5{fill:#a3a3a3;}.cls-6{fill:url(#linear-gradient-4);}.cls-10,.cls-7{fill:#1a89ff;}.cls-7{stroke:#1a89ff;stroke-linecap:round;stroke-miterlimit:10;stroke-width:6.42px;}.cls-8{fill:url(#linear-gradient-5);}.cls-9{fill:url(#linear-gradient-6);}</style><linearGradient id="linear-gradient" x1="319.01" y1="327.59" x2="217.3" y2="151.43" gradientUnits="userSpaceOnUse"><stop offset="0" stop-color="#bebebe"/><stop offset="0.01" stop-color="#b8b8b8"/><stop offset="0.04" stop-color="#adadad"/><stop offset="0.09" stop-color="#a6a6a6"/><stop offset="0.21" stop-color="#a4a4a4"/><stop offset="0.57" stop-color="#dcdcdc"/><stop offset="1" stop-color="#f3f3f3"/></linearGradient><linearGradient id="linear-gradient-2" x1="159.93" y1="260.47" x2="303.77" y2="260.47" gradientTransform="translate(161.3 -81.03) rotate(30)" gradientUnits="userSpaceOnUse"><stop offset="0" stop-color="#dcdcdc"/><stop offset="1" stop-color="#bebebe"/></linearGradient><linearGradient id="linear-gradient-3" x1="281.94" y1="349.13" x2="361.92" y2="210.61" gradientUnits="userSpaceOnUse"><stop offset="0" stop-color="#3d3d3d"/><stop offset="1" stop-color="#a3a3a3"/></linearGradient><linearGradient id="linear-gradient-4" x1="165.01" y1="262.02" x2="281.6" y2="262.02" xlink:href="#linear-gradient-3"/><linearGradient id="linear-gradient-5" x1="281.8" y1="348.9" x2="282.36" y2="348.9" xlink:href="#linear-gradient-3"/><linearGradient id="linear-gradient-6" x1="165.01" y1="262.02" x2="281.6" y2="262.02" gradientUnits="userSpaceOnUse"><stop offset="0" stop-color="#bebebe"/><stop offset="1" stop-color="#dcdcdc"/></linearGradient></defs><path class="cls-1" d="M340.07,281c0-45.86-32.2-101.63-71.92-124.57-20.06-11.58-38.2-12.56-51.24-4.79h0L182.45,171.6l13.81,24.66c0,.58,0,1.15,0,1.74,0,45.16,31.23,99.86,70.11,123.42l15.48,27.63,36.9-21.28h0C331.89,320.31,340.07,304.14,340.07,281Z"/><ellipse class="cls-2" cx="231.85" cy="260.47" rx="58.72" ry="101.71" transform="translate(-99.17 150.83) rotate(-30)"/><ellipse class="cls-3" cx="231.85" cy="260.47" rx="54.57" ry="94.53" transform="translate(-99.17 150.83) rotate(-30)"/><path class="cls-4" d="M281.82,349.05l.54-.31-.56.29Z"/><path class="cls-5" d="M283,348.35l-.68.39Z"/><path class="cls-6" d="M277.94,342.13c-11.32,3.62-25.53,1.48-41-7.43-36.91-21.32-66.84-73.15-66.84-115.77,0-19.1,6-33.09,16-40.82.37-.29.74-.58,1.12-.85-.42.2-.83.41-1.24.63-12.9,6.62-21,21.89-21,44,0,42.63,29.93,94.46,66.84,115.77,18.05,10.42,34.42,11.6,46.44,5.11a31.21,31.21,0,0,0,3.31-2A32.89,32.89,0,0,1,277.94,342.13Z"/><line class="cls-7" x1="231.85" y1="260.47" x2="231.85" y2="202"/><path class="cls-8" d="M281.8,349l0,0,.54-.31Z"/><path class="cls-9" d="M237,334.7c-36.91-21.32-66.84-73.15-66.84-115.77,0-19.1,6-33.09,16-40.82.37-.29.74-.58,1.12-.85-.42.2-.83.41-1.24.63-12.9,6.62-21,21.89-21,44,0,42.63,29.93,94.46,66.84,115.77,18.05,10.42,34.42,11.6,46.44,5.11a31.21,31.21,0,0,0,3.31-2,32.89,32.89,0,0,1-3.66,1.4C266.62,345.75,252.41,343.61,237,334.7Z"/><ellipse class="cls-10" cx="231.85" cy="260.47" rx="5.65" ry="9.79" transform="translate(-99.17 150.83) rotate(-30)"/><line class="cls-7" x1="231.85" y1="260.47" x2="262.49" y2="294.33"/></svg>