<svg id="Objects" xmlns="http://www.w3.org/2000/svg" xmlns:xlink="http://www.w3.org/1999/xlink" width="500" height="500" viewBox="0 0 500 500"><defs><style>.cls-1,.cls-29{fill:#fff;}.cls-2{fill:url(#linear-gradient);}.cls-3{fill:url(#linear-gradient-2);}.cls-4{fill:url(#linear-gradient-3);}.cls-10,.cls-12,.cls-5{fill:none;stroke-miterlimit:10;stroke-width:0.6px;}.cls-5{stroke:#fff;}.cls-6{fill:url(#linear-gradient-4);}.cls-7{fill:url(#linear-gradient-5);}.cls-8{fill:url(#linear-gradient-6);}.cls-9{fill:url(#linear-gradient-7);}.cls-10{stroke:#797979;}.cls-11{fill:#0062ff;}.cls-12{stroke:#6b6b6b;}.cls-13{clip-path:url(#clip-path);}.cls-14{opacity:0.9;fill:url(#linear-gradient-8);}.cls-15,.cls-17{opacity:0.8;}.cls-15{fill:url(#linear-gradient-9);}.cls-16{opacity:0.4;fill:url(#linear-gradient-10);}.cls-17{fill:url(#linear-gradient-11);}.cls-18,.cls-19,.cls-20,.cls-21,.cls-22,.cls-23,.cls-24,.cls-29,.cls-31,.cls-41,.cls-42,.cls-43,.cls-51,.cls-52,.cls-53,.cls-60,.cls-61,.cls-62,.cls-63,.cls-64,.cls-65,.cls-66{opacity:0.5;}.cls-19{fill:url(#linear-gradient-12);}.cls-20{fill:url(#linear-gradient-13);}.cls-21{fill:url(#linear-gradient-14);}.cls-22{fill:url(#linear-gradient-15);}.cls-23{fill:url(#linear-gradient-16);}.cls-24{fill:url(#linear-gradient-17);}.cls-25{opacity:0.25;}.cls-26{fill:url(#linear-gradient-18);}.cls-27{fill:url(#linear-gradient-19);}.cls-28{fill:url(#linear-gradient-20);}.cls-30,.cls-44{opacity:0.3;}.cls-30{fill:url(#linear-gradient-21);}.cls-31{fill:url(#linear-gradient-22);}.cls-32{fill:url(#linear-gradient-23);}.cls-33{fill:url(#linear-gradient-24);}.cls-34{fill:url(#linear-gradient-25);}.cls-35{fill:url(#linear-gradient-26);}.cls-36{fill:url(#linear-gradient-27);}.cls-37{fill:url(#linear-gradient-28);}.cls-38{fill:url(#linear-gradient-29);}.cls-39{fill:url(#linear-gradient-30);}.cls-40{fill:url(#linear-gradient-31);}.cls-41{fill:url(#linear-gradient-32);}.cls-42{fill:url(#linear-gradient-33);}.cls-43{fill:url(#linear-gradient-34);}.cls-45{fill:url(#linear-gradient-35);}.cls-46{fill:url(#linear-gradient-36);}.cls-47{fill:url(#linear-gradient-37);}.cls-48{fill:url(#linear-gradient-38);}.cls-49{fill:url(#linear-gradient-39);}.cls-50{fill:url(#linear-gradient-40);}.cls-51{fill:url(#linear-gradient-41);}.cls-52{fill:url(#linear-gradient-42);}.cls-53{fill:url(#linear-gradient-43);}.cls-54{fill:url(#linear-gradient-44);}.cls-55{fill:url(#linear-gradient-45);}.cls-56{fill:url(#linear-gradient-46);}.cls-57,.cls-58,.cls-59{opacity:0.7;}.cls-57{fill:url(#linear-gradient-47);}.cls-58{fill:url(#linear-gradient-48);}.cls-59{fill:url(#linear-gradient-49);}.cls-60{fill:url(#linear-gradient-50);}.cls-61{fill:url(#linear-gradient-51);}.cls-62{fill:url(#linear-gradient-52);}.cls-63{fill:url(#linear-gradient-53);}.cls-64{fill:url(#linear-gradient-54);}.cls-65{fill:url(#linear-gradient-55);}.cls-66{fill:url(#linear-gradient-56);}</style><linearGradient id="linear-gradient" x1="153.06" y1="351.07" x2="277.26" y2="351.07" gradientUnits="userSpaceOnUse"><stop offset="0" stop-color="#dcdcdc"/><stop offset="1" stop-color="#bebebe"/></linearGradient><linearGradient id="linear-gradient-2" x1="277.26" y1="351.07" x2="401.47" y2="351.07" gradientUnits="userSpaceOnUse"><stop offset="0" stop-color="#a4a4a4"/><stop offset="1" stop-color="#bebebe"/></linearGradient><linearGradient id="linear-gradient-3" x1="246.21" y1="357.8" x2="308.31" y2="250.24" gradientUnits="userSpaceOnUse"><stop offset="0" stop-color="#f3f3f3"/><stop offset="1" stop-color="#dcdcdc"/></linearGradient><linearGradient id="linear-gradient-4" x1="273.7" y1="366.8" x2="280.83" y2="366.8" gradientUnits="userSpaceOnUse"><stop offset="0" stop-color="#666"/><stop offset="1" stop-color="#333"/></linearGradient><linearGradient id="linear-gradient-5" x1="273.7" y1="241.26" x2="280.83" y2="241.26" xlink:href="#linear-gradient-4"/><linearGradient id="linear-gradient-6" x1="160.82" y1="304.02" x2="167.95" y2="304.02" xlink:href="#linear-gradient-4"/><linearGradient id="linear-gradient-7" x1="386.52" y1="304.02" x2="393.64" y2="304.02" xlink:href="#linear-gradient-4"/><clipPath id="clip-path"><path class="cls-1" d="M281.91,261.39a10.23,10.23,0,0,0-9.24,0l-67.93,39.22c-2.55,1.47-2.55,3.86,0,5.33l67.93,39.22a10.23,10.23,0,0,0,9.24,0l67.93-39.22c2.54-1.47,2.54-3.86,0-5.33Z"/></clipPath><linearGradient id="linear-gradient-8" x1="262.17" y1="289.47" x2="306.61" y2="315.62" gradientUnits="userSpaceOnUse"><stop offset="0" stop-color="#00bae3"/><stop offset="1" stop-color="#0062ff"/></linearGradient><linearGradient id="linear-gradient-9" x1="196.25" y1="280.29" x2="277.29" y2="280.29" gradientUnits="userSpaceOnUse"><stop offset="0" stop-color="#2f81fe"/><stop offset="1" stop-color="#58d2ed"/></linearGradient><linearGradient id="linear-gradient-10" x1="202.32" y1="303.27" x2="352.15" y2="303.27" xlink:href="#linear-gradient-9"/><linearGradient id="linear-gradient-11" x1="277.29" y1="345.61" x2="277.29" y2="102.38" gradientUnits="userSpaceOnUse"><stop offset="0" stop-color="#2f81fe"/><stop offset="1" stop-color="#58d2ed" stop-opacity="0"/></linearGradient><linearGradient id="linear-gradient-12" x1="290.6" y1="308.87" x2="299.49" y2="308.87" gradientUnits="userSpaceOnUse"><stop offset="0" stop-color="#dedede"/><stop offset="1" stop-color="#fff"/></linearGradient><linearGradient id="linear-gradient-13" x1="295.05" y1="312.78" x2="299.49" y2="312.78" gradientUnits="userSpaceOnUse"><stop offset="0" stop-color="#bdbdbd"/><stop offset="1" stop-color="#a6a6a6"/></linearGradient><linearGradient id="linear-gradient-14" x1="290.59" y1="312.78" x2="295.06" y2="312.78" gradientUnits="userSpaceOnUse"><stop offset="0" stop-color="#f3f3f3"/><stop offset="1" stop-color="#bebebe"/></linearGradient><linearGradient id="linear-gradient-15" x1="277.42" y1="153.36" x2="277.38" y2="145.66" xlink:href="#linear-gradient-12"/><linearGradient id="linear-gradient-16" x1="277.41" y1="155.08" x2="281.86" y2="155.08" xlink:href="#linear-gradient-13"/><linearGradient id="linear-gradient-17" x1="272.42" y1="155.1" x2="279.81" y2="155.06" xlink:href="#linear-gradient-14"/><linearGradient id="linear-gradient-18" x1="269.21" y1="320.8" x2="279.91" y2="320.8" xlink:href="#linear-gradient-12"/><linearGradient id="linear-gradient-19" x1="274.56" y1="325.51" x2="279.91" y2="325.51" xlink:href="#linear-gradient-13"/><linearGradient id="linear-gradient-20" x1="269.19" y1="325.51" x2="274.58" y2="325.51" xlink:href="#linear-gradient-14"/><linearGradient id="linear-gradient-21" x1="308.25" y1="285.87" x2="313.61" y2="285.87" xlink:href="#linear-gradient-13"/><linearGradient id="linear-gradient-22" x1="302.25" y1="285.89" x2="311.14" y2="285.85" xlink:href="#linear-gradient-14"/><linearGradient id="linear-gradient-23" x1="313.63" y1="239.78" x2="313.58" y2="230.52" xlink:href="#linear-gradient-12"/><linearGradient id="linear-gradient-24" x1="313.61" y1="241.86" x2="318.97" y2="241.86" xlink:href="#linear-gradient-13"/><linearGradient id="linear-gradient-25" x1="307.61" y1="241.87" x2="316.5" y2="241.84" xlink:href="#linear-gradient-14"/><linearGradient id="linear-gradient-26" x1="277.36" y1="174.66" x2="277.3" y2="165.4" xlink:href="#linear-gradient-12"/><linearGradient id="linear-gradient-27" x1="277.34" y1="176.73" x2="282.69" y2="176.73" xlink:href="#linear-gradient-13"/><linearGradient id="linear-gradient-28" x1="271.34" y1="176.75" x2="280.22" y2="176.71" xlink:href="#linear-gradient-14"/><linearGradient id="linear-gradient-29" x1="258.49" y1="200.72" x2="258.44" y2="191.46" xlink:href="#linear-gradient-12"/><linearGradient id="linear-gradient-30" x1="258.48" y1="202.8" x2="263.83" y2="202.8" xlink:href="#linear-gradient-13"/><linearGradient id="linear-gradient-31" x1="252.47" y1="202.81" x2="261.36" y2="202.78" xlink:href="#linear-gradient-14"/><linearGradient id="linear-gradient-32" x1="277.28" y1="289.61" x2="277.18" y2="271.06" xlink:href="#linear-gradient-12"/><linearGradient id="linear-gradient-33" x1="277.25" y1="293.76" x2="287.97" y2="293.76" xlink:href="#linear-gradient-13"/><linearGradient id="linear-gradient-34" x1="265.23" y1="293.79" x2="283.03" y2="293.71" xlink:href="#linear-gradient-14"/><linearGradient id="linear-gradient-35" x1="261.21" y1="267.7" x2="261.1" y2="249.16" xlink:href="#linear-gradient-12"/><linearGradient id="linear-gradient-36" x1="261.17" y1="271.86" x2="271.89" y2="271.86" xlink:href="#linear-gradient-13"/><linearGradient id="linear-gradient-37" x1="249.15" y1="271.89" x2="266.95" y2="271.81" xlink:href="#linear-gradient-14"/><linearGradient id="linear-gradient-38" x1="293.92" y1="261.5" x2="293.81" y2="242.95" xlink:href="#linear-gradient-12"/><linearGradient id="linear-gradient-39" x1="293.89" y1="265.65" x2="304.61" y2="265.65" xlink:href="#linear-gradient-13"/><linearGradient id="linear-gradient-40" x1="281.86" y1="265.68" x2="299.66" y2="265.6" xlink:href="#linear-gradient-14"/><linearGradient id="linear-gradient-41" x1="295.09" y1="200.32" x2="294.99" y2="181.78" xlink:href="#linear-gradient-12"/><linearGradient id="linear-gradient-42" x1="295.06" y1="204.48" x2="305.78" y2="204.48" xlink:href="#linear-gradient-13"/><linearGradient id="linear-gradient-43" x1="283.04" y1="204.51" x2="300.84" y2="204.43" xlink:href="#linear-gradient-14"/><linearGradient id="linear-gradient-44" x1="277.37" y1="229.73" x2="277.23" y2="204.21" xlink:href="#linear-gradient-12"/><linearGradient id="linear-gradient-45" x1="277.33" y1="235.45" x2="292.08" y2="235.45" xlink:href="#linear-gradient-13"/><linearGradient id="linear-gradient-46" x1="260.79" y1="235.49" x2="285.27" y2="235.38" xlink:href="#linear-gradient-14"/><linearGradient id="linear-gradient-47" x1="258.5" y1="300.75" x2="258.4" y2="282.21" xlink:href="#linear-gradient-12"/><linearGradient id="linear-gradient-48" x1="258.47" y1="304.91" x2="269.19" y2="304.91" xlink:href="#linear-gradient-13"/><linearGradient id="linear-gradient-49" x1="246.45" y1="304.94" x2="264.24" y2="304.86" xlink:href="#linear-gradient-14"/><linearGradient id="linear-gradient-50" x1="247.75" y1="229.58" x2="250.14" y2="229.58" xlink:href="#linear-gradient-12"/><linearGradient id="linear-gradient-51" x1="293.9" y1="172.08" x2="296.3" y2="172.08" xlink:href="#linear-gradient-12"/><linearGradient id="linear-gradient-52" x1="257.27" y1="158.26" x2="259.67" y2="158.26" xlink:href="#linear-gradient-12"/><linearGradient id="linear-gradient-53" x1="271.87" y1="193.21" x2="274.26" y2="193.21" xlink:href="#linear-gradient-12"/><linearGradient id="linear-gradient-54" x1="247.22" y1="243.92" x2="251.33" y2="243.92" gradientUnits="userSpaceOnUse"><stop offset="0" stop-color="#fff"/><stop offset="1" stop-color="#f3f3f3"/></linearGradient><linearGradient id="linear-gradient-55" x1="300.85" y1="229.58" x2="304.96" y2="229.58" xlink:href="#linear-gradient-54"/><linearGradient id="linear-gradient-56" x1="256.45" y1="172.08" x2="260.56" y2="172.08" xlink:href="#linear-gradient-12"/></defs><polygon class="cls-2" points="277.26 398.13 153.06 326.42 153.06 304.02 277.26 375.73 277.26 398.13"/><polygon class="cls-3" points="401.47 326.42 277.26 398.13 277.26 375.73 401.47 304.02 401.47 326.42"/><polygon class="cls-4" points="277.26 375.73 153.06 304.02 277.26 232.31 401.47 304.02 277.26 375.73"/><line class="cls-5" x1="153.06" y1="304.02" x2="277.26" y2="375.73"/><ellipse class="cls-6" cx="277.26" cy="366.8" rx="3.56" ry="2.08"/><ellipse class="cls-7" cx="277.26" cy="241.26" rx="3.56" ry="2.08"/><ellipse class="cls-8" cx="164.39" cy="304.02" rx="3.56" ry="2.08"/><ellipse class="cls-9" cx="390.08" cy="304.02" rx="3.56" ry="2.08"/><polygon class="cls-10" points="300.4 378.08 284.55 387.23 284.55 378.64 300.4 369.48 300.4 378.08"/><polygon class="cls-11" points="160.03 322.53 165.09 325.46 165.09 316.96 160.03 314.04 160.03 322.53"/><polygon class="cls-10" points="168.09 327.19 173.16 330.12 173.16 321.62 168.09 318.69 168.09 327.19"/><polygon class="cls-10" points="176.16 331.86 181.22 334.78 181.22 326.28 176.16 323.36 176.16 331.86"/><line class="cls-10" x1="259.26" y1="371.58" x2="259.26" y2="380.18"/><line class="cls-10" x1="265.26" y1="375.13" x2="265.26" y2="383.73"/><line class="cls-10" x1="271.26" y1="378.63" x2="271.26" y2="387.23"/><polygon class="cls-12" points="394.11 323.46 378.06 332.73 378.06 324.14 393.91 315 394.11 323.46"/><path class="cls-1" d="M281.91,261.39a10.23,10.23,0,0,0-9.24,0l-67.93,39.22c-2.55,1.47-2.55,3.86,0,5.33l67.93,39.22a10.23,10.23,0,0,0,9.24,0l67.93-39.22c2.54-1.47,2.54-3.86,0-5.33Z"/><g class="cls-13"><path class="cls-14" d="M208.3,309.4l64.37-37.16a10.23,10.23,0,0,1,9.24,0l63.24,36.52-.7.41c7.15-1,15.7-5.78,16.9-13.05l-71-39.48-20.65-5.45-16.82,9.88-56.65,33.79C199.38,300.51,202.5,306.7,208.3,309.4Z"/><path class="cls-15" d="M277.29,253.19l-7.57-2-16.82,9.88-56.65,33.79c3.13,5.65,6.25,11.84,12.05,14.54l64.37-37.16a9.39,9.39,0,0,1,4.62-1.1Z"/></g><path class="cls-16" d="M350.1,300.42l-68.18-39.36a10.89,10.89,0,0,0-9.85,0l-67.72,39.36c-2.71,1.58-2.71,4.13,0,5.71l68.18,39.36a10.89,10.89,0,0,0,9.85,0l67.73-39.36C352.84,304.55,352.83,302,350.1,300.42Z"/><path class="cls-17" d="M352.2,303.26h0V101.88H202.37V303.26h0a3.44,3.44,0,0,0,2.05,2.87l68.17,39.36a10.91,10.91,0,0,0,9.86,0l67.72-39.36A3.41,3.41,0,0,0,352.2,303.26Z"/><g class="cls-18"><polygon class="cls-19" points="295.03 306.29 290.6 308.87 295.06 311.44 299.49 308.87 295.03 306.29"/><polygon class="cls-20" points="295.06 311.44 295.05 316.7 299.48 314.13 299.49 308.87 295.06 311.44"/><polygon class="cls-21" points="290.6 308.87 290.59 314.13 295.05 316.7 295.06 311.44 290.6 308.87"/></g><polygon class="cls-22" points="277.4 148.59 272.96 151.17 277.43 153.74 281.86 151.17 277.4 148.59"/><polygon class="cls-23" points="277.43 153.74 277.41 159 281.84 156.42 281.86 151.17 277.43 153.74"/><polygon class="cls-24" points="272.96 151.17 272.95 156.42 277.41 159 277.43 153.74 272.96 151.17"/><g class="cls-25"><polygon class="cls-26" points="274.54 317.7 269.21 320.8 274.58 323.9 279.91 320.8 274.54 317.7"/><polygon class="cls-27" points="274.58 323.9 274.56 330.23 279.89 327.13 279.91 320.8 274.58 323.9"/><polygon class="cls-28" points="269.21 320.8 269.19 327.13 274.56 330.23 274.58 323.9 269.21 320.8"/></g><polygon class="cls-29" points="308.24 278.06 302.9 281.16 308.27 284.26 313.61 281.16 308.24 278.06"/><polygon class="cls-30" points="308.27 284.26 308.25 290.59 313.59 287.49 313.61 281.16 308.27 284.26"/><polygon class="cls-31" points="302.9 281.16 302.88 287.49 308.25 290.59 308.27 284.26 302.9 281.16"/><g class="cls-18"><polygon class="cls-32" points="313.6 234.05 308.26 237.15 313.63 240.25 318.97 237.15 313.6 234.05"/><polygon class="cls-33" points="313.63 240.25 313.61 246.57 318.95 243.47 318.97 237.15 313.63 240.25"/><polygon class="cls-34" points="308.26 237.15 308.24 243.47 313.61 246.57 313.63 240.25 308.26 237.15"/></g><g class="cls-18"><polygon class="cls-35" points="277.32 168.92 271.99 172.02 277.36 175.12 282.69 172.02 277.32 168.92"/><polygon class="cls-36" points="277.36 175.12 277.34 181.45 282.68 178.35 282.69 172.02 277.36 175.12"/><polygon class="cls-37" points="271.99 172.02 271.97 178.35 277.34 181.45 277.36 175.12 271.99 172.02"/></g><g class="cls-18"><polygon class="cls-38" points="258.46 194.99 253.13 198.09 258.5 201.19 263.83 198.09 258.46 194.99"/><polygon class="cls-39" points="258.5 201.19 258.48 207.51 263.81 204.41 263.83 198.09 258.5 201.19"/><polygon class="cls-40" points="253.13 198.09 253.11 204.41 258.48 207.51 258.5 201.19 253.13 198.09"/></g><g class="cls-18"><polygon class="cls-41" points="277.22 278.11 266.54 284.32 277.29 290.53 287.97 284.32 277.22 278.11"/><polygon class="cls-42" points="277.29 290.53 277.25 303.2 287.94 296.99 287.97 284.32 277.29 290.53"/><polygon class="cls-43" points="266.54 284.32 266.5 296.99 277.25 303.2 277.29 290.53 266.54 284.32"/></g><g class="cls-44"><polygon class="cls-45" points="261.14 256.21 250.46 262.42 261.21 268.63 271.89 262.42 261.14 256.21"/><polygon class="cls-46" points="261.21 268.63 261.18 281.3 271.86 275.09 271.89 262.42 261.21 268.63"/><polygon class="cls-47" points="250.46 262.42 250.42 275.09 261.18 281.3 261.21 268.63 250.46 262.42"/></g><g class="cls-18"><polygon class="cls-48" points="293.85 250 283.17 256.21 293.92 262.42 304.61 256.21 293.85 250"/><polygon class="cls-49" points="293.92 262.42 293.88 275.09 304.57 268.88 304.61 256.21 293.92 262.42"/><polygon class="cls-50" points="283.17 256.21 283.13 268.88 293.88 275.09 293.92 262.42 283.17 256.21"/></g><polygon class="cls-51" points="295.03 188.83 284.35 195.04 295.1 201.25 305.78 195.04 295.03 188.83"/><polygon class="cls-52" points="295.1 201.25 295.06 213.92 305.75 207.71 305.78 195.04 295.1 201.25"/><polygon class="cls-53" points="284.35 195.04 284.31 207.71 295.06 213.92 295.1 201.25 284.35 195.04"/><g class="cls-18"><polygon class="cls-54" points="277.29 213.92 262.59 222.46 277.38 231 292.08 222.46 277.29 213.92"/><polygon class="cls-55" points="277.38 231 277.33 248.44 292.03 239.89 292.08 222.46 277.38 231"/><polygon class="cls-56" points="262.59 222.46 262.54 239.89 277.33 248.44 277.38 231 262.59 222.46"/></g><g class="cls-18"><polygon class="cls-57" points="258.44 289.26 247.75 295.47 258.51 301.68 269.19 295.47 258.44 289.26"/><polygon class="cls-58" points="258.51 301.68 258.47 314.35 269.15 308.14 269.19 295.47 258.51 301.68"/><polygon class="cls-59" points="247.75 295.47 247.72 308.14 258.47 314.35 258.51 301.68 247.75 295.47"/></g><path class="cls-60" d="M248.94,235.24a1.19,1.19,0,0,1-1.19-1.19v-8.94a1.2,1.2,0,0,1,2.39,0v8.94A1.19,1.19,0,0,1,248.94,235.24Z"/><path class="cls-61" d="M295.1,180.9a1.19,1.19,0,0,1-1.2-1.19V164.45a1.2,1.2,0,0,1,2.4,0v15.26A1.19,1.19,0,0,1,295.1,180.9Z"/><path class="cls-62" d="M258.47,163.93a1.2,1.2,0,0,1-1.2-1.2V153.8a1.2,1.2,0,1,1,2.4,0v8.93A1.2,1.2,0,0,1,258.47,163.93Z"/><path class="cls-63" d="M273.07,202.38a1.19,1.19,0,0,1-1.2-1.19V185.24a1.2,1.2,0,1,1,2.39,0v15.95A1.19,1.19,0,0,1,273.07,202.38Z"/><path class="cls-64" d="M251.33,243.92a2.06,2.06,0,1,1-2.06-2.06A2.05,2.05,0,0,1,251.33,243.92Z"/><path class="cls-65" d="M305,229.58a2.06,2.06,0,1,1-2.06-2.06A2.05,2.05,0,0,1,305,229.58Z"/><path class="cls-66" d="M260.56,172.08a2.06,2.06,0,1,1-2.05-2.06A2.05,2.05,0,0,1,260.56,172.08Z"/><path class="cls-29" d="M285.22,311.44a2.06,2.06,0,1,1-2.05-2.05A2.05,2.05,0,0,1,285.22,311.44Z"/></svg>