<svg id="Objects" xmlns="http://www.w3.org/2000/svg" xmlns:xlink="http://www.w3.org/1999/xlink" width="500" height="500" viewBox="0 0 500 500"><defs><style>.cls-1{isolation:isolate;}.cls-2{fill:#585858;}.cls-3{fill:#4f4f4f;}.cls-4{fill:url(#linear-gradient);}.cls-5{fill:url(#linear-gradient-2);}.cls-6{fill:#3e939e;}.cls-7{fill:url(#linear-gradient-3);}.cls-8{fill:url(#linear-gradient-4);}.cls-9{fill:url(#linear-gradient-5);}.cls-10{fill:url(#linear-gradient-6);}.cls-11{fill:#7d6e80;}.cls-12{fill:url(#linear-gradient-7);}.cls-13{fill:url(#linear-gradient-8);}.cls-14{fill:url(#linear-gradient-9);}.cls-15{fill:url(#linear-gradient-10);}.cls-16{fill:#d18b42;}.cls-17{fill:url(#linear-gradient-11);}.cls-18{fill:url(#linear-gradient-12);}.cls-19{fill:url(#linear-gradient-13);}.cls-20{fill:url(#linear-gradient-14);}.cls-21{fill:url(#linear-gradient-15);}.cls-22{fill:url(#linear-gradient-16);}.cls-23{fill:url(#linear-gradient-17);}.cls-24{fill:#cf6167;}.cls-25{fill:url(#linear-gradient-18);}.cls-26{fill:url(#linear-gradient-19);}.cls-27{fill:url(#linear-gradient-20);}.cls-28{fill:none;stroke:#fff;stroke-miterlimit:10;stroke-width:0.6px;}</style><linearGradient id="linear-gradient" x1="172.62" y1="255.08" x2="200.03" y2="255.08" gradientUnits="userSpaceOnUse"><stop offset="0" stop-color="#0062ff"/><stop offset="1" stop-color="#408bfc"/></linearGradient><linearGradient id="linear-gradient-2" x1="143.44" y1="254.51" x2="173.01" y2="254.51" gradientUnits="userSpaceOnUse"><stop offset="0" stop-color="#6ea6ff"/><stop offset="1" stop-color="#408bfc"/></linearGradient><linearGradient id="linear-gradient-3" x1="165.39" y1="105.16" x2="178.94" y2="81.69" gradientUnits="userSpaceOnUse"><stop offset="0" stop-color="#f3f3f3"/><stop offset="1" stop-color="#dcdcdc"/></linearGradient><linearGradient id="linear-gradient-4" x1="173.01" y1="143.62" x2="200.26" y2="143.62" gradientUnits="userSpaceOnUse"><stop offset="0" stop-color="#a4a4a4"/><stop offset="1" stop-color="#bebebe"/></linearGradient><linearGradient id="linear-gradient-5" x1="224.72" y1="320.01" x2="251.93" y2="320.01" xlink:href="#linear-gradient"/><linearGradient id="linear-gradient-6" x1="195.55" y1="319.44" x2="224.92" y2="319.44" xlink:href="#linear-gradient-2"/><linearGradient id="linear-gradient-7" x1="217.5" y1="135.24" x2="231.05" y2="111.77" xlink:href="#linear-gradient-3"/><linearGradient id="linear-gradient-8" x1="224.92" y1="208.55" x2="252.37" y2="208.55" xlink:href="#linear-gradient-4"/><linearGradient id="linear-gradient-9" x1="276.83" y1="299.31" x2="304.33" y2="299.31" xlink:href="#linear-gradient"/><linearGradient id="linear-gradient-10" x1="247.65" y1="298.73" x2="277.31" y2="298.73" xlink:href="#linear-gradient-2"/><linearGradient id="linear-gradient-11" x1="269.6" y1="165.32" x2="283.15" y2="141.85" xlink:href="#linear-gradient-3"/><linearGradient id="linear-gradient-12" x1="277.31" y1="187.85" x2="304.47" y2="187.85" xlink:href="#linear-gradient-4"/><linearGradient id="linear-gradient-13" x1="143.44" y1="204.31" x2="173.25" y2="204.31" gradientUnits="userSpaceOnUse"><stop offset="0" stop-color="#dcdcdc"/><stop offset="1" stop-color="#bebebe"/></linearGradient><linearGradient id="linear-gradient-14" x1="195.74" y1="207.98" x2="225.36" y2="207.98" xlink:href="#linear-gradient-13"/><linearGradient id="linear-gradient-15" x1="248.14" y1="187.27" x2="277.46" y2="187.27" xlink:href="#linear-gradient-13"/><linearGradient id="linear-gradient-16" x1="328.91" y1="350.2" x2="356.29" y2="350.2" xlink:href="#linear-gradient"/><linearGradient id="linear-gradient-17" x1="299.74" y1="349.62" x2="329.28" y2="349.62" xlink:href="#linear-gradient-2"/><linearGradient id="linear-gradient-18" x1="321.69" y1="195.39" x2="335.24" y2="171.92" xlink:href="#linear-gradient-3"/><linearGradient id="linear-gradient-19" x1="329.28" y1="238.74" x2="356.56" y2="238.74" xlink:href="#linear-gradient-4"/><linearGradient id="linear-gradient-20" x1="300.1" y1="238.16" x2="329.54" y2="238.16" xlink:href="#linear-gradient-13"/></defs><g class="cls-1"><polygon class="cls-2" points="143.44 315.77 170.46 300.07 199.63 316.92 172.62 332.61 143.44 315.77"/><polygon class="cls-3" points="143.84 176.41 170.85 160.71 170.46 300.07 143.44 315.77 143.84 176.41"/><polygon class="cls-4" points="173.01 193.25 200.03 177.55 199.63 316.92 172.62 332.61 173.01 193.25"/><polygon class="cls-5" points="173.01 193.25 172.62 332.61 143.44 315.77 143.84 176.41 173.01 193.25"/><polygon class="cls-6" points="143.84 176.41 170.85 160.71 200.03 177.55 173.01 193.25 143.84 176.41"/><polygon class="cls-7" points="144.07 92.85 171.09 77.15 200.26 94 173.25 109.69 144.07 92.85"/><polygon class="cls-8" points="173.25 109.69 200.26 94 200.03 177.55 173.01 193.25 173.25 109.69"/></g><g class="cls-1"><polygon class="cls-2" points="195.55 345.85 222.56 330.15 251.74 347 224.72 362.69 195.55 345.85"/><polygon class="cls-3" points="195.74 276.18 222.76 260.48 222.56 330.15 195.55 345.85 195.74 276.18"/><polygon class="cls-9" points="224.92 293.02 251.93 277.33 251.74 347 224.72 362.69 224.92 293.02"/><polygon class="cls-10" points="224.92 293.02 224.72 362.69 195.55 345.85 195.74 276.18 224.92 293.02"/><polygon class="cls-11" points="195.74 276.18 222.76 260.48 251.93 277.33 224.92 293.02 195.74 276.18"/><polygon class="cls-12" points="196.18 122.93 223.19 107.23 252.37 124.08 225.35 139.78 196.18 122.93"/><polygon class="cls-13" points="225.35 139.78 252.37 124.08 251.93 277.33 224.92 293.02 225.35 139.78"/></g><g class="cls-1"><polygon class="cls-2" points="247.65 375.93 274.66 360.23 303.84 377.08 276.83 392.78 247.65 375.93"/><polygon class="cls-3" points="248.14 204.69 275.15 188.99 274.66 360.23 247.65 375.93 248.14 204.69"/><polygon class="cls-14" points="277.31 221.53 304.33 205.84 303.84 377.08 276.83 392.78 277.31 221.53"/><polygon class="cls-15" points="277.31 221.53 276.83 392.78 247.65 375.93 248.14 204.69 277.31 221.53"/><polygon class="cls-16" points="248.14 204.69 275.15 188.99 304.33 205.84 277.31 221.53 248.14 204.69"/><polygon class="cls-17" points="248.28 153.01 275.3 137.32 304.47 154.16 277.46 169.86 248.28 153.01"/><polygon class="cls-18" points="277.46 169.86 304.47 154.16 304.33 205.84 277.31 221.53 277.46 169.86"/><polygon class="cls-19" points="143.44 315.77 143.84 176.41 173.01 193.25 173.25 109.69 144.07 92.85 143.44 315.77"/><polygon class="cls-20" points="195.74 276.18 224.92 293.02 225.35 139.78 196.18 122.93 195.74 276.18"/><polygon class="cls-21" points="248.28 153.01 248.14 204.69 277.31 221.53 277.46 169.86 248.28 153.01"/></g><g class="cls-1"><polygon class="cls-2" points="299.74 406 326.75 390.31 355.93 407.15 328.91 422.85 299.74 406"/><polygon class="cls-3" points="300.1 276.4 327.12 260.7 326.75 390.31 299.74 406 300.1 276.4"/><polygon class="cls-22" points="329.28 293.24 356.29 277.54 355.93 407.15 328.91 422.85 329.28 293.24"/><polygon class="cls-23" points="329.28 293.24 328.91 422.85 299.74 406 300.1 276.4 329.28 293.24"/><polygon class="cls-24" points="300.1 276.4 327.12 260.7 356.29 277.54 329.28 293.24 300.1 276.4"/><polygon class="cls-25" points="300.37 183.09 327.38 167.39 356.56 184.23 329.55 199.93 300.37 183.09"/><polygon class="cls-26" points="329.55 199.93 356.56 184.23 356.29 277.54 329.28 293.24 329.55 199.93"/><polygon class="cls-27" points="300.37 183.09 300.1 276.4 329.28 293.24 329.55 199.93 300.37 183.09"/></g><line class="cls-28" x1="144.07" y1="92.85" x2="173.25" y2="109.69"/><line class="cls-28" x1="196.18" y1="122.93" x2="225.36" y2="139.78"/><line class="cls-28" x1="248.28" y1="153.01" x2="277.46" y2="169.86"/><line class="cls-28" x1="300.37" y1="183.09" x2="329.54" y2="199.93"/></svg>