<svg id="Objects" xmlns="http://www.w3.org/2000/svg" xmlns:xlink="http://www.w3.org/1999/xlink" width="500" height="500" viewBox="0 0 500 500"><defs><style>.cls-1{fill:#f3f3f3;}.cls-2{opacity:0.9;fill:url(#linear-gradient);}.cls-3{opacity:0.8;fill:url(#New_Gradient_Swatch_3);}.cls-4{fill:#c9deff;}.cls-5{fill:#fff;}</style><linearGradient id="linear-gradient" x1="161.84" y1="233.13" x2="338.16" y2="233.13" gradientUnits="userSpaceOnUse"><stop offset="0" stop-color="#00bae3"/><stop offset="1" stop-color="#0062ff"/></linearGradient><radialGradient id="New_Gradient_Swatch_3" cx="250" cy="212.64" r="71.99" gradientUnits="userSpaceOnUse"><stop offset="0" stop-color="#69d6d4"/><stop offset="1" stop-color="#74a9ff"/></radialGradient></defs><path class="cls-1" d="M250,338.26c-19,0-37.94-4.17-52.38-12.51-14.83-8.56-23-20.21-23-32.81s8.17-24.24,23-32.81c28.88-16.67,75.88-16.67,104.76,0,14.83,8.56,23,20.21,23,32.81s-8.17,24.24-23,32.81h0C287.94,334.09,269,338.26,250,338.26Zm0-81.86c-17.36,0-34.71,3.82-47.93,11.44-11.95,6.91-18.54,15.82-18.54,25.1s6.59,18.2,18.54,25.1c26.43,15.26,69.43,15.26,95.86,0,11.95-6.91,18.54-15.82,18.54-25.1s-6.59-18.2-18.55-25.1C284.71,260.22,267.35,256.4,250,256.4Z"/><path class="cls-2" d="M338.16,237.4V212.64h-4.67c-4.2-7.22-11.18-14-21.15-19.78-34.43-19.88-90.25-19.88-124.68,0-10,5.75-17,12.56-21.15,19.78h-4.67v24.62h0c-.06,13.07,8.53,26.16,25.81,36.13,34.43,19.88,90.25,19.88,124.68,0C329.56,263.45,338.17,250.42,338.16,237.4Z"/><ellipse class="cls-3" cx="250" cy="212.64" rx="88.16" ry="50.9"/><path class="cls-4" d="M312.34,248.63c-34.43,19.88-90.25,19.88-124.68,0-16.5-9.52-25-21.89-25.69-34.37-.74,13.56,7.76,27.26,25.69,37.61,34.43,19.88,90.25,19.88,124.68,0,17.93-10.35,26.44-24,25.69-37.61C337.35,226.74,328.84,239.11,312.34,248.63Z"/><path class="cls-5" d="M207.51,229.49a4,4,0,0,1-2.33-3.24l.09-33.17c0-2.53,3.57-4.57,7.95-4.57s7.92,2.06,7.92,4.59l-.08,27.5,79.82-9.77c4.29-.53,8.5,1,9.41,3.53s-1.83,4.9-6.12,5.43l-89.41,11a12.54,12.54,0,0,1-6.64-.93A5,5,0,0,1,207.51,229.49Z"/></svg>