<svg id="Objects" xmlns="http://www.w3.org/2000/svg" xmlns:xlink="http://www.w3.org/1999/xlink" width="500" height="500" viewBox="0 0 500 500"><defs><style>.cls-1{fill:none;}.cls-2{fill:#282828;}.cls-3{fill:#171717;}.cls-4{fill:#565656;}.cls-5{fill:#a3a3a3;}.cls-6{isolation:isolate;}.cls-7{fill:#212121;}.cls-8{clip-path:url(#clip-path);}.cls-9{fill:#202020;}.cls-10{clip-path:url(#clip-path-2);}.cls-11{fill:#232323;}.cls-12{fill:#252525;}.cls-13{fill:#262626;}.cls-14{fill:#272727;}.cls-15{fill:#292929;}.cls-16{fill:#2b2b2b;}.cls-17{fill:#2c2c2c;}.cls-18{fill:#2f2f2f;}.cls-19{fill:#343434;}.cls-20{clip-path:url(#clip-path-3);}.cls-21{fill:#222;}.cls-22{fill:url(#linear-gradient);}.cls-23{fill:url(#linear-gradient-2);}.cls-24{fill:url(#linear-gradient-3);}.cls-25{fill:url(#linear-gradient-4);}.cls-26{fill:url(#linear-gradient-5);}.cls-27{fill:url(#linear-gradient-6);}.cls-28{fill:url(#linear-gradient-7);}.cls-29{fill:#a0a0a0;}.cls-30{fill:#8bc0ff;}.cls-31{fill:#1a89ff;}</style><clipPath id="clip-path"><path class="cls-1" d="M137.77,322.49l0,6.06a3,3,0,0,1,1.73-2.43l0-6.05A3,3,0,0,0,137.77,322.49Z"/></clipPath><clipPath id="clip-path-2"><path class="cls-1" d="M129.42,322.46l0,6.06c0,2.13,1.41,4.27,4.22,5.9l0-6.05C130.82,326.74,129.42,324.6,129.42,322.46Z"/></clipPath><clipPath id="clip-path-3"><path class="cls-1" d="M184.61,357.79l0,6c5.59,3.23,14.66,3.23,20.22,0l0-6C199.27,361,190.2,361,184.61,357.79Z"/></clipPath><linearGradient id="linear-gradient" x1="194.67" y1="264.78" x2="370.6" y2="264.78" gradientUnits="userSpaceOnUse"><stop offset="0" stop-color="#a4a4a4"/><stop offset="1" stop-color="#bebebe"/></linearGradient><linearGradient id="linear-gradient-2" x1="152.09" y1="260.25" x2="227.25" y2="260.25" gradientUnits="userSpaceOnUse"><stop offset="0" stop-color="#dcdcdc"/><stop offset="1" stop-color="#bebebe"/></linearGradient><linearGradient id="linear-gradient-3" x1="130.74" y1="325.54" x2="194.67" y2="325.54" xlink:href="#linear-gradient-2"/><linearGradient id="linear-gradient-4" x1="230.98" y1="256.17" x2="302.92" y2="131.57" gradientUnits="userSpaceOnUse"><stop offset="0" stop-color="#f3f3f3"/><stop offset="1" stop-color="#dcdcdc"/></linearGradient><linearGradient id="linear-gradient-5" x1="165.09" y1="312.14" x2="181.7" y2="283.38" xlink:href="#linear-gradient-4"/><linearGradient id="linear-gradient-6" x1="3677.29" y1="264.98" x2="3606.06" y2="264.98" gradientTransform="matrix(-1, 0, 0, 1, 3828.98, 0)" gradientUnits="userSpaceOnUse"><stop offset="0" stop-color="#171717"/><stop offset="1" stop-color="#3d3d3d"/></linearGradient><linearGradient id="linear-gradient-7" x1="3608.98" y1="284.83" x2="3592.71" y2="284.83" xlink:href="#linear-gradient-6"/></defs><path class="cls-2" d="M230.37,329.54c3.49-1.83,6.65-2,9-.74,2.77,1.45,4.5,4.79,4.5,9.64a21.15,21.15,0,0,1-.12,2.24h0l-17-10,3.63-1.17"/><path class="cls-3" d="M213,352c0-7.4,5.19-16.41,11.61-20.11,3.24-1.87,6.16-2,8.27-.78h0l5.56,3.22-2.23,4c0,.1,0,.19,0,.28,0,7.29-5,16.12-11.32,19.93l-2.5,4.46-6-3.44h0C214.28,358.3,213,355.69,213,352Z"/><ellipse class="cls-2" cx="230.43" cy="348.64" rx="16.42" ry="9.48" transform="translate(-186.72 373.87) rotate(-60)"/><ellipse class="cls-4" cx="230.43" cy="348.64" rx="11.26" ry="6.5" transform="translate(-186.72 373.87) rotate(-60)"/><path class="cls-5" d="M219.59,365h0l-.15-.07Z"/><g class="cls-6"><polygon class="cls-7" points="139.5 320.07 139.48 326.12 139.92 325.87 139.94 319.81 139.5 320.07"/><g class="cls-6"><g class="cls-8"><g class="cls-6"><path class="cls-9" d="M137.77,322.49l0,6.06a3,3,0,0,1,1.73-2.43l0-6.05a3,3,0,0,0-1.73,2.42"/></g></g></g><g class="cls-6"><g class="cls-10"><g class="cls-6"><path class="cls-11" d="M129.42,322.46l0,6.06a.28.28,0,0,0,0,.09v-6.15"/><path class="cls-12" d="M129.42,322.56v6.05a4.56,4.56,0,0,0,.08.82l0-6.05a4.67,4.67,0,0,1-.09-.82"/><path class="cls-13" d="M129.51,323.38l0,6.05a4.52,4.52,0,0,0,.22.8v-6.05a5.9,5.9,0,0,1-.21-.8"/><path class="cls-14" d="M129.72,324.18v6.05a5.87,5.87,0,0,0,.36.81l0-6.05a5.82,5.82,0,0,1-.37-.81"/><path class="cls-2" d="M130.09,325l0,6.05a5.66,5.66,0,0,0,.56.85v-6.05a7.21,7.21,0,0,1-.55-.85"/><path class="cls-15" d="M130.64,325.84v6.05a7.27,7.27,0,0,0,.84.94l0-6.05a9.14,9.14,0,0,1-.85-.94"/><path class="cls-16" d="M131.49,326.78l0,6.05a10.39,10.39,0,0,0,1.67,1.3l0-6.05a11,11,0,0,1-1.67-1.3"/><path class="cls-17" d="M133.16,328.08l0,6.05.48.29,0-6.05-.48-.29"/></g></g></g><polygon class="cls-7" points="204.83 357.79 204.81 363.84 205.26 363.59 205.27 357.53 204.83 357.79"/><polygon class="cls-18" points="133.64 328.37 133.63 334.42 184.59 363.84 184.6 357.79 133.64 328.37"/><path class="cls-19" d="M134,316.39l-.44.26c-5.56,3.23-5.53,8.48.07,11.72l51,29.42c5.59,3.23,14.66,3.23,20.22,0l.44-.26-5.92-3.42-.45.26a9.3,9.3,0,0,1-8.41,0l-51-29.42c-2.34-1.35-2.34-3.54,0-4.88l.44-.26Z"/><g class="cls-6"><g class="cls-20"><g class="cls-6"><path class="cls-17" d="M184.61,357.79l0,6a16.07,16.07,0,0,0,3.27,1.42l0-6.05a16.39,16.39,0,0,1-3.27-1.42"/><path class="cls-16" d="M187.88,359.21l0,6.05a20.81,20.81,0,0,0,2.56.63l0-6.06a22.78,22.78,0,0,1-2.56-.62"/><path class="cls-15" d="M190.44,359.83l0,6.06c.59.1,1.19.19,1.79.25l0-6.05c-.61-.07-1.2-.15-1.79-.26"/><path class="cls-2" d="M192.23,360.09l0,6.05c.52.05,1,.09,1.57.11l0-6.05c-.53,0-1.05-.06-1.57-.11"/><path class="cls-14" d="M193.8,360.2l0,6.05c.49,0,1,0,1.46,0v-6.05c-.48,0-1,0-1.45,0"/><path class="cls-13" d="M195.25,360.21v6.05c.46,0,.93,0,1.4-.07l0-6.05c-.47,0-.94.06-1.41.07"/><path class="cls-12" d="M196.66,360.14l0,6.05c.46,0,.93-.08,1.38-.15l0-6.05q-.69.09-1.38.15"/><path class="cls-11" d="M198,360l0,6.05c.48-.06.95-.14,1.42-.24v-6.05q-.69.13-1.41.24"/><path class="cls-21" d="M199.45,359.75v6.05c.5-.1,1-.22,1.49-.35l0-6.06q-.73.21-1.5.36"/><path class="cls-7" d="M201,359.39l0,6.06c.59-.17,1.17-.36,1.73-.58l0-6.05a16.67,16.67,0,0,1-1.73.57"/><path class="cls-9" d="M202.68,358.82l0,6.05a14.7,14.7,0,0,0,2.15-1l0-6a15.8,15.8,0,0,1-2.15,1"/></g></g></g></g><path class="cls-2" d="M328.15,273.25c3.49-1.83,6.65-2,9-.74,2.76,1.46,4.5,4.8,4.5,9.65a21.34,21.34,0,0,1-.13,2.24h0l-17-10,3.63-1.17"/><path class="cls-3" d="M310.73,295.68c0-7.41,5.2-16.41,11.61-20.11,3.24-1.87,6.17-2,8.28-.78h0l5.56,3.22L334,282v.28c0,7.29-5,16.12-11.32,19.93l-2.49,4.46-6-3.44h0C312.05,302,310.73,299.41,310.73,295.68Z"/><ellipse class="cls-2" cx="328.2" cy="292.36" rx="16.42" ry="9.48" transform="translate(-89.09 430.41) rotate(-60)"/><ellipse class="cls-4" cx="328.2" cy="292.36" rx="11.26" ry="6.5" transform="translate(-89.09 430.41) rotate(-60)"/><path class="cls-22" d="M227.25,253.93,216,303.48l-21.31,25.59v29.85l14.1-8.12h0l8.26-4.75h0c2.46-6.63,7.15-12.9,12.53-16.08,3.82-2.26,7.28-2.53,9.85-1.17a8.08,8.08,0,0,1,3.81,4.86,15.34,15.34,0,0,1,.69,4.78,21.15,21.15,0,0,1-.12,2.24l14.89-8.58,54.38-31.3c-.05-.54-.07-1.1-.07-1.69,0-9.36,6.42-20.74,14.35-25.42,3.81-2.26,7.27-2.53,9.85-1.18,2.76,1.46,4.5,4.8,4.5,9.65a21.34,21.34,0,0,1-.13,2.24l29-16.75v-97Z"/><path class="cls-5" d="M317.37,308.71h0l-.15-.08Z"/><polygon class="cls-23" points="163.31 217.02 227.25 253.93 215.98 303.48 152.09 266.29 163.31 217.02"/><polygon class="cls-24" points="130.78 321.73 194.67 358.92 194.67 329.07 130.74 292.16 130.78 321.73"/><polygon class="cls-25" points="163.3 217.09 227.23 254.01 370.6 170.65 306.66 133.73 163.3 217.09"/><polygon class="cls-26" points="130.74 292.16 194.7 329.24 215.98 303.48 152.09 266.29 130.74 292.16"/><path class="cls-27" d="M154.4,263.5l7.13-31.3a2.08,2.08,0,0,1,3.07-1.34l57.28,33.34a2.09,2.09,0,0,1,1,2.26l-7.12,31.31a2.08,2.08,0,0,1-3.07,1.33l-57.29-33.35A2.06,2.06,0,0,1,154.4,263.5Z"/><path class="cls-28" d="M229.75,265.46l2.77-1.57a2.51,2.51,0,0,1,3.75,2.18l0,32.35a2.52,2.52,0,0,1-1.25,2.17l-8.89,5.18a2.5,2.5,0,0,1-3.29-.69l-2.33-3.19a2.49,2.49,0,0,1-.42-2l6.73-30.4A6.09,6.09,0,0,1,229.75,265.46Z"/><polygon class="cls-29" points="181.83 343.68 181.83 349.41 191.62 355.12 191.62 349.39 181.83 343.68"/><polygon class="cls-30" points="182.76 345.35 182.76 348.86 188.05 351.96 188.05 348.45 182.76 345.35"/><polygon class="cls-31" points="188.67 348.82 188.67 352.33 190.51 353.41 190.51 349.9 188.67 348.82"/><polygon class="cls-29" points="133.63 315.74 133.63 321.47 143.41 327.18 143.41 321.45 133.63 315.74"/><polygon class="cls-30" points="137.03 318.87 137.03 322.38 142.31 325.48 142.31 321.96 137.03 318.87"/><polygon class="cls-31" points="134.56 317.41 134.56 320.92 136.41 322 136.41 318.49 134.56 317.41"/><polygon class="cls-29" points="181.83 325.7 181.83 333.31 191.62 339.02 191.62 331.4 181.83 325.7"/><polygon class="cls-31" points="182.76 327.36 182.76 332.76 190.51 337.32 190.51 331.92 182.76 327.36"/><polygon class="cls-29" points="133.63 297.76 133.63 305.38 143.41 311.08 143.41 303.47 133.63 297.76"/><polygon class="cls-31" points="134.56 299.43 134.56 304.83 142.31 309.38 142.31 303.98 134.56 299.43"/><polygon class="cls-29" points="149.35 309.36 149.35 329.17 174.81 344.01 174.81 324.21 149.35 309.36"/><polygon class="cls-19" points="153.2 314.83 153.2 328.88 151.59 327.91 151.59 313.86 153.2 314.83"/><polygon class="cls-19" points="156.43 316.62 156.43 330.67 154.81 329.7 154.81 315.65 156.43 316.62"/><polygon class="cls-19" points="159.66 318.41 159.66 332.46 158.04 331.49 158.04 317.44 159.66 318.41"/><polygon class="cls-19" points="162.88 320.2 162.88 334.25 161.27 333.27 161.27 319.23 162.88 320.2"/><polygon class="cls-19" points="166.11 321.99 166.11 336.03 164.5 335.06 164.5 321.01 166.11 321.99"/><polygon class="cls-19" points="169.34 323.77 169.34 337.82 167.73 336.85 167.73 322.8 169.34 323.77"/><polygon class="cls-19" points="172.57 325.56 172.57 339.61 170.95 338.64 170.95 324.59 172.57 325.56"/></svg>