<svg id="Objects" xmlns="http://www.w3.org/2000/svg" xmlns:xlink="http://www.w3.org/1999/xlink" width="500" height="500" viewBox="0 0 500 500"><defs><style>.cls-1{fill:url(#linear-gradient);}.cls-2{fill:url(#linear-gradient-2);}.cls-3{fill:url(#linear-gradient-3);}.cls-4{fill:#171717;}.cls-5{fill:#dcdcdc;}.cls-6{fill:url(#linear-gradient-4);}.cls-7{fill:url(#linear-gradient-5);}.cls-8{fill:url(#linear-gradient-6);}.cls-9{fill:url(#linear-gradient-7);}.cls-10{fill:url(#linear-gradient-8);}.cls-11{fill:url(#linear-gradient-9);}.cls-12{fill:url(#linear-gradient-10);}.cls-13{fill:url(#linear-gradient-11);}.cls-14{fill:url(#linear-gradient-12);}.cls-15{fill:url(#linear-gradient-13);}</style><linearGradient id="linear-gradient" x1="347.09" y1="307.74" x2="352.93" y2="307.74" gradientUnits="userSpaceOnUse"><stop offset="0" stop-color="#a4a4a4"/><stop offset="1" stop-color="#bebebe"/></linearGradient><linearGradient id="linear-gradient-2" x1="248.41" y1="180.18" x2="251.57" y2="174.71" gradientUnits="userSpaceOnUse"><stop offset="0" stop-color="#f3f3f3"/><stop offset="1" stop-color="#dcdcdc"/></linearGradient><linearGradient id="linear-gradient-3" x1="157.17" y1="251.95" x2="382.74" y2="251.95" gradientUnits="userSpaceOnUse"><stop offset="0" stop-color="#171717"/><stop offset="1" stop-color="#3d3d3d"/></linearGradient><linearGradient id="linear-gradient-4" x1="-1038.16" y1="563.01" x2="-986.54" y2="563.01" gradientTransform="translate(1360.66 -29.11) rotate(15)" gradientUnits="userSpaceOnUse"><stop offset="0" stop-color="#00bab6"/><stop offset="1" stop-color="#0062ff"/></linearGradient><linearGradient id="linear-gradient-5" x1="-1038.58" y1="567.81" x2="-985.47" y2="567.81" xlink:href="#linear-gradient-4"/><linearGradient id="linear-gradient-6" x1="-1044.56" y1="539.12" x2="-992.94" y2="539.12" xlink:href="#linear-gradient-4"/><linearGradient id="linear-gradient-7" x1="-1044.98" y1="543.92" x2="-991.87" y2="543.92" xlink:href="#linear-gradient-4"/><linearGradient id="linear-gradient-8" x1="-1041.5" y1="549.2" x2="-989.88" y2="549.2" xlink:href="#linear-gradient-4"/><linearGradient id="linear-gradient-9" x1="-1041.72" y1="554" x2="-988.62" y2="554" xlink:href="#linear-gradient-4"/><linearGradient id="linear-gradient-10" x1="-1034.81" y1="576.93" x2="-983.19" y2="576.93" xlink:href="#linear-gradient-4"/><linearGradient id="linear-gradient-11" x1="-1035.39" y1="582.69" x2="-982.39" y2="582.69" xlink:href="#linear-gradient-4"/><linearGradient id="linear-gradient-12" x1="-1047.61" y1="529.15" x2="-995.99" y2="529.15" xlink:href="#linear-gradient-4"/><linearGradient id="linear-gradient-13" x1="-1048.19" y1="534.91" x2="-995.19" y2="534.91" xlink:href="#linear-gradient-4"/></defs><polygon class="cls-1" points="352.91 378.34 347.09 382.23 347.09 382.23 347.1 237.12 352.93 233.24 352.91 378.34"/><polygon class="cls-2" points="347.1 237.12 352.89 233.22 152.88 117.77 147.09 121.67 347.1 237.12"/><polygon class="cls-3" points="347.09 382.23 147.07 266.78 147.09 121.68 347.1 237.12 347.09 382.23"/><polygon class="cls-4" points="347.1 252.91 147.09 137.46 147.09 121.68 347.1 237.12 347.1 252.91"/><ellipse class="cls-5" cx="155.45" cy="134.58" rx="2.21" ry="3.83" transform="matrix(0.87, -0.5, 0.5, 0.87, -46.46, 95.75)"/><ellipse class="cls-5" cx="165.24" cy="140.23" rx="2.21" ry="3.83" transform="translate(-47.98 101.41) rotate(-30)"/><ellipse class="cls-5" cx="175.03" cy="145.88" rx="2.21" ry="3.83" transform="matrix(0.87, -0.5, 0.5, 0.87, -49.49, 107.06)"/><g id="CA_logomark_Grouped" data-name="CA logomark Grouped"><path class="cls-6" d="M220.73,250.63h0c1.45.84,2.65.15,2.65-1.53h0a3.64,3.64,0,0,0-1.63-2.83h0c-1.46-.84-2.66-.15-2.66,1.53h0A3.63,3.63,0,0,0,220.73,250.63Z"/><path class="cls-7" d="M244.8,259.58h0l-15-8.66h0c-.93-.53-1.77-.35-2,.51-.46,1.44.63,3.63,2,4.44h0l15,8.65h0c1.41.82,2.49-.12,2-2.09A4.75,4.75,0,0,0,244.8,259.58Z"/><path class="cls-8" d="M220.73,225.89h0c1.46.85,2.65.16,2.65-1.53h0a3.63,3.63,0,0,0-1.63-2.83h0c-1.46-.84-2.65-.15-2.65,1.54h0A3.6,3.6,0,0,0,220.73,225.89Z"/><path class="cls-9" d="M244.8,234.84h0l-15-8.65h0c-.92-.53-1.76-.35-2,.5-.46,1.44.63,3.63,2,4.44h0l15,8.66h0c1.41.81,2.5-.12,2-2.09A4.73,4.73,0,0,0,244.8,234.84Z"/><path class="cls-10" d="M214.5,234.66h0c1.45.85,2.65.16,2.65-1.53h0a3.61,3.61,0,0,0-1.64-2.82h0c-1.45-.85-2.65-.16-2.65,1.53h0A3.61,3.61,0,0,0,214.5,234.66Z"/><path class="cls-11" d="M238.57,243.61h0l-15-8.65h0c-.92-.53-1.76-.35-2,.5-.46,1.44.63,3.63,2,4.44h0l15,8.66h0c1.4.81,2.49-.12,2-2.09A4.77,4.77,0,0,0,238.57,243.61Z"/><path class="cls-12" d="M227.35,266.82h0c1.45.84,2.65.15,2.65-1.53h0a3.64,3.64,0,0,0-1.63-2.83h0c-1.46-.84-2.66-.15-2.66,1.53h0A3.63,3.63,0,0,0,227.35,266.82Z"/><path class="cls-13" d="M257.85,279.48h0l-21.42-12.37h0c-.93-.53-1.77-.35-2,.51-.46,1.44.63,3.63,2,4.44h0l21.43,12.36h0c1.4.81,2.49-.12,2-2.09A4.7,4.7,0,0,0,257.85,279.48Z"/><path class="cls-14" d="M227.35,217.35h0c1.46.84,2.65.15,2.65-1.53h0a3.62,3.62,0,0,0-1.63-2.83h0c-1.46-.84-2.65-.15-2.65,1.53h0A3.62,3.62,0,0,0,227.35,217.35Z"/><path class="cls-15" d="M257.85,230h0l-21.42-12.37h0c-.92-.53-1.76-.35-2,.51-.45,1.44.63,3.63,2,4.44h0L257.85,235h0c1.41.81,2.5-.12,2-2.09A4.71,4.71,0,0,0,257.85,230Z"/></g></svg>