<svg id="Objects" xmlns="http://www.w3.org/2000/svg" xmlns:xlink="http://www.w3.org/1999/xlink" width="500" height="500" viewBox="0 0 500 500"><defs><style>.cls-1{fill:url(#linear-gradient);}.cls-2{fill:url(#linear-gradient-2);}.cls-3{fill:url(#linear-gradient-3);}.cls-4{fill:url(#linear-gradient-4);}.cls-5{fill:url(#linear-gradient-5);}.cls-6{fill:url(#linear-gradient-6);}.cls-7{fill:url(#linear-gradient-7);}.cls-8{fill:url(#linear-gradient-8);}.cls-9{fill:url(#linear-gradient-9);}.cls-10,.cls-16{fill:none;stroke-miterlimit:10;}.cls-10{stroke:#fff;stroke-width:0.75px;}.cls-11{fill:#8b8b8b;}.cls-12{fill:url(#linear-gradient-10);}.cls-13{fill:url(#linear-gradient-11);}.cls-14{fill:url(#linear-gradient-12);}.cls-15{fill:#f3f3f3;}.cls-16{stroke:#c9deff;stroke-width:0.5px;}</style><linearGradient id="linear-gradient" x1="274.8" y1="272.65" x2="277.55" y2="267.89" gradientUnits="userSpaceOnUse"><stop offset="0" stop-color="#dcdcdc"/><stop offset="1" stop-color="#bebebe"/></linearGradient><linearGradient id="linear-gradient-2" x1="356.18" y1="342.94" x2="361.66" y2="342.94" gradientUnits="userSpaceOnUse"><stop offset="0" stop-color="#8c8c8c"/><stop offset="1" stop-color="#a4a4a4"/></linearGradient><linearGradient id="linear-gradient-3" x1="190.68" y1="296.76" x2="356.18" y2="296.76" gradientUnits="userSpaceOnUse"><stop offset="0" stop-color="#bebebe"/><stop offset="1" stop-color="#a4a4a4"/></linearGradient><linearGradient id="linear-gradient-4" x1="274.81" y1="182.29" x2="277.56" y2="177.53" xlink:href="#linear-gradient"/><linearGradient id="linear-gradient-5" x1="356.19" y1="252.58" x2="361.68" y2="252.58" xlink:href="#linear-gradient-2"/><linearGradient id="linear-gradient-6" x1="190.69" y1="206.4" x2="356.2" y2="206.4" xlink:href="#linear-gradient-3"/><linearGradient id="linear-gradient-7" x1="259.04" y1="221.31" x2="261.79" y2="216.56" gradientUnits="userSpaceOnUse"><stop offset="0" stop-color="#f3f3f3"/><stop offset="1" stop-color="#dcdcdc"/></linearGradient><linearGradient id="linear-gradient-8" x1="340.42" y1="291.61" x2="345.91" y2="291.61" gradientUnits="userSpaceOnUse"><stop offset="0" stop-color="#a4a4a4"/><stop offset="1" stop-color="#bebebe"/></linearGradient><linearGradient id="linear-gradient-9" x1="174.92" y1="245.17" x2="340.43" y2="245.17" gradientUnits="userSpaceOnUse"><stop offset="0" stop-color="#dcdcdc"/><stop offset="1" stop-color="#bebebe"/></linearGradient><linearGradient id="linear-gradient-10" x1="151.96" y1="265.6" x2="185.5" y2="246.24" gradientUnits="userSpaceOnUse"><stop offset="0" stop-color="#97c1ff"/><stop offset="1" stop-color="#6ea6ff"/></linearGradient><linearGradient id="linear-gradient-11" x1="192.85" y1="303.14" x2="199.14" y2="303.14" gradientUnits="userSpaceOnUse"><stop offset="0" stop-color="#0062ff"/><stop offset="1" stop-color="#408bfc"/></linearGradient><linearGradient id="linear-gradient-12" x1="138.32" y1="289.21" x2="192.86" y2="289.21" gradientUnits="userSpaceOnUse"><stop offset="0" stop-color="#6ea6ff"/><stop offset="1" stop-color="#408bfc"/></linearGradient></defs><polygon class="cls-1" points="356.18 319.61 361.66 316.46 196.16 220.93 190.68 224.09 356.18 319.61"/><polygon class="cls-2" points="361.66 366.28 361.66 316.46 356.18 319.61 356.18 369.43 361.66 366.28"/><polygon class="cls-3" points="356.18 369.43 190.68 273.9 190.68 224.09 356.18 319.61 356.18 369.43"/><polygon class="cls-4" points="356.2 229.25 361.68 226.09 196.18 130.57 190.7 133.72 356.2 229.25"/><polygon class="cls-5" points="361.67 275.91 361.68 226.09 356.2 229.25 356.19 279.07 361.67 275.91"/><polygon class="cls-6" points="356.19 279.07 190.69 183.54 190.7 133.72 356.2 229.25 356.19 279.07"/><polygon class="cls-7" points="340.43 268.28 345.9 265.12 180.41 169.6 174.93 172.75 340.43 268.28"/><polygon class="cls-8" points="345.9 314.94 345.9 265.12 340.43 268.28 340.42 318.09 345.9 314.94"/><polygon class="cls-9" points="340.42 317.85 174.92 222.32 174.93 172.5 340.43 268.03 340.42 317.85"/><line class="cls-10" x1="174.93" y1="172.5" x2="340.43" y2="268.03"/><path class="cls-11" d="M313.58,275.73l-93.64-54.07c-1.23-.71-2.23-.13-2.23,1.29a4.9,4.9,0,0,0,2.23,3.86l93.64,54.07c1.23.71,2.23.14,2.23-1.29A4.93,4.93,0,0,0,313.58,275.73Z"/><polygon class="cls-12" points="192.86 273.46 199.14 269.85 144.61 238.38 138.33 241.99 192.86 273.46"/><polygon class="cls-13" points="199.13 332.81 199.14 269.85 192.86 273.46 192.85 336.42 199.13 332.81"/><polygon class="cls-14" points="192.85 336.42 138.32 304.95 138.33 241.99 192.86 273.46 192.85 336.42"/><polygon class="cls-15" points="166.82 288.5 166.82 277.14 164.36 275.73 164.36 287.08 154.53 281.4 154.53 284.24 164.36 289.92 164.36 301.27 166.82 302.69 166.82 291.34 176.65 297.01 176.65 294.17 166.82 288.5"/><line class="cls-16" x1="138.33" y1="241.99" x2="192.86" y2="273.46"/><polygon class="cls-11" points="207.72 224.07 195.99 217.3 196 203.77 207.72 210.53 207.72 224.07"/><path class="cls-11" d="M329.35,237,235.71,183c-1.23-.71-2.23-.13-2.23,1.29a4.93,4.93,0,0,0,2.23,3.86l93.64,54.07c1.23.71,2.23.14,2.23-1.29A4.93,4.93,0,0,0,329.35,237Z"/><polygon class="cls-11" points="223.49 185.36 211.76 178.59 211.77 165.06 223.49 171.82 223.49 185.36"/><path class="cls-11" d="M329.35,327.32l-93.64-54.07c-1.23-.71-2.23-.14-2.23,1.29a4.93,4.93,0,0,0,2.23,3.86l93.64,54.07c1.23.71,2.23.13,2.23-1.29A4.93,4.93,0,0,0,329.35,327.32Z"/><polygon class="cls-11" points="223.49 275.65 211.76 268.89 211.77 255.35 223.49 262.12 223.49 275.65"/></svg>