<svg id="Objects" xmlns="http://www.w3.org/2000/svg" xmlns:xlink="http://www.w3.org/1999/xlink" width="500" height="500" viewBox="0 0 500 500"><defs><style>.cls-1{fill:url(#linear-gradient);}.cls-2{fill:url(#linear-gradient-2);}.cls-3{fill:#f3f3f3;}.cls-4{fill:#a3a3a3;}.cls-5{fill:url(#linear-gradient-3);}.cls-6{fill:url(#linear-gradient-4);}.cls-7{fill:#408bfc;}.cls-8{fill:#dcdcdc;}.cls-9{fill:url(#linear-gradient-5);}.cls-10{fill:url(#linear-gradient-6);}.cls-11{fill:url(#linear-gradient-7);}.cls-12{fill:url(#linear-gradient-8);}.cls-13{fill:url(#linear-gradient-9);}.cls-14{fill:url(#linear-gradient-10);}.cls-15{fill:url(#linear-gradient-11);}.cls-16{fill:url(#linear-gradient-12);}.cls-17{fill:url(#linear-gradient-13);}.cls-18{fill:url(#linear-gradient-14);}.cls-19{fill:url(#linear-gradient-15);}.cls-20{fill:url(#linear-gradient-16);}.cls-21{fill:url(#linear-gradient-17);}.cls-22{fill:url(#linear-gradient-18);}.cls-23{fill:url(#linear-gradient-19);}.cls-24{fill:url(#linear-gradient-20);}.cls-25{fill:url(#linear-gradient-21);}.cls-26{fill:url(#linear-gradient-22);}</style><linearGradient id="linear-gradient" x1="175.96" y1="332.83" x2="251.39" y2="202.19" gradientUnits="userSpaceOnUse"><stop offset="0" stop-color="#bebebe"/><stop offset="0.01" stop-color="#b8b8b8"/><stop offset="0.04" stop-color="#adadad"/><stop offset="0.09" stop-color="#a6a6a6"/><stop offset="0.21" stop-color="#a4a4a4"/><stop offset="0.57" stop-color="#dcdcdc"/><stop offset="1" stop-color="#f3f3f3"/></linearGradient><linearGradient id="linear-gradient-2" x1="121.67" y1="284.31" x2="257.33" y2="284.31" gradientTransform="translate(167.54 -56.66) rotate(30)" gradientUnits="userSpaceOnUse"><stop offset="0" stop-color="#dcdcdc"/><stop offset="1" stop-color="#bebebe"/></linearGradient><linearGradient id="linear-gradient-3" x1="126.46" y1="285.76" x2="236.41" y2="285.76" gradientUnits="userSpaceOnUse"><stop offset="0" stop-color="#3d3d3d"/><stop offset="1" stop-color="#a3a3a3"/></linearGradient><linearGradient id="linear-gradient-4" x1="126.46" y1="285.76" x2="236.41" y2="285.76" gradientUnits="userSpaceOnUse"><stop offset="0" stop-color="#bebebe"/><stop offset="1" stop-color="#dcdcdc"/></linearGradient><linearGradient id="linear-gradient-5" x1="324.34" y1="414.64" x2="345.43" y2="378.1" xlink:href="#linear-gradient"/><linearGradient id="linear-gradient-6" x1="309.15" y1="401.07" x2="347.09" y2="401.07" gradientTransform="translate(244.5 -110.33) rotate(30)" xlink:href="#linear-gradient-2"/><linearGradient id="linear-gradient-7" x1="341.33" y1="424.45" x2="362.43" y2="387.91" xlink:href="#linear-gradient-3"/><linearGradient id="linear-gradient-8" x1="310.49" y1="401.47" x2="341.24" y2="401.47" xlink:href="#linear-gradient-3"/><linearGradient id="linear-gradient-9" x1="341.3" y1="424.39" x2="341.44" y2="424.39" xlink:href="#linear-gradient-3"/><linearGradient id="linear-gradient-10" x1="310.49" y1="401.47" x2="341.24" y2="401.47" xlink:href="#linear-gradient-4"/><linearGradient id="linear-gradient-11" x1="129.69" y1="118.03" x2="150.78" y2="81.49" xlink:href="#linear-gradient"/><linearGradient id="linear-gradient-12" x1="114.5" y1="104.46" x2="152.44" y2="104.46" gradientTransform="translate(70.11 -52.74) rotate(30)" xlink:href="#linear-gradient-2"/><linearGradient id="linear-gradient-13" x1="146.68" y1="127.84" x2="167.78" y2="91.31" xlink:href="#linear-gradient-3"/><linearGradient id="linear-gradient-14" x1="115.84" y1="104.87" x2="146.59" y2="104.87" xlink:href="#linear-gradient-3"/><linearGradient id="linear-gradient-15" x1="146.65" y1="127.78" x2="146.79" y2="127.78" xlink:href="#linear-gradient-3"/><linearGradient id="linear-gradient-16" x1="115.84" y1="104.87" x2="146.59" y2="104.87" xlink:href="#linear-gradient-4"/><linearGradient id="linear-gradient-17" x1="322.91" y1="192.24" x2="353.05" y2="140.04" xlink:href="#linear-gradient"/><linearGradient id="linear-gradient-18" x1="301.21" y1="172.85" x2="355.42" y2="172.85" gradientTransform="translate(130.41 -141) rotate(30)" xlink:href="#linear-gradient-2"/><linearGradient id="linear-gradient-19" x1="347.19" y1="206.26" x2="377.33" y2="154.06" xlink:href="#linear-gradient-3"/><linearGradient id="linear-gradient-20" x1="303.13" y1="173.43" x2="347.06" y2="173.43" xlink:href="#linear-gradient-3"/><linearGradient id="linear-gradient-21" x1="347.14" y1="206.17" x2="347.35" y2="206.17" xlink:href="#linear-gradient-3"/><linearGradient id="linear-gradient-22" x1="303.13" y1="173.43" x2="347.06" y2="173.43" xlink:href="#linear-gradient-4"/></defs><path class="cls-1" d="M291.56,303.71c0-43.26-30.37-95.86-67.83-117.49-18.92-10.92-36-11.84-48.33-4.52h0l-32.48,18.8,13,23.26c0,.54,0,1.08,0,1.63,0,42.6,29.46,94.18,66.12,116.41l14.6,26.06,34.8-20.08h0C283.85,340.74,291.56,325.49,291.56,303.71Z"/><ellipse class="cls-2" cx="189.5" cy="284.31" rx="55.38" ry="95.93" transform="translate(-116.77 132.84) rotate(-30)"/><ellipse class="cls-3" cx="189.5" cy="284.31" rx="51.47" ry="89.15" transform="translate(-116.77 132.84) rotate(-30)"/><path class="cls-4" d="M237.77,367.18l-.64.37Z"/><path class="cls-5" d="M233,361.32c-10.67,3.41-24.07,1.4-38.64-7-34.81-20.1-63-69-63-109.19,0-18,5.67-31.2,15.06-38.49.35-.27.7-.54,1.06-.8-.4.18-.79.39-1.18.59-12.17,6.24-19.77,20.64-19.77,41.49,0,40.2,28.22,89.08,63,109.18,17,9.83,32.45,10.94,43.8,4.83a29.28,29.28,0,0,0,3.11-1.93A28.62,28.62,0,0,1,233,361.32Z"/><path class="cls-6" d="M194.32,354.31c-34.81-20.1-63-69-63-109.19,0-18,5.67-31.2,15.06-38.49.35-.27.7-.54,1.06-.8-.4.18-.79.39-1.18.59-12.17,6.24-19.77,20.64-19.77,41.49,0,40.2,28.22,89.08,63,109.18,17,9.83,32.45,10.94,43.8,4.83a29.28,29.28,0,0,0,3.11-1.93,28.62,28.62,0,0,1-3.45,1.33C222.29,364.73,208.89,362.72,194.32,354.31Z"/><path class="cls-7" d="M207.83,277.25c0,11.68-8.21,16.42-18.33,10.57s-18.32-20.05-18.32-31.73,8.21-16.42,18.32-10.58S207.83,265.56,207.83,277.25Z"/><path class="cls-7" d="M205.21,302.94,173.79,284.8c-4.23-2.44-7.85-.35-7.85,4.54v9.07l47.12,27.2v-9.07C213.06,311.65,209.44,305.38,205.21,302.94Z"/><path class="cls-8" d="M177.71,187.73a2.55,2.55,0,0,1-2.3-1.46l-40.7-86.13A2.54,2.54,0,0,1,139.3,98L180,184.11a2.52,2.52,0,0,1-1.21,3.37A2.47,2.47,0,0,1,177.71,187.73Z"/><path class="cls-8" d="M255.58,247.42a2.54,2.54,0,0,1-1.7-4.42l80.52-72.83a2.53,2.53,0,0,1,3.4,3.76l-80.52,72.83A2.55,2.55,0,0,1,255.58,247.42Z"/><path class="cls-8" d="M331.73,400.84a2.52,2.52,0,0,1-1.92-.88l-58.43-67.42a2.54,2.54,0,0,1,3.83-3.33l58.43,67.43a2.53,2.53,0,0,1-1.91,4.2Z"/><path class="cls-9" d="M356.67,406.49c0-12.1-8.5-26.81-19-32.86-5.3-3.05-10.08-3.31-13.52-1.26h0l-9.09,5.25,3.65,6.51c0,.15,0,.3,0,.46,0,11.91,8.24,26.34,18.5,32.55l4.08,7.29,9.73-5.62h0C354.51,416.85,356.67,412.58,356.67,406.49Z"/><ellipse class="cls-10" cx="328.12" cy="401.07" rx="15.49" ry="26.83" transform="translate(-156.57 217.8) rotate(-30)"/><ellipse class="cls-3" cx="328.12" cy="401.07" rx="14.4" ry="24.93" transform="translate(-156.57 217.8) rotate(-30)"/><path class="cls-11" d="M341.3,424.43l.14-.08-.14.07Z"/><path class="cls-4" d="M341.62,424.24l-.18.11Z"/><path class="cls-12" d="M340.28,422.6c-3,1-6.73.4-10.81-2-9.73-5.62-17.63-19.29-17.63-30.53,0-5,1.59-8.73,4.21-10.77l.3-.22-.33.16c-3.4,1.75-5.53,5.78-5.53,11.61,0,11.24,7.9,24.91,17.63,30.53,4.76,2.75,9.08,3.06,12.25,1.35a7.86,7.86,0,0,0,.87-.54A6.56,6.56,0,0,1,340.28,422.6Z"/><path class="cls-13" d="M341.3,424.42h0l.14-.08Z"/><path class="cls-14" d="M329.47,420.64c-9.73-5.62-17.63-19.29-17.63-30.53,0-5,1.59-8.73,4.21-10.77l.3-.22-.33.16c-3.4,1.75-5.53,5.78-5.53,11.61,0,11.24,7.9,24.91,17.63,30.53,4.76,2.75,9.08,3.06,12.25,1.35a7.86,7.86,0,0,0,.87-.54,6.56,6.56,0,0,1-1,.37C337.29,423.56,333.55,423,329.47,420.64Z"/><path class="cls-15" d="M162,109.89c0-12.1-8.49-26.81-19-32.86C137.75,74,133,73.71,129.53,75.76h0L120.44,81l3.64,6.5c0,.16,0,.3,0,.46,0,11.91,8.24,26.34,18.5,32.56l4.08,7.28,9.73-5.61h0C159.86,120.24,162,116,162,109.89Z"/><ellipse class="cls-16" cx="133.47" cy="104.46" rx="15.49" ry="26.83" transform="translate(-34.35 80.73) rotate(-30)"/><ellipse class="cls-3" cx="133.47" cy="104.46" rx="14.4" ry="24.93" transform="translate(-34.35 80.73) rotate(-30)"/><path class="cls-17" d="M146.65,127.82l.14-.08-.14.08Z"/><path class="cls-4" d="M147,127.64l-.18.1Z"/><path class="cls-18" d="M145.63,126c-3,1-6.74.39-10.81-2-9.74-5.62-17.63-19.3-17.63-30.54,0-5,1.59-8.73,4.21-10.76l.3-.23-.33.17c-3.4,1.74-5.53,5.77-5.53,11.6,0,11.24,7.89,24.92,17.63,30.54,4.76,2.75,9.08,3.06,12.25,1.35a9.71,9.71,0,0,0,.87-.54A10,10,0,0,1,145.63,126Z"/><path class="cls-19" d="M146.65,127.82h0l.14-.08Z"/><path class="cls-20" d="M134.82,124c-9.74-5.62-17.63-19.3-17.63-30.54,0-5,1.59-8.73,4.21-10.76l.3-.23-.33.17c-3.4,1.74-5.53,5.77-5.53,11.6,0,11.24,7.89,24.92,17.63,30.54,4.76,2.75,9.08,3.06,12.25,1.35a9.71,9.71,0,0,0,.87-.54,10,10,0,0,1-1,.37C142.64,127,138.89,126.39,134.82,124Z"/><path class="cls-21" d="M369.1,180.6c0-17.28-12.14-38.3-27.11-46.94-7.56-4.37-14.39-4.74-19.31-1.81h0l-13,7.51,5.2,9.29c0,.22,0,.43,0,.65,0,17,11.77,37.64,26.42,46.52l5.83,10.41,13.91-8h0C366,195.4,369.1,189.31,369.1,180.6Z"/><ellipse class="cls-22" cx="328.32" cy="172.85" rx="22.13" ry="38.33" transform="translate(-42.44 187.32) rotate(-30)"/><ellipse class="cls-3" cx="328.32" cy="172.85" rx="20.57" ry="35.62" transform="translate(-42.44 187.32) rotate(-30)"/><path class="cls-23" d="M347.14,206.23l.21-.12-.21.11Z"/><path class="cls-4" d="M347.6,206l-.25.14Z"/><path class="cls-24" d="M345.68,203.62c-4.26,1.37-9.62.56-15.44-2.8-13.91-8-25.18-27.56-25.18-43.63,0-7.19,2.26-12.47,6-15.38.14-.11.28-.22.43-.32l-.47.24c-4.87,2.49-7.9,8.25-7.9,16.58,0,16.06,11.27,35.59,25.19,43.62,6.8,3.93,13,4.37,17.5,1.93a10.64,10.64,0,0,0,1.24-.77A10.37,10.37,0,0,1,345.68,203.62Z"/><path class="cls-25" d="M347.14,206.22h0l.21-.12Z"/><path class="cls-26" d="M330.24,200.82c-13.91-8-25.18-27.56-25.18-43.63,0-7.19,2.26-12.47,6-15.38.14-.11.28-.22.43-.32l-.47.24c-4.87,2.49-7.9,8.25-7.9,16.58,0,16.06,11.27,35.59,25.19,43.62,6.8,3.93,13,4.37,17.5,1.93a10.64,10.64,0,0,0,1.24-.77,10.37,10.37,0,0,1-1.38.53C341.42,205,336.06,204.18,330.24,200.82Z"/></svg>