<svg id="Objects" xmlns="http://www.w3.org/2000/svg" width="500" height="500" viewBox="0 0 500 500"><defs><style>.cls-1{fill:#dcdcdc;}.cls-2{fill:#f3f3f3;}.cls-3{fill:#fafafa;}.cls-4{fill:#e1e1e1;}.cls-5{fill:#e7e7e7;}.cls-6{fill:#00dfbf;}.cls-7{fill:#8b8b8b;}.cls-8{fill:#bdbdbd;}.cls-9{fill:#dbdbdb;}.cls-10{fill:#fff;opacity:0.4;}.cls-11{fill:none;stroke:#ececec;stroke-miterlimit:10;stroke-width:0.71px;}.cls-12{fill:#ececec;}.cls-13{fill:#1a89ff;}</style></defs><path class="cls-1" d="M350.31,336.83a2.49,2.49,0,0,0,1.05-2.55l-25-110.68a4.59,4.59,0,0,0-1.91-2.6L175.67,135.11a3.29,3.29,0,0,0-3-.05,2.47,2.47,0,0,0-1,2.55l25,110.67a4.61,4.61,0,0,0,1.92,2.6l148.76,85.89A3.29,3.29,0,0,0,350.31,336.83Z"/><path class="cls-2" d="M323.49,225.26l25,110.67c.22.95-.29,1.33-1.14.84L198.59,250.88a4.61,4.61,0,0,1-1.92-2.6l-25-110.67c-.22-1,.29-1.33,1.14-.84l148.76,85.89A4.58,4.58,0,0,1,323.49,225.26Z"/><path class="cls-1" d="M169.85,136.71a3.29,3.29,0,0,1,3,.06l148.76,85.89a2.78,2.78,0,0,1,1.28,2.62L303.3,362.37a4,4,0,0,1-1.68,2.57,3.29,3.29,0,0,1-3-.05L149.89,279a2.83,2.83,0,0,1-1.28-2.63l19.56-137.09A4,4,0,0,1,169.85,136.71Z"/><path class="cls-3" d="M320,226.94,300.43,364a1.11,1.11,0,0,1-1.77.87L149.89,279a2.83,2.83,0,0,1-1.28-2.63l19.56-137.09a1.1,1.1,0,0,1,1.77-.86l148.77,85.89A2.84,2.84,0,0,1,320,226.94Z"/><path class="cls-4" d="M348.36,335.35l-38.07-22-1.14,8,17.46,10.08s4.65,1.66,6.51,2.11S348.36,335.35,348.36,335.35Z"/><polygon class="cls-5" points="309.15 321.33 303.44 361.39 326.61 331.41 309.15 321.33"/><path class="cls-1" d="M304.12,362.72l20.77-27a3.32,3.32,0,0,1,2.82-1.14l19.42,2.8a5.79,5.79,0,0,0,3.18-.57c.79-.46.66-1-.3-1.16l-22.31-4.3a3.08,3.08,0,0,0-2.79,1.08l-23.68,31.9c-.58.78-.41,1,.39.59A10.29,10.29,0,0,0,304.12,362.72Z"/><path class="cls-6" d="M171.62,137.06a2.8,2.8,0,0,0,0,.55l3.53,15.62L327,240.89l2.86-1.65-3.52-15.63a4.43,4.43,0,0,0-.76-1.52,4,4,0,0,0-1.16-1.08l-148.77-85.9a3.32,3.32,0,0,0-3-.05,2.43,2.43,0,0,0-1.09,2Z"/><path class="cls-7" d="M171.67,137.61c-.22-1,.29-1.33,1.14-.84l148.76,85.89a4.58,4.58,0,0,1,1.92,2.6L327,240.89,175.2,153.23Z"/><path class="cls-8" d="M322.74,223.75a4.18,4.18,0,0,1,.75,1.51L327,240.89l2.86-1.65-3.52-15.63a4.43,4.43,0,0,0-.76-1.52Z"/><path class="cls-9" d="M171.62,137.06c.07-.53.53-.67,1.19-.29l148.77,85.89a4,4,0,0,1,1.16,1.09l2.86-1.66a4,4,0,0,0-1.16-1.08l-148.77-85.9a3.32,3.32,0,0,0-3-.05A2.43,2.43,0,0,0,171.62,137.06Z"/><path class="cls-7" d="M168,140.6h0l.19-1.31a1.62,1.62,0,0,1,0-.19.11.11,0,0,1,0-.05h0a4,4,0,0,1,1.63-2.33,3.29,3.29,0,0,1,3,.06l148.76,85.89a2.68,2.68,0,0,1,1,1.17h0a2.6,2.6,0,0,1,.25,1.46l-2.8,19.64-2.87,1.65L165.36,158.93Z"/><path class="cls-8" d="M317.18,246.58l2.87-1.65,2.8-19.64a2.6,2.6,0,0,0-.25-1.46l-2.87,1.65a2.71,2.71,0,0,1,.26,1.46Z"/><path class="cls-10" d="M168.22,139a1.09,1.09,0,0,1,1.72-.62l148.77,85.89a2.66,2.66,0,0,1,1,1.17l2.87-1.65a2.66,2.66,0,0,0-1-1.17L172.81,136.77a3.29,3.29,0,0,0-3-.06A4,4,0,0,0,168.22,139Z"/><path class="cls-11" d="M277.68,341.31l1.79-12.49a.89.89,0,0,1,1.42-.69l13,7.49a2.26,2.26,0,0,1,1,2.1l-1.78,12.49a.89.89,0,0,1-1.42.69l-13-7.49A2.24,2.24,0,0,1,277.68,341.31Z"/><path class="cls-11" d="M257.63,329.75l1.78-12.49a.89.89,0,0,1,1.42-.69l13,7.49a2.25,2.25,0,0,1,1,2.1L273,338.64a.89.89,0,0,1-1.42.7l-13-7.49A2.26,2.26,0,0,1,257.63,329.75Z"/><path class="cls-11" d="M237.57,318.18l1.78-12.49a.89.89,0,0,1,1.42-.69l13,7.49a2.24,2.24,0,0,1,1,2.1L253,327.08a.89.89,0,0,1-1.42.69l-13-7.49A2.26,2.26,0,0,1,237.57,318.18Z"/><path class="cls-11" d="M217.52,306.62l1.78-12.49a.89.89,0,0,1,1.42-.69l13,7.49a2.26,2.26,0,0,1,1,2.1l-1.78,12.49a.89.89,0,0,1-1.42.69l-13-7.49A2.24,2.24,0,0,1,217.52,306.62Z"/><path class="cls-12" d="M197.46,295.05l1.78-12.48a.89.89,0,0,1,1.42-.7l13,7.49a2.24,2.24,0,0,1,1,2.1L212.87,304a.89.89,0,0,1-1.42.69l-13-7.49A2.26,2.26,0,0,1,197.46,295.05Z"/><path class="cls-11" d="M177.41,283.49,179.19,271a.89.89,0,0,1,1.42-.69l13,7.49a2.26,2.26,0,0,1,1,2.1l-1.78,12.49a.89.89,0,0,1-1.42.69l-13-7.49A2.24,2.24,0,0,1,177.41,283.49Z"/><path class="cls-12" d="M157.35,271.92l1.78-12.48a.89.89,0,0,1,1.42-.69l13,7.48a2.24,2.24,0,0,1,1,2.1l-1.78,12.49a.89.89,0,0,1-1.42.69l-13-7.48A2.27,2.27,0,0,1,157.35,271.92Z"/><path class="cls-11" d="M281.17,316.87,283,304.39a.89.89,0,0,1,1.42-.7l13,7.49a2.24,2.24,0,0,1,1,2.1l-1.78,12.49a.89.89,0,0,1-1.42.69l-13-7.49A2.25,2.25,0,0,1,281.17,316.87Z"/><path class="cls-11" d="M261.11,305.31l1.79-12.49a.89.89,0,0,1,1.42-.69l13,7.49a2.26,2.26,0,0,1,1,2.1l-1.78,12.49a.89.89,0,0,1-1.42.69l-13-7.49A2.24,2.24,0,0,1,261.11,305.31Z"/><path class="cls-11" d="M241.06,293.74l1.78-12.48a.89.89,0,0,1,1.42-.69l13,7.48a2.26,2.26,0,0,1,1,2.11l-1.78,12.48a.89.89,0,0,1-1.42.69l-13-7.48A2.26,2.26,0,0,1,241.06,293.74Z"/><path class="cls-13" d="M221,282.18l1.78-12.49a.89.89,0,0,1,1.43-.69l13,7.49a2.24,2.24,0,0,1,1,2.1l-1.78,12.49a.89.89,0,0,1-1.43.69l-13-7.49A2.24,2.24,0,0,1,221,282.18Z"/><path class="cls-11" d="M201,270.62l1.78-12.49a.89.89,0,0,1,1.42-.69l13,7.49a2.25,2.25,0,0,1,1,2.1l-1.78,12.48a.89.89,0,0,1-1.42.7l-13-7.49A2.26,2.26,0,0,1,201,270.62Z"/><path class="cls-11" d="M180.89,259.05l1.78-12.49a.89.89,0,0,1,1.42-.69l13,7.49a2.24,2.24,0,0,1,1,2.1L196.3,268a.89.89,0,0,1-1.42.69l-13-7.49A2.26,2.26,0,0,1,180.89,259.05Z"/><path class="cls-12" d="M160.84,247.49,162.62,235a.89.89,0,0,1,1.42-.69l13,7.49a2.26,2.26,0,0,1,1,2.1l-1.78,12.49a.89.89,0,0,1-1.42.69l-13-7.49A2.24,2.24,0,0,1,160.84,247.49Z"/><path class="cls-11" d="M284.66,292.44,286.44,280a.89.89,0,0,1,1.42-.69l13,7.49a2.26,2.26,0,0,1,1,2.1l-1.78,12.48a.89.89,0,0,1-1.42.7l-13-7.49A2.24,2.24,0,0,1,284.66,292.44Z"/><path class="cls-11" d="M264.6,280.87l1.78-12.49a.89.89,0,0,1,1.42-.69l13,7.49a2.24,2.24,0,0,1,1,2.1L280,289.77a.89.89,0,0,1-1.42.69l-13-7.49A2.26,2.26,0,0,1,264.6,280.87Z"/><path class="cls-11" d="M244.54,269.31l1.79-12.49a.89.89,0,0,1,1.42-.69l13,7.49a2.26,2.26,0,0,1,1,2.1L260,278.21a.89.89,0,0,1-1.42.69l-13-7.49A2.24,2.24,0,0,1,244.54,269.31Z"/><path class="cls-13" d="M224.49,257.74l1.78-12.48a.89.89,0,0,1,1.42-.7l13,7.49a2.24,2.24,0,0,1,1,2.1l-1.78,12.49a.89.89,0,0,1-1.42.69l-13-7.49A2.25,2.25,0,0,1,224.49,257.74Z"/><path class="cls-11" d="M204.43,246.18l1.78-12.49a.89.89,0,0,1,1.43-.69l13,7.49a2.26,2.26,0,0,1,1,2.1l-1.78,12.49a.89.89,0,0,1-1.42.69l-13-7.49A2.24,2.24,0,0,1,204.43,246.18Z"/><path class="cls-13" d="M184.38,234.61l1.78-12.48a.89.89,0,0,1,1.42-.69l13,7.48a2.26,2.26,0,0,1,1,2.11l-1.78,12.48a.89.89,0,0,1-1.42.69l-13-7.48A2.26,2.26,0,0,1,184.38,234.61Z"/><path class="cls-11" d="M164.32,223.05l1.78-12.49a.89.89,0,0,1,1.42-.69l13,7.49a2.24,2.24,0,0,1,1,2.1L179.73,232a.89.89,0,0,1-1.42.69l-13-7.49A2.26,2.26,0,0,1,164.32,223.05Z"/><path class="cls-11" d="M288.14,268l1.78-12.49a.89.89,0,0,1,1.42-.69l13,7.49a2.24,2.24,0,0,1,1,2.1l-1.79,12.49a.89.89,0,0,1-1.42.69l-13-7.49A2.26,2.26,0,0,1,288.14,268Z"/><path class="cls-13" d="M268.09,256.43,269.87,244a.89.89,0,0,1,1.42-.69l13,7.48a2.26,2.26,0,0,1,1,2.11l-1.78,12.48a.89.89,0,0,1-1.42.69l-13-7.48A2.24,2.24,0,0,1,268.09,256.43Z"/><path class="cls-11" d="M248,244.87l1.78-12.49a.89.89,0,0,1,1.42-.69l13,7.49a2.24,2.24,0,0,1,1,2.1l-1.78,12.49a.89.89,0,0,1-1.42.69l-13-7.49A2.26,2.26,0,0,1,248,244.87Z"/><path class="cls-11" d="M228,233.31l1.78-12.49a.89.89,0,0,1,1.42-.69l13,7.49a2.26,2.26,0,0,1,1,2.1l-1.78,12.48a.89.89,0,0,1-1.42.7l-13-7.49A2.24,2.24,0,0,1,228,233.31Z"/><path class="cls-11" d="M207.92,221.74l1.78-12.49a.89.89,0,0,1,1.42-.69l13,7.49a2.24,2.24,0,0,1,1,2.1l-1.78,12.49a.89.89,0,0,1-1.42.69l-13-7.49A2.26,2.26,0,0,1,207.92,221.74Z"/><path class="cls-11" d="M187.86,210.18l1.79-12.49a.89.89,0,0,1,1.42-.69l13,7.49a2.26,2.26,0,0,1,1,2.1l-1.78,12.49a.89.89,0,0,1-1.42.69l-13-7.49A2.24,2.24,0,0,1,187.86,210.18Z"/><path class="cls-11" d="M167.81,198.61l1.78-12.48a.89.89,0,0,1,1.42-.7l13,7.49a2.26,2.26,0,0,1,1,2.1l-1.78,12.49a.89.89,0,0,1-1.42.69l-13-7.49A2.25,2.25,0,0,1,167.81,198.61Z"/><path class="cls-5" d="M291.23,245.93l.44-3.19a.89.89,0,0,1,1.42-.69l13,7.48a2.25,2.25,0,0,1,1,2.11l-.45,3.18a.89.89,0,0,1-1.42.7l-13-7.49A2.26,2.26,0,0,1,291.23,245.93Z"/><path class="cls-5" d="M271.17,234.36l.45-3.19a.89.89,0,0,1,1.42-.69L286,238a2.26,2.26,0,0,1,1,2.1l-.45,3.19a.89.89,0,0,1-1.42.69l-13-7.49A2.26,2.26,0,0,1,271.17,234.36Z"/><path class="cls-5" d="M251.12,222.8l.44-3.19a.89.89,0,0,1,1.42-.69l13,7.49a2.23,2.23,0,0,1,1,2.1l-.44,3.19a.89.89,0,0,1-1.42.69l-13-7.49A2.24,2.24,0,0,1,251.12,222.8Z"/><path class="cls-5" d="M231.06,211.23l.45-3.19a.89.89,0,0,1,1.42-.69l13,7.49a2.26,2.26,0,0,1,1,2.1l-.45,3.19a.89.89,0,0,1-1.42.69l-13-7.49A2.26,2.26,0,0,1,231.06,211.23Z"/><path class="cls-5" d="M211,199.67l.45-3.19a.89.89,0,0,1,1.42-.69l13,7.49a2.24,2.24,0,0,1,1,2.1l-.44,3.19a.89.89,0,0,1-1.42.69l-13-7.49A2.24,2.24,0,0,1,211,199.67Z"/><path class="cls-5" d="M191,188.1l.45-3.18a.89.89,0,0,1,1.42-.7l13,7.49a2.26,2.26,0,0,1,1,2.1l-.45,3.19a.89.89,0,0,1-1.42.69l-13-7.48A2.27,2.27,0,0,1,191,188.1Z"/><path class="cls-5" d="M170.89,176.54l.45-3.19a.89.89,0,0,1,1.42-.69l13,7.49a2.26,2.26,0,0,1,1,2.1l-.44,3.19a.89.89,0,0,1-1.42.69l-13-7.49A2.24,2.24,0,0,1,170.89,176.54Z"/></svg>