<svg id="Objects" xmlns="http://www.w3.org/2000/svg" xmlns:xlink="http://www.w3.org/1999/xlink" width="500" height="500" viewBox="0 0 500 500"><defs><style>.cls-1{isolation:isolate;}.cls-2{fill:#8b8b8b;}.cls-3{fill:#bdbdbd;}.cls-4{fill:#a3a3a3;}.cls-5{fill:url(#linear-gradient);}.cls-6{fill:#212121;}.cls-7{fill:#c3ddff;}.cls-8{fill:url(#linear-gradient-2);}.cls-9{fill:url(#linear-gradient-3);}.cls-10{fill:url(#linear-gradient-4);}.cls-11{fill:url(#linear-gradient-5);}.cls-12{fill:#282828;}.cls-13{fill:#dcdcdc;}.cls-14{fill:#eaf3ff;}.cls-15{fill:#005eff;}.cls-16{fill:#3d3d3d;}</style><linearGradient id="linear-gradient" x1="363.73" y1="196.86" x2="368.27" y2="204.72" gradientUnits="userSpaceOnUse"><stop offset="0" stop-color="#bdbdbd"/><stop offset="1" stop-color="#8b8b8b"/></linearGradient><linearGradient id="linear-gradient-2" x1="269.29" y1="347.03" x2="363.7" y2="347.03" gradientUnits="userSpaceOnUse"><stop offset="0" stop-color="#8c8c8c"/><stop offset="1" stop-color="#a4a4a4"/></linearGradient><linearGradient id="linear-gradient-3" x1="131.07" y1="337.17" x2="260.21" y2="337.17" gradientUnits="userSpaceOnUse"><stop offset="0" stop-color="#bebebe"/><stop offset="1" stop-color="#a4a4a4"/></linearGradient><linearGradient id="linear-gradient-4" x1="221.91" y1="351.8" x2="272.87" y2="263.54" gradientUnits="userSpaceOnUse"><stop offset="0" stop-color="#f3f3f3"/><stop offset="1" stop-color="#dcdcdc"/></linearGradient><linearGradient id="linear-gradient-5" x1="260.2" y1="375.77" x2="269.3" y2="375.77" gradientUnits="userSpaceOnUse"><stop offset="0" stop-color="#a3a3a3"/><stop offset="1" stop-color="#8b8b8b"/></linearGradient></defs><g id="Laptop_Light" data-name="Laptop Light"><g class="cls-1"><path class="cls-2" d="M366.67,205.64l-.3,107.06a3.26,3.26,0,0,1-1.33,2.9c.83-.55,2.87-1.37,3.23-2.4h0a4.33,4.33,0,0,0,.36-1.78l.3-107.08Z"/><path class="cls-3" d="M237.14,123a3.73,3.73,0,0,0-2.55-.58h0a19.8,19.8,0,0,0-2.93,1.57,2.17,2.17,0,0,1,.67-.26h0a3.71,3.71,0,0,1,2.55.58l127.25,73.46,2.25-1.31Z"/><path class="cls-4" d="M362.13,197.79a10,10,0,0,1,4.54,7.85l-.3,107.06c0,2.87-2.06,4-4.58,2.59L234.55,241.82A10,10,0,0,1,230,234l.31-107.07c0-2.89,2-4,4.55-2.59Z"/><path class="cls-5" d="M363.87,199.2a10.66,10.66,0,0,1,2.71,5.33h0a6.89,6.89,0,0,1,.09,1.1l2.26-1.31a6.8,6.8,0,0,0-.09-1.1h0a10.08,10.08,0,0,0-4.46-6.74l-2.25,1.31A7.8,7.8,0,0,1,363.87,199.2Z"/></g><path class="cls-6" d="M361.66,197.92a10,10,0,0,1,4.55,7.85L365.91,312c0,2.86-2.06,4-4.58,2.58L235,241.69a10,10,0,0,1-4.52-7.84l.3-106.26c0-2.89,2.06-4,4.55-2.6Zm2,112.81"/><path class="cls-7" d="M360.94,200.09a6.69,6.69,0,0,1,3,5.22l-.3,105.42c0,1.43-1,2-2.3,1.28L235,239.06a5,5,0,0,1-2.26-3.91L233,128.88c0-1.45,1.05-2,2.29-1.31Z"/><g class="cls-1"><path class="cls-8" d="M363.59,318.19a3.78,3.78,0,0,1-1.74,1.94L269.3,373.91v2.61l92.55-53.78c.29-.19.58-.4.84-.61a2.87,2.87,0,0,0,1-1.56c.08-.25,0-2.73.05-3A2.17,2.17,0,0,1,363.59,318.19Z"/><path class="cls-9" d="M133,300.45a3.24,3.24,0,0,1-1.88-2.63v2.61a3.21,3.21,0,0,0,1.89,2.63L260.2,376.52v-2.61Z"/><path class="cls-10" d="M361.8,314.88c2.51,1.45,2.54,3.8.05,5.25L269.3,373.91a10,10,0,0,1-9.09,0L133,300.45c-2.51-1.45-2.51-3.8,0-5.25l92.55-53.79a10,10,0,0,1,9.05,0Z"/><path class="cls-11" d="M269.3,373.91a10,10,0,0,1-9.09,0v2.61a9.92,9.92,0,0,0,9.09,0Z"/></g><path class="cls-12" d="M262.65,316.43a.35.35,0,0,1,0,.66l-6.2,3.6a1.27,1.27,0,0,1-1.14,0L216.8,298.46c-.32-.19-.31-.48,0-.66l6.2-3.6a1.24,1.24,0,0,1,1.14,0Z"/><path class="cls-12" d="M272.69,322.23c.3.17.29.47,0,.65l-6.2,3.6a1.23,1.23,0,0,1-1.12,0l-8.2-4.73a.36.36,0,0,1,0-.67l6.19-3.6a1.36,1.36,0,0,1,1.15,0Z"/><path class="cls-12" d="M280.74,326.88c.33.19.31.48,0,.66l-6.2,3.6a1.24,1.24,0,0,1-1.14,0l-6.22-3.59c-.32-.19-.31-.48,0-.66l6.2-3.6a1.24,1.24,0,0,1,1.14,0Z"/><path class="cls-12" d="M228.18,259.39c.31.18.33.47,0,.65l-6.2,3.6a1.27,1.27,0,0,1-1.14,0l-6.24-3.6a.35.35,0,0,1,0-.66l6.19-3.6a1.23,1.23,0,0,1,1.12,0Z"/><path class="cls-12" d="M260.47,278c.31.18.31.46,0,.64l-6.2,3.6a1.23,1.23,0,0,1-1.12,0l-6.24-3.6a.35.35,0,0,1,0-.66l6.19-3.6a1.25,1.25,0,0,1,1.13,0Z"/><path class="cls-12" d="M252.39,273.37c.31.18.33.47,0,.65l-6.2,3.6a1.27,1.27,0,0,1-1.14,0l-6.24-3.6a.35.35,0,0,1,0-.66l6.2-3.6a1.23,1.23,0,0,1,1.12,0Z"/><path class="cls-12" d="M329,326.88c.31.18.31.48,0,.67l-6.73,3.91-7.43,4.32a1.3,1.3,0,0,1-1.17,0l-4.07-2.35a.36.36,0,0,1,0-.68l7.44-4.32-1.74-1-.39-.22,7.31-4.25.39.22Z"/><path class="cls-12" d="M315.06,328.12c.3.18.31.46,0,.65l-6.18,3.59a1.2,1.2,0,0,1-1.12,0l-6.23-3.6c-.31-.18-.33-.47,0-.66l6.18-3.59a1.24,1.24,0,0,1,1.14,0Z"/><path class="cls-12" d="M305,340.86c.33.19.31.48,0,.66l-6.2,3.6a1.24,1.24,0,0,1-1.14,0l-6.21-3.59c-.33-.19-.31-.48,0-.66l6.2-3.6a1.24,1.24,0,0,1,1.14,0Z"/><path class="cls-12" d="M296.9,336.21c.31.17.29.47,0,.65l-6.19,3.6a1.23,1.23,0,0,1-1.12,0l-6.24-3.6a.35.35,0,0,1,0-.66l6.2-3.6a1.27,1.27,0,0,1,1.14,0Z"/><path class="cls-12" d="M204.18,282.67c.32.19.31.49,0,.66l-6.2,3.61a1.3,1.3,0,0,1-1.14,0l-6.21-3.59a.35.35,0,0,1,0-.66l6.2-3.61a1.34,1.34,0,0,1,1.14,0Z"/><g class="cls-1"><path class="cls-12" d="M236.24,264c.33.19.33.47,0,.65l-6.19,3.6a1.26,1.26,0,0,1-1.15,0l-6.21-3.59a.35.35,0,0,1,0-.66l6.2-3.6a1.23,1.23,0,0,1,1.12,0Z"/><path class="cls-12" d="M224.08,266.3c.33.19.31.48,0,.66l-6.2,3.6a1.2,1.2,0,0,1-1.12,0l-10.15-5.86c-.3-.18-.32-.47,0-.65l6.2-3.6a1.27,1.27,0,0,1,1.14,0Z"/><path class="cls-12" d="M244.32,268.71c.3.17.33.47,0,.64l-6.2,3.61a1.34,1.34,0,0,1-1.14,0l-6.21-3.59c-.33-.19-.31-.49,0-.66l6.2-3.61a1.23,1.23,0,0,1,1.12,0Z"/><path class="cls-12" d="M232.16,271a.35.35,0,0,1,0,.66l-6.19,3.6a1.23,1.23,0,0,1-1.12,0l-6.24-3.6c-.31-.18-.31-.46,0-.64l6.2-3.6a1.23,1.23,0,0,1,1.12,0Z"/><path class="cls-12" d="M240.24,275.62a.36.36,0,0,1,0,.67l-6.2,3.6a1.29,1.29,0,0,1-1.12,0l-6.23-3.61c-.31-.17-.33-.47,0-.65l6.2-3.6a1.34,1.34,0,0,1,1.14,0Z"/><path class="cls-12" d="M226.26,276.85c.31.18.33.47,0,.66l-6.18,3.59a1.24,1.24,0,0,1-1.14,0l-6.24-3.6c-.31-.18-.31-.46,0-.65l6.17-3.59a1.2,1.2,0,0,1,1.12,0Z"/><path class="cls-12" d="M248.32,280.29c.3.18.28.47,0,.65l-6.2,3.6a1.19,1.19,0,0,1-1.1,0l-6.24-3.6c-.3-.18-.32-.47,0-.65l6.2-3.6a1.27,1.27,0,0,1,1.14,0Z"/><path class="cls-12" d="M234.34,281.52c.31.17.31.46,0,.65l-6.17,3.59a1.28,1.28,0,0,1-1.13,0l-6.23-3.6c-.31-.18-.33-.48,0-.67l6.18-3.59a1.27,1.27,0,0,1,1.14,0Z"/><path class="cls-12" d="M268.53,282.68c.33.19.33.48,0,.65l-6.19,3.61a1.3,1.3,0,0,1-1.14,0L255,283.35c-.33-.19-.31-.49,0-.66l6.19-3.61a1.23,1.23,0,0,1,1.12,0Z"/><path class="cls-12" d="M222.22,283.82c.31.18.33.47,0,.65l-6.2,3.6a1.27,1.27,0,0,1-1.14,0l-6.24-3.6c-.3-.18-.29-.47,0-.65l6.2-3.6a1.19,1.19,0,0,1,1.1,0Z"/><path class="cls-12" d="M256.37,284.94a.35.35,0,0,1,0,.66l-6.2,3.6a1.23,1.23,0,0,1-1.12,0l-6.22-3.59c-.33-.19-.33-.47,0-.65l6.2-3.6a1.24,1.24,0,0,1,1.14,0Z"/><path class="cls-12" d="M242.4,286.17c.32.19.33.47,0,.66l-6.18,3.59a1.21,1.21,0,0,1-1.14,0l-6.21-3.59c-.33-.19-.33-.47,0-.66l6.18-3.59a1.21,1.21,0,0,1,1.14,0Z"/><path class="cls-12" d="M276.61,287.35c.3.18.33.47,0,.65l-6.19,3.6a1.29,1.29,0,0,1-1.15,0l-6.23-3.6a.35.35,0,0,1,0-.66l6.2-3.6a1.23,1.23,0,0,1,1.12,0Z"/><path class="cls-12" d="M212.26,287.34a.35.35,0,0,1,0,.66l-6.2,3.6a1.27,1.27,0,0,1-1.14,0L198.7,288a.35.35,0,0,1,0-.66l6.2-3.6a1.24,1.24,0,0,1,1.14,0Z"/><path class="cls-12" d="M230.3,288.48c.31.18.31.46,0,.64l-6.2,3.6a1.23,1.23,0,0,1-1.12,0l-6.24-3.6a.35.35,0,0,1,0-.66l6.19-3.6a1.23,1.23,0,0,1,1.12,0Z"/><path class="cls-12" d="M264.45,289.6a.36.36,0,0,1,0,.67l-6.2,3.6a1.26,1.26,0,0,1-1.12,0l-6.24-3.6c-.31-.17-.33-.47,0-.65l6.19-3.6a1.34,1.34,0,0,1,1.14,0Z"/><path class="cls-12" d="M250.47,290.83c.31.18.33.47,0,.66l-6.18,3.59a1.24,1.24,0,0,1-1.14,0l-6.24-3.6c-.3-.18-.31-.46,0-.65l6.18-3.59a1.2,1.2,0,0,1,1.12,0Z"/><path class="cls-12" d="M284.69,292a.34.34,0,0,1,0,.64l-6.2,3.6a1.23,1.23,0,0,1-1.12,0l-6.24-3.6a.35.35,0,0,1,0-.66l6.2-3.6a1.23,1.23,0,0,1,1.12,0Z"/><path class="cls-12" d="M238.36,293.13c.33.19.33.48,0,.65l-6.19,3.61a1.32,1.32,0,0,1-1.15,0l-6.21-3.59a.36.36,0,0,1,0-.67l6.2-3.6a1.23,1.23,0,0,1,1.12,0Z"/><path class="cls-12" d="M222.3,293.13a.35.35,0,0,1,0,.65l-6.2,3.61a1.29,1.29,0,0,1-1.12,0l-8.2-4.74a.35.35,0,0,1,0-.66l6.19-3.6a1.29,1.29,0,0,1,1.15,0Z"/><path class="cls-12" d="M272.53,294.27c.31.18.29.47,0,.65l-6.19,3.6a1.19,1.19,0,0,1-1.1,0l-6.24-3.6c-.31-.18-.33-.47,0-.65l6.2-3.6a1.27,1.27,0,0,1,1.14,0Z"/><path class="cls-12" d="M258.55,295.5a.35.35,0,0,1,0,.66l-6.18,3.59a1.27,1.27,0,0,1-1.14,0l-6.24-3.6a.35.35,0,0,1,0-.67l6.17-3.59a1.32,1.32,0,0,1,1.15,0Z"/><path class="cls-12" d="M292.74,296.66c.33.19.33.48,0,.65l-6.2,3.61a1.3,1.3,0,0,1-1.14,0l-6.22-3.59a.36.36,0,0,1,0-.67l6.2-3.6a1.23,1.23,0,0,1,1.12,0Z"/><path class="cls-12" d="M246.44,297.8c.3.18.33.47,0,.65l-6.2,3.6a1.27,1.27,0,0,1-1.14,0l-6.23-3.6c-.31-.18-.29-.47,0-.65l6.2-3.6a1.19,1.19,0,0,1,1.1,0Z"/><path class="cls-12" d="M280.59,298.92c.32.19.31.48,0,.66l-6.2,3.6a1.2,1.2,0,0,1-1.12,0l-6.21-3.59c-.33-.19-.33-.47,0-.65l6.2-3.6a1.24,1.24,0,0,1,1.14,0Z"/><path class="cls-12" d="M300.82,301.33c.31.18.33.47,0,.65l-6.2,3.6a1.27,1.27,0,0,1-1.14,0l-6.24-3.6c-.31-.18-.29-.47,0-.65l6.19-3.6a1.19,1.19,0,0,1,1.1,0Z"/><path class="cls-12" d="M254.52,302.46c.3.18.32.47,0,.65l-6.2,3.6a1.27,1.27,0,0,1-1.14,0l-6.24-3.6a.35.35,0,0,1,0-.66l6.2-3.6a1.23,1.23,0,0,1,1.12,0Z"/><path class="cls-12" d="M288.67,303.58a.35.35,0,0,1,0,.66l-6.2,3.61a1.26,1.26,0,0,1-1.12,0l-6.24-3.6c-.3-.17-.31-.46,0-.63l6.2-3.61a1.29,1.29,0,0,1,1.12,0Z"/><path class="cls-12" d="M274.69,304.81c.31.18.33.47,0,.66l-6.17,3.59a1.26,1.26,0,0,1-1.15,0l-6.21-3.59c-.33-.19-.33-.47,0-.66l6.18-3.59a1.21,1.21,0,0,1,1.14,0Z"/><path class="cls-12" d="M308.9,306c.31.18.31.46,0,.64l-6.19,3.6a1.23,1.23,0,0,1-1.12,0l-6.24-3.6a.35.35,0,0,1,0-.66l6.2-3.6a1.23,1.23,0,0,1,1.12,0Z"/><path class="cls-12" d="M262.57,307.11c.33.19.33.48,0,.65l-6.2,3.6a1.24,1.24,0,0,1-1.14,0L249,307.78a.35.35,0,0,1,0-.67l6.19-3.6a1.28,1.28,0,0,1,1.13,0Z"/><path class="cls-12" d="M296.74,308.25c.31.17.29.47,0,.65l-6.2,3.6a1.19,1.19,0,0,1-1.1,0l-6.24-3.6c-.31-.18-.33-.48,0-.65l6.19-3.6a1.29,1.29,0,0,1,1.15,0Z"/><path class="cls-12" d="M282.77,309.48a.35.35,0,0,1,0,.66l-6.18,3.59a1.27,1.27,0,0,1-1.14,0l-6.24-3.6a.36.36,0,0,1,0-.67l6.18-3.59a1.3,1.3,0,0,1,1.14,0Z"/><path class="cls-12" d="M317,310.64c.32.19.33.48,0,.65l-6.2,3.61a1.3,1.3,0,0,1-1.14,0l-6.21-3.59a.36.36,0,0,1,0-.67l6.2-3.6a1.23,1.23,0,0,1,1.12,0Z"/><path class="cls-12" d="M270.65,311.78c.31.18.33.47,0,.65l-6.19,3.6a1.27,1.27,0,0,1-1.14,0l-6.24-3.6c-.31-.18-.29-.47,0-.65l6.19-3.6a1.19,1.19,0,0,1,1.1,0Z"/><path class="cls-12" d="M304.8,312.9c.33.19.31.48,0,.66l-6.19,3.6a1.2,1.2,0,0,1-1.12,0l-6.22-3.59c-.33-.19-.33-.47,0-.65l6.19-3.6a1.24,1.24,0,0,1,1.14,0Z"/><path class="cls-12" d="M290.84,314.14c.31.18.31.46,0,.65l-6.18,3.59a1.2,1.2,0,0,1-1.12,0l-6.24-3.6c-.3-.18-.33-.47,0-.66l6.18-3.59a1.24,1.24,0,0,1,1.14,0Z"/><path class="cls-12" d="M325,315.31c.3.18.32.47,0,.65l-6.2,3.6a1.27,1.27,0,0,1-1.14,0l-6.24-3.6c-.3-.18-.28-.47,0-.65l6.2-3.6a1.19,1.19,0,0,1,1.1,0Z"/><path class="cls-12" d="M278.73,316.44c.31.18.33.47,0,.65l-6.19,3.6a1.29,1.29,0,0,1-1.15,0l-6.23-3.6a.35.35,0,0,1,0-.66l6.2-3.6a1.23,1.23,0,0,1,1.12,0Z"/><path class="cls-12" d="M342.79,318.87c.33.19.33.48,0,.67l-3.92,2.27a1.21,1.21,0,0,1-1.14,0L222.65,255.37a.35.35,0,0,1,0-.66l3.92-2.28a1.3,1.3,0,0,1,1.14,0Z"/><path class="cls-12" d="M312.88,317.56a.35.35,0,0,1,0,.66l-6.19,3.61a1.28,1.28,0,0,1-1.13,0l-6.23-3.6a.33.33,0,0,1,0-.63l6.2-3.61a1.29,1.29,0,0,1,1.12,0Z"/><path class="cls-12" d="M298.9,318.79c.33.19.33.47,0,.66L292.73,323a1.21,1.21,0,0,1-1.14,0l-6.22-3.59c-.33-.19-.33-.47,0-.66l6.17-3.59a1.21,1.21,0,0,1,1.14,0Z"/><path class="cls-12" d="M286.79,321.09c.32.19.33.48,0,.65l-6.2,3.6a1.24,1.24,0,0,1-1.14,0l-6.22-3.58a.36.36,0,0,1,0-.67l6.2-3.6a1.29,1.29,0,0,1,1.12,0Z"/><path class="cls-12" d="M337,322.23c.33.19.33.47,0,.65l-6.19,3.6a1.27,1.27,0,0,1-1.14,0l-10.15-5.86a.35.35,0,0,1,0-.66l6.19-3.6a1.25,1.25,0,0,1,1.13,0Z"/><path class="cls-12" d="M321,322.23c.3.17.28.47,0,.65l-6.2,3.6a1.19,1.19,0,0,1-1.1,0l-6.24-3.6c-.3-.18-.32-.48,0-.65l6.2-3.6a1.27,1.27,0,0,1,1.14,0Z"/><path class="cls-12" d="M307,323.46c.31.17.33.47,0,.66l-6.17,3.59a1.3,1.3,0,0,1-1.14,0l-6.24-3.61c-.31-.17-.31-.46,0-.64l6.18-3.59a1.23,1.23,0,0,1,1.12,0Z"/><path class="cls-12" d="M294.86,325.76c.33.19.33.47,0,.65l-6.2,3.6a1.24,1.24,0,0,1-1.14,0l-6.22-3.59c-.32-.19-.31-.49,0-.66l6.2-3.6a1.2,1.2,0,0,1,1.12,0Z"/><path class="cls-12" d="M313,336.21c.33.19.33.47,0,.65l-6.2,3.6a1.27,1.27,0,0,1-1.14,0l-16.26-9.39a.35.35,0,0,1,0-.66l6.19-3.6a1.23,1.23,0,0,1,1.12,0Z"/></g><path class="cls-12" d="M266.61,300.15c.33.19.33.47,0,.66l-6.17,3.59a1.21,1.21,0,0,1-1.14,0l-6.22-3.59c-.33-.19-.33-.47,0-.66l6.17-3.59a1.21,1.21,0,0,1,1.14,0Z"/><path class="cls-13" d="M269.64,331.2a.67.67,0,0,1,0,1.26l-37.44,21.76a2.4,2.4,0,0,1-2.17,0l-63-36.35a.67.67,0,0,1,0-1.27l37.44-21.75a2.42,2.42,0,0,1,2.19,0Z"/><path class="cls-12" d="M218.18,272.19c.33.19.33.47,0,.66L212,276.44a1.21,1.21,0,0,1-1.14,0l-12.27-7.09a.35.35,0,0,1,0-.66l6.18-3.59a1.3,1.3,0,0,1,1.14,0Z"/><path class="cls-12" d="M206.09,274.5c.3.18.31.46,0,.64l-6.2,3.6a1.23,1.23,0,0,1-1.12,0l-8.2-4.73a.35.35,0,0,1,0-.66l6.2-3.6a1.23,1.23,0,0,1,1.12,0Z"/><path class="cls-12" d="M214.15,279.15c.32.19.32.48,0,.65l-6.2,3.61a1.3,1.3,0,0,1-1.14,0l-6.22-3.59a.36.36,0,0,1,0-.67l6.2-3.6a1.23,1.23,0,0,1,1.12,0Z"/><path class="cls-12" d="M288.82,331.54a.35.35,0,0,1,0,.66l-6.2,3.61a1.34,1.34,0,0,1-1.14,0l-6.24-3.61c-.31-.17-.29-.47,0-.64l6.19-3.61a1.32,1.32,0,0,1,1.13,0Z"/><path class="cls-12" d="M196.12,278a.35.35,0,0,1,0,.66l-6.19,3.6a1.27,1.27,0,0,1-1.14,0l-6.24-3.6a.35.35,0,0,1,0-.66l6.2-3.6a1.27,1.27,0,0,1,1.14,0Z"/><path class="cls-14" d="M330.59,213.14l-49.51-28.61-14.94-8.63c-1.28-.73-2.32-.14-2.32,1.33l0,45.23a5.09,5.09,0,0,0,2.3,4l15,8.64,49.43,28.6c1.27.74,2.31.14,2.32-1.32l0-45.23A5.1,5.1,0,0,0,330.59,213.14Z"/><path class="cls-15" d="M332.88,252.72l-34.44-19.9-.09,12.23,32.21,18.64c1.27.74,2.31.14,2.32-1.32l0-7Z"/><path class="cls-16" d="M263.82,215.48l0,7a5.09,5.09,0,0,0,2.3,4l32.25,18.6.09-12.23-34.64-20Z"/></g></svg>