<svg xmlns="http://www.w3.org/2000/svg" xmlns:xlink="http://www.w3.org/1999/xlink" width="500" height="500" viewBox="0 0 500 500"><defs><style>.cls-1{isolation:isolate;}.cls-2{fill:url(#linear-gradient);}.cls-3{fill:url(#linear-gradient-2);}.cls-4,.cls-8{mix-blend-mode:multiply;}.cls-4{fill:url(#linear-gradient-3);}.cls-5{fill:url(#linear-gradient-4);}.cls-6{fill:url(#linear-gradient-5);}.cls-7{fill:url(#linear-gradient-6);}.cls-8{fill:url(#linear-gradient-7);}.cls-9{fill:url(#linear-gradient-8);}.cls-10{fill:url(#linear-gradient-9);}.cls-11{fill:#f3f3f3;stroke:#fff;stroke-miterlimit:10;}.cls-12{fill:#1a89ff;}.cls-13{fill:#cacaca;}</style><linearGradient id="linear-gradient" x1="190.43" y1="317.15" x2="193.27" y2="317.15" gradientUnits="userSpaceOnUse"><stop offset="0" stop-color="#f3f3f3"/><stop offset="1" stop-color="#cacaca"/></linearGradient><linearGradient id="linear-gradient-2" x1="184.82" y1="288.8" x2="198.87" y2="288.8" xlink:href="#linear-gradient"/><linearGradient id="linear-gradient-3" x1="191.85" y1="297.91" x2="191.85" y2="261.45" gradientUnits="userSpaceOnUse"><stop offset="0" stop-color="#f3f3f3" stop-opacity="0.1"/><stop offset="1" stop-color="#cacaca"/></linearGradient><linearGradient id="linear-gradient-4" x1="180.46" y1="256.41" x2="203.23" y2="256.41" xlink:href="#linear-gradient"/><linearGradient id="linear-gradient-5" x1="269.31" y1="361.53" x2="272.16" y2="361.53" xlink:href="#linear-gradient"/><linearGradient id="linear-gradient-6" x1="263.71" y1="333.19" x2="277.76" y2="333.19" xlink:href="#linear-gradient"/><linearGradient id="linear-gradient-7" x1="270.73" y1="332.96" x2="270.73" y2="326.06" xlink:href="#linear-gradient-3"/><linearGradient id="linear-gradient-8" x1="259.35" y1="300.8" x2="282.12" y2="300.8" xlink:href="#linear-gradient"/><linearGradient id="linear-gradient-9" x1="125.7" y1="224.63" x2="386.76" y2="224.63" gradientUnits="userSpaceOnUse"><stop offset="0" stop-color="#f3f3f3"/><stop offset="1" stop-color="#bebebe"/></linearGradient></defs><g class="cls-1"><g id="Objects"><path class="cls-2" d="M191.85,359a1.41,1.41,0,0,1-1.42-1.42V276.7a1.42,1.42,0,0,1,2.84,0v80.89A1.42,1.42,0,0,1,191.85,359Z"/><path class="cls-3" d="M198.87,271.61H184.82v30.33a3.49,3.49,0,0,0,2.06,2.87,11,11,0,0,0,9.94,0,3.49,3.49,0,0,0,2.05-2.87h0Z"/><path class="cls-4" d="M184.82,276.6v10.26a18.12,18.12,0,0,0,14.05,0V276.6A18.21,18.21,0,0,0,184.82,276.6Z"/><path class="cls-5" d="M180.46,229.34v47.57c0,1.68,1.11,3.36,3.33,4.65a17.79,17.79,0,0,0,16.11,0c2.22-1.29,3.33-3,3.33-4.65h0V229.34Z"/><path class="cls-6" d="M270.73,403.4a1.43,1.43,0,0,1-1.42-1.42V321.09a1.43,1.43,0,0,1,2.85,0V402A1.43,1.43,0,0,1,270.73,403.4Z"/><path class="cls-7" d="M277.76,316H263.71v30.33h0a3.5,3.5,0,0,0,2.06,2.87,11,11,0,0,0,9.93,0,3.52,3.52,0,0,0,2.06-2.87h0Z"/><path class="cls-8" d="M263.71,321v10.26a18.12,18.12,0,0,0,14.05,0V321A18.12,18.12,0,0,0,263.71,321Z"/><path class="cls-9" d="M282.12,321.3V273.73H259.35V321.3h0c0,1.68,1.11,3.36,3.33,4.65a17.86,17.86,0,0,0,16.11,0C281,324.66,282.12,323,282.12,321.3Z"/><path class="cls-10" d="M386.76,314.83c0-19.68-13.82-43.6-30.86-53.44a30.82,30.82,0,0,0-10.54-3.91c-4.18-22-17.83-45.12-35-59.14-.12-.11-.25-.2-.37-.3-.57-.46-1.13-.9-1.7-1.34l-.62-.46-1.52-1.1-.7-.49-1.54-1-.65-.42c-.73-.46-1.46-.91-2.2-1.33s-1.48-.84-2.22-1.22l-.25-.13c-.66-.34-1.32-.66-2-1l-.48-.23h0a39.78,39.78,0,0,0-13.21-3.6c-2.59-27.73-20-58.81-42.29-76.15h0c-.71-.55-1.42-1.09-2.14-1.61a.1.1,0,0,1,0,0c-.7-.5-1.4-1-2.1-1.47l-.54-.35c-.55-.37-1.11-.75-1.67-1.1-.77-.48-1.54-1-2.31-1.4s-1.51-.84-2.25-1.23l-.72-.37c-.47-.24-.94-.48-1.41-.7l-.61-.3-.53-.23c-.4-.19-.8-.36-1.2-.53l-.7-.3c-.34-.14-.68-.26-1-.39l-.43-.17L222,99l-1.13-.37-1.22-.39L218.52,98c-.4-.11-.81-.22-1.2-.31l-1.1-.24L215,97.17,214,97l-1.15-.15c-.35,0-.7-.08-1-.11l-1.14-.08-1,0H208.5c-.32,0-.65,0-1,0s-.74,0-1.11.07l-.93.08c-.37,0-.73.1-1.1.15l-.88.14c-.37.07-.73.15-1.09.24l-.82.19c-.38.1-.75.21-1.12.33s-.49.14-.74.23c-.4.14-.8.3-1.19.46-.2.07-.4.14-.6.23-.58.25-1.15.52-1.71.82v0l-.45.25-.7.41-28.74,17,9.55,7.54c-.48.21-.94.44-1.4.69l-.06,0v0l-48.74,28,18.91,8.67,17.48-5.39C164,182,181.58,211.09,203,223.46l140.1,100,4.32,29.15,30.27-17.83.07,0,.19-.11h0C383.4,331.39,386.76,324.54,386.76,314.83Z"/><path class="cls-11" d="M325.73,279.16a30.82,30.82,0,0,0-10.54-3.91c-4.91-25.82-22.88-53.24-44.31-65.61-6.44-3.72-12.57-5.71-18.13-6.14-2.92-31.3-24.69-66.87-51.11-82.13-28.42-16.4-51.46-3.1-51.46,29.71,0,1.12,0,2.24.08,3.37-20.78-9.64-37,1.22-37,25.84,0,26.2,18.4,58.07,41.09,71.17l171.4,99c17,9.84,30.86,1.86,30.86-17.82S342.77,289,325.73,279.16Z"/><path class="cls-12" d="M245.08,253l-23-42c-1-1.82-2.77-2.86-3.77-2.22l-23.12,14.88c-1,.63-.19,3,1.3,3.86l10.95,6.44-.06,19.47a4.6,4.6,0,0,0,2,3.6l21.41,12.6c1.09.64,2,.07,2-1.28l.06-19.46,10.94,6.44C245.25,256.16,246.05,254.75,245.08,253Z"/><path class="cls-13" d="M189.69,296.68c0,1.4-1,2-2.19,1.26a4.81,4.81,0,0,1-2.19-3.78c0-1.4,1-2,2.19-1.27A4.85,4.85,0,0,1,189.69,296.68Z"/><path class="cls-13" d="M268.76,341.72c0,1.39-1,2-2.18,1.26a4.85,4.85,0,0,1-2.19-3.79c0-1.4,1-2,2.19-1.26A4.83,4.83,0,0,1,268.76,341.72Z"/></g></g></svg>