<svg id="Objects" xmlns="http://www.w3.org/2000/svg" xmlns:xlink="http://www.w3.org/1999/xlink" width="500" height="500" viewBox="0 0 500 500"><defs><style>.cls-1{fill:url(#linear-gradient);}.cls-2{fill:url(#linear-gradient-2);}.cls-3{fill:url(#linear-gradient-3);}.cls-4{fill:#8b8b8b;}.cls-5{fill:url(#linear-gradient-4);}.cls-6{fill:url(#linear-gradient-5);}.cls-7{fill:url(#linear-gradient-6);}.cls-8{fill:url(#linear-gradient-7);}.cls-9{fill:url(#linear-gradient-8);}.cls-10{fill:#f3f3f3;}.cls-11{fill:url(#linear-gradient-9);}.cls-12{fill:url(#linear-gradient-10);}.cls-13{fill:url(#linear-gradient-11);}.cls-14,.cls-15{fill:none;stroke-width:0.75px;}.cls-14{stroke:#fff;stroke-miterlimit:10;}.cls-15{stroke:#f3f3f3;}</style><linearGradient id="linear-gradient" x1="287.75" y1="272.65" x2="290.5" y2="267.89" gradientUnits="userSpaceOnUse"><stop offset="0" stop-color="#dcdcdc"/><stop offset="1" stop-color="#bebebe"/></linearGradient><linearGradient id="linear-gradient-2" x1="369.13" y1="342.94" x2="374.62" y2="342.94" gradientUnits="userSpaceOnUse"><stop offset="0" stop-color="#8c8c8c"/><stop offset="1" stop-color="#a4a4a4"/></linearGradient><linearGradient id="linear-gradient-3" x1="203.63" y1="296.76" x2="369.14" y2="296.76" gradientUnits="userSpaceOnUse"><stop offset="0" stop-color="#bebebe"/><stop offset="1" stop-color="#a4a4a4"/></linearGradient><linearGradient id="linear-gradient-4" x1="287.77" y1="182.29" x2="290.51" y2="177.53" xlink:href="#linear-gradient"/><linearGradient id="linear-gradient-5" x1="369.14" y1="252.58" x2="374.63" y2="252.58" xlink:href="#linear-gradient-2"/><linearGradient id="linear-gradient-6" x1="203.65" y1="206.4" x2="369.15" y2="206.4" xlink:href="#linear-gradient-3"/><linearGradient id="linear-gradient-7" x1="215.04" y1="320.2" x2="156.79" y2="219.31" gradientUnits="userSpaceOnUse"><stop offset="0" stop-color="#408bfc"/><stop offset="0" stop-color="#3b88fc"/><stop offset="0.02" stop-color="#257afd"/><stop offset="0.04" stop-color="#146ffe"/><stop offset="0.07" stop-color="#0968ff"/><stop offset="0.11" stop-color="#0263ff"/><stop offset="0.21" stop-color="#0062ff"/><stop offset="0.57" stop-color="#6ea6ff"/><stop offset="1" stop-color="#97c1ff"/></linearGradient><linearGradient id="linear-gradient-8" x1="125.37" y1="280.97" x2="207.72" y2="280.97" gradientTransform="translate(162.8 -45.63) rotate(30)" gradientUnits="userSpaceOnUse"><stop offset="0" stop-color="#6ea6ff"/><stop offset="1" stop-color="#408bfc"/></linearGradient><linearGradient id="linear-gradient-9" x1="272" y1="221.31" x2="274.74" y2="216.56" gradientUnits="userSpaceOnUse"><stop offset="0" stop-color="#f3f3f3"/><stop offset="1" stop-color="#dcdcdc"/></linearGradient><linearGradient id="linear-gradient-10" x1="353.37" y1="291.61" x2="358.86" y2="291.61" gradientUnits="userSpaceOnUse"><stop offset="0" stop-color="#a4a4a4"/><stop offset="1" stop-color="#bebebe"/></linearGradient><linearGradient id="linear-gradient-11" x1="187.87" y1="245.17" x2="353.38" y2="245.17" gradientUnits="userSpaceOnUse"><stop offset="0" stop-color="#dcdcdc"/><stop offset="1" stop-color="#bebebe"/></linearGradient></defs><polygon class="cls-1" points="369.14 319.61 374.62 316.46 209.12 220.93 203.64 224.09 369.14 319.61"/><polygon class="cls-2" points="374.61 366.28 374.62 316.46 369.14 319.61 369.13 369.43 374.61 366.28"/><polygon class="cls-3" points="369.13 369.43 203.63 273.9 203.64 224.09 369.14 319.61 369.13 369.43"/><path class="cls-4" d="M233.14,275.09a5.19,5.19,0,0,0,.54.81,4.39,4.39,0,0,0,1.31,1.25,1.55,1.55,0,0,0,1.56.16l11.58-6.56c.88-.49.89-2.12,0-3.63s-2.28-2.33-3.15-1.84l-10,5.64-3.3-6.13c-.82-1.53-2.23-2.43-3.15-2s-1,2-.16,3.54Z"/><path class="cls-4" d="M342.29,327.32l-76.2-44c-1.23-.71-2.23-.13-2.23,1.29a5,5,0,0,0,2.23,3.87l76.2,44c1.23.71,2.23.13,2.23-1.29A4.93,4.93,0,0,0,342.29,327.32Z"/><polygon class="cls-5" points="369.15 229.25 374.63 226.09 209.13 130.57 203.65 133.72 369.15 229.25"/><polygon class="cls-6" points="374.62 275.91 374.63 226.09 369.15 229.25 369.14 279.07 374.62 275.91"/><polygon class="cls-7" points="369.14 279.07 203.65 183.54 203.65 133.72 369.15 229.25 369.14 279.07"/><path class="cls-4" d="M233.15,184.73a6,6,0,0,0,.54.81,4.39,4.39,0,0,0,1.31,1.25,1.59,1.59,0,0,0,1.57.16l11.58-6.56c.87-.5.88-2.12,0-3.63s-2.28-2.34-3.15-1.84l-10,5.64-3.3-6.13c-.83-1.53-2.24-2.43-3.15-2s-1,2-.17,3.55Z"/><path class="cls-4" d="M342.31,237l-76.2-44c-1.23-.71-2.23-.13-2.23,1.29a4.93,4.93,0,0,0,2.23,3.86l76.2,44c1.23.72,2.23.14,2.23-1.28A4.93,4.93,0,0,0,342.31,237Z"/><path class="cls-8" d="M151.88,252.09l43.86,79.25,10.51-6.13c7.22-4.4,11.67-13.53,11.67-26.42,0-26.26-18.43-58.19-41.17-71.31-11.38-6.57-21.68-7.18-29.13-2.87l-10.75,6.28Z"/><ellipse class="cls-9" cx="166.54" cy="280.97" rx="33.62" ry="58.22" transform="translate(-118.17 120.91) rotate(-30)"/><path class="cls-10" d="M177.38,280.08c0,6.9-4.85,9.71-10.84,6.25s-10.83-11.85-10.83-18.76,4.85-9.72,10.84-6.26S177.38,273.16,177.38,280.08Z"/><path class="cls-10" d="M175.83,295.27l-18.58-10.72c-2.5-1.45-4.64-.22-4.64,2.68v5.36l27.86,16.08v-5.36A10.46,10.46,0,0,0,175.83,295.27Z"/><polygon class="cls-11" points="353.38 268.28 358.86 265.12 193.36 169.6 187.88 172.75 353.38 268.28"/><polygon class="cls-12" points="358.85 314.94 358.86 265.12 353.38 268.28 353.37 318.09 358.85 314.94"/><polygon class="cls-13" points="353.37 317.85 187.87 222.32 187.88 172.5 353.38 268.03 353.37 317.85"/><path class="cls-4" d="M217.38,223.51a5.32,5.32,0,0,0,.54.8,4.15,4.15,0,0,0,1.31,1.25,1.6,1.6,0,0,0,1.57.17l11.58-6.56c.87-.5.88-2.13,0-3.64s-2.28-2.33-3.15-1.83l-10,5.64-3.3-6.13c-.83-1.53-2.24-2.44-3.15-2s-1,2-.17,3.54Z"/><path class="cls-4" d="M326.54,275.73l-76.2-44c-1.24-.71-2.23-.14-2.23,1.29a4.9,4.9,0,0,0,2.23,3.86l76.19,44c1.24.71,2.24.14,2.24-1.29A4.93,4.93,0,0,0,326.54,275.73Z"/><line class="cls-14" x1="187.88" y1="172.5" x2="353.38" y2="268.03"/><line class="cls-15" x1="203.65" y1="133.72" x2="369.15" y2="229.25"/></svg>