<svg id="Objects" xmlns="http://www.w3.org/2000/svg" xmlns:xlink="http://www.w3.org/1999/xlink" width="500" height="500" viewBox="0 0 500 500"><defs><style>.cls-1{isolation:isolate;}.cls-2{fill:#3d3d3d;}.cls-3{fill:#6f6f6f;}.cls-4{fill:url(#linear-gradient);}.cls-5{fill:url(#linear-gradient-2);}.cls-6{fill:#212121;}.cls-7{fill:#c3ddff;}.cls-8{fill:url(#linear-gradient-3);}.cls-9{fill:url(#linear-gradient-4);}.cls-10{fill:url(#linear-gradient-5);}.cls-11{fill:url(#linear-gradient-6);}.cls-12{fill:#282828;}.cls-13{fill:#eaf3ff;}.cls-14{fill:#005eff;}</style><linearGradient id="linear-gradient" x1="228.72" y1="219.31" x2="365.37" y2="219.31" gradientUnits="userSpaceOnUse"><stop offset="0" stop-color="#6f6f6f"/><stop offset="1" stop-color="#565656"/></linearGradient><linearGradient id="linear-gradient-2" x1="362.43" y1="196.36" x2="366.97" y2="204.22" gradientUnits="userSpaceOnUse"><stop offset="0" stop-color="#6f6f6f"/><stop offset="1" stop-color="#3d3d3d"/></linearGradient><linearGradient id="linear-gradient-3" x1="267.99" y1="346.53" x2="362.4" y2="346.53" gradientUnits="userSpaceOnUse"><stop offset="0" stop-color="#282828"/><stop offset="1" stop-color="#3d3d3d"/></linearGradient><linearGradient id="linear-gradient-4" x1="129.77" y1="336.67" x2="258.91" y2="336.67" gradientUnits="userSpaceOnUse"><stop offset="0" stop-color="#565656"/><stop offset="1" stop-color="#3d3d3d"/></linearGradient><linearGradient id="linear-gradient-5" x1="220.61" y1="351.3" x2="271.57" y2="263.04" gradientUnits="userSpaceOnUse"><stop offset="0" stop-color="#8c8c8c"/><stop offset="1" stop-color="#6f6f6f"/></linearGradient><linearGradient id="linear-gradient-6" x1="258.9" y1="375.27" x2="268" y2="375.27" gradientUnits="userSpaceOnUse"><stop offset="0" stop-color="#3d3d3d"/><stop offset="1" stop-color="#282828"/></linearGradient></defs><g class="cls-1"><path class="cls-2" d="M365.37,205.14l-.3,107.06a3.26,3.26,0,0,1-1.33,2.9c.83-.55,2.86-1.37,3.22-2.4h0a4.18,4.18,0,0,0,.35-1.79l.31-107.07Z"/><path class="cls-3" d="M235.84,122.51a3.79,3.79,0,0,0-2.55-.57h0a19.72,19.72,0,0,0-2.93,1.56,2.44,2.44,0,0,1,.67-.25h0a3.74,3.74,0,0,1,2.56.58l127.24,73.46,2.26-1.31Z"/><path class="cls-4" d="M360.82,197.29a10,10,0,0,1,4.55,7.85l-.3,107.06c0,2.87-2.06,4-4.58,2.59L233.25,241.32a10,10,0,0,1-4.53-7.83L229,126.42c0-2.89,2-4,4.55-2.59Z"/><path class="cls-5" d="M362.57,198.7a10.75,10.75,0,0,1,2.71,5.33h0a6.89,6.89,0,0,1,.09,1.1l2.26-1.31a6.71,6.71,0,0,0-.09-1.1h0a10.15,10.15,0,0,0-4.46-6.74l-2.26,1.31A7.63,7.63,0,0,1,362.57,198.7Z"/></g><path class="cls-6" d="M360.36,197.42a10,10,0,0,1,4.55,7.85l-.3,106.27c0,2.86-2.06,4-4.58,2.58L233.71,241.19a10,10,0,0,1-4.53-7.84l.3-106.27c0-2.89,2.06-4,4.56-2.59Z"/><path class="cls-7" d="M359.64,199.59a6.68,6.68,0,0,1,3,5.21l-.3,105.43c0,1.43-1,2-2.3,1.28L233.72,238.58a5.08,5.08,0,0,1-2.29-4l.3-106.23c0-1.45,1.05-2,2.3-1.31Z"/><g class="cls-1"><path class="cls-8" d="M362.29,317.69a3.79,3.79,0,0,1-1.75,1.94L268,373.41V376l92.55-53.78c.29-.19.58-.4.84-.61a2.93,2.93,0,0,0,1-1.56c.08-.25,0-2.73,0-3A2.17,2.17,0,0,1,362.29,317.69Z"/><path class="cls-9" d="M131.66,300a3.22,3.22,0,0,1-1.88-2.64v2.62a3.19,3.19,0,0,0,1.88,2.63L258.9,376v-2.61Z"/><path class="cls-10" d="M360.49,314.38c2.52,1.45,2.55,3.8.05,5.25L268,373.41a10,10,0,0,1-9.09,0L131.66,300c-2.51-1.45-2.51-3.8,0-5.26l92.55-53.78a10,10,0,0,1,9.05,0Z"/><path class="cls-11" d="M268,373.41a10,10,0,0,1-9.09,0V376a9.92,9.92,0,0,0,9.09,0Z"/></g><path class="cls-12" d="M261.34,315.93a.35.35,0,0,1,0,.66l-6.2,3.6a1.27,1.27,0,0,1-1.14,0L215.5,298c-.33-.19-.31-.49,0-.66l6.19-3.6a1.26,1.26,0,0,1,1.15,0Z"/><path class="cls-12" d="M271.38,321.73c.31.17.29.47,0,.65l-6.2,3.6a1.26,1.26,0,0,1-1.12,0l-8.2-4.74a.35.35,0,0,1,0-.66L262,317a1.27,1.27,0,0,1,1.14,0Z"/><path class="cls-12" d="M279.44,326.38c.33.19.31.48,0,.66l-6.2,3.6a1.24,1.24,0,0,1-1.14,0l-6.22-3.59c-.33-.19-.31-.48,0-.66l6.19-3.6a1.26,1.26,0,0,1,1.15,0Z"/><path class="cls-12" d="M226.88,258.89c.31.18.33.47,0,.65l-6.19,3.6a1.29,1.29,0,0,1-1.15,0l-6.23-3.6a.35.35,0,0,1,0-.66l6.2-3.6a1.23,1.23,0,0,1,1.12,0Z"/><path class="cls-12" d="M259.17,277.53c.31.18.31.46,0,.64l-6.19,3.6a1.23,1.23,0,0,1-1.12,0l-6.24-3.6a.35.35,0,0,1,0-.66l6.19-3.6a1.23,1.23,0,0,1,1.12,0Z"/><path class="cls-12" d="M251.09,272.87c.31.18.33.47,0,.65l-6.2,3.6a1.27,1.27,0,0,1-1.14,0l-6.24-3.6a.35.35,0,0,1,0-.66l6.19-3.6a1.25,1.25,0,0,1,1.13,0Z"/><path class="cls-12" d="M327.71,326.38c.31.18.31.48,0,.67L321,331l-7.44,4.32a1.28,1.28,0,0,1-1.16,0l-4.07-2.35c-.32-.19-.33-.49,0-.68l7.43-4.32-1.73-1-.39-.22,7.31-4.25.39.22Z"/><path class="cls-12" d="M313.76,327.62c.3.18.3.46,0,.65l-6.18,3.59a1.2,1.2,0,0,1-1.12,0l-6.24-3.6a.35.35,0,0,1,0-.66l6.18-3.59a1.24,1.24,0,0,1,1.14,0Z"/><path class="cls-12" d="M303.66,340.36a.35.35,0,0,1,0,.66l-6.2,3.6a1.24,1.24,0,0,1-1.14,0L290.1,341a.35.35,0,0,1,0-.66l6.2-3.6a1.24,1.24,0,0,1,1.14,0Z"/><path class="cls-12" d="M295.6,335.71c.31.17.29.47,0,.65l-6.2,3.6a1.26,1.26,0,0,1-1.12,0l-6.23-3.6a.35.35,0,0,1,0-.66l6.2-3.6a1.27,1.27,0,0,1,1.14,0Z"/><path class="cls-12" d="M202.88,282.17a.35.35,0,0,1,0,.66l-6.2,3.61a1.3,1.3,0,0,1-1.14,0l-6.22-3.59a.36.36,0,0,1,0-.67l6.2-3.6a1.34,1.34,0,0,1,1.14,0Z"/><path class="cls-12" d="M234.94,263.54c.32.19.33.47,0,.65l-6.2,3.6a1.24,1.24,0,0,1-1.14,0l-6.21-3.59a.35.35,0,0,1,0-.66l6.2-3.6a1.23,1.23,0,0,1,1.12,0Z"/><path class="cls-12" d="M222.78,265.8c.33.18.31.48,0,.66l-6.19,3.6a1.2,1.2,0,0,1-1.12,0l-10.15-5.86c-.3-.18-.33-.47,0-.65l6.19-3.6a1.29,1.29,0,0,1,1.15,0Z"/><path class="cls-12" d="M243,268.2c.31.18.33.48,0,.65l-6.2,3.61a1.34,1.34,0,0,1-1.14,0l-6.22-3.59a.36.36,0,0,1,0-.67l6.2-3.6a1.23,1.23,0,0,1,1.12,0Z"/><path class="cls-12" d="M230.86,270.46a.35.35,0,0,1,0,.66l-6.2,3.6a1.23,1.23,0,0,1-1.12,0l-6.23-3.6c-.31-.18-.31-.46,0-.64l6.2-3.6a1.23,1.23,0,0,1,1.12,0Z"/><path class="cls-12" d="M238.94,275.12a.35.35,0,0,1,0,.66l-6.2,3.61a1.26,1.26,0,0,1-1.12,0l-6.24-3.6a.35.35,0,0,1,0-.65l6.2-3.6a1.34,1.34,0,0,1,1.14,0Z"/><path class="cls-12" d="M225,276.35c.31.18.33.47,0,.66l-6.17,3.59a1.26,1.26,0,0,1-1.15,0l-6.23-3.6c-.31-.18-.31-.46,0-.65l6.18-3.59a1.2,1.2,0,0,1,1.12,0Z"/><path class="cls-12" d="M247,279.79c.31.17.29.47,0,.65l-6.2,3.6a1.19,1.19,0,0,1-1.1,0l-6.24-3.6c-.3-.18-.33-.48,0-.65l6.2-3.6a1.27,1.27,0,0,1,1.14,0Z"/><path class="cls-12" d="M233,281c.3.17.31.46,0,.64l-6.18,3.59a1.23,1.23,0,0,1-1.12,0l-6.23-3.61a.35.35,0,0,1,0-.66l6.18-3.59a1.3,1.3,0,0,1,1.14,0Z"/><path class="cls-12" d="M267.23,282.18c.33.19.33.48,0,.65l-6.19,3.6a1.26,1.26,0,0,1-1.15,0l-6.21-3.58a.36.36,0,0,1,0-.67l6.2-3.6a1.26,1.26,0,0,1,1.12,0Z"/><path class="cls-12" d="M220.92,283.32c.31.18.33.47,0,.65l-6.2,3.6a1.27,1.27,0,0,1-1.14,0l-6.24-3.6c-.31-.18-.29-.47,0-.65l6.19-3.6a1.19,1.19,0,0,1,1.1,0Z"/><path class="cls-12" d="M255.07,284.44a.35.35,0,0,1,0,.66l-6.2,3.6a1.23,1.23,0,0,1-1.12,0l-6.22-3.59c-.33-.19-.33-.47,0-.65l6.19-3.6a1.24,1.24,0,0,1,1.14,0Z"/><path class="cls-12" d="M241.09,285.67c.33.19.33.47,0,.66l-6.18,3.59a1.21,1.21,0,0,1-1.14,0l-6.22-3.59c-.32-.19-.33-.47,0-.66l6.18-3.59a1.21,1.21,0,0,1,1.14,0Z"/><path class="cls-12" d="M275.31,286.85c.3.18.33.47,0,.65l-6.2,3.6a1.27,1.27,0,0,1-1.14,0l-6.24-3.6a.35.35,0,0,1,0-.66l6.2-3.6a1.23,1.23,0,0,1,1.12,0Z"/><path class="cls-12" d="M211,286.84a.35.35,0,0,1,0,.66l-6.2,3.6a1.27,1.27,0,0,1-1.14,0l-6.22-3.59c-.33-.19-.31-.48,0-.66l6.19-3.6a1.26,1.26,0,0,1,1.15,0Z"/><path class="cls-12" d="M229,288c.31.18.31.46,0,.64l-6.19,3.6a1.23,1.23,0,0,1-1.12,0l-6.24-3.6a.35.35,0,0,1,0-.66l6.2-3.6a1.23,1.23,0,0,1,1.12,0Z"/><path class="cls-12" d="M263.15,289.1a.35.35,0,0,1,0,.66L257,293.37a1.26,1.26,0,0,1-1.12,0l-6.24-3.6c-.31-.17-.33-.47,0-.65l6.2-3.6a1.34,1.34,0,0,1,1.14,0Z"/><path class="cls-12" d="M249.17,290.33c.31.18.33.47,0,.66L243,294.58a1.24,1.24,0,0,1-1.14,0l-6.24-3.6c-.31-.18-.31-.46,0-.65l6.17-3.59a1.22,1.22,0,0,1,1.13,0Z"/><path class="cls-12" d="M283.38,291.51c.31.18.31.46,0,.64l-6.2,3.6a1.23,1.23,0,0,1-1.12,0l-6.24-3.6a.35.35,0,0,1,0-.66l6.2-3.6a1.23,1.23,0,0,1,1.12,0Z"/><path class="cls-12" d="M237.06,292.63c.32.19.33.48,0,.65l-6.2,3.6a1.24,1.24,0,0,1-1.14,0l-6.21-3.58a.36.36,0,0,1,0-.67l6.2-3.6a1.26,1.26,0,0,1,1.12,0Z"/><path class="cls-12" d="M221,292.63a.35.35,0,0,1,0,.65l-6.2,3.6a1.26,1.26,0,0,1-1.12,0l-8.2-4.74a.35.35,0,0,1,0-.66l6.19-3.6a1.27,1.27,0,0,1,1.14,0Z"/><path class="cls-12" d="M271.23,293.77c.3.17.29.47,0,.65L265,298a1.25,1.25,0,0,1-1.1,0l-6.23-3.6c-.31-.18-.33-.48,0-.65l6.2-3.6a1.27,1.27,0,0,1,1.14,0Z"/><path class="cls-12" d="M257.25,295c.31.17.33.47,0,.66l-6.17,3.59a1.3,1.3,0,0,1-1.14,0l-6.24-3.61c-.31-.17-.33-.47,0-.66l6.17-3.59a1.3,1.3,0,0,1,1.14,0Z"/><path class="cls-12" d="M291.44,296.16c.33.19.33.48,0,.65l-6.2,3.6a1.24,1.24,0,0,1-1.14,0l-6.22-3.58a.35.35,0,0,1,0-.67l6.19-3.6a1.26,1.26,0,0,1,1.12,0Z"/><path class="cls-12" d="M245.14,297.3a.35.35,0,0,1,0,.65l-6.2,3.6a1.27,1.27,0,0,1-1.14,0l-6.24-3.6a.35.35,0,0,1,0-.65l6.2-3.6a1.19,1.19,0,0,1,1.1,0Z"/><path class="cls-12" d="M279.28,298.42c.33.19.31.48,0,.66l-6.2,3.6a1.2,1.2,0,0,1-1.12,0l-6.22-3.59c-.32-.19-.33-.47,0-.65l6.2-3.6a1.24,1.24,0,0,1,1.14,0Z"/><path class="cls-12" d="M299.52,300.83c.31.17.33.47,0,.65l-6.19,3.6a1.27,1.27,0,0,1-1.14,0l-6.24-3.6a.35.35,0,0,1,0-.65l6.2-3.6a1.19,1.19,0,0,1,1.1,0Z"/><path class="cls-12" d="M253.21,302c.31.18.33.47,0,.65l-6.2,3.6a1.27,1.27,0,0,1-1.14,0l-6.24-3.6a.35.35,0,0,1,0-.66l6.19-3.6a1.25,1.25,0,0,1,1.13,0Z"/><path class="cls-12" d="M287.36,303.08a.35.35,0,0,1,0,.66l-6.2,3.61a1.26,1.26,0,0,1-1.12,0l-6.24-3.6c-.31-.17-.31-.46,0-.64l6.19-3.6a1.28,1.28,0,0,1,1.13,0Z"/><path class="cls-12" d="M273.39,304.31c.3.18.33.47,0,.66l-6.18,3.59a1.24,1.24,0,0,1-1.14,0L259.86,305c-.33-.19-.33-.47,0-.66l6.18-3.59a1.21,1.21,0,0,1,1.14,0Z"/><path class="cls-12" d="M307.6,305.49c.3.18.31.46,0,.64l-6.2,3.6a1.23,1.23,0,0,1-1.12,0l-6.23-3.6a.35.35,0,0,1,0-.66l6.2-3.6a1.23,1.23,0,0,1,1.12,0Z"/><path class="cls-12" d="M261.27,306.61c.33.19.33.48,0,.65l-6.19,3.6a1.24,1.24,0,0,1-1.14,0l-6.22-3.59c-.33-.18-.31-.48,0-.66l6.19-3.6a1.26,1.26,0,0,1,1.12,0Z"/><path class="cls-12" d="M295.44,307.75c.31.17.29.47,0,.65l-6.19,3.6a1.25,1.25,0,0,1-1.1,0l-6.24-3.6c-.31-.18-.33-.48,0-.65l6.19-3.6a1.27,1.27,0,0,1,1.14,0Z"/><path class="cls-12" d="M281.46,309c.31.18.33.48,0,.67l-6.18,3.59a1.3,1.3,0,0,1-1.14,0l-6.24-3.61a.35.35,0,0,1,0-.66l6.18-3.59a1.27,1.27,0,0,1,1.14,0Z"/><path class="cls-12" d="M315.66,310.14c.32.19.32.48,0,.65l-6.2,3.6a1.24,1.24,0,0,1-1.14,0l-6.22-3.59c-.32-.18-.3-.48,0-.66l6.2-3.6a1.26,1.26,0,0,1,1.12,0Z"/><path class="cls-12" d="M269.35,311.28c.31.17.33.47,0,.65l-6.19,3.6a1.29,1.29,0,0,1-1.15,0l-6.23-3.6a.35.35,0,0,1,0-.65l6.2-3.6a1.19,1.19,0,0,1,1.1,0Z"/><path class="cls-12" d="M303.5,312.4c.33.19.31.48,0,.66l-6.19,3.6a1.22,1.22,0,0,1-1.13,0L290,313.06c-.33-.19-.33-.47,0-.65l6.2-3.6a1.24,1.24,0,0,1,1.14,0Z"/><path class="cls-12" d="M289.54,313.64c.31.18.31.46,0,.65l-6.18,3.59a1.2,1.2,0,0,1-1.12,0l-6.24-3.6c-.31-.18-.33-.47,0-.66l6.17-3.59a1.24,1.24,0,0,1,1.14,0Z"/><path class="cls-12" d="M323.73,314.81c.31.17.33.47,0,.65l-6.2,3.6a1.27,1.27,0,0,1-1.14,0l-6.24-3.6c-.31-.18-.29-.48,0-.65l6.2-3.6a1.19,1.19,0,0,1,1.1,0Z"/><path class="cls-12" d="M277.43,315.94c.3.18.33.47,0,.65l-6.2,3.6a1.27,1.27,0,0,1-1.14,0l-6.24-3.6a.35.35,0,0,1,0-.66l6.2-3.6a1.23,1.23,0,0,1,1.12,0Z"/><path class="cls-12" d="M341.49,318.37c.32.19.33.48,0,.66l-3.92,2.28a1.21,1.21,0,0,1-1.14,0L221.35,254.87a.35.35,0,0,1,0-.66l3.92-2.28a1.3,1.3,0,0,1,1.14,0Z"/><path class="cls-12" d="M311.58,317.06a.35.35,0,0,1,0,.66l-6.2,3.61a1.26,1.26,0,0,1-1.12,0l-6.24-3.6a.34.34,0,0,1,0-.64l6.2-3.6a1.26,1.26,0,0,1,1.12,0Z"/><path class="cls-12" d="M297.6,318.29c.33.19.33.47,0,.66l-6.17,3.59a1.21,1.21,0,0,1-1.14,0L284.07,319c-.33-.19-.33-.47,0-.66l6.18-3.59a1.21,1.21,0,0,1,1.14,0Z"/><path class="cls-12" d="M285.48,320.59c.33.19.33.48,0,.65l-6.2,3.6a1.24,1.24,0,0,1-1.14,0L272,321.25a.35.35,0,0,1,0-.66l6.2-3.6a1.26,1.26,0,0,1,1.12,0Z"/><path class="cls-12" d="M335.72,321.73c.32.19.33.47,0,.65l-6.2,3.6a1.27,1.27,0,0,1-1.14,0l-10.14-5.86a.35.35,0,0,1,0-.66l6.19-3.6a1.23,1.23,0,0,1,1.12,0Z"/><path class="cls-12" d="M319.65,321.73c.31.17.29.47,0,.65l-6.2,3.6a1.25,1.25,0,0,1-1.1,0l-6.24-3.6c-.3-.18-.33-.48,0-.65l6.2-3.6a1.27,1.27,0,0,1,1.14,0Z"/><path class="cls-12" d="M305.68,323c.3.18.33.48,0,.67l-6.17,3.59a1.32,1.32,0,0,1-1.15,0l-6.23-3.61c-.31-.17-.31-.46,0-.65l6.18-3.58a1.23,1.23,0,0,1,1.12,0Z"/><path class="cls-12" d="M293.56,325.26c.33.19.33.47,0,.65l-6.2,3.6a1.27,1.27,0,0,1-1.14,0L280,325.92c-.33-.19-.31-.49,0-.66l6.19-3.6a1.22,1.22,0,0,1,1.13,0Z"/><path class="cls-12" d="M311.66,335.71c.33.19.33.47,0,.65l-6.2,3.6a1.27,1.27,0,0,1-1.14,0l-16.26-9.39a.35.35,0,0,1,0-.66l6.2-3.6a1.23,1.23,0,0,1,1.12,0Z"/><path class="cls-12" d="M265.31,299.65c.33.19.33.47,0,.66l-6.17,3.59a1.23,1.23,0,0,1-1.15,0l-6.21-3.59c-.33-.19-.33-.47,0-.66l6.18-3.59a1.21,1.21,0,0,1,1.14,0Z"/><path class="cls-3" d="M268.34,330.7a.67.67,0,0,1,0,1.26l-37.44,21.75a2.37,2.37,0,0,1-2.17,0l-62.95-36.35a.67.67,0,0,1,0-1.27l37.44-21.75a2.36,2.36,0,0,1,2.19,0Z"/><path class="cls-12" d="M216.88,271.69c.33.19.33.47,0,.66l-6.18,3.59a1.21,1.21,0,0,1-1.14,0l-12.27-7.09a.35.35,0,0,1,0-.66l6.18-3.59a1.27,1.27,0,0,1,1.14,0Z"/><path class="cls-12" d="M204.79,274a.34.34,0,0,1,0,.64l-6.2,3.6a1.23,1.23,0,0,1-1.12,0l-8.2-4.73a.35.35,0,0,1,0-.66l6.19-3.6a1.25,1.25,0,0,1,1.13,0Z"/><path class="cls-12" d="M212.84,278.65c.33.19.33.48,0,.65l-6.2,3.6a1.24,1.24,0,0,1-1.14,0l-6.22-3.58a.36.36,0,0,1,0-.67l6.2-3.6a1.26,1.26,0,0,1,1.12,0Z"/><path class="cls-12" d="M287.52,331a.35.35,0,0,1,0,.66l-6.19,3.61a1.34,1.34,0,0,1-1.14,0L274,331.7c-.31-.17-.29-.47,0-.65l6.19-3.6a1.26,1.26,0,0,1,1.12,0Z"/><path class="cls-12" d="M194.82,277.52a.35.35,0,0,1,0,.66l-6.2,3.6a1.27,1.27,0,0,1-1.14,0l-6.23-3.6a.35.35,0,0,1,0-.66l6.2-3.6a1.27,1.27,0,0,1,1.14,0Z"/><path class="cls-13" d="M329.29,212.64,279.78,184l-14.94-8.63c-1.28-.74-2.32-.14-2.32,1.33l0,45.22a5.07,5.07,0,0,0,2.3,4l15,8.64,49.42,28.6c1.28.74,2.32.14,2.33-1.32V216.64A5.07,5.07,0,0,0,329.29,212.64Z"/><path class="cls-14" d="M331.58,252.22l-34.44-19.91-.09,12.24,32.2,18.64c1.28.74,2.32.14,2.33-1.32v-9.65Z"/><path class="cls-2" d="M262.52,215l0,7a5.07,5.07,0,0,0,2.3,4l32.25,18.6.09-12.24-34.64-20Z"/></svg>