<svg id="Objects" xmlns="http://www.w3.org/2000/svg" xmlns:xlink="http://www.w3.org/1999/xlink" width="500" height="500" viewBox="0 0 500 500"><defs><style>.cls-1{fill:url(#linear-gradient);}.cls-2{fill:url(#linear-gradient-2);}.cls-3{fill:url(#linear-gradient-3);}.cls-4{fill:#a4a4a4;}.cls-5{fill:url(#linear-gradient-4);}.cls-6{fill:url(#linear-gradient-5);}.cls-7{fill:url(#linear-gradient-6);}.cls-8{fill:url(#linear-gradient-7);}.cls-9{fill:url(#linear-gradient-8);}.cls-10{fill:url(#linear-gradient-9);}.cls-11{fill:url(#linear-gradient-10);}.cls-12{fill:url(#linear-gradient-11);}.cls-13{fill:url(#linear-gradient-12);}.cls-14{fill:url(#linear-gradient-13);}.cls-15{fill:#ededed;}.cls-16{fill:url(#linear-gradient-14);}.cls-17{fill:url(#linear-gradient-15);}.cls-18{fill:url(#linear-gradient-16);}.cls-19{fill:url(#linear-gradient-17);}.cls-20{fill:url(#linear-gradient-18);}.cls-21{fill:url(#linear-gradient-19);}.cls-22{fill:url(#linear-gradient-20);}.cls-23,.cls-24,.cls-30,.cls-31{fill:none;stroke-miterlimit:10;}.cls-23{stroke:#f3f3f3;}.cls-23,.cls-24{stroke-width:0.23px;}.cls-24{stroke:#fff;}.cls-25{fill:url(#linear-gradient-21);}.cls-26{fill:url(#linear-gradient-22);}.cls-27{fill:#dcdcdc;}.cls-28{fill:url(#linear-gradient-23);}.cls-29{fill:#fff;}.cls-30{stroke:#8c8c8c;}.cls-30,.cls-31{stroke-width:0.36px;}.cls-31{stroke:#dcdcdc;}</style><linearGradient id="linear-gradient" x1="118.01" y1="345.81" x2="136.01" y2="345.81" gradientUnits="userSpaceOnUse"><stop offset="0" stop-color="#a4a4a4"/><stop offset="1" stop-color="#8c8c8c"/></linearGradient><linearGradient id="linear-gradient-2" x1="130.01" y1="328.45" x2="214" y2="328.45" gradientUnits="userSpaceOnUse"><stop offset="0" stop-color="#6f6f6f"/><stop offset="1" stop-color="#8c8c8c"/></linearGradient><linearGradient id="linear-gradient-3" x1="147.98" y1="350.99" x2="184.03" y2="288.56" gradientUnits="userSpaceOnUse"><stop offset="0" stop-color="#bebebe"/><stop offset="1" stop-color="#a4a4a4"/></linearGradient><linearGradient id="linear-gradient-4" x1="166" y1="240.4" x2="173.21" y2="240.4" xlink:href="#linear-gradient-2"/><linearGradient id="linear-gradient-5" x1="158.8" y1="240.4" x2="166" y2="240.4" xlink:href="#linear-gradient"/><linearGradient id="linear-gradient-6" x1="286" y1="439.53" x2="304" y2="439.53" gradientTransform="translate(528.14 -35.71) rotate(60)" xlink:href="#linear-gradient"/><linearGradient id="linear-gradient-7" x1="298" y1="422.21" x2="381.99" y2="422.21" xlink:href="#linear-gradient-2"/><linearGradient id="linear-gradient-8" x1="316" y1="444.72" x2="351.99" y2="382.37" xlink:href="#linear-gradient-3"/><linearGradient id="linear-gradient-9" x1="333.99" y1="334.36" x2="341.2" y2="334.36" xlink:href="#linear-gradient-2"/><linearGradient id="linear-gradient-10" x1="326.79" y1="334.36" x2="333.99" y2="334.36" xlink:href="#linear-gradient"/><linearGradient id="linear-gradient-11" x1="317.64" y1="255.75" x2="450.35" y2="255.75" gradientUnits="userSpaceOnUse"><stop offset="0" stop-color="#282828"/><stop offset="1" stop-color="#3d3d3d"/></linearGradient><linearGradient id="linear-gradient-12" x1="49.65" y1="216.7" x2="317.64" y2="216.7" gradientUnits="userSpaceOnUse"><stop offset="0" stop-color="#565656"/><stop offset="1" stop-color="#3d3d3d"/></linearGradient><linearGradient id="linear-gradient-13" x1="216.82" y1="232.39" x2="283.18" y2="117.46" gradientUnits="userSpaceOnUse"><stop offset="0" stop-color="#6f6f6f"/><stop offset="1" stop-color="#565656"/></linearGradient><linearGradient id="linear-gradient-14" x1="261.69" y1="160.43" x2="266.59" y2="151.94" gradientUnits="userSpaceOnUse"><stop offset="0" stop-color="#dcdcdc"/><stop offset="1" stop-color="#a4a4a4"/></linearGradient><linearGradient id="linear-gradient-15" x1="275.8" y1="169" x2="292.24" y2="169" gradientUnits="userSpaceOnUse"><stop offset="0" stop-color="#a4a4a4"/><stop offset="1" stop-color="#6f6f6f"/></linearGradient><linearGradient id="linear-gradient-16" x1="235.76" y1="162.06" x2="275.81" y2="162.06" gradientUnits="userSpaceOnUse"><stop offset="0" stop-color="#dcdcdc"/><stop offset="1" stop-color="#bebebe"/></linearGradient><linearGradient id="linear-gradient-17" x1="219.41" y1="114.73" x2="300.52" y2="114.73" xlink:href="#linear-gradient-16"/><linearGradient id="linear-gradient-18" x1="261.25" y1="79.38" x2="264.02" y2="74.59" gradientUnits="userSpaceOnUse"><stop offset="0" stop-color="#f3f3f3"/><stop offset="1" stop-color="#dcdcdc"/></linearGradient><linearGradient id="linear-gradient-19" x1="300.52" y1="136.53" x2="305.86" y2="136.53" gradientUnits="userSpaceOnUse"><stop offset="0" stop-color="#a4a4a4"/><stop offset="1" stop-color="#bebebe"/></linearGradient><linearGradient id="linear-gradient-20" x1="298.2" y1="134.72" x2="228.46" y2="98.1" gradientUnits="userSpaceOnUse"><stop offset="0" stop-color="#3d3d3d"/><stop offset="1" stop-color="#171717"/></linearGradient><linearGradient id="linear-gradient-21" x1="237.79" y1="184.42" x2="255.59" y2="184.42" gradientUnits="userSpaceOnUse"><stop offset="0" stop-color="#8c8c8c"/><stop offset="1" stop-color="#a4a4a4"/></linearGradient><linearGradient id="linear-gradient-22" x1="189.39" y1="176.63" x2="234.4" y2="176.63" xlink:href="#linear-gradient-3"/><linearGradient id="linear-gradient-23" x1="234.39" y1="190.11" x2="237.79" y2="190.11" gradientUnits="userSpaceOnUse"><stop offset="0" stop-color="#a3a3a3"/><stop offset="1" stop-color="#8b8b8b"/></linearGradient></defs><polygon class="cls-1" points="130.01 354.49 118.01 347.54 124.01 337.13 136.01 344.07 130.01 354.49"/><polygon class="cls-2" points="136.01 344.07 130.01 354.49 214 305.88 208 302.41 136.01 344.07"/><polygon class="cls-3" points="196 295.47 208 302.41 136.01 344.07 124.01 337.13 196 295.47"/><polygon class="cls-4" points="173.21 157.01 166 161.17 158.8 157 166 152.83 173.21 157.01"/><polygon class="cls-5" points="173.21 319.63 173.21 157.01 166 161.17 166 323.8 173.21 319.63"/><polygon class="cls-6" points="158.8 157 166 161.17 166 323.8 158.8 319.63 158.8 157"/><rect class="cls-7" x="289" y="432.6" width="12" height="13.86" transform="translate(-233.14 475.24) rotate(-60)"/><polygon class="cls-8" points="304 437.79 298 448.19 381.99 399.69 375.99 396.23 304 437.79"/><polygon class="cls-9" points="363.99 389.3 375.99 396.23 304 437.79 292 430.87 363.99 389.3"/><polygon class="cls-4" points="341.2 251.15 334 255.31 326.79 251.15 334 246.99 341.2 251.15"/><polygon class="cls-10" points="341.2 413.41 341.2 251.15 334 255.31 334 417.57 341.2 413.41"/><polygon class="cls-11" points="326.79 251.15 334 255.31 334 417.57 326.79 413.41 326.79 251.15"/><polygon class="cls-12" points="450.35 220.91 450.35 213.98 317.64 290.6 317.64 297.53 450.35 220.91"/><polygon class="cls-13" points="49.65 135.87 317.64 290.6 317.64 297.53 49.65 142.81 49.65 135.87"/><polygon class="cls-14" points="450.35 213.98 317.64 290.6 49.65 135.87 182.36 59.25 450.35 213.98"/><polygon class="cls-15" points="275.8 172.81 235.76 149.5 252.19 140.38 292.23 163.38 275.8 172.81"/><polygon class="cls-16" points="275.8 172.81 235.76 149.5 252.19 140.38 292.23 163.38 275.8 172.81"/><polygon class="cls-17" points="275.8 172.81 275.81 174.62 292.24 165.5 292.23 163.38 275.8 172.81"/><polygon class="cls-18" points="235.76 149.5 235.77 151.3 275.81 174.62 275.8 172.81 235.76 149.5"/><polygon class="cls-19" points="300.52 174.27 219.41 127.4 219.41 55.19 300.52 102.06 300.52 174.27"/><polygon class="cls-20" points="300.52 102.06 219.41 55.19 224.75 51.92 305.87 98.78 300.52 102.06"/><polygon class="cls-21" points="305.87 171 300.52 174.27 300.52 102.06 305.87 98.78 305.87 171"/><polygon class="cls-22" points="294.75 164.84 225.17 124.64 225.17 64.44 294.75 104.7 294.75 164.84"/><line class="cls-23" x1="225.17" y1="124.64" x2="294.75" y2="164.84"/><line class="cls-24" x1="219.41" y1="55.19" x2="300.52" y2="102.06"/><line class="cls-23" x1="235.76" y1="149.5" x2="275.8" y2="172.81"/><path class="cls-25" d="M255.55,178.69v0a.94.94,0,0,1-.12.22.05.05,0,0,1,0,0,1.8,1.8,0,0,1-.19.21l-.17.12a.83.83,0,0,1-.15.11l-17.1,10v1l17.1-10,0,0,.12-.09.17-.12v0a1.06,1.06,0,0,0,.15-.15l0,0a.05.05,0,0,1,0,0l.05-.07.06-.13v-.05l0-.09a.57.57,0,0,0,0-.13v-1A1,1,0,0,1,255.55,178.69Z"/><path class="cls-26" d="M190.1,163.85a1.63,1.63,0,0,1-.53-.46.91.91,0,0,1-.18-.52v1a1.17,1.17,0,0,0,.71,1l44.29,25.58v-1Z"/><path class="cls-27" d="M254.87,177.46c.94.54,1,1.42,0,2l-17.1,10a3.69,3.69,0,0,1-3.39,0l-44.3-25.57a1,1,0,0,1,0-2l17.11-10a3.73,3.73,0,0,1,3.38,0Z"/><path class="cls-28" d="M237.79,189.42a2.24,2.24,0,0,1-.47.21l-.18.06-.24.06-.3.05h-.06l-.41,0h-.06l-.4,0h-.06l-.39-.07h-.07l-.33-.1-.06,0a2,2,0,0,1-.36-.18v1l.35.17h0l.06,0,.21.07.12,0,.07,0h.06l.24.05h.23l.24,0h.61l.21,0,.09,0a2.1,2.1,0,0,0,.24-.06l.12,0,.06,0a3.35,3.35,0,0,0,.47-.21Z"/><path class="cls-29" d="M221.87,177.46a.13.13,0,0,1,0,.25l-2.34,1.36a.47.47,0,0,1-.43,0l-14.57-8.41c-.12-.07-.11-.18,0-.25l2.35-1.36a.5.5,0,0,1,.43,0Z"/><path class="cls-29" d="M225.67,179.65c.12.07.11.18,0,.25l-2.34,1.36a.48.48,0,0,1-.42,0l-3.1-1.79c-.12-.07-.12-.19,0-.25l2.35-1.37a.54.54,0,0,1,.43,0Z"/><path class="cls-29" d="M228.72,181.41c.12.08.12.19,0,.25L226.38,183a.52.52,0,0,1-.44,0l-2.35-1.36c-.12-.07-.11-.18,0-.25l2.35-1.36a.44.44,0,0,1,.43,0Z"/><path class="cls-29" d="M208.84,155.89a.13.13,0,0,1,0,.24l-2.35,1.36a.47.47,0,0,1-.43,0l-2.36-1.36a.13.13,0,0,1,0-.25l2.34-1.36a.5.5,0,0,1,.43,0Z"/><path class="cls-29" d="M221.05,162.94c.12.07.12.17,0,.24l-2.34,1.36a.5.5,0,0,1-.43,0l-2.35-1.37a.13.13,0,0,1,0-.25l2.35-1.36a.45.45,0,0,1,.42,0Z"/><path class="cls-29" d="M218,161.17c.11.07.12.18,0,.25l-2.34,1.36a.47.47,0,0,1-.43,0l-2.36-1.36a.13.13,0,0,1,0-.25l2.34-1.36a.5.5,0,0,1,.43,0Z"/><path class="cls-29" d="M247,181.41a.14.14,0,0,1,0,.26l-2.54,1.48-2.82,1.63a.52.52,0,0,1-.44,0l-1.54-.89a.14.14,0,0,1,0-.26l2.82-1.64-.66-.38-.15-.08,2.77-1.61.15.09Z"/><path class="cls-29" d="M241.7,181.88c.11.07.11.18,0,.25l-2.34,1.36a.45.45,0,0,1-.42,0l-2.36-1.36c-.11-.07-.12-.18,0-.25l2.34-1.36a.47.47,0,0,1,.43,0Z"/><path class="cls-29" d="M237.88,186.7c.12.07.11.18,0,.25l-2.35,1.36a.44.44,0,0,1-.43,0L232.75,187c-.12-.08-.12-.19,0-.25l2.34-1.37a.52.52,0,0,1,.44,0Z"/><path class="cls-29" d="M234.83,184.94c.12.07.11.18,0,.25l-2.34,1.36a.45.45,0,0,1-.42,0l-2.36-1.36a.13.13,0,0,1,0-.25l2.35-1.36a.47.47,0,0,1,.43,0Z"/><path class="cls-29" d="M199.76,164.69c.12.08.11.19,0,.25l-2.34,1.37a.52.52,0,0,1-.44,0L194.63,165a.14.14,0,0,1,0-.25l2.34-1.36a.49.49,0,0,1,.44,0Z"/><path class="cls-29" d="M211.88,157.65c.13.07.13.17,0,.24l-2.34,1.36a.44.44,0,0,1-.43,0l-2.35-1.35c-.12-.07-.12-.19,0-.25l2.34-1.37a.48.48,0,0,1,.42,0Z"/><path class="cls-29" d="M207.29,158.5c.12.07.11.18,0,.25l-2.35,1.36a.45.45,0,0,1-.42,0l-3.84-2.22c-.11-.07-.12-.18,0-.24l2.35-1.37a.54.54,0,0,1,.43,0Z"/><path class="cls-29" d="M214.94,159.41c.12.07.12.18,0,.25L212.61,161a.49.49,0,0,1-.44,0l-2.35-1.36c-.12-.07-.11-.18,0-.25l2.34-1.36a.47.47,0,0,1,.43,0Z"/><path class="cls-29" d="M210.34,160.26c.12.07.12.19,0,.25L208,161.88a.48.48,0,0,1-.42,0l-2.36-1.36c-.12-.07-.12-.18,0-.24l2.34-1.36a.45.45,0,0,1,.42,0Z"/><path class="cls-29" d="M213.4,162a.14.14,0,0,1,0,.25l-2.34,1.36a.5.5,0,0,1-.43,0l-2.36-1.37a.13.13,0,0,1,0-.24l2.35-1.36a.47.47,0,0,1,.43,0Z"/><path class="cls-29" d="M208.11,162.49c.12.07.13.18,0,.25l-2.33,1.36a.49.49,0,0,1-.44,0L203,162.74a.13.13,0,0,1,0-.25l2.34-1.36a.45.45,0,0,1,.42,0Z"/><path class="cls-29" d="M216.45,163.79c.12.07.11.18,0,.25l-2.35,1.36a.43.43,0,0,1-.41,0L211.33,164c-.12-.07-.13-.18,0-.25l2.34-1.36a.47.47,0,0,1,.43,0Z"/><path class="cls-29" d="M211.17,164.26c.11.06.11.17,0,.24l-2.34,1.36a.45.45,0,0,1-.42,0L206,164.5a.13.13,0,0,1,0-.25l2.34-1.36a.5.5,0,0,1,.43,0Z"/><path class="cls-29" d="M224.1,164.7c.12.07.12.18,0,.24l-2.35,1.37a.5.5,0,0,1-.43,0L219,165c-.12-.07-.12-.19,0-.25l2.34-1.36a.47.47,0,0,1,.43,0Z"/><path class="cls-29" d="M206.58,165.13c.12.06.13.18,0,.24l-2.34,1.36a.47.47,0,0,1-.43,0l-2.36-1.36a.13.13,0,0,1,0-.24l2.35-1.37a.49.49,0,0,1,.41,0Z"/><path class="cls-29" d="M219.5,165.55a.13.13,0,0,1,0,.25l-2.34,1.36a.47.47,0,0,1-.43,0l-2.35-1.36c-.12-.07-.12-.18,0-.24l2.35-1.37a.5.5,0,0,1,.43,0Z"/><path class="cls-29" d="M214.21,166c.13.07.13.17,0,.25l-2.34,1.35a.47.47,0,0,1-.43,0l-2.35-1.35c-.13-.08-.13-.18,0-.25l2.34-1.36a.47.47,0,0,1,.43,0Z"/><path class="cls-29" d="M227.15,166.46c.12.07.13.18,0,.25l-2.34,1.36a.47.47,0,0,1-.43,0L222,166.71c-.12-.07-.12-.19,0-.25l2.34-1.36a.47.47,0,0,1,.43,0Z"/><path class="cls-29" d="M202.81,166.46c.12.06.12.18,0,.25l-2.34,1.36a.47.47,0,0,1-.43,0l-2.35-1.36c-.13-.07-.12-.18,0-.25L200,165.1a.47.47,0,0,1,.43,0Z"/><path class="cls-29" d="M209.64,166.89c.12.07.12.17,0,.24l-2.34,1.36a.47.47,0,0,1-.43,0l-2.36-1.36a.14.14,0,0,1,0-.25l2.35-1.37a.48.48,0,0,1,.42,0Z"/><path class="cls-29" d="M222.56,167.32a.14.14,0,0,1,0,.25l-2.35,1.36a.48.48,0,0,1-.42,0l-2.36-1.36c-.12-.07-.12-.18,0-.24l2.35-1.37a.54.54,0,0,1,.43,0Z"/><path class="cls-29" d="M217.27,167.78a.13.13,0,0,1,0,.25l-2.34,1.36a.5.5,0,0,1-.43,0L212.14,168c-.11-.07-.11-.18,0-.25l2.34-1.36a.45.45,0,0,1,.42,0Z"/><path class="cls-29" d="M230.21,168.23c.12.06.12.17,0,.24l-2.34,1.36a.47.47,0,0,1-.43,0l-2.36-1.36a.14.14,0,0,1,0-.25l2.35-1.36a.48.48,0,0,1,.42,0Z"/><path class="cls-29" d="M212.69,168.65c.12.07.12.18,0,.25l-2.35,1.36a.47.47,0,0,1-.43,0l-2.35-1.36a.13.13,0,0,1,0-.25l2.34-1.36a.47.47,0,0,1,.43,0Z"/><path class="cls-29" d="M206.61,168.65c.12.07.11.18,0,.25l-2.35,1.36a.45.45,0,0,1-.42,0l-3.1-1.79c-.12-.07-.12-.18,0-.25l2.35-1.36a.47.47,0,0,1,.43,0Z"/><path class="cls-29" d="M225.61,169.08c.12.07.11.18,0,.24l-2.35,1.37a.51.51,0,0,1-.42,0l-2.35-1.37c-.12-.06-.13-.17,0-.24l2.34-1.36a.47.47,0,0,1,.43,0Z"/><path class="cls-29" d="M220.33,169.54c.11.07.12.18,0,.25L218,171.15a.47.47,0,0,1-.43,0l-2.36-1.36c-.12-.07-.13-.18,0-.25l2.33-1.36a.49.49,0,0,1,.44,0Z"/><path class="cls-29" d="M233.26,170c.12.07.12.17,0,.24l-2.35,1.36a.47.47,0,0,1-.43,0l-2.35-1.35c-.12-.08-.12-.19,0-.25l2.34-1.37a.5.5,0,0,1,.43,0Z"/><path class="cls-29" d="M215.74,170.41c.12.07.13.18,0,.25L213.41,172a.47.47,0,0,1-.43,0l-2.36-1.36c-.12-.07-.11-.18,0-.25l2.35-1.36a.49.49,0,0,1,.41,0Z"/><path class="cls-29" d="M228.66,170.84a.13.13,0,0,1,0,.25l-2.34,1.36a.47.47,0,0,1-.43,0l-2.35-1.36c-.12-.07-.12-.18,0-.25l2.35-1.36a.47.47,0,0,1,.43,0Z"/><path class="cls-29" d="M236.31,171.75c.12.07.13.18,0,.25L234,173.36a.54.54,0,0,1-.43,0L231.19,172c-.12-.07-.11-.18,0-.25l2.35-1.36a.43.43,0,0,1,.41,0Z"/><path class="cls-29" d="M218.8,172.18c.11.07.12.18,0,.24l-2.35,1.37a.54.54,0,0,1-.43,0l-2.36-1.37a.14.14,0,0,1,0-.25l2.34-1.36a.47.47,0,0,1,.43,0Z"/><path class="cls-29" d="M231.71,172.6c.12.07.12.19,0,.25l-2.35,1.36a.45.45,0,0,1-.42,0l-2.36-1.36c-.12-.07-.12-.18,0-.24l2.34-1.36a.47.47,0,0,1,.43,0Z"/><path class="cls-29" d="M226.43,173.07a.13.13,0,0,1,0,.25l-2.34,1.35a.44.44,0,0,1-.43,0l-2.35-1.35a.13.13,0,0,1,0-.25l2.33-1.36a.49.49,0,0,1,.44,0Z"/><path class="cls-29" d="M239.37,173.51c.11.07.11.18,0,.24L237,175.12a.5.5,0,0,1-.43,0l-2.36-1.36a.14.14,0,0,1,0-.25l2.34-1.36a.47.47,0,0,1,.43,0Z"/><path class="cls-29" d="M221.85,173.94c.12.07.12.18,0,.24l-2.34,1.37a.5.5,0,0,1-.43,0l-2.35-1.36c-.13-.07-.12-.18,0-.25l2.34-1.36a.45.45,0,0,1,.42,0Z"/><path class="cls-29" d="M234.77,174.37c.12.06.11.18,0,.24L232.42,176a.45.45,0,0,1-.42,0l-2.36-1.36a.13.13,0,0,1,0-.24L232,173a.54.54,0,0,1,.43,0Z"/><path class="cls-29" d="M229.48,174.83c.12.07.13.18,0,.25l-2.34,1.36a.47.47,0,0,1-.43,0l-2.36-1.36c-.12-.07-.13-.18,0-.25l2.33-1.36a.47.47,0,0,1,.43,0Z"/><path class="cls-29" d="M242.42,175.27c.12.07.12.18,0,.25l-2.35,1.36a.47.47,0,0,1-.43,0l-2.35-1.36c-.13-.07-.12-.18,0-.25l2.34-1.36a.42.42,0,0,1,.42,0Z"/><path class="cls-29" d="M224.9,175.7c.12.07.13.18,0,.25l-2.34,1.36a.49.49,0,0,1-.44,0L219.78,176c-.12-.07-.11-.18,0-.25l2.35-1.36a.43.43,0,0,1,.41,0Z"/><path class="cls-29" d="M237.82,176.13c.12.07.11.18,0,.25l-2.34,1.36a.44.44,0,0,1-.43,0l-2.35-1.35c-.12-.08-.12-.18,0-.25l2.34-1.36a.49.49,0,0,1,.44,0Z"/><path class="cls-29" d="M232.54,176.6c.12.06.12.17,0,.24l-2.33,1.36a.47.47,0,0,1-.43,0l-2.36-1.36c-.11-.07-.12-.18,0-.25l2.34-1.36a.5.5,0,0,1,.43,0Z"/><path class="cls-29" d="M245.47,177c.12.06.13.18,0,.24l-2.34,1.37a.56.56,0,0,1-.44,0l-2.35-1.37a.13.13,0,0,1,0-.24l2.35-1.36a.43.43,0,0,1,.41,0Z"/><path class="cls-29" d="M228,177.47a.13.13,0,0,1,0,.24l-2.35,1.36a.47.47,0,0,1-.43,0l-2.36-1.36a.13.13,0,0,1,0-.25l2.34-1.36a.5.5,0,0,1,.43,0Z"/><path class="cls-29" d="M240.87,177.89a.13.13,0,0,1,0,.25l-2.34,1.36a.45.45,0,0,1-.42,0l-2.36-1.36a.13.13,0,0,1,0-.25l2.34-1.36a.48.48,0,0,1,.42,0Z"/><path class="cls-29" d="M235.59,178.35c.12.08.12.18,0,.25L233.25,180a.47.47,0,0,1-.43,0l-2.35-1.36c-.13-.07-.13-.17,0-.25L232.8,177a.49.49,0,0,1,.44,0Z"/><path class="cls-29" d="M231,179.23c.13.07.13.17,0,.24l-2.34,1.36a.47.47,0,0,1-.43,0l-2.35-1.35c-.12-.07-.12-.19,0-.25l2.35-1.37a.48.48,0,0,1,.42,0Z"/><path class="cls-29" d="M250,179.65c.13.08.13.18,0,.25l-2.34,1.36a.47.47,0,0,1-.43,0l-3.84-2.21c-.12-.07-.12-.19,0-.25l2.34-1.37a.5.5,0,0,1,.43,0Z"/><path class="cls-29" d="M243.93,179.65c.11.07.11.18,0,.25l-2.34,1.36a.45.45,0,0,1-.42,0l-2.36-1.36c-.11-.07-.12-.18,0-.25l2.35-1.36a.54.54,0,0,1,.43,0Z"/><path class="cls-29" d="M238.64,180.12c.12.07.13.18,0,.25l-2.33,1.36a.5.5,0,0,1-.43,0l-2.36-1.37c-.12-.06-.12-.17,0-.24l2.34-1.36a.45.45,0,0,1,.42,0Z"/><path class="cls-29" d="M234.06,181c.12.07.12.18,0,.25l-2.35,1.36a.5.5,0,0,1-.43,0l-2.35-1.36a.13.13,0,0,1,0-.25l2.34-1.36a.47.47,0,0,1,.43,0Z"/><path class="cls-29" d="M240.91,184.94a.13.13,0,0,1,0,.25l-2.34,1.36a.47.47,0,0,1-.43,0L232,183a.13.13,0,0,1,0-.25l2.34-1.36a.47.47,0,0,1,.43,0Z"/><path class="cls-29" d="M223.37,171.3c.13.07.13.18,0,.25L221,172.91a.47.47,0,0,1-.43,0l-2.36-1.36a.13.13,0,0,1,0-.25l2.34-1.35a.42.42,0,0,1,.43,0Z"/><path class="cls-29" d="M205.06,160.73a.13.13,0,0,1,0,.25l-2.34,1.36a.47.47,0,0,1-.43,0l-4.64-2.68c-.12-.07-.13-.18,0-.25l2.33-1.36a.47.47,0,0,1,.43,0Z"/><path class="cls-29" d="M200.48,161.6c.12.07.12.18,0,.24l-2.34,1.37a.5.5,0,0,1-.43,0l-3.1-1.79a.14.14,0,0,1,0-.25l2.34-1.36a.5.5,0,0,1,.43,0Z"/><path class="cls-29" d="M203.53,163.36c.12.07.12.18,0,.25L201.19,165a.47.47,0,0,1-.43,0l-2.35-1.36a.13.13,0,0,1,0-.25l2.34-1.36a.44.44,0,0,1,.43,0Z"/><path class="cls-29" d="M231.77,183.18c.12.07.12.18,0,.25l-2.35,1.36a.47.47,0,0,1-.43,0l-2.36-1.36c-.12-.07-.11-.18,0-.25l2.34-1.36a.45.45,0,0,1,.42,0Z"/><path class="cls-29" d="M196.71,162.93c.12.07.12.19,0,.25l-2.34,1.37a.54.54,0,0,1-.43,0l-2.36-1.37c-.12-.06-.12-.18,0-.25l2.34-1.36a.47.47,0,0,1,.43,0Z"/><path class="cls-29" d="M213.41,155c.13.07.12.19,0,.25l-2.34,1.36a.45.45,0,0,1-.42,0l-3.84-2.21c-.12-.07-.13-.18,0-.25l2.34-1.36a.49.49,0,0,1,.44,0Z"/><path class="cls-29" d="M216.47,156.73a.14.14,0,0,1,0,.25l-2.34,1.36a.47.47,0,0,1-.43,0L211.34,157c-.11-.06-.11-.17,0-.24l2.34-1.36a.5.5,0,0,1,.43,0Z"/><path class="cls-29" d="M219.52,158.49a.13.13,0,0,1,0,.25l-2.34,1.36a.45.45,0,0,1-.42,0l-2.36-1.36c-.12-.07-.13-.18,0-.25l2.34-1.36a.47.47,0,0,1,.43,0Z"/><path class="cls-29" d="M222.58,160.25c.11.07.11.18,0,.25l-2.34,1.36a.45.45,0,0,1-.42,0l-2.36-1.36c-.11-.07-.12-.18,0-.25l2.35-1.36a.54.54,0,0,1,.43,0Z"/><path class="cls-29" d="M225.63,162a.14.14,0,0,1,0,.25l-2.35,1.37a.48.48,0,0,1-.42,0l-2.35-1.36c-.13-.07-.13-.17,0-.24l2.34-1.36a.47.47,0,0,1,.43,0Z"/><path class="cls-29" d="M228.68,163.78a.13.13,0,0,1,0,.25l-2.34,1.36a.48.48,0,0,1-.42,0L223.56,164c-.12-.06-.13-.17,0-.24l2.34-1.36a.47.47,0,0,1,.43,0Z"/><path class="cls-29" d="M231.74,165.54c.11.07.11.18,0,.25l-2.34,1.36a.45.45,0,0,1-.42,0l-2.36-1.36c-.11-.07-.12-.18,0-.25l2.35-1.36a.47.47,0,0,1,.43,0Z"/><path class="cls-29" d="M234.78,167.3c.13.07.12.19,0,.25l-2.35,1.36a.45.45,0,0,1-.42,0l-2.35-1.36c-.13-.07-.13-.18,0-.24l2.34-1.37a.5.5,0,0,1,.43,0Z"/><path class="cls-29" d="M237.84,169.07c.12.06.12.18,0,.25l-2.34,1.36a.47.47,0,0,1-.43,0l-2.36-1.36a.13.13,0,0,1,0-.24l2.35-1.36a.48.48,0,0,1,.42,0Z"/><path class="cls-29" d="M240.9,170.83c.11.07.1.18,0,.25l-2.34,1.36a.51.51,0,0,1-.42,0l-2.36-1.36c-.12-.07-.12-.18,0-.25l2.34-1.36a.49.49,0,0,1,.44,0Z"/><path class="cls-29" d="M243.94,172.59c.13.07.12.18,0,.25l-2.34,1.36a.45.45,0,0,1-.42,0l-2.35-1.36c-.13-.07-.13-.18,0-.25l2.34-1.36a.5.5,0,0,1,.43,0Z"/><path class="cls-29" d="M247,174.35c.11.07.12.19,0,.25L244.66,176a.5.5,0,0,1-.43,0l-2.36-1.36a.13.13,0,0,1,0-.24l2.35-1.36a.45.45,0,0,1,.42,0Z"/><path class="cls-29" d="M250.05,176.12a.13.13,0,0,1,0,.24l-2.35,1.37a.49.49,0,0,1-.41,0l-2.36-1.37c-.12-.06-.13-.18,0-.24l2.34-1.36a.47.47,0,0,1,.43,0Z"/><path class="cls-29" d="M253.1,177.88c.12.07.11.18,0,.25l-2.35,1.36a.49.49,0,0,1-.41,0L248,178.13c-.12-.07-.13-.18,0-.25l2.34-1.36a.49.49,0,0,1,.44,0Z"/><line class="cls-30" x1="317.64" y1="290.6" x2="49.65" y2="135.87"/><line class="cls-31" x1="275.8" y1="172.33" x2="235.88" y2="149.09"/></svg>