<svg id="Objects" xmlns="http://www.w3.org/2000/svg" xmlns:xlink="http://www.w3.org/1999/xlink" width="500" height="500" viewBox="0 0 500 500"><defs><style>.cls-1,.cls-2,.cls-3,.cls-4,.cls-5,.cls-6,.cls-7,.cls-8{fill-rule:evenodd;}.cls-1{fill:url(#linear-gradient);}.cls-2{fill:url(#linear-gradient-2);}.cls-3{fill:url(#linear-gradient-3);}.cls-4{fill:url(#linear-gradient-4);}.cls-5{fill:url(#linear-gradient-5);}.cls-6{fill:url(#linear-gradient-6);}.cls-7{fill:url(#linear-gradient-7);}.cls-8{fill:url(#linear-gradient-8);}</style><linearGradient id="linear-gradient" x1="108.7" y1="242.49" x2="266.08" y2="242.49" gradientUnits="userSpaceOnUse"><stop offset="0" stop-color="#a4a4a4"/><stop offset="1" stop-color="#bebebe"/></linearGradient><linearGradient id="linear-gradient-2" x1="75.78" y1="265.17" x2="108.87" y2="265.17" gradientUnits="userSpaceOnUse"><stop offset="0" stop-color="#dcdcdc"/><stop offset="1" stop-color="#bebebe"/></linearGradient><linearGradient id="linear-gradient-3" x1="324.63" y1="256.42" x2="337.15" y2="256.42" xlink:href="#linear-gradient"/><linearGradient id="linear-gradient-4" x1="269.48" y1="238.91" x2="308.91" y2="170.6" gradientUnits="userSpaceOnUse"><stop offset="0" stop-color="#f3f3f3"/><stop offset="1" stop-color="#dcdcdc"/></linearGradient><linearGradient id="linear-gradient-5" x1="226.39" y1="256.7" x2="326.09" y2="256.7" xlink:href="#linear-gradient-2"/><linearGradient id="linear-gradient-6" x1="118.74" y1="330.99" x2="251.12" y2="284.5" gradientUnits="userSpaceOnUse"><stop offset="0.1" stop-color="#20d5d2"/><stop offset="0.9" stop-color="#408bfc"/></linearGradient><linearGradient id="linear-gradient-7" x1="115.98" y1="260.73" x2="294.13" y2="260.73" xlink:href="#linear-gradient-6"/><linearGradient id="linear-gradient-8" x1="123.47" y1="267.51" x2="202.34" y2="130.92" xlink:href="#linear-gradient-4"/></defs><polygon class="cls-1" points="187.47 213.4 108.87 259.08 108.7 317.27 187.31 271.59 265.92 225.91 266.08 167.72 187.47 213.4"/><path class="cls-2" d="M86.33,240.47a52.53,52.53,0,0,1-4.12-5.87A45.51,45.51,0,0,1,78,225.5a39,39,0,0,1-2-12.42h0l-.16,58.18c0,16.65,10.93,33.31,32.92,46l.17-58.19c-9.62-5.55-17.14-11.87-22.54-18.61"/><path class="cls-3" d="M324.65,300.9h0v-.2h0l.16-58,12.34-30.8V270c.37,10.32-3.66,20.82-12.29,30.72h0l-.18.19"/><path class="cls-4" d="M303.92,167.72c35,20.18,43.15,49.58,20.93,75L225.31,213.4Z"/><polygon class="cls-5" points="326.09 242.27 325.93 300.45 226.38 271.13 226.55 212.94 326.09 242.27"/><path class="cls-6" d="M291.54,260.53l-.92.89c-.61.59-1.22,1.19-1.85,1.77s-1.15,1-1.73,1.51-1,.83-1.45,1.24-1.24,1-1.87,1.46-1,.79-1.52,1.17-1.35.95-2,1.43l-1.56,1.08c-.73.48-1.49.94-2.24,1.41-.52.33-1,.66-1.57,1l-.59.35c-1,.56-1.94,1.12-2.94,1.66l-1.11.6c-.9.48-1.83.95-2.76,1.42l-1,.49c-1.24.6-2.5,1.19-3.79,1.76L262,280c-1.08.47-2.17.93-3.27,1.37l-1.24.49c-1,.4-2,.79-3.06,1.16l-1.08.4c-1.35.48-2.72,1-4.11,1.39q-2.44.79-4.95,1.51l-.28.08c-1.58.45-3.18.87-4.79,1.28l-1.75.41c-1.14.27-2.28.54-3.43.79l-2.1.43c-1.06.21-2.11.43-3.18.63l-1.71.29c-1.64.29-3.29.55-4.95.79l-1.81.27c-2.14.28-4.3.55-6.47.77l-.63,0c-1.7.16-3.4.31-5.11.42-.65.05-1.31.08-2,.12-1.28.07-2.56.14-3.85.19l-2.47.07c-1,0-2,.05-3,.06H194.2l-3,0-2.66-.08-2.72-.1-2.71-.15-2.71-.19-2.72-.23c-.89-.08-1.78-.16-2.67-.26s-1.81-.2-2.71-.31-1.79-.21-2.67-.33L167,291l-2.87-.46c-.87-.14-1.73-.29-2.59-.45s-1.89-.35-2.84-.54l-2.45-.51c-1.12-.24-2.24-.5-3.36-.76-.77-.18-1.54-.36-2.3-.56-1.14-.28-2.28-.59-3.41-.9-1-.26-1.95-.52-2.91-.8-1.27-.38-2.49-.76-3.7-1.14l-1.12-.37-2.43-.81-1.25-.44-2.23-.82-1.17-.44-1.51-.61c-.83-.34-1.66-.68-2.47-1l-1.45-.63c-.79-.35-1.58-.71-2.35-1.08l-1.38-.66c-.83-.41-1.65-.83-2.48-1.26l-1.16-.6c-1.2-.64-2.4-1.3-3.6-2l-.16,58.19c1.2.69,2.4,1.35,3.6,2,.38.21.77.4,1.15.6q1.25.64,2.49,1.26l1.37.65c.78.37,1.57.74,2.36,1.09l1.44.63c.81.35,1.64.69,2.47,1,.32.12.63.26,1,.39l.57.21,1.17.45,2.23.82,1.24.43c.8.28,1.62.55,2.44.82l1.12.37c1.2.38,2.43.76,3.69,1.13l1.36.4L147,345c1.13.31,2.26.61,3.4.9l2.31.56c1.11.26,2.23.52,3.35.76.41.08.8.18,1.21.27l1.25.24,2.84.54,2.58.45c1,.16,1.91.31,2.87.45l1.5.24,1.13.14,2.67.34c.9.11,1.81.22,2.71.31l2.67.26,1.56.15,1.17.08c.9.07,1.8.13,2.71.18l2.71.16,2.72.1,1.56.06h1.1c1,0,2,0,3,0h2.56q1.5,0,3-.06l1.69,0,.78,0c1.28-.05,2.56-.12,3.84-.19l2-.12c1.71-.12,3.41-.26,5.11-.42l.58,0h0c2.18-.22,4.33-.49,6.48-.78l1.8-.26c1.66-.24,3.31-.5,5-.79l1.1-.17c.21,0,.41-.09.62-.12l3.18-.63,2.09-.43c1.16-.25,2.3-.52,3.43-.79l1.75-.41q2.43-.62,4.81-1.29l.27-.07q2.5-.72,4.94-1.51l.19-.05c1.32-.43,2.63-.88,3.93-1.34l1.07-.4c1-.38,2.06-.76,3.07-1.16l1.24-.49c1.1-.44,2.18-.9,3.25-1.37.24-.1.47-.19.7-.3,1.28-.57,2.54-1.15,3.78-1.75l1-.5q1.39-.69,2.76-1.41l1.11-.6c1-.54,2-1.1,2.93-1.66l.6-.35.16-.1c.48-.28.94-.59,1.41-.88.75-.47,1.5-.93,2.23-1.42.53-.35,1-.72,1.56-1.08.68-.47,1.37-.94,2-1.42s1-.78,1.52-1.17,1.26-1,1.87-1.46,1-.83,1.45-1.24,1.17-1,1.74-1.51l.3-.27c.53-.49,1-1,1.54-1.5.31-.3.62-.59.92-.9.9-.91,1.76-1.83,2.59-2.78l.17-58.19c-.83.95-1.7,1.88-2.59,2.79"/><path class="cls-7" d="M294.13,257.74c-27.79,31.8-94.88,44.44-149.85,28.24A124.23,124.23,0,0,1,116,274.1l78.61-45.68Z"/><path class="cls-8" d="M266.08,167.72,187.47,213.4l-78.6,45.68c-43.7-25.23-43.94-66.13-.53-91.36s114-25.23,157.74,0"/></svg>