<svg id="Objects" xmlns="http://www.w3.org/2000/svg" xmlns:xlink="http://www.w3.org/1999/xlink" width="500" height="500" viewBox="0 0 500 500"><defs><style>.cls-1{isolation:isolate;}.cls-2{fill:#282828;}.cls-3{fill:#565656;}.cls-4{fill:#3d3d3d;}.cls-5{fill:url(#linear-gradient);}.cls-6{fill:#6f6f6f;}.cls-7{fill:url(#linear-gradient-2);}.cls-8{fill:url(#linear-gradient-3);}.cls-9{fill:#8c8c8c;}.cls-10{fill:url(#linear-gradient-4);}.cls-11{fill:url(#linear-gradient-5);}.cls-12{fill:url(#linear-gradient-6);}.cls-13{fill:url(#linear-gradient-7);}.cls-14{fill:url(#linear-gradient-8);}.cls-15{fill:url(#linear-gradient-9);}.cls-16{fill:url(#linear-gradient-10);}.cls-17{fill:url(#linear-gradient-11);}.cls-18{fill:url(#linear-gradient-12);}.cls-19{fill:url(#linear-gradient-13);}.cls-20{fill:url(#linear-gradient-14);}</style><linearGradient id="linear-gradient" x1="262.62" y1="327.14" x2="321.04" y2="327.14" gradientUnits="userSpaceOnUse"><stop offset="0" stop-color="#6f6f6f"/><stop offset="1" stop-color="#8c8c8c"/></linearGradient><linearGradient id="linear-gradient-2" x1="264.11" y1="299.18" x2="310.42" y2="299.18" gradientUnits="userSpaceOnUse"><stop offset="0" stop-color="#565656"/><stop offset="1" stop-color="#6f6f6f"/></linearGradient><linearGradient id="linear-gradient-3" x1="258.46" y1="319.45" x2="262.62" y2="319.45" xlink:href="#linear-gradient-2"/><linearGradient id="linear-gradient-4" x1="222.33" y1="293.92" x2="251.58" y2="293.92" gradientUnits="userSpaceOnUse"><stop offset="0" stop-color="#8c8c8c"/><stop offset="1" stop-color="#6f6f6f"/></linearGradient><linearGradient id="linear-gradient-5" x1="248.14" y1="338.67" x2="258.46" y2="338.67" gradientUnits="userSpaceOnUse"><stop offset="0" stop-color="#6f6f6f"/><stop offset="1" stop-color="#565656"/></linearGradient><linearGradient id="linear-gradient-6" x1="239.06" y1="349.49" x2="284.92" y2="270.07" gradientUnits="userSpaceOnUse"><stop offset="0" stop-color="#bebebe"/><stop offset="1" stop-color="#a4a4a4"/></linearGradient><linearGradient id="linear-gradient-7" x1="185.95" y1="320.63" x2="250.76" y2="320.63" xlink:href="#linear-gradient"/><linearGradient id="linear-gradient-8" x1="251.58" y1="307.98" x2="263.25" y2="307.98" gradientUnits="userSpaceOnUse"><stop offset="0" stop-color="#a4a4a4"/><stop offset="0.65" stop-color="#6f6f6f"/><stop offset="0.79" stop-color="#727272"/><stop offset="0.9" stop-color="#7c7c7c"/><stop offset="1" stop-color="#8c8c8c"/></linearGradient><linearGradient id="linear-gradient-9" x1="255.35" y1="304.69" x2="259.47" y2="297.55" xlink:href="#linear-gradient-6"/><linearGradient id="linear-gradient-10" x1="253.22" y1="277.1" x2="261.44" y2="277.1" xlink:href="#linear-gradient-8"/><linearGradient id="linear-gradient-11" x1="233.94" y1="273.42" x2="270.77" y2="209.63" gradientUnits="userSpaceOnUse"><stop offset="0" stop-color="#3d3d3d"/><stop offset="1" stop-color="#565656"/></linearGradient><linearGradient id="linear-gradient-12" x1="212.58" y1="190.18" x2="215.3" y2="185.47" gradientUnits="userSpaceOnUse"><stop offset="0" stop-color="#565656"/><stop offset="1" stop-color="#3d3d3d"/></linearGradient><linearGradient id="linear-gradient-13" x1="177.24" y1="229.11" x2="249.78" y2="229.11" gradientUnits="userSpaceOnUse"><stop offset="0" stop-color="#3d3d3d"/><stop offset="1" stop-color="#282828"/></linearGradient><linearGradient id="linear-gradient-14" x1="245.29" y1="247.15" x2="323.13" y2="247.15" gradientUnits="userSpaceOnUse"><stop offset="0" stop-color="#171717"/><stop offset="1" stop-color="#282828"/></linearGradient></defs><g class="cls-1"><path class="cls-2" d="M311.08,292a11.52,11.52,0,0,0-3.94,8.27c0,2.91,1.78,3.95,4,2.3a11.55,11.55,0,0,0,3.95-8.27C315.05,291.36,313.27,290.32,311.08,292Z"/><path class="cls-3" d="M311.09,293.55a8,8,0,0,0-2.76,5.79c0,2,1.25,2.77,2.78,1.62a8.12,8.12,0,0,0,2.76-5.79C313.86,293.13,312.62,292.4,311.09,293.55Z"/><path class="cls-4" d="M300.32,297a1.7,1.7,0,0,1,0-.22v-.22c0-.07,0-.15,0-.22l0-.23v-.08a.77.77,0,0,1,0-.15l0-.22a1.16,1.16,0,0,0,0-.18v-.05c0-.07,0-.14,0-.21l0-.2,0-.12v-.08c0-.06,0-.11,0-.17a1.21,1.21,0,0,0,.05-.18c0-.05,0-.1,0-.15v0h0a.56.56,0,0,1,0-.12.88.88,0,0,1,.05-.15c0-.05,0-.1,0-.14a.78.78,0,0,0,.05-.14v0h0l0-.1.06-.14.06-.15.06-.16v0h0c0-.06.05-.11.07-.16l.12-.27,0-.06c.1-.21.21-.43.32-.64h0l.14-.25.1-.18.05-.08,0,0,0-.05.09-.15.09-.14.09-.14v0h0l.07-.11.11-.15.11-.15,0-.06,0,0,.06-.07a1.09,1.09,0,0,1,.13-.17c.05-.06.09-.12.14-.17l0,0,0,0,.12-.14c0-.07.11-.12.16-.18l.06-.07,0,0,.07-.07.17-.16.12-.11,0,0,0,0,.17-.15.16-.13,0,0,.13-.09.16-.11.07,0,0,0,.06,0,.15-.09.14-.07h0l.16-.07.16-.07h0l.13-.05.18,0h0l.13,0,.17,0h.45l.08,0,.14,0h.06l.16.07h0l6.82,3-.22-.08-.14,0-.16,0h-.37l-.3.05h0l-.32.09h0a2.63,2.63,0,0,0-.35.15h0a2.27,2.27,0,0,0-.34.19l0,0a3.9,3.9,0,0,0-.36.25l-.39.32,0,0-.36.35,0,0c-.12.12-.24.25-.35.38l0,0-.35.43,0,0-.33.46h0c-.11.16-.21.33-.31.5l0,0c-.1.17-.2.34-.29.52s-.22.42-.32.64l-.22.48h0c-.08.19-.15.38-.22.57h0c-.07.19-.13.38-.19.57h0c-.06.19-.11.38-.16.57v0c-.05.19-.09.38-.13.56v0c0,.19-.07.37-.09.55v0c0,.18,0,.36,0,.54v0a4.87,4.87,0,0,0,0,.54c0,.19,0,.37,0,.54v0a3.4,3.4,0,0,0,.06.46v0a2.34,2.34,0,0,0,.1.4s0,0,0,.06a3.65,3.65,0,0,0,.14.35.54.54,0,0,0,.05.11l.12.21.07.11c0,.06.09.12.14.17l.08.09.17.14a.27.27,0,0,0,.08.07,1.35,1.35,0,0,0,.26.15h0l-6.82-3a1.91,1.91,0,0,1-.27-.16l-.08-.06-.16-.14-.08-.09-.14-.17-.07-.11,0-.06c0-.05-.05-.11-.08-.16a.37.37,0,0,1-.05-.11l0,0a2,2,0,0,1-.1-.26s0,0,0-.05,0,0,0-.06a.56.56,0,0,1,0-.12,1.89,1.89,0,0,1-.05-.23v-.09a.69.69,0,0,1,0-.13.78.78,0,0,1,0-.22s0-.08,0-.12v-.09c0-.07,0-.14,0-.22V297Z"/></g><g class="cls-1"><path class="cls-2" d="M321.74,339.91c-3.51.42-6.35,3.12-6.34,6s2.86,4.94,6.37,4.52,6.34-3.13,6.33-6.05S325.25,339.48,321.74,339.91Z"/><path class="cls-4" d="M313.68,341a2.53,2.53,0,0,1,0-.28,1.49,1.49,0,0,1,0-.21v-.06c0-.09,0-.18,0-.27s0-.14.05-.21V340c0-.08,0-.17.07-.26l.07-.22v0h0c0-.09.07-.18.1-.26l.1-.22v0h0l.14-.28.09-.15a.25.25,0,0,0,0-.07.21.21,0,0,0,0-.06l.2-.3,0-.05.07-.1.13-.17a.69.69,0,0,0,.11-.13l.14-.15.07-.09.12-.11.28-.27s.06-.07.1-.09l.06-.05a6.2,6.2,0,0,1,.77-.58l.13-.09a8.39,8.39,0,0,1,.89-.48l0,0,.19-.08.38-.15.07,0,.4-.13.07,0h0l.42-.1.12,0,.12,0,.15,0,.36-.06H320l.26,0,.33,0h.62l.3,0,.3,0,.26,0h0l.3.06.3.08a1.58,1.58,0,0,1,.31.09h0l.3.11.35.15.15.08.09,0,.14.08c.15.09.3.18.44.28l.07.06.18.15a5,5,0,0,1,.42.37l.18.2a5,5,0,0,1,.32.44l.13.2a4.37,4.37,0,0,1,.33.69l1.73,4.89a4.09,4.09,0,0,0-.33-.7,2.43,2.43,0,0,0-.14-.2,2.67,2.67,0,0,0-.32-.43l-.18-.2a4.86,4.86,0,0,0-.41-.38l-.18-.15a5.59,5.59,0,0,0-.66-.41l-.09-.05a5.16,5.16,0,0,0-.8-.33h0a6.79,6.79,0,0,0-.94-.22h0a7.93,7.93,0,0,0-1-.09h-.05a7.34,7.34,0,0,0-1,.06,5.58,5.58,0,0,0-.59.09l-.12,0-.56.14-.08,0-.47.15-.37.16-.23.09a9.42,9.42,0,0,0-.88.49l-.13.08a7.38,7.38,0,0,0-.77.58l-.16.14-.29.28-.19.19-.13.16-.24.29a.39.39,0,0,1-.08.1l-.27.41,0,.08a3.75,3.75,0,0,0-.24.44v0a3.26,3.26,0,0,0-.2.48v0a4.91,4.91,0,0,0-.15.51v0c0,.17-.06.34-.08.51v0a4.41,4.41,0,0,0,0,.52,3.82,3.82,0,0,0,.06.68s0,.05,0,.08a4.64,4.64,0,0,0,.17.64l-1.73-4.89a.93.93,0,0,0,0-.13c0-.12-.07-.24-.1-.37s0-.09,0-.14a.17.17,0,0,1,0-.07.5.5,0,0,1,0-.12c0-.1,0-.2,0-.3V341Z"/></g><path class="cls-3" d="M321.74,341.49c-2.45.3-4.44,2.19-4.43,4.24s2,3.46,4.45,3.16,4.45-2.19,4.44-4.23S324.2,341.2,321.74,341.49Z"/><g class="cls-1"><path class="cls-2" d="M243.66,361.68c-2.83-1.25-5.14.13-5.15,3.08a9.06,9.06,0,0,0,5.11,7.61c2.83,1.25,5.13-.12,5.14-3.08A9.06,9.06,0,0,0,243.66,361.68Z"/><path class="cls-3" d="M243.66,363.29c-2-.88-3.6.09-3.61,2.15a6.36,6.36,0,0,0,3.57,5.33c2,.87,3.6-.09,3.61-2.16A6.36,6.36,0,0,0,243.66,363.29Z"/><path class="cls-4" d="M242.2,361.26l-.14,0h-.64a1.55,1.55,0,0,0-.31,0l-.13,0-.32.08-.08,0-.36.16-.08,0a2.14,2.14,0,0,0-.32.2h0l5.27-3.85.18-.12.15-.07.07-.05,0,0,.28-.12h0l.09,0,.19-.06.12,0,.13,0,.1,0,.21,0h.69l.09,0c.18,0,.37.06.56.11l.1,0,.09,0a6.34,6.34,0,0,1,.72.26c.26.12.51.26.77.41l.08,0,.06,0a6,6,0,0,1,.66.46l0,0,.17.15a2.75,2.75,0,0,1,.26.22l.05.05.23.21.14.14,0,0c.12.12.23.24.34.37l0,0,.05.07.24.28.06.09.11.13.11.15.13.2.09.12,0,.05.24.39v0l0,.09.16.29,0,.11.09.17.07.15a1.54,1.54,0,0,1,.08.19l.09.19a.36.36,0,0,0,0,.09l.07.22a1.84,1.84,0,0,1,.09.25l0,.07a.75.75,0,0,1,0,.16c0,.13.08.27.11.4l0,.1s0,.09,0,.13.06.31.08.47l0,.2c0,.22,0,.44,0,.66a3.56,3.56,0,0,1-1.31,3l-5.27,3.84a3.56,3.56,0,0,0,1.3-3c0-.22,0-.43,0-.65l0-.21c0-.16,0-.31-.08-.47s0-.15-.05-.23-.07-.27-.11-.4-.05-.15-.07-.23l-.09-.25-.12-.31a1.54,1.54,0,0,0-.08-.19c0-.11-.1-.23-.16-.34a1.3,1.3,0,0,0-.08-.17l-.21-.39a.41.41,0,0,1-.05-.09c-.1-.16-.19-.32-.3-.47l-.08-.12-.25-.35a1.13,1.13,0,0,0-.1-.13c-.09-.13-.2-.25-.3-.37l-.06-.07-.38-.42-.15-.14-.27-.25-.27-.23-.2-.17a6,6,0,0,0-.66-.46l-.15-.09a7.08,7.08,0,0,0-.77-.41,6.93,6.93,0,0,0-.72-.26l-.19-.05C242.56,361.32,242.38,361.29,242.2,361.26Z"/></g><g class="cls-1"><path class="cls-2" d="M221.92,284.8c-3.2-1-5.94.52-6.13,3.48s2.24,6.2,5.43,7.24,5.95-.51,6.14-3.47S225.12,285.84,221.92,284.8Z"/><path class="cls-4" d="M227.34,291.23c0-.14,0-.28-.05-.42s0-.16,0-.23l-.09-.4c0-.08-.05-.15-.07-.23s-.09-.27-.14-.41l-.09-.2a4.9,4.9,0,0,0-.24-.52l0-.08-.12-.22-.18-.3-.08-.11-.25-.37-.11-.13-.25-.32-.12-.13-.3-.32-.09-.09-.41-.38-.1-.09-.34-.27-.16-.11a3.62,3.62,0,0,0-.32-.22l-.17-.11a3.3,3.3,0,0,0-.32-.18,1.55,1.55,0,0,0-.22-.12l-.21-.1-.41-.19a4.84,4.84,0,0,0-.49-.18,7.48,7.48,0,0,0-.84-.22l-.65-.09h-.68l-.25,0-.39.05-.26.06-.38.1-.17.06-.49.22h0a3.76,3.76,0,0,0-.47.3l-.08.06a3.79,3.79,0,0,0-.42.38l3.86-4.14.09-.1.26-.23.07,0,.08-.06.14-.11.32-.2h0c.12-.07.24-.12.36-.18l.13,0,.17-.06.16-.05.21,0,.27-.06.1,0,.29,0,.25,0h.71c.18,0,.37,0,.56.08h.05a7,7,0,0,1,.85.21l.41.15.08,0c.14.05.27.12.41.18l.16.08,0,0,.22.12.25.14.07,0,.17.12.2.12.12.1a.91.91,0,0,1,.16.11l.11.09c.08.05.15.12.23.18l.1.09,0,0,.34.31,0,0,.09.1.2.2.1.11.12.14.09.11.16.2.11.14a.1.1,0,0,0,0,0l.21.32.08.11h0c.06.1.11.2.17.29l.12.22h0a.16.16,0,0,1,0,.07q.14.26.24.51l0,.06,0,.15c.06.14.1.27.15.4a2.17,2.17,0,0,0,.07.24l.09.39c0,.08,0,.16.05.23s0,.29,0,.43a1.5,1.5,0,0,0,0,.2c0,.2,0,.41,0,.61a4,4,0,0,1-1,2.54l-3.86,4.14a4,4,0,0,0,1-2.53c0-.21,0-.41,0-.62A1.36,1.36,0,0,0,227.34,291.23Z"/><path class="cls-3" d="M221.81,286.41c-2.23-.73-4.15.36-4.29,2.43a5.48,5.48,0,0,0,3.81,5.08c2.24.73,4.16-.37,4.29-2.44A5.45,5.45,0,0,0,221.81,286.41Z"/></g><g class="cls-1"><path class="cls-4" d="M179.38,331.51c0-.07,0-.14,0-.22s0-.07,0-.1v-.05a.17.17,0,0,0,0-.07l0-.23a2.08,2.08,0,0,1,0-.23h0a1.55,1.55,0,0,1,0-.21,2,2,0,0,1,.05-.24.29.29,0,0,1,0-.09V330s0-.07,0-.1,0-.16.07-.25a1.21,1.21,0,0,1,0-.18v-.06c0-.08.05-.16.07-.23l.08-.24,0-.05v0l.06-.14a2,2,0,0,1,.08-.22l.08-.18v0l.09-.22.12-.24,0-.05,0,0c0-.06.06-.11.08-.16s.13-.23.19-.34h0c.12-.22.25-.43.39-.64l.05-.07c.06-.1.13-.19.2-.29l.05-.06v0l.19-.26.15-.18,0,0h0l.17-.21.18-.19,0,0,0,0a.86.86,0,0,0,.13-.14l.2-.19.05-.05.05,0a.94.94,0,0,1,.1-.1l.2-.17.09-.08,0,0,.07-.06.2-.15.15-.11,0,0,0,0,.2-.13.19-.12,0,0,.15-.08.19-.1.12-.06h0l0,0,.19-.08.18-.07h.06l.13,0,.19-.05.08,0h.1l.2,0h.66l.27,0h0l.29.08h0a1.58,1.58,0,0,1,.35.16l6.09,3.51-.34-.16-.3-.08h0a2,2,0,0,0-.34,0h-.47l-.37.06h0a3.17,3.17,0,0,0-.41.12h0l-.43.17,0,0a4.78,4.78,0,0,0-.45.23,4.53,4.53,0,0,0-.46.3l0,0c-.14.1-.28.2-.41.31l0,0-.39.34,0,0-.39.39,0,0c-.14.14-.26.29-.39.44h0a5.32,5.32,0,0,0-.36.47l-.05.06-.24.36a6.89,6.89,0,0,0-.4.64,4.82,4.82,0,0,0-.27.5l0,.06c-.09.17-.17.35-.25.53v0c-.08.18-.15.35-.21.53l0,0c-.06.18-.13.36-.18.55v0c0,.17-.1.35-.14.53v.05c0,.18-.08.36-.11.54h0a5,5,0,0,0-.06.54v0c0,.18,0,.36,0,.53a4.12,4.12,0,0,0,0,.51v0c0,.15,0,.3.06.43v.06c0,.13.07.26.1.38l0,.07c0,.11.08.22.12.33l0,0a2.57,2.57,0,0,0,.18.33,3.3,3.3,0,0,0,.32.4l.09.08a2.25,2.25,0,0,0,.39.3l-6.1-3.52a2.63,2.63,0,0,1-.39-.29l-.08-.09a1.76,1.76,0,0,1-.32-.39h0a3.07,3.07,0,0,1-.17-.31h0l0,0-.09-.21a.56.56,0,0,0,0-.12.14.14,0,0,0,0-.06.64.64,0,0,1,0-.07l-.06-.23s0-.06,0-.09v-.05a.29.29,0,0,0,0-.09l0-.22s0-.08,0-.12v-.1c0-.07,0-.14,0-.21v-.23h0Z"/><path class="cls-2" d="M190,327.28a10.15,10.15,0,0,0-4.57,8c0,2.92,2.07,4.1,4.6,2.63a10.16,10.16,0,0,0,4.57-7.95C194.63,327,192.57,325.81,190,327.28Z"/></g><path class="cls-3" d="M190,328.87a7.08,7.08,0,0,0-3.19,5.57c0,2,1.44,2.86,3.21,1.83a7.06,7.06,0,0,0,3.2-5.57C193.26,328.66,191.82,327.84,190,328.87Z"/><polygon class="cls-5" points="321.04 339.3 262.62 322.71 262.62 314.98 319.23 331.63 321.04 333.95 321.04 339.3"/><polygon class="cls-6" points="323.29 331.61 321.43 329.43 319.23 331.63 321.04 333.95 323.29 331.61"/><polygon class="cls-3" points="323.29 331.61 323.29 337.05 321.04 339.3 321.04 333.95 323.29 331.61"/><polygon class="cls-7" points="310.42 285.64 308.85 284.15 264.11 310.11 264.52 312.58 270.07 314.22 310.42 290.82 310.42 285.64"/><polygon class="cls-8" points="262.62 322.71 262.62 314.98 258.46 316.18 258.46 323.92 262.62 322.71"/><polygon class="cls-9" points="250.65 321.52 252.23 322.26 253.95 315.9 250.76 313.92 250.65 321.52"/><polygon class="cls-10" points="222.33 282.84 222.33 276.71 223.26 276.24 251.58 308.39 251.58 309.74 250.03 311.39 247.79 311.6 222.33 282.84"/><polygon class="cls-6" points="248.48 352.43 248.14 355.24 243.81 355.21 244.09 352.4 248.48 352.43"/><polygon class="cls-3" points="243.81 355.21 248.14 355.24 248.14 361.15 243.81 361.13 243.81 355.21"/><polygon class="cls-11" points="258.46 323.92 248.14 361.15 248.14 355.24 248.48 352.43 258.46 316.18 258.46 323.92"/><polygon class="cls-6" points="187.01 317.05 187.89 319.64 185.95 321.5 185.22 318.92 187.01 317.05"/><polygon class="cls-3" points="185.95 321.5 185.95 327.35 185.24 325.14 185.22 318.92 185.95 321.5"/><polygon class="cls-12" points="264.52 312.58 264.11 310.11 308.85 284.15 305.9 282.18 263.25 306.83 255.38 306.45 227.22 274.96 223.26 276.24 251.58 308.39 250.03 311.4 187.01 317.05 187.89 319.64 250.76 313.92 253.95 315.9 244.09 352.4 248.48 352.43 258.46 316.18 262.62 314.98 319.23 331.63 321.43 329.43 264.52 312.58"/><polygon class="cls-13" points="250.76 313.92 187.89 319.64 185.95 321.5 185.95 327.35 250.65 321.52 250.76 313.92"/><path class="cls-14" d="M263.25,301.11H251.58v10.38a3,3,0,0,0,1.77,2.42,9.12,9.12,0,0,0,8.22-.06,2.93,2.93,0,0,0,1.68-2.37Z"/><ellipse class="cls-15" cx="257.41" cy="301.12" rx="5.83" ry="3.37"/><path class="cls-16" d="M261.44,250.72h-8.22V301.1a2.09,2.09,0,0,0,1.25,1.7,6.42,6.42,0,0,0,5.79,0,2.09,2.09,0,0,0,1.18-1.66Z"/><ellipse class="cls-9" cx="257.33" cy="250.73" rx="4.11" ry="2.37"/><polygon class="cls-17" points="249.45 282.38 323.13 239.96 255.29 200.69 181.53 243.17 249.45 282.38"/><polygon class="cls-18" points="250.64 205.87 245.29 208.96 177.24 169.78 182.59 166.69 250.64 205.87"/><polygon class="cls-19" points="245.29 208.96 249.78 288.44 181.85 249.22 177.24 169.78 245.29 208.96"/><polygon class="cls-20" points="323.13 239.96 323.13 246.14 249.78 288.44 245.29 208.96 250.64 205.87 254.77 279.31 323.13 239.96"/></svg>