<svg id="Objects" xmlns="http://www.w3.org/2000/svg" xmlns:xlink="http://www.w3.org/1999/xlink" width="500" height="500" viewBox="0 0 500 500"><defs><style>.cls-1{fill:#a1a1a1;}.cls-2{fill:url(#linear-gradient);}.cls-3{fill:url(#linear-gradient-2);}.cls-4{fill:url(#linear-gradient-3);}.cls-5{fill:url(#linear-gradient-4);}.cls-6{fill:url(#linear-gradient-5);}.cls-7{fill:url(#linear-gradient-6);}.cls-8{fill:url(#linear-gradient-7);}.cls-9{fill:url(#linear-gradient-8);}.cls-10{fill:url(#linear-gradient-9);}.cls-11{fill:#898989;}.cls-12{fill:url(#linear-gradient-10);}.cls-13{fill:#bbb;}.cls-14{fill:url(#linear-gradient-11);}.cls-15{fill:#a4a4a4;}.cls-16{fill:#f3f3f3;}.cls-17{fill:#dcdcdc;}.cls-18{fill:#d9d9d9;}.cls-19{fill:url(#linear-gradient-12);}.cls-20{fill:url(#linear-gradient-13);}.cls-21{fill:#bebebe;}.cls-22{fill:url(#linear-gradient-14);}.cls-23{fill:url(#linear-gradient-15);}</style><linearGradient id="linear-gradient" x1="188.45" y1="264.4" x2="263.99" y2="264.4" gradientUnits="userSpaceOnUse"><stop offset="0" stop-color="#666"/><stop offset="1" stop-color="#333"/></linearGradient><linearGradient id="linear-gradient-2" x1="233.12" y1="318.88" x2="305.15" y2="318.88" gradientUnits="userSpaceOnUse"><stop offset="0" stop-color="#8c8c8c"/><stop offset="0.17" stop-color="#7b7b7b"/><stop offset="0.46" stop-color="#676767"/><stop offset="0.73" stop-color="#5a5a5a"/><stop offset="1" stop-color="#565656"/></linearGradient><linearGradient id="linear-gradient-3" x1="213.36" y1="305.76" x2="249.37" y2="243.37" gradientUnits="userSpaceOnUse"><stop offset="0" stop-color="#f3f3f3"/><stop offset="0.2" stop-color="#b7b7b7"/><stop offset="0.47" stop-color="#6b6b6b"/><stop offset="0.66" stop-color="#3a3a3a"/><stop offset="0.76" stop-color="#282828"/></linearGradient><linearGradient id="linear-gradient-4" x1="164.6" y1="265.99" x2="229.77" y2="265.99" gradientUnits="userSpaceOnUse"><stop offset="0" stop-color="#8c8c8c"/><stop offset="1" stop-color="#282828"/></linearGradient><linearGradient id="linear-gradient-5" x1="229.77" y1="266.91" x2="298.49" y2="266.91" gradientUnits="userSpaceOnUse"><stop offset="0" stop-color="#3d3d3d"/><stop offset="1" stop-color="#171717"/></linearGradient><linearGradient id="linear-gradient-6" x1="224.73" y1="308.57" x2="238" y2="285.59" gradientUnits="userSpaceOnUse"><stop offset="0" stop-color="#f3f3f3"/><stop offset="0.04" stop-color="#e0e0e0"/><stop offset="0.16" stop-color="#b5b5b5"/><stop offset="0.27" stop-color="#909090"/><stop offset="0.39" stop-color="#727272"/><stop offset="0.52" stop-color="#5a5a5a"/><stop offset="0.66" stop-color="#4a4a4a"/><stop offset="0.81" stop-color="#404040"/><stop offset="1" stop-color="#3d3d3d"/></linearGradient><linearGradient id="linear-gradient-7" x1="248.56" y1="247.92" x2="320.59" y2="247.92" gradientUnits="userSpaceOnUse"><stop offset="0" stop-color="#8c8c8c"/><stop offset="0.07" stop-color="#7b7b7b"/><stop offset="0.18" stop-color="#6a6a6a"/><stop offset="0.31" stop-color="#5f5f5f"/><stop offset="0.49" stop-color="#585858"/><stop offset="1" stop-color="#565656"/></linearGradient><linearGradient id="linear-gradient-8" x1="228.79" y1="234.8" x2="264.81" y2="172.41" gradientUnits="userSpaceOnUse"><stop offset="0" stop-color="#f3f3f3"/><stop offset="0.02" stop-color="#eaeaea"/><stop offset="0.17" stop-color="#b0b0b0"/><stop offset="0.31" stop-color="#7f7f7f"/><stop offset="0.44" stop-color="#595959"/><stop offset="0.57" stop-color="#3e3e3e"/><stop offset="0.68" stop-color="#2e2e2e"/><stop offset="0.76" stop-color="#282828"/></linearGradient><linearGradient id="linear-gradient-9" x1="180.04" y1="195.02" x2="245.2" y2="195.02" gradientUnits="userSpaceOnUse"><stop offset="0" stop-color="#8c8c8c"/><stop offset="0.55" stop-color="#494949"/><stop offset="1" stop-color="#171717"/></linearGradient><linearGradient id="linear-gradient-10" x1="240.17" y1="237.61" x2="253.44" y2="214.62" xlink:href="#linear-gradient-6"/><linearGradient id="linear-gradient-11" x1="168.48" y1="243.43" x2="248.98" y2="243.43" gradientUnits="userSpaceOnUse"><stop offset="0" stop-color="#dcdcdc"/><stop offset="1" stop-color="#bebebe"/></linearGradient><linearGradient id="linear-gradient-12" x1="153.04" y1="314.39" x2="233.54" y2="314.39" xlink:href="#linear-gradient-11"/><linearGradient id="linear-gradient-13" x1="266.46" y1="264.39" x2="346.96" y2="264.39" gradientUnits="userSpaceOnUse"><stop offset="0" stop-color="#a4a4a4"/><stop offset="1" stop-color="#bebebe"/></linearGradient><linearGradient id="linear-gradient-14" x1="246.35" y1="214.07" x2="286.6" y2="144.35" gradientUnits="userSpaceOnUse"><stop offset="0" stop-color="#f3f3f3"/><stop offset="1" stop-color="#dcdcdc"/></linearGradient><linearGradient id="linear-gradient-15" x1="185.99" y1="233.34" x2="266.47" y2="233.34" xlink:href="#linear-gradient-11"/></defs><polygon class="cls-1" points="185.99 179.22 266.46 225.68 266.46 349.58 185.99 303.11 185.99 179.22"/><polygon class="cls-2" points="188.45 184.44 263.99 228.05 263.99 344.36 188.45 300.74 188.45 184.44"/><polygon class="cls-3" points="233.12 362.19 305.15 320.6 305.15 275.58 233.12 317.18 233.12 362.19"/><polygon class="cls-4" points="305.15 275.58 229.61 231.97 157.58 273.56 233.12 317.16 305.15 275.58"/><polygon class="cls-5" points="229.77 280.84 229.77 235.82 164.6 273.44 203.23 296.16 229.77 280.84"/><polygon class="cls-6" points="298.49 275.49 259.5 298 229.77 280.84 229.77 235.82 298.49 275.49"/><polygon class="cls-7" points="259.5 298 232.96 313.32 203.23 296.16 229.77 280.84 259.5 298"/><polygon class="cls-8" points="248.56 291.22 320.59 249.63 320.59 204.61 248.56 246.22 248.56 291.22"/><polygon class="cls-9" points="320.59 204.61 245.05 161.01 173.02 202.59 248.56 246.2 320.59 204.61"/><polygon class="cls-10" points="245.21 209.87 245.21 164.85 180.04 202.48 218.67 225.19 245.21 209.87"/><polygon class="cls-11" points="313.93 204.52 274.93 227.03 245.21 209.87 245.21 164.85 313.93 204.52"/><polygon class="cls-12" points="274.93 227.03 248.4 242.35 218.67 225.19 245.21 209.87 274.93 227.03"/><polygon class="cls-13" points="170.53 189.39 191.16 201.3 198.51 212.96 223.06 227.12 230.41 223.95 251.04 235.86 251.04 295.11 170.53 248.64 170.53 189.39"/><polygon class="cls-14" points="168.48 190.57 189.11 202.48 196.46 214.13 221 228.3 228.35 225.13 248.98 237.04 248.98 296.29 168.48 249.82 168.48 190.57"/><polygon class="cls-15" points="251.04 235.85 248.98 237.04 248.98 296.29 251.04 295.1 251.04 235.85"/><polygon class="cls-16" points="198.51 212.96 196.46 214.13 221 228.3 223.06 227.12 198.51 212.96"/><polygon class="cls-16" points="170.53 189.39 168.48 190.57 189.11 202.48 191.16 201.3 170.53 189.39"/><polygon class="cls-16" points="251.04 235.86 230.41 223.95 228.35 225.13 248.98 237.04 251.04 235.86"/><polygon class="cls-17" points="191.16 201.3 189.11 202.48 196.46 214.13 198.51 212.96 191.16 201.3"/><polygon class="cls-18" points="223.06 227.12 230.41 223.95 228.35 225.13 221 228.3 223.06 227.12"/><polygon class="cls-13" points="155.1 260.35 175.73 272.26 183.08 283.92 207.62 298.09 214.97 294.92 235.6 306.82 235.6 366.07 155.1 319.6 155.1 260.35"/><polygon class="cls-19" points="153.04 261.53 173.67 273.44 181.02 285.1 205.56 299.26 212.91 296.09 233.54 308 233.54 367.25 153.04 320.78 153.04 261.53"/><polygon class="cls-15" points="235.6 306.81 233.54 308 233.54 367.25 235.6 366.06 235.6 306.81"/><polygon class="cls-16" points="183.08 283.92 181.02 285.1 205.56 299.26 207.62 298.09 183.08 283.92"/><polygon class="cls-16" points="155.1 260.35 153.04 261.53 173.67 273.44 175.73 272.26 155.1 260.35"/><polygon class="cls-16" points="235.6 306.82 214.97 294.92 212.91 296.09 233.54 308 235.6 306.82"/><polygon class="cls-17" points="175.73 272.26 173.67 273.44 181.02 285.1 183.08 283.92 175.73 272.26"/><polygon class="cls-18" points="207.62 298.09 214.97 294.92 212.91 296.09 205.56 299.26 207.62 298.09"/><polygon class="cls-20" points="346.96 303.1 266.46 349.58 266.46 225.68 346.96 179.2 346.96 303.1"/><polygon class="cls-21" points="263.99 287.21 263.99 344.36 266.46 349.58 266.47 286.28 264.41 287.45 263.99 287.21"/><polygon class="cls-22" points="266.46 132.75 185.99 179.22 266.46 225.68 346.96 179.2 266.46 132.75"/><polygon class="cls-23" points="188.45 184.44 263.99 228.05 263.99 287.21 264.41 287.45 266.47 286.28 266.46 225.68 185.99 179.22 185.99 195.1 188.45 193.68 188.45 184.44"/></svg>