<svg id="Objects" xmlns="http://www.w3.org/2000/svg" xmlns:xlink="http://www.w3.org/1999/xlink" width="500" height="500" viewBox="0 0 500 500"><defs><style>.cls-1{fill:#bebebe;}.cls-2,.cls-3{fill:none;stroke-linecap:round;stroke-linejoin:round;}.cls-2{stroke:#565656;stroke-width:2.72px;}.cls-3{stroke:#3d3d3d;stroke-width:4.08px;}.cls-4{fill:#565656;}.cls-5{fill:#6f6f6f;}.cls-6{fill:#8c8c8c;}.cls-7{fill:url(#linear-gradient);}.cls-8{fill:url(#linear-gradient-2);}.cls-9{fill:url(#linear-gradient-3);}.cls-10{fill:url(#linear-gradient-4);}.cls-11{fill:url(#linear-gradient-5);}.cls-12{fill:url(#linear-gradient-6);}.cls-13{fill:url(#linear-gradient-7);}.cls-14{fill:url(#linear-gradient-8);}.cls-15{fill:url(#linear-gradient-9);}.cls-16{fill:url(#linear-gradient-10);}.cls-17{fill:url(#linear-gradient-11);}.cls-18{fill:url(#linear-gradient-12);}.cls-19{fill:url(#linear-gradient-13);}.cls-20{fill:url(#linear-gradient-14);}.cls-21{fill:url(#linear-gradient-15);}.cls-22{fill:url(#linear-gradient-16);}.cls-23{fill:url(#linear-gradient-17);}.cls-24{fill:url(#linear-gradient-18);}.cls-25{fill:#a4a4a4;}.cls-26{fill:url(#linear-gradient-19);}.cls-27{fill:url(#linear-gradient-20);}.cls-28{fill:url(#linear-gradient-21);}.cls-29{fill:url(#linear-gradient-22);}.cls-30{fill:url(#linear-gradient-23);}.cls-31{fill:url(#linear-gradient-24);}.cls-32{fill:url(#linear-gradient-25);}.cls-33{fill:url(#linear-gradient-26);}.cls-34{fill:url(#linear-gradient-27);}.cls-35{fill:#3d3d3d;}.cls-36{fill:url(#linear-gradient-28);}.cls-37{fill:url(#linear-gradient-29);}.cls-38{fill:url(#linear-gradient-30);}.cls-39{fill:url(#linear-gradient-31);}.cls-40{fill:url(#linear-gradient-32);}.cls-41{fill:url(#linear-gradient-33);}.cls-42{fill:url(#linear-gradient-34);}.cls-43{fill:url(#linear-gradient-35);}.cls-44{fill:url(#linear-gradient-36);}.cls-45{fill:url(#linear-gradient-37);}.cls-46{fill:#282828;}.cls-47{fill:#171717;}.cls-48{fill:url(#linear-gradient-38);}.cls-49{fill:url(#linear-gradient-39);}.cls-50{fill:url(#linear-gradient-40);}.cls-51{fill:url(#linear-gradient-41);}.cls-52{fill:url(#linear-gradient-42);}.cls-53{fill:url(#linear-gradient-43);}.cls-54{fill:url(#linear-gradient-44);}.cls-55{fill:url(#linear-gradient-45);}.cls-56{fill:url(#linear-gradient-46);}.cls-57{fill:url(#linear-gradient-47);}.cls-58{fill:#005eff;}.cls-59{fill:#a0a0a0;}.cls-60{fill:#1a89ff;}</style><linearGradient id="linear-gradient" x1="246.77" y1="265.09" x2="259.22" y2="243.53" gradientUnits="userSpaceOnUse"><stop offset="0" stop-color="#f3f3f3"/><stop offset="1" stop-color="#dcdcdc"/></linearGradient><linearGradient id="linear-gradient-2" x1="228.1" y1="275.83" x2="253" y2="275.83" gradientUnits="userSpaceOnUse"><stop offset="0" stop-color="#dcdcdc"/><stop offset="1" stop-color="#bebebe"/></linearGradient><linearGradient id="linear-gradient-3" x1="253" y1="275.83" x2="277.89" y2="275.83" gradientUnits="userSpaceOnUse"><stop offset="0" stop-color="#a4a4a4"/><stop offset="1" stop-color="#bebebe"/></linearGradient><linearGradient id="linear-gradient-4" x1="286.91" y1="288.22" x2="299.36" y2="266.66" xlink:href="#linear-gradient"/><linearGradient id="linear-gradient-5" x1="268.24" y1="298.96" x2="293.13" y2="298.96" xlink:href="#linear-gradient-2"/><linearGradient id="linear-gradient-6" x1="293.13" y1="298.96" x2="318.03" y2="298.96" xlink:href="#linear-gradient-3"/><linearGradient id="linear-gradient-7" x1="327.29" y1="311.61" x2="339.74" y2="290.05" xlink:href="#linear-gradient"/><linearGradient id="linear-gradient-8" x1="308.62" y1="322.35" x2="333.52" y2="322.35" xlink:href="#linear-gradient-2"/><linearGradient id="linear-gradient-9" x1="333.52" y1="322.35" x2="358.41" y2="322.35" xlink:href="#linear-gradient-3"/><linearGradient id="linear-gradient-10" x1="246.77" y1="213.73" x2="259.22" y2="192.17" xlink:href="#linear-gradient"/><linearGradient id="linear-gradient-11" x1="228.1" y1="224.47" x2="253" y2="224.47" xlink:href="#linear-gradient-2"/><linearGradient id="linear-gradient-12" x1="253" y1="224.47" x2="277.89" y2="224.47" xlink:href="#linear-gradient-3"/><linearGradient id="linear-gradient-13" x1="274.46" y1="236.86" x2="311.8" y2="215.3" gradientUnits="userSpaceOnUse"><stop offset="0" stop-color="#97c1ff"/><stop offset="1" stop-color="#6ea6ff"/></linearGradient><linearGradient id="linear-gradient-14" x1="268.24" y1="247.6" x2="293.13" y2="247.6" gradientUnits="userSpaceOnUse"><stop offset="0" stop-color="#6ea6ff"/><stop offset="1" stop-color="#408bfc"/></linearGradient><linearGradient id="linear-gradient-15" x1="293.13" y1="247.6" x2="318.03" y2="247.6" gradientUnits="userSpaceOnUse"><stop offset="0" stop-color="#0062ff"/><stop offset="1" stop-color="#408bfc"/></linearGradient><linearGradient id="linear-gradient-16" x1="327.29" y1="260.25" x2="339.74" y2="238.69" xlink:href="#linear-gradient"/><linearGradient id="linear-gradient-17" x1="308.62" y1="270.99" x2="333.52" y2="270.99" xlink:href="#linear-gradient-2"/><linearGradient id="linear-gradient-18" x1="333.52" y1="270.99" x2="358.41" y2="270.99" xlink:href="#linear-gradient-3"/><linearGradient id="linear-gradient-19" x1="246.77" y1="162.37" x2="259.22" y2="140.81" xlink:href="#linear-gradient"/><linearGradient id="linear-gradient-20" x1="228.1" y1="173.11" x2="253" y2="173.11" xlink:href="#linear-gradient-2"/><linearGradient id="linear-gradient-21" x1="253" y1="173.11" x2="277.89" y2="173.11" xlink:href="#linear-gradient-3"/><linearGradient id="linear-gradient-22" x1="286.91" y1="185.51" x2="299.36" y2="163.95" xlink:href="#linear-gradient"/><linearGradient id="linear-gradient-23" x1="268.24" y1="196.25" x2="293.13" y2="196.25" xlink:href="#linear-gradient-2"/><linearGradient id="linear-gradient-24" x1="293.13" y1="196.25" x2="318.03" y2="196.25" xlink:href="#linear-gradient-3"/><linearGradient id="linear-gradient-25" x1="327.29" y1="208.9" x2="339.74" y2="187.34" xlink:href="#linear-gradient"/><linearGradient id="linear-gradient-26" x1="308.62" y1="219.64" x2="333.52" y2="219.64" xlink:href="#linear-gradient-2"/><linearGradient id="linear-gradient-27" x1="333.52" y1="219.64" x2="358.41" y2="219.64" xlink:href="#linear-gradient-3"/><linearGradient id="linear-gradient-28" x1="251.97" y1="337.02" x2="264.59" y2="315.17" gradientUnits="userSpaceOnUse"><stop offset="0" stop-color="#8c8c8c"/><stop offset="1" stop-color="#6f6f6f"/></linearGradient><linearGradient id="linear-gradient-29" x1="247.85" y1="328.52" x2="273.07" y2="328.52" gradientUnits="userSpaceOnUse"><stop offset="0" stop-color="#3d3d3d"/><stop offset="1" stop-color="#565656"/></linearGradient><linearGradient id="linear-gradient-30" x1="240.95" y1="330.66" x2="253.56" y2="308.8" xlink:href="#linear-gradient-28"/><linearGradient id="linear-gradient-31" x1="236.83" y1="322.15" x2="262.05" y2="322.15" xlink:href="#linear-gradient-29"/><linearGradient id="linear-gradient-32" x1="248.33" y1="275.07" x2="250.52" y2="271.28" xlink:href="#linear-gradient-28"/><linearGradient id="linear-gradient-33" x1="246.14" y1="286.44" x2="248.32" y2="286.44" gradientUnits="userSpaceOnUse"><stop offset="0" stop-color="#6f6f6f"/><stop offset="1" stop-color="#565656"/></linearGradient><linearGradient id="linear-gradient-34" x1="248.32" y1="285.82" x2="252.68" y2="285.82" xlink:href="#linear-gradient-29"/><linearGradient id="linear-gradient-35" x1="233.99" y1="266.79" x2="236.18" y2="263" xlink:href="#linear-gradient-28"/><linearGradient id="linear-gradient-36" x1="231.8" y1="278.16" x2="233.98" y2="278.16" xlink:href="#linear-gradient-33"/><linearGradient id="linear-gradient-37" x1="233.98" y1="277.54" x2="238.35" y2="277.54" xlink:href="#linear-gradient-29"/><linearGradient id="linear-gradient-38" x1="208.5" y1="347.72" x2="230.11" y2="310.29" xlink:href="#linear-gradient"/><linearGradient id="linear-gradient-39" x1="-6425.52" y1="314.66" x2="-6370.53" y2="314.66" gradientTransform="translate(6624.73)" gradientUnits="userSpaceOnUse"><stop offset="0" stop-color="#8c8c8c"/><stop offset="0.34" stop-color="#6f6f6f"/><stop offset="0.47" stop-color="#565656"/><stop offset="1" stop-color="#6f6f6f"/></linearGradient><linearGradient id="linear-gradient-40" x1="-6424.33" y1="290.28" x2="-6424.32" y2="290.28" gradientTransform="translate(6624.73)" gradientUnits="userSpaceOnUse"><stop offset="0" stop-color="#565656"/><stop offset="0.3" stop-color="#4d4d4d"/><stop offset="0.79" stop-color="#353535"/><stop offset="1" stop-color="#282828"/></linearGradient><linearGradient id="linear-gradient-41" x1="219.34" y1="302.74" x2="233.13" y2="278.86" xlink:href="#linear-gradient-28"/><linearGradient id="linear-gradient-42" x1="-6423.77" y1="315.77" x2="-6372.73" y2="315.77" gradientTransform="translate(6624.73)" gradientUnits="userSpaceOnUse"><stop offset="0" stop-color="#171717"/><stop offset="1" stop-color="#3d3d3d"/></linearGradient><linearGradient id="linear-gradient-43" x1="-6423.52" y1="315.06" x2="-6372.74" y2="315.06" gradientTransform="translate(6624.73)" gradientUnits="userSpaceOnUse"><stop offset="0" stop-color="#3d3d3d"/><stop offset="1" stop-color="#171717"/></linearGradient><linearGradient id="linear-gradient-44" x1="-6439.01" y1="348.16" x2="-6370.53" y2="348.16" gradientTransform="translate(6624.73)" gradientUnits="userSpaceOnUse"><stop offset="0" stop-color="#dcdcdc"/><stop offset="0.26" stop-color="#bebebe"/><stop offset="0.43" stop-color="#a4a4a4"/><stop offset="1" stop-color="#bebebe"/></linearGradient><linearGradient id="linear-gradient-45" x1="-6406.19" y1="371.61" x2="-6406.13" y2="371.61" gradientTransform="translate(6624.73)" gradientUnits="userSpaceOnUse"><stop offset="0" stop-color="#bdbdbd"/><stop offset="0.01" stop-color="#bcbcbc"/><stop offset="0.4" stop-color="#a1a1a1"/><stop offset="0.74" stop-color="#919191"/><stop offset="1" stop-color="#8b8b8b"/></linearGradient><linearGradient id="linear-gradient-46" x1="239.23" y1="272.65" x2="239.78" y2="271.7" xlink:href="#linear-gradient-28"/><linearGradient id="linear-gradient-47" x1="230.69" y1="273.25" x2="247.22" y2="273.25" xlink:href="#linear-gradient-33"/></defs><polygon class="cls-1" points="124.44 336.11 247.27 406.86 369.95 336.03 247.24 265.27 124.44 336.11"/><polyline class="cls-2" points="247.24 123.78 216.75 176.51 247.24 194.41 216.56 247.37 247.24 265.27"/><polyline class="cls-2" points="216.56 141.25 247.24 158.97 216.41 211.75 247.24 229.85 216.56 282.91"/><polygon class="cls-3" points="247.24 123.78 247.24 265.27 216.56 282.91 216.56 141.25 247.24 123.78"/><polygon class="cls-4" points="249.11 298.92 249.11 301.47 276.03 285.93 276.03 283.46 249.11 298.92"/><polygon class="cls-5" points="249.11 298.92 249.11 301.47 245.24 299.24 245.24 296.7 249.11 298.92"/><polygon class="cls-4" points="233.81 290.08 233.81 292.63 260.73 277.09 260.73 274.62 233.81 290.08"/><polygon class="cls-5" points="233.81 290.08 233.81 292.63 229.94 290.4 229.94 287.86 233.81 290.08"/><polygon class="cls-6" points="253 298.7 279.92 283.16 253 267.61 226.07 283.16 253 298.7"/><polygon class="cls-4" points="253 298.61 253 301.17 226.07 285.62 226.07 283.16 253 298.61"/><polygon class="cls-4" points="253 298.61 253 301.17 279.92 285.62 279.92 283.16 253 298.61"/><polygon class="cls-7" points="253 268.68 277.89 254.31 253 239.93 228.1 254.31 253 268.68"/><polygon class="cls-8" points="253 268.6 253 297.35 228.1 282.97 228.1 254.31 253 268.6"/><polygon class="cls-9" points="253 268.6 253 297.35 277.89 282.97 277.89 254.31 253 268.6"/><polygon class="cls-4" points="289.25 322.05 289.25 324.61 316.17 309.06 316.17 306.6 289.25 322.05"/><polygon class="cls-5" points="289.25 322.05 289.25 324.61 285.38 322.38 285.38 319.83 289.25 322.05"/><polygon class="cls-4" points="273.94 313.21 273.94 315.77 300.87 300.22 300.87 297.76 273.94 313.21"/><polygon class="cls-5" points="273.94 313.21 273.94 315.77 270.08 313.53 270.08 310.99 273.94 313.21"/><polygon class="cls-6" points="293.13 321.83 320.05 306.29 293.13 290.75 266.21 306.29 293.13 321.83"/><polygon class="cls-5" points="293.13 321.75 293.13 324.3 266.21 308.76 266.21 306.29 293.13 321.75"/><polygon class="cls-4" points="293.13 321.75 293.13 324.3 320.05 308.76 320.05 306.29 293.13 321.75"/><polygon class="cls-10" points="293.13 291.81 318.03 277.44 293.13 263.07 268.24 277.44 293.13 291.81"/><polygon class="cls-11" points="293.13 291.73 293.13 320.48 268.24 306.11 268.24 277.44 293.13 291.73"/><polygon class="cls-12" points="293.13 291.73 293.13 320.48 318.03 306.11 318.03 277.44 293.13 291.73"/><polygon class="cls-4" points="329.63 345.44 329.63 348 356.55 332.46 356.55 329.99 329.63 345.44"/><polygon class="cls-5" points="329.63 345.44 329.63 348 325.76 345.77 325.76 343.23 329.63 345.44"/><polygon class="cls-4" points="314.33 336.6 314.33 339.16 341.25 323.62 341.25 321.15 314.33 336.6"/><polygon class="cls-5" points="314.33 336.6 314.33 339.16 310.46 336.93 310.46 334.38 314.33 336.6"/><polygon class="cls-6" points="333.51 345.23 360.44 329.68 333.52 314.14 306.6 329.68 333.51 345.23"/><polygon class="cls-5" points="333.52 345.14 333.51 347.69 306.6 332.15 306.6 329.68 333.52 345.14"/><polygon class="cls-4" points="333.51 345.14 333.52 347.69 360.44 332.15 360.44 329.68 333.51 345.14"/><polygon class="cls-13" points="333.51 315.2 358.41 300.83 333.52 286.46 308.62 300.83 333.51 315.2"/><polygon class="cls-14" points="333.52 315.12 333.51 343.87 308.62 329.5 308.62 300.83 333.52 315.12"/><polygon class="cls-15" points="333.51 315.12 333.52 343.87 358.41 329.5 358.41 300.83 333.51 315.12"/><polygon class="cls-1" points="339.25 306.92 369.9 289.22 247.06 218.43 216.41 236.13 339.25 306.92"/><polygon class="cls-4" points="249.11 247.56 249.11 250.12 276.03 234.57 276.03 232.1 249.11 247.56"/><polygon class="cls-5" points="249.11 247.56 249.11 250.12 245.24 247.88 245.24 245.34 249.11 247.56"/><polygon class="cls-4" points="233.81 238.72 233.81 241.27 260.73 225.73 260.73 223.26 233.81 238.72"/><polygon class="cls-5" points="233.81 238.72 233.81 241.27 229.94 239.04 229.94 236.5 233.81 238.72"/><polygon class="cls-6" points="253 247.34 279.92 231.8 253 216.26 226.07 231.8 253 247.34"/><polygon class="cls-5" points="253 247.25 253 249.81 226.07 234.27 226.07 231.8 253 247.25"/><polygon class="cls-4" points="253 247.25 253 249.81 279.92 234.27 279.92 231.8 253 247.25"/><polygon class="cls-16" points="253 217.32 277.89 202.95 253 188.57 228.1 202.95 253 217.32"/><polygon class="cls-17" points="253 217.24 253 245.99 228.1 231.61 228.1 202.95 253 217.24"/><polygon class="cls-18" points="253 217.24 253 245.99 277.89 231.61 277.89 202.95 253 217.24"/><polygon class="cls-4" points="289.25 270.69 289.25 273.25 316.17 257.71 316.17 255.24 289.25 270.69"/><polygon class="cls-5" points="289.25 270.69 289.25 273.25 285.38 271.02 285.38 268.48 289.25 270.69"/><polygon class="cls-4" points="273.94 261.86 273.94 264.41 300.87 248.87 300.87 246.4 273.94 261.86"/><polygon class="cls-5" points="273.94 261.86 273.94 264.41 270.08 262.18 270.08 259.64 273.94 261.86"/><polygon class="cls-6" points="293.13 270.48 320.05 254.93 293.13 239.39 266.21 254.93 293.13 270.48"/><polygon class="cls-5" points="293.13 270.39 293.13 272.94 266.21 257.4 266.21 254.93 293.13 270.39"/><polygon class="cls-4" points="293.13 270.39 293.13 272.94 320.05 257.4 320.05 254.93 293.13 270.39"/><polygon class="cls-19" points="293.13 240.46 318.03 226.08 293.13 211.71 268.24 226.08 293.13 240.46"/><polygon class="cls-20" points="293.13 240.38 293.13 269.12 268.24 254.75 268.24 226.08 293.13 240.38"/><polygon class="cls-21" points="293.13 240.38 293.13 269.12 318.03 254.75 318.03 226.08 293.13 240.38"/><polygon class="cls-4" points="329.63 294.09 329.63 296.64 356.55 281.1 356.55 278.63 329.63 294.09"/><polygon class="cls-5" points="329.63 294.09 329.63 296.64 325.76 294.41 325.76 291.87 329.63 294.09"/><polygon class="cls-4" points="314.33 285.25 314.33 287.8 341.25 272.26 341.25 269.79 314.33 285.25"/><polygon class="cls-5" points="314.33 285.25 314.33 287.8 310.46 285.57 310.46 283.03 314.33 285.25"/><polygon class="cls-6" points="333.51 293.87 360.44 278.33 333.52 262.78 306.6 278.33 333.51 293.87"/><polygon class="cls-5" points="333.52 293.78 333.51 296.33 306.6 280.79 306.6 278.33 333.52 293.78"/><polygon class="cls-4" points="333.51 293.78 333.52 296.33 360.44 280.79 360.44 278.33 333.51 293.78"/><polygon class="cls-22" points="333.51 263.85 358.41 249.47 333.52 235.1 308.62 249.47 333.51 263.85"/><polygon class="cls-23" points="333.52 263.77 333.51 292.51 308.62 278.14 308.62 249.47 333.52 263.77"/><polygon class="cls-24" points="333.51 263.77 333.52 292.51 358.41 278.14 358.41 249.47 333.51 263.77"/><polygon class="cls-5" points="369.9 289.22 369.9 293.3 339.25 310.99 339.25 306.92 369.9 289.22"/><polygon class="cls-25" points="216.41 236.13 216.41 240.21 339.25 310.99 339.25 306.92 216.41 236.13"/><polygon class="cls-1" points="339.25 255.56 369.9 237.86 247.06 167.07 216.41 184.77 339.25 255.56"/><polygon class="cls-4" points="249.11 196.2 249.11 198.76 276.03 183.22 276.03 180.75 249.11 196.2"/><polygon class="cls-5" points="249.11 196.2 249.11 198.76 245.24 196.53 245.24 193.98 249.11 196.2"/><polygon class="cls-4" points="233.81 187.36 233.81 189.92 260.73 174.37 260.73 171.91 233.81 187.36"/><polygon class="cls-5" points="233.81 187.36 233.81 189.92 229.94 187.69 229.94 185.14 233.81 187.36"/><polygon class="cls-6" points="253 195.99 279.92 180.44 253 164.9 226.07 180.44 253 195.99"/><polygon class="cls-5" points="253 195.9 253 198.45 226.07 182.91 226.07 180.44 253 195.9"/><polygon class="cls-4" points="253 195.9 253 198.45 279.92 182.91 279.92 180.44 253 195.9"/><polygon class="cls-26" points="253 165.96 277.89 151.59 253 137.22 228.1 151.59 253 165.96"/><polygon class="cls-27" points="253 165.88 253 194.63 228.1 180.26 228.1 151.59 253 165.88"/><polygon class="cls-28" points="253 165.88 253 194.63 277.89 180.26 277.89 151.59 253 165.88"/><polygon class="cls-4" points="289.25 219.34 289.25 221.89 316.17 206.35 316.17 203.88 289.25 219.34"/><polygon class="cls-5" points="289.25 219.34 289.25 221.89 285.38 219.66 285.38 217.12 289.25 219.34"/><polygon class="cls-4" points="273.94 210.5 273.94 213.05 300.87 197.51 300.87 195.04 273.94 210.5"/><polygon class="cls-5" points="273.94 210.5 273.94 213.05 270.08 210.82 270.08 208.28 273.94 210.5"/><polygon class="cls-6" points="293.13 219.12 320.05 203.58 293.13 188.03 266.21 203.58 293.13 219.12"/><polygon class="cls-5" points="293.13 219.03 293.13 221.59 266.21 206.04 266.21 203.58 293.13 219.03"/><polygon class="cls-4" points="293.13 219.03 293.13 221.59 320.05 206.04 320.05 203.58 293.13 219.03"/><polygon class="cls-29" points="293.13 189.1 318.03 174.72 293.13 160.35 268.24 174.72 293.13 189.1"/><polygon class="cls-30" points="293.13 189.02 293.13 217.76 268.24 203.39 268.24 174.72 293.13 189.02"/><polygon class="cls-31" points="293.13 189.02 293.13 217.76 318.03 203.39 318.03 174.72 293.13 189.02"/><polygon class="cls-4" points="329.63 242.73 329.63 245.28 356.55 229.74 356.55 227.27 329.63 242.73"/><polygon class="cls-5" points="329.63 242.73 329.63 245.28 325.76 243.05 325.76 240.51 329.63 242.73"/><polygon class="cls-4" points="314.33 233.89 314.33 236.44 341.25 220.9 341.25 218.43 314.33 233.89"/><polygon class="cls-5" points="314.33 233.89 314.33 236.44 310.46 234.21 310.46 231.67 314.33 233.89"/><polygon class="cls-6" points="333.51 242.51 360.44 226.97 333.52 211.43 306.6 226.97 333.51 242.51"/><polygon class="cls-5" points="333.52 242.42 333.51 244.98 306.6 229.44 306.6 226.97 333.52 242.42"/><polygon class="cls-4" points="333.51 242.42 333.52 244.98 360.44 229.44 360.44 226.97 333.51 242.42"/><polygon class="cls-32" points="333.51 212.49 358.41 198.12 333.52 183.74 308.62 198.12 333.51 212.49"/><polygon class="cls-33" points="333.52 212.41 333.51 241.16 308.62 226.78 308.62 198.12 333.52 212.41"/><polygon class="cls-34" points="333.51 212.41 333.52 241.16 358.41 226.78 358.41 198.12 333.51 212.41"/><polygon class="cls-5" points="369.9 237.86 369.9 241.94 339.25 259.64 339.25 255.56 369.9 237.86"/><polygon class="cls-25" points="216.41 184.77 216.41 188.85 339.25 259.64 339.25 255.56 216.41 184.77"/><polyline class="cls-2" points="369.9 194.61 339.41 247.34 369.9 265.24 339.22 318.21 369.9 336.11"/><polyline class="cls-2" points="339.22 212.09 369.9 229.8 339.06 282.58 369.9 300.68 339.22 353.74"/><polygon class="cls-3" points="369.9 194.61 369.9 336.11 339.22 353.74 339.22 212.09 369.9 194.61"/><polygon class="cls-35" points="249.09 299.21 249.08 301.76 245.22 299.53 245.22 296.99 249.09 299.21"/><polygon class="cls-35" points="233.77 290.36 233.77 292.91 229.9 290.68 229.9 288.14 233.77 290.36"/><polygon class="cls-4" points="252.98 298.9 252.98 301.46 226.03 285.9 226.03 283.43 252.98 298.9"/><polygon class="cls-36" points="247.85 334.65 243.49 332.11 268.71 317.55 273.07 320.09 247.85 334.65"/><polygon class="cls-37" points="247.85 334.56 247.85 336.96 273.07 322.4 273.07 320.09 247.85 334.56"/><polygon class="cls-5" points="247.85 334.56 247.85 336.96 243.49 334.42 243.49 332.11 247.85 334.56"/><polygon class="cls-38" points="236.83 328.28 232.46 325.74 257.68 311.18 262.05 313.72 236.83 328.28"/><polygon class="cls-39" points="236.83 328.2 236.83 330.59 262.05 316.03 262.05 313.72 236.83 328.2"/><polygon class="cls-5" points="236.83 328.2 236.83 330.59 232.46 328.05 232.46 325.74 236.83 328.2"/><polygon class="cls-40" points="248.32 275.03 252.68 272.57 250.5 271.27 246.14 273.81 248.32 275.03"/><polygon class="cls-41" points="248.32 275.03 248.32 299.07 246.14 297.77 246.14 273.81 248.32 275.03"/><polygon class="cls-42" points="248.32 275.03 248.32 299.07 252.68 296.53 252.68 272.57 248.32 275.03"/><polygon class="cls-43" points="233.98 266.75 238.35 264.3 236.16 262.99 231.8 265.53 233.98 266.75"/><polygon class="cls-44" points="233.98 266.75 233.98 290.79 231.8 289.49 231.8 265.53 233.98 266.75"/><polygon class="cls-45" points="233.98 266.75 233.98 290.79 238.35 288.25 238.35 264.3 233.98 266.75"/><path class="cls-46" d="M228.72,360.58c0-2-.72-3.41-1.87-4a4,4,0,0,0-3.76.31,2.3,2.3,0,0,1,.63.25h0l2.32,1.34h0a3.32,3.32,0,0,1,1.52,3.17,8.36,8.36,0,0,1-.35,2.27l.82.34A11.08,11.08,0,0,0,228.72,360.58Z"/><path class="cls-47" d="M215.44,365.81a10.69,10.69,0,0,1,4.84-8.37,3.35,3.35,0,0,1,3.44-.32h0l2.32,1.34-.93,1.65v.12a10.73,10.73,0,0,1-4.71,8.3l-1,1.85L216.88,369h0A3.38,3.38,0,0,1,215.44,365.81Z"/><ellipse class="cls-46" cx="222.72" cy="364.43" rx="6.84" ry="3.95" transform="translate(-204.25 375.09) rotate(-60)"/><ellipse class="cls-4" cx="222.72" cy="364.43" rx="4.69" ry="2.71" transform="translate(-204.25 375.09) rotate(-60)"/><polygon class="cls-46" points="238.57 340.1 238.57 354.33 250.9 347.22 250.9 333.03 238.57 340.1"/><path class="cls-47" d="M240.68,349.31A13.09,13.09,0,0,1,246.61,339c1.65-1,3.15-1,4.22-.4h0l2.85,1.65-1.14,2v.14a13.15,13.15,0,0,1-5.78,10.18l-1.28,2.28-3-1.76h0C241.35,352.55,240.68,351.21,240.68,349.31Z"/><ellipse class="cls-46" cx="249.6" cy="347.61" rx="8.39" ry="4.84" transform="translate(-176.24 389.97) rotate(-60)"/><ellipse class="cls-4" cx="249.6" cy="347.61" rx="5.75" ry="3.32" transform="translate(-176.24 389.97) rotate(-60)"/><path class="cls-48" d="M205.87,346.2l-18.36-10.6a3.58,3.58,0,0,1,0-6.2l37.86-21.85,28.84,16.65-38.12,22A10.25,10.25,0,0,1,205.87,346.2Z"/><path class="cls-49" d="M253,290.34,231.16,303a11.45,11.45,0,0,1-11.46,0l-18-10.41a2.52,2.52,0,0,1-1.27-2.19l-1.18,33.78v.23h0a2.62,2.62,0,0,0,1.31,2.14l18.85,10.88a12,12,0,0,0,12,0l22.84-13.19Z"/><path class="cls-50" d="M200.41,290.24v.07s0,0,0-.07Z"/><path class="cls-51" d="M219.7,303l-18-10.41a2.55,2.55,0,0,1,0-4.41l23.76-13.71L253,290.34,231.16,303A11.45,11.45,0,0,1,219.7,303Z"/><path class="cls-52" d="M219.7,305.5l-17.68-10L201,324.2l18.42,10.63a12.07,12.07,0,0,0,3,1.23V306.62A12,12,0,0,1,219.7,305.5Z"/><path class="cls-53" d="M252,322.92,251,294,231.16,305.5a12,12,0,0,1-3,1.19v29.4a11.78,11.78,0,0,0,3.2-1.26Z"/><path class="cls-54" d="M232.6,336.67l-15.86,9.15a11.51,11.51,0,0,1-11.52,0l-1.47-.85-16.24-9.37a3.53,3.53,0,0,1-1.77-2.94h0v24.9h0a3.5,3.5,0,0,0,1.77,3l17.16,9.91a12.6,12.6,0,0,0,12.24.18l.12-.06.37-.18a5.61,5.61,0,0,1-.62-2.76,13.57,13.57,0,0,1,6-10.58,4.19,4.19,0,0,1,4.1-.49c1.15.61,1.87,2,1.87,4a11.08,11.08,0,0,1-.7,3.67l12.29-7.09a3.18,3.18,0,0,0,1.57-2.74v-4.07a15.86,15.86,0,0,1,3.73-10.22,7.8,7.8,0,0,1,6.37-2.76l.75,0a1.41,1.41,0,0,0,1.48-1.41V324.2Z"/><path class="cls-55" d="M218.6,371.63h0l-.06,0Z"/><polygon class="cls-56" points="247.22 277.21 230.69 267.72 231.78 267.09 248.31 276.63 247.22 277.21"/><polygon class="cls-35" points="247.22 277.21 247.22 278.78 248.31 278.15 248.31 276.63 247.22 277.21"/><polygon class="cls-57" points="247.22 277.21 247.22 278.78 230.69 269.23 230.69 267.72 247.22 277.21"/><path class="cls-58" d="M228.72,360.58a10.18,10.18,0,0,1-.38,2.62l4.26-2.46,9.09-5.24a3.27,3.27,0,0,0,.19-1.08v-1.85l-9.28,5.36-3.89,2.24C228.71,360.31,228.72,360.44,228.72,360.58Zm-43-6.8v2.81l0,.14a3.53,3.53,0,0,0,1.77,2.94L203.75,369l1.47.85a11.51,11.51,0,0,0,11.52,0l.36-.2a6.1,6.1,0,0,1-.32-2.06c0-.19,0-.39,0-.58l-.06,0a11.51,11.51,0,0,1-11.52,0l-1.47-.85-16.24-9.37a3.53,3.53,0,0,1-1.77-2.95Z"/><polygon class="cls-59" points="187.92 339.43 187.92 343.23 192.79 346.07 192.79 342.27 187.92 339.43"/><polygon class="cls-60" points="188.38 340.26 188.38 342.95 192.24 345.22 192.24 342.53 188.38 340.26"/><polygon class="cls-59" points="200.98 346.96 200.98 350.76 205.86 353.6 205.86 349.81 200.98 346.96"/><polygon class="cls-60" points="201.45 347.8 201.45 350.48 205.31 352.75 205.31 350.06 201.45 347.8"/></svg>