<svg id="Objects" xmlns="http://www.w3.org/2000/svg" xmlns:xlink="http://www.w3.org/1999/xlink" width="500" height="500" viewBox="0 0 500 500"><defs><style>.cls-1{fill:url(#linear-gradient);}.cls-2{fill:url(#linear-gradient-2);}.cls-3{fill:url(#linear-gradient-3);}.cls-4{fill:url(#linear-gradient-4);}.cls-5{fill:url(#linear-gradient-5);}.cls-6{fill:url(#linear-gradient-6);}.cls-7{fill:#565656;}.cls-8{fill:url(#linear-gradient-7);}.cls-9{opacity:0.9;}.cls-10{fill:url(#linear-gradient-8);}.cls-11{fill:url(#linear-gradient-9);}.cls-12{fill:url(#linear-gradient-10);}.cls-13{fill:url(#linear-gradient-11);}.cls-14{fill:url(#linear-gradient-12);}.cls-15{fill:url(#linear-gradient-13);}.cls-16{fill:url(#linear-gradient-14);}.cls-17{fill:url(#linear-gradient-15);}.cls-18{fill:url(#linear-gradient-16);}.cls-19{fill:url(#linear-gradient-17);}.cls-20{fill:url(#linear-gradient-18);}.cls-21{fill:url(#linear-gradient-19);}.cls-22{fill:url(#linear-gradient-20);}.cls-23{fill:url(#linear-gradient-21);}.cls-24{fill:url(#linear-gradient-22);}.cls-25{fill:url(#linear-gradient-23);}.cls-26{fill:url(#linear-gradient-24);}.cls-27{fill:url(#linear-gradient-25);}.cls-28{fill:url(#linear-gradient-26);}.cls-29{fill:url(#linear-gradient-27);}.cls-30{fill:url(#linear-gradient-28);}.cls-31{fill:url(#linear-gradient-29);}</style><linearGradient id="linear-gradient" x1="166.57" y1="230.33" x2="196.06" y2="179.23" gradientUnits="userSpaceOnUse"><stop offset="0" stop-color="#f3f3f3"/><stop offset="1" stop-color="#dcdcdc"/></linearGradient><linearGradient id="linear-gradient-2" x1="137.2" y1="196.29" x2="191.14" y2="196.29" gradientUnits="userSpaceOnUse"><stop offset="0" stop-color="#a4a4a4"/><stop offset="1" stop-color="#bebebe"/></linearGradient><linearGradient id="linear-gradient-3" x1="169.02" y1="228.74" x2="193.61" y2="186.14" xlink:href="#linear-gradient"/><linearGradient id="linear-gradient-4" x1="191.14" y1="190.54" x2="225.49" y2="190.54" gradientUnits="userSpaceOnUse"><stop offset="0" stop-color="#bebebe"/><stop offset="1" stop-color="#a4a4a4"/></linearGradient><linearGradient id="linear-gradient-5" x1="124.91" y1="330.67" x2="178.85" y2="237.25" gradientUnits="userSpaceOnUse"><stop offset="0" stop-color="#dcdcdc"/><stop offset="1" stop-color="#bebebe"/></linearGradient><linearGradient id="linear-gradient-6" x1="159.26" y1="350.5" x2="242.58" y2="206.18" gradientTransform="translate(-0.21 0.15) rotate(-0.04)" xlink:href="#linear-gradient-2"/><linearGradient id="linear-gradient-7" x1="-526.77" y1="354.48" x2="-417.57" y2="166.92" gradientTransform="translate(688.86) scale(0.99 1)" xlink:href="#linear-gradient-5"/><linearGradient id="linear-gradient-8" x1="213.25" y1="170.65" x2="227.96" y2="170.65" gradientUnits="userSpaceOnUse"><stop offset="0" stop-color="#0062ff"/><stop offset="1" stop-color="#00bae3"/></linearGradient><linearGradient id="linear-gradient-9" x1="232.86" y1="233.11" x2="247.57" y2="233.11" xlink:href="#linear-gradient-8"/><linearGradient id="linear-gradient-10" x1="250.02" y1="260.7" x2="308.86" y2="260.7" xlink:href="#linear-gradient-2"/><linearGradient id="linear-gradient-11" x1="235.31" y1="143.93" x2="264.73" y2="92.98" xlink:href="#linear-gradient"/><linearGradient id="linear-gradient-12" x1="-496.87" y1="104.22" x2="-442.48" y2="104.22" gradientTransform="translate(688.86) scale(0.99 1)" xlink:href="#linear-gradient-2"/><linearGradient id="linear-gradient-13" x1="237.77" y1="142.35" x2="262.28" y2="99.89" xlink:href="#linear-gradient"/><linearGradient id="linear-gradient-14" x1="-442.48" y1="104.22" x2="-388.09" y2="104.22" gradientTransform="translate(688.86) scale(0.99 1)" xlink:href="#linear-gradient-4"/><linearGradient id="linear-gradient-15" x1="193.64" y1="278.4" x2="208.35" y2="278.4" xlink:href="#linear-gradient-8"/><linearGradient id="linear-gradient-16" x1="232.86" y1="385.98" x2="247.57" y2="385.98" xlink:href="#linear-gradient-8"/><linearGradient id="linear-gradient-17" x1="-457.31" y1="126.82" x2="-442.49" y2="126.82" gradientTransform="translate(688.86) scale(0.99 1)" xlink:href="#linear-gradient-5"/><linearGradient id="linear-gradient-18" x1="246.36" y1="127.33" x2="253.71" y2="114.6" xlink:href="#linear-gradient"/><linearGradient id="linear-gradient-19" x1="-442.49" y1="126.82" x2="-427.67" y2="126.82" gradientTransform="translate(688.86) scale(0.99 1)" xlink:href="#linear-gradient-2"/><linearGradient id="linear-gradient-20" x1="248.35" y1="93.25" x2="251.06" y2="93.25" gradientUnits="userSpaceOnUse"><stop offset="0" stop-color="#dcdcdc"/><stop offset="0.65" stop-color="#a4a4a4"/><stop offset="0.8" stop-color="#a7a7a7"/><stop offset="0.91" stop-color="#b1b1b1"/><stop offset="1" stop-color="#bebebe"/></linearGradient><linearGradient id="linear-gradient-21" x1="249.34" y1="64.83" x2="250.24" y2="63.27" xlink:href="#linear-gradient"/><linearGradient id="linear-gradient-22" x1="303.94" y1="309.61" x2="333.43" y2="258.51" xlink:href="#linear-gradient"/><linearGradient id="linear-gradient-23" x1="274.57" y1="275.57" x2="328.5" y2="275.57" xlink:href="#linear-gradient-2"/><linearGradient id="linear-gradient-24" x1="306.39" y1="308.03" x2="330.98" y2="265.43" xlink:href="#linear-gradient"/><linearGradient id="linear-gradient-25" x1="328.5" y1="269.82" x2="362.85" y2="269.82" xlink:href="#linear-gradient-4"/><linearGradient id="linear-gradient-26" x1="262.28" y1="409.96" x2="316.22" y2="316.53" xlink:href="#linear-gradient-5"/><linearGradient id="linear-gradient-27" x1="291.7" y1="368.99" x2="306.41" y2="368.99" xlink:href="#linear-gradient-8"/><linearGradient id="linear-gradient-28" x1="296.62" y1="429.78" x2="379.95" y2="285.47" xlink:href="#linear-gradient-2"/><linearGradient id="linear-gradient-29" x1="154.33" y1="255.74" x2="169.04" y2="255.74" xlink:href="#linear-gradient-8"/></defs><polygon class="cls-1" points="191.11 176.55 132.27 210.52 171.52 233.01 230.36 199.03 191.11 176.55"/><polygon class="cls-2" points="191.14 179.38 191.14 184.88 142.1 213.19 137.2 210.52 191.14 179.38"/><polygon class="cls-3" points="191.11 184.88 142.07 213.19 171.52 230.01 220.56 201.7 191.11 184.88"/><polygon class="cls-4" points="225.49 198.87 191.14 179.38 191.14 184.88 220.58 201.7 225.49 198.87"/><polygon class="cls-5" points="132.27 334.45 171.5 357.57 171.5 233.01 132.27 210.36 132.27 334.45"/><polygon class="cls-6" points="230.28 199.1 171.46 233.03 171.56 357.59 230.37 323.66 230.28 199.1"/><polygon class="cls-7" points="154.33 228.84 154.33 240.17 169.04 248.66 169.04 237.34 154.33 228.84"/><polygon class="cls-7" points="134.72 217.52 134.72 228.84 149.43 237.34 149.43 226.01 134.72 217.52"/><polygon class="cls-7" points="134.72 234.51 134.72 245.83 149.43 254.32 149.43 243 134.72 234.51"/><polygon class="cls-7" points="154.33 262.81 154.33 274.14 169.04 282.63 169.04 271.31 154.33 262.81"/><polygon class="cls-7" points="134.72 251.49 134.72 262.81 149.43 271.31 149.43 259.98 134.72 251.49"/><polygon class="cls-7" points="154.33 279.8 154.33 291.13 169.04 299.62 169.04 288.29 154.33 279.8"/><polygon class="cls-7" points="134.72 268.48 134.72 279.8 149.43 288.29 149.43 276.97 134.72 268.48"/><polygon class="cls-7" points="154.33 296.79 154.33 308.11 169.04 316.6 169.04 305.28 154.33 296.79"/><polygon class="cls-7" points="134.72 285.46 134.72 296.79 149.43 305.28 149.43 293.96 134.72 285.46"/><polygon class="cls-7" points="154.33 313.77 154.33 325.1 169.04 333.59 169.04 322.26 154.33 313.77"/><polygon class="cls-7" points="134.72 302.45 134.72 313.77 149.43 322.26 149.43 310.94 134.72 302.45"/><polygon class="cls-7" points="154.33 330.76 154.33 342.08 169.04 350.57 169.04 339.25 154.33 330.76"/><polygon class="cls-7" points="134.72 319.44 134.72 330.76 149.43 339.25 149.43 327.93 134.72 319.44"/><polygon class="cls-8" points="191.18 368.99 250.02 402.96 250.02 152.41 191.18 118.44 191.18 368.99"/><g class="cls-9"><polygon class="cls-10" points="213.25 160.74 213.25 172.06 227.96 180.55 227.96 169.23 213.25 160.74"/></g><g class="cls-9"><polygon class="cls-11" points="232.86 223.2 232.86 234.52 247.57 243.01 247.57 231.69 232.86 223.2"/></g><polygon class="cls-12" points="308.86 118.44 250.02 152.41 250.02 402.96 308.86 368.99 308.86 118.44"/><polygon class="cls-13" points="250.02 84.48 191.18 118.45 250.02 152.43 308.86 118.45 250.02 84.48"/><polygon class="cls-14" points="250.05 87.31 250.05 92.81 201.02 121.12 196.11 118.45 250.05 87.31"/><polygon class="cls-15" points="250.02 92.81 200.99 121.12 250.02 149.43 299.06 121.12 250.02 92.81"/><polygon class="cls-16" points="303.99 118.29 250.05 87.31 250.05 92.81 299.08 121.12 303.99 118.29"/><polygon class="cls-7" points="213.25 211.87 213.25 223.2 227.96 231.69 227.96 220.37 213.25 211.87"/><polygon class="cls-7" points="193.63 200.55 193.63 211.87 208.34 220.37 208.34 209.04 193.63 200.55"/><polygon class="cls-7" points="213.25 228.86 213.25 240.18 227.96 248.68 227.96 237.35 213.25 228.86"/><polygon class="cls-7" points="193.63 217.53 193.63 228.86 208.34 237.35 208.34 226.03 193.63 217.53"/><polygon class="cls-7" points="232.86 240.18 232.86 251.51 247.57 260 247.57 248.68 232.86 240.18"/><polygon class="cls-7" points="213.25 194.89 213.25 206.21 227.96 214.7 227.96 203.38 213.25 194.89"/><polygon class="cls-7" points="193.63 183.56 193.63 194.89 208.34 203.38 208.34 192.06 193.63 183.56"/><polygon class="cls-7" points="232.86 206.21 232.86 217.53 247.57 226.03 247.57 214.7 232.86 206.21"/><polygon class="cls-7" points="213.25 177.9 213.25 189.22 227.96 197.72 227.96 186.39 213.25 177.9"/><polygon class="cls-7" points="193.63 166.58 193.63 177.9 208.34 186.39 208.34 175.07 193.63 166.58"/><polygon class="cls-7" points="232.86 189.22 232.86 200.55 247.57 209.04 247.57 197.72 232.86 189.22"/><polygon class="cls-7" points="193.63 149.41 193.63 160.74 208.34 169.23 208.34 157.91 193.63 149.41"/><polygon class="cls-7" points="232.86 172.06 232.86 183.38 247.57 191.88 247.57 180.55 232.86 172.06"/><polygon class="cls-7" points="213.25 143.53 213.25 154.86 227.96 163.35 227.96 152.03 213.25 143.53"/><polygon class="cls-7" points="193.63 132.21 193.63 143.53 208.34 152.03 208.34 140.7 193.63 132.21"/><polygon class="cls-7" points="232.86 154.86 232.86 166.18 247.57 174.68 247.57 163.35 232.86 154.86"/><polygon class="cls-7" points="213.25 245.84 213.25 257.17 227.96 265.66 227.96 254.34 213.25 245.84"/><polygon class="cls-7" points="193.63 234.52 193.63 245.84 208.34 254.34 208.34 243.01 193.63 234.52"/><polygon class="cls-7" points="232.86 257.17 232.86 268.49 247.57 276.99 247.57 265.66 232.86 257.17"/><polygon class="cls-7" points="213.25 262.83 213.25 274.15 227.96 282.65 227.96 271.32 213.25 262.83"/><polygon class="cls-7" points="193.63 251.51 193.63 262.83 208.34 271.32 208.34 260 193.63 251.51"/><polygon class="cls-7" points="232.86 274.15 232.86 285.48 247.57 293.97 247.57 282.65 232.86 274.15"/><polygon class="cls-7" points="213.25 279.82 213.25 291.14 227.96 299.63 227.96 288.31 213.25 279.82"/><g class="cls-9"><polygon class="cls-17" points="193.63 268.49 193.63 279.82 208.34 288.31 208.34 276.99 193.63 268.49"/></g><polygon class="cls-7" points="232.86 291.14 232.86 302.46 247.57 310.96 247.57 299.63 232.86 291.14"/><polygon class="cls-7" points="213.25 296.8 213.25 308.13 227.96 316.62 227.96 305.3 213.25 296.8"/><polygon class="cls-7" points="193.63 285.48 193.63 296.8 208.34 305.3 208.34 293.97 193.63 285.48"/><polygon class="cls-7" points="232.86 308.13 232.86 319.45 247.57 327.94 247.57 316.62 232.86 308.13"/><polygon class="cls-7" points="213.25 313.79 213.25 325.11 227.96 333.61 227.96 322.28 213.25 313.79"/><polygon class="cls-7" points="193.63 302.46 193.63 313.79 208.34 322.28 208.34 310.96 193.63 302.46"/><polygon class="cls-7" points="232.86 325.11 232.86 336.44 247.57 344.93 247.57 333.61 232.86 325.11"/><polygon class="cls-7" points="213.25 330.77 213.25 342.1 227.96 350.59 227.96 339.27 213.25 330.77"/><polygon class="cls-7" points="193.63 319.45 193.63 330.77 208.34 339.27 208.34 327.94 193.63 319.45"/><polygon class="cls-7" points="232.86 342.1 232.86 353.42 247.57 361.91 247.57 350.59 232.86 342.1"/><polygon class="cls-7" points="213.25 347.76 213.25 359.08 227.96 367.58 227.96 356.25 213.25 347.76"/><polygon class="cls-7" points="193.63 336.44 193.63 347.76 208.34 356.25 208.34 344.93 193.63 336.44"/><polygon class="cls-7" points="232.86 359.08 232.86 370.41 247.57 378.9 247.57 367.58 232.86 359.08"/><polygon class="cls-7" points="213.25 364.75 213.25 376.07 227.96 384.56 227.96 373.24 213.25 364.75"/><polygon class="cls-7" points="193.63 353.42 193.63 364.75 208.34 373.24 208.34 361.91 193.63 353.42"/><g class="cls-9"><polygon class="cls-18" points="232.86 376.07 232.86 387.39 247.57 395.89 247.57 384.56 232.86 376.07"/></g><polygon class="cls-19" points="235.34 124.19 250.04 132.68 250.04 129.45 235.34 120.97 235.34 124.19"/><polygon class="cls-20" points="250.04 112.48 235.34 120.97 250.04 129.45 264.73 120.97 250.04 112.48"/><polygon class="cls-21" points="264.73 120.97 264.73 124.19 250.04 132.68 250.04 129.45 264.73 120.97"/><path class="cls-22" d="M251,64.33h0a.8.8,0,0,1-.27.24,1.51,1.51,0,0,1-.39.15l-.06,0a2.12,2.12,0,0,1-.44,0h0a1.8,1.8,0,0,1-.46-.05h0a1.67,1.67,0,0,1-.41-.16.66.66,0,0,1-.38-.53l-.16,57.65a.65.65,0,0,0,.37.53l.19.09.15.05.08,0h.06l.13,0,.12,0h.4l.16,0,.07,0h.06l.11,0a1.39,1.39,0,0,0,.28-.12h0a.74.74,0,0,0,.16-.12l.08-.08,0,0h0l0,0,0-.07a.25.25,0,0,0,0-.07.22.22,0,0,0,0-.08h0l.16-57.65A.48.48,0,0,1,251,64.33Z"/><path class="cls-23" d="M250.69,63.53a.56.56,0,0,1,0,1,2,2,0,0,1-1.8,0,.55.55,0,0,1,0-1A2,2,0,0,1,250.69,63.53Z"/><polygon class="cls-24" points="328.48 255.83 269.64 289.81 308.89 312.29 367.73 278.32 328.48 255.83"/><polygon class="cls-25" points="328.5 258.67 328.5 264.16 279.47 292.47 274.57 289.81 328.5 258.67"/><polygon class="cls-26" points="328.48 264.16 279.44 292.47 308.89 309.29 357.93 280.98 328.48 264.16"/><polygon class="cls-27" points="362.86 278.15 328.5 258.67 328.5 264.16 357.95 280.98 362.86 278.15"/><polygon class="cls-28" points="269.64 413.73 308.86 436.85 308.86 312.29 269.64 289.64 269.64 413.73"/><g class="cls-9"><polygon class="cls-29" points="291.7 359.08 291.7 370.41 306.41 378.9 306.41 367.58 291.7 359.08"/></g><polygon class="cls-30" points="367.7 278.4 308.86 312.29 308.86 436.85 367.7 402.96 367.7 278.4"/><polygon class="cls-7" points="291.7 308.13 291.7 319.45 306.41 327.94 306.41 316.62 291.7 308.13"/><polygon class="cls-7" points="272.09 296.8 272.09 308.13 286.8 316.62 286.8 305.3 272.09 296.8"/><polygon class="cls-7" points="291.7 325.11 291.7 336.44 306.41 344.93 306.41 333.61 291.7 325.11"/><polygon class="cls-7" points="272.09 313.79 272.09 325.11 286.8 333.61 286.8 322.28 272.09 313.79"/><polygon class="cls-7" points="291.7 342.1 291.7 353.42 306.41 361.91 306.41 350.59 291.7 342.1"/><polygon class="cls-7" points="272.09 330.77 272.09 342.1 286.8 350.59 286.8 339.27 272.09 330.77"/><polygon class="cls-7" points="272.09 347.76 272.09 359.08 286.8 367.58 286.8 356.25 272.09 347.76"/><polygon class="cls-7" points="291.7 376.07 291.7 387.39 306.41 395.89 306.41 384.56 291.7 376.07"/><polygon class="cls-7" points="272.09 364.75 272.09 376.07 286.8 384.56 286.8 373.24 272.09 364.75"/><polygon class="cls-7" points="291.7 393.06 291.7 404.38 306.41 412.87 306.41 401.55 291.7 393.06"/><polygon class="cls-7" points="272.09 381.73 272.09 393.06 286.8 401.55 286.8 390.22 272.09 381.73"/><polygon class="cls-7" points="291.7 410.04 291.7 421.37 306.41 429.86 306.41 418.53 291.7 410.04"/><polygon class="cls-7" points="272.09 398.72 272.09 410.04 286.8 418.53 286.8 407.21 272.09 398.72"/><polygon class="cls-31" points="154.33 245.83 154.33 257.15 169.04 265.65 169.04 254.32 154.33 245.83"/></svg>