<svg id="Objects" xmlns="http://www.w3.org/2000/svg" xmlns:xlink="http://www.w3.org/1999/xlink" width="500" height="500" viewBox="0 0 500 500"><defs><style>.cls-1{fill:#3d3d3d;}.cls-2{fill:#565656;}.cls-3{fill:url(#linear-gradient);}.cls-4{fill:url(#linear-gradient-2);}.cls-5{fill:#6f6f6f;}.cls-6{fill:url(#linear-gradient-3);}.cls-7{fill:url(#linear-gradient-4);}.cls-8{fill:url(#linear-gradient-5);}.cls-9{fill:url(#linear-gradient-6);}.cls-10{fill:url(#linear-gradient-7);}.cls-11{fill:url(#linear-gradient-8);}.cls-12{fill:url(#linear-gradient-9);}.cls-13{fill:url(#linear-gradient-10);}.cls-14{fill:#282828;}.cls-15{fill:#171717;}.cls-16{fill:url(#linear-gradient-11);}.cls-17{fill:url(#linear-gradient-12);}.cls-18{fill:url(#linear-gradient-13);}.cls-19{fill:url(#linear-gradient-14);}.cls-20{fill:url(#linear-gradient-15);}.cls-21{fill:url(#linear-gradient-16);}.cls-22{fill:url(#linear-gradient-17);}.cls-23{fill:url(#linear-gradient-18);}.cls-24{fill:url(#linear-gradient-19);}.cls-25{fill:url(#linear-gradient-20);}.cls-26{fill:#005eff;}.cls-27{fill:#a0a0a0;}.cls-28{fill:#1a89ff;}</style><linearGradient id="linear-gradient" x1="297.92" y1="291.31" x2="324.7" y2="244.93" gradientUnits="userSpaceOnUse"><stop offset="0" stop-color="#8c8c8c"/><stop offset="1" stop-color="#6f6f6f"/></linearGradient><linearGradient id="linear-gradient-2" x1="289.17" y1="273.26" x2="342.7" y2="273.26" gradientUnits="userSpaceOnUse"><stop offset="0" stop-color="#3d3d3d"/><stop offset="1" stop-color="#565656"/></linearGradient><linearGradient id="linear-gradient-3" x1="274.51" y1="277.79" x2="301.29" y2="231.41" xlink:href="#linear-gradient"/><linearGradient id="linear-gradient-4" x1="265.77" y1="259.75" x2="319.29" y2="259.75" xlink:href="#linear-gradient-2"/><linearGradient id="linear-gradient-5" x1="290.17" y1="159.82" x2="294.82" y2="151.77" xlink:href="#linear-gradient"/><linearGradient id="linear-gradient-6" x1="285.53" y1="183.94" x2="290.16" y2="183.94" gradientUnits="userSpaceOnUse"><stop offset="0" stop-color="#6f6f6f"/><stop offset="1" stop-color="#565656"/></linearGradient><linearGradient id="linear-gradient-7" x1="290.16" y1="182.63" x2="299.42" y2="182.63" xlink:href="#linear-gradient-2"/><linearGradient id="linear-gradient-8" x1="259.74" y1="142.25" x2="264.39" y2="134.2" xlink:href="#linear-gradient"/><linearGradient id="linear-gradient-9" x1="255.1" y1="166.38" x2="259.73" y2="166.38" xlink:href="#linear-gradient-6"/><linearGradient id="linear-gradient-10" x1="259.73" y1="165.06" x2="268.99" y2="165.06" xlink:href="#linear-gradient-2"/><linearGradient id="linear-gradient-11" x1="205.65" y1="314.01" x2="251.52" y2="234.56" gradientUnits="userSpaceOnUse"><stop offset="0" stop-color="#f3f3f3"/><stop offset="1" stop-color="#dcdcdc"/></linearGradient><linearGradient id="linear-gradient-12" x1="-6438.81" y1="243.85" x2="-6322.08" y2="243.85" gradientTransform="translate(6624.73)" gradientUnits="userSpaceOnUse"><stop offset="0" stop-color="#8c8c8c"/><stop offset="0.34" stop-color="#6f6f6f"/><stop offset="0.47" stop-color="#565656"/><stop offset="1" stop-color="#6f6f6f"/></linearGradient><linearGradient id="linear-gradient-13" x1="-6436.27" y1="192.09" x2="-6436.25" y2="192.09" gradientTransform="translate(6624.73)" gradientUnits="userSpaceOnUse"><stop offset="0" stop-color="#565656"/><stop offset="0.3" stop-color="#4d4d4d"/><stop offset="0.79" stop-color="#353535"/><stop offset="1" stop-color="#282828"/></linearGradient><linearGradient id="linear-gradient-14" x1="228.65" y1="218.55" x2="257.92" y2="167.87" xlink:href="#linear-gradient"/><linearGradient id="linear-gradient-15" x1="-6435.07" y1="246.19" x2="-6326.76" y2="246.19" gradientTransform="translate(6624.73)" gradientUnits="userSpaceOnUse"><stop offset="0" stop-color="#171717"/><stop offset="1" stop-color="#3d3d3d"/></linearGradient><linearGradient id="linear-gradient-16" x1="-6434.54" y1="244.69" x2="-6326.78" y2="244.69" gradientTransform="translate(6624.73)" gradientUnits="userSpaceOnUse"><stop offset="0" stop-color="#3d3d3d"/><stop offset="1" stop-color="#171717"/></linearGradient><linearGradient id="linear-gradient-17" x1="-6467.43" y1="314.95" x2="-6322.08" y2="314.95" gradientTransform="translate(6624.73)" gradientUnits="userSpaceOnUse"><stop offset="0" stop-color="#dcdcdc"/><stop offset="0.26" stop-color="#bebebe"/><stop offset="0.43" stop-color="#a4a4a4"/><stop offset="1" stop-color="#bebebe"/></linearGradient><linearGradient id="linear-gradient-18" x1="-6397.78" y1="364.72" x2="-6397.64" y2="364.72" gradientTransform="translate(6624.73)" gradientUnits="userSpaceOnUse"><stop offset="0" stop-color="#bdbdbd"/><stop offset="0.01" stop-color="#bcbcbc"/><stop offset="0.4" stop-color="#a1a1a1"/><stop offset="0.74" stop-color="#919191"/><stop offset="1" stop-color="#8b8b8b"/></linearGradient><linearGradient id="linear-gradient-19" x1="270.87" y1="154.67" x2="272.03" y2="152.67" xlink:href="#linear-gradient"/><linearGradient id="linear-gradient-20" x1="252.74" y1="155.95" x2="287.83" y2="155.95" xlink:href="#linear-gradient-6"/></defs><polygon class="cls-1" points="291.79 211.04 291.78 216.47 283.57 211.73 283.57 206.33 291.79 211.04"/><polygon class="cls-1" points="259.28 192.26 259.28 197.69 251.06 192.95 251.06 187.55 259.28 192.26"/><polygon class="cls-2" points="300.05 210.4 300.05 215.82 242.85 182.8 242.85 177.56 300.05 210.4"/><polygon class="cls-3" points="289.18 286.26 279.91 280.88 333.44 249.97 342.7 255.36 289.18 286.26"/><polygon class="cls-4" points="289.18 286.09 289.18 291.17 342.7 260.26 342.7 255.36 289.18 286.09"/><polygon class="cls-5" points="289.18 286.09 289.18 291.17 279.91 285.77 279.91 280.88 289.18 286.09"/><polygon class="cls-6" points="265.77 272.75 256.5 267.36 310.03 236.46 319.29 241.84 265.77 272.75"/><polygon class="cls-7" points="265.77 272.57 265.77 277.65 319.29 246.75 319.29 241.84 265.77 272.57"/><polygon class="cls-5" points="265.77 272.57 265.77 277.65 256.5 272.26 256.5 267.36 265.77 272.57"/><polygon class="cls-8" points="290.16 159.73 299.43 154.51 294.79 151.75 285.53 157.14 290.16 159.73"/><polygon class="cls-9" points="290.16 159.73 290.16 210.75 285.53 207.99 285.53 157.14 290.16 159.73"/><polygon class="cls-10" points="290.16 159.73 290.16 210.75 299.43 205.36 299.43 154.51 290.16 159.73"/><polygon class="cls-11" points="259.73 142.16 268.99 136.94 264.36 134.18 255.1 139.57 259.73 142.16"/><polygon class="cls-12" points="259.73 142.16 259.73 193.18 255.1 190.42 255.1 139.57 259.73 142.16"/><polygon class="cls-13" points="259.73 142.16 259.73 193.18 268.99 187.79 268.99 136.94 259.73 142.16"/><path class="cls-14" d="M248.57,341.3c0-4.29-1.53-7.24-4-8.53-2.11-1.11-4.9-1-8,.66A5.18,5.18,0,0,1,238,334h0l4.91,2.85,0,0c2,1,3.23,3.34,3.23,6.73a17.53,17.53,0,0,1-.74,4.81l1.74.74A24,24,0,0,0,248.57,341.3Z"/><path class="cls-15" d="M220.38,352.41c0-6.54,4.6-14.5,10.26-17.77,2.87-1.65,5.45-1.79,7.31-.69h0l4.91,2.85-2,3.51v.25c0,6.44-4.45,14.25-10,17.61l-2.21,3.94-5.26-3h0C221.55,358,220.38,355.71,220.38,352.41Z"/><ellipse class="cls-14" cx="235.82" cy="349.48" rx="14.51" ry="8.38" transform="translate(-184.74 378.96) rotate(-60)"/><ellipse class="cls-2" cx="235.82" cy="349.48" rx="9.95" ry="5.74" transform="translate(-184.74 378.96) rotate(-60)"/><polygon class="cls-14" points="269.48 297.84 269.48 328.05 295.64 312.95 295.64 282.83 269.48 297.84"/><path class="cls-15" d="M274,317.39c0-8,5.63-17.79,12.58-21.8,3.51-2,6.69-2.2,9-.84h0l6,3.48-2.42,4.32c0,.1,0,.2,0,.3,0,7.91-5.47,17.48-12.27,21.6l-2.71,4.84-6.46-3.73h0C275.38,324.26,274,321.43,274,317.39Z"/><ellipse class="cls-14" cx="292.88" cy="313.79" rx="17.8" ry="10.28" transform="translate(-125.31 410.53) rotate(-60)"/><ellipse class="cls-2" cx="292.88" cy="313.79" rx="12.2" ry="7.05" transform="translate(-125.31 410.53) rotate(-60)"/><path class="cls-16" d="M200.06,310.78l-39-22.5a7.59,7.59,0,0,1,0-13.15l80.36-46.38,61.2,35.34-80.91,46.69A21.66,21.66,0,0,1,200.06,310.78Z"/><path class="cls-17" d="M300.1,192.22,253.74,219a24.36,24.36,0,0,1-24.33,0L191.16,196.9a5.35,5.35,0,0,1-2.7-4.64l-2.52,71.68v.49h0a5.57,5.57,0,0,0,2.78,4.54l40,23.09a25.39,25.39,0,0,0,25.43,0l48.48-28Z"/><path class="cls-18" d="M188.47,192v.14s0-.09,0-.14Z"/><path class="cls-19" d="M229.41,219,191.16,196.9a5.4,5.4,0,0,1,0-9.36l50.41-29.11,58.53,33.79L253.74,219A24.36,24.36,0,0,1,229.41,219Z"/><path class="cls-20" d="M229.41,224.39l-37.53-21.26-2.22,61,39.09,22.57a25.07,25.07,0,0,0,6.4,2.59V226.78A24.48,24.48,0,0,1,229.41,224.39Z"/><path class="cls-21" d="M298,261.37l-2.07-61.32-42.14,24.34a24.08,24.08,0,0,1-6.36,2.53v62.41a25.2,25.2,0,0,0,6.8-2.67Z"/><path class="cls-22" d="M256.8,290.55,223.13,310a24.44,24.44,0,0,1-24.45,0l-3.12-1.8-34.46-19.9a7.49,7.49,0,0,1-3.76-6.24h0v52.85h0a7.47,7.47,0,0,0,3.77,6.33l36.42,21a26.72,26.72,0,0,0,26,.39l.26-.13.77-.39a12,12,0,0,1-1.32-5.85c0-8.27,5.68-18.32,12.68-22.46,3.38-2,6.43-2.23,8.7-1,2.45,1.29,4,4.24,4,8.53a24,24,0,0,1-1.49,7.8L273.15,334a6.71,6.71,0,0,0,3.35-5.8v-8.65a33.65,33.65,0,0,1,7.91-21.68A16.53,16.53,0,0,1,297.92,292l1.6.08a3,3,0,0,0,3.14-3V264.09Z"/><path class="cls-23" d="M227.08,364.76h0l-.13-.07Z"/><polygon class="cls-24" points="287.83 164.35 252.75 144.21 255.06 142.88 290.15 163.13 287.83 164.35"/><polygon class="cls-1" points="287.83 164.35 287.83 167.68 290.15 166.34 290.15 163.13 287.83 164.35"/><polygon class="cls-25" points="287.83 164.35 287.83 167.68 252.75 147.43 252.75 144.21 287.83 164.35"/><path class="cls-26" d="M248.57,341.3a21.48,21.48,0,0,1-.81,5.56l9-5.22,19.29-11.13a6.66,6.66,0,0,0,.41-2.27V324.3l-19.7,11.37-8.27,4.77C248.55,340.73,248.57,341,248.57,341.3ZM157.3,326.86v6l0,.3a7.49,7.49,0,0,0,3.76,6.24l34.46,19.9,3.12,1.8a24.44,24.44,0,0,0,24.45,0l.76-.43a13.37,13.37,0,0,1-.68-4.37c0-.41,0-.82,0-1.24l-.13.07a24.44,24.44,0,0,1-24.45,0l-3.12-1.8L161.1,333.4a7.5,7.5,0,0,1-3.76-6.24Z"/><polygon class="cls-27" points="161.96 296.42 161.96 304.47 172.31 310.5 172.31 302.45 161.96 296.42"/><polygon class="cls-28" points="162.95 298.18 162.95 303.89 171.14 308.7 171.14 302.99 162.95 298.18"/><polygon class="cls-27" points="189.69 312.41 189.69 320.46 200.03 326.49 200.03 318.44 189.69 312.41"/><polygon class="cls-28" points="190.68 314.17 190.68 319.88 198.87 324.69 198.87 318.98 190.68 314.17"/></svg>