<svg id="Objects" xmlns="http://www.w3.org/2000/svg" xmlns:xlink="http://www.w3.org/1999/xlink" width="500" height="500" viewBox="0 0 500 500"><defs><style>.cls-1{fill:url(#linear-gradient);}.cls-2{fill:url(#linear-gradient-2);}.cls-3{fill:#171717;}.cls-4{fill:#a4a4a4;}.cls-5{fill:url(#linear-gradient-3);}.cls-6{fill:#0062ff;}.cls-7{fill:#296489;}.cls-8{fill:#8bc0ff;}.cls-9{fill:#622f7a;}.cls-10{fill:#8b8b8b;}</style><linearGradient id="linear-gradient" x1="100.63" y1="250.97" x2="396.03" y2="250.97" gradientUnits="userSpaceOnUse"><stop offset="0" stop-color="#dcdcdc"/><stop offset="1" stop-color="#bebebe"/></linearGradient><linearGradient id="linear-gradient-2" x1="445.5" y1="362" x2="55.54" y2="136.86" gradientUnits="userSpaceOnUse"><stop offset="0.19" stop-color="#8c8c8c"/><stop offset="0.35" stop-color="#dcdcdc"/><stop offset="1" stop-color="#f3f3f3"/></linearGradient><linearGradient id="linear-gradient-3" x1="367.48" y1="258.7" x2="149.57" y2="258.7" gradientTransform="matrix(-1, 0, 0, 1, 500, 0)" gradientUnits="userSpaceOnUse"><stop offset="0" stop-color="#171717"/><stop offset="1" stop-color="#3d3d3d"/></linearGradient></defs><path class="cls-1" d="M101.24,58.4c0-3.24,2.3-4.54,5.12-2.92L391,219.79a11.21,11.21,0,0,1,5.08,8.8l-.61,215c0,3.24-2.3,4.54-5.12,2.92L105.71,282.15a11.21,11.21,0,0,1-5.08-8.8Z"/><path class="cls-2" d="M105.24,55a3.84,3.84,0,0,0-.84-.18h-.07a3.14,3.14,0,0,0-.82,0h-.05a2.57,2.57,0,0,0-.73.28l3.34-1.94,0,0a1.42,1.42,0,0,1,.25-.12l.27-.1.19,0h0l.06,0a3,3,0,0,1,.31,0h.52l.2,0,.44.1.2.07.18.06a2,2,0,0,1,.22.08,4.76,4.76,0,0,1,.72.35L394.29,217.85a8.12,8.12,0,0,1,.95.66,3.85,3.85,0,0,1,.3.27l.45.39.19.2.17.18.2.21c.14.16.28.33.41.5l.14.19.07.1c0,.06.09.11.13.18s.2.29.29.44.18.28.27.43l0,0,0,0,.2.36.22.43.18.4v0c.07.15.13.3.19.45s.12.32.17.48.05.17.07.25a.3.3,0,0,1,0,.1.84.84,0,0,0,.05.17c0,.2.1.39.14.59s0,.23.06.35a1.08,1.08,0,0,1,0,.19.86.86,0,0,1,0,.17,6.69,6.69,0,0,1,.07,1l-.61,215a3.55,3.55,0,0,1-1.49,3.27l-3.34,1.94a3.57,3.57,0,0,0,1.49-3.27L396,228.59a7.68,7.68,0,0,0-.1-1.16l0-.19a7.43,7.43,0,0,0-.26-1.11l0-.1a11,11,0,0,0-.44-1.21v0c-.18-.4-.38-.8-.6-1.19l0,0c-.22-.38-.46-.74-.71-1.09l-.07-.1q-.36-.46-.75-.9l-.17-.17c-.21-.22-.42-.42-.64-.61l-.3-.26a9.54,9.54,0,0,0-.95-.66L106.36,55.48a7,7,0,0,0-.94-.43Z"/><path class="cls-3" d="M107.89,79.6,389.24,242l0-15.46L107.93,64.15ZM377.28,227.38c0-2.43,1.73-3.4,3.85-2.17a8.41,8.41,0,0,1,3.82,6.6c0,2.44-1.74,3.42-3.84,2.21A8.44,8.44,0,0,1,377.28,227.38ZM364,219.74c0-2.43,1.73-3.4,3.85-2.18a8.42,8.42,0,0,1,3.82,6.61c0,2.43-1.72,3.43-3.84,2.21A8.47,8.47,0,0,1,364,219.74Zm-13.23-7.64c0-2.43,1.72-3.41,3.84-2.18a8.4,8.4,0,0,1,3.83,6.61c0,2.44-1.74,3.42-3.85,2.2A8.41,8.41,0,0,1,350.81,212.1Z"/><path class="cls-4" d="M354.65,209.92a8.4,8.4,0,0,1,3.83,6.61c0,2.44-1.74,3.42-3.85,2.2a8.41,8.41,0,0,1-3.82-6.63C350.82,209.67,352.53,208.69,354.65,209.92Z"/><path class="cls-4" d="M367.89,217.56a8.42,8.42,0,0,1,3.82,6.61c0,2.43-1.72,3.43-3.84,2.21a8.47,8.47,0,0,1-3.83-6.64C364,217.31,365.77,216.34,367.89,217.56Z"/><polygon class="cls-5" points="107.89 79.6 389.24 242.04 388.68 437.8 107.33 275.36 107.89 79.6"/><path class="cls-4" d="M381.13,225.21a8.41,8.41,0,0,1,3.82,6.6c0,2.44-1.74,3.42-3.84,2.21a8.44,8.44,0,0,1-3.83-6.63C377.28,225,379,224,381.13,225.21Z"/><path class="cls-6" d="M255.57,224.23c0,3.65-1.32,6.21-3.4,7.41l8.48,14.82.06,0c4.31-2.44,7-7.7,7-15.2Z"/><path class="cls-7" d="M246.38,246c5.54,2.55,10.52,2.59,14.28.47h0C256.86,248.57,251.89,248.53,246.38,246Z"/><path class="cls-6" d="M232.54,210.93A25.31,25.31,0,0,0,244,230.8l0,13.94c-6.54-3.78-12.44-10.23-16.7-17.62s-6.89-15.7-6.87-23.2Z"/><path class="cls-8" d="M252.17,231.64h-.07c-2.08,1.17-4.93,1-8.09-.84l0,13.94c6.5,3.75,12.39,4.14,16.69,1.72l0,0Z"/><path class="cls-8" d="M244.13,190.4c-13.07-7.54-23.69-1.5-23.73,13.52l12.14,7c0-7.31,5.18-10.27,11.55-6.59s11.5,12.57,11.48,19.89l12.13,7C267.74,216.21,257.19,198,244.13,190.4Z"/><path class="cls-8" d="M179,180c0,3.65-1.31,6.22-3.4,7.4l8.49,14.83,0,0c4.31-2.44,7-7.71,7-15.2Z"/><path class="cls-9" d="M167.42,200.54c6.5,3.75,12.4,4.14,16.69,1.73h0C179.77,204.68,173.89,204.28,167.42,200.54Z"/><path class="cls-6" d="M175.57,187.46c-2.1,1.16-5,1-8.11-.86a23.46,23.46,0,0,1-8.14-8.62A23.13,23.13,0,0,1,156,166.74l-12.14-7c0,7.49,2.6,15.81,6.88,23.21s10.17,13.84,16.69,17.6,12.4,4.14,16.74,1.7Z"/><path class="cls-8" d="M143.85,159.73l12.14,7c0-7.32,5.18-10.27,11.55-6.6l0-13.94C154.52,138.66,143.89,144.7,143.85,159.73Z"/><path class="cls-6" d="M167.58,146.2l0,13.94C173.9,163.82,179,172.72,179,180l12.13,7C191.2,172,180.64,153.76,167.58,146.2Z"/><path class="cls-3" d="M167.5,225.42c-12.89-7.44-23.39-1.47-23.44,13.36s10.4,32.88,23.29,40.32,23.4,1.48,23.45-13.34S180.42,232.88,167.5,225.42Zm-.14,51.09c-11.66-6.73-21.07-23-21-36.43s9.52-18.79,21.17-12.06,21.09,23,21,36.43S179,283.24,167.36,276.51Z"/><path class="cls-10" d="M167.5,231.72l-.06,20.55L180,274.1c3.24-1.87,5.28-5.82,5.29-11.5C185.35,251.24,177.37,237.42,167.5,231.72Z"/><path class="cls-6" d="M243.83,296.39l-17.74-10.24c0,11.35,8,25.17,17.84,30.87,4.9,2.83,9.33,3.12,12.57,1.31Z"/><path class="cls-8" d="M244,275.91c-9.87-5.69-17.92-1.14-17.95,10.22l17.74,10.24,12.77-7.26C253.36,283.58,249,278.75,244,275.91Z"/><path class="cls-3" d="M244.05,269.62c-12.9-7.45-23.4-1.47-23.44,13.35S231,315.85,243.9,323.3s23.4,1.48,23.44-13.35S257,277.07,244.05,269.62Zm-.15,51.08c-11.65-6.72-21.07-23-21-36.42s9.52-18.8,21.17-12.07,21.08,23.05,21,36.44S255.57,327.44,243.9,320.7Z"/><path class="cls-10" d="M256.6,289.11l-12.77,7.26-17.74-10.22,17.74,10.24,12.67,21.94.08,0c3.25-1.87,5.27-5.83,5.29-11.51S259.85,294.71,256.6,289.11Z"/><path class="cls-8" d="M320.52,340.65l.06-20.55c-9.87-5.68-17.91-1.13-17.95,10.24s8,25.17,17.84,30.87c4.91,2.83,9.34,3.13,12.66,1.28Z"/><path class="cls-10" d="M333.14,333.31c-3.23-5.54-7.65-10.37-12.56-13.21l-.05,20.58L338.42,351C338.43,345.26,336.4,338.9,333.14,333.31Z"/><path class="cls-6" d="M320.52,340.67l12.61,21.82c3.25-1.87,5.27-5.81,5.29-11.49Z"/><path class="cls-3" d="M320.6,313.81c-12.91-7.45-23.4-1.47-23.44,13.36s10.38,32.88,23.28,40.32,23.4,1.47,23.44-13.35S333.5,321.26,320.6,313.81Zm-.15,51.09c-11.65-6.73-21.07-23-21-36.43s9.52-18.79,21.17-12.06,21.07,23,21,36.43S332.1,371.63,320.45,364.9Z"/><path class="cls-8" d="M297,248.12l12.13,7c0-3.67,1.31-6.22,3.4-7.43s5-1,8.15.84l0-13.94C307.61,227.05,297,233.09,297,248.12Z"/><path class="cls-6" d="M312.4,266.37a23.18,23.18,0,0,1-3.32-11.25l-12.13-7c0,7.49,2.6,15.81,6.86,23.2s10.17,13.84,16.71,17.61l0-13.94A23.5,23.5,0,0,1,312.4,266.37Z"/><path class="cls-6" d="M337.38,252.22c-4.26-7.39-10.18-13.86-16.71-17.63l0,13.94c6.37,3.68,11.51,12.58,11.49,19.89,0,3.65-1.33,6.2-3.41,7.41l4.27,7.39,4.28,7.39c4.3-2.42,7-7.67,7-15.18S341.64,259.59,337.38,252.22Z"/><path class="cls-8" d="M333,283.22l-4.27-7.39h-.06c-2.08,1.17-4.93,1-8.09-.85l0,13.94c6.5,3.75,12.39,4.14,16.68,1.73l.06,0Z"/><path class="cls-8" d="M149.54,241.94l17.9,10.33.06-20.55C157.62,226,149.57,230.58,149.54,241.94Z"/><path class="cls-6" d="M167.44,252.27l-17.9-10.33c0,11.34,8,25.18,17.84,30.88,4.94,2.86,9.41,3.13,12.65,1.28Z"/></svg>