<svg id="Objects" xmlns="http://www.w3.org/2000/svg" xmlns:xlink="http://www.w3.org/1999/xlink" width="500" height="500" viewBox="0 0 500 500"><defs><style>.cls-1{fill:url(#linear-gradient);}.cls-2{fill:url(#linear-gradient-2);}.cls-3{fill:url(#linear-gradient-3);}.cls-4{fill:#171717;}.cls-5{fill:#dcdcdc;}.cls-6{fill:#f8f9fc;}.cls-7{fill:url(#linear-gradient-4);}.cls-8{fill:url(#linear-gradient-5);}.cls-9{fill:url(#linear-gradient-6);}.cls-10{fill:url(#linear-gradient-7);}.cls-11{fill:url(#linear-gradient-8);}.cls-12{fill:url(#linear-gradient-9);}.cls-13{fill:url(#linear-gradient-10);}.cls-14{fill:url(#linear-gradient-11);}.cls-15{fill:#f3f3f3;}.cls-16{fill:#408bfc;}</style><linearGradient id="linear-gradient" x1="383.71" y1="298.65" x2="389.55" y2="298.65" gradientUnits="userSpaceOnUse"><stop offset="0" stop-color="#a4a4a4"/><stop offset="1" stop-color="#bebebe"/></linearGradient><linearGradient id="linear-gradient-2" x1="285.04" y1="171.09" x2="288.19" y2="165.63" gradientUnits="userSpaceOnUse"><stop offset="0" stop-color="#f3f3f3"/><stop offset="1" stop-color="#dcdcdc"/></linearGradient><linearGradient id="linear-gradient-3" x1="193.79" y1="242.86" x2="419.36" y2="242.86" gradientUnits="userSpaceOnUse"><stop offset="0" stop-color="#171717"/><stop offset="1" stop-color="#3d3d3d"/></linearGradient><linearGradient id="linear-gradient-4" x1="370.08" y1="307.74" x2="375.92" y2="307.74" xlink:href="#linear-gradient"/><linearGradient id="linear-gradient-5" x1="271.41" y1="180.18" x2="274.56" y2="174.71" xlink:href="#linear-gradient-2"/><linearGradient id="linear-gradient-6" x1="180.16" y1="251.95" x2="405.73" y2="251.95" xlink:href="#linear-gradient-3"/><linearGradient id="linear-gradient-7" x1="356.45" y1="316.82" x2="362.29" y2="316.82" xlink:href="#linear-gradient"/><linearGradient id="linear-gradient-8" x1="257.78" y1="189.26" x2="260.93" y2="183.8" xlink:href="#linear-gradient-2"/><linearGradient id="linear-gradient-9" x1="166.53" y1="261.04" x2="392.1" y2="261.04" xlink:href="#linear-gradient-3"/><linearGradient id="linear-gradient-10" x1="187.31" y1="321.89" x2="136.75" y2="234.33" gradientUnits="userSpaceOnUse"><stop offset="0" stop-color="#408bfc"/><stop offset="0" stop-color="#3b88fc"/><stop offset="0.02" stop-color="#257afd"/><stop offset="0.04" stop-color="#146ffe"/><stop offset="0.07" stop-color="#0968ff"/><stop offset="0.11" stop-color="#0263ff"/><stop offset="0.21" stop-color="#0062ff"/><stop offset="0.57" stop-color="#6ea6ff"/><stop offset="1" stop-color="#97c1ff"/></linearGradient><linearGradient id="linear-gradient-11" x1="109.48" y1="287.84" x2="180.95" y2="287.84" gradientTransform="translate(163.38 -34.05) rotate(30)" gradientUnits="userSpaceOnUse"><stop offset="0" stop-color="#6ea6ff"/><stop offset="1" stop-color="#408bfc"/></linearGradient></defs><polygon class="cls-1" points="389.53 369.26 383.71 373.14 383.71 373.14 383.73 228.04 389.55 224.15 389.53 369.26"/><polygon class="cls-2" points="383.73 228.04 389.52 224.13 189.51 108.68 183.71 112.59 383.73 228.04"/><polygon class="cls-3" points="383.71 373.14 183.7 257.69 183.71 112.59 383.73 228.04 383.71 373.14"/><polygon class="cls-4" points="383.72 243.82 183.71 128.38 183.71 112.59 383.73 228.04 383.72 243.82"/><ellipse class="cls-5" cx="192.07" cy="125.49" rx="2.21" ry="3.83" transform="translate(-37.01 112.85) rotate(-30)"/><ellipse class="cls-5" cx="201.86" cy="131.14" rx="2.21" ry="3.83" transform="translate(-38.53 118.5) rotate(-30)"/><ellipse class="cls-5" cx="211.65" cy="136.79" rx="2.21" ry="3.83" transform="translate(-40.04 124.15) rotate(-30)"/><polygon class="cls-6" points="353.47 292.13 213.94 211.59 213.95 184.74 353.48 265.27 353.47 292.13"/><polygon class="cls-7" points="375.9 378.34 370.08 382.23 370.08 382.23 370.1 237.12 375.92 233.24 375.9 378.34"/><polygon class="cls-8" points="370.1 237.12 375.89 233.22 175.88 117.77 170.08 121.67 370.1 237.12"/><polygon class="cls-9" points="370.08 382.23 170.06 266.78 170.08 121.68 370.1 237.12 370.08 382.23"/><polygon class="cls-4" points="370.09 252.91 170.08 137.46 170.08 121.68 370.1 237.12 370.09 252.91"/><ellipse class="cls-5" cx="178.44" cy="134.58" rx="2.21" ry="3.83" transform="translate(-43.38 107.25) rotate(-30)"/><ellipse class="cls-5" cx="188.23" cy="140.23" rx="2.21" ry="3.83" transform="translate(-44.9 112.9) rotate(-30)"/><ellipse class="cls-5" cx="198.02" cy="145.88" rx="2.21" ry="3.83" transform="translate(-46.41 118.55) rotate(-30)"/><polygon class="cls-6" points="339.84 301.21 200.31 220.68 200.32 193.83 339.85 274.36 339.84 301.21"/><polygon class="cls-10" points="362.27 387.43 356.45 391.32 356.45 391.32 356.46 246.21 362.29 242.33 362.27 387.43"/><polygon class="cls-11" points="356.46 246.21 362.25 242.3 162.25 126.86 156.45 130.76 356.46 246.21"/><polygon class="cls-12" points="356.45 391.31 156.44 275.87 156.45 130.76 356.46 246.21 356.45 391.31"/><polygon class="cls-4" points="356.46 262 156.45 146.55 156.45 130.76 356.46 246.21 356.46 262"/><ellipse class="cls-5" cx="164.81" cy="143.67" rx="2.21" ry="3.83" transform="translate(-49.75 101.65) rotate(-30)"/><ellipse class="cls-5" cx="174.6" cy="149.32" rx="2.21" ry="3.83" transform="matrix(0.87, -0.5, 0.5, 0.87, -51.27, 107.3)"/><ellipse class="cls-5" cx="184.39" cy="154.97" rx="2.21" ry="3.83" transform="translate(-52.78 112.96) rotate(-30)"/><polygon class="cls-6" points="326.21 310.3 186.68 229.76 186.69 202.91 326.22 283.45 326.21 310.3"/><path class="cls-13" d="M132.49,262.78l38.07,68.78,9.12-5.32c6.27-3.82,10.13-11.74,10.13-22.93,0-22.79-16-50.5-35.73-61.89-9.88-5.7-18.82-6.24-25.29-2.49l-9.33,5.45Z"/><ellipse class="cls-14" cx="145.22" cy="287.84" rx="29.18" ry="50.53" transform="matrix(0.87, -0.5, 0.5, 0.87, -124.47, 111.17)"/><path class="cls-15" d="M138.18,302.38l-8.09-14.16c-.91-1.58-.6-3.61.71-4.27a3,3,0,0,1,3.95,1.5l4.8,8.44,20-11.56c.91-.53,2.38.33,3.29,1.9s.91,3.29,0,3.81Z"/><ellipse class="cls-16" cx="193.48" cy="216.14" rx="1.3" ry="2.25" transform="translate(-82.15 125.7) rotate(-30)"/><ellipse class="cls-16" cx="193.48" cy="225.35" rx="1.3" ry="2.25" transform="translate(-86.75 126.93) rotate(-30)"/><polygon class="cls-16" points="200.57 233.22 198.47 230.99 204.08 218.78 206.18 221 200.57 233.22"/><polygon class="cls-16" points="209.07 238.13 206.97 235.9 212.58 223.68 214.68 225.91 209.07 238.13"/></svg>