<svg xmlns="http://www.w3.org/2000/svg" xmlns:xlink="http://www.w3.org/1999/xlink" width="500" height="500" viewBox="0 0 500 500"><defs><style>.cls-1{isolation:isolate;}.cls-2{fill:url(#linear-gradient);}.cls-3{fill:url(#linear-gradient-2);}.cls-4,.cls-5{fill:#f3f3f3;}.cls-5{opacity:0.4;mix-blend-mode:multiply;}.cls-6{fill:#408bfc;}.cls-7{fill:none;stroke:#8b8b8b;stroke-miterlimit:10;stroke-width:0.72px;}.cls-8{fill:#8b8b8b;}.cls-9{fill:#fff;}.cls-10{fill:#dcdcdc;}.cls-11{fill:#bdbdbd;}</style><linearGradient id="linear-gradient" x1="249.03" y1="173.15" x2="251.02" y2="169.7" gradientUnits="userSpaceOnUse"><stop offset="0" stop-color="#dcdcdc"/><stop offset="1" stop-color="#bebebe"/></linearGradient><linearGradient id="linear-gradient-2" x1="351.38" y1="309.65" x2="355.36" y2="309.65" gradientUnits="userSpaceOnUse"><stop offset="0" stop-color="#8c8c8c"/><stop offset="1" stop-color="#a4a4a4"/></linearGradient></defs><g class="cls-1"><g id="Objects"><polygon class="cls-2" points="351.4 232.22 355.36 229.94 148.66 110.63 144.69 112.91 351.4 232.22"/><polygon class="cls-3" points="355.34 387.09 355.36 229.94 351.4 232.22 351.38 389.37 355.34 387.09"/><polygon class="cls-4" points="351.38 389.37 144.69 270.08 144.69 112.91 351.4 232.22 351.38 389.37"/><polygon class="cls-5" points="323.62 340.01 217.59 278.82 217.6 205.96 323.63 267.16 323.62 340.01"/><path class="cls-6" d="M227,276.74l86,49.6s-6-40.79-10.77-43.52-7.16,12.85-10.71,10.8-8.07-16.63-10.91-18.27-6.89,12.42-10.52,10.33-7.82-34.86-11.23-36.83-7.4,17.57-10.59,15.72-6.94-34.32-10.71-36.49S227,276.74,227,276.74Z"/><polygon class="cls-7" points="323.62 340.01 217.59 278.82 217.6 205.96 323.63 267.16 323.62 340.01"/><polygon class="cls-8" points="218.69 207.85 216.5 206.58 216.5 204.05 218.69 205.31 218.69 207.85"/><polygon class="cls-8" points="218.69 280.71 216.5 279.44 216.5 276.91 218.69 278.18 218.69 280.71"/><polygon class="cls-8" points="218.69 244.28 216.49 243.01 216.49 240.48 218.69 241.75 218.69 244.28"/><polygon class="cls-8" points="271.71 238.45 269.51 237.18 269.51 234.65 271.71 235.91 271.71 238.45"/><polygon class="cls-6" points="324.72 269.05 322.53 267.78 322.53 265.25 324.72 266.51 324.72 269.05"/><polygon class="cls-8" points="324.72 305.48 322.52 304.21 322.52 301.68 324.72 302.94 324.72 305.48"/><polygon class="cls-8" points="324.72 342.04 322.52 340.77 322.52 338.24 324.72 339.51 324.72 342.04"/><polygon class="cls-8" points="269.22 309.92 267.03 308.66 267.03 306.12 269.22 307.39 269.22 309.92"/><polygon class="cls-8" points="332.94 283.3 314.3 272.53 314.3 251.01 332.94 261.77 332.94 283.3"/><path class="cls-9" d="M328.22,277.48,318,271.58a2.26,2.26,0,0,1-1-1.77V258c0-.65.45-.91,1-.59l4.6,2.66v1.18l-4.6-2.66V270.4l10.22,5.9V271l1,.59v5.31C329.24,277.54,328.78,277.81,328.22,277.48Zm-2.55-16.82v1.18l2.85,1.65L324.13,266l.72,1.25,4.39-2.53V268l1,.59v-5.32Z"/><polygon class="cls-10" points="144.64 270.11 203.03 303.81 203.04 163.66 144.66 129.96 144.64 270.11"/><polygon class="cls-11" points="194.73 179.88 153.33 155.98 153.33 149.47 194.73 173.36 194.73 179.88"/><polygon class="cls-11" points="194.73 193.52 153.33 169.62 153.33 163.1 194.73 187 194.73 193.52"/><polygon class="cls-11" points="194.73 207.16 163.58 189.18 163.58 182.66 194.73 200.64 194.73 207.16"/><polygon class="cls-11" points="194.73 220.79 163.58 202.82 163.58 196.3 194.73 214.28 194.73 220.79"/><polygon class="cls-11" points="194.73 234.43 163.58 216.46 163.58 209.94 194.73 227.92 194.73 234.43"/><polygon class="cls-11" points="194.72 248.07 163.58 230.09 163.58 223.58 194.72 241.56 194.72 248.07"/><polygon class="cls-11" points="194.72 261.71 163.58 243.73 163.58 237.22 194.72 255.2 194.72 261.71"/><polygon class="cls-11" points="194.72 275.35 163.57 257.37 163.57 250.86 194.72 268.84 194.72 275.35"/><polygon class="cls-11" points="194.72 288.99 163.57 271.01 163.57 264.5 194.72 282.48 194.72 288.99"/><polygon class="cls-11" points="351.4 250.08 144.69 130.77 144.69 112.91 351.4 232.22 351.4 250.08"/><path class="cls-8" d="M347,235.52l-1.8-1a3.78,3.78,0,0,0-2.08-2.79,1,1,0,0,0-1.38.8l-4.63-2.67v.81l4.63,2.67a3.74,3.74,0,0,0,2.08,2.8,1,1,0,0,0,1.38-.8l1.8,1Zm-3.53-.4a2.33,2.33,0,0,1-1.06-1.84c0-.67.47-.95,1.06-.61a2.36,2.36,0,0,1,1.06,1.83C344.5,235.18,344,235.45,343.44,235.12Zm-6.36,2,1.8,1A3.78,3.78,0,0,0,341,241a1,1,0,0,0,1.38-.8l4.63,2.67v-.81l-4.63-2.67a3.74,3.74,0,0,0-2.08-2.8,1,1,0,0,0-1.38.8l-1.8-1Zm2.47,1c0-.68.48-1,1.06-.62a2.33,2.33,0,0,1,1.06,1.84c0,.67-.47.95-1.06.61A2.36,2.36,0,0,1,339.55,238.18Z"/></g></g></svg>