<svg id="Objects" xmlns="http://www.w3.org/2000/svg" xmlns:xlink="http://www.w3.org/1999/xlink" width="500" height="500" viewBox="0 0 500 500"><defs><style>.cls-1{fill:url(#linear-gradient);}.cls-2{fill:url(#linear-gradient-2);}.cls-3{fill:url(#linear-gradient-3);}.cls-4{fill:url(#linear-gradient-4);}.cls-5{fill:#dbdbdb;}.cls-6{fill:url(#linear-gradient-5);}.cls-7{fill:url(#linear-gradient-6);}.cls-8{fill:url(#linear-gradient-7);}.cls-9{fill:url(#linear-gradient-8);}.cls-10{fill:url(#linear-gradient-9);}.cls-11{fill:#3d3d3d;}.cls-12{fill:url(#linear-gradient-10);}.cls-13{fill:#a3a3a3;}.cls-14{fill:#1a89ff;}.cls-15{fill:#0046e2;}.cls-16{fill:#8bc0ff;}.cls-17{fill:#005eff;}.cls-18{fill:#f3f3f3;}</style><linearGradient id="linear-gradient" x1="250.02" y1="215.03" x2="290.82" y2="144.35" gradientUnits="userSpaceOnUse"><stop offset="0" stop-color="#f3f3f3"/><stop offset="1" stop-color="#dcdcdc"/></linearGradient><linearGradient id="linear-gradient-2" x1="256.18" y1="209.87" x2="284.68" y2="160.51" xlink:href="#linear-gradient"/><linearGradient id="linear-gradient-3" x1="249.73" y1="163.24" x2="357.12" y2="163.24" gradientUnits="userSpaceOnUse"><stop offset="0" stop-color="#dcdcdc"/><stop offset="1" stop-color="#bebebe"/></linearGradient><linearGradient id="linear-gradient-4" x1="176.06" y1="151.41" x2="249.73" y2="151.41" gradientUnits="userSpaceOnUse"><stop offset="0" stop-color="#a4a4a4"/><stop offset="1" stop-color="#bebebe"/></linearGradient><linearGradient id="linear-gradient-5" x1="290.53" y1="285.18" x2="372.13" y2="285.18" xlink:href="#linear-gradient-4"/><linearGradient id="linear-gradient-6" x1="168.77" y1="261.64" x2="290.69" y2="261.64" xlink:href="#linear-gradient-3"/><linearGradient id="linear-gradient-7" x1="-968.6" y1="309.82" x2="-1026.22" y2="330.79" gradientTransform="matrix(-1, 0, 0, 1, -665.97, 0)" gradientUnits="userSpaceOnUse"><stop offset="0" stop-color="#3d3d3d"/><stop offset="0.21" stop-color="#404040"/><stop offset="0.35" stop-color="#494949"/><stop offset="0.48" stop-color="#595959"/><stop offset="0.6" stop-color="#6f6f6f"/><stop offset="0.7" stop-color="#626262"/><stop offset="0.82" stop-color="#595959"/><stop offset="1" stop-color="#565656"/></linearGradient><linearGradient id="linear-gradient-8" x1="-972.37" y1="229.28" x2="-1022.45" y2="247.5" xlink:href="#linear-gradient-7"/><linearGradient id="linear-gradient-9" x1="173.59" y1="204.95" x2="290.8" y2="247.61" gradientTransform="translate(-2.9)" xlink:href="#linear-gradient-7"/><linearGradient id="linear-gradient-10" x1="232.44" y1="305.84" x2="312.65" y2="335.04" gradientTransform="translate(-22.43)" xlink:href="#linear-gradient-7"/></defs><polygon class="cls-1" points="372.04 191.24 249.61 120.91 168.93 167.91 290.69 238.51 372.04 191.24"/><polygon class="cls-2" points="193.18 173.29 249.73 140.33 347.75 196.95 290.69 229.79 193.18 173.29"/><polygon class="cls-3" points="249.73 129.53 357.12 191.56 347.75 196.95 249.73 140.33 249.73 129.53"/><polygon class="cls-4" points="216.78 148.74 183.58 144.48 176.06 148.86 176.06 172.4 184.1 168.03 193.18 173.29 249.73 140.33 249.73 129.53 216.78 148.74"/><polygon class="cls-5" points="324.12 210.62 331.41 214.85 298.22 210.6 290.93 206.37 324.12 210.62"/><polygon class="cls-5" points="209.49 144.51 216.78 148.74 183.58 144.48 176.29 140.25 209.49 144.51"/><polygon class="cls-6" points="331.41 214.85 331.41 214.85 298.22 210.6 290.69 214.97 290.53 379.09 371.96 332.26 372.13 191.27 331.41 214.85"/><polygon class="cls-7" points="169.02 144.19 168.77 308.81 290.53 379.09 290.69 214.97 169.02 144.19"/><polygon class="cls-8" points="361.9 326.25 361.86 279.16 300.98 314.35 300.98 361.43 361.9 326.25"/><polygon class="cls-9" points="361.9 232.6 361.86 208.98 300.98 244.17 300.98 267.78 361.9 232.6"/><polygon class="cls-10" points="178 208.4 178.04 184.78 280.56 244.17 280.56 267.78 178 208.4"/><polygon class="cls-11" points="178.02 314.28 178.02 266.81 200.18 279.62 200.18 327.09 178.02 314.28"/><polygon class="cls-12" points="219.63 326.4 219.67 279.3 280.56 314.49 280.56 361.58 219.63 326.4"/><polygon class="cls-13" points="168.84 214.86 168.73 227.82 290.6 298.18 290.6 285.34 168.84 214.86"/><polygon class="cls-14" points="249.81 321.52 128.05 251.28 128.05 246.38 249.81 316.98 249.81 321.52"/><polygon class="cls-15" points="249.64 316.98 290.6 285.34 290.6 298.18 249.64 321.52 249.64 316.98"/><polygon class="cls-13" points="128.05 246.38 169.02 214.86 168.91 227.82 128.05 251.28 128.05 246.38"/><polygon class="cls-16" points="168.84 214.86 290.6 285.34 249.64 316.98 127.88 246.38 168.84 214.86"/><polygon class="cls-17" points="179.22 276.05 219.71 244.27 209.53 238.39 169.05 270.15 179.22 276.05"/><polygon class="cls-17" points="219.91 299.64 260.46 267.82 250.28 261.94 209.74 293.75 219.91 299.64"/><polygon class="cls-17" points="199.57 287.85 240.09 256.05 229.9 250.16 189.4 281.95 199.57 287.85"/><polygon class="cls-17" points="158.93 264.21 199.34 232.5 189.15 226.61 148.71 258.35 158.93 264.21"/><polygon class="cls-17" points="270.65 273.71 230.09 305.54 240.26 311.44 280.84 279.6 270.65 273.71"/><polygon class="cls-17" points="179.17 220.72 138.69 252.49 128.05 246.38 169.02 214.86 179.17 220.72"/><polygon class="cls-15" points="138.69 252.49 138.69 257.42 128.05 251.28 128.05 246.38 138.69 252.49"/><polygon class="cls-15" points="148.71 258.35 158.93 264.21 158.93 269.09 148.71 263.19 148.71 258.35"/><polygon class="cls-15" points="169.05 270.15 179.22 276.05 179.22 280.8 169.05 274.93 169.05 270.15"/><polygon class="cls-15" points="189.4 281.95 199.57 287.85 199.57 292.54 189.4 286.67 189.4 281.95"/><polygon class="cls-15" points="209.74 293.75 219.91 299.64 219.91 304.27 209.74 298.4 209.74 293.75"/><polygon class="cls-15" points="230.09 305.54 240.26 311.44 240.26 316.01 230.09 310.14 230.09 305.54"/><polygon class="cls-18" points="290.68 214.95 168.82 144.35 176.29 140.25 298.22 210.6 290.68 214.95"/></svg>