<svg id="Objects" xmlns="http://www.w3.org/2000/svg" xmlns:xlink="http://www.w3.org/1999/xlink" width="500" height="500" viewBox="0 0 500 500"><defs><style>.cls-1{fill:#4a0e91;}.cls-2{fill:url(#linear-gradient);}.cls-3{fill:#f3f3f3;}.cls-4{fill:#35047c;}.cls-5{fill:url(#linear-gradient-2);}.cls-6{fill:none;stroke:#dbdbdb;stroke-miterlimit:10;stroke-width:0.84px;}</style><linearGradient id="linear-gradient" x1="190.41" y1="153.16" x2="355.31" y2="348.78" gradientUnits="userSpaceOnUse"><stop offset="0" stop-color="#f3f3f3"/><stop offset="1" stop-color="#bebebe"/></linearGradient><linearGradient id="linear-gradient-2" x1="127.78" y1="194.85" x2="332.07" y2="338.73" gradientUnits="userSpaceOnUse"><stop offset="0" stop-color="#fff"/><stop offset="1" stop-color="#dedede"/></linearGradient></defs><path class="cls-1" d="M303.76,366.49l-14.68-2.73L153,284.79l-14.21-13.06-14.22-20.88L117,229.34l-1.89-18.06,3.46-13.83,8.07-10.88,11.53-2.76,58.82-32S265.69,199,268.5,200s47.13,92.21,47.13,92.21l9.73,61.47-10.93,10Z"/><path class="cls-2" d="M385.92,306.4c0-23.55-16.53-52.18-36.93-64a35.68,35.68,0,0,0-14-4.9c-2.1-21.19-16.82-45.16-34.68-55.47a39.76,39.76,0,0,0-7.18-3.29c-5.41-17.32-17.69-34.33-32-42.58-10.07-5.82-19.14-6.13-25.52-1.94h0l-25.95,14.2c-6.78-1.67-12.87-1.09-17.86,1.46l0,0-.55.3,0,0-64.05,34.65,16.35-.36,19.9,7.51,1.45-12.89,7.94-9,6.75-2.89L182,167l10.23,3.54c.24-1.4,2.42-.72,3.26-.72,5.12,3.07,8.19,8.2,12.29,11.27,12.3,8.2,12.3,27,22.54,34.13,16.39,12.29,31.76,29.39,40,47.83.52,1,0,1.82-.81,2.46l1.66,9.24,14.43,3.92,13.66,11,12.46,15.79L316,315.1l4.84,13.23L322,341.65l-1.14,10.16-9.07,14.68,62.51-35.75,0,0-.56.28C381.2,327.52,385.92,319,385.92,306.4Z"/><path class="cls-3" d="M199.42,147.68a21.78,21.78,0,0,0-7.63,2.23l0,0-.55.3,0,0-64.05,34.65,3.59-.08c1.39-1.07,2.77-2.39,4.16-2.3l62.87-34,.06,0,.54-.29v0C198.71,148,199.07,147.83,199.42,147.68Z"/><path class="cls-3" d="M385.92,306.4c0-23.55-16.53-52.18-36.93-64-1-.57-2-1.08-2.95-1.56,20.67,12,37.41,41.08,37.41,65,0,12.78-4.79,21.48-12.41,25l.57-.28,0,0-58.27,33.31-1.58,2.57,62.51-35.75,0,0-.56.28C381.2,327.52,385.92,319,385.92,306.4Z"/><path class="cls-4" d="M270.3,263c-8.2-18.44-21.18-41.66-41.67-48-3.07-9.22-8.53-25.78-20.83-34-4.1-3.07-7.17-8.2-12.29-11.27-.84,0-3-.68-3.26.72l.3.11c.13,27.78,19.62,61.44,43.64,75.31l33.23,19.19.07.36C270.28,264.84,270.82,264.06,270.3,263Z"/><path class="cls-5" d="M286.16,277.64a35.84,35.84,0,0,0-14.11-4.94c-2.11-21.32-16.93-45.46-34.91-55.84a40.29,40.29,0,0,0-7.23-3.31c-5.45-17.44-17.81-34.56-32.2-42.87-19.41-11.2-35.14-2.14-35.18,20.23q-2.24-1.54-4.51-2.87c-24.27-14-43.94-2.65-43.94,25.37s19.67,62.09,43.94,76.1l128.14,74c20.54,11.86,37.18,2.25,37.18-21.46S306.7,289.49,286.16,277.64Z"/><path class="cls-3" d="M286.16,277.64a35.84,35.84,0,0,0-14.11-4.94c-2.11-21.32-16.93-45.46-34.91-55.84a40.29,40.29,0,0,0-7.23-3.31c-5.45-17.44-17.81-34.56-32.2-42.87-19.41-11.2-35.14-2.14-35.18,20.23q-2.24-1.54-4.51-2.87c-24.27-14-43.94-2.65-43.94,25.37s19.67,62.09,43.94,76.1l128.14,74c20.54,11.86,37.18,2.25,37.18-21.46S306.7,289.49,286.16,277.64Z"/><path class="cls-6" d="M315.5,363.88c4.91-4.44,7.84-11.91,7.84-21.85,0-23.71-16.64-52.54-37.18-64.39a35.84,35.84,0,0,0-14.11-4.94c-2.11-21.32-16.93-45.46-34.91-55.84a40.29,40.29,0,0,0-7.23-3.31c-5.45-17.44-17.81-34.56-32.2-42.87-19.41-11.2-35.14-2.14-35.18,20.23q-2.24-1.54-4.51-2.87c-12.51-7.22-23.8-7.7-31.81-2.63"/><path class="cls-3" d="M286.16,277.64c-1.14-.66-2.27-1.24-3.4-1.77,20.5,11.89,37.95,42.49,37.95,66.16,0,16.11-7.7,25.69-19.07,26.46,12.8.61,21.7-9.14,21.7-26.46C323.34,318.32,306.7,289.49,286.16,277.64Z"/><path class="cls-3" d="M127.18,184.87c-8.09,4.52-13.1,14.4-13.1,28.54,0,25.08,15.78,55,36.49,71-19.9-16.6-34.79-45.67-34.79-70.19,0-22.53,12-34.11,29.51-30.95-7.13-1.74-13-1.29-18.11,1.59"/></svg>