<svg id="Objects" xmlns="http://www.w3.org/2000/svg" xmlns:xlink="http://www.w3.org/1999/xlink" width="500" height="500" viewBox="0 0 500 500"><defs><style>.cls-1{fill:#0062ff;}.cls-2{fill:url(#linear-gradient);}.cls-3{fill:url(#linear-gradient-2);}.cls-4{fill:url(#linear-gradient-3);}.cls-5{fill:#dcdcdc;}.cls-6{fill:none;stroke:#fff;}</style><linearGradient id="linear-gradient" x1="199.08" y1="239.86" x2="277.71" y2="103.67" gradientUnits="userSpaceOnUse"><stop offset="0" stop-color="#f3f3f3"/><stop offset="1" stop-color="#dcdcdc"/></linearGradient><linearGradient id="linear-gradient-2" x1="159.77" y1="303.58" x2="266.75" y2="303.58" gradientUnits="userSpaceOnUse"><stop offset="0" stop-color="#bebebe"/><stop offset="1" stop-color="#dcdcdc"/></linearGradient><linearGradient id="linear-gradient-3" x1="266.75" y1="289.07" x2="345.37" y2="289.07" gradientUnits="userSpaceOnUse"><stop offset="0" stop-color="#a4a4a4"/><stop offset="1" stop-color="#bebebe"/></linearGradient></defs><polygon class="cls-1" points="266.75 390 345.38 344.61 317.02 282.84 210.04 266.47 131.41 311.87 159.77 373.63 266.75 390"/><polygon class="cls-2" points="266.75 233.53 345.38 188.13 317.02 126.37 210.04 110 131.41 155.4 159.77 217.16 266.75 233.53"/><polygon class="cls-3" points="159.77 217.16 159.77 373.63 266.75 390 266.75 233.53 159.77 217.16"/><polygon class="cls-4" points="345.38 188.13 345.38 344.61 266.75 390 266.75 233.53 345.38 188.13"/><polygon class="cls-5" points="159.77 217.16 131.41 155.4 131.41 311.87 159.77 373.63 159.77 217.16"/><polyline class="cls-6" points="266.75 233.53 159.77 217.16 131.41 155.4"/></svg>