<?xml version="1.0" encoding="UTF-8"?>
<svg width="256px" height="256px" viewBox="0 0 256 256" version="1.1" xmlns="http://www.w3.org/2000/svg" xmlns:xlink="http://www.w3.org/1999/xlink">
    <title>Contact-seller</title>
    <g id="Contact-seller" stroke="none" stroke-width="1" fill="none" fill-rule="evenodd">
        <g id="Tools-/-Instruments-/-binoculars-/-16" transform="translate(84.000000, 84.000000)" fill="#6F6F6F">
            <path d="M22,24.75 C15.9248678,24.75 11,19.8251322 11,13.75 C11,7.67486775 15.9248678,2.75 22,2.75 C28.0751322,2.75 33,7.67486775 33,13.75 C33,16.6673814 31.8410748,19.4652744 29.7781746,21.5281746 C27.7152744,23.5910748 24.9173814,24.75 22,24.75 Z M22,8.25 C18.9624339,8.25 16.5,10.7124339 16.5,13.75 C16.5,16.7875661 18.9624339,19.25 22,19.25 C25.0375661,19.25 27.5,16.7875661 27.5,13.75 C27.5,12.2913093 26.9205374,10.8923628 25.8890873,9.8609127 C24.8576372,8.82946262 23.4586907,8.25 22,8.25 Z M66,24.75 C59.9248678,24.75 55,19.8251322 55,13.75 C55,7.67486775 59.9248678,2.75 66,2.75 C72.0751322,2.75 77,7.67486775 77,13.75 C77,16.6673814 75.8410748,19.4652744 73.7781746,21.5281746 C71.7152744,23.5910748 68.9173814,24.75 66,24.75 Z M66,8.25 C62.9624339,8.25 60.5,10.7124339 60.5,13.75 C60.5,16.7875661 62.9624339,19.25 66,19.25 C69.0375661,19.25 71.5,16.7875661 71.5,13.75 C71.5,12.2913093 70.9205374,10.8923628 69.8890873,9.8609127 C68.8576372,8.82946262 67.4586907,8.25 66,8.25 Z M71.5,82.5 L60.5,82.5 C57.4624339,82.5 55,80.0375661 55,77 L55,57.75 L60.5,57.75 L60.5,77 L71.5,77 L71.5,52.25 L77,52.25 L77,35.75 C77,34.2312169 75.7687831,33 74.25,33 L56.595,33 L44,55 L31.405,33 L13.75,33 C12.2312169,33 11,34.2312169 11,35.75 L11,52.25 L16.5,52.25 L16.5,77 L27.5,77 L27.5,57.75 L33,57.75 L33,77 C33,80.0375661 30.5375661,82.5 27.5,82.5 L16.5,82.5 C13.4624339,82.5 11,80.0375661 11,77 L11,57.75 C7.96243388,57.75 5.5,55.2875661 5.5,52.25 L5.5,35.75 C5.5,31.1936508 9.19365081,27.5 13.75,27.5 L34.595,27.5 L44,44 L53.405,27.5 L74.25,27.5 C78.8063492,27.5 82.5,31.1936508 82.5,35.75 L82.5,52.25 C82.5,55.2875661 80.0375661,57.75 77,57.75 L77,77 C77,80.0375661 74.5375661,82.5 71.5,82.5 Z" id="Fill"></path>
        </g>
    </g>
</svg>