<?xml version="1.0" encoding="utf-8"?>
<!-- Generator: Adobe Illustrator 26.0.3, SVG Export Plug-In . SVG Version: 6.00 Build 0)  -->
<svg version="1.1" id="Objects" xmlns="http://www.w3.org/2000/svg" xmlns:xlink="http://www.w3.org/1999/xlink" x="0px" y="0px"
	 viewBox="0 0 500 500" style="enable-background:new 0 0 500 500;" xml:space="preserve">
<style type="text/css">
	.st0{fill:url(#SVGID_1_);}
	.st1{fill:url(#SVGID_00000161616651587869149670000007847873612277707155_);}
	.st2{fill:#F3F3F3;}
	.st3{fill:#A3A3A3;}
	.st4{fill:url(#SVGID_00000129169909551197569660000001313117928397557923_);}
	.st5{fill:url(#SVGID_00000146471135154232977140000014588176551320642984_);}
	.st6{fill:#408BFC;}
	.st7{fill:#DCDCDC;}
	.st8{fill:url(#SVGID_00000025431387022561989990000000094076121913157799_);}
	.st9{fill:url(#SVGID_00000102518454291174451390000011362244264266692519_);}
	.st10{fill:url(#SVGID_00000103257090016823439440000011296264746919602849_);}
	.st11{fill:url(#SVGID_00000001656485614841622700000018425133445661221816_);}
	.st12{fill:url(#SVGID_00000131325872266347675460000010664242433102754480_);}
	.st13{fill:url(#SVGID_00000123437077129661577890000009380211458084479875_);}
	.st14{fill:url(#SVGID_00000124878951740485140380000007977400955639066005_);}
	.st15{fill:url(#SVGID_00000002379409800105923330000014136951785250412928_);}
	.st16{fill:url(#SVGID_00000031203467932226417480000011600790819114935947_);}
	.st17{fill:url(#SVGID_00000150097219810645183990000011067003642954783112_);}
	.st18{fill:url(#SVGID_00000018927639135588190720000002052021603788781484_);}
	.st19{fill:url(#SVGID_00000032628207654990106290000008833216297925218959_);}
	.st20{fill:url(#SVGID_00000034774658983832807750000016622333330227023016_);}
	.st21{fill:url(#SVGID_00000174561444915651420210000005558128810118975920_);}
	.st22{fill:url(#SVGID_00000145781343447116789160000008305398558993302938_);}
	.st23{fill:url(#SVGID_00000062187883089245775810000008331317261102964880_);}
	.st24{fill:url(#SVGID_00000017518208626610686260000017057533340838121858_);}
	.st25{fill:url(#SVGID_00000119802168066511528940000000765692458576236430_);}
</style>
<g>
	
		<linearGradient id="SVGID_1_" gradientUnits="userSpaceOnUse" x1="192.4312" y1="187.8727" x2="249.0016" y2="285.849" gradientTransform="matrix(1 0 0 -1 0 500)">
		<stop  offset="0" style="stop-color:#BEBEBE"/>
		<stop  offset="1.000000e-02" style="stop-color:#B8B8B8"/>
		<stop  offset="4.000000e-02" style="stop-color:#ADADAD"/>
		<stop  offset="9.000000e-02" style="stop-color:#A6A6A6"/>
		<stop  offset="0.21" style="stop-color:#A4A4A4"/>
		<stop  offset="0.57" style="stop-color:#DCDCDC"/>
		<stop  offset="1" style="stop-color:#F3F3F3"/>
	</linearGradient>
	<path class="st0" d="M279.1,290.3c0-32.4-22.8-71.9-50.9-88.1c-14.2-8.2-27-8.9-36.2-3.4l0,0l-24.4,14.1l9.8,17.4
		c0,0.4,0,0.8,0,1.2c0,32,22.1,70.6,49.6,87.3l10.9,19.5l26.1-15.1l0,0C273.3,318.1,279.1,306.6,279.1,290.3z"/>
	
		<linearGradient id="SVGID_00000152984573469784496910000012464104950525083300_" gradientUnits="userSpaceOnUse" x1="151.7062" y1="224.2662" x2="253.4505" y2="224.2662" gradientTransform="matrix(1 0 0 -1 -6.108835e-03 500.001)">
		<stop  offset="0" style="stop-color:#DCDCDC"/>
		<stop  offset="1" style="stop-color:#BEBEBE"/>
	</linearGradient>
	<path style="fill:url(#SVGID_00000152984573469784496910000012464104950525083300_);" d="M166.6,213.4
		c19.9-11.5,52.1,7.1,71.9,41.5s19.9,71.6,0,83.1s-52.1-7.1-71.9-41.5S146.7,224.9,166.6,213.4z"/>
	<ellipse transform="matrix(0.866 -0.5 0.5 0.866 -110.7279 138.2276)" class="st2" cx="202.6" cy="275.7" rx="38.6" ry="66.9"/>
	<path class="st3" d="M238.8,337.9l-0.5,0.3L238.8,337.9z"/>
	
		<linearGradient id="SVGID_00000059285913771630301810000013030444240331719594_" gradientUnits="userSpaceOnUse" x1="155.3471" y1="223.1694" x2="237.7796" y2="223.1694" gradientTransform="matrix(1 0 0 -1 0 500)">
		<stop  offset="0" style="stop-color:#3D3D3D"/>
		<stop  offset="1" style="stop-color:#A3A3A3"/>
	</linearGradient>
	<path style="fill:url(#SVGID_00000059285913771630301810000013030444240331719594_);" d="M235.2,333.5c-8,2.6-18.1,1-29-5.2
		c-26.1-15.1-47.2-51.8-47.2-81.9c0-13.5,4.3-23.4,11.3-28.9c0.3-0.2,0.5-0.4,0.8-0.6c-0.3,0.1-0.6,0.3-0.9,0.4
		c-9.1,4.7-14.8,15.5-14.8,31.1c0,30.2,21.2,66.8,47.2,81.9c12.8,7.4,24.3,8.2,32.8,3.6c0.8-0.4,1.6-0.9,2.3-1.4
		C236.9,332.9,236.1,333.2,235.2,333.5z"/>
	
		<linearGradient id="SVGID_00000119807106647492588440000005908711886643622293_" gradientUnits="userSpaceOnUse" x1="155.3171" y1="223.177" x2="237.7496" y2="223.177" gradientTransform="matrix(1 0 0 -1 0 500)">
		<stop  offset="0" style="stop-color:#BEBEBE"/>
		<stop  offset="1" style="stop-color:#DCDCDC"/>
	</linearGradient>
	<path style="fill:url(#SVGID_00000119807106647492588440000005908711886643622293_);" d="M206.2,328.2
		c-26.1-15.1-47.2-51.8-47.2-81.9c0-13.5,4.3-23.4,11.3-28.9c0.3-0.2,0.5-0.4,0.8-0.6c-0.3,0.1-0.6,0.3-0.9,0.4
		c-9.1,4.7-14.8,15.5-14.8,31.1c0,30.2,21.2,66.8,47.2,81.9c12.8,7.4,24.3,8.2,32.9,3.6c0.8-0.4,1.6-0.9,2.3-1.4
		c-0.8,0.4-1.7,0.7-2.6,1C227.2,336.1,217.1,334.5,206.2,328.2z"/>
	<path class="st6" d="M216.3,270.4c0,8.8-6.2,12.3-13.7,7.9s-13.7-15-13.7-23.8s6.2-12.3,13.7-7.9
		C210.2,251,216.3,261.7,216.3,270.4z"/>
	<path class="st6" d="M214.4,289.7l-23.6-13.6c-3.2-1.8-5.9-0.3-5.9,3.4v6.8l35.3,20.4v-6.8C220.2,296.2,217.5,291.5,214.4,289.7z"
		/>
	<path class="st7" d="M193.7,203.3c-0.7,0-1.4-0.4-1.7-1.1l-30.5-64.6c-0.4-1,0.1-2.1,1.1-2.5c0.9-0.3,1.9,0,2.3,0.8l30.5,64.6
		c0.4,0.9,0.1,2.1-0.9,2.5c0,0,0,0,0,0C194.3,203.2,194,203.3,193.7,203.3z"/>
	<path class="st7" d="M252.1,248.1c-1.1,0-1.9-0.9-1.9-1.9c0-0.5,0.2-1,0.6-1.4l60.4-54.6c0.8-0.7,2-0.6,2.7,0.1
		c0.7,0.8,0.6,2-0.1,2.7l-60.4,54.6C253.1,247.9,252.6,248.1,252.1,248.1z"/>
	<path class="st7" d="M309.2,363.1c-0.6,0-1.1-0.2-1.4-0.7L264,311.9c-0.7-0.8-0.5-2,0.3-2.7c0.8-0.6,1.9-0.5,2.6,0.2l43.8,50.6
		c0.7,0.8,0.6,2-0.2,2.7C310.2,363,309.7,363.1,309.2,363.1L309.2,363.1z"/>
	
		<linearGradient id="SVGID_00000039817135458891181750000012320594233803995823_" gradientUnits="userSpaceOnUse" x1="303.6917" y1="126.5197" x2="319.5085" y2="153.9236" gradientTransform="matrix(1 0 0 -1 0 500)">
		<stop  offset="0" style="stop-color:#BEBEBE"/>
		<stop  offset="1.000000e-02" style="stop-color:#B8B8B8"/>
		<stop  offset="4.000000e-02" style="stop-color:#ADADAD"/>
		<stop  offset="9.000000e-02" style="stop-color:#A6A6A6"/>
		<stop  offset="0.21" style="stop-color:#A4A4A4"/>
		<stop  offset="0.57" style="stop-color:#DCDCDC"/>
		<stop  offset="1" style="stop-color:#F3F3F3"/>
	</linearGradient>
	<path style="fill:url(#SVGID_00000039817135458891181750000012320594233803995823_);" d="M328,367.4c0-9.1-6.4-20.1-14.2-24.6
		c-4-2.3-7.6-2.5-10.1-0.9l0,0l-6.8,3.9l2.7,4.9c0,0.1,0,0.2,0,0.3c0,8.9,6.2,19.8,13.9,24.4l3.1,5.5l7.3-4.2l0,0
		C326.3,375.1,328,371.9,328,367.4z"/>
	
		<linearGradient id="SVGID_00000156555475050275770510000006024530411447056057_" gradientUnits="userSpaceOnUse" x1="292.3067" y1="136.6912" x2="320.764" y2="136.6912" gradientTransform="matrix(1 0 0 -1 8.199185e-03 500.0014)">
		<stop  offset="0" style="stop-color:#DCDCDC"/>
		<stop  offset="1" style="stop-color:#BEBEBE"/>
	</linearGradient>
	<path style="fill:url(#SVGID_00000156555475050275770510000006024530411447056057_);" d="M296.5,345.9c5.6-3.2,14.6,2,20.1,11.6
		c5.6,9.6,5.6,20,0,23.2c-5.6,3.2-14.6-2-20.1-11.6C290.9,359.5,290.9,349.1,296.5,345.9z"/>
	<ellipse transform="matrix(0.866 -0.5 0.5 0.866 -140.586 201.9461)" class="st2" cx="306.5" cy="363.3" rx="10.8" ry="18.7"/>
	
		<linearGradient id="SVGID_00000010992143705632866590000009968956327712873653_" gradientUnits="userSpaceOnUse" x1="316.4485" y1="119.1591" x2="332.2735" y2="146.5641" gradientTransform="matrix(1 0 0 -1 0 500)">
		<stop  offset="0" style="stop-color:#3D3D3D"/>
		<stop  offset="1" style="stop-color:#A3A3A3"/>
	</linearGradient>
	<path style="fill:url(#SVGID_00000010992143705632866590000009968956327712873653_);" d="M316.4,380.8l0.1-0.1L316.4,380.8
		L316.4,380.8z"/>
	<path class="st3" d="M316.7,380.7l-0.1,0.1L316.7,380.7z"/>
	
		<linearGradient id="SVGID_00000181047912399549306620000017864466440681644975_" gradientUnits="userSpaceOnUse" x1="293.3171" y1="136.4227" x2="316.3796" y2="136.4227" gradientTransform="matrix(1 0 0 -1 0 500)">
		<stop  offset="0" style="stop-color:#3D3D3D"/>
		<stop  offset="1" style="stop-color:#A3A3A3"/>
	</linearGradient>
	<path style="fill:url(#SVGID_00000181047912399549306620000017864466440681644975_);" d="M315.7,379.5c-2.2,0.8-5,0.3-8.1-1.5
		c-7.3-4.2-13.2-14.5-13.2-22.9c0-3.8,1.2-6.5,3.2-8.1l0.2-0.2l-0.2,0.1c-2.5,1.3-4.1,4.3-4.1,8.7c0,8.4,5.9,18.7,13.2,22.9
		C310.1,380.6,313.3,380.8,315.7,379.5c0.3,0,0.5-0.2,0.7-0.3C316.1,379.3,315.9,379.4,315.7,379.5z"/>
	
		<linearGradient id="SVGID_00000149365257631875694600000007791262095825389188_" gradientUnits="userSpaceOnUse" x1="316.4246" y1="119.2124" x2="316.5296" y2="119.2124" gradientTransform="matrix(1 0 0 -1 0 500)">
		<stop  offset="0" style="stop-color:#3D3D3D"/>
		<stop  offset="1" style="stop-color:#A3A3A3"/>
	</linearGradient>
	<path style="fill:url(#SVGID_00000149365257631875694600000007791262095825389188_);" d="M316.4,380.8L316.4,380.8l0.1-0.1
		L316.4,380.8z"/>
	
		<linearGradient id="SVGID_00000128470415564534660640000011437689575718650516_" gradientUnits="userSpaceOnUse" x1="293.3171" y1="136.3927" x2="316.3796" y2="136.3927" gradientTransform="matrix(1 0 0 -1 0 500)">
		<stop  offset="0" style="stop-color:#BEBEBE"/>
		<stop  offset="1" style="stop-color:#DCDCDC"/>
	</linearGradient>
	<path style="fill:url(#SVGID_00000128470415564534660640000011437689575718650516_);" d="M307.6,378c-7.3-4.2-13.2-14.5-13.2-22.9
		c0-3.8,1.2-6.5,3.2-8.1l0.2-0.2l-0.2,0.1c-2.5,1.3-4.1,4.3-4.1,8.7c0,8.4,5.9,18.7,13.2,22.9c3.6,2.1,6.8,2.3,9.2,1
		c0.2-0.1,0.4-0.3,0.7-0.4c-0.2,0.1-0.5,0.2-0.8,0.3C313.4,380.2,310.6,379.8,307.6,378z"/>
	
		<linearGradient id="SVGID_00000021810344328685872300000017125898965861578154_" gradientUnits="userSpaceOnUse" x1="157.7215" y1="348.9909" x2="173.539" y2="376.3959" gradientTransform="matrix(1 0 0 -1 0 500)">
		<stop  offset="0" style="stop-color:#BEBEBE"/>
		<stop  offset="1.000000e-02" style="stop-color:#B8B8B8"/>
		<stop  offset="4.000000e-02" style="stop-color:#ADADAD"/>
		<stop  offset="9.000000e-02" style="stop-color:#A6A6A6"/>
		<stop  offset="0.21" style="stop-color:#A4A4A4"/>
		<stop  offset="0.57" style="stop-color:#DCDCDC"/>
		<stop  offset="1" style="stop-color:#F3F3F3"/>
	</linearGradient>
	<path style="fill:url(#SVGID_00000021810344328685872300000017125898965861578154_);" d="M181.9,144.9c0-9.1-6.4-20.1-14.2-24.6
		c-3.9-2.3-7.5-2.5-10.1-1l0,0l-6.8,3.9l2.7,4.9c0,0.1,0,0.2,0,0.3c0,8.9,6.2,19.8,13.9,24.4l3.1,5.5l7.3-4.2l0,0
		C180.3,152.7,181.9,149.5,181.9,144.9z"/>
	
		<linearGradient id="SVGID_00000052810917271149436100000001840474205964290212_" gradientUnits="userSpaceOnUse" x1="146.3253" y1="359.1532" x2="174.7825" y2="359.1532" gradientTransform="matrix(1 0 0 -1 -2.958815e-03 500.0008)">
		<stop  offset="0" style="stop-color:#DCDCDC"/>
		<stop  offset="1" style="stop-color:#BEBEBE"/>
	</linearGradient>
	<path style="fill:url(#SVGID_00000052810917271149436100000001840474205964290212_);" d="M150.5,123.4c5.6-3.2,14.6,2,20.1,11.6
		c5.6,9.6,5.6,20,0,23.2s-14.6-2-20.1-11.6C144.9,137,144.9,126.6,150.5,123.4z"/>
	<ellipse transform="matrix(0.866 -0.5 0.5 0.866 -48.914 99.1454)" class="st2" cx="160.6" cy="140.8" rx="10.8" ry="18.7"/>
	
		<linearGradient id="SVGID_00000060716764414607367170000008439992105604655023_" gradientUnits="userSpaceOnUse" x1="170.4626" y1="341.6157" x2="186.2876" y2="369.0132" gradientTransform="matrix(1 0 0 -1 0 500)">
		<stop  offset="0" style="stop-color:#3D3D3D"/>
		<stop  offset="1" style="stop-color:#A3A3A3"/>
	</linearGradient>
	<path style="fill:url(#SVGID_00000060716764414607367170000008439992105604655023_);" d="M170.4,158.4l0.1-0.1L170.4,158.4z"/>
	<path class="st3" d="M170.7,158.2l-0.1,0.1L170.7,158.2z"/>
	
		<linearGradient id="SVGID_00000083785302344051144710000000757718084419255462_" gradientUnits="userSpaceOnUse" x1="147.3296" y1="358.8765" x2="170.3921" y2="358.8765" gradientTransform="matrix(1 0 0 -1 0 500)">
		<stop  offset="0" style="stop-color:#3D3D3D"/>
		<stop  offset="1" style="stop-color:#A3A3A3"/>
	</linearGradient>
	<path style="fill:url(#SVGID_00000083785302344051144710000000757718084419255462_);" d="M169.7,157c-2.2,0.8-5.1,0.3-8.1-1.5
		c-7.3-4.2-13.2-14.5-13.2-22.9c0-3.8,1.2-6.5,3.2-8.1l0.2-0.2l-0.2,0.1c-2.6,1.3-4.1,4.3-4.1,8.7c0,8.4,5.9,18.7,13.2,22.9
		C164.1,158.2,167.4,158.4,169.7,157c0.3,0,0.5-0.2,0.7-0.3C170.2,156.8,169.9,156.9,169.7,157z"/>
	
		<linearGradient id="SVGID_00000021805760255828652240000001807369433930766013_" gradientUnits="userSpaceOnUse" x1="170.4371" y1="341.6624" x2="170.5421" y2="341.6624" gradientTransform="matrix(1 0 0 -1 0 500)">
		<stop  offset="0" style="stop-color:#3D3D3D"/>
		<stop  offset="1" style="stop-color:#A3A3A3"/>
	</linearGradient>
	<path style="fill:url(#SVGID_00000021805760255828652240000001807369433930766013_);" d="M170.4,158.4L170.4,158.4l0.1-0.1
		L170.4,158.4z"/>
	
		<linearGradient id="SVGID_00000136395639547630939190000015554395192517101750_" gradientUnits="userSpaceOnUse" x1="147.3296" y1="358.8765" x2="170.3921" y2="358.8765" gradientTransform="matrix(1 0 0 -1 0 500)">
		<stop  offset="0" style="stop-color:#BEBEBE"/>
		<stop  offset="1" style="stop-color:#DCDCDC"/>
	</linearGradient>
	<path style="fill:url(#SVGID_00000136395639547630939190000015554395192517101750_);" d="M161.6,155.5
		c-7.3-4.2-13.2-14.5-13.2-22.9c0-3.8,1.2-6.5,3.2-8.1l0.2-0.2l-0.2,0.1c-2.6,1.3-4.1,4.3-4.1,8.7c0,8.4,5.9,18.7,13.2,22.9
		c3.6,2.1,6.8,2.3,9.2,1c0.2-0.1,0.4-0.3,0.7-0.4c-0.2,0.1-0.5,0.2-0.8,0.3C167.4,157.8,164.6,157.3,161.6,155.5z"/>
	
		<linearGradient id="SVGID_00000124159388628395401350000010569356814747826321_" gradientUnits="userSpaceOnUse" x1="302.6224" y1="293.3189" x2="325.2273" y2="332.4686" gradientTransform="matrix(1 0 0 -1 0 500)">
		<stop  offset="0" style="stop-color:#BEBEBE"/>
		<stop  offset="1.000000e-02" style="stop-color:#B8B8B8"/>
		<stop  offset="4.000000e-02" style="stop-color:#ADADAD"/>
		<stop  offset="9.000000e-02" style="stop-color:#A6A6A6"/>
		<stop  offset="0.21" style="stop-color:#A4A4A4"/>
		<stop  offset="0.57" style="stop-color:#DCDCDC"/>
		<stop  offset="1" style="stop-color:#F3F3F3"/>
	</linearGradient>
	<path style="fill:url(#SVGID_00000124159388628395401350000010569356814747826321_);" d="M337.3,198c0-13-9.1-28.7-20.3-35.2
		c-5.7-3.3-10.8-3.6-14.5-1.4l0,0l-9.8,5.6l3.9,7c0,0.2,0,0.3,0,0.5c0,12.8,8.8,28.2,19.8,34.9l4.4,7.8l10.4-6l0,0
		C334.9,209.1,337.3,204.5,337.3,198z"/>
	
		<linearGradient id="SVGID_00000117675985997837875870000003876102106976358561_" gradientUnits="userSpaceOnUse" x1="286.3625" y1="307.8635" x2="327.0177" y2="307.8635" gradientTransform="matrix(1 0 0 -1 -1.624575e-03 500.0054)">
		<stop  offset="0" style="stop-color:#DCDCDC"/>
		<stop  offset="1" style="stop-color:#BEBEBE"/>
	</linearGradient>
	<path style="fill:url(#SVGID_00000117675985997837875870000003876102106976358561_);" d="M292.3,167.2c7.9-4.6,20.8,2.8,28.7,16.6
		c7.9,13.7,7.9,28.6,0,33.2s-20.8-2.8-28.7-16.6C284.4,186.7,284.4,171.8,292.3,167.2z"/>
	<ellipse transform="matrix(0.866 -0.5 0.5 0.866 -54.9825 179.0864)" class="st2" cx="306.7" cy="192.1" rx="15.4" ry="26.7"/>
	
		<linearGradient id="SVGID_00000062895752854427717360000009155855388393943441_" gradientUnits="userSpaceOnUse" x1="320.8422" y1="282.8024" x2="343.4472" y2="321.9524" gradientTransform="matrix(1 0 0 -1 0 500)">
		<stop  offset="0" style="stop-color:#3D3D3D"/>
		<stop  offset="1" style="stop-color:#A3A3A3"/>
	</linearGradient>
	<path style="fill:url(#SVGID_00000062895752854427717360000009155855388393943441_);" d="M320.8,217.2l0.2-0.1L320.8,217.2
		L320.8,217.2z"/>
	<path class="st3" d="M321.1,217l-0.2,0.1L321.1,217z"/>
	
		<linearGradient id="SVGID_00000181079068194499954020000018372600639321595058_" gradientUnits="userSpaceOnUse" x1="287.7896" y1="307.4261" x2="320.7371" y2="307.4261" gradientTransform="matrix(1 0 0 -1 0 500)">
		<stop  offset="0" style="stop-color:#3D3D3D"/>
		<stop  offset="1" style="stop-color:#A3A3A3"/>
	</linearGradient>
	<path style="fill:url(#SVGID_00000181079068194499954020000018372600639321595058_);" d="M319.7,215.2c-3.2,1-7.2,0.4-11.6-2.1
		c-10.4-6-18.9-20.7-18.9-32.7c0-5.4,1.7-9.4,4.5-11.5c0.1-0.1,0.2-0.2,0.3-0.2l-0.4,0.2c-3.7,1.9-5.9,6.2-5.9,12.4
		c0,12,8.5,26.7,18.9,32.7c5.1,2.9,9.8,3.3,13.1,1.4c0.3-0.2,0.6-0.4,0.9-0.6C320.4,215,320.1,215.1,319.7,215.2z"/>
	
		<linearGradient id="SVGID_00000007402181521007120940000009632526812917481400_" gradientUnits="userSpaceOnUse" x1="320.8046" y1="282.8774" x2="320.9621" y2="282.8774" gradientTransform="matrix(1 0 0 -1 0 500)">
		<stop  offset="0" style="stop-color:#3D3D3D"/>
		<stop  offset="1" style="stop-color:#A3A3A3"/>
	</linearGradient>
	<path style="fill:url(#SVGID_00000007402181521007120940000009632526812917481400_);" d="M320.8,217.2L320.8,217.2l0.2-0.1
		L320.8,217.2z"/>
	
		<linearGradient id="SVGID_00000108308314741013944970000000085266925954581170_" gradientUnits="userSpaceOnUse" x1="287.7896" y1="307.4261" x2="320.7371" y2="307.4261" gradientTransform="matrix(1 0 0 -1 0 500)">
		<stop  offset="0" style="stop-color:#BEBEBE"/>
		<stop  offset="1" style="stop-color:#DCDCDC"/>
	</linearGradient>
	<path style="fill:url(#SVGID_00000108308314741013944970000000085266925954581170_);" d="M308.1,213.1c-10.4-6-18.9-20.7-18.9-32.7
		c0-5.4,1.7-9.4,4.5-11.5c0.1-0.1,0.2-0.2,0.3-0.2l-0.4,0.2c-3.7,1.9-5.9,6.2-5.9,12.4c0,12,8.5,26.7,18.9,32.7
		c5.1,2.9,9.8,3.3,13.1,1.4c0.3-0.2,0.6-0.4,0.9-0.6c-0.3,0.2-0.7,0.3-1,0.4C316.5,216.3,312.5,215.6,308.1,213.1z"/>
</g>
</svg>
