<?xml version="1.0" encoding="utf-8"?>
<!-- Generator: Adobe Illustrator 24.1.0, SVG Export Plug-In . SVG Version: 6.00 Build 0)  -->
<svg version="1.1" xmlns="http://www.w3.org/2000/svg" xmlns:xlink="http://www.w3.org/1999/xlink" x="0px" y="0px" width="32px"
	 height="32px" viewBox="0 0 32 32" style="enable-background:new 0 0 32 32;" xml:space="preserve">
<style type="text/css">
	.st0{filter:url(#Adobe_OpacityMaskFilter);}
	.st1{fill:url(#SVGID_2_);}
	.st2{fill:url(#SVGID_3_);}
	.st3{fill:url(#SVGID_4_);}
	.st4{fill:url(#SVGID_5_);}
	.st5{mask:url(#SVGID_1_);fill:url(#SVGID_6_);}
	.st6{fill:#001D6C;}
</style>
<g id="Gradient_Element">
	<defs>
		<filter id="Adobe_OpacityMaskFilter" filterUnits="userSpaceOnUse" x="0" y="0" width="32" height="32">
			<feColorMatrix  type="matrix" values="1 0 0 0 0  0 1 0 0 0  0 0 1 0 0  0 0 0 1 0"/>
		</filter>
	</defs>
	<mask maskUnits="userSpaceOnUse" x="0" y="0" width="32" height="32" id="SVGID_1_">
		<g class="st0">
			<g>
				<g>
					<linearGradient id="SVGID_2_" gradientUnits="userSpaceOnUse" x1="27.2509" y1="4.7489" x2="16.703" y2="15.2967">
						<stop  offset="0.3005" style="stop-color:#FFFFFF"/>
						<stop  offset="1" style="stop-color:#FFFFFF;stop-opacity:0"/>
					</linearGradient>
					<path class="st1" d="M20.9,19.5l-1.4-1.4l6.3-6.3C26.6,11,27,10,27,9s-0.4-2.1-1.2-2.8c-1.5-1.5-4.1-1.5-5.6,0l-1.4,1.4
						l-1.4-1.4l1.4-1.4c2.3-2.3,6.1-2.3,8.4,0C28.4,5.9,29,7.4,29,9s-0.6,3.1-1.7,4.2L20.9,19.5z"/>
				</g>
				<g>
					<linearGradient id="SVGID_3_" gradientUnits="userSpaceOnUse" x1="27.2512" y1="27.2507" x2="16.7034" y2="16.7029">
						<stop  offset="0.3005" style="stop-color:#FFFFFF"/>
						<stop  offset="1" style="stop-color:#FFFFFF;stop-opacity:0"/>
					</linearGradient>
					<path class="st2" d="M23,29c-1.5,0-3.1-0.6-4.2-1.7l-6.3-6.3l1.4-1.4l6.3,6.3c1.5,1.5,4.1,1.5,5.6,0c1.5-1.5,1.5-4.1,0-5.6
						l-1.4-1.4l1.4-1.4l1.4,1.4c2.3,2.3,2.3,6.1,0,8.4C26.1,28.4,24.6,29,23,29z"/>
				</g>
				<g>
					<linearGradient id="SVGID_4_" gradientUnits="userSpaceOnUse" x1="4.7493" y1="27.2512" x2="15.2971" y2="16.7034">
						<stop  offset="0.3005" style="stop-color:#FFFFFF"/>
						<stop  offset="1" style="stop-color:#FFFFFF;stop-opacity:0"/>
					</linearGradient>
					<path class="st3" d="M9,29c-1.5,0-3.1-0.6-4.2-1.7c-2.3-2.3-2.3-6.1,0-8.4l6.3-6.3l1.4,1.4l-6.3,6.3c-1.5,1.5-1.5,4.1,0,5.6
						c1.5,1.5,4.1,1.5,5.6,0l1.4-1.4l1.4,1.4l-1.4,1.4C12,28.4,10.5,29,9,29z"/>
				</g>
				<g>
					<linearGradient id="SVGID_5_" gradientUnits="userSpaceOnUse" x1="4.7488" y1="4.7493" x2="15.2966" y2="15.2971">
						<stop  offset="0.3005" style="stop-color:#FFFFFF"/>
						<stop  offset="1" style="stop-color:#FFFFFF;stop-opacity:0"/>
					</linearGradient>
					<path class="st4" d="M6.2,14.6l-1.4-1.4C3.6,12.1,3,10.6,3,9s0.6-3.1,1.7-4.2c2.3-2.3,6.1-2.3,8.4,0l6.3,6.3l-1.4,1.4l-6.3-6.3
						c-1.5-1.5-4.1-1.5-5.6,0C5.4,6.9,5,7.9,5,9s0.4,2.1,1.2,2.8l1.4,1.4L6.2,14.6z"/>
				</g>
			</g>
		</g>
	</mask>
	<linearGradient id="SVGID_6_" gradientUnits="userSpaceOnUse" x1="1.818989e-12" y1="32" x2="32" y2="-8.000001e-06">
		<stop  offset="0.1" style="stop-color:#08BDBA"/>
		<stop  offset="0.9" style="stop-color:#0F62FE"/>
	</linearGradient>
	<rect y="0" class="st5" width="32" height="32"/>
</g>
<g id="Navy_Element">
	<path class="st6" d="M23,21c-0.2,0-0.3,0-0.5,0.1L19.4,18c0.4-0.6,0.6-1.3,0.6-2c0-2.2-1.8-4-4-4c-0.7,0-1.4,0.2-2,0.6l-3.1-3.1
		C11,9.3,11,9.2,11,9c0-1.1-0.9-2-2-2S7,7.9,7,9c0,1.1,0.9,2,2,2c0.2,0,0.3,0,0.5-0.1l3.1,3.1c-0.4,0.6-0.6,1.3-0.6,2
		c0,2.2,1.8,4,4,4c0.7,0,1.4-0.2,2-0.6l3.1,3.1c0,0.2-0.1,0.3-0.1,0.5c0,1.1,0.9,2,2,2s2-0.9,2-2C25,21.9,24.1,21,23,21z M14,16
		c0-1.1,0.9-2,2-2s2,0.9,2,2s-0.9,2-2,2S14,17.1,14,16z"/>
</g>
</svg>
