<?xml version="1.0" encoding="UTF-8"?><svg xmlns="http://www.w3.org/2000/svg" viewBox="0 0 2040 2040"><defs><style>.cls-1,.cls-2{fill:none;}.cls-1,.cls-3{stroke-width:0px;}.cls-4{fill:#e6d8ff;}.cls-4,.cls-5,.cls-2{stroke:#000;stroke-miterlimit:10;stroke-width:2px;}.cls-5{fill:#f3f3f3;}.cls-6{fill:#fff;font-family:MyriadPro-Regular, 'Myriad Pro';font-size:302.57px;}</style></defs><g id="Layer_1"><rect class="cls-5" x="1272" y="552" width="160" height="160"/><line class="cls-5" x1="1334.14" y1="632" x2="1369.86" y2="632"/><line class="cls-5" x1="1352" y1="614.14" x2="1352" y2="649.86"/><polygon class="cls-5" points="1400 678.99 1418.57 740.9 1430.96 722.33 1452.63 744 1465.01 731.62 1443.34 709.95 1461.91 697.56 1400 678.99"/><circle class="cls-5" cx="1277.68" cy="555.01" r="40"/><line class="cls-5" x1="1264.34" y1="541.68" x2="1291.01" y2="568.34"/><line class="cls-5" x1="1291.01" y1="541.68" x2="1264.34" y2="568.34"/><polyline class="cls-5" points="696 840 1880 840 1880 1560 1432 1560"/><line class="cls-5" x1="485.59" y1="1116.6" x2="485.59" y2="1096.56"/><line class="cls-5" x1="445.4" y1="1083.16" x2="432" y2="1096.56"/><line class="cls-5" x1="525.78" y1="1083.16" x2="539.18" y2="1096.56"/><line class="cls-5" x1="485.59" y1="640" x2="485.59" y2="1002.78"/><path class="cls-5" d="m537.49,1069.76c1.1-4.28,1.69-8.77,1.69-13.4,0-29.6-23.99-53.59-53.59-53.59s-53.59,23.99-53.59,53.59c0,4.63.59,9.12,1.69,13.4h103.8Z"/><path class="cls-5" d="m498.99,1069.76c0,7.4-6,13.4-13.4,13.4s-13.4-6-13.4-13.4h26.79Z"/><rect class="cls-5" x="344" y="1496" width="8" height="144"/><rect class="cls-5" x="264" y="1632" width="168" height="8"/><ellipse class="cls-5" cx="283.99" cy="1660" rx="12.01" ry="12"/><ellipse class="cls-5" cx="324.01" cy="1660" rx="12.01" ry="12"/><ellipse class="cls-5" cx="419.99" cy="1660" rx="12.01" ry="12"/><rect class="cls-5" x="240" y="1464" width="216" height="32" rx="4" ry="4" transform="translate(696 2960) rotate(180)"/><path class="cls-5" d="m456.31,1628.62c0-.39-.12-.78-.34-1.1l-7.67-11.5-4.08-15.99s0,0,0,0c0-6.63-5.37-12-12-12s-12,5.37-12,12c0,0,0,0,0,0l-3.92,23.99v6c0,1.1.9,2,2,2h36.01c1.11,0,2-.9,2-2v-1.39Z"/><rect class="cls-5" x="414.23" y="1628.02" width="66" height="4" transform="translate(894.45 3260.04) rotate(-180)"/><path class="cls-5" d="m418.92,1608.03s3.95,2.3,9.31,2.82c3.21.31,7.63-2.86,7.63-2.86,0,0,4.36-3.97,8.36-3.97,1.22,0,4.24,1.77,6.39,4.43.52.64,1.68,2.23,3.19,3.81.33.34.67.67,1,.99,1.29,1.21,9.18,1.99,12.22,2.77,7.04,1.81,11.21,5.32,11.21,12h-62s.03-4,.03-4h-.03c0-8,2.69-15.99,2.69-15.99Z"/><path class="cls-5" d="m435.86,1607.99l12.14,8.01,19.01.02c-10.7-1.49-15.38-6.3-16.41-7.57-2.15-2.66-5.16-4.43-6.39-4.43-4,0-8.36,3.97-8.36,3.97Z"/><path class="cls-5" d="m402.08,1668.6c0-.39-.12-.78-.34-1.1l-7.67-11.5-4.08-15.99s0,0,0,0c0-6.63-5.37-12-12-12s-12,5.37-12,12c0,0,0,0,0,0l-3.92,23.99v6c0,1.1.9,2,2,2h36.01c1.11,0,2-.9,2-2v-1.39Z"/><rect class="cls-5" x="360" y="1668" width="66" height="4" transform="translate(786 3340) rotate(-180)"/><path class="cls-5" d="m364.69,1648.01s3.95,2.3,9.31,2.82c3.21.31,7.63-2.86,7.63-2.86,0,0,4.36-3.97,8.36-3.97,1.22,0,4.24,1.77,6.39,4.43.52.64,1.68,2.23,3.19,3.81.33.34.67.67,1,.99,1.29,1.21,9.18,1.99,12.22,2.77,7.04,1.81,11.21,5.32,11.21,12h-62s.03-4,.03-4h-.03c0-8,2.69-15.99,2.69-15.99Z"/><path class="cls-5" d="m381.63,1647.97l12.14,8.01,19.01.02c-10.7-1.49-15.38-6.3-16.41-7.57-2.15-2.66-5.16-4.43-6.39-4.43-4,0-8.36,3.97-8.36,3.97Z"/><path class="cls-5" d="m282.18,1391.94h84l74.81,4.76c7.41,1.79,24.03,4.07,23.01,27.29l-8,176h-48v-136h-128l2.18-72.06Z"/><path class="cls-5" d="m232,1384s.06,16,.06,31.08c0,7.16,1.85,13.3,4.39,20.92.6,1.81,3.52,6.76,3.52,6.76,3.63,5.44,11.89,13.37,25.36,17.61,23.72,7.48,72.86,15.63,72.86,15.63l17.82,164h44l-5.59-185.04c-.7-8.64-5.61-16.38-13.14-20.69l-69.27-50.56-80,.28Z"/><path class="cls-5" d="m292,1227.94h35.09c8,0,34.49,10.01,41.72,13.43,5.96,2.82,10.69,8.38,12,15.51,3.5,18.94,8.67,54.26,8.67,54.26l10.68,44.11s-10.23,32.69-25.97,32.69c-8,0-136.39-11.06-154.14-11.94-4.74-.24-14.15-6.63-13.71-16.69,1.26-29.04,8.64-64.42,14.21-98.25,1.74-10.59,10.44-16.86,16.4-18.43,13.13-3.46,47.07-14.68,55.07-14.68Z"/><path class="cls-5" d="m473.73,1355.9h-15.46v16h15.46c.18,0,0,0,0,0,0,0,8,4,12,4h19.08l.15-24h-11.23s5.12-2.96,6.1-3.18c.98-.21,9.9,1.54,9.9-4.82l-9.77-.25-12.01,1.4-13.68,10.85h-.54"/><path class="cls-5" d="m507.64,1339.9v9h-10v22h10v5h28v-36h-28Zm0,28h-7v-16h7v16Z"/><path class="cls-5" d="m507.5,1373.82c-.4,1.27-1.58,2.08-2.85,2.08h0s-.04,0-.11,0c-.26,0-.54-.05-.81-.14l-.6-.28-6.5-3.05c-1.05-.34-1.63-1.46-1.29-2.52.34-1.05,1.46-1.63,2.51-1.29l3.03.56,3.77.7.2.04.71.13c.52.17.97.46,1.31.85.7.76.97,1.87.63,2.92Z"/><path class="cls-5" d="m505.56,1370.05l-.71-.13c.24.01.48.05.71.13Z"/><path class="cls-5" d="m506.64,1364.9c0,1.66-1.35,3-3,3l-12-1c-1.11,0-2-.89-2-2s.89-2,2-2c0,0-3-.03-3-2.41,0-1.76.89-2.59,2-2.59h2.37c-.23-1.02.43-2.14,1.42-2.51,1.44-.54,5.44-2.19,5.44-2.19l2.4-.96s1.11-.34,1.36-.34h.01c1.32,0,2.52.87,2.89,2.2.35,1.29-.18,2.61-1.24,3.3.81.54,1.35,1.46,1.35,2.5s-.54,1.97-1.35,2.5c.81.54,1.35,1.46,1.35,2.5Z"/><polygon class="cls-5" points="632 1376 632 1672 600 1672 600 1400 184 1400 184 1672 152 1672 152 1376 632 1376"/><rect class="cls-5" x="600" y="1375.94" width="32" height=".06"/><polygon class="cls-5" points="362.15 1313.96 367.59 1312.8 360.01 1277.83 362.15 1313.96"/><rect class="cls-5" x="224" y="1368" width="102.32" height="8"/><polygon class="cls-5" points="462.32 1376 310.32 1376 352 1271.91 504 1271.91 462.32 1376"/><circle class="cls-5" cx="408" cy="1331.91" r="8"/><path class="cls-5" d="m278.84,1198.58l8.85,34.89c2.72,10.71,13.6,17.18,24.3,14.47s17.18-13.6,14.47-24.3l-8.85-34.89-38.77,9.84Z"/><path class="cls-5" d="m327.41,1159.9c-3.86-17.65-21.1-29.1-38.94-25.67-18.12,3.48-29.99,21-26.5,39.12.7,3.63,1.97,7,3.68,10.06h-.02s.08.14.23.37c.41.71.84,1.4,1.29,2.06,3.88,6.17,14.06,22.11,16.61,23.84,3.98,2.7,25.42,9.56,30.79,10.27s8.97-.86,11.28-3.09c3.15-3.05,4.47-10.28,4.7-22.66.17-8.88-1.48-22.49-2.44-29.6-.1-1.28-.26-2.57-.51-3.86-.03-.17-.08-.34-.11-.52-.03-.21-.05-.32-.05-.32h-.02Z"/><path class="cls-5" d="m325.72,1151.37c-.06-.14-.08-.3-.06-.45.03-.32.02-.64-.04-.97-.15-.76-.54-1.4-1.08-1.88-.22-.2-.32-.5-.28-.79.05-.36.05-.73-.02-1.11-.18-.94-.74-1.7-1.48-2.18-.25-.16-.41-.44-.39-.74.01-.26,0-.52-.05-.78-.3-1.58-1.67-2.68-3.22-2.71,0-.02,0-.05,0-.07-.29-1.53-1.6-2.61-3.09-2.69-.21-.01-.41.06-.58-.05-.06-.04-.1-.13-.12-.22-.44-1.54-1.91-2.56-3.5-2.42-.11,0-.27.1-.49-.03-.15-.09-.15-.33-.24-.53-.59-1.44-2.13-2.32-3.72-2.01-.25.05-.49.13-.72.23-.38.18-.86.04-1.07-.32-.7-1.17-2.07-1.84-3.48-1.57-.42.08-.81.24-1.16.46-.36.23-.83.09-1.1-.25-.75-.94-1.98-1.45-3.25-1.2-.6.12-1.12.39-1.55.76-.4.35-.98.3-1.32-.1-.75-.88-1.94-1.34-3.15-1.1-.73.14-1.36.52-1.82,1.03-.29.32-.79.35-1.13.1-.72-.54-1.65-.79-2.61-.6-.99.19-1.79.8-2.25,1.62-.25.44-.85.55-1.26.25-.72-.55-1.67-.8-2.63-.61-1.21.23-2.14,1.09-2.52,2.17-.17.47-.68.68-1.15.5-.57-.23-1.21-.31-1.86-.18-1.26.24-2.21,1.16-2.56,2.3-.13.43-.59.68-1.03.6-.39-.07-.8-.08-1.21,0-1.4.27-2.42,1.38-2.65,2.71-.07.42-.46.74-.89.7-.29-.02-.58-.01-.88.05-1.61.31-2.73,1.73-2.71,3.32,0,.2.07.41-.07.68-.07.14-.22.17-.43.21-1.81.35-3,2.1-2.65,3.91.06.33.27.5.19.83-.11.47-.69.52-1.06.78-.93.66-1.24,1.93-1.02,3.07.05.28.32.52.27.79-.07.43-.65.42-1.03.74-.88.75-1.08,1.69-.85,2.91.06.3.29.55.3.84,0,.42-.35.55-.51.7-.58.54-.95,1.32-.59,2.37.04.1.01.22-.02.33-1.15,4.25.55,17.67,4.44,24.26,4.77,8.07,13.21,19.25,19.56,26.2,1.69,1.85,6.83,10.65,6.83,10.65-1.32-5.22-2.95-11.63-2.95-11.63l-2.95-11.63c-3.88.98-7.76-20.76-4.6-19.66.4.14,1.04,1.08,1.79,2.42,1.04,1.87,3.89,1.01,3.74-1.12-.53-7.5-7.87-25.26,23.14-33.13,13.59-3.45,22.34,6.71,24.91,14.91,0,0-.16-6.07-2.1-10.62Z"/><path class="cls-5" d="m276.53,1182.76c-1.48-3.85-3.2-5.61-5.69-5.35-2.92.31-4.09,3.7-3.24,6.44l2.9,10.31c.93,3,4.22,4.86,8.34,4.41l-2.31-15.82Z"/><path class="cls-5" d="m330.05,1203.66c-.7,1.79-2.08,3.32-3.89,4.06l-2.85,1.16h0l-4.18,1.71-5.79,2.37c-3.15,1.29-6.37-.32-7.2-3.58s1.05-6.95,4.2-8.24l12.82-5.24c3.15-1.29,6.37.32,7.2,3.58,0,0,0,0,0,0,.09-1.65.15-3.41.19-5.3,0-.06,0-.12,0-.18-2.14-1.77-5.16-2.28-8.14-1.06l-12.82,5.24c-4.72,1.93-8.39,7.3-7.15,12.19l1.69,6.54c4.86,2.89,12.01,3.89,15.68,2.96.72-.17,1.45-.38,2.19-.68,1.23-.5,2.35-1.17,3.37-1.91.17-.14.33-.29.48-.44,2.24-2.16,3.55-6.46,4.21-13.2Z"/><path class="cls-5" d="m320.22,1205.35c-1.64.67-2.73,2.48-2.58,4.27l.14,1.62,2.94-1.2,4.18-1.71-.63-1.42c-.7-1.57-2.41-2.23-4.06-1.56Z"/><path class="cls-5" d="m294.99,1187.95c-.83-1.08-2.38-1.28-3.46-.44l-10.89,7.64c-.43.34-.74.77-.94,1.24l-2.81,3.31c-.92,1.87-.84.51-.57-.4l2.8-7.9,13.82-7.92c1.2-.63,1.67-2.13,1.03-3.33-.63-1.21-2.13-1.67-3.33-1.03l-12.74,6.14c-5.5,2.9-.8.01-.24-.37l11.62-8.06c1.14-.74,1.47-2.27.73-3.41-.74-1.14-2.27-1.47-3.41-.73l-10.36,6.21h0c-10.32,7.15-.82.08-.23-.43l5.79-4.98c1.06-.85,1.24-2.4.39-3.47-.85-1.06-2.4-1.24-3.47-.39l-13.87,10.29c-.34.28-.61.61-.8.98h0s-8.53,14.75-8.53,14.75l-.33.49,6.74-11.59-15.67,16.34c-.44.67-.72,1.43-.8,2.23l-2.04,19.87c-3,4.55-1.73,10.67,2.82,13.66,4.55,3,10.67,1.73,13.66-2.82,0,0,9.54-5.53,12.26-9.65,2.71-4.12,8.13-12.36,8.13-12.36h0c.11-.18.22-.35.31-.55l4.54-11.85,9.41-7.99c1.08-.83,1.28-2.38.44-3.46Z"/><path class="cls-5" d="m205.84,1351.42h0s29.46-106.73,33.37-124.55c.57-2.61,3.26-4.15,5.81-3.33l24.22,6.28c1.95.57,3.11,2.57,2.66,4.54l-32.79,131.06c-.08.33-.19.65-.34.94-4.57,8.64-15.22,12.11-24.03,7.75-8.45-4.18-12.19-14.07-8.88-22.7Z"/><polyline class="cls-5" points="888 1388 888 956 1688 956 1688 1096"/><rect class="cls-5" x="888" y="1388" width="396.04" height="80"/><polyline class="cls-5" points="1648 1468 1284.04 1468 1284.04 1388 1696 1388"/><path class="cls-5" d="m704,776h1168c4.42,0,8,3.58,8,8v24H696v-24c0-4.42,3.58-8,8-8Z"/><ellipse class="cls-5" cx="720" cy="791.96" rx="8" ry="7.96"/><circle class="cls-5" cx="744" cy="792" r="8"/><circle class="cls-5" cx="768" cy="792" r="8"/><rect class="cls-5" x="696" y="808" width="1184" height="32"/><line class="cls-2" x1="728" y1="824" x2="792" y2="824"/><line class="cls-5" x1="824" y1="824" x2="888" y2="824"/><line class="cls-5" x1="920" y1="824" x2="984" y2="824"/><path class="cls-5" d="m1048,1288.01c66.27,0,120-53.74,120-120s-53.73-120.01-120-120.01-120,53.74-120,120.01,53.73,120,120,120"/><circle class="cls-5" cx="1048" cy="1184" r="48"/><path class="cls-2" d="m1024,1142.43v-24c0-13.25,10.75-24,24-24h0c13.25,0,24,10.75,24,24v24"/><path class="cls-2" d="m1056,1176c0,2.96-1.61,5.55-4,6.92v13.08c0,2.21-1.79,4-4,4s-4-1.79-4-4v-13.08c-2.39-1.37-4-3.96-4-6.92,0-4.42,3.58-8,8-8s8,3.58,8,8Z"/><rect class="cls-5" x="1328" y="1208" width="416" height="56"/><line class="cls-2" x1="1400" y1="1234.62" x2="1634.62" y2="1234.62"/><polygon class="cls-3" points="1694.34 1241.48 1685.51 1232.35 1686.74 1231.07 1694.34 1238.92 1701.94 1231.07 1703.18 1232.35 1694.34 1241.48"/><rect id="_Transparent_Rectangle_" class="cls-1" x="1680.21" y="1220" width="28.27" height="29.24"/><rect class="cls-5" x="1328" y="1080" width="416" height="56"/><line class="cls-2" x1="1355.08" y1="1106.62" x2="1634.62" y2="1106.62"/><polygon class="cls-3" points="1694.34 1113.48 1685.51 1104.35 1686.74 1103.07 1694.34 1110.92 1701.94 1103.07 1703.18 1104.35 1694.34 1113.48"/><rect id="_Transparent_Rectangle_-2" class="cls-1" x="1680.21" y="1092" width="28.27" height="29.24"/><rect class="cls-5" x="1368" y="1144" width="450.4" height="56"/><rect class="cls-5" x="1368" y="1144" width="5.7" height="56"/><line class="cls-2" x1="1392" y1="1172" x2="1681.59" y2="1172"/><polygon class="cls-3" points="1775.97 1173.28 1767.13 1164.14 1768.37 1162.86 1775.97 1170.72 1783.57 1162.86 1784.8 1164.14 1775.97 1173.28"/><polygon class="cls-3" points="1775.97 1170.72 1784.8 1179.86 1783.57 1181.14 1775.97 1173.28 1768.37 1181.14 1767.13 1179.86 1775.97 1170.72"/><rect id="_Transparent_Rectangle_-3" class="cls-1" x="1761.83" y="1157.38" width="28.27" height="29.24"/><line class="cls-4" x1="1256" y1="1428" x2="1224" y2="1428"/><polyline class="cls-2" points="1237.04 1441.26 1224 1428.22 1237.48 1414.74"/><line class="cls-2" x1="1174.41" y1="1428" x2="928" y2="1428"/><path class="cls-5" d="m1307.32,1636c-.29,2.56-.45,4-.45,4v12s-16,0-16,0v-12s-.17-1.44-.47-4h16.93Z"/><path class="cls-5" d="m1312.86,1663.08v8.92h-28v-8.96c0-2.01.38-4,1.12-5.87l2.88-7.26h0c.05-5.48,4.51-9.91,10-9.91s10,4.48,10,10l2.86,7.14c.75,1.89,1.14,3.91,1.14,5.94Z"/><rect class="cls-5" x="1290.86" y="1665.22" width="16" height="6.78" transform="translate(2597.73 3337.22) rotate(180)"/><polygon class="cls-5" points="1436.86 1636 1440.66 1648 1420.86 1650 1418.86 1636 1436.86 1636"/><path class="cls-5" d="m1415.98,1657.17l2.88-9.17v-4c0-2.21,1.79-4,4-4h4c3.21,0,4.72,1.28,6,4,2.32,3.5,7.8,4,7.8,4,8,8,22.2,8,22.2,20,0,1,0,4,0,4h-20s-4,0-4,0h-24s0-8.96,0-8.96c0-2.01.38-4,1.12-5.87Z"/><rect class="cls-5" x="1414.86" y="1665.22" width="16" height="6.78" transform="translate(2845.73 3337.22) rotate(180)"/><path class="cls-5" d="m1412.62,1372.29l1.85,9.94,1.75,9.25c6.45-.31,4.33-9.38,4.15-10.37-.74-3.92.48-8.23.48-8.23l6.1,10.95-.77,13.12-.15,15.53c-.14,1.1.63,2.1,1.73,2.25,1.09.14,2.1-.63,2.24-1.73l.12-.73c.19.09.4.16.63.19,1.1.11,2.08-.68,2.2-1.78l1.96-13.87,1.97-13.87c.17-1.65-4.03-32.69-4.03-32.69l-15.72,2.98-4.32,14.83c-.44,1.36-.51,2.83-.19,4.23Z"/><path class="cls-5" d="m1422.08,1368.53c5.51,4.33,9.15,11.83,6.92,19.34l-6.57,11.43c-.6.93-.33,2.17.6,2.76.93.6,2.17.33,2.76-.6l6.06-8.54.19-.26,5.79-8.16c.21-.17.39-.38.54-.62.43-.67.57-1.45.43-2.18,0,0-.01-.06-.04-.18-.27-1.48-2.24-11.89-2.94-15.54-.74-3.93-2.97-15.73-2.97-15.73-.82-4.34-5.01-7.19-9.35-6.37-4.34.82-7.19,5.01-6.37,9.35-1.69,5.81-3.47,8.69,4.95,15.3Z"/><line class="cls-2" x1="1430.12" y1="1412.27" x2="1430.14" y2="1399.4"/><path class="cls-5" d="m1216.01,1110.94c-.09-.04-.17-.1-.25-.15-.08-.05-.17-.1-.24-.16-.07-.06-.14-.12-.21-.19-.07-.07-.15-.13-.21-.2-.06-.07-.12-.15-.18-.23-.05-.08-.11-.15-.16-.23-.05-.08-.09-.17-.13-.26-.04-.09-.09-.18-.12-.27-.03-.08-.05-.17-.07-.26-.03-.11-.06-.21-.07-.33,0-.03-.01-.05-.02-.07,0-.07,0-.13,0-.19,0-.11-.01-.21,0-.32,0-.11.02-.21.04-.32.01-.06.01-.13.03-.19,0-.02.02-.05.02-.07.03-.11.07-.21.11-.32.03-.08.06-.17.1-.25.04-.09.1-.17.15-.25.05-.08.1-.17.16-.24.06-.07.12-.14.19-.21.07-.07.13-.15.2-.21.07-.06.15-.12.23-.18.08-.05.15-.11.23-.16.08-.05.17-.09.26-.13.09-.04.18-.09.27-.12.08-.03.17-.05.26-.07.11-.03.21-.06.33-.07.03,0,.05-.01.07-.02l13.97-1.07c1.36-.15,2.59.82,2.76,2.18h0s0,.02,0,.02c0,0,0,0,0,0,0,0,0,0,0,.01l1.23,13.91c.14,1.1-.64,2.1-1.74,2.23-1.03.13-1.97-.56-2.19-1.56l-1.21,4.59c-.24,1.08-1.31,1.75-2.39,1.51s-1.75-1.31-1.51-2.39l2.12-11.25-11.4-2.28s-.05-.02-.07-.02c-.11-.03-.21-.07-.32-.11-.08-.03-.17-.06-.25-.1Z"/><path class="cls-5" d="m1216.71,1104.58c-.06-1.66,1.24-3.05,2.89-3.1l15.01-.03c1.38-.05,2.54,1.03,2.59,2.41,0,.07,0,.13-.01.19h.01s-1.14,14.97-1.14,14.97c-.05,1.1-.98,1.96-2.08,1.91-1.1-.05-1.96-.98-1.91-2.08l.11-12.22-12.36.85c-1.66.06-3.05-1.24-3.1-2.89Z"/><circle class="cls-5" cx="1223.7" cy="1135.98" r="8.02"/><path class="cls-5" d="m1214.9,1123.09c-.79-8.04-.84-12.18-.54-15.25.22-2.27,2.32-3,2.36-3.59.08-1.32,1.01-2.44,2.55-2.75.79-.16,1.44-.17,2.28-1.13l2.58-10.72,2.73-10.03c.22-1.08,1.28-1.78,2.36-1.56,1.08.22,1.78,1.28,1.56,2.36l-1.75,10.23-2.26,13.61c-.21,1.76,1.83,6.95,3.08,9.91.34.81,1.49.82,1.84,0,1.69-3.9,5.17-11.93,5.61-12.83.72-1.47,2.2-4,6.18-3.62,0,0-2.86,9.76-3.68,13.05-1.02,4.07-1.85,10.91-2.96,14.42-.94,2.96-5.15,11.29-5.15,11.29l-15.87-1.53s-.53-7.9-.91-11.84Z"/><polygon class="cls-5" points="1234.86 1132 1210.86 1132 1184.07 1226.06 1215.29 1233.06 1234.86 1132"/><path class="cls-5" d="m1374.86,1240s21.98,94.1,25.67,112.17c7.8,38.29,23.91,137.37,28.03,157.58,4.53,22.21,22.3,126.26,22.3,126.26h-52s-33.16-154.27-33.16-154.27c0,0-22.5-80.63-31.34-112.79-.61-2.21-3.85-1.83-3.93.46-1.03,32.08-3.57,110.59-3.57,110.59v156s-56,0-56,0v-156c-.09-5.47-8-88-12-156-2.11-35.94,20-84,20-84h96Z"/><path class="cls-5" d="m1300.67,1087.97v-.02c.51,3.22,1.22,6.09,2.19,8.04,2.24,4.49,5.54,8.31,8,10.8v29.2c0,8.84,7.16,16,16,16,8.84,0,16-7.16,16-16v-28.97c2.38-2.49,5.68-6.4,8-11.04.97-1.93,1.68-4.8,2.21-8.04v.02c6.68,0,5.82-21.96,5.82-21.96,0-1.11-.9-2.02-2.02-2.02h-2.3c.19-1.31.29-2.64.29-4,0-15.46-12.54-28-28-28-15.46,0-28,12.54-28,28,0,1.36.1,2.69.29,4h-2.27c-1.11,0-2.02.9-2.02,2.02,0,0-.88,21.96,5.81,21.96Z"/><path class="cls-5" d="m1394.29,1147.71c-.43-1.56-1.08-3-1.91-4.29.82,1.3,1.47,2.74,1.91,4.29Z"/><path class="cls-5" d="m1292.86,1062c0-18.78,15.22-34,34-34,18.78,0,34,15.22,34,34,0,.54-.04,50-.04,50,0,4.42-3.58,8-8,8h-51.92c-4.42,0-8-3.58-8-8,0,0-.04-49.46-.04-50Z"/><path class="cls-5" d="m1196.18,1245.17c5.64,1.26,11.24-.63,14.99-4.5v.02s33.24-34.3,44.41-45.81c2.3-2.37,5.63-5.8,9.25-9.54,5.89,25.37,14.03,54.66,14.03,54.66,0,0-3.53,7.81-4.74,10.93-1.24,3.21-4.58,13.07-4.58,13.07h110.88s-5.56-24-5.56-24c0,0,1.77-6.36,4.25-15.73,4.08,17.75,8.41,36.57,8.41,36.57,0,0,0,.06.04.18.02.07.04.14.05.21.57,2.46,3.67,15.93,5.29,22.99,3.6,15.6,17.96,67.78,17.96,67.78h28s-7.59-43.77-14.77-74.96c-1.69-7.3-4.95-21.46-5.35-23.2-.03-.12-.04-.18-.04-.18,0,0-10.72-46.54-14.32-62.17-2.56-11.11-9.04-39.25-9.84-42.73-.05-.23-.08-.35-.08-.35-.05-.23-.11-.47-.17-.7-.44-1.55-1.09-2.99-1.91-4.29-.02-.02-.04-.05-.05-.07-.22-.34-.46-.68-.7-1-.43-.57-.89-1.1-1.39-1.6-.16-.16-.31-.31-.48-.46-.16-.15-.32-.3-.49-.44-.5-.43-1.03-.83-1.58-1.19-.14-.1-.29-.19-.43-.28-.23-.14-.47-.28-.7-.4-1.14-.64-2.35-1.13-3.58-1.45-11.44-2.97-33.02-8.53-40.12-8.53h-32c-7.09,0-28.68,5.56-40.12,8.53-.05.01-.1.03-.15.05-.38.1-.76.22-1.13.35-.24.09-.49.19-.74.29-.24.1-.48.21-.72.32-.22.1-.43.21-.64.32-.18.09-.36.19-.54.31-.16.09-.31.18-.46.28-.55.33-1.09.72-1.6,1.14-.14.11-.27.23-.41.35-.34.28-.66.59-.98.92,0,0-.05.05-.15.16-1.99,2.05-22.8,23.55-30.52,31.51-11.25,11.6-44.5,45.88-44.5,45.88h.02c-2,2.06-3.48,4.66-4.15,7.65-1.93,8.62,3.49,17.18,12.11,19.11Z"/><polyline class="cls-2" points="696 840 696 1560 760 1560"/><polyline class="cls-5" points="770.44 1576 775.66 1672 859.17 1672 864.39 1576"/><polygon class="cls-5" points="749.56 1656.34 760 1661.56 760 1672 739.12 1672 749.56 1656.34"/><polyline class="cls-5" points="765.22 1560 775.66 1533.9 806.98 1544.34 822.64 1560"/><polyline class="cls-5" points="864.39 1560 864.39 1533.9 827.86 1533.9 822.64 1549.56"/><polyline class="cls-5" points="780.88 1560 801.76 1549.56 806.98 1554.78 822.64 1549.56 845.87 1569.1"/><rect class="cls-5" x="760" y="1560" width="114.83" height="16"/><rect class="cls-5" x="1560" y="552" width="320" height="160"/><rect class="cls-5" x="1720" y="680" width="160" height="32"/><line class="cls-2" x1="1728" y1="696" x2="1792" y2="696"/><polygon class="cls-3" points="1863.89 569.58 1863.16 568.84 1859.68 572.32 1856.21 568.84 1855.47 569.58 1858.95 573.05 1855.47 576.53 1856.21 577.26 1859.68 573.79 1863.16 577.26 1863.89 576.53 1860.42 573.05 1863.89 569.58"/><rect class="cls-1" x="1851.26" y="564.63" width="16.84" height="16.84"/><line class="cls-2" x1="1584" y1="576" x2="1744" y2="576"/><line class="cls-2" x1="1584" y1="592" x2="1768" y2="592"/><line class="cls-2" x1="1584" y1="608" x2="1712" y2="608"/><circle class="cls-5" cx="1565.68" cy="555.01" r="40"/><line class="cls-5" x1="1552.34" y1="541.68" x2="1579.01" y2="568.34"/><line class="cls-5" x1="1579.01" y1="541.68" x2="1552.34" y2="568.34"/><line class="cls-5" x1="1432" y1="632" x2="1560" y2="632"/><line class="cls-2" x1="1776" y1="712" x2="1776" y2="1144"/><line class="cls-2" x1="1352" y1="552" x2="1352" y2="360"/></g><g id="Layer_3"><text class="cls-6" transform="translate(752 -64)"><tspan x="0" y="0">403</tspan></text></g></svg>