<?xml version="1.0" encoding="UTF-8"?><svg id="Layer_1" xmlns="http://www.w3.org/2000/svg" viewBox="0 0 2040 2040"><defs><style>.cls-1,.cls-2,.cls-3,.cls-4,.cls-5{stroke:#e0e0e0;stroke-width:2px;}.cls-1,.cls-3{stroke-miterlimit:10;}.cls-1,.cls-4,.cls-6{fill:#161616;}.cls-2{stroke-dasharray:0 0 6 4;}.cls-2,.cls-3,.cls-5{fill:none;}.cls-2,.cls-4,.cls-5{stroke-linejoin:round;}.cls-6,.cls-7{stroke-width:0px;}.cls-7{fill:#e0e0e0;}</style></defs><polyline class="cls-1" points="382.98 1054.45 382.98 736 1566.98 736"/><path class="cls-1" d="m390.98,672h1168c4.42,0,8,3.58,8,8v24H382.98v-24c0-4.42,3.58-8,8-8Z"/><ellipse class="cls-1" cx="406.98" cy="687.96" rx="8" ry="7.96"/><circle class="cls-1" cx="430.98" cy="688" r="8"/><circle class="cls-1" cx="454.98" cy="688" r="8"/><rect class="cls-1" x="382.98" y="704" width="1184" height="32"/><line class="cls-3" x1="414.98" y1="720" x2="478.98" y2="720"/><line class="cls-1" x1="510.98" y1="720" x2="574.98" y2="720"/><line class="cls-1" x1="606.98" y1="720" x2="670.98" y2="720"/><line class="cls-1" x1="702.98" y1="720" x2="766.98" y2="720"/><polyline class="cls-3" points="1566.98 1120 974.98 1120 974.98 736 1566.98 736"/><polyline class="cls-3" points="526.98 1384 622.98 1360 702.98 1400 830.98 1344 974.98 1400 974.98 1504"/><polyline class="cls-3" points="974.98 1504 974.98 1432 894.98 1400 670.98 1432 502.98 1376 450.98 1412 382.98 1370.42 316.84 1424 228.72 1399.11 142.98 1416"/><line class="cls-3" x1="830.98" y1="1342.42" x2="894.98" y2="1398.42"/><polyline class="cls-3" points="974.98 1504 974.98 1480 894.98 1456 710.98 1480 530.98 1412 486.98 1448 406.98 1424 326.98 1480 238.98 1464 198.98 1464"/><line class="cls-3" x1="450.98" y1="1412" x2="486.98" y2="1448"/><polyline class="cls-3" points="702.98 1400 670.98 1432 710.98 1480"/><path class="cls-5" d="m1508.81,798.42h-261.83c-17.67,0-32,14.33-32,32s14.33,32,32,32h112c8.84,0,16,7.16,16,16s-7.16,16-16,16h-248c-13.25,0-24,10.75-24,24s10.75,24,24,24h440"/><polygon class="cls-7" points="1502.19 790.24 1500.82 791.71 1508.04 798.42 1500.82 805.13 1502.19 806.6 1510.98 798.42 1502.19 790.24"/><path class="cls-1" d="m1590.98,800c-13.25,0-24,10.75-24,24,0-13.26-10.74-24-24-24,13.25,0,24-10.75,24-24,0,13.26,10.74,24,24,24Z"/><path class="cls-1" d="m1750.98,648c-13.25,0-24,10.75-24,24,0-13.26-10.74-24-24-24,13.25,0,24-10.75,24-24,0,13.26,10.74,24,24,24Z"/><path class="cls-1" d="m1577.3,492c-13.25,0-24,10.75-24,24,0-13.26-10.74-24-24-24,13.25,0,24-10.75,24-24,0,13.26,10.74,24,24,24Z"/><path class="cls-1" d="m1822.98,404c-13.25,0-24,10.75-24,24,0-13.26-10.74-24-24-24,13.25,0,24-10.75,24-24,0,13.26,10.74,24,24,24Z"/><path class="cls-5" d="m699.17,848.38c-6.73,0-13.18,1.16-19.22,3.21-12.51-32.15-43.69-54.74-80.26-54.74-44.82,0-81.63,34-85.77,77.74-7.3-4.16-15.72-6.57-24.72-6.57-27.61,0-49.7,22.38-49.7,49.99s22.09,49.99,49.7,49.99h209.97c33.03,0,59.81-26.78,59.81-59.81s-26.78-59.81-59.81-59.81Z"/><path class="cls-1" d="m1454.98,1248.58c9.65-2.68,19.82-4.11,30.33-4.11,7.31,0,14.45.72,21.37,2.04,8.94-53.62,55.52-94.51,111.68-94.51,59.36,0,108.02,45.68,112.83,103.79,50.64,8.73,121.24,67.64,123.72,154.94"/><circle class="cls-1" cx="1566.98" cy="1120" r="16"/><path class="cls-3" d="m1518.49,1283.66c-44.81-32.5-99.93-51.66-159.51-51.66-150.22,0-272,121.78-272,272"/><circle class="cls-1" cx="1286.98" cy="1256" r="88"/><polygon class="cls-1" points="1003.91 1120.38 1075.42 1223.28 974.4 1149.13 974.77 1120 1003.91 1120.38"/><polygon class="cls-1" points="975.15 1090.87 1078.05 1019.35 1003.91 1120.38 974.77 1120 975.15 1090.87"/><polygon class="cls-1" points="995.37 1140.6 974.77 1264.21 974.77 1140.6 974.77 1120 995.37 1140.6"/><polygon class="cls-1" points="995.37 1099.4 1118.98 1120 995.37 1140.6 974.77 1120 995.37 1099.4"/><polygon class="cls-1" points="974.77 1099.4 974.77 975.79 995.37 1099.4 974.77 1120 974.77 1099.4"/><circle class="cls-1" cx="974.77" cy="928" r="16"/><path class="cls-4" d="m686.17,736h111.79c53.02,0,96,42.98,96,96h0c0,53.02-42.98,96-96,96h-128c-53.02,0-96,42.98-96,96h0c0,53.02,42.98,96,96,96h305.02"/><ellipse class="cls-1" cx="862.98" cy="1031.99" rx="38.98" ry="40"/><line class="cls-1" x1="846.52" y1="1031.1" x2="862.98" y2="1047.99"/><line class="cls-1" x1="879.44" y1="1031.1" x2="862.98" y2="1047.99"/><line class="cls-1" x1="862.98" y1="1047.99" x2="862.98" y2="1119.99"/><path class="cls-1" d="m752.5,1048.77c.69-1.94,1.06-4.02,1.06-6.2,0-10.26-8.32-18.58-18.58-18.58s-18.58,8.32-18.58,18.58c0,2.17.37,4.26,1.06,6.2-6.31,5.11-10.35,12.92-10.35,21.67,0,15.39,12.48,27.87,27.87,27.87s27.87-12.48,27.87-27.87c0-8.75-4.04-16.56-10.35-21.67Z"/><line class="cls-1" x1="722.59" y1="1058.06" x2="734.98" y2="1070.45"/><line class="cls-1" x1="747.37" y1="1058.06" x2="734.98" y2="1070.45"/><line class="cls-1" x1="734.98" y1="1070.45" x2="734.98" y2="1119.99"/><line class="cls-1" x1="756.66" y1="1067.35" x2="734.98" y2="1089.03"/><line class="cls-1" x1="713.3" y1="1067.35" x2="734.98" y2="1089.03"/><polygon class="cls-1" points="798.98 1023.99 766.98 1119.99 830.98 1119.99 798.98 1023.99"/><line class="cls-1" x1="798.98" y1="1053.99" x2="798.98" y2="1119.99"/><line class="cls-1" x1="789.38" y1="1071.99" x2="798.98" y2="1071.99"/><line class="cls-1" x1="798.98" y1="1086.99" x2="808.58" y2="1086.99"/><line class="cls-1" x1="782.98" y1="1104.99" x2="798.98" y2="1104.99"/><path class="cls-5" d="m1121.15,1648h605.83c13.25,0,24-10.75,24-24s-10.75-24-24-24h-208c-26.51,0-48-21.49-48-48s21.49-48,48-48h320c26.51,0,48-21.49,48-48s-21.49-48-48-48h-552"/><polygon class="cls-7" points="1127.78 1656.18 1129.14 1654.71 1121.92 1648 1129.14 1641.29 1127.78 1639.82 1118.98 1648 1127.78 1656.18"/><path class="cls-1" d="m1344.66,1351.82c1.18-14.29,13.15-25.52,27.75-25.52,13.81,0,25.27,10.05,27.46,23.24,1.35-.26,2.73-.42,4.14-.47,5.51-18.67,22.78-32.3,43.24-32.3,6.46,0,12.61,1.37,18.17,3.82,8.27-9.73,20.6-15.92,34.37-15.92,2.91,0,5.75.29,8.51.81,3.56-21.35,22.11-37.63,44.47-37.63,23.63,0,43.01,18.19,44.92,41.33,21.23,3.66,51.26,29.46,49.19,67.28-.45,8.27-1.87,17.02-10.08,31.54h-313.63c-6.57-5.89-10.71-14.45-10.71-23.98,0-17.78,14.42-32.2,32.2-32.2Z"/><path class="cls-1" d="m1207.78,1338.6c0,43.74,35.46,79.2,79.2,79.2,43.74,0,79.2-35.46,79.2-79.2,0-25.81-12.35-48.74-31.47-63.2,3.25-6.85,5.07-14.51,5.07-22.6,0-29.16-23.64-52.8-52.8-52.8s-52.8,23.64-52.8,52.8c0,8.08,1.81,15.75,5.07,22.6-19.12,14.46-31.47,37.39-31.47,63.2Z"/><line class="cls-1" x1="1247.38" y1="1312.2" x2="1286.98" y2="1345.2"/><line class="cls-1" x1="1326.58" y1="1312.2" x2="1286.98" y2="1345.2"/><line class="cls-1" x1="1286.98" y1="1345.2" x2="1286.98" y2="1648"/><line class="cls-1" x1="1227.58" y1="1332" x2="1286.98" y2="1378.2"/><line class="cls-1" x1="1346.38" y1="1332" x2="1286.98" y2="1378.2"/><path class="cls-6" d="m318.98,1184h392c8.84,0,16,7.16,16,16h0c0,8.84-7.16,16-16,16h-96c-8.84,0-16,7.16-16,16h0c0,8.84,7.16,16,16,16h280c17.67,0,32,14.33,32,32h0c0,17.67-14.33,32-32,32H264c-53.02,0-96-42.98-96-96h0c0-53.02,42.98-96,96-96h398.98"/><path class="cls-5" d="m321.15,1184h389.83c8.84,0,16,7.16,16,16s-7.16,16-16,16h-96c-8.84,0-16,7.16-16,16s7.16,16,16,16h280c17.67,0,32,14.33,32,32s-14.33,32-32,32H264c-53.02,0-96-42.98-96-96s42.98-96,96-96h398.98"/><polygon class="cls-7" points="327.78 1192.18 329.14 1190.71 321.92 1184 329.14 1177.29 327.78 1175.82 318.98 1184 327.78 1192.18"/><path class="cls-1" d="m238.98,1184c13.25,0,24,10.75,24,24,0-13.26,10.74-24,24-24-13.25,0-24-10.75-24-24,0,13.26-10.74,24-24,24Z"/><circle class="cls-1" cx="382.98" cy="1054.45" r="16"/><path class="cls-1" d="m1627.04,1359.79v17.57h27.27s.18-17.55.18-17.55c.01-1.11-.89-2.02-2-2.02h-23.45c-1.1,0-2,.9-2,2Z"/><path class="cls-1" d="m1657.97,1389.03l-3.66-11.65v-5.08c0-2.81-2.28-5.08-5.08-5.08h-5.08c-4.07,0-6,1.62-7.62,5.08-2.94,4.45-9.91,5.08-9.91,5.08-10.16,10.16-28.2,10.16-28.2,25.41v5.08h60.98v-11.38c0-2.55-.48-5.09-1.42-7.46Z"/><rect class="cls-1" x="1639.06" y="1397.71" width="20.33" height="5.08"/><path class="cls-1" d="m1745.69,1359.79v17.57s-27.27.01-27.27.01l-.18-17.57c-.01-1.11.89-2.02,2-2.02h23.45c1.1,0,2,.9,2,2Z"/><path class="cls-1" d="m1714.76,1389.03l3.66-11.65v-5.08c0-2.81,2.28-5.08,5.08-5.08h5.08c4.07,0,6,1.62,7.62,5.08,2.94,4.45,9.91,5.08,9.91,5.08,10.16,10.16,28.2,10.16,28.2,25.41v5.08h-25.41s-5.08,0-5.08,0h-30.49v-11.38c0-2.55.48-5.09,1.42-7.46Z"/><rect class="cls-1" x="1713.34" y="1397.71" width="20.33" height="5.08" transform="translate(3447.01 2800.5) rotate(-180)"/><path class="cls-1" d="m1743.69,1357.79h-23.45s-30.02-174.37-30.38-178.49c0,0,0-6.06-3.5-6.06s-3.5,6.06-3.5,6.06c-.35,4.12-30.37,178.49-30.37,178.49h-23.45l3.48-93.1c.29-4.04,2.79-57.31-.03-88.35-2.97-32.6,14.81-79.17,14.81-79.17h78.13s17.78,46.57,14.81,79.17c-2.82,31.04-.32,84.31-.04,88.35l3.49,93.1Z"/><polygon class="cls-1" points="1746.42 990.2 1692.99 898.57 1618.17 808 1547.95 857.17 1440.57 882.35 1532.19 982.71 1566.18 1080.41 1746.42 990.2"/><polygon class="cls-1" points="1547.95 857.17 1617.06 938.3 1666.22 1032.56 1566.18 1080.41 1532.19 982.71 1440.57 882.35 1547.95 857.17"/><path class="cls-3" d="m1496.63,942.18c1.31-.95,37.08-34.75,91.52-27.25"/><path class="cls-3" d="m1593.6,948.99c-5.45-11.82-5.43-29.5-5.45-32.66-.03-7.15,3.12-19.06,7.86-26.3,23.73-36.2,69.55-27.48,69.55-27.48"/><path id="cloudy--partial" class="cls-5" d="m1586.16,857.45c-2.52-3.37-1.84-8.15,1.54-10.68.76-.57,1.39-.98,2.25-1.23m-3.89-.95l-1.35-1.8m-1.97,6.01l-2.06-.88m1.3,6.19l-2.23.27m11.28-11.77l-.27-2.23m-6.8,18.71l-1.8,1.35"/><path class="cls-5" d="m1610.85,838.69c-.69.51-1.26,1.12-1.71,1.79-3.73-2.32-8.63-2.25-12.36.54-4.57,3.42-5.73,9.69-2.81,14.47-1.06.13-2.1.53-3.02,1.22-2.82,2.11-3.36,6.07-1.25,8.89,2.11,2.82,6.07,3.41,8.88,1.31l21.41-16.02c3.37-2.52,4.06-7.29,1.54-10.66s-7.29-4.06-10.66-1.54Z"/><path class="cls-2" d="m1664.57,982.29s-33.21,77.01-65.3,59.67c-33.08-17.88-1.15-41.76-9.31-57.49-8.2-15.79-38.57,1.95-36.56-36.41,1.8-34.4,72.15.39,79.81-42.76"/><polygon class="cls-7" points="1639.54 913.56 1637.81 914.56 1632.87 906.02 1624.72 911.57 1623.6 909.92 1633.53 903.16 1639.54 913.56"/><line class="cls-1" x1="1532.19" y1="982.71" x2="1692.99" y2="898.57"/><circle class="cls-1" cx="1634.84" cy="892.29" r="4"/><polygon class="cls-1" points="1520.54 974.26 1526.4 982.85 1529.98 980.21 1523.53 972.07 1520.54 974.26"/><circle class="cls-1" cx="1515.87" cy="964.8" r="1.48"/><circle class="cls-1" cx="1528.19" cy="981.53" r="2.23"/><circle class="cls-1" cx="1522.03" cy="973.16" r="1.86"/><polygon class="cls-1" points="1514.68 965.68 1517.07 963.92 1523.53 972.07 1520.54 974.26 1514.68 965.68"/><path class="cls-1" d="m1698.31,989.89l29.38,60.31c1.99,4.08,5.72,7.03,10.14,8.02h0c9.86,2.21,19.26-5.83,18.13-15.87-3.44-30.59-30.15-71.92-30.15-71.92l-27.5,19.45Z"/><path class="cls-1" d="m1686.09,952.28s-33.13-2.17-39.03,34.88c-4.81,30.22,5.41,42.32,4.55,67.86-.41,12.19-11.66,34.56-11.66,49.18h95.04s-2.67-15.25-10.4-49.18c-2.01-8.83,2.59-19.37,6.12-31.1,16.81-55.84-18.4-71.64-44.62-71.64Z"/><path class="cls-1" d="m1641.84,1091.58s-17.87,35.84-17.87,94.43c24.89,11.92,61.15,8.81,61.15,8.81l1.45-9.39,1.16,9.34s34.23,7.83,61.19-7.73c1.7-59.62-16.38-95.47-16.38-95.47,0,0-33.94,11.85-90.7,0Z"/><path class="cls-1" d="m1676.8,968.47c-6.51-5.78-17.83-3.86-24.76,4.47l-44.31,38.68-51.93-18.38s-4.58.46-5.95-.66l-4.6-10.5c-.4-.99-1.06-1.85-1.9-2.5l-5.79-4.77-5.4-4.43c-3.52,3.25,2.01,7.4,2.58,7.88,2.29,1.88,3.65,4.91,3.65,4.91l-8.77-3.35-6.76-7.52-6.28-9.2c-.44-.69-1.36-.9-2.05-.46-.69.44-.9,1.36-.46,2.05l5.66,9.59,5.66,9.59c.13.21,16.94,17.89,16.94,17.89,1,.82,1.05,3.62,1.05,3.62l58.82,36.76c3.38,2.11,7.72,1.84,10.81-.68l59.99-48.86c7.82-7.38,12.41-16.49,3.82-24.12Z"/><path class="cls-1" d="m1658.13,918.2l3.61.51h0l3.22,15.03c.89,4.15,4.94,6.78,9.05,5.89l3.72-.82,11.16-2.44c9.86,9.65,6.44,30.06,6.44,30.06l40.8-8.5c-8.74-8.99-20.21-31.19-14.62-54.65,3.01-6.57,4-14.14,2.36-21.75-4.01-18.67-22.24-30.54-40.73-26.49-18.49,4.04-30.24,22.45-26.24,41.13l1.61,7.51-2.97,10.12c-.53,2.09.48,4.04,2.58,4.39Z"/><path class="cls-1" d="m1655.41,881.11s12.95,21.71,37.26,14.4c1.58-.47,3.97-3.11,3.64,3.64-.11,2.35.8,4.84,2.39,7.24-.15.82-.24,1.66-.28,2.51-.57,11.64,8.26,21.54,19.73,22.13,11.47.58,21.23-8.38,21.81-20.02.47-9.45-5.27-17.75-13.57-20.85-.26-12.21-4.44-38.98-35.56-39.84-28.37-.78-35.41,30.79-35.41,30.79Z"/><path class="cls-1" d="m1694.71,913.29c2.94-.69,4.99-3.36,4.89-6.38l-.63-10.28c-.09-2.75-2.23-5.47-4.98-4.82-2.34.55-3.35,2.69-2.54,6.45"/><path class="cls-1" d="m1697.82,970.61s-25.59,45.66-25.24,95.9c.35,50.25,104.86,48.78,104.51-.74-.35-49.51-20.54-95.58-20.54-95.58l-58.73.41Z"/><path class="cls-1" d="m1688.88,990.61l68.37-.48c9.78-.07,17.72-8.12,17.65-17.9h0c-.07-9.78-8.12-17.72-17.9-17.65l-67.53.48c-8.34.06-15.12,6.93-15.07,15.28l.04,6.05c.06,7.88,6.55,14.28,14.43,14.23Z"/><path class="cls-1" d="m1675.06,1037.33s-22.64,48.47,11.04,48.23c33.68-.24,18.23-48.44,18.23-48.44l-29.27.21Z"/><path class="cls-1" d="m1724.87,1036.98s-20.39,48.45,16.56,48.19c36.95-.26,43.7-1.99,43.54-23.98-.15-21.99-9.64-24.57-9.64-24.57l-50.47.36Z"/><path class="cls-1" d="m1673.45,972.94c.07,9.62,6.02,17.38,13.29,17.33,7.27-.05,13.11-7.89,13.05-17.51-.07-9.62-6.02-17.38-13.29-17.33-7.27.05-13.11,7.89-13.05,17.51Z"/><path class="cls-1" d="m1707.14,954.92s16.26,19.16.25,35.55l8.21-.06s16.9-18.04-.68-35.55l-7.77.05Z"/><path class="cls-1" d="m1746.17,954.65s16.26,19.16.25,35.55l8.21-.06s16.9-18.04-.68-35.55l-7.77.05Z"/><line class="cls-3" x1="1555.8" y1="991.66" x2="1543.36" y2="1003.79"/><line class="cls-3" x1="830.98" y1="736" x2="678.98" y2="736"/><polyline class="cls-3" points="974.77 1264.21 974.77 1504 1086.98 1504"/><circle class="cls-1" cx="974.98" cy="1312" r="16"/><line class="cls-3" x1="974.98" y1="1504" x2="390.98" y2="1504"/><line class="cls-3" x1="1774.32" y1="1408" x2="1590.98" y2="1408"/></svg>