<?xml version="1.0" encoding="UTF-8"?><svg xmlns="http://www.w3.org/2000/svg" viewBox="0 0 2040 2040"><defs><style>.cls-1,.cls-2{stroke-miterlimit:10;}.cls-1,.cls-2,.cls-3,.cls-4,.cls-5{stroke:#000;stroke-width:2px;}.cls-1,.cls-6,.cls-4{fill:#f3f3f3;}.cls-2,.cls-3,.cls-5{fill:none;}.cls-7,.cls-6{stroke-width:0px;}.cls-3,.cls-4,.cls-5{stroke-linejoin:round;}.cls-8{fill:#fff;font-family:MyriadPro-Regular, 'Myriad Pro';font-size:302.57px;}.cls-5{stroke-dasharray:0 0 6 4;}</style></defs><g id="Layer_1"><polyline class="cls-1" points="384 1058.45 384 740 1568 740"/><path class="cls-1" d="m392,676h1168c4.42,0,8,3.58,8,8v24H384v-24c0-4.42,3.58-8,8-8Z"/><ellipse class="cls-1" cx="408" cy="691.96" rx="8" ry="7.96"/><circle class="cls-1" cx="432" cy="692" r="8"/><circle class="cls-1" cx="456" cy="692" r="8"/><rect class="cls-1" x="384" y="708" width="1184" height="32"/><line class="cls-2" x1="416" y1="724" x2="480" y2="724"/><line class="cls-1" x1="512" y1="724" x2="576" y2="724"/><line class="cls-1" x1="608" y1="724" x2="672" y2="724"/><line class="cls-1" x1="704" y1="724" x2="768" y2="724"/><polyline class="cls-2" points="1568 1124 976 1124 976 740 1568 740"/><polyline class="cls-2" points="528 1388 624 1364 704 1404 832 1348 976 1404 976 1508"/><polyline class="cls-2" points="976 1508 976 1436 896 1404 672 1436 504 1380 452 1416 384 1374.42 317.86 1428 229.74 1403.11 144 1420"/><line class="cls-2" x1="832" y1="1346.42" x2="896" y2="1402.42"/><polyline class="cls-2" points="976 1508 976 1484 896 1460 712 1484 532 1416 488 1452 408 1428 328 1484 240 1468 200 1468"/><line class="cls-2" x1="452" y1="1416" x2="488" y2="1452"/><polyline class="cls-2" points="704 1404 672 1436 712 1484"/><path class="cls-3" d="m1509.83,802.42h-261.83c-17.67,0-32,14.33-32,32h0c0,17.67,14.33,32,32,32h112c8.84,0,16,7.16,16,16h0c0,8.84-7.16,16-16,16h-248c-13.25,0-24,10.75-24,24h0c0,13.25,10.75,24,24,24h440"/><polygon class="cls-7" points="1503.2 794.24 1501.84 795.71 1509.06 802.42 1501.84 809.13 1503.2 810.6 1512 802.42 1503.2 794.24"/><path class="cls-1" d="m1592,804c-13.25,0-24,10.75-24,24,0-13.26-10.74-24-24-24,13.25,0,24-10.75,24-24,0,13.26,10.74,24,24,24Z"/><path class="cls-1" d="m1752,652c-13.25,0-24,10.75-24,24,0-13.26-10.74-24-24-24,13.25,0,24-10.75,24-24,0,13.26,10.74,24,24,24Z"/><path class="cls-1" d="m1578.32,496c-13.25,0-24,10.75-24,24,0-13.26-10.74-24-24-24,13.25,0,24-10.75,24-24,0,13.26,10.74,24,24,24Z"/><path class="cls-1" d="m1824,408c-13.25,0-24,10.75-24,24,0-13.26-10.74-24-24-24,13.25,0,24-10.75,24-24,0,13.26,10.74,24,24,24Z"/><path class="cls-3" d="m700.19,852.38c-6.73,0-13.18,1.16-19.22,3.21-12.51-32.15-43.69-54.74-80.26-54.74-44.82,0-81.63,34-85.77,77.74-7.3-4.16-15.72-6.57-24.72-6.57-27.61,0-49.7,22.38-49.7,49.99s22.09,49.99,49.7,49.99h209.97c33.03,0,59.81-26.78,59.81-59.81s-26.78-59.81-59.81-59.81Z"/><path class="cls-1" d="m1456,1252.58c9.65-2.68,19.82-4.11,30.33-4.11,7.31,0,14.45.72,21.37,2.04,8.94-53.62,55.52-94.51,111.68-94.51,59.36,0,108.02,45.68,112.83,103.79,50.64,8.73,121.24,67.64,123.72,154.94"/><circle class="cls-1" cx="1568" cy="1124" r="16"/><path class="cls-2" d="m1519.51,1287.66c-44.81-32.5-99.93-51.66-159.51-51.66-150.22,0-272,121.78-272,272"/><circle class="cls-1" cx="1288" cy="1260" r="88"/><polygon class="cls-1" points="1004.92 1124.38 1076.44 1227.28 975.42 1153.13 975.79 1124 1004.92 1124.38"/><polygon class="cls-1" points="976.17 1094.87 1079.07 1023.35 1004.92 1124.38 975.79 1124 976.17 1094.87"/><polygon class="cls-1" points="996.39 1144.6 975.79 1268.21 975.79 1144.6 975.79 1124 996.39 1144.6"/><polygon class="cls-1" points="996.39 1103.4 1120 1124 996.39 1144.6 975.79 1124 996.39 1103.4"/><polygon class="cls-1" points="975.79 1103.4 975.79 979.79 996.39 1103.4 975.79 1124 975.79 1103.4"/><circle class="cls-1" cx="975.79" cy="932" r="16"/><path class="cls-4" d="m686.17,744h111.79c53.02,0,96,42.98,96,96h0c0,53.02-42.98,96-96,96h-128c-53.02,0-96,42.98-96,96h0c0,53.02,42.98,96,96,96h305.02"/><ellipse class="cls-1" cx="864" cy="1040" rx="38.98" ry="40"/><line class="cls-1" x1="847.54" y1="1039.11" x2="864" y2="1056"/><line class="cls-1" x1="880.46" y1="1039.11" x2="864" y2="1056"/><line class="cls-1" x1="864" y1="1056" x2="864" y2="1128"/><path class="cls-1" d="m753.52,1056.78c.69-1.94,1.06-4.02,1.06-6.2,0-10.26-8.32-18.58-18.58-18.58s-18.58,8.32-18.58,18.58c0,2.17.37,4.26,1.06,6.2-6.31,5.11-10.35,12.92-10.35,21.67,0,15.39,12.48,27.87,27.87,27.87s27.87-12.48,27.87-27.87c0-8.75-4.04-16.56-10.35-21.67Z"/><line class="cls-1" x1="723.61" y1="1066.06" x2="736" y2="1078.45"/><line class="cls-1" x1="748.39" y1="1066.06" x2="736" y2="1078.45"/><line class="cls-1" x1="736" y1="1078.45" x2="736" y2="1128"/><line class="cls-1" x1="757.68" y1="1075.35" x2="736" y2="1097.03"/><line class="cls-1" x1="714.32" y1="1075.35" x2="736" y2="1097.03"/><polygon class="cls-1" points="800 1032 768 1128 832 1128 800 1032"/><line class="cls-1" x1="800" y1="1062" x2="800" y2="1128"/><line class="cls-1" x1="790.4" y1="1080" x2="800" y2="1080"/><line class="cls-1" x1="800" y1="1095" x2="809.6" y2="1095"/><line class="cls-1" x1="784" y1="1113" x2="800" y2="1113"/><path class="cls-3" d="m1122.17,1652h605.83c13.25,0,24-10.75,24-24s-10.75-24-24-24h-208c-26.51,0-48-21.49-48-48h0c0-26.51,21.49-48,48-48h320c26.51,0,48-21.49,48-48h0c0-26.51-21.49-48-48-48h-552"/><polygon class="cls-7" points="1128.8 1660.18 1130.16 1658.71 1122.94 1652 1130.16 1645.29 1128.8 1643.82 1120 1652 1128.8 1660.18"/><path class="cls-1" d="m1345.68,1355.82c1.18-14.29,13.15-25.52,27.75-25.52,13.81,0,25.27,10.05,27.46,23.24,1.35-.26,2.73-.42,4.14-.47,5.51-18.67,22.78-32.3,43.24-32.3,6.46,0,12.61,1.37,18.17,3.82,8.27-9.73,20.6-15.92,34.37-15.92,2.91,0,5.75.29,8.51.81,3.56-21.35,22.11-37.63,44.47-37.63,23.63,0,43.01,18.19,44.92,41.33,21.23,3.66,51.26,29.46,49.19,67.28-.45,8.27-1.87,17.02-10.08,31.54h-313.63c-6.57-5.89-10.71-14.45-10.71-23.98,0-17.78,14.42-32.2,32.2-32.2Z"/><path class="cls-1" d="m1208.8,1342.6c0,43.74,35.46,79.2,79.2,79.2s79.2-35.46,79.2-79.2c0-25.81-12.35-48.74-31.47-63.2,3.25-6.85,5.07-14.51,5.07-22.6,0-29.16-23.64-52.8-52.8-52.8s-52.8,23.64-52.8,52.8c0,8.08,1.81,15.75,5.07,22.6-19.12,14.46-31.47,37.39-31.47,63.2Z"/><line class="cls-1" x1="1248.4" y1="1316.2" x2="1288" y2="1349.2"/><line class="cls-1" x1="1327.6" y1="1316.2" x2="1288" y2="1349.2"/><line class="cls-1" x1="1288" y1="1349.2" x2="1288" y2="1652"/><line class="cls-1" x1="1228.6" y1="1336" x2="1288" y2="1382.2"/><line class="cls-1" x1="1347.4" y1="1336" x2="1288" y2="1382.2"/><path class="cls-6" d="m318.98,1192h392c8.84,0,16,7.16,16,16h0c0,8.84-7.16,16-16,16h-96c-8.84,0-16,7.16-16,16h0c0,8.84,7.16,16,16,16h280c17.67,0,32,14.33,32,32h0c0,17.67-14.33,32-32,32H264c-53.02,0-96-42.98-96-96h0c0-53.02,42.98-96,96-96h398.98"/><path class="cls-3" d="m321.15,1192h389.83c8.84,0,16,7.16,16,16h0c0,8.84-7.16,16-16,16h-96c-8.84,0-16,7.16-16,16h0c0,8.84,7.16,16,16,16h280c17.67,0,32,14.33,32,32h0c0,17.67-14.33,32-32,32H264c-53.02,0-96-42.98-96-96h0c0-53.02,42.98-96,96-96h398.98"/><polygon class="cls-7" points="327.78 1200.18 329.14 1198.71 321.92 1192 329.14 1185.29 327.78 1183.82 318.98 1192 327.78 1200.18"/><path class="cls-1" d="m238.98,1192c13.25,0,24,10.75,24,24,0-13.26,10.74-24,24-24-13.25,0-24-10.75-24-24,0,13.26-10.74,24-24,24Z"/><circle class="cls-1" cx="384" cy="1058.45" r="16"/><path class="cls-1" d="m1628.06,1363.79v17.57h27.27s.18-17.55.18-17.55c.01-1.11-.89-2.02-2-2.02h-23.45c-1.1,0-2,.9-2,2Z"/><path class="cls-1" d="m1658.99,1393.03l-3.66-11.65v-5.08c0-2.81-2.28-5.08-5.08-5.08h-5.08c-4.07,0-6,1.62-7.62,5.08-2.94,4.45-9.91,5.08-9.91,5.08-10.16,10.16-28.2,10.16-28.2,25.41v5.08h60.98v-11.38c0-2.55-.48-5.09-1.42-7.46Z"/><rect class="cls-1" x="1640.08" y="1401.71" width="20.33" height="5.08"/><path class="cls-1" d="m1746.71,1363.79v17.57s-27.27.01-27.27.01l-.18-17.57c-.01-1.11.89-2.02,2-2.02h23.45c1.1,0,2,.9,2,2Z"/><path class="cls-1" d="m1715.78,1393.03l3.66-11.65v-5.08c0-2.81,2.28-5.08,5.08-5.08h5.08c4.07,0,6,1.62,7.62,5.08,2.94,4.45,9.91,5.08,9.91,5.08,10.16,10.16,28.2,10.16,28.2,25.41v5.08h-25.41s-5.08,0-5.08,0h-30.49v-11.38c0-2.55.48-5.09,1.42-7.46Z"/><rect class="cls-1" x="1714.36" y="1401.71" width="20.33" height="5.08" transform="translate(3449.05 2808.5) rotate(-180)"/><path class="cls-1" d="m1744.71,1361.79h-23.45s-30.02-174.37-30.38-178.49c0,0,0-6.06-3.5-6.06s-3.5,6.06-3.5,6.06c-.35,4.12-30.37,178.49-30.37,178.49h-23.45l3.48-93.1c.29-4.04,2.79-57.31-.03-88.35-2.97-32.6,14.81-79.17,14.81-79.17h78.13s17.78,46.57,14.81,79.17c-2.82,31.04-.32,84.31-.04,88.35l3.49,93.1Z"/><polygon class="cls-1" points="1747.44 994.2 1694.01 902.57 1619.19 812 1548.97 861.17 1441.58 886.35 1533.2 986.71 1567.2 1084.41 1747.44 994.2"/><polygon class="cls-1" points="1548.97 861.17 1618.08 942.3 1667.24 1036.56 1567.2 1084.41 1533.2 986.71 1441.58 886.35 1548.97 861.17"/><path class="cls-2" d="m1497.65,946.18c1.31-.95,37.08-34.75,91.52-27.25"/><path class="cls-2" d="m1594.62,952.99c-5.45-11.82-5.43-29.5-5.45-32.66-.03-7.15,3.12-19.06,7.86-26.3,23.73-36.2,69.55-27.48,69.55-27.48"/><path id="cloudy--partial" class="cls-3" d="m1587.18,861.45c-2.52-3.37-1.84-8.15,1.54-10.68.76-.57,1.39-.98,2.25-1.23m-3.89-.95l-1.35-1.8m-1.97,6.01l-2.06-.88m1.3,6.19l-2.23.27m11.28-11.77l-.27-2.23m-6.8,18.71l-1.8,1.35"/><path class="cls-3" d="m1611.87,842.69c-.69.51-1.26,1.12-1.71,1.79-3.73-2.32-8.63-2.25-12.36.54-4.57,3.42-5.73,9.69-2.81,14.47-1.06.13-2.1.53-3.02,1.22-2.82,2.11-3.36,6.07-1.25,8.89s6.07,3.41,8.88,1.31l21.41-16.02c3.37-2.52,4.06-7.29,1.54-10.66s-7.29-4.06-10.66-1.54Z"/><path class="cls-5" d="m1665.58,986.29s-33.21,77.01-65.3,59.67c-33.08-17.88-1.15-41.76-9.31-57.49-8.2-15.79-38.57,1.95-36.56-36.41,1.8-34.4,72.15.39,79.81-42.76"/><polygon class="cls-7" points="1640.56 917.56 1638.83 918.56 1633.89 910.02 1625.74 915.57 1624.61 913.92 1634.55 907.16 1640.56 917.56"/><line class="cls-1" x1="1533.2" y1="986.71" x2="1694.01" y2="902.57"/><circle class="cls-1" cx="1635.86" cy="896.29" r="4"/><polygon class="cls-1" points="1521.56 978.26 1527.42 986.85 1531 984.21 1524.55 976.07 1521.56 978.26"/><circle class="cls-1" cx="1516.89" cy="968.8" r="1.48"/><circle class="cls-1" cx="1529.21" cy="985.53" r="2.23"/><circle class="cls-1" cx="1523.05" cy="977.16" r="1.86"/><polygon class="cls-1" points="1515.7 969.68 1518.09 967.92 1524.55 976.07 1521.56 978.26 1515.7 969.68"/><path class="cls-1" d="m1699.33,993.89l29.38,60.31c1.99,4.08,5.72,7.03,10.14,8.02h0c9.86,2.21,19.26-5.83,18.13-15.87-3.44-30.59-30.15-71.92-30.15-71.92l-27.5,19.45Z"/><path class="cls-1" d="m1687.11,956.28s-33.13-2.17-39.03,34.88c-4.81,30.22,5.41,42.32,4.55,67.86-.41,12.19-11.66,34.56-11.66,49.18h95.04s-2.67-15.25-10.4-49.18c-2.01-8.83,2.59-19.37,6.12-31.1,16.81-55.84-18.4-71.64-44.62-71.64Z"/><path class="cls-1" d="m1642.86,1095.58s-17.87,35.84-17.87,94.43c24.89,11.92,61.15,8.81,61.15,8.81l1.45-9.39,1.16,9.34s34.23,7.83,61.19-7.73c1.7-59.62-16.38-95.47-16.38-95.47,0,0-33.94,11.85-90.7,0Z"/><path class="cls-1" d="m1677.82,972.47c-6.51-5.78-17.83-3.86-24.76,4.47l-44.31,38.68-51.93-18.38s-4.58.46-5.95-.66l-4.6-10.5c-.4-.99-1.06-1.85-1.9-2.5l-5.79-4.77-5.4-4.43c-3.52,3.25,2.01,7.4,2.58,7.88,2.29,1.88,3.65,4.91,3.65,4.91l-8.77-3.35-6.76-7.52-6.28-9.2c-.44-.69-1.36-.9-2.05-.46-.69.44-.9,1.36-.46,2.05l5.66,9.59,5.66,9.59c.13.21,16.94,17.89,16.94,17.89,1,.82,1.05,3.62,1.05,3.62l58.82,36.76c3.38,2.11,7.72,1.84,10.81-.68l59.99-48.86c7.82-7.38,12.41-16.49,3.82-24.12Z"/><path class="cls-1" d="m1659.15,922.2l3.61.51h0l3.22,15.03c.89,4.15,4.94,6.78,9.05,5.89l3.72-.82,11.16-2.44c9.86,9.65,6.44,30.06,6.44,30.06l40.8-8.5c-8.74-8.99-20.21-31.19-14.62-54.65,3.01-6.57,4-14.14,2.36-21.75-4.01-18.67-22.24-30.54-40.73-26.49-18.49,4.04-30.24,22.45-26.24,41.13l1.61,7.51-2.97,10.12c-.53,2.09.48,4.04,2.58,4.39Z"/><path class="cls-1" d="m1656.43,885.11s12.95,21.71,37.26,14.4c1.58-.47,3.97-3.11,3.64,3.64-.11,2.35.8,4.84,2.39,7.24-.15.82-.24,1.66-.28,2.51-.57,11.64,8.26,21.54,19.73,22.13,11.47.58,21.23-8.38,21.81-20.02.47-9.45-5.27-17.75-13.57-20.85-.26-12.21-4.44-38.98-35.56-39.84-28.37-.78-35.41,30.79-35.41,30.79Z"/><path class="cls-1" d="m1695.73,917.29c2.94-.69,4.99-3.36,4.89-6.38l-.63-10.28c-.09-2.75-2.23-5.47-4.98-4.82-2.34.55-3.35,2.69-2.54,6.45"/><path class="cls-1" d="m1698.84,974.61s-25.59,45.66-25.24,95.9c.35,50.25,104.86,48.78,104.51-.74-.35-49.51-20.54-95.58-20.54-95.58l-58.73.41Z"/><path class="cls-1" d="m1689.9,994.61l68.37-.48c9.78-.07,17.72-8.12,17.65-17.9h0c-.07-9.78-8.12-17.72-17.9-17.65l-67.53.48c-8.34.06-15.12,6.93-15.07,15.28l.04,6.05c.06,7.88,6.55,14.28,14.43,14.23Z"/><path class="cls-1" d="m1676.08,1041.33s-22.64,48.47,11.04,48.23c33.68-.24,18.23-48.44,18.23-48.44l-29.27.21Z"/><path class="cls-1" d="m1725.89,1040.98s-20.39,48.45,16.56,48.19c36.95-.26,43.7-1.99,43.54-23.98-.15-21.99-9.64-24.57-9.64-24.57l-50.47.36Z"/><path class="cls-1" d="m1674.47,976.94c.07,9.62,6.02,17.38,13.29,17.33,7.27-.05,13.11-7.89,13.05-17.51-.07-9.62-6.02-17.38-13.29-17.33-7.27.05-13.11,7.89-13.05,17.51Z"/><path class="cls-1" d="m1708.16,958.92s16.26,19.16.25,35.55l8.21-.06s16.9-18.04-.68-35.55l-7.77.05Z"/><path class="cls-1" d="m1747.19,958.65s16.26,19.16.25,35.55l8.21-.06s16.9-18.04-.68-35.55l-7.77.05Z"/><line class="cls-2" x1="1556.82" y1="995.66" x2="1544.38" y2="1007.79"/><line class="cls-2" x1="832" y1="740" x2="680" y2="740"/><polyline class="cls-2" points="975.79 1268.21 975.79 1508 1088 1508"/><circle class="cls-1" cx="976" cy="1316" r="16"/><line class="cls-2" x1="976" y1="1508" x2="392" y2="1508"/><line class="cls-2" x1="1775.34" y1="1412" x2="1592" y2="1412"/></g><g id="Layer_3"><text class="cls-8" transform="translate(760 -64)"><tspan x="0" y="0">404</tspan></text></g></svg>