<svg xmlns="http://www.w3.org/2000/svg" xmlns:xlink="http://www.w3.org/1999/xlink" viewBox="0 0 90 90"><defs><style>.cls-1{fill:#c9deff;}.cls-2{fill:#6ea6ff;}.cls-3{fill:#97c1ff;}.cls-4{fill:url(#linear-gradient);}.cls-5{fill:url(#linear-gradient-2);}.cls-6{fill:url(#linear-gradient-3);}.cls-7{fill:#bebebe;}.cls-13,.cls-8{fill:#004cc5;}.cls-9{fill:url(#linear-gradient-4);}.cls-10{fill:url(#linear-gradient-5);}.cls-11{fill:url(#linear-gradient-6);}.cls-12{fill:url(#linear-gradient-7);}.cls-13{opacity:0.25;}</style><linearGradient id="linear-gradient" x1="2615.53" y1="2989.84" x2="2605.91" y2="2986.33" gradientTransform="translate(3920.22 -733.17) rotate(120)" gradientUnits="userSpaceOnUse"><stop offset="0" stop-color="#6ea6ff"/><stop offset="0.36" stop-color="#71a8ff"/><stop offset="0.63" stop-color="#7baeff"/><stop offset="0.87" stop-color="#8bb9ff"/><stop offset="1" stop-color="#97c1ff"/></linearGradient><linearGradient id="linear-gradient-2" x1="2619.44" y1="2974.45" x2="2612.9" y2="2972.07" gradientTransform="translate(3920.22 -733.17) rotate(120)" gradientUnits="userSpaceOnUse"><stop offset="0" stop-color="#a4a4a4"/><stop offset="0" stop-color="#a4a4a4"/><stop offset="0.22" stop-color="#969696"/><stop offset="0.49" stop-color="#8e8e8e"/><stop offset="1" stop-color="#8c8c8c"/></linearGradient><linearGradient id="linear-gradient-3" x1="392.26" y1="2970.06" x2="398.97" y2="2970.06" gradientTransform="matrix(0.94, -0.34, -0.34, -0.94, 682.33, 2974.94)" xlink:href="#linear-gradient-2"/><linearGradient id="linear-gradient-4" x1="2632.46" y1="2973.29" x2="2616.21" y2="2938.43" gradientTransform="translate(3920.22 -733.17) rotate(120)" gradientUnits="userSpaceOnUse"><stop offset="0" stop-color="#a4a4a4"/><stop offset="0.38" stop-color="#b6b6b6"/><stop offset="1" stop-color="#dcdcdc"/></linearGradient><linearGradient id="linear-gradient-5" x1="2628.99" y1="2976.24" x2="2629.03" y2="2976.24" xlink:href="#linear-gradient-4"/><linearGradient id="linear-gradient-6" x1="2615.31" y1="2941.71" x2="2615.42" y2="2941.71" gradientTransform="translate(3920.22 -733.17) rotate(120)" gradientUnits="userSpaceOnUse"><stop offset="0" stop-color="#3d3d3d"/><stop offset="0.42" stop-color="#4f4f4f"/><stop offset="1" stop-color="#6f6f6f"/></linearGradient><linearGradient id="linear-gradient-7" x1="2621.65" y1="2975.63" x2="2607.78" y2="2945.89" xlink:href="#linear-gradient-6"/></defs><title>Empty State - No search results (small, 90px)</title><g id="Exploration"><polygon class="cls-1" points="60.06 66.92 48.84 60.42 37.61 66.92 48.84 73.43 60.06 66.92"/><polygon class="cls-1" points="62.47 65.53 48.84 57.64 35.21 65.53 48.84 73.43 62.47 65.53"/><polygon class="cls-2" points="60.06 79.9 60.06 66.96 48.84 73.46 48.84 86.4 60.06 79.9"/><polygon class="cls-3" points="48.84 86.4 48.84 73.46 37.61 66.96 37.61 79.9 48.84 86.4"/><path class="cls-4" d="M31.26,46.63h0a3.67,3.67,0,0,0,3.95.94c2.55-.7,4.61-3.15,4.61-5.46A3,3,0,0,0,39,40l-16-19h0a3.63,3.63,0,0,0-4-1c-2.54.7-4.61,3.15-4.61,5.46a3.1,3.1,0,0,0,.55,1.83h0l.28.33Z"/><ellipse class="cls-1" cx="35.21" cy="43.38" rx="5.11" ry="3.77" transform="translate(-19.65 32.8) rotate(-40.02)"/><path class="cls-5" d="M36.35,50.25h0a2.44,2.44,0,0,0,2.64.63,4.19,4.19,0,0,0,3.09-3.66,2,2,0,0,0-.54-1.44l-3.42-4.24h0a2.43,2.43,0,0,0-2.69-.69,4.2,4.2,0,0,0-3.09,3.67,2.1,2.1,0,0,0,.36,1.22h0l.18.22Z"/><ellipse class="cls-6" cx="39.43" cy="48.43" rx="3.45" ry="2.54" transform="translate(-21.91 36.7) rotate(-40.02)"/><path class="cls-7" d="M35.12,60.85c-7.39-4.29-7.35-11.25.09-15.55S54.66,41,62,45.31,69.39,56.56,62,60.85,42.51,65.14,35.12,60.85ZM37,46.33c-6.44,3.72-6.47,9.77-.08,13.49s16.85,3.72,23.28,0,6.48-9.77.08-13.48-16.84-3.72-23.28,0"/><path class="cls-8" d="M66.16,55.54h0Z"/><path class="cls-8" d="M66.16,55.5h0s0,0,0,0Z"/><path class="cls-9" d="M62,68.61c3.61-2.08,5.47-4.8,5.58-7.54h0v-.35l0-7.68a7.2,7.2,0,0,1-1.24,3.88A12.57,12.57,0,0,1,62,60.8l-.42.24c-7.41,4-19,4-26.29-.16l-.13-.08A12.51,12.51,0,0,1,30.87,57a7.12,7.12,0,0,1-1.22-3.89l0,7.78c0,2.82,1.82,5.63,5.5,7.77C42.51,72.9,54.55,72.9,62,68.61Z"/><path class="cls-10" d="M28.22,55.48v0Z"/><path class="cls-11" d="M65,61v-.12a.49.49,0,0,1,0,.12Z"/><path class="cls-12" d="M36.89,54.09a17.49,17.49,0,0,1,2.43-1.15,26.89,26.89,0,0,1,18.24-.08,17.88,17.88,0,0,1,2.61,1.23A11.28,11.28,0,0,1,63.57,57,6.41,6.41,0,0,0,65,53.27v-.45h0c-.1-2.35-1.68-4.69-4.77-6.48-6.4-3.72-16.84-3.72-23.28,0-3.17,1.83-4.79,4.23-4.85,6.64h0v.13a6.37,6.37,0,0,0,1.37,3.83A11.64,11.64,0,0,1,36.89,54.09Z"/><path class="cls-13" d="M60.18,59.82c6.44-3.72,6.48-9.77.08-13.48s-16.84-3.72-23.28,0-6.47,9.77-.08,13.49S53.75,63.54,60.18,59.82Z"/></g></svg>