<svg id="CarbonforIBMProducts" xmlns="http://www.w3.org/2000/svg" xmlns:xlink="http://www.w3.org/1999/xlink" viewBox="0 0 32 32"><defs><linearGradient id="gzalu6fsaa" x1="-1968.706" y1="-4429" x2="-1968.706" y2="-4440" gradientTransform="matrix(1 0 0 -1 1995.706 -4419)" gradientUnits="userSpaceOnUse"><stop offset="0" stop-opacity="0"/><stop offset=".9"/></linearGradient><linearGradient id="03pfhyd22b" x1="275.255" y1="-1256.179" x2="275.255" y2="-1267.179" gradientTransform="matrix(1 0 0 -1 -264.501 -1234.929)" xlink:href="#gzalu6fsaa"/><linearGradient id="8pd53xik5c" x1="70.172" y1="-938.963" x2="70.172" y2="-949.963" gradientTransform="translate(-61.408 952.214)" xlink:href="#gzalu6fsaa"/><mask id="p0poiang8d" x="0" y="0" width="32" height="32" maskUnits="userSpaceOnUse"><path d="M28 20h-2v-9.072l-8.768-5.062 1-1.732L27.5 9.485a1 1 0 0 1 .5.866V20zM16 31a1 1 0 0 1-.5-.134l-9.343-5.395 1-1.732L16 28.845l9.07-5.237 1 1.732-9.57 5.525a1 1 0 0 1-.5.134zM6 21H4V10.351c0-.357.19-.688.5-.866l9-5.196 1 1.732L6 10.928V21z" style="fill:#fff"/><path style="fill:url(#gzalu6fsaa)" d="M25 10h4v11h-4z"/><path transform="rotate(120 10.754 26.75)" style="fill:url(#03pfhyd22b)" d="M8.754 21.25h4v11h-4z"/><path transform="rotate(60 8.763 7.75)" style="fill:url(#8pd53xik5c)" d="M6.763 2.25h4v11h-4z"/><path d="M16 3c.551 0 1 .449 1 1s-.449 1-1 1-1-.449-1-1 .449-1 1-1m0-2a3 3 0 1 0 0 6 3 3 0 0 0 0-6zM27 22c.551 0 1 .449 1 1s-.449 1-1 1-1-.449-1-1 .449-1 1-1m0-2a3 3 0 1 0 0 6 3 3 0 0 0 0-6zM5 22c.551 0 1 .449 1 1s-.449 1-1 1-1-.449-1-1 .449-1 1-1m0-2a3 3 0 1 0 0 6 3 3 0 0 0 0-6z" style="fill:#fff"/></mask></defs><g style="mask:url(#p0poiang8d)"><path id="Color" transform="rotate(-90 16 16)" style="fill:#fff" d="M0 0h32v32H0z"/></g><path d="M16 25a1 1 0 0 1-.5-.134l-6-3.464a1 1 0 0 1-.5-.866v-7.072c0-.357.19-.688.5-.866l6-3.464a1.003 1.003 0 0 1 1 0l6 3.464a1 1 0 0 1 .5.866v7.072c0 .357-.19.688-.5.866l-6 3.464A1 1 0 0 1 16 25zm-5-5.041 5 2.887 5-2.887v-5.918l-5-2.887-5 2.887v5.918z" style="fill:#fff"/></svg>