<?xml version="1.0" encoding="utf-8"?>
<!-- Generator: Adobe Illustrator 26.5.0, SVG Export Plug-In . SVG Version: 6.00 Build 0)  -->
<svg version="1.1" id="Layer_1" xmlns="http://www.w3.org/2000/svg" xmlns:xlink="http://www.w3.org/1999/xlink" x="0px" y="0px"
	 viewBox="0 0 1054 527" style="enable-background:new 0 0 1054 527;" xml:space="preserve">
<style type="text/css">
	.st0{fill:#FFFFFF;}
	.st1{fill:none;stroke:#97C1FF;stroke-width:1.3258;}
	.st2{fill:none;stroke:#BEBEBE;stroke-width:1.3258;}
	.st3{fill-rule:evenodd;clip-rule:evenodd;fill:#565656;}
	.st4{fill-rule:evenodd;clip-rule:evenodd;fill:#FFFFFF;}
</style>
<g id="Columns-rows">
	<g id="Group">
		<g id="Columns-Copy-3" transform="translate(77.241379, 77.241379)">
			<rect x="-76.6" y="-50.4" class="st0" width="1052.8" height="500.1"/>
			<g id="animation">
				<g id="columns" transform="translate(1.206897, 24.137931)">
					<path id="Rectangle-17-Copy-487" class="st1" d="M-77.8,325.4H-12v100.2h-65.8V325.4z"/>
					<path id="Rectangle-17-Copy-488" class="st1" d="M-12,325.4h65.8v100.2H-12V325.4z"/>
					<path id="Rectangle-17-Copy-489" class="st1" d="M53.8,325.4h65.8v100.2H53.8V325.4z"/>
					<path id="Rectangle-17-Copy-490" class="st1" d="M119.6,325.4h65.8v100.2h-65.8V325.4z"/>
					<path id="Rectangle-17-Copy-491" class="st1" d="M185.4,325.4h65.8v100.2h-65.8V325.4z"/>
					<path id="Rectangle-17-Copy-492" class="st1" d="M251.2,325.4H317v100.2h-65.8V325.4z"/>
					<path id="Rectangle-17-Copy-493" class="st1" d="M317,325.4h65.8v100.2H317V325.4z"/>
					<path id="Rectangle-17-Copy-494" class="st1" d="M382.8,325.4h65.8v100.2h-65.8V325.4z"/>
					<path id="Rectangle-17-Copy-495" class="st1" d="M448.6,325.4h65.8v100.2h-65.8V325.4z"/>
					<path id="Rectangle-17-Copy-496" class="st1" d="M514.3,325.4h65.8v100.2h-65.8V325.4z"/>
					<path id="Rectangle-17-Copy-497" class="st1" d="M580.1,325.4h65.8v100.2h-65.8V325.4z"/>
					<path id="Rectangle-17-Copy-498" class="st1" d="M645.9,325.4h65.8v100.2h-65.8V325.4z"/>
					<path id="Rectangle-17-Copy-499" class="st1" d="M711.7,325.4h65.8v100.2h-65.8V325.4z"/>
					<path id="Rectangle-17-Copy-500" class="st1" d="M777.5,325.4h65.8v100.2h-65.8V325.4z"/>
					<path id="Rectangle-17-Copy-501" class="st1" d="M843.3,325.4h65.8v100.2h-65.8V325.4z"/>
					<path id="Rectangle-17-Copy-502" class="st1" d="M909.1,325.4h65.8v100.2h-65.8V325.4z"/>
					<path id="Rectangle-17-Copy-487_00000181088071358573105890000016781246412255813818_" class="st1" d="M-77.8,225.2H53.8v100.2
						H-77.8V225.2z"/>
					<path id="Rectangle-17-Copy-487_00000005259250898016015780000013206746127221668266_" class="st1" d="M53.8,225.2h131.6v100.2
						H53.8V225.2z"/>
					<path id="Rectangle-17-Copy-487_00000023261174082859492720000011305370048981030784_" class="st1" d="M185.4,225.2H317v100.2
						H185.4V225.2z"/>
					<path id="Rectangle-17-Copy-487_00000032649504363476851630000010252101446904736412_" class="st1" d="M317,225.2h131.6v100.2
						H317V225.2z"/>
					<path id="Rectangle-17-Copy-487_00000101082398737111849170000000210653343834545564_" class="st1" d="M448.6,225.2h131.6
						v100.2H448.6V225.2z"/>
					<path id="Rectangle-17-Copy-487_00000129894076770822521210000016622434387665718198_" class="st1" d="M580.1,225.2h131.6
						v100.2H580.1V225.2z"/>
					<path id="Rectangle-17-Copy-487_00000031179844738354447510000004908057159212197049_" class="st1" d="M711.7,225.2h131.6
						v100.2H711.7V225.2z"/>
					<path id="Rectangle-17-Copy-487_00000007398013127982666220000002362029984516639617_" class="st1" d="M843.3,225.2h131.6
						v100.2H843.3V225.2z"/>
					<path id="Rectangle-17-Copy-487_00000039832380182025289840000009566840123355604889_" class="st1" d="M711.7,125.1h263.2
						v100.2H711.7V125.1z"/>
					<path id="Rectangle-17-Copy-487_00000019675386467041787940000000022235780906252162_" class="st1" d="M448.6,125.1h263.2
						v100.2H448.6V125.1z"/>
					<path id="Rectangle-17-Copy-487_00000160907258235973635570000014036425069619638713_" class="st1" d="M185.4,125.1h263.2
						v100.2H185.4V125.1z"/>
					<path id="Rectangle-17-Copy-487_00000076588233388643922820000018016101123645414570_" class="st1" d="M-77.8,125.1h263.2
						v100.2H-77.8V125.1z"/>
					<path id="Rectangle-17-Copy-487_00000063605330246951234410000017040965804357960102_" class="st1" d="M-77.8,24.9h526.3v100.2
						H-77.8V24.9z"/>
					<path id="Rectangle-17-Copy-487_00000170242768088858640490000002174335951360957872_" class="st1" d="M448.6,24.9h526.3v100.2
						H448.6V24.9z"/>
					<path id="Rectangle-17-Copy-487_00000113331925669082331900000005609203485201608627_" class="st1" d="M-77.8-75.3H974.9V24.9
						H-77.8V-75.3z"/>
				</g>
				<g id="browser">
					
						<rect id="Rectangle-17-Copy-487_00000022554730535580474390000007017014795055305352_" x="-76.6" y="-51.2" class="st2" width="1052.7" height="501"/>
					<path id="Rectangle-2-Copy-25" class="st3" d="M-73.9-77.2H973.4c1.8,0,3.3,1.5,3.3,3.4v23.3h-1054v-23.3
						C-77.2-75.7-75.8-77.2-73.9-77.2z"/>
					<ellipse id="Oval-5-Copy-18" class="st4" cx="-60.1" cy="-63.9" rx="3.9" ry="4"/>
					<ellipse id="Oval-5-Copy-19" class="st4" cx="-44.3" cy="-63.9" rx="3.9" ry="4"/>
				</g>
			</g>
		</g>
	</g>
</g>
</svg>
