<?xml version="1.0" encoding="utf-8"?>
<!-- Generator: Adobe Illustrator 25.2.0, SVG Export Plug-In . SVG Version: 6.00 Build 0)  -->
<svg version="1.1" id="icon" xmlns="http://www.w3.org/2000/svg" xmlns:xlink="http://www.w3.org/1999/xlink" x="0px" y="0px"
	 viewBox="0 0 32 32" style="enable-background:new 0 0 32 32;" xml:space="preserve">
<style type="text/css">
	.st0{fill:#4589FF;}
	.st1{fill:none;}
</style>
<path class="st0" d="M20,10h5.2C21.9,4.9,15.1,3.5,10,6.8c-3.1,2-5,5.5-5,9.2H3C3,8.8,8.8,3,16,3c3.9,0,7.5,1.7,10,4.7V4h2v8h-8V10z
	"/>
<animateTransform  accumulate="none" additive="replace" attributeName="transform" calcMode="linear" dur="12s" fill="remove" from="0 0 0" repeatCount="indefinite" restart="always" to="360 0 0" type="rotate">
	</animateTransform>
<path class="st0" d="M12,22H6.8c3.3,5.1,10.1,6.5,15.2,3.2c3.1-2,5-5.5,5-9.2h2c0,7.2-5.8,13-13,13c-3.9,0-7.5-1.7-10-4.7V28H4v-8h8
	V22z"/>
<g id="_Transparent_Rectangle_">
	<rect class="st1" width="32" height="32"/>
</g>
</svg>
