<svg id="icons" xmlns="http://www.w3.org/2000/svg" viewBox="0 0 32 32">
  <g>
    <path d="M29.42,14.59l-12-12a2,2,0,0,0-2.82,0l-12,12a2,2,0,0,0,0,2.82l12,12a2,2,0,0,0,2.82,0l12-12A2,2,0,0,0,29.42,14.59ZM16,24a1.5,1.5,0,1,1,1.5-1.5A1.5,1.5,0,0,1,16,24Zm1.12-6.75v1.87H14.87V15H17a1.88,1.88,0,0,0,0-3.75H15a1.88,1.88,0,0,0-1.88,1.87v.5H10.87v-.5A4.14,4.14,0,0,1,15,9h2a4.13,4.13,0,0,1,.12,8.25Z" fill="#a8a8a8"/>
    <path d="M16,21a1.5,1.5,0,1,1-1.5,1.5A1.5,1.5,0,0,1,16,21Zm1.12-3.75A4.13,4.13,0,0,0,17,9H15a4.14,4.14,0,0,0-4.13,4.12v.5h2.25v-.5A1.88,1.88,0,0,1,15,11.25h2A1.88,1.88,0,0,1,17,15H14.87v4.12h2.25Z" fill="none"/>
  </g>
</svg>
